%TF.GenerationSoftware,KiCad,Pcbnew,8.0.8*%
%TF.CreationDate,2025-03-29T16:24:55+01:00*%
%TF.ProjectId,rf,72662e6b-6963-4616-945f-706362585858,rev?*%
%TF.SameCoordinates,PX55d4a80PY8044ea0*%
%TF.FileFunction,Soldermask,Bot*%
%TF.FilePolarity,Negative*%
%FSLAX46Y46*%
G04 Gerber Fmt 4.6, Leading zero omitted, Abs format (unit mm)*
G04 Created by KiCad (PCBNEW 8.0.8) date 2025-03-29 16:24:55*
%MOMM*%
%LPD*%
G01*
G04 APERTURE LIST*
G04 APERTURE END LIST*
G36*
X6023850Y8695344D02*
G01*
X6366257Y8619975D01*
X6698507Y8508027D01*
X7016707Y8360812D01*
X7317124Y8180057D01*
X7596237Y7967881D01*
X7850773Y7726771D01*
X8077749Y7459554D01*
X8274504Y7169363D01*
X8438729Y6859601D01*
X8568501Y6533898D01*
X8662297Y6196074D01*
X8719019Y5850089D01*
X8738000Y5500000D01*
X8719019Y5149911D01*
X8662297Y4803926D01*
X8568501Y4466102D01*
X8438729Y4140399D01*
X8274504Y3830637D01*
X8077749Y3540446D01*
X7850773Y3273229D01*
X7596237Y3032119D01*
X7317124Y2819943D01*
X7016707Y2639188D01*
X6698507Y2491973D01*
X6366257Y2380025D01*
X6023850Y2304656D01*
X5675302Y2266749D01*
X5324698Y2266749D01*
X4976150Y2304656D01*
X4633743Y2380025D01*
X4301493Y2491973D01*
X3983293Y2639188D01*
X3682876Y2819943D01*
X3403763Y3032119D01*
X3149227Y3273229D01*
X2922251Y3540446D01*
X2725496Y3830637D01*
X2561271Y4140399D01*
X2431499Y4466102D01*
X2337703Y4803926D01*
X2280981Y5149911D01*
X2262000Y5500000D01*
X2280981Y5850089D01*
X2337703Y6196074D01*
X2431499Y6533898D01*
X2561271Y6859601D01*
X2725496Y7169363D01*
X2922251Y7459554D01*
X3149227Y7726771D01*
X3403763Y7967881D01*
X3682876Y8180057D01*
X3983293Y8360812D01*
X4301493Y8508027D01*
X4633743Y8619975D01*
X4976150Y8695344D01*
X5324698Y8733251D01*
X5675302Y8733251D01*
X6023850Y8695344D01*
G37*
G36*
X91023850Y8695344D02*
G01*
X91366257Y8619975D01*
X91698507Y8508027D01*
X92016707Y8360812D01*
X92317124Y8180057D01*
X92596237Y7967881D01*
X92850773Y7726771D01*
X93077749Y7459554D01*
X93274504Y7169363D01*
X93438729Y6859601D01*
X93568501Y6533898D01*
X93662297Y6196074D01*
X93719019Y5850089D01*
X93738000Y5500000D01*
X93719019Y5149911D01*
X93662297Y4803926D01*
X93568501Y4466102D01*
X93438729Y4140399D01*
X93274504Y3830637D01*
X93077749Y3540446D01*
X92850773Y3273229D01*
X92596237Y3032119D01*
X92317124Y2819943D01*
X92016707Y2639188D01*
X91698507Y2491973D01*
X91366257Y2380025D01*
X91023850Y2304656D01*
X90675302Y2266749D01*
X90324698Y2266749D01*
X89976150Y2304656D01*
X89633743Y2380025D01*
X89301493Y2491973D01*
X88983293Y2639188D01*
X88682876Y2819943D01*
X88403763Y3032119D01*
X88149227Y3273229D01*
X87922251Y3540446D01*
X87725496Y3830637D01*
X87561271Y4140399D01*
X87431499Y4466102D01*
X87337703Y4803926D01*
X87280981Y5149911D01*
X87262000Y5500000D01*
X87280981Y5850089D01*
X87337703Y6196074D01*
X87431499Y6533898D01*
X87561271Y6859601D01*
X87725496Y7169363D01*
X87922251Y7459554D01*
X88149227Y7726771D01*
X88403763Y7967881D01*
X88682876Y8180057D01*
X88983293Y8360812D01*
X89301493Y8508027D01*
X89633743Y8619975D01*
X89976150Y8695344D01*
X90324698Y8733251D01*
X90675302Y8733251D01*
X91023850Y8695344D01*
G37*
G36*
X90766682Y47040762D02*
G01*
X90931500Y46967380D01*
X91077460Y46861334D01*
X91198182Y46727259D01*
X91288390Y46571014D01*
X91344141Y46399428D01*
X91363000Y46220000D01*
X91344141Y46040572D01*
X91288390Y45868986D01*
X91198182Y45712741D01*
X91077460Y45578666D01*
X90931500Y45472620D01*
X90766682Y45399238D01*
X90590208Y45361728D01*
X90409792Y45361728D01*
X90233318Y45399238D01*
X90068500Y45472620D01*
X89922540Y45578666D01*
X89801818Y45712741D01*
X89711610Y45868986D01*
X89655859Y46040572D01*
X89637000Y46220000D01*
X89655859Y46399428D01*
X89711610Y46571014D01*
X89801818Y46727259D01*
X89922540Y46861334D01*
X90068500Y46967380D01*
X90233318Y47040762D01*
X90409792Y47078272D01*
X90590208Y47078272D01*
X90766682Y47040762D01*
G37*
G36*
X90766682Y49580762D02*
G01*
X90931500Y49507380D01*
X91077460Y49401334D01*
X91198182Y49267259D01*
X91288390Y49111014D01*
X91344141Y48939428D01*
X91363000Y48760000D01*
X91344141Y48580572D01*
X91288390Y48408986D01*
X91198182Y48252741D01*
X91077460Y48118666D01*
X90931500Y48012620D01*
X90766682Y47939238D01*
X90590208Y47901728D01*
X90409792Y47901728D01*
X90233318Y47939238D01*
X90068500Y48012620D01*
X89922540Y48118666D01*
X89801818Y48252741D01*
X89711610Y48408986D01*
X89655859Y48580572D01*
X89637000Y48760000D01*
X89655859Y48939428D01*
X89711610Y49111014D01*
X89801818Y49267259D01*
X89922540Y49401334D01*
X90068500Y49507380D01*
X90233318Y49580762D01*
X90409792Y49618272D01*
X90590208Y49618272D01*
X90766682Y49580762D01*
G37*
G36*
X90766682Y52120762D02*
G01*
X90931500Y52047380D01*
X91077460Y51941334D01*
X91198182Y51807259D01*
X91288390Y51651014D01*
X91344141Y51479428D01*
X91363000Y51300000D01*
X91344141Y51120572D01*
X91288390Y50948986D01*
X91198182Y50792741D01*
X91077460Y50658666D01*
X90931500Y50552620D01*
X90766682Y50479238D01*
X90590208Y50441728D01*
X90409792Y50441728D01*
X90233318Y50479238D01*
X90068500Y50552620D01*
X89922540Y50658666D01*
X89801818Y50792741D01*
X89711610Y50948986D01*
X89655859Y51120572D01*
X89637000Y51300000D01*
X89655859Y51479428D01*
X89711610Y51651014D01*
X89801818Y51807259D01*
X89922540Y51941334D01*
X90068500Y52047380D01*
X90233318Y52120762D01*
X90409792Y52158272D01*
X90590208Y52158272D01*
X90766682Y52120762D01*
G37*
G36*
X35223700Y53228302D02*
G01*
X35278407Y53228302D01*
X35338700Y53218241D01*
X35398000Y53213053D01*
X35444567Y53200575D01*
X35492270Y53192615D01*
X35556265Y53170646D01*
X35619072Y53153816D01*
X35657545Y53135876D01*
X35697343Y53122213D01*
X35762733Y53086826D01*
X35826500Y53057091D01*
X35856515Y53036075D01*
X35888025Y53019022D01*
X35952172Y52969095D01*
X36013980Y52925816D01*
X36035762Y52904034D01*
X36059126Y52885849D01*
X36119141Y52820655D01*
X36175816Y52763980D01*
X36190122Y52743548D01*
X36205971Y52726332D01*
X36258837Y52645413D01*
X36307091Y52576500D01*
X36315146Y52559226D01*
X36324559Y52544818D01*
X36367285Y52447412D01*
X36403816Y52369072D01*
X36407217Y52356377D01*
X36411654Y52346263D01*
X36441352Y52228986D01*
X36463053Y52148000D01*
X36463682Y52140808D01*
X36464880Y52136078D01*
X36478931Y51966505D01*
X36483000Y51920000D01*
X36478931Y51873493D01*
X36464880Y51703923D01*
X36463682Y51699194D01*
X36463053Y51692000D01*
X36441348Y51610998D01*
X36411654Y51493738D01*
X36407218Y51483627D01*
X36403816Y51470928D01*
X36367278Y51392573D01*
X36324559Y51295183D01*
X36315147Y51280779D01*
X36307091Y51263500D01*
X36258827Y51194574D01*
X36205971Y51113669D01*
X36190125Y51096457D01*
X36175816Y51076020D01*
X36119129Y51019334D01*
X36059126Y50954152D01*
X36035766Y50935971D01*
X36013980Y50914184D01*
X35952159Y50870897D01*
X35888025Y50820979D01*
X35856521Y50803931D01*
X35826500Y50782909D01*
X35762720Y50753169D01*
X35697343Y50717788D01*
X35657553Y50704129D01*
X35619072Y50686184D01*
X35556252Y50669352D01*
X35492270Y50647386D01*
X35444575Y50639428D01*
X35398000Y50626947D01*
X35338696Y50621759D01*
X35278407Y50611698D01*
X35223700Y50611698D01*
X35170000Y50607000D01*
X35116300Y50611698D01*
X35061593Y50611698D01*
X35001302Y50621759D01*
X34942000Y50626947D01*
X34895425Y50639427D01*
X34847729Y50647386D01*
X34783743Y50669353D01*
X34720928Y50686184D01*
X34682449Y50704127D01*
X34642656Y50717788D01*
X34577272Y50753172D01*
X34513500Y50782909D01*
X34483481Y50803928D01*
X34451974Y50820979D01*
X34387830Y50870904D01*
X34326020Y50914184D01*
X34304236Y50935968D01*
X34280873Y50954152D01*
X34220857Y51019347D01*
X34164184Y51076020D01*
X34149877Y51096452D01*
X34134028Y51113669D01*
X34081157Y51194595D01*
X34032909Y51263500D01*
X34024854Y51280773D01*
X34015440Y51295183D01*
X33972704Y51392609D01*
X33936184Y51470928D01*
X33932783Y51483621D01*
X33928345Y51493738D01*
X33898633Y51611066D01*
X33876947Y51692000D01*
X33876318Y51699188D01*
X33875119Y51703923D01*
X33861049Y51873709D01*
X33857000Y51920000D01*
X33861049Y51966288D01*
X33875119Y52136078D01*
X33876318Y52140815D01*
X33876947Y52148000D01*
X33898629Y52228918D01*
X33928345Y52346263D01*
X33932783Y52356383D01*
X33936184Y52369072D01*
X33972697Y52447376D01*
X34015440Y52544818D01*
X34024856Y52559231D01*
X34032909Y52576500D01*
X34081147Y52645392D01*
X34134028Y52726332D01*
X34149880Y52743553D01*
X34164184Y52763980D01*
X34220846Y52820643D01*
X34280873Y52885849D01*
X34304241Y52904038D01*
X34326020Y52925816D01*
X34387817Y52969088D01*
X34451974Y53019022D01*
X34483488Y53036077D01*
X34513500Y53057091D01*
X34577258Y53086823D01*
X34642656Y53122213D01*
X34682457Y53135877D01*
X34720928Y53153816D01*
X34783730Y53170645D01*
X34847729Y53192615D01*
X34895433Y53200576D01*
X34942000Y53213053D01*
X35001299Y53218241D01*
X35061593Y53228302D01*
X35116300Y53228302D01*
X35170000Y53233000D01*
X35223700Y53228302D01*
G37*
G36*
X40303700Y53228302D02*
G01*
X40358407Y53228302D01*
X40418700Y53218241D01*
X40478000Y53213053D01*
X40524567Y53200575D01*
X40572270Y53192615D01*
X40636265Y53170646D01*
X40699072Y53153816D01*
X40737545Y53135876D01*
X40777343Y53122213D01*
X40842733Y53086826D01*
X40906500Y53057091D01*
X40936515Y53036075D01*
X40968025Y53019022D01*
X41032172Y52969095D01*
X41093980Y52925816D01*
X41115762Y52904034D01*
X41139126Y52885849D01*
X41199141Y52820655D01*
X41255816Y52763980D01*
X41270122Y52743548D01*
X41285971Y52726332D01*
X41338837Y52645413D01*
X41387091Y52576500D01*
X41395146Y52559226D01*
X41404559Y52544818D01*
X41447285Y52447412D01*
X41483816Y52369072D01*
X41487217Y52356377D01*
X41491654Y52346263D01*
X41521352Y52228986D01*
X41543053Y52148000D01*
X41543682Y52140808D01*
X41544880Y52136078D01*
X41558931Y51966505D01*
X41563000Y51920000D01*
X41558931Y51873493D01*
X41544880Y51703923D01*
X41543682Y51699194D01*
X41543053Y51692000D01*
X41521348Y51610998D01*
X41491654Y51493738D01*
X41487218Y51483627D01*
X41483816Y51470928D01*
X41447278Y51392573D01*
X41404559Y51295183D01*
X41395147Y51280779D01*
X41387091Y51263500D01*
X41338827Y51194574D01*
X41285971Y51113669D01*
X41270125Y51096457D01*
X41255816Y51076020D01*
X41199129Y51019334D01*
X41139126Y50954152D01*
X41115766Y50935971D01*
X41093980Y50914184D01*
X41032159Y50870897D01*
X40968025Y50820979D01*
X40936521Y50803931D01*
X40906500Y50782909D01*
X40842720Y50753169D01*
X40777343Y50717788D01*
X40737553Y50704129D01*
X40699072Y50686184D01*
X40636252Y50669352D01*
X40572270Y50647386D01*
X40524575Y50639428D01*
X40478000Y50626947D01*
X40418696Y50621759D01*
X40358407Y50611698D01*
X40303700Y50611698D01*
X40250000Y50607000D01*
X40196300Y50611698D01*
X40141593Y50611698D01*
X40081302Y50621759D01*
X40022000Y50626947D01*
X39975425Y50639427D01*
X39927729Y50647386D01*
X39863743Y50669353D01*
X39800928Y50686184D01*
X39762449Y50704127D01*
X39722656Y50717788D01*
X39657272Y50753172D01*
X39593500Y50782909D01*
X39563481Y50803928D01*
X39531974Y50820979D01*
X39467830Y50870904D01*
X39406020Y50914184D01*
X39384236Y50935968D01*
X39360873Y50954152D01*
X39300857Y51019347D01*
X39244184Y51076020D01*
X39229877Y51096452D01*
X39214028Y51113669D01*
X39161157Y51194595D01*
X39112909Y51263500D01*
X39104854Y51280773D01*
X39095440Y51295183D01*
X39052704Y51392609D01*
X39016184Y51470928D01*
X39012783Y51483621D01*
X39008345Y51493738D01*
X38978633Y51611066D01*
X38956947Y51692000D01*
X38956318Y51699188D01*
X38955119Y51703923D01*
X38941049Y51873709D01*
X38937000Y51920000D01*
X38941049Y51966288D01*
X38955119Y52136078D01*
X38956318Y52140815D01*
X38956947Y52148000D01*
X38978629Y52228918D01*
X39008345Y52346263D01*
X39012783Y52356383D01*
X39016184Y52369072D01*
X39052697Y52447376D01*
X39095440Y52544818D01*
X39104856Y52559231D01*
X39112909Y52576500D01*
X39161147Y52645392D01*
X39214028Y52726332D01*
X39229880Y52743553D01*
X39244184Y52763980D01*
X39300846Y52820643D01*
X39360873Y52885849D01*
X39384241Y52904038D01*
X39406020Y52925816D01*
X39467817Y52969088D01*
X39531974Y53019022D01*
X39563488Y53036077D01*
X39593500Y53057091D01*
X39657258Y53086823D01*
X39722656Y53122213D01*
X39762457Y53135877D01*
X39800928Y53153816D01*
X39863730Y53170645D01*
X39927729Y53192615D01*
X39975433Y53200576D01*
X40022000Y53213053D01*
X40081299Y53218241D01*
X40141593Y53228302D01*
X40196300Y53228302D01*
X40250000Y53233000D01*
X40303700Y53228302D01*
G37*
G36*
X90766682Y54660762D02*
G01*
X90931500Y54587380D01*
X91077460Y54481334D01*
X91198182Y54347259D01*
X91288390Y54191014D01*
X91344141Y54019428D01*
X91363000Y53840000D01*
X91344141Y53660572D01*
X91288390Y53488986D01*
X91198182Y53332741D01*
X91077460Y53198666D01*
X90931500Y53092620D01*
X90766682Y53019238D01*
X90590208Y52981728D01*
X90409792Y52981728D01*
X90233318Y53019238D01*
X90068500Y53092620D01*
X89922540Y53198666D01*
X89801818Y53332741D01*
X89711610Y53488986D01*
X89655859Y53660572D01*
X89637000Y53840000D01*
X89655859Y54019428D01*
X89711610Y54191014D01*
X89801818Y54347259D01*
X89922540Y54481334D01*
X90068500Y54587380D01*
X90233318Y54660762D01*
X90409792Y54698272D01*
X90590208Y54698272D01*
X90766682Y54660762D01*
G37*
G36*
X38278823Y55622168D02*
G01*
X38379749Y55612997D01*
X38402625Y55605869D01*
X38427921Y55602538D01*
X38472291Y55584160D01*
X38518766Y55569677D01*
X38543821Y55554531D01*
X38572750Y55542548D01*
X38606566Y55516600D01*
X38642557Y55494843D01*
X38667738Y55469662D01*
X38697118Y55447118D01*
X38719661Y55417739D01*
X38744842Y55392558D01*
X38766598Y55356569D01*
X38792548Y55322750D01*
X38804531Y55293820D01*
X38819676Y55268767D01*
X38834155Y55222302D01*
X38852538Y55177921D01*
X38855869Y55152618D01*
X38862995Y55129750D01*
X38872163Y55028851D01*
X38873000Y55022500D01*
X38873000Y53897500D01*
X38872164Y53891152D01*
X38862996Y53790251D01*
X38855869Y53767380D01*
X38852538Y53742079D01*
X38834155Y53697700D01*
X38819676Y53651234D01*
X38804532Y53626185D01*
X38792548Y53597250D01*
X38766595Y53563428D01*
X38744842Y53527443D01*
X38719664Y53502266D01*
X38697118Y53472882D01*
X38667734Y53450336D01*
X38642557Y53425158D01*
X38606572Y53403405D01*
X38572750Y53377452D01*
X38543815Y53365468D01*
X38518766Y53350324D01*
X38472304Y53335847D01*
X38427921Y53317462D01*
X38402615Y53314131D01*
X38379749Y53307005D01*
X38278852Y53297837D01*
X38272500Y53297000D01*
X37147500Y53297000D01*
X37141153Y53297836D01*
X37040250Y53307004D01*
X37017378Y53314132D01*
X36992079Y53317462D01*
X36947702Y53335844D01*
X36901233Y53350324D01*
X36876180Y53365469D01*
X36847250Y53377452D01*
X36813431Y53403402D01*
X36777442Y53425158D01*
X36752261Y53450339D01*
X36722882Y53472882D01*
X36700338Y53502262D01*
X36675157Y53527443D01*
X36653400Y53563434D01*
X36627452Y53597250D01*
X36615469Y53626179D01*
X36600323Y53651234D01*
X36585841Y53697706D01*
X36567462Y53742079D01*
X36564131Y53767380D01*
X36557004Y53790251D01*
X36547833Y53891173D01*
X36547000Y53897500D01*
X36547000Y55022500D01*
X36547832Y55028822D01*
X36557003Y55129750D01*
X36564131Y55152628D01*
X36567462Y55177921D01*
X36585839Y55222289D01*
X36600323Y55268767D01*
X36615470Y55293825D01*
X36627452Y55322750D01*
X36653397Y55356563D01*
X36675157Y55392558D01*
X36700341Y55417743D01*
X36722882Y55447118D01*
X36752257Y55469659D01*
X36777442Y55494843D01*
X36813437Y55516603D01*
X36847250Y55542548D01*
X36876175Y55554530D01*
X36901233Y55569677D01*
X36947708Y55584160D01*
X36992079Y55602538D01*
X37017377Y55605869D01*
X37040250Y55612996D01*
X37141174Y55622168D01*
X37147500Y55623000D01*
X38272500Y55623000D01*
X38278823Y55622168D01*
G37*
G36*
X90766682Y57200762D02*
G01*
X90931500Y57127380D01*
X91077460Y57021334D01*
X91198182Y56887259D01*
X91288390Y56731014D01*
X91344141Y56559428D01*
X91363000Y56380000D01*
X91344141Y56200572D01*
X91288390Y56028986D01*
X91198182Y55872741D01*
X91077460Y55738666D01*
X90931500Y55632620D01*
X90766682Y55559238D01*
X90590208Y55521728D01*
X90409792Y55521728D01*
X90233318Y55559238D01*
X90068500Y55632620D01*
X89922540Y55738666D01*
X89801818Y55872741D01*
X89711610Y56028986D01*
X89655859Y56200572D01*
X89637000Y56380000D01*
X89655859Y56559428D01*
X89711610Y56731014D01*
X89801818Y56887259D01*
X89922540Y57021334D01*
X90068500Y57127380D01*
X90233318Y57200762D01*
X90409792Y57238272D01*
X90590208Y57238272D01*
X90766682Y57200762D01*
G37*
G36*
X35223700Y58308302D02*
G01*
X35278407Y58308302D01*
X35338700Y58298241D01*
X35398000Y58293053D01*
X35444567Y58280575D01*
X35492270Y58272615D01*
X35556265Y58250646D01*
X35619072Y58233816D01*
X35657545Y58215876D01*
X35697343Y58202213D01*
X35762733Y58166826D01*
X35826500Y58137091D01*
X35856515Y58116075D01*
X35888025Y58099022D01*
X35952172Y58049095D01*
X36013980Y58005816D01*
X36035762Y57984034D01*
X36059126Y57965849D01*
X36119141Y57900655D01*
X36175816Y57843980D01*
X36190122Y57823548D01*
X36205971Y57806332D01*
X36258837Y57725413D01*
X36307091Y57656500D01*
X36315146Y57639226D01*
X36324559Y57624818D01*
X36367285Y57527412D01*
X36403816Y57449072D01*
X36407217Y57436377D01*
X36411654Y57426263D01*
X36441352Y57308986D01*
X36463053Y57228000D01*
X36463682Y57220808D01*
X36464880Y57216078D01*
X36478931Y57046505D01*
X36483000Y57000000D01*
X36478931Y56953493D01*
X36464880Y56783923D01*
X36463682Y56779194D01*
X36463053Y56772000D01*
X36441348Y56690998D01*
X36411654Y56573738D01*
X36407218Y56563627D01*
X36403816Y56550928D01*
X36367278Y56472573D01*
X36324559Y56375183D01*
X36315147Y56360779D01*
X36307091Y56343500D01*
X36258827Y56274574D01*
X36205971Y56193669D01*
X36190125Y56176457D01*
X36175816Y56156020D01*
X36119129Y56099334D01*
X36059126Y56034152D01*
X36035766Y56015971D01*
X36013980Y55994184D01*
X35952159Y55950897D01*
X35888025Y55900979D01*
X35856521Y55883931D01*
X35826500Y55862909D01*
X35762720Y55833169D01*
X35697343Y55797788D01*
X35657553Y55784129D01*
X35619072Y55766184D01*
X35556252Y55749352D01*
X35492270Y55727386D01*
X35444575Y55719428D01*
X35398000Y55706947D01*
X35338696Y55701759D01*
X35278407Y55691698D01*
X35223700Y55691698D01*
X35170000Y55687000D01*
X35116300Y55691698D01*
X35061593Y55691698D01*
X35001302Y55701759D01*
X34942000Y55706947D01*
X34895425Y55719427D01*
X34847729Y55727386D01*
X34783743Y55749353D01*
X34720928Y55766184D01*
X34682449Y55784127D01*
X34642656Y55797788D01*
X34577272Y55833172D01*
X34513500Y55862909D01*
X34483481Y55883928D01*
X34451974Y55900979D01*
X34387830Y55950904D01*
X34326020Y55994184D01*
X34304236Y56015968D01*
X34280873Y56034152D01*
X34220857Y56099347D01*
X34164184Y56156020D01*
X34149877Y56176452D01*
X34134028Y56193669D01*
X34081157Y56274595D01*
X34032909Y56343500D01*
X34024854Y56360773D01*
X34015440Y56375183D01*
X33972704Y56472609D01*
X33936184Y56550928D01*
X33932783Y56563621D01*
X33928345Y56573738D01*
X33898633Y56691066D01*
X33876947Y56772000D01*
X33876318Y56779188D01*
X33875119Y56783923D01*
X33861049Y56953709D01*
X33857000Y57000000D01*
X33861049Y57046288D01*
X33875119Y57216078D01*
X33876318Y57220815D01*
X33876947Y57228000D01*
X33898629Y57308918D01*
X33928345Y57426263D01*
X33932783Y57436383D01*
X33936184Y57449072D01*
X33972697Y57527376D01*
X34015440Y57624818D01*
X34024856Y57639231D01*
X34032909Y57656500D01*
X34081147Y57725392D01*
X34134028Y57806332D01*
X34149880Y57823553D01*
X34164184Y57843980D01*
X34220846Y57900643D01*
X34280873Y57965849D01*
X34304241Y57984038D01*
X34326020Y58005816D01*
X34387817Y58049088D01*
X34451974Y58099022D01*
X34483488Y58116077D01*
X34513500Y58137091D01*
X34577258Y58166823D01*
X34642656Y58202213D01*
X34682457Y58215877D01*
X34720928Y58233816D01*
X34783730Y58250645D01*
X34847729Y58272615D01*
X34895433Y58280576D01*
X34942000Y58293053D01*
X35001299Y58298241D01*
X35061593Y58308302D01*
X35116300Y58308302D01*
X35170000Y58313000D01*
X35223700Y58308302D01*
G37*
G36*
X40303700Y58308302D02*
G01*
X40358407Y58308302D01*
X40418700Y58298241D01*
X40478000Y58293053D01*
X40524567Y58280575D01*
X40572270Y58272615D01*
X40636265Y58250646D01*
X40699072Y58233816D01*
X40737545Y58215876D01*
X40777343Y58202213D01*
X40842733Y58166826D01*
X40906500Y58137091D01*
X40936515Y58116075D01*
X40968025Y58099022D01*
X41032172Y58049095D01*
X41093980Y58005816D01*
X41115762Y57984034D01*
X41139126Y57965849D01*
X41199141Y57900655D01*
X41255816Y57843980D01*
X41270122Y57823548D01*
X41285971Y57806332D01*
X41338837Y57725413D01*
X41387091Y57656500D01*
X41395146Y57639226D01*
X41404559Y57624818D01*
X41447285Y57527412D01*
X41483816Y57449072D01*
X41487217Y57436377D01*
X41491654Y57426263D01*
X41521352Y57308986D01*
X41543053Y57228000D01*
X41543682Y57220808D01*
X41544880Y57216078D01*
X41558931Y57046505D01*
X41563000Y57000000D01*
X41558931Y56953493D01*
X41544880Y56783923D01*
X41543682Y56779194D01*
X41543053Y56772000D01*
X41521348Y56690998D01*
X41491654Y56573738D01*
X41487218Y56563627D01*
X41483816Y56550928D01*
X41447278Y56472573D01*
X41404559Y56375183D01*
X41395147Y56360779D01*
X41387091Y56343500D01*
X41338827Y56274574D01*
X41285971Y56193669D01*
X41270125Y56176457D01*
X41255816Y56156020D01*
X41199129Y56099334D01*
X41139126Y56034152D01*
X41115766Y56015971D01*
X41093980Y55994184D01*
X41032159Y55950897D01*
X40968025Y55900979D01*
X40936521Y55883931D01*
X40906500Y55862909D01*
X40842720Y55833169D01*
X40777343Y55797788D01*
X40737553Y55784129D01*
X40699072Y55766184D01*
X40636252Y55749352D01*
X40572270Y55727386D01*
X40524575Y55719428D01*
X40478000Y55706947D01*
X40418696Y55701759D01*
X40358407Y55691698D01*
X40303700Y55691698D01*
X40250000Y55687000D01*
X40196300Y55691698D01*
X40141593Y55691698D01*
X40081302Y55701759D01*
X40022000Y55706947D01*
X39975425Y55719427D01*
X39927729Y55727386D01*
X39863743Y55749353D01*
X39800928Y55766184D01*
X39762449Y55784127D01*
X39722656Y55797788D01*
X39657272Y55833172D01*
X39593500Y55862909D01*
X39563481Y55883928D01*
X39531974Y55900979D01*
X39467830Y55950904D01*
X39406020Y55994184D01*
X39384236Y56015968D01*
X39360873Y56034152D01*
X39300857Y56099347D01*
X39244184Y56156020D01*
X39229877Y56176452D01*
X39214028Y56193669D01*
X39161157Y56274595D01*
X39112909Y56343500D01*
X39104854Y56360773D01*
X39095440Y56375183D01*
X39052704Y56472609D01*
X39016184Y56550928D01*
X39012783Y56563621D01*
X39008345Y56573738D01*
X38978633Y56691066D01*
X38956947Y56772000D01*
X38956318Y56779188D01*
X38955119Y56783923D01*
X38941049Y56953709D01*
X38937000Y57000000D01*
X38941049Y57046288D01*
X38955119Y57216078D01*
X38956318Y57220815D01*
X38956947Y57228000D01*
X38978629Y57308918D01*
X39008345Y57426263D01*
X39012783Y57436383D01*
X39016184Y57449072D01*
X39052697Y57527376D01*
X39095440Y57624818D01*
X39104856Y57639231D01*
X39112909Y57656500D01*
X39161147Y57725392D01*
X39214028Y57806332D01*
X39229880Y57823553D01*
X39244184Y57843980D01*
X39300846Y57900643D01*
X39360873Y57965849D01*
X39384241Y57984038D01*
X39406020Y58005816D01*
X39467817Y58049088D01*
X39531974Y58099022D01*
X39563488Y58116077D01*
X39593500Y58137091D01*
X39657258Y58166823D01*
X39722656Y58202213D01*
X39762457Y58215877D01*
X39800928Y58233816D01*
X39863730Y58250645D01*
X39927729Y58272615D01*
X39975433Y58280576D01*
X40022000Y58293053D01*
X40081299Y58298241D01*
X40141593Y58308302D01*
X40196300Y58308302D01*
X40250000Y58313000D01*
X40303700Y58308302D01*
G37*
G36*
X90766682Y59740762D02*
G01*
X90931500Y59667380D01*
X91077460Y59561334D01*
X91198182Y59427259D01*
X91288390Y59271014D01*
X91344141Y59099428D01*
X91363000Y58920000D01*
X91344141Y58740572D01*
X91288390Y58568986D01*
X91198182Y58412741D01*
X91077460Y58278666D01*
X90931500Y58172620D01*
X90766682Y58099238D01*
X90590208Y58061728D01*
X90409792Y58061728D01*
X90233318Y58099238D01*
X90068500Y58172620D01*
X89922540Y58278666D01*
X89801818Y58412741D01*
X89711610Y58568986D01*
X89655859Y58740572D01*
X89637000Y58920000D01*
X89655859Y59099428D01*
X89711610Y59271014D01*
X89801818Y59427259D01*
X89922540Y59561334D01*
X90068500Y59667380D01*
X90233318Y59740762D01*
X90409792Y59778272D01*
X90590208Y59778272D01*
X90766682Y59740762D01*
G37*
G36*
X90766682Y62280762D02*
G01*
X90931500Y62207380D01*
X91077460Y62101334D01*
X91198182Y61967259D01*
X91288390Y61811014D01*
X91344141Y61639428D01*
X91363000Y61460000D01*
X91344141Y61280572D01*
X91288390Y61108986D01*
X91198182Y60952741D01*
X91077460Y60818666D01*
X90931500Y60712620D01*
X90766682Y60639238D01*
X90590208Y60601728D01*
X90409792Y60601728D01*
X90233318Y60639238D01*
X90068500Y60712620D01*
X89922540Y60818666D01*
X89801818Y60952741D01*
X89711610Y61108986D01*
X89655859Y61280572D01*
X89637000Y61460000D01*
X89655859Y61639428D01*
X89711610Y61811014D01*
X89801818Y61967259D01*
X89922540Y62101334D01*
X90068500Y62207380D01*
X90233318Y62280762D01*
X90409792Y62318272D01*
X90590208Y62318272D01*
X90766682Y62280762D01*
G37*
G36*
X91140938Y64855350D02*
G01*
X91149782Y64851445D01*
X91156336Y64850490D01*
X91197310Y64830459D01*
X91237759Y64812599D01*
X91241503Y64808855D01*
X91241848Y64808686D01*
X91308685Y64741849D01*
X91308853Y64741505D01*
X91312599Y64737759D01*
X91330463Y64697300D01*
X91350489Y64656337D01*
X91351443Y64649786D01*
X91355350Y64640938D01*
X91363000Y64575000D01*
X91363000Y63425000D01*
X91355350Y63359062D01*
X91351443Y63350215D01*
X91350489Y63343664D01*
X91330468Y63302711D01*
X91312599Y63262241D01*
X91308852Y63258495D01*
X91308685Y63258152D01*
X91241848Y63191315D01*
X91241505Y63191148D01*
X91237759Y63187401D01*
X91197289Y63169532D01*
X91156336Y63149511D01*
X91149785Y63148557D01*
X91140938Y63144650D01*
X91075000Y63137000D01*
X89925000Y63137000D01*
X89859062Y63144650D01*
X89850214Y63148557D01*
X89843663Y63149511D01*
X89802700Y63169537D01*
X89762241Y63187401D01*
X89758495Y63191147D01*
X89758151Y63191315D01*
X89691314Y63258152D01*
X89691145Y63258497D01*
X89687401Y63262241D01*
X89669541Y63302690D01*
X89649510Y63343664D01*
X89648555Y63350218D01*
X89644650Y63359062D01*
X89637000Y63425000D01*
X89637000Y64575000D01*
X89644650Y64640938D01*
X89648554Y64649782D01*
X89649510Y64656337D01*
X89669545Y64697322D01*
X89687401Y64737759D01*
X89691144Y64741503D01*
X89691314Y64741849D01*
X89758151Y64808686D01*
X89758497Y64808856D01*
X89762241Y64812599D01*
X89802678Y64830455D01*
X89843663Y64850490D01*
X89850218Y64851446D01*
X89859062Y64855350D01*
X89925000Y64863000D01*
X91075000Y64863000D01*
X91140938Y64855350D01*
G37*
G36*
X6023850Y87695344D02*
G01*
X6366257Y87619975D01*
X6698507Y87508027D01*
X7016707Y87360812D01*
X7317124Y87180057D01*
X7596237Y86967881D01*
X7850773Y86726771D01*
X8077749Y86459554D01*
X8274504Y86169363D01*
X8438729Y85859601D01*
X8568501Y85533898D01*
X8662297Y85196074D01*
X8719019Y84850089D01*
X8738000Y84500000D01*
X8719019Y84149911D01*
X8662297Y83803926D01*
X8568501Y83466102D01*
X8438729Y83140399D01*
X8274504Y82830637D01*
X8077749Y82540446D01*
X7850773Y82273229D01*
X7596237Y82032119D01*
X7317124Y81819943D01*
X7016707Y81639188D01*
X6698507Y81491973D01*
X6366257Y81380025D01*
X6023850Y81304656D01*
X5675302Y81266749D01*
X5324698Y81266749D01*
X4976150Y81304656D01*
X4633743Y81380025D01*
X4301493Y81491973D01*
X3983293Y81639188D01*
X3682876Y81819943D01*
X3403763Y82032119D01*
X3149227Y82273229D01*
X2922251Y82540446D01*
X2725496Y82830637D01*
X2561271Y83140399D01*
X2431499Y83466102D01*
X2337703Y83803926D01*
X2280981Y84149911D01*
X2262000Y84500000D01*
X2280981Y84850089D01*
X2337703Y85196074D01*
X2431499Y85533898D01*
X2561271Y85859601D01*
X2725496Y86169363D01*
X2922251Y86459554D01*
X3149227Y86726771D01*
X3403763Y86967881D01*
X3682876Y87180057D01*
X3983293Y87360812D01*
X4301493Y87508027D01*
X4633743Y87619975D01*
X4976150Y87695344D01*
X5324698Y87733251D01*
X5675302Y87733251D01*
X6023850Y87695344D01*
G37*
G36*
X91023850Y87695344D02*
G01*
X91366257Y87619975D01*
X91698507Y87508027D01*
X92016707Y87360812D01*
X92317124Y87180057D01*
X92596237Y86967881D01*
X92850773Y86726771D01*
X93077749Y86459554D01*
X93274504Y86169363D01*
X93438729Y85859601D01*
X93568501Y85533898D01*
X93662297Y85196074D01*
X93719019Y84850089D01*
X93738000Y84500000D01*
X93719019Y84149911D01*
X93662297Y83803926D01*
X93568501Y83466102D01*
X93438729Y83140399D01*
X93274504Y82830637D01*
X93077749Y82540446D01*
X92850773Y82273229D01*
X92596237Y82032119D01*
X92317124Y81819943D01*
X92016707Y81639188D01*
X91698507Y81491973D01*
X91366257Y81380025D01*
X91023850Y81304656D01*
X90675302Y81266749D01*
X90324698Y81266749D01*
X89976150Y81304656D01*
X89633743Y81380025D01*
X89301493Y81491973D01*
X88983293Y81639188D01*
X88682876Y81819943D01*
X88403763Y82032119D01*
X88149227Y82273229D01*
X87922251Y82540446D01*
X87725496Y82830637D01*
X87561271Y83140399D01*
X87431499Y83466102D01*
X87337703Y83803926D01*
X87280981Y84149911D01*
X87262000Y84500000D01*
X87280981Y84850089D01*
X87337703Y85196074D01*
X87431499Y85533898D01*
X87561271Y85859601D01*
X87725496Y86169363D01*
X87922251Y86459554D01*
X88149227Y86726771D01*
X88403763Y86967881D01*
X88682876Y87180057D01*
X88983293Y87360812D01*
X89301493Y87508027D01*
X89633743Y87619975D01*
X89976150Y87695344D01*
X90324698Y87733251D01*
X90675302Y87733251D01*
X91023850Y87695344D01*
G37*
M02*
