%TF.GenerationSoftware,KiCad,Pcbnew,8.0.8*%
%TF.CreationDate,2025-03-29T16:24:55+01:00*%
%TF.ProjectId,rf,72662e6b-6963-4616-945f-706362585858,rev?*%
%TF.SameCoordinates,PX55d4a80PY8044ea0*%
%TF.FileFunction,Legend,Bot*%
%TF.FilePolarity,Positive*%
%FSLAX46Y46*%
G04 Gerber Fmt 4.6, Leading zero omitted, Abs format (unit mm)*
G04 Created by KiCad (PCBNEW 8.0.8) date 2025-03-29 16:24:55*
%MOMM*%
%LPD*%
G01*
G04 APERTURE LIST*
%ADD10C,0.150000*%
%ADD11C,0.200000*%
%ADD12C,0.100000*%
G04 APERTURE END LIST*
D10*
X80913220Y47880181D02*
X80913220Y48880181D01*
X80913220Y48880181D02*
X80675125Y48880181D01*
X80675125Y48880181D02*
X80532268Y48832562D01*
X80532268Y48832562D02*
X80437030Y48737324D01*
X80437030Y48737324D02*
X80389411Y48642086D01*
X80389411Y48642086D02*
X80341792Y48451610D01*
X80341792Y48451610D02*
X80341792Y48308753D01*
X80341792Y48308753D02*
X80389411Y48118277D01*
X80389411Y48118277D02*
X80437030Y48023039D01*
X80437030Y48023039D02*
X80532268Y47927800D01*
X80532268Y47927800D02*
X80675125Y47880181D01*
X80675125Y47880181D02*
X80913220Y47880181D01*
X79722744Y48880181D02*
X79532268Y48880181D01*
X79532268Y48880181D02*
X79437030Y48832562D01*
X79437030Y48832562D02*
X79341792Y48737324D01*
X79341792Y48737324D02*
X79294173Y48546848D01*
X79294173Y48546848D02*
X79294173Y48213515D01*
X79294173Y48213515D02*
X79341792Y48023039D01*
X79341792Y48023039D02*
X79437030Y47927800D01*
X79437030Y47927800D02*
X79532268Y47880181D01*
X79532268Y47880181D02*
X79722744Y47880181D01*
X79722744Y47880181D02*
X79817982Y47927800D01*
X79817982Y47927800D02*
X79913220Y48023039D01*
X79913220Y48023039D02*
X79960839Y48213515D01*
X79960839Y48213515D02*
X79960839Y48546848D01*
X79960839Y48546848D02*
X79913220Y48737324D01*
X79913220Y48737324D02*
X79817982Y48832562D01*
X79817982Y48832562D02*
X79722744Y48880181D01*
X78865601Y47880181D02*
X78865601Y48880181D01*
X78865601Y48880181D02*
X78294173Y47880181D01*
X78294173Y47880181D02*
X78294173Y48880181D01*
X77817982Y48403991D02*
X77484649Y48403991D01*
X77341792Y47880181D02*
X77817982Y47880181D01*
X77817982Y47880181D02*
X77817982Y48880181D01*
X77817982Y48880181D02*
X77341792Y48880181D01*
X80639411Y46332562D02*
X80734649Y46380181D01*
X80734649Y46380181D02*
X80877506Y46380181D01*
X80877506Y46380181D02*
X81020363Y46332562D01*
X81020363Y46332562D02*
X81115601Y46237324D01*
X81115601Y46237324D02*
X81163220Y46142086D01*
X81163220Y46142086D02*
X81210839Y45951610D01*
X81210839Y45951610D02*
X81210839Y45808753D01*
X81210839Y45808753D02*
X81163220Y45618277D01*
X81163220Y45618277D02*
X81115601Y45523039D01*
X81115601Y45523039D02*
X81020363Y45427800D01*
X81020363Y45427800D02*
X80877506Y45380181D01*
X80877506Y45380181D02*
X80782268Y45380181D01*
X80782268Y45380181D02*
X80639411Y45427800D01*
X80639411Y45427800D02*
X80591792Y45475420D01*
X80591792Y45475420D02*
X80591792Y45808753D01*
X80591792Y45808753D02*
X80782268Y45808753D01*
X80163220Y45380181D02*
X80163220Y46380181D01*
X80163220Y46380181D02*
X79591792Y45380181D01*
X79591792Y45380181D02*
X79591792Y46380181D01*
X79115601Y45380181D02*
X79115601Y46380181D01*
X79115601Y46380181D02*
X78877506Y46380181D01*
X78877506Y46380181D02*
X78734649Y46332562D01*
X78734649Y46332562D02*
X78639411Y46237324D01*
X78639411Y46237324D02*
X78591792Y46142086D01*
X78591792Y46142086D02*
X78544173Y45951610D01*
X78544173Y45951610D02*
X78544173Y45808753D01*
X78544173Y45808753D02*
X78591792Y45618277D01*
X78591792Y45618277D02*
X78639411Y45523039D01*
X78639411Y45523039D02*
X78734649Y45427800D01*
X78734649Y45427800D02*
X78877506Y45380181D01*
X78877506Y45380181D02*
X79115601Y45380181D01*
X80663220Y61296848D02*
X80663220Y60630181D01*
X80663220Y61201610D02*
X80615601Y61249229D01*
X80615601Y61249229D02*
X80520363Y61296848D01*
X80520363Y61296848D02*
X80377506Y61296848D01*
X80377506Y61296848D02*
X80282268Y61249229D01*
X80282268Y61249229D02*
X80234649Y61153991D01*
X80234649Y61153991D02*
X80234649Y60630181D01*
X79806077Y60677800D02*
X79663220Y60630181D01*
X79663220Y60630181D02*
X79425125Y60630181D01*
X79425125Y60630181D02*
X79329887Y60677800D01*
X79329887Y60677800D02*
X79282268Y60725420D01*
X79282268Y60725420D02*
X79234649Y60820658D01*
X79234649Y60820658D02*
X79234649Y60915896D01*
X79234649Y60915896D02*
X79282268Y61011134D01*
X79282268Y61011134D02*
X79329887Y61058753D01*
X79329887Y61058753D02*
X79425125Y61106372D01*
X79425125Y61106372D02*
X79615601Y61153991D01*
X79615601Y61153991D02*
X79710839Y61201610D01*
X79710839Y61201610D02*
X79758458Y61249229D01*
X79758458Y61249229D02*
X79806077Y61344467D01*
X79806077Y61344467D02*
X79806077Y61439705D01*
X79806077Y61439705D02*
X79758458Y61534943D01*
X79758458Y61534943D02*
X79710839Y61582562D01*
X79710839Y61582562D02*
X79615601Y61630181D01*
X79615601Y61630181D02*
X79377506Y61630181D01*
X79377506Y61630181D02*
X79234649Y61582562D01*
X78806077Y61153991D02*
X78472744Y61153991D01*
X78329887Y60630181D02*
X78806077Y60630181D01*
X78806077Y60630181D02*
X78806077Y61630181D01*
X78806077Y61630181D02*
X78329887Y61630181D01*
X77425125Y60630181D02*
X77901315Y60630181D01*
X77901315Y60630181D02*
X77901315Y61630181D01*
X79210839Y52927800D02*
X79067982Y52880181D01*
X79067982Y52880181D02*
X78829887Y52880181D01*
X78829887Y52880181D02*
X78734649Y52927800D01*
X78734649Y52927800D02*
X78687030Y52975420D01*
X78687030Y52975420D02*
X78639411Y53070658D01*
X78639411Y53070658D02*
X78639411Y53165896D01*
X78639411Y53165896D02*
X78687030Y53261134D01*
X78687030Y53261134D02*
X78734649Y53308753D01*
X78734649Y53308753D02*
X78829887Y53356372D01*
X78829887Y53356372D02*
X79020363Y53403991D01*
X79020363Y53403991D02*
X79115601Y53451610D01*
X79115601Y53451610D02*
X79163220Y53499229D01*
X79163220Y53499229D02*
X79210839Y53594467D01*
X79210839Y53594467D02*
X79210839Y53689705D01*
X79210839Y53689705D02*
X79163220Y53784943D01*
X79163220Y53784943D02*
X79115601Y53832562D01*
X79115601Y53832562D02*
X79020363Y53880181D01*
X79020363Y53880181D02*
X78782268Y53880181D01*
X78782268Y53880181D02*
X78639411Y53832562D01*
X77639411Y52975420D02*
X77687030Y52927800D01*
X77687030Y52927800D02*
X77829887Y52880181D01*
X77829887Y52880181D02*
X77925125Y52880181D01*
X77925125Y52880181D02*
X78067982Y52927800D01*
X78067982Y52927800D02*
X78163220Y53023039D01*
X78163220Y53023039D02*
X78210839Y53118277D01*
X78210839Y53118277D02*
X78258458Y53308753D01*
X78258458Y53308753D02*
X78258458Y53451610D01*
X78258458Y53451610D02*
X78210839Y53642086D01*
X78210839Y53642086D02*
X78163220Y53737324D01*
X78163220Y53737324D02*
X78067982Y53832562D01*
X78067982Y53832562D02*
X77925125Y53880181D01*
X77925125Y53880181D02*
X77829887Y53880181D01*
X77829887Y53880181D02*
X77687030Y53832562D01*
X77687030Y53832562D02*
X77639411Y53784943D01*
X76734649Y52880181D02*
X77210839Y52880181D01*
X77210839Y52880181D02*
X77210839Y53880181D01*
X76401315Y52880181D02*
X76401315Y53880181D01*
X75829887Y52880181D02*
X76258458Y53451610D01*
X75829887Y53880181D02*
X76401315Y53308753D01*
X79210839Y57927800D02*
X79067982Y57880181D01*
X79067982Y57880181D02*
X78829887Y57880181D01*
X78829887Y57880181D02*
X78734649Y57927800D01*
X78734649Y57927800D02*
X78687030Y57975420D01*
X78687030Y57975420D02*
X78639411Y58070658D01*
X78639411Y58070658D02*
X78639411Y58165896D01*
X78639411Y58165896D02*
X78687030Y58261134D01*
X78687030Y58261134D02*
X78734649Y58308753D01*
X78734649Y58308753D02*
X78829887Y58356372D01*
X78829887Y58356372D02*
X79020363Y58403991D01*
X79020363Y58403991D02*
X79115601Y58451610D01*
X79115601Y58451610D02*
X79163220Y58499229D01*
X79163220Y58499229D02*
X79210839Y58594467D01*
X79210839Y58594467D02*
X79210839Y58689705D01*
X79210839Y58689705D02*
X79163220Y58784943D01*
X79163220Y58784943D02*
X79115601Y58832562D01*
X79115601Y58832562D02*
X79020363Y58880181D01*
X79020363Y58880181D02*
X78782268Y58880181D01*
X78782268Y58880181D02*
X78639411Y58832562D01*
X78210839Y57880181D02*
X78210839Y58880181D01*
X78210839Y58880181D02*
X77972744Y58880181D01*
X77972744Y58880181D02*
X77829887Y58832562D01*
X77829887Y58832562D02*
X77734649Y58737324D01*
X77734649Y58737324D02*
X77687030Y58642086D01*
X77687030Y58642086D02*
X77639411Y58451610D01*
X77639411Y58451610D02*
X77639411Y58308753D01*
X77639411Y58308753D02*
X77687030Y58118277D01*
X77687030Y58118277D02*
X77734649Y58023039D01*
X77734649Y58023039D02*
X77829887Y57927800D01*
X77829887Y57927800D02*
X77972744Y57880181D01*
X77972744Y57880181D02*
X78210839Y57880181D01*
X77210839Y57880181D02*
X77210839Y58880181D01*
X80758458Y64130181D02*
X80139411Y64130181D01*
X80139411Y64130181D02*
X80472744Y63749229D01*
X80472744Y63749229D02*
X80329887Y63749229D01*
X80329887Y63749229D02*
X80234649Y63701610D01*
X80234649Y63701610D02*
X80187030Y63653991D01*
X80187030Y63653991D02*
X80139411Y63558753D01*
X80139411Y63558753D02*
X80139411Y63320658D01*
X80139411Y63320658D02*
X80187030Y63225420D01*
X80187030Y63225420D02*
X80234649Y63177800D01*
X80234649Y63177800D02*
X80329887Y63130181D01*
X80329887Y63130181D02*
X80615601Y63130181D01*
X80615601Y63130181D02*
X80710839Y63177800D01*
X80710839Y63177800D02*
X80758458Y63225420D01*
X79853696Y64130181D02*
X79520363Y63130181D01*
X79520363Y63130181D02*
X79187030Y64130181D01*
X78948934Y64130181D02*
X78329887Y64130181D01*
X78329887Y64130181D02*
X78663220Y63749229D01*
X78663220Y63749229D02*
X78520363Y63749229D01*
X78520363Y63749229D02*
X78425125Y63701610D01*
X78425125Y63701610D02*
X78377506Y63653991D01*
X78377506Y63653991D02*
X78329887Y63558753D01*
X78329887Y63558753D02*
X78329887Y63320658D01*
X78329887Y63320658D02*
X78377506Y63225420D01*
X78377506Y63225420D02*
X78425125Y63177800D01*
X78425125Y63177800D02*
X78520363Y63130181D01*
X78520363Y63130181D02*
X78806077Y63130181D01*
X78806077Y63130181D02*
X78901315Y63177800D01*
X78901315Y63177800D02*
X78948934Y63225420D01*
X80913220Y51046848D02*
X80913220Y50380181D01*
X80913220Y50951610D02*
X80865601Y50999229D01*
X80865601Y50999229D02*
X80770363Y51046848D01*
X80770363Y51046848D02*
X80627506Y51046848D01*
X80627506Y51046848D02*
X80532268Y50999229D01*
X80532268Y50999229D02*
X80484649Y50903991D01*
X80484649Y50903991D02*
X80484649Y50380181D01*
X80008458Y50380181D02*
X80008458Y51380181D01*
X78960840Y50380181D02*
X79294173Y50856372D01*
X79532268Y50380181D02*
X79532268Y51380181D01*
X79532268Y51380181D02*
X79151316Y51380181D01*
X79151316Y51380181D02*
X79056078Y51332562D01*
X79056078Y51332562D02*
X79008459Y51284943D01*
X79008459Y51284943D02*
X78960840Y51189705D01*
X78960840Y51189705D02*
X78960840Y51046848D01*
X78960840Y51046848D02*
X79008459Y50951610D01*
X79008459Y50951610D02*
X79056078Y50903991D01*
X79056078Y50903991D02*
X79151316Y50856372D01*
X79151316Y50856372D02*
X79532268Y50856372D01*
X77865602Y50284943D02*
X77960840Y50332562D01*
X77960840Y50332562D02*
X78056078Y50427800D01*
X78056078Y50427800D02*
X78198935Y50570658D01*
X78198935Y50570658D02*
X78294173Y50618277D01*
X78294173Y50618277D02*
X78389411Y50618277D01*
X78341792Y50380181D02*
X78437030Y50427800D01*
X78437030Y50427800D02*
X78532268Y50523039D01*
X78532268Y50523039D02*
X78579887Y50713515D01*
X78579887Y50713515D02*
X78579887Y51046848D01*
X78579887Y51046848D02*
X78532268Y51237324D01*
X78532268Y51237324D02*
X78437030Y51332562D01*
X78437030Y51332562D02*
X78341792Y51380181D01*
X78341792Y51380181D02*
X78151316Y51380181D01*
X78151316Y51380181D02*
X78056078Y51332562D01*
X78056078Y51332562D02*
X77960840Y51237324D01*
X77960840Y51237324D02*
X77913221Y51046848D01*
X77913221Y51046848D02*
X77913221Y50713515D01*
X77913221Y50713515D02*
X77960840Y50523039D01*
X77960840Y50523039D02*
X78056078Y50427800D01*
X78056078Y50427800D02*
X78151316Y50380181D01*
X78151316Y50380181D02*
X78341792Y50380181D01*
X79210839Y55427800D02*
X79067982Y55380181D01*
X79067982Y55380181D02*
X78829887Y55380181D01*
X78829887Y55380181D02*
X78734649Y55427800D01*
X78734649Y55427800D02*
X78687030Y55475420D01*
X78687030Y55475420D02*
X78639411Y55570658D01*
X78639411Y55570658D02*
X78639411Y55665896D01*
X78639411Y55665896D02*
X78687030Y55761134D01*
X78687030Y55761134D02*
X78734649Y55808753D01*
X78734649Y55808753D02*
X78829887Y55856372D01*
X78829887Y55856372D02*
X79020363Y55903991D01*
X79020363Y55903991D02*
X79115601Y55951610D01*
X79115601Y55951610D02*
X79163220Y55999229D01*
X79163220Y55999229D02*
X79210839Y56094467D01*
X79210839Y56094467D02*
X79210839Y56189705D01*
X79210839Y56189705D02*
X79163220Y56284943D01*
X79163220Y56284943D02*
X79115601Y56332562D01*
X79115601Y56332562D02*
X79020363Y56380181D01*
X79020363Y56380181D02*
X78782268Y56380181D01*
X78782268Y56380181D02*
X78639411Y56332562D01*
X78210839Y55380181D02*
X78210839Y56380181D01*
X78210839Y56380181D02*
X77972744Y56380181D01*
X77972744Y56380181D02*
X77829887Y56332562D01*
X77829887Y56332562D02*
X77734649Y56237324D01*
X77734649Y56237324D02*
X77687030Y56142086D01*
X77687030Y56142086D02*
X77639411Y55951610D01*
X77639411Y55951610D02*
X77639411Y55808753D01*
X77639411Y55808753D02*
X77687030Y55618277D01*
X77687030Y55618277D02*
X77734649Y55523039D01*
X77734649Y55523039D02*
X77829887Y55427800D01*
X77829887Y55427800D02*
X77972744Y55380181D01*
X77972744Y55380181D02*
X78210839Y55380181D01*
X77020363Y56380181D02*
X76829887Y56380181D01*
X76829887Y56380181D02*
X76734649Y56332562D01*
X76734649Y56332562D02*
X76639411Y56237324D01*
X76639411Y56237324D02*
X76591792Y56046848D01*
X76591792Y56046848D02*
X76591792Y55713515D01*
X76591792Y55713515D02*
X76639411Y55523039D01*
X76639411Y55523039D02*
X76734649Y55427800D01*
X76734649Y55427800D02*
X76829887Y55380181D01*
X76829887Y55380181D02*
X77020363Y55380181D01*
X77020363Y55380181D02*
X77115601Y55427800D01*
X77115601Y55427800D02*
X77210839Y55523039D01*
X77210839Y55523039D02*
X77258458Y55713515D01*
X77258458Y55713515D02*
X77258458Y56046848D01*
X77258458Y56046848D02*
X77210839Y56237324D01*
X77210839Y56237324D02*
X77115601Y56332562D01*
X77115601Y56332562D02*
X77020363Y56380181D01*
D11*
%TO.C,J5*%
X34210000Y53260000D02*
X34210000Y55660000D01*
X36510000Y57960000D02*
X38910000Y57960000D01*
X36510000Y50960000D02*
X38910000Y50960000D01*
X41210000Y53260000D02*
X41210000Y55660000D01*
D12*
X41810000Y54460000D02*
X41810000Y54460000D01*
X41910000Y54460000D02*
X41910000Y54460000D01*
X41810000Y54460000D02*
G75*
G02*
X41910000Y54460000I50000J0D01*
G01*
X41910000Y54460000D02*
G75*
G02*
X41810000Y54460000I-50000J0D01*
G01*
%TD*%
M02*
