%TF.GenerationSoftware,KiCad,Pcbnew,8.0.8*%
%TF.CreationDate,2025-03-29T16:24:55+01:00*%
%TF.ProjectId,rf,72662e6b-6963-4616-945f-706362585858,rev?*%
%TF.SameCoordinates,PX55d4a80PY8044ea0*%
%TF.FileFunction,Copper,L4,Bot*%
%TF.FilePolarity,Positive*%
%FSLAX46Y46*%
G04 Gerber Fmt 4.6, Leading zero omitted, Abs format (unit mm)*
G04 Created by KiCad (PCBNEW 8.0.8) date 2025-03-29 16:24:55*
%MOMM*%
%LPD*%
G01*
G04 APERTURE LIST*
G04 Aperture macros list*
%AMRoundRect*
0 Rectangle with rounded corners*
0 $1 Rounding radius*
0 $2 $3 $4 $5 $6 $7 $8 $9 X,Y pos of 4 corners*
0 Add a 4 corners polygon primitive as box body*
4,1,4,$2,$3,$4,$5,$6,$7,$8,$9,$2,$3,0*
0 Add four circle primitives for the rounded corners*
1,1,$1+$1,$2,$3*
1,1,$1+$1,$4,$5*
1,1,$1+$1,$6,$7*
1,1,$1+$1,$8,$9*
0 Add four rect primitives between the rounded corners*
20,1,$1+$1,$2,$3,$4,$5,0*
20,1,$1+$1,$4,$5,$6,$7,0*
20,1,$1+$1,$6,$7,$8,$9,0*
20,1,$1+$1,$8,$9,$2,$3,0*%
G04 Aperture macros list end*
%TA.AperFunction,ComponentPad*%
%ADD10C,0.800000*%
%TD*%
%TA.AperFunction,ComponentPad*%
%ADD11C,6.400000*%
%TD*%
%TA.AperFunction,ComponentPad*%
%ADD12RoundRect,0.250000X-0.575000X0.575000X-0.575000X-0.575000X0.575000X-0.575000X0.575000X0.575000X0*%
%TD*%
%TA.AperFunction,ComponentPad*%
%ADD13C,1.650000*%
%TD*%
%TA.AperFunction,ComponentPad*%
%ADD14RoundRect,0.562500X0.562500X0.562500X-0.562500X0.562500X-0.562500X-0.562500X0.562500X-0.562500X0*%
%TD*%
%TA.AperFunction,ComponentPad*%
%ADD15C,2.550000*%
%TD*%
%TA.AperFunction,ViaPad*%
%ADD16C,0.900000*%
%TD*%
%TA.AperFunction,ViaPad*%
%ADD17C,0.700000*%
%TD*%
%TA.AperFunction,Conductor*%
%ADD18C,0.900000*%
%TD*%
G04 APERTURE END LIST*
D10*
%TO.P,H3,1,1*%
%TO.N,GND*%
X88100000Y5500000D03*
X88802944Y7197056D03*
X88802944Y3802944D03*
X90500000Y7900000D03*
D11*
X90500000Y5500000D03*
D10*
X90500000Y3100000D03*
X92197056Y7197056D03*
X92197056Y3802944D03*
X92900000Y5500000D03*
%TD*%
D12*
%TO.P,J1,1,1*%
%TO.N,+3V3*%
X90500000Y64000000D03*
D13*
%TO.P,J1,2,2*%
%TO.N,/nSEL_RF*%
X90500000Y61460000D03*
%TO.P,J1,3,3*%
%TO.N,/SDI_RF*%
X90500000Y58920000D03*
%TO.P,J1,4,4*%
%TO.N,/SDO_RF*%
X90500000Y56380000D03*
%TO.P,J1,5,5*%
%TO.N,/SCLK_RF*%
X90500000Y53840000D03*
%TO.P,J1,6,6*%
%TO.N,/nIRQ_RF*%
X90500000Y51300000D03*
%TO.P,J1,7,7*%
%TO.N,/COMMAND_DONE_RF*%
X90500000Y48760000D03*
%TO.P,J1,8,8*%
%TO.N,GND*%
X90500000Y46220000D03*
%TD*%
D10*
%TO.P,H4,1,1*%
%TO.N,GND*%
X3100000Y5500000D03*
X3802944Y7197056D03*
X3802944Y3802944D03*
X5500000Y7900000D03*
D11*
X5500000Y5500000D03*
D10*
X5500000Y3100000D03*
X7197056Y7197056D03*
X7197056Y3802944D03*
X7900000Y5500000D03*
%TD*%
%TO.P,H1,1,1*%
%TO.N,GND*%
X3100000Y84500000D03*
X3802944Y86197056D03*
X3802944Y82802944D03*
X5500000Y86900000D03*
D11*
X5500000Y84500000D03*
D10*
X5500000Y82100000D03*
X7197056Y86197056D03*
X7197056Y82802944D03*
X7900000Y84500000D03*
%TD*%
%TO.P,H2,1,1*%
%TO.N,GND*%
X88100000Y84500000D03*
X88802944Y86197056D03*
X88802944Y82802944D03*
X90500000Y86900000D03*
D11*
X90500000Y84500000D03*
D10*
X90500000Y82100000D03*
X92197056Y86197056D03*
X92197056Y82802944D03*
X92900000Y84500000D03*
%TD*%
D14*
%TO.P,J5,1,1*%
%TO.N,Net-(C22-Pad1)*%
X37710000Y54460000D03*
D15*
%TO.P,J5,2,2*%
%TO.N,GND*%
X40250000Y51920000D03*
%TO.P,J5,3,3*%
X35170000Y51920000D03*
%TO.P,J5,4,4*%
X35170000Y57000000D03*
%TO.P,J5,5,5*%
X40250000Y57000000D03*
%TD*%
D16*
%TO.N,GND*%
X30500000Y47500000D03*
X66000000Y59500000D03*
%TO.N,+3V3*%
X71750000Y45750000D03*
X63000000Y51500000D03*
X51000000Y47250000D03*
X73500000Y63750000D03*
X73500000Y62750000D03*
X63000000Y50500000D03*
X51000000Y46250000D03*
X70750000Y45750000D03*
%TO.N,GND*%
X87500000Y52500000D03*
X53000000Y67500000D03*
X94500000Y37750000D03*
X58000000Y42500000D03*
X85000000Y52500000D03*
X57500000Y55750000D03*
X45500000Y42500000D03*
X48000000Y67500000D03*
X73000000Y42500000D03*
X61250000Y64500000D03*
X75500000Y45000000D03*
X30500000Y67500000D03*
X94500000Y52250000D03*
X1500000Y81250000D03*
X94500000Y1500000D03*
X68000000Y42500000D03*
X75500000Y42500000D03*
X87500000Y57500000D03*
D17*
X71250000Y54500000D03*
D16*
X82500000Y50000000D03*
X30500000Y50000000D03*
X46250000Y52000000D03*
X33000000Y42500000D03*
X87500000Y55000000D03*
X85000000Y55000000D03*
X38000000Y42500000D03*
X58000000Y67500000D03*
X67000000Y59000000D03*
X60000000Y55750000D03*
X66250000Y45750000D03*
X43000000Y52000000D03*
X63500000Y88500000D03*
X94500000Y8750000D03*
X87500000Y60000000D03*
X1500000Y30500000D03*
X75500000Y65000000D03*
X67350000Y48000000D03*
X68000000Y52000000D03*
X68000000Y67500000D03*
X94500000Y23250000D03*
X68500000Y57250000D03*
X62500000Y58750000D03*
X48000000Y1500000D03*
X46250000Y53000000D03*
X60500000Y42500000D03*
X73000000Y67500000D03*
X40250000Y88500000D03*
X94500000Y88500000D03*
X1500000Y52250000D03*
X85000000Y60000000D03*
X65250000Y50250000D03*
X63000000Y42500000D03*
X17000000Y1500000D03*
X1500000Y45000000D03*
X85000000Y50000000D03*
X65250000Y51250000D03*
X24750000Y1500000D03*
X60000000Y64500000D03*
X94500000Y81250000D03*
X67300000Y45750000D03*
X59250000Y52000000D03*
X75500000Y57500000D03*
X40500000Y42500000D03*
X75500000Y47500000D03*
X24750000Y88500000D03*
X46250000Y55750000D03*
X55750000Y1500000D03*
X94500000Y30500000D03*
X79000000Y1500000D03*
X30500000Y42500000D03*
X60500000Y67500000D03*
D17*
X69750000Y54500000D03*
D16*
X70500000Y67500000D03*
X55750000Y88500000D03*
X38000000Y67500000D03*
X87500000Y50000000D03*
X50500000Y67500000D03*
X48000000Y88500000D03*
X52750000Y55500000D03*
X30500000Y55000000D03*
X1500000Y74000000D03*
X1500000Y16000000D03*
X53250000Y60750000D03*
X86750000Y1500000D03*
X30500000Y60000000D03*
X32500000Y88500000D03*
D17*
X70500000Y55250000D03*
D16*
X1500000Y23250000D03*
X65500000Y67500000D03*
X94500000Y66750000D03*
X17000000Y88500000D03*
X1500000Y1500000D03*
X86750000Y88500000D03*
X82500000Y60000000D03*
X82500000Y57500000D03*
X63500000Y1500000D03*
X43000000Y53000000D03*
X70500000Y42500000D03*
X40500000Y67500000D03*
X67000000Y60250000D03*
X71250000Y88500000D03*
X75500000Y62500000D03*
X75500000Y50000000D03*
X30500000Y57500000D03*
X85000000Y57500000D03*
X48000000Y42500000D03*
D17*
X69750000Y56000000D03*
D16*
X82500000Y55000000D03*
X80000000Y52500000D03*
X70500000Y50000000D03*
X1500000Y59500000D03*
X70500000Y49000000D03*
X53250000Y59750000D03*
X82500000Y52500000D03*
X9250000Y88500000D03*
X59250000Y53000000D03*
X45500000Y67500000D03*
X75500000Y60000000D03*
X49500000Y51500000D03*
X43000000Y55750000D03*
X43000000Y42500000D03*
X50500000Y42500000D03*
X35500000Y67500000D03*
X55500000Y42500000D03*
X57500000Y58750000D03*
X66250000Y48000000D03*
X75500000Y67500000D03*
X63000000Y67500000D03*
X1500000Y88500000D03*
X30500000Y52500000D03*
X56250000Y53000000D03*
X32500000Y1500000D03*
X56250000Y52000000D03*
X1500000Y8750000D03*
X60000000Y58750000D03*
X94500000Y74000000D03*
X30500000Y65000000D03*
X79000000Y88500000D03*
X80000000Y57500000D03*
X62500000Y55750000D03*
X66750000Y50500000D03*
X67750000Y50500000D03*
X30500000Y62500000D03*
X94500000Y16000000D03*
X1500000Y37750000D03*
X9250000Y1500000D03*
X43000000Y67500000D03*
X94500000Y59500000D03*
X55500000Y67500000D03*
D17*
X71250000Y56000000D03*
D16*
X53000000Y42500000D03*
X53250000Y52000000D03*
X94500000Y45000000D03*
X35500000Y42500000D03*
X80000000Y55000000D03*
X71250000Y1500000D03*
X65500000Y42500000D03*
X30500000Y45000000D03*
X40250000Y1500000D03*
X33000000Y67500000D03*
X1500000Y66750000D03*
X48500000Y51500000D03*
%TO.N,/SW*%
X55500000Y63000000D03*
X56750000Y50050000D03*
X55500000Y50050000D03*
X55500000Y62000000D03*
%TD*%
D18*
%TO.N,/SW*%
X54500000Y51000000D02*
X55450000Y50050000D01*
X54500000Y61000000D02*
X54500000Y51000000D01*
X55450000Y50050000D02*
X55500000Y50050000D01*
X55500000Y62000000D02*
X54500000Y61000000D01*
X55500000Y50050000D02*
X56750000Y50050000D01*
X55500000Y62000000D02*
X55500000Y63000000D01*
%TD*%
%TA.AperFunction,Conductor*%
%TO.N,GND*%
G36*
X94504853Y89799119D02*
G01*
X94693563Y89784267D01*
X94712772Y89781224D01*
X94892085Y89738175D01*
X94910577Y89732167D01*
X95046833Y89675728D01*
X95080946Y89661597D01*
X95098283Y89652763D01*
X95255504Y89556418D01*
X95271246Y89544981D01*
X95411464Y89425223D01*
X95425222Y89411465D01*
X95544980Y89271247D01*
X95556417Y89255505D01*
X95652762Y89098284D01*
X95661596Y89080947D01*
X95732163Y88910585D01*
X95738176Y88892079D01*
X95781222Y88712778D01*
X95784266Y88693560D01*
X95799118Y88504854D01*
X95799500Y88495125D01*
X95799500Y1504876D01*
X95799118Y1495147D01*
X95784266Y1306441D01*
X95781222Y1287223D01*
X95738176Y1107922D01*
X95732163Y1089416D01*
X95661596Y919054D01*
X95652762Y901717D01*
X95556417Y744496D01*
X95544980Y728754D01*
X95425222Y588536D01*
X95411464Y574778D01*
X95271246Y455020D01*
X95255504Y443583D01*
X95098283Y347238D01*
X95080946Y338404D01*
X94910584Y267837D01*
X94892078Y261824D01*
X94712777Y218778D01*
X94693559Y215734D01*
X94504854Y200882D01*
X94495125Y200500D01*
X1504875Y200500D01*
X1495146Y200882D01*
X1306440Y215734D01*
X1287222Y218778D01*
X1107921Y261824D01*
X1089415Y267837D01*
X919053Y338404D01*
X901716Y347238D01*
X744495Y443583D01*
X728753Y455020D01*
X588535Y574778D01*
X574777Y588536D01*
X455019Y728754D01*
X443582Y744496D01*
X347237Y901717D01*
X338403Y919054D01*
X324272Y953167D01*
X267833Y1089423D01*
X261825Y1107915D01*
X218776Y1287228D01*
X215733Y1306441D01*
X200882Y1495147D01*
X200500Y1504876D01*
X200500Y47250000D01*
X49944417Y47250000D01*
X49964699Y47044068D01*
X50024768Y46846046D01*
X50044862Y46808453D01*
X50059103Y46740050D01*
X50044862Y46691547D01*
X50024768Y46653955D01*
X49964699Y46455933D01*
X49944417Y46250000D01*
X49964699Y46044068D01*
X49994734Y45945056D01*
X50024768Y45846046D01*
X50122315Y45663550D01*
X50122317Y45663548D01*
X50253589Y45503590D01*
X50350209Y45424298D01*
X50413550Y45372315D01*
X50596046Y45274768D01*
X50794066Y45214700D01*
X50794065Y45214700D01*
X50812529Y45212882D01*
X51000000Y45194417D01*
X51205934Y45214700D01*
X51403954Y45274768D01*
X51586450Y45372315D01*
X51746410Y45503590D01*
X51877685Y45663550D01*
X51923894Y45750000D01*
X69694417Y45750000D01*
X69714699Y45544068D01*
X69714700Y45544066D01*
X69774768Y45346046D01*
X69872315Y45163550D01*
X69872317Y45163548D01*
X70003589Y45003590D01*
X70100209Y44924298D01*
X70163550Y44872315D01*
X70346046Y44774768D01*
X70544066Y44714700D01*
X70544065Y44714700D01*
X70562529Y44712882D01*
X70750000Y44694417D01*
X70955934Y44714700D01*
X71153954Y44774768D01*
X71191547Y44794863D01*
X71259947Y44809105D01*
X71308451Y44794864D01*
X71346046Y44774768D01*
X71544066Y44714700D01*
X71544065Y44714700D01*
X71562529Y44712882D01*
X71750000Y44694417D01*
X71955934Y44714700D01*
X72153954Y44774768D01*
X72336450Y44872315D01*
X72496410Y45003590D01*
X72627685Y45163550D01*
X72725232Y45346046D01*
X72785300Y45544066D01*
X72805583Y45750000D01*
X72785300Y45955934D01*
X72725232Y46153954D01*
X72627685Y46336450D01*
X72575702Y46399791D01*
X72496410Y46496411D01*
X72336452Y46627683D01*
X72336453Y46627683D01*
X72336450Y46627685D01*
X72153954Y46725232D01*
X71955934Y46785300D01*
X71955932Y46785301D01*
X71955934Y46785301D01*
X71750000Y46805583D01*
X71544067Y46785301D01*
X71346045Y46725232D01*
X71308453Y46705138D01*
X71240050Y46690897D01*
X71191547Y46705138D01*
X71153954Y46725232D01*
X71072304Y46750000D01*
X70955934Y46785300D01*
X70955932Y46785301D01*
X70955934Y46785301D01*
X70750000Y46805583D01*
X70544067Y46785301D01*
X70346043Y46725231D01*
X70281810Y46690897D01*
X70163550Y46627685D01*
X70163548Y46627684D01*
X70163547Y46627683D01*
X70003589Y46496411D01*
X69872317Y46336453D01*
X69774769Y46153957D01*
X69714699Y45955933D01*
X69694417Y45750000D01*
X51923894Y45750000D01*
X51975232Y45846046D01*
X52035300Y46044066D01*
X52055583Y46250000D01*
X52035300Y46455934D01*
X51975232Y46653954D01*
X51955137Y46691548D01*
X51940895Y46759947D01*
X51955136Y46808452D01*
X51975232Y46846046D01*
X52035300Y47044066D01*
X52055583Y47250000D01*
X52035300Y47455934D01*
X51975232Y47653954D01*
X51877685Y47836450D01*
X51825702Y47899791D01*
X51746410Y47996411D01*
X51586452Y48127683D01*
X51586453Y48127683D01*
X51586450Y48127685D01*
X51403954Y48225232D01*
X51205934Y48285300D01*
X51205932Y48285301D01*
X51205934Y48285301D01*
X51000000Y48305583D01*
X50794067Y48285301D01*
X50596043Y48225231D01*
X50485898Y48166357D01*
X50413550Y48127685D01*
X50413548Y48127684D01*
X50413547Y48127683D01*
X50253589Y47996411D01*
X50122317Y47836453D01*
X50024769Y47653957D01*
X49964699Y47455933D01*
X49944417Y47250000D01*
X200500Y47250000D01*
X200500Y55094282D01*
X35984500Y55094282D01*
X35984500Y53825719D01*
X35990717Y53736138D01*
X35990718Y53736129D01*
X36040062Y53526334D01*
X36040067Y53526319D01*
X36127120Y53329164D01*
X36127124Y53329156D01*
X36127125Y53329155D01*
X36248932Y53151338D01*
X36401338Y52998932D01*
X36456073Y52961438D01*
X36579155Y52877125D01*
X36579163Y52877121D01*
X36776318Y52790068D01*
X36776325Y52790065D01*
X36776331Y52790064D01*
X36776333Y52790063D01*
X36986128Y52740719D01*
X36986135Y52740719D01*
X36986136Y52740718D01*
X37004053Y52739475D01*
X37075718Y52734500D01*
X37075722Y52734500D01*
X38344282Y52734500D01*
X38404002Y52738646D01*
X38433864Y52740718D01*
X38433865Y52740719D01*
X38433871Y52740719D01*
X38633330Y52787632D01*
X38643675Y52790065D01*
X38840845Y52877125D01*
X39018662Y52998932D01*
X39171068Y53151338D01*
X39292875Y53329155D01*
X39379935Y53526325D01*
X39398338Y53604570D01*
X39429281Y53736129D01*
X39429282Y53736138D01*
X39435500Y53825719D01*
X39435500Y55094282D01*
X39429282Y55183863D01*
X39429281Y55183872D01*
X39379937Y55393667D01*
X39379936Y55393669D01*
X39379935Y55393675D01*
X39379932Y55393682D01*
X39292879Y55590837D01*
X39292875Y55590845D01*
X39218641Y55699213D01*
X39171068Y55768662D01*
X39018662Y55921068D01*
X38840845Y56042875D01*
X38840846Y56042875D01*
X38840844Y56042876D01*
X38840836Y56042880D01*
X38643681Y56129933D01*
X38643666Y56129938D01*
X38433871Y56179282D01*
X38433862Y56179283D01*
X38344282Y56185500D01*
X38344278Y56185500D01*
X37075722Y56185500D01*
X37075718Y56185500D01*
X36986137Y56179283D01*
X36986128Y56179282D01*
X36776333Y56129938D01*
X36776318Y56129933D01*
X36579163Y56042880D01*
X36579155Y56042876D01*
X36401339Y55921069D01*
X36401333Y55921064D01*
X36248936Y55768667D01*
X36248931Y55768661D01*
X36127124Y55590845D01*
X36127120Y55590837D01*
X36040067Y55393682D01*
X36040062Y55393667D01*
X35990718Y55183872D01*
X35990717Y55183863D01*
X35984500Y55094282D01*
X200500Y55094282D01*
X200500Y61103470D01*
X53449500Y61103470D01*
X53449500Y50896531D01*
X53489868Y50693588D01*
X53489870Y50693580D01*
X53550338Y50547597D01*
X53569059Y50502402D01*
X53684023Y50330345D01*
X53830345Y50184023D01*
X53830346Y50184023D01*
X53837413Y50176956D01*
X53837412Y50176956D01*
X53837416Y50176953D01*
X54780341Y49234026D01*
X54780345Y49234023D01*
X54952395Y49119062D01*
X54952408Y49119055D01*
X55101302Y49057382D01*
X55143580Y49039870D01*
X55143584Y49039870D01*
X55143585Y49039869D01*
X55346532Y48999499D01*
X55346535Y48999499D01*
X55442309Y48999499D01*
X55454463Y48998902D01*
X55500000Y48994417D01*
X55545537Y48998902D01*
X55557691Y48999499D01*
X55559579Y48999499D01*
X55559599Y48999500D01*
X56692299Y48999500D01*
X56704453Y48998903D01*
X56706080Y48998743D01*
X56750000Y48994417D01*
X56793919Y48998743D01*
X56795547Y48998903D01*
X56807701Y48999500D01*
X56853468Y48999500D01*
X56880201Y49004819D01*
X56898356Y49008431D01*
X56910382Y49010215D01*
X56955934Y49014700D01*
X56999741Y49027990D01*
X57011515Y49030939D01*
X57056420Y49039870D01*
X57098720Y49057393D01*
X57110141Y49061479D01*
X57153954Y49074768D01*
X57194332Y49096352D01*
X57205304Y49101542D01*
X57247598Y49119059D01*
X57285668Y49144498D01*
X57296085Y49150740D01*
X57336450Y49172315D01*
X57371834Y49201356D01*
X57381585Y49208587D01*
X57419655Y49234023D01*
X57452033Y49266403D01*
X57461020Y49274548D01*
X57496410Y49303590D01*
X57525452Y49338980D01*
X57533597Y49347967D01*
X57565977Y49380345D01*
X57591413Y49418415D01*
X57598644Y49428166D01*
X57627685Y49463550D01*
X57649262Y49503919D01*
X57655502Y49514332D01*
X57680941Y49552402D01*
X57698458Y49594696D01*
X57703648Y49605668D01*
X57725232Y49646046D01*
X57738521Y49689859D01*
X57742607Y49701280D01*
X57760130Y49743580D01*
X57769061Y49788485D01*
X57772010Y49800259D01*
X57785300Y49844066D01*
X57789785Y49889618D01*
X57791571Y49901652D01*
X57800500Y49946532D01*
X57800500Y49992301D01*
X57801097Y50004455D01*
X57805583Y50050000D01*
X57801097Y50095547D01*
X57800500Y50107701D01*
X57800500Y50153465D01*
X57791567Y50198371D01*
X57789785Y50210385D01*
X57785300Y50255934D01*
X57772016Y50299726D01*
X57769060Y50311529D01*
X57760131Y50356413D01*
X57760130Y50356420D01*
X57742614Y50398705D01*
X57738518Y50410152D01*
X57725232Y50453954D01*
X57725231Y50453955D01*
X57725231Y50453957D01*
X57703654Y50494323D01*
X57698456Y50505311D01*
X57680941Y50547598D01*
X57655515Y50585651D01*
X57649262Y50596084D01*
X57627688Y50636445D01*
X57627684Y50636451D01*
X57598650Y50671830D01*
X57591401Y50681605D01*
X57565978Y50719654D01*
X57565974Y50719659D01*
X57533615Y50752017D01*
X57525442Y50761034D01*
X57496408Y50796412D01*
X57461033Y50825443D01*
X57452015Y50833617D01*
X57419658Y50865975D01*
X57419654Y50865978D01*
X57381597Y50891407D01*
X57371824Y50898655D01*
X57336452Y50927684D01*
X57296086Y50949261D01*
X57285653Y50955514D01*
X57247595Y50980943D01*
X57205316Y50998455D01*
X57194323Y51003654D01*
X57153954Y51025232D01*
X57110146Y51038522D01*
X57098692Y51042621D01*
X57056422Y51060130D01*
X57056414Y51060132D01*
X57011531Y51069060D01*
X56999730Y51072016D01*
X56955935Y51085300D01*
X56910383Y51089787D01*
X56898353Y51091572D01*
X56853465Y51100500D01*
X56853463Y51100500D01*
X56807701Y51100500D01*
X56795547Y51101097D01*
X56750000Y51105583D01*
X56704453Y51101097D01*
X56692299Y51100500D01*
X55936494Y51100500D01*
X55869455Y51120185D01*
X55848813Y51136819D01*
X55586819Y51398813D01*
X55553334Y51460136D01*
X55550500Y51486494D01*
X55550500Y51500000D01*
X61944417Y51500000D01*
X61964699Y51294068D01*
X62024768Y51096046D01*
X62044862Y51058453D01*
X62059103Y50990050D01*
X62044862Y50941547D01*
X62024768Y50903955D01*
X61964699Y50705933D01*
X61944417Y50500000D01*
X61964699Y50294068D01*
X61964700Y50294066D01*
X62024768Y50096046D01*
X62122315Y49913550D01*
X62136986Y49895673D01*
X62253589Y49753590D01*
X62331270Y49689840D01*
X62413550Y49622315D01*
X62596046Y49524768D01*
X62794066Y49464700D01*
X62794065Y49464700D01*
X62805742Y49463550D01*
X63000000Y49444417D01*
X63205934Y49464700D01*
X63403954Y49524768D01*
X63586450Y49622315D01*
X63746410Y49753590D01*
X63877685Y49913550D01*
X63975232Y50096046D01*
X64035300Y50294066D01*
X64055583Y50500000D01*
X64035300Y50705934D01*
X63975232Y50903954D01*
X63955137Y50941548D01*
X63940895Y51009947D01*
X63955136Y51058452D01*
X63975232Y51096046D01*
X64035300Y51294066D01*
X64055583Y51500000D01*
X64035300Y51705934D01*
X63975232Y51903954D01*
X63877685Y52086450D01*
X63802092Y52178561D01*
X63746410Y52246411D01*
X63586452Y52377683D01*
X63586453Y52377683D01*
X63586450Y52377685D01*
X63403954Y52475232D01*
X63205934Y52535300D01*
X63205932Y52535301D01*
X63205934Y52535301D01*
X63000000Y52555583D01*
X62794067Y52535301D01*
X62596043Y52475231D01*
X62485898Y52416357D01*
X62413550Y52377685D01*
X62413548Y52377684D01*
X62413547Y52377683D01*
X62253589Y52246411D01*
X62122317Y52086453D01*
X62024769Y51903957D01*
X61964699Y51705933D01*
X61944417Y51500000D01*
X55550500Y51500000D01*
X55550500Y60513507D01*
X55570185Y60580546D01*
X55586819Y60601188D01*
X55764844Y60779213D01*
X56202024Y61216394D01*
X56211020Y61224548D01*
X56246410Y61253590D01*
X56275452Y61288980D01*
X56283597Y61297967D01*
X56315977Y61330345D01*
X56341409Y61368408D01*
X56348651Y61378175D01*
X56377685Y61413550D01*
X56399260Y61453916D01*
X56402910Y61460006D01*
X89069615Y61460006D01*
X89069615Y61459995D01*
X89089123Y61224570D01*
X89147117Y60995555D01*
X89242013Y60779213D01*
X89371225Y60581438D01*
X89531223Y60407636D01*
X89531233Y60407627D01*
X89685118Y60287853D01*
X89725931Y60231143D01*
X89729606Y60161370D01*
X89694974Y60100687D01*
X89685118Y60092147D01*
X89531233Y59972374D01*
X89531223Y59972365D01*
X89371225Y59798563D01*
X89242013Y59600788D01*
X89147117Y59384446D01*
X89089123Y59155431D01*
X89069615Y58920006D01*
X89069615Y58919995D01*
X89089123Y58684570D01*
X89147117Y58455555D01*
X89242013Y58239213D01*
X89371225Y58041438D01*
X89531223Y57867636D01*
X89531233Y57867627D01*
X89685118Y57747853D01*
X89725931Y57691143D01*
X89729606Y57621370D01*
X89694974Y57560687D01*
X89685118Y57552147D01*
X89531233Y57432374D01*
X89531223Y57432365D01*
X89371225Y57258563D01*
X89242013Y57060788D01*
X89147117Y56844446D01*
X89089123Y56615431D01*
X89069615Y56380006D01*
X89069615Y56379995D01*
X89089123Y56144570D01*
X89147117Y55915555D01*
X89242013Y55699213D01*
X89371225Y55501438D01*
X89531223Y55327636D01*
X89531233Y55327627D01*
X89685118Y55207853D01*
X89725931Y55151143D01*
X89729606Y55081370D01*
X89694974Y55020687D01*
X89685118Y55012147D01*
X89531233Y54892374D01*
X89531223Y54892365D01*
X89371225Y54718563D01*
X89242013Y54520788D01*
X89147117Y54304446D01*
X89089123Y54075431D01*
X89069615Y53840006D01*
X89069615Y53839995D01*
X89089123Y53604570D01*
X89147117Y53375555D01*
X89242013Y53159213D01*
X89371225Y52961438D01*
X89531223Y52787636D01*
X89531233Y52787627D01*
X89685118Y52667853D01*
X89725931Y52611143D01*
X89729606Y52541370D01*
X89694974Y52480687D01*
X89685118Y52472147D01*
X89531233Y52352374D01*
X89531223Y52352365D01*
X89371225Y52178563D01*
X89242013Y51980788D01*
X89147117Y51764446D01*
X89089123Y51535431D01*
X89069615Y51300006D01*
X89069615Y51299995D01*
X89089123Y51064570D01*
X89089123Y51064567D01*
X89089124Y51064566D01*
X89117596Y50952131D01*
X89147117Y50835555D01*
X89242013Y50619213D01*
X89371225Y50421438D01*
X89531223Y50247636D01*
X89531233Y50247627D01*
X89685118Y50127853D01*
X89725931Y50071143D01*
X89729606Y50001370D01*
X89694974Y49940687D01*
X89685118Y49932147D01*
X89531233Y49812374D01*
X89531223Y49812365D01*
X89371225Y49638563D01*
X89242013Y49440788D01*
X89147117Y49224446D01*
X89089123Y48995431D01*
X89069615Y48760006D01*
X89069615Y48759995D01*
X89089123Y48524570D01*
X89147117Y48295555D01*
X89242013Y48079213D01*
X89371225Y47881438D01*
X89531223Y47707636D01*
X89531227Y47707632D01*
X89717654Y47562530D01*
X89925421Y47450092D01*
X90148861Y47373384D01*
X90381880Y47334500D01*
X90381881Y47334500D01*
X90618119Y47334500D01*
X90618120Y47334500D01*
X90851139Y47373384D01*
X91074579Y47450092D01*
X91282346Y47562530D01*
X91468773Y47707632D01*
X91628775Y47881439D01*
X91757986Y48079212D01*
X91852883Y48295555D01*
X91910876Y48524566D01*
X91930385Y48760000D01*
X91910876Y48995434D01*
X91852883Y49224445D01*
X91757986Y49440788D01*
X91628775Y49638561D01*
X91628774Y49638563D01*
X91468776Y49812365D01*
X91468766Y49812374D01*
X91314882Y49932147D01*
X91274069Y49988857D01*
X91270394Y50058630D01*
X91305026Y50119313D01*
X91314882Y50127853D01*
X91420931Y50210395D01*
X91468773Y50247632D01*
X91628775Y50421439D01*
X91757986Y50619212D01*
X91852883Y50835555D01*
X91910876Y51064566D01*
X91919546Y51169204D01*
X91930385Y51299995D01*
X91930385Y51300006D01*
X91910876Y51535431D01*
X91910876Y51535434D01*
X91852883Y51764445D01*
X91757986Y51980788D01*
X91628775Y52178561D01*
X91628774Y52178563D01*
X91468776Y52352365D01*
X91468766Y52352374D01*
X91314882Y52472147D01*
X91274069Y52528857D01*
X91270394Y52598630D01*
X91305026Y52659313D01*
X91314882Y52667853D01*
X91413168Y52744353D01*
X91468773Y52787632D01*
X91628775Y52961439D01*
X91757986Y53159212D01*
X91852883Y53375555D01*
X91910876Y53604566D01*
X91921778Y53736129D01*
X91930385Y53839995D01*
X91930385Y53840006D01*
X91910876Y54075431D01*
X91910876Y54075434D01*
X91852883Y54304445D01*
X91757986Y54520788D01*
X91628775Y54718561D01*
X91628774Y54718563D01*
X91468776Y54892365D01*
X91468766Y54892374D01*
X91314882Y55012147D01*
X91274069Y55068857D01*
X91270394Y55138630D01*
X91305026Y55199313D01*
X91314882Y55207853D01*
X91413168Y55284353D01*
X91468773Y55327632D01*
X91628775Y55501439D01*
X91757986Y55699212D01*
X91852883Y55915555D01*
X91910876Y56144566D01*
X91930385Y56380000D01*
X91910876Y56615434D01*
X91852883Y56844445D01*
X91757986Y57060788D01*
X91628775Y57258561D01*
X91628774Y57258563D01*
X91468776Y57432365D01*
X91468766Y57432374D01*
X91314882Y57552147D01*
X91274069Y57608857D01*
X91270394Y57678630D01*
X91305026Y57739313D01*
X91314882Y57747853D01*
X91413168Y57824353D01*
X91468773Y57867632D01*
X91628775Y58041439D01*
X91757986Y58239212D01*
X91852883Y58455555D01*
X91910876Y58684566D01*
X91930385Y58920000D01*
X91910876Y59155434D01*
X91852883Y59384445D01*
X91757986Y59600788D01*
X91628775Y59798561D01*
X91628774Y59798563D01*
X91468776Y59972365D01*
X91468766Y59972374D01*
X91314882Y60092147D01*
X91274069Y60148857D01*
X91270394Y60218630D01*
X91305026Y60279313D01*
X91314882Y60287853D01*
X91413168Y60364353D01*
X91468773Y60407632D01*
X91628775Y60581439D01*
X91757986Y60779212D01*
X91852883Y60995555D01*
X91910876Y61224566D01*
X91929880Y61453901D01*
X91930385Y61459995D01*
X91930385Y61460006D01*
X91913012Y61669656D01*
X91910876Y61695434D01*
X91852883Y61924445D01*
X91757986Y62140788D01*
X91743115Y62163550D01*
X91628777Y62338559D01*
X91480515Y62499613D01*
X91449593Y62562267D01*
X91457453Y62631693D01*
X91501600Y62685849D01*
X91516652Y62694685D01*
X91535753Y62704158D01*
X91679940Y62820060D01*
X91795842Y62964247D01*
X91878037Y63129979D01*
X91922683Y63309505D01*
X91925500Y63351046D01*
X91925500Y64648954D01*
X91922683Y64690495D01*
X91878037Y64870021D01*
X91795842Y65035753D01*
X91745945Y65097827D01*
X91679940Y65179941D01*
X91577785Y65262055D01*
X91535753Y65295842D01*
X91535751Y65295843D01*
X91535750Y65295844D01*
X91370023Y65378036D01*
X91370021Y65378037D01*
X91190497Y65422683D01*
X91190501Y65422683D01*
X91159339Y65424796D01*
X91148954Y65425500D01*
X89851046Y65425500D01*
X89839177Y65424696D01*
X89809500Y65422683D01*
X89629978Y65378037D01*
X89629976Y65378036D01*
X89464249Y65295844D01*
X89320059Y65179941D01*
X89204156Y65035751D01*
X89121964Y64870024D01*
X89121963Y64870022D01*
X89077317Y64690500D01*
X89074500Y64648952D01*
X89074500Y63351049D01*
X89077317Y63309501D01*
X89121963Y63129979D01*
X89121964Y63129977D01*
X89204156Y62964250D01*
X89204157Y62964249D01*
X89204158Y62964247D01*
X89210841Y62955933D01*
X89320059Y62820060D01*
X89464247Y62704158D01*
X89483348Y62694685D01*
X89534662Y62647264D01*
X89552192Y62579629D01*
X89530372Y62513254D01*
X89519485Y62499613D01*
X89371222Y62338559D01*
X89242013Y62140788D01*
X89147117Y61924446D01*
X89089123Y61695431D01*
X89069615Y61460006D01*
X56402910Y61460006D01*
X56405501Y61464329D01*
X56430942Y61502402D01*
X56448460Y61544698D01*
X56453649Y61555671D01*
X56475232Y61596046D01*
X56488521Y61639860D01*
X56492607Y61651281D01*
X56510130Y61693581D01*
X56519060Y61738481D01*
X56522017Y61750281D01*
X56529446Y61774768D01*
X56535300Y61794066D01*
X56539785Y61839607D01*
X56541569Y61851635D01*
X56550501Y61896535D01*
X56550501Y61942311D01*
X56551098Y61954465D01*
X56555583Y62000000D01*
X56551098Y62045537D01*
X56550501Y62057691D01*
X56550501Y62108576D01*
X56550500Y62108602D01*
X56550500Y62942301D01*
X56551097Y62954455D01*
X56551243Y62955934D01*
X56555583Y63000000D01*
X56551097Y63045547D01*
X56550500Y63057701D01*
X56550500Y63103465D01*
X56550500Y63103467D01*
X56541567Y63148371D01*
X56539785Y63160385D01*
X56535300Y63205934D01*
X56522015Y63249728D01*
X56519060Y63261529D01*
X56510131Y63306413D01*
X56510130Y63306420D01*
X56492611Y63348714D01*
X56488518Y63360152D01*
X56475232Y63403954D01*
X56475231Y63403955D01*
X56475231Y63403957D01*
X56453654Y63444323D01*
X56448456Y63455311D01*
X56430941Y63497598D01*
X56405508Y63535662D01*
X56399262Y63546084D01*
X56377688Y63586445D01*
X56377684Y63586451D01*
X56377682Y63586453D01*
X56348650Y63621830D01*
X56341401Y63631605D01*
X56315978Y63669654D01*
X56315974Y63669659D01*
X56283615Y63702017D01*
X56275442Y63711034D01*
X56246408Y63746412D01*
X56242036Y63750000D01*
X72444417Y63750000D01*
X72464699Y63544068D01*
X72524768Y63346046D01*
X72544862Y63308453D01*
X72559103Y63240050D01*
X72544862Y63191547D01*
X72524768Y63153955D01*
X72464699Y62955933D01*
X72444417Y62750000D01*
X72464699Y62544068D01*
X72482164Y62486494D01*
X72524768Y62346046D01*
X72622315Y62163550D01*
X72622317Y62163548D01*
X72753589Y62003590D01*
X72813449Y61954465D01*
X72913550Y61872315D01*
X73096046Y61774768D01*
X73294066Y61714700D01*
X73294065Y61714700D01*
X73312529Y61712882D01*
X73500000Y61694417D01*
X73705934Y61714700D01*
X73903954Y61774768D01*
X74086450Y61872315D01*
X74246410Y62003590D01*
X74377685Y62163550D01*
X74475232Y62346046D01*
X74535300Y62544066D01*
X74555583Y62750000D01*
X74535300Y62955934D01*
X74475232Y63153954D01*
X74455137Y63191548D01*
X74440895Y63259947D01*
X74455136Y63308452D01*
X74475232Y63346046D01*
X74535300Y63544066D01*
X74555583Y63750000D01*
X74535300Y63955934D01*
X74475232Y64153954D01*
X74377685Y64336450D01*
X74325702Y64399791D01*
X74246410Y64496411D01*
X74086452Y64627683D01*
X74086453Y64627683D01*
X74086450Y64627685D01*
X73903954Y64725232D01*
X73705934Y64785300D01*
X73705932Y64785301D01*
X73705934Y64785301D01*
X73500000Y64805583D01*
X73294067Y64785301D01*
X73096043Y64725231D01*
X73031058Y64690495D01*
X72913550Y64627685D01*
X72913548Y64627684D01*
X72913547Y64627683D01*
X72753589Y64496411D01*
X72622317Y64336453D01*
X72524769Y64153957D01*
X72464699Y63955933D01*
X72444417Y63750000D01*
X56242036Y63750000D01*
X56211033Y63775443D01*
X56202015Y63783617D01*
X56169658Y63815975D01*
X56169654Y63815978D01*
X56131597Y63841407D01*
X56121824Y63848655D01*
X56086452Y63877684D01*
X56046086Y63899261D01*
X56035653Y63905514D01*
X55997595Y63930943D01*
X55955316Y63948455D01*
X55944323Y63953654D01*
X55903954Y63975232D01*
X55903951Y63975233D01*
X55860146Y63988522D01*
X55848692Y63992621D01*
X55806422Y64010130D01*
X55806414Y64010132D01*
X55761531Y64019060D01*
X55749730Y64022016D01*
X55705935Y64035300D01*
X55660383Y64039787D01*
X55648353Y64041572D01*
X55603465Y64050500D01*
X55603463Y64050500D01*
X55557701Y64050500D01*
X55545547Y64051097D01*
X55500000Y64055583D01*
X55454453Y64051097D01*
X55442299Y64050500D01*
X55396534Y64050500D01*
X55351639Y64041571D01*
X55339607Y64039786D01*
X55294070Y64035301D01*
X55294068Y64035301D01*
X55294066Y64035300D01*
X55250272Y64022016D01*
X55238473Y64019061D01*
X55193584Y64010132D01*
X55193581Y64010131D01*
X55151286Y63992613D01*
X55139835Y63988516D01*
X55096047Y63975233D01*
X55096045Y63975232D01*
X55055672Y63953653D01*
X55044676Y63948453D01*
X55002409Y63930945D01*
X55002402Y63930942D01*
X54964338Y63905510D01*
X54953908Y63899258D01*
X54913552Y63877687D01*
X54913547Y63877683D01*
X54878167Y63848650D01*
X54868402Y63841408D01*
X54830349Y63815981D01*
X54830344Y63815977D01*
X54797979Y63783612D01*
X54788967Y63775445D01*
X54753590Y63746411D01*
X54753589Y63746410D01*
X54724555Y63711033D01*
X54716388Y63702021D01*
X54684023Y63669656D01*
X54684019Y63669651D01*
X54658592Y63631598D01*
X54651350Y63621833D01*
X54622317Y63586453D01*
X54622313Y63586448D01*
X54600742Y63546092D01*
X54594490Y63535662D01*
X54569058Y63497598D01*
X54569055Y63497591D01*
X54551547Y63455324D01*
X54546347Y63444328D01*
X54524768Y63403955D01*
X54524767Y63403953D01*
X54511484Y63360165D01*
X54507387Y63348714D01*
X54489869Y63306419D01*
X54489868Y63306416D01*
X54480939Y63261527D01*
X54477984Y63249730D01*
X54464700Y63205934D01*
X54464700Y63205933D01*
X54464700Y63205932D01*
X54464699Y63205930D01*
X54460214Y63160393D01*
X54458429Y63148361D01*
X54449500Y63103467D01*
X54449500Y63057701D01*
X54448902Y63045547D01*
X54444417Y63000000D01*
X54448757Y62955934D01*
X54448903Y62954455D01*
X54449500Y62942301D01*
X54449500Y62486494D01*
X54429815Y62419455D01*
X54413181Y62398813D01*
X53830347Y61815979D01*
X53830345Y61815977D01*
X53789138Y61774770D01*
X53684023Y61669656D01*
X53569058Y61497597D01*
X53489870Y61306421D01*
X53489868Y61306413D01*
X53449500Y61103470D01*
X200500Y61103470D01*
X200500Y88495125D01*
X200882Y88504854D01*
X215733Y88693560D01*
X218775Y88712771D01*
X261826Y88892090D01*
X267832Y88910575D01*
X338404Y89080950D01*
X347237Y89098284D01*
X443582Y89255505D01*
X455019Y89271247D01*
X574781Y89411470D01*
X588530Y89425219D01*
X728755Y89544983D01*
X744495Y89556418D01*
X901719Y89652765D01*
X919050Y89661596D01*
X1089425Y89732168D01*
X1107910Y89738174D01*
X1287229Y89781225D01*
X1306434Y89784267D01*
X1495146Y89799119D01*
X1504875Y89799500D01*
X1539882Y89799500D01*
X94460118Y89799500D01*
X94495125Y89799500D01*
X94504853Y89799119D01*
G37*
%TD.AperFunction*%
%TD*%
M02*
