%TF.GenerationSoftware,KiCad,Pcbnew,8.0.8*%
%TF.CreationDate,2025-03-29T16:24:55+01:00*%
%TF.ProjectId,rf,72662e6b-6963-4616-945f-706362585858,rev?*%
%TF.SameCoordinates,PX55d4a80PY8044ea0*%
%TF.FileFunction,Paste,Top*%
%TF.FilePolarity,Positive*%
%FSLAX46Y46*%
G04 Gerber Fmt 4.6, Leading zero omitted, Abs format (unit mm)*
G04 Created by KiCad (PCBNEW 8.0.8) date 2025-03-29 16:24:55*
%MOMM*%
%LPD*%
G01*
G04 APERTURE LIST*
G04 Aperture macros list*
%AMRoundRect*
0 Rectangle with rounded corners*
0 $1 Rounding radius*
0 $2 $3 $4 $5 $6 $7 $8 $9 X,Y pos of 4 corners*
0 Add a 4 corners polygon primitive as box body*
4,1,4,$2,$3,$4,$5,$6,$7,$8,$9,$2,$3,0*
0 Add four circle primitives for the rounded corners*
1,1,$1+$1,$2,$3*
1,1,$1+$1,$4,$5*
1,1,$1+$1,$6,$7*
1,1,$1+$1,$8,$9*
0 Add four rect primitives between the rounded corners*
20,1,$1+$1,$2,$3,$4,$5,0*
20,1,$1+$1,$4,$5,$6,$7,0*
20,1,$1+$1,$6,$7,$8,$9,0*
20,1,$1+$1,$8,$9,$2,$3,0*%
G04 Aperture macros list end*
%ADD10RoundRect,0.125000X0.125000X0.205000X-0.125000X0.205000X-0.125000X-0.205000X0.125000X-0.205000X0*%
%ADD11RoundRect,0.140000X-0.140000X-0.170000X0.140000X-0.170000X0.140000X0.170000X-0.140000X0.170000X0*%
%ADD12RoundRect,0.140000X0.140000X0.170000X-0.140000X0.170000X-0.140000X-0.170000X0.140000X-0.170000X0*%
%ADD13RoundRect,0.135000X-0.135000X-0.185000X0.135000X-0.185000X0.135000X0.185000X-0.135000X0.185000X0*%
%ADD14RoundRect,0.200000X0.275000X-0.200000X0.275000X0.200000X-0.275000X0.200000X-0.275000X-0.200000X0*%
%ADD15RoundRect,0.225000X0.225000X0.250000X-0.225000X0.250000X-0.225000X-0.250000X0.225000X-0.250000X0*%
%ADD16RoundRect,0.125000X-0.205000X0.125000X-0.205000X-0.125000X0.205000X-0.125000X0.205000X0.125000X0*%
%ADD17RoundRect,0.087500X-0.212500X0.087500X-0.212500X-0.087500X0.212500X-0.087500X0.212500X0.087500X0*%
%ADD18RoundRect,0.140000X-0.170000X0.140000X-0.170000X-0.140000X0.170000X-0.140000X0.170000X0.140000X0*%
%ADD19RoundRect,0.135000X-0.185000X0.135000X-0.185000X-0.135000X0.185000X-0.135000X0.185000X0.135000X0*%
%ADD20RoundRect,0.200000X-0.300000X0.200000X-0.300000X-0.200000X0.300000X-0.200000X0.300000X0.200000X0*%
%ADD21RoundRect,0.200000X-0.275000X0.200000X-0.275000X-0.200000X0.275000X-0.200000X0.275000X0.200000X0*%
%ADD22RoundRect,0.200000X0.200000X0.275000X-0.200000X0.275000X-0.200000X-0.275000X0.200000X-0.275000X0*%
%ADD23RoundRect,0.225000X0.275000X-0.225000X0.275000X0.225000X-0.275000X0.225000X-0.275000X-0.225000X0*%
%ADD24RoundRect,0.140000X0.170000X-0.140000X0.170000X0.140000X-0.170000X0.140000X-0.170000X-0.140000X0*%
%ADD25RoundRect,0.125000X-0.125000X-0.205000X0.125000X-0.205000X0.125000X0.205000X-0.125000X0.205000X0*%
%ADD26RoundRect,0.250000X0.250000X0.475000X-0.250000X0.475000X-0.250000X-0.475000X0.250000X-0.475000X0*%
%ADD27RoundRect,0.135000X0.135000X0.185000X-0.135000X0.185000X-0.135000X-0.185000X0.135000X-0.185000X0*%
%ADD28RoundRect,0.087500X-0.087500X-0.212500X0.087500X-0.212500X0.087500X0.212500X-0.087500X0.212500X0*%
%ADD29RoundRect,0.075000X0.325000X-0.075000X0.325000X0.075000X-0.325000X0.075000X-0.325000X-0.075000X0*%
%ADD30RoundRect,0.075000X-0.075000X-0.325000X0.075000X-0.325000X0.075000X0.325000X-0.075000X0.325000X0*%
%ADD31RoundRect,0.250000X-1.125000X-1.125000X1.125000X-1.125000X1.125000X1.125000X-1.125000X1.125000X0*%
%ADD32RoundRect,0.125000X0.205000X-0.125000X0.205000X0.125000X-0.205000X0.125000X-0.205000X-0.125000X0*%
%ADD33RoundRect,0.100000X0.112500X-0.100000X0.112500X0.100000X-0.112500X0.100000X-0.112500X-0.100000X0*%
%ADD34RoundRect,0.237500X0.337500X-0.237500X0.337500X0.237500X-0.337500X0.237500X-0.337500X-0.237500X0*%
%ADD35RoundRect,0.120000X0.280000X-0.120000X0.280000X0.120000X-0.280000X0.120000X-0.280000X-0.120000X0*%
G04 APERTURE END LIST*
D10*
%TO.C,L8*%
X55200000Y54300000D03*
X54300000Y54300000D03*
%TD*%
D11*
%TO.C,C34*%
X52270000Y54300000D03*
X53230000Y54300000D03*
%TD*%
D12*
%TO.C,C32*%
X50960000Y51500000D03*
X50000000Y51500000D03*
%TD*%
D13*
%TO.C,R29*%
X61490000Y60500000D03*
X62510000Y60500000D03*
%TD*%
D14*
%TO.C,R25*%
X51000000Y48475000D03*
X51000000Y50125000D03*
%TD*%
D15*
%TO.C,C26*%
X69300000Y50500000D03*
X67750000Y50500000D03*
%TD*%
D16*
%TO.C,L6*%
X59250000Y54300000D03*
X59250000Y53400000D03*
%TD*%
D17*
%TO.C,D7*%
X55750000Y57400000D03*
X55750000Y56750000D03*
%TD*%
D18*
%TO.C,C23*%
X70500000Y52000000D03*
X70500000Y51040000D03*
%TD*%
D12*
%TO.C,C27*%
X69500000Y52000000D03*
X68540000Y52000000D03*
%TD*%
D10*
%TO.C,L5*%
X63250000Y54300000D03*
X62350000Y54300000D03*
%TD*%
D19*
%TO.C,R31*%
X67000000Y61510000D03*
X67000000Y60490000D03*
%TD*%
D13*
%TO.C,R24*%
X63240000Y52800000D03*
X64260000Y52800000D03*
%TD*%
D12*
%TO.C,C30*%
X61250000Y54300000D03*
X60290000Y54300000D03*
%TD*%
D10*
%TO.C,L7*%
X58200000Y54300000D03*
X57300000Y54300000D03*
%TD*%
D20*
%TO.C,TCXO1*%
X70600000Y61850000D03*
X70600000Y59750000D03*
X72000000Y59750000D03*
X72000000Y61850000D03*
%TD*%
D10*
%TO.C,L4*%
X45000000Y54300000D03*
X44100000Y54300000D03*
%TD*%
D21*
%TO.C,R28*%
X53250000Y59650000D03*
X53250000Y58000000D03*
%TD*%
D22*
%TO.C,R26*%
X54075000Y50050000D03*
X52425000Y50050000D03*
%TD*%
D14*
%TO.C,R27*%
X55500000Y59100000D03*
X55500000Y60750000D03*
%TD*%
D18*
%TO.C,C20*%
X67000000Y58750000D03*
X67000000Y57790000D03*
%TD*%
D23*
%TO.C,FB2*%
X51000000Y52700000D03*
X51000000Y54300000D03*
%TD*%
D24*
%TO.C,C31*%
X56250000Y53340000D03*
X56250000Y54300000D03*
%TD*%
D25*
%TO.C,L9*%
X52800000Y56750000D03*
X53700000Y56750000D03*
%TD*%
D26*
%TO.C,C25*%
X69250000Y48000000D03*
X67350000Y48000000D03*
%TD*%
D27*
%TO.C,R30*%
X65510000Y61500000D03*
X64490000Y61500000D03*
%TD*%
D11*
%TO.C,C37*%
X63770000Y56750000D03*
X64730000Y56750000D03*
%TD*%
D18*
%TO.C,C22*%
X43000000Y54280000D03*
X43000000Y53320000D03*
%TD*%
D24*
%TO.C,C36*%
X54750000Y56770000D03*
X54750000Y57730000D03*
%TD*%
%TO.C,C35*%
X51750000Y56750000D03*
X51750000Y57710000D03*
%TD*%
D14*
%TO.C,R23*%
X72000000Y50100000D03*
X72000000Y51750000D03*
%TD*%
D28*
%TO.C,D6*%
X49100000Y54300000D03*
X49750000Y54300000D03*
%TD*%
D26*
%TO.C,C24*%
X69200000Y45750000D03*
X67300000Y45750000D03*
%TD*%
D11*
%TO.C,C33*%
X47270000Y54300000D03*
X48230000Y54300000D03*
%TD*%
D29*
%TO.C,IC8*%
X68500000Y56250000D03*
X68500000Y55750000D03*
X68500000Y55250000D03*
X68500000Y54750000D03*
X68500000Y54250000D03*
D30*
X69500000Y53250000D03*
X70000000Y53250000D03*
X70500000Y53250000D03*
X71000000Y53250000D03*
X71500000Y53250000D03*
D29*
X72500000Y54250000D03*
X72500000Y54750000D03*
X72500000Y55250000D03*
X72500000Y55750000D03*
X72500000Y56250000D03*
D30*
X71500000Y57250000D03*
X71000000Y57250000D03*
X70500000Y57250000D03*
X70000000Y57250000D03*
X69500000Y57250000D03*
D31*
X70500000Y55250000D03*
%TD*%
D12*
%TO.C,C19*%
X65730000Y55750000D03*
X64770000Y55750000D03*
%TD*%
D10*
%TO.C,L3*%
X65700000Y57750000D03*
X64800000Y57750000D03*
%TD*%
D32*
%TO.C,L2*%
X67000000Y55850000D03*
X67000000Y56750000D03*
%TD*%
D12*
%TO.C,C18*%
X71960000Y58500000D03*
X71000000Y58500000D03*
%TD*%
D23*
%TO.C,FB1*%
X66500000Y52750000D03*
X66500000Y54350000D03*
%TD*%
D18*
%TO.C,C17*%
X73500000Y61730000D03*
X73500000Y60770000D03*
%TD*%
%TO.C,C21*%
X46250000Y54260000D03*
X46250000Y53300000D03*
%TD*%
D12*
%TO.C,C29*%
X65210000Y54300000D03*
X64250000Y54300000D03*
%TD*%
D24*
%TO.C,C28*%
X65250000Y51820000D03*
X65250000Y52780000D03*
%TD*%
D33*
%TO.C,Q6*%
X62338000Y62662000D03*
X62338000Y63312000D03*
X62338000Y63962000D03*
X60462000Y63962000D03*
X60462000Y63312000D03*
X60462000Y62662000D03*
D34*
X61400000Y62987000D03*
D35*
X61400000Y64002000D03*
%TD*%
M02*
