%TF.GenerationSoftware,KiCad,Pcbnew,8.0.8*%
%TF.CreationDate,2025-03-29T16:24:55+01:00*%
%TF.ProjectId,rf,72662e6b-6963-4616-945f-706362585858,rev?*%
%TF.SameCoordinates,PX55d4a80PY8044ea0*%
%TF.FileFunction,Legend,Top*%
%TF.FilePolarity,Positive*%
%FSLAX46Y46*%
G04 Gerber Fmt 4.6, Leading zero omitted, Abs format (unit mm)*
G04 Created by KiCad (PCBNEW 8.0.8) date 2025-03-29 16:24:55*
%MOMM*%
%LPD*%
G01*
G04 APERTURE LIST*
%ADD10C,0.100000*%
%ADD11C,0.120000*%
%ADD12C,0.200000*%
%ADD13C,0.250000*%
G04 APERTURE END LIST*
D10*
%TO.C,L8*%
X54750000Y54000000D02*
X54750000Y54600000D01*
D11*
%TO.C,C34*%
X52642164Y54660000D02*
X52857836Y54660000D01*
X52642164Y53940000D02*
X52857836Y53940000D01*
%TO.C,C32*%
X50587836Y51860000D02*
X50372164Y51860000D01*
X50587836Y51140000D02*
X50372164Y51140000D01*
%TO.C,R29*%
X61846359Y60880000D02*
X62153641Y60880000D01*
X61846359Y60120000D02*
X62153641Y60120000D01*
%TO.C,R25*%
X50477500Y49062742D02*
X50477500Y49537258D01*
X51522500Y49062742D02*
X51522500Y49537258D01*
%TO.C,C26*%
X68665580Y51010000D02*
X68384420Y51010000D01*
X68665580Y49990000D02*
X68384420Y49990000D01*
D10*
%TO.C,L6*%
X59550000Y53850000D02*
X58950000Y53850000D01*
%TO.C,D7*%
X55250000Y57825000D02*
X55250000Y57075000D01*
X56250000Y57825000D02*
X55250000Y57825000D01*
X56250000Y57825000D02*
X56250000Y57075000D01*
D11*
%TO.C,C23*%
X70140000Y51627836D02*
X70140000Y51412164D01*
X70860000Y51627836D02*
X70860000Y51412164D01*
%TO.C,C27*%
X69127836Y52360000D02*
X68912164Y52360000D01*
X69127836Y51640000D02*
X68912164Y51640000D01*
D10*
%TO.C,L5*%
X62800000Y54000000D02*
X62800000Y54600000D01*
D12*
%TO.C,J1*%
X89060000Y65460000D02*
X89060000Y44759000D01*
X89060000Y44759000D02*
X91941000Y44759000D01*
X90500000Y65460000D02*
X89060000Y65460000D01*
X91941000Y44759000D02*
X91941000Y64000000D01*
D11*
%TO.C,R31*%
X66620000Y61153641D02*
X66620000Y60846359D01*
X67380000Y61153641D02*
X67380000Y60846359D01*
%TO.C,R24*%
X63596359Y53180000D02*
X63903641Y53180000D01*
X63596359Y52420000D02*
X63903641Y52420000D01*
%TO.C,C30*%
X60877836Y54660000D02*
X60662164Y54660000D01*
X60877836Y53940000D02*
X60662164Y53940000D01*
D10*
%TO.C,L7*%
X57750000Y54000000D02*
X57750000Y54600000D01*
%TO.C,TCXO1*%
X69750000Y62500000D02*
X69750000Y62500000D01*
X69850000Y62500000D02*
X69850000Y62500000D01*
X69750000Y62500000D02*
G75*
G02*
X69850000Y62500000I50000J0D01*
G01*
X69850000Y62500000D02*
G75*
G02*
X69750000Y62500000I-50000J0D01*
G01*
%TO.C,L4*%
X44550000Y54000000D02*
X44550000Y54600000D01*
D11*
%TO.C,R28*%
X52727500Y59062258D02*
X52727500Y58587742D01*
X53772500Y59062258D02*
X53772500Y58587742D01*
%TO.C,R26*%
X53487258Y50572500D02*
X53012742Y50572500D01*
X53487258Y49527500D02*
X53012742Y49527500D01*
%TO.C,R27*%
X54977500Y59687742D02*
X54977500Y60162258D01*
X56022500Y59687742D02*
X56022500Y60162258D01*
%TO.C,C20*%
X66640000Y58377836D02*
X66640000Y58162164D01*
X67360000Y58377836D02*
X67360000Y58162164D01*
D12*
%TO.C,FB2*%
X50700000Y53500000D02*
X51300000Y53500000D01*
D11*
%TO.C,C31*%
X55890000Y53712164D02*
X55890000Y53927836D01*
X56610000Y53712164D02*
X56610000Y53927836D01*
D10*
%TO.C,L9*%
X53250000Y57050000D02*
X53250000Y56450000D01*
D11*
%TO.C,C25*%
X68561252Y48735000D02*
X68038748Y48735000D01*
X68561252Y47265000D02*
X68038748Y47265000D01*
%TO.C,R30*%
X65153641Y61880000D02*
X64846359Y61880000D01*
X65153641Y61120000D02*
X64846359Y61120000D01*
%TO.C,C37*%
X64142164Y57110000D02*
X64357836Y57110000D01*
X64142164Y56390000D02*
X64357836Y56390000D01*
%TO.C,C22*%
X42640000Y53907836D02*
X42640000Y53692164D01*
X43360000Y53907836D02*
X43360000Y53692164D01*
%TO.C,C36*%
X54390000Y57142164D02*
X54390000Y57357836D01*
X55110000Y57142164D02*
X55110000Y57357836D01*
%TO.C,C35*%
X51390000Y57122164D02*
X51390000Y57337836D01*
X52110000Y57122164D02*
X52110000Y57337836D01*
%TO.C,R23*%
X71477500Y50687742D02*
X71477500Y51162258D01*
X72522500Y50687742D02*
X72522500Y51162258D01*
D10*
%TO.C,D6*%
X48675000Y54800000D02*
X48675000Y53800000D01*
X48675000Y54800000D02*
X49425000Y54800000D01*
X48675000Y53800000D02*
X49425000Y53800000D01*
D11*
%TO.C,C24*%
X68511252Y46485000D02*
X67988748Y46485000D01*
X68511252Y45015000D02*
X67988748Y45015000D01*
%TO.C,C33*%
X47642164Y54660000D02*
X47857836Y54660000D01*
X47642164Y53940000D02*
X47857836Y53940000D01*
D13*
%TO.C,IC8*%
X68225000Y57000000D02*
G75*
G02*
X67975000Y57000000I-125000J0D01*
G01*
X67975000Y57000000D02*
G75*
G02*
X68225000Y57000000I125000J0D01*
G01*
D11*
%TO.C,C19*%
X65357836Y56110000D02*
X65142164Y56110000D01*
X65357836Y55390000D02*
X65142164Y55390000D01*
D10*
%TO.C,L3*%
X65250000Y57450000D02*
X65250000Y58050000D01*
%TO.C,L2*%
X66700000Y56300000D02*
X67300000Y56300000D01*
D11*
%TO.C,C18*%
X71587836Y58860000D02*
X71372164Y58860000D01*
X71587836Y58140000D02*
X71372164Y58140000D01*
D12*
%TO.C,FB1*%
X66200000Y53550000D02*
X66800000Y53550000D01*
D11*
%TO.C,C17*%
X73140000Y61357836D02*
X73140000Y61142164D01*
X73860000Y61357836D02*
X73860000Y61142164D01*
%TO.C,C21*%
X45890000Y53887836D02*
X45890000Y53672164D01*
X46610000Y53887836D02*
X46610000Y53672164D01*
%TO.C,C29*%
X64837836Y54660000D02*
X64622164Y54660000D01*
X64837836Y53940000D02*
X64622164Y53940000D01*
%TO.C,C28*%
X64890000Y52192164D02*
X64890000Y52407836D01*
X65610000Y52192164D02*
X65610000Y52407836D01*
D10*
%TO.C,Q6*%
X63000000Y62662000D02*
X63000000Y62662000D01*
X63100000Y62662000D02*
X63100000Y62662000D01*
X63000000Y62662000D02*
G75*
G02*
X63100000Y62662000I50000J0D01*
G01*
X63100000Y62662000D02*
G75*
G02*
X63000000Y62662000I-50000J0D01*
G01*
%TD*%
M02*
