%TF.GenerationSoftware,KiCad,Pcbnew,8.0.8*%
%TF.CreationDate,2025-03-29T16:24:55+01:00*%
%TF.ProjectId,rf,72662e6b-6963-4616-945f-706362585858,rev?*%
%TF.SameCoordinates,PX55d4a80PY8044ea0*%
%TF.FileFunction,Soldermask,Top*%
%TF.FilePolarity,Negative*%
%FSLAX46Y46*%
G04 Gerber Fmt 4.6, Leading zero omitted, Abs format (unit mm)*
G04 Created by KiCad (PCBNEW 8.0.8) date 2025-03-29 16:24:55*
%MOMM*%
%LPD*%
G01*
G04 APERTURE LIST*
G04 APERTURE END LIST*
G36*
X6023850Y8695344D02*
G01*
X6366257Y8619975D01*
X6698507Y8508027D01*
X7016707Y8360812D01*
X7317124Y8180057D01*
X7596237Y7967881D01*
X7850773Y7726771D01*
X8077749Y7459554D01*
X8274504Y7169363D01*
X8438729Y6859601D01*
X8568501Y6533898D01*
X8662297Y6196074D01*
X8719019Y5850089D01*
X8738000Y5500000D01*
X8719019Y5149911D01*
X8662297Y4803926D01*
X8568501Y4466102D01*
X8438729Y4140399D01*
X8274504Y3830637D01*
X8077749Y3540446D01*
X7850773Y3273229D01*
X7596237Y3032119D01*
X7317124Y2819943D01*
X7016707Y2639188D01*
X6698507Y2491973D01*
X6366257Y2380025D01*
X6023850Y2304656D01*
X5675302Y2266749D01*
X5324698Y2266749D01*
X4976150Y2304656D01*
X4633743Y2380025D01*
X4301493Y2491973D01*
X3983293Y2639188D01*
X3682876Y2819943D01*
X3403763Y3032119D01*
X3149227Y3273229D01*
X2922251Y3540446D01*
X2725496Y3830637D01*
X2561271Y4140399D01*
X2431499Y4466102D01*
X2337703Y4803926D01*
X2280981Y5149911D01*
X2262000Y5500000D01*
X2280981Y5850089D01*
X2337703Y6196074D01*
X2431499Y6533898D01*
X2561271Y6859601D01*
X2725496Y7169363D01*
X2922251Y7459554D01*
X3149227Y7726771D01*
X3403763Y7967881D01*
X3682876Y8180057D01*
X3983293Y8360812D01*
X4301493Y8508027D01*
X4633743Y8619975D01*
X4976150Y8695344D01*
X5324698Y8733251D01*
X5675302Y8733251D01*
X6023850Y8695344D01*
G37*
G36*
X91023850Y8695344D02*
G01*
X91366257Y8619975D01*
X91698507Y8508027D01*
X92016707Y8360812D01*
X92317124Y8180057D01*
X92596237Y7967881D01*
X92850773Y7726771D01*
X93077749Y7459554D01*
X93274504Y7169363D01*
X93438729Y6859601D01*
X93568501Y6533898D01*
X93662297Y6196074D01*
X93719019Y5850089D01*
X93738000Y5500000D01*
X93719019Y5149911D01*
X93662297Y4803926D01*
X93568501Y4466102D01*
X93438729Y4140399D01*
X93274504Y3830637D01*
X93077749Y3540446D01*
X92850773Y3273229D01*
X92596237Y3032119D01*
X92317124Y2819943D01*
X92016707Y2639188D01*
X91698507Y2491973D01*
X91366257Y2380025D01*
X91023850Y2304656D01*
X90675302Y2266749D01*
X90324698Y2266749D01*
X89976150Y2304656D01*
X89633743Y2380025D01*
X89301493Y2491973D01*
X88983293Y2639188D01*
X88682876Y2819943D01*
X88403763Y3032119D01*
X88149227Y3273229D01*
X87922251Y3540446D01*
X87725496Y3830637D01*
X87561271Y4140399D01*
X87431499Y4466102D01*
X87337703Y4803926D01*
X87280981Y5149911D01*
X87262000Y5500000D01*
X87280981Y5850089D01*
X87337703Y6196074D01*
X87431499Y6533898D01*
X87561271Y6859601D01*
X87725496Y7169363D01*
X87922251Y7459554D01*
X88149227Y7726771D01*
X88403763Y7967881D01*
X88682876Y8180057D01*
X88983293Y8360812D01*
X89301493Y8508027D01*
X89633743Y8619975D01*
X89976150Y8695344D01*
X90324698Y8733251D01*
X90675302Y8733251D01*
X91023850Y8695344D01*
G37*
G36*
X37201061Y15637720D02*
G01*
X37206742Y15635367D01*
X37206746Y15635366D01*
X37285494Y15602747D01*
X37285495Y15602747D01*
X37291181Y15600391D01*
X37292804Y15599308D01*
X37361778Y15530334D01*
X37362861Y15528711D01*
X37400190Y15438591D01*
X37400547Y15437168D01*
X37405351Y15388395D01*
X37405375Y15387905D01*
X37405375Y11816477D01*
X37405348Y11815963D01*
X37405340Y11815895D01*
X37405350Y11815721D01*
X37405147Y11813687D01*
X37402926Y11791380D01*
X37402927Y11791379D01*
X37400547Y11767214D01*
X37400505Y11767049D01*
X37400497Y11766965D01*
X37400423Y11766467D01*
X37257566Y11052181D01*
X37257446Y11051705D01*
X37251113Y11030912D01*
X37249338Y11025084D01*
X37248816Y11022768D01*
X37248488Y11021692D01*
X37247811Y11017126D01*
X37247384Y11015721D01*
X37245406Y11011548D01*
X37245104Y11010551D01*
X37244959Y11010177D01*
X37244514Y11009239D01*
X37243170Y11004822D01*
X37242541Y11003495D01*
X37239971Y10999660D01*
X37239488Y10998641D01*
X37238322Y10996586D01*
X37226410Y10971427D01*
X37226178Y10970995D01*
X37225384Y10969674D01*
X37225380Y10969664D01*
X36941267Y10496141D01*
X36941259Y10496130D01*
X36940464Y10494804D01*
X36940192Y10494396D01*
X36910979Y10455045D01*
X36909940Y10454007D01*
X36900570Y10447067D01*
X36894681Y10441371D01*
X36887432Y10432237D01*
X36886361Y10431234D01*
X36846059Y10403348D01*
X36845642Y10403089D01*
X36417071Y10164995D01*
X36416631Y10164778D01*
X36371662Y10145291D01*
X36370245Y10144912D01*
X36360972Y10143847D01*
X36352540Y10141662D01*
X36343919Y10138090D01*
X36342495Y10137733D01*
X36293722Y10132929D01*
X36293232Y10132905D01*
X36291693Y10132905D01*
X36009057Y10132905D01*
X36007518Y10132905D01*
X36007028Y10132929D01*
X35958255Y10137733D01*
X35956832Y10138090D01*
X35952568Y10139856D01*
X35898698Y10162170D01*
X35866712Y10175419D01*
X35865089Y10176502D01*
X35796115Y10245476D01*
X35795032Y10247099D01*
X35792676Y10252786D01*
X35760057Y10331534D01*
X35760056Y10331538D01*
X35757703Y10337219D01*
X35757322Y10339132D01*
X35757322Y10436678D01*
X35757703Y10438591D01*
X35760055Y10444272D01*
X35760057Y10444277D01*
X35792676Y10523025D01*
X35792678Y10523029D01*
X35795032Y10528711D01*
X35796115Y10530334D01*
X35800467Y10534687D01*
X35800470Y10534690D01*
X35860733Y10594953D01*
X35860736Y10594956D01*
X35865089Y10599308D01*
X35866712Y10600391D01*
X35872394Y10602745D01*
X35872398Y10602747D01*
X35952573Y10635957D01*
X35952579Y10635959D01*
X35956832Y10637720D01*
X35958255Y10638077D01*
X35962842Y10638529D01*
X35962843Y10638529D01*
X36005495Y10642731D01*
X36005515Y10642732D01*
X36007028Y10642881D01*
X36007518Y10642905D01*
X36218925Y10642905D01*
X36234348Y10646901D01*
X36530833Y10811617D01*
X36542654Y10823050D01*
X36763327Y11190838D01*
X36767199Y11200854D01*
X36894767Y11838691D01*
X36895375Y11844828D01*
X36895375Y15386366D01*
X36895375Y15387905D01*
X36895399Y15388395D01*
X36895548Y15389908D01*
X36895549Y15389928D01*
X36899751Y15432580D01*
X36899751Y15432581D01*
X36900203Y15437168D01*
X36900560Y15438591D01*
X36902321Y15442844D01*
X36902323Y15442850D01*
X36935533Y15523025D01*
X36935535Y15523029D01*
X36937889Y15528711D01*
X36938972Y15530334D01*
X36943324Y15534687D01*
X36943327Y15534690D01*
X37003590Y15594953D01*
X37003593Y15594956D01*
X37007946Y15599308D01*
X37009569Y15600391D01*
X37015251Y15602745D01*
X37015255Y15602747D01*
X37094003Y15635366D01*
X37094008Y15635368D01*
X37099689Y15637720D01*
X37101602Y15638101D01*
X37199148Y15638101D01*
X37201061Y15637720D01*
G37*
G36*
X39436579Y13976215D02*
G01*
X39438093Y13976066D01*
X39438112Y13976065D01*
X39446651Y13975224D01*
X39456134Y13974290D01*
X39462010Y13974823D01*
X39463949Y13974618D01*
X39469105Y13973012D01*
X39485352Y13971411D01*
X39486775Y13971054D01*
X39491031Y13969291D01*
X39491035Y13969290D01*
X39520045Y13957274D01*
X39522700Y13956313D01*
X39557079Y13945601D01*
X39558401Y13944963D01*
X39571904Y13935793D01*
X39576896Y13933725D01*
X39578518Y13932642D01*
X39582694Y13928466D01*
X39598944Y13917430D01*
X39599336Y13917135D01*
X39600514Y13916153D01*
X39600517Y13916151D01*
X39831983Y13723262D01*
X39885051Y13679039D01*
X39885412Y13678707D01*
X39919804Y13643793D01*
X39920669Y13642608D01*
X39924783Y13634769D01*
X39930155Y13624535D01*
X39933617Y13619295D01*
X39946518Y13603476D01*
X39947268Y13602215D01*
X39949018Y13597952D01*
X39949019Y13597951D01*
X39952089Y13590475D01*
X39965884Y13556879D01*
X39966048Y13556417D01*
X40108906Y13080228D01*
X40109024Y13079751D01*
X40111671Y13066225D01*
X40112021Y13064657D01*
X40112711Y13061900D01*
X40114476Y13057640D01*
X40114833Y13056216D01*
X40115905Y13045324D01*
X40116335Y13042392D01*
X40118438Y13031655D01*
X40118505Y13030188D01*
X40118038Y13025611D01*
X40118169Y13022783D01*
X40118286Y13021155D01*
X40118287Y13021140D01*
X40119637Y13007443D01*
X40119661Y13006953D01*
X40119661Y10387905D01*
X40119637Y10387415D01*
X40114833Y10338642D01*
X40114476Y10337219D01*
X40077147Y10247099D01*
X40076064Y10245476D01*
X40007090Y10176502D01*
X40005467Y10175419D01*
X39915347Y10138090D01*
X39913434Y10137709D01*
X39907279Y10137709D01*
X39822043Y10137709D01*
X39815888Y10137709D01*
X39813975Y10138090D01*
X39808288Y10140446D01*
X39808286Y10140446D01*
X39736915Y10170009D01*
X39710215Y10169252D01*
X39705076Y10166775D01*
X39701257Y10164180D01*
X39699935Y10163542D01*
X39665546Y10152830D01*
X39662896Y10151870D01*
X39629633Y10138090D01*
X39628209Y10137733D01*
X39611963Y10136134D01*
X39606806Y10134526D01*
X39604865Y10134321D01*
X39598989Y10134856D01*
X39579436Y10132929D01*
X39578946Y10132905D01*
X39577408Y10132905D01*
X38866199Y10132905D01*
X38864661Y10132905D01*
X38864171Y10132929D01*
X38844616Y10134856D01*
X38838742Y10134321D01*
X38836802Y10134526D01*
X38831644Y10136134D01*
X38815398Y10137733D01*
X38813974Y10138090D01*
X38780707Y10151871D01*
X38778054Y10152831D01*
X38743672Y10163542D01*
X38742350Y10164180D01*
X38728845Y10173352D01*
X38723855Y10175418D01*
X38722232Y10176502D01*
X38718056Y10180678D01*
X38712451Y10184484D01*
X38712375Y10184535D01*
X38703087Y10190842D01*
X38703067Y10190857D01*
X38701806Y10191713D01*
X38701414Y10192008D01*
X38415699Y10430103D01*
X38415338Y10430435D01*
X38380945Y10465350D01*
X38380080Y10466535D01*
X38377938Y10470615D01*
X38377935Y10470619D01*
X38370590Y10484612D01*
X38367130Y10489851D01*
X38366484Y10490643D01*
X38354231Y10505667D01*
X38353481Y10506928D01*
X38343869Y10530334D01*
X38335450Y10550836D01*
X38335447Y10550844D01*
X38334864Y10552264D01*
X38334700Y10552726D01*
X38334259Y10554195D01*
X38334255Y10554207D01*
X38192287Y11027437D01*
X38191843Y11028917D01*
X38191725Y11029394D01*
X38191428Y11030912D01*
X38189079Y11042908D01*
X38188725Y11044496D01*
X38188035Y11047250D01*
X38186273Y11051505D01*
X38185917Y11052928D01*
X38185465Y11057510D01*
X38185463Y11057519D01*
X38184843Y11063819D01*
X38184412Y11066753D01*
X38183196Y11072968D01*
X38183195Y11072975D01*
X38182312Y11077491D01*
X38182245Y11078956D01*
X38182709Y11083533D01*
X38182578Y11086383D01*
X38182461Y11088005D01*
X38181264Y11100159D01*
X38181263Y11100176D01*
X38181113Y11101701D01*
X38181089Y11102191D01*
X38181089Y11536345D01*
X38691089Y11536345D01*
X38691089Y11144229D01*
X38692413Y11135203D01*
X38795724Y10790828D01*
X38798380Y10781976D01*
X38808522Y10766624D01*
X38948025Y10650371D01*
X38968646Y10642905D01*
X39474961Y10642905D01*
X39495582Y10650371D01*
X39597860Y10735603D01*
X39609661Y10760799D01*
X39609661Y12001056D01*
X39573050Y12037667D01*
X38968646Y12037667D01*
X38948025Y12030201D01*
X38926232Y12012041D01*
X38829324Y11931286D01*
X38808522Y11913952D01*
X38798380Y11898601D01*
X38707059Y11594190D01*
X38692414Y11545372D01*
X38691089Y11536345D01*
X38181089Y11536345D01*
X38181089Y11578381D01*
X38181113Y11578871D01*
X38182461Y11592568D01*
X38182578Y11594190D01*
X38182709Y11597041D01*
X38182245Y11601616D01*
X38182312Y11603081D01*
X38183195Y11607598D01*
X38183196Y11607607D01*
X38184412Y11613817D01*
X38184843Y11616752D01*
X38185465Y11623063D01*
X38185465Y11623066D01*
X38185917Y11627644D01*
X38186273Y11629067D01*
X38188034Y11633322D01*
X38188728Y11636090D01*
X38189081Y11637676D01*
X38191427Y11649664D01*
X38191433Y11649692D01*
X38191725Y11651179D01*
X38191843Y11651655D01*
X38192278Y11653107D01*
X38192283Y11653125D01*
X38334255Y12126366D01*
X38334261Y12126385D01*
X38334700Y12127846D01*
X38334864Y12128308D01*
X38335444Y12129723D01*
X38335450Y12129737D01*
X38351729Y12169379D01*
X38351730Y12169383D01*
X38353481Y12173644D01*
X38354231Y12174905D01*
X38367132Y12190727D01*
X38370592Y12195963D01*
X38377937Y12209956D01*
X38377939Y12209959D01*
X38380080Y12214037D01*
X38380945Y12215222D01*
X38384178Y12218505D01*
X38384181Y12218508D01*
X38414264Y12249048D01*
X38414277Y12249061D01*
X38415338Y12250137D01*
X38415699Y12250469D01*
X38416856Y12251434D01*
X38416870Y12251446D01*
X38700237Y12487584D01*
X38700247Y12487592D01*
X38701414Y12488564D01*
X38701806Y12488859D01*
X38703050Y12489705D01*
X38703074Y12489722D01*
X38712766Y12496304D01*
X38712855Y12496364D01*
X38718059Y12499898D01*
X38722233Y12504070D01*
X38723854Y12505153D01*
X38728842Y12507220D01*
X38742350Y12516392D01*
X38743672Y12517030D01*
X38778059Y12527745D01*
X38780705Y12528703D01*
X38792788Y12533707D01*
X38809720Y12540720D01*
X38809722Y12540721D01*
X38813975Y12542482D01*
X38815398Y12542839D01*
X38831644Y12544440D01*
X38836802Y12546046D01*
X38838742Y12546251D01*
X38844616Y12545718D01*
X38851332Y12546380D01*
X38862637Y12547493D01*
X38862657Y12547494D01*
X38864171Y12547643D01*
X38864661Y12547667D01*
X39474961Y12547667D01*
X39495582Y12555133D01*
X39597860Y12640365D01*
X39609661Y12665561D01*
X39609661Y12964916D01*
X39608336Y12973943D01*
X39514868Y13285503D01*
X39502367Y13327170D01*
X39492227Y13342521D01*
X39352726Y13458773D01*
X39332105Y13466239D01*
X38968645Y13466239D01*
X38948024Y13458773D01*
X38742193Y13287247D01*
X38741801Y13286952D01*
X38701257Y13259419D01*
X38699935Y13258781D01*
X38606806Y13229764D01*
X38604866Y13229559D01*
X38598735Y13230117D01*
X38598733Y13230116D01*
X38513853Y13237832D01*
X38513849Y13237833D01*
X38507722Y13238390D01*
X38505851Y13238942D01*
X38500402Y13241802D01*
X38424931Y13281416D01*
X38424929Y13281417D01*
X38419481Y13284277D01*
X38417964Y13285503D01*
X38382620Y13327916D01*
X38359459Y13355709D01*
X38359458Y13355711D01*
X38355517Y13360440D01*
X38354584Y13362154D01*
X38325567Y13455283D01*
X38325362Y13457223D01*
X38325918Y13463349D01*
X38325918Y13463356D01*
X38333634Y13548236D01*
X38333636Y13548245D01*
X38334193Y13554367D01*
X38334745Y13556238D01*
X38337602Y13561683D01*
X38337604Y13561687D01*
X38377938Y13638529D01*
X38377941Y13638534D01*
X38380080Y13642608D01*
X38380945Y13643793D01*
X38384176Y13647074D01*
X38384179Y13647077D01*
X38414254Y13677607D01*
X38414258Y13677612D01*
X38415338Y13678707D01*
X38415699Y13679039D01*
X38416871Y13680016D01*
X38416881Y13680025D01*
X38700228Y13916148D01*
X38700244Y13916161D01*
X38701414Y13917135D01*
X38701806Y13917430D01*
X38703064Y13918285D01*
X38703082Y13918298D01*
X38712835Y13924921D01*
X38718057Y13928468D01*
X38722233Y13932642D01*
X38723854Y13933725D01*
X38728843Y13935793D01*
X38742350Y13944964D01*
X38743672Y13945602D01*
X38778059Y13956317D01*
X38780705Y13957275D01*
X38793176Y13962439D01*
X38809720Y13969292D01*
X38809722Y13969293D01*
X38813975Y13971054D01*
X38815398Y13971411D01*
X38831644Y13973012D01*
X38836802Y13974618D01*
X38838742Y13974823D01*
X38844616Y13974290D01*
X38851656Y13974983D01*
X38862637Y13976065D01*
X38862657Y13976066D01*
X38864171Y13976215D01*
X38864661Y13976239D01*
X39436089Y13976239D01*
X39436579Y13976215D01*
G37*
G36*
X49343918Y13971054D02*
G01*
X49349599Y13968701D01*
X49349603Y13968700D01*
X49428351Y13936081D01*
X49428352Y13936081D01*
X49434038Y13933725D01*
X49435661Y13932642D01*
X49504635Y13863668D01*
X49505718Y13862045D01*
X49543047Y13771925D01*
X49543404Y13770502D01*
X49548208Y13721729D01*
X49548232Y13721239D01*
X49548232Y13719700D01*
X49548232Y11144229D01*
X49549556Y11135203D01*
X49652867Y10790828D01*
X49655523Y10781976D01*
X49665665Y10766624D01*
X49805168Y10650371D01*
X49825789Y10642905D01*
X50046391Y10642905D01*
X50067012Y10650371D01*
X50169289Y10735603D01*
X50235559Y10790831D01*
X50242397Y10798813D01*
X50319411Y10927168D01*
X50323947Y10943543D01*
X50323947Y13719700D01*
X50323947Y13721239D01*
X50323971Y13721729D01*
X50324120Y13723242D01*
X50324121Y13723262D01*
X50328323Y13765914D01*
X50328323Y13765915D01*
X50328775Y13770502D01*
X50329132Y13771925D01*
X50330893Y13776178D01*
X50330895Y13776184D01*
X50364105Y13856359D01*
X50364107Y13856363D01*
X50366461Y13862045D01*
X50367544Y13863668D01*
X50371896Y13868021D01*
X50371899Y13868024D01*
X50432162Y13928287D01*
X50432165Y13928290D01*
X50436518Y13932642D01*
X50438141Y13933725D01*
X50443823Y13936079D01*
X50443827Y13936081D01*
X50522575Y13968700D01*
X50522580Y13968702D01*
X50528261Y13971054D01*
X50530174Y13971435D01*
X50627720Y13971435D01*
X50629633Y13971054D01*
X50635314Y13968701D01*
X50635318Y13968700D01*
X50714066Y13936081D01*
X50714067Y13936081D01*
X50719753Y13933725D01*
X50721376Y13932642D01*
X50790350Y13863668D01*
X50791433Y13862045D01*
X50828762Y13771925D01*
X50829119Y13770502D01*
X50833923Y13721729D01*
X50833947Y13721239D01*
X50833947Y10387905D01*
X50833923Y10387415D01*
X50829119Y10338642D01*
X50828762Y10337219D01*
X50791433Y10247099D01*
X50790350Y10245476D01*
X50721376Y10176502D01*
X50719753Y10175419D01*
X50629633Y10138090D01*
X50627720Y10137709D01*
X50621565Y10137709D01*
X50536329Y10137709D01*
X50530174Y10137709D01*
X50528261Y10138090D01*
X50522576Y10140445D01*
X50522575Y10140445D01*
X50470127Y10162170D01*
X50438141Y10175419D01*
X50436518Y10176502D01*
X50395410Y10217610D01*
X50346975Y10219805D01*
X50313622Y10192009D01*
X50313230Y10191714D01*
X50311969Y10190859D01*
X50311968Y10190857D01*
X50302565Y10184472D01*
X50302515Y10184439D01*
X50296978Y10180679D01*
X50292804Y10176503D01*
X50291181Y10175419D01*
X50286190Y10173353D01*
X50272686Y10164181D01*
X50271364Y10163543D01*
X50236985Y10152833D01*
X50234326Y10151870D01*
X50206750Y10140446D01*
X50201062Y10138090D01*
X50199638Y10137733D01*
X50183393Y10136134D01*
X50178236Y10134526D01*
X50176295Y10134321D01*
X50170419Y10134856D01*
X50150865Y10132929D01*
X50150375Y10132905D01*
X50148837Y10132905D01*
X49723342Y10132905D01*
X49721804Y10132905D01*
X49721314Y10132929D01*
X49701759Y10134856D01*
X49695885Y10134321D01*
X49693945Y10134526D01*
X49688787Y10136134D01*
X49672541Y10137733D01*
X49671117Y10138090D01*
X49637850Y10151871D01*
X49635197Y10152831D01*
X49600815Y10163542D01*
X49599493Y10164180D01*
X49585988Y10173352D01*
X49580998Y10175418D01*
X49579375Y10176502D01*
X49575199Y10180678D01*
X49569594Y10184484D01*
X49569518Y10184535D01*
X49560230Y10190842D01*
X49560210Y10190857D01*
X49558949Y10191713D01*
X49558557Y10192008D01*
X49272842Y10430103D01*
X49272481Y10430435D01*
X49238088Y10465350D01*
X49237223Y10466535D01*
X49235081Y10470615D01*
X49235078Y10470619D01*
X49227733Y10484612D01*
X49224273Y10489851D01*
X49223627Y10490643D01*
X49211374Y10505667D01*
X49210624Y10506928D01*
X49201012Y10530334D01*
X49192593Y10550836D01*
X49192590Y10550844D01*
X49192007Y10552264D01*
X49191843Y10552726D01*
X49191402Y10554195D01*
X49191398Y10554207D01*
X49049430Y11027437D01*
X49048986Y11028917D01*
X49048868Y11029394D01*
X49048571Y11030912D01*
X49046222Y11042908D01*
X49045868Y11044496D01*
X49045178Y11047250D01*
X49043416Y11051505D01*
X49043060Y11052928D01*
X49042608Y11057510D01*
X49042606Y11057519D01*
X49041986Y11063819D01*
X49041555Y11066753D01*
X49040339Y11072968D01*
X49040338Y11072975D01*
X49039455Y11077491D01*
X49039388Y11078956D01*
X49039852Y11083533D01*
X49039721Y11086383D01*
X49039604Y11088005D01*
X49038407Y11100159D01*
X49038406Y11100176D01*
X49038256Y11101701D01*
X49038232Y11102191D01*
X49038232Y13721239D01*
X49038256Y13721729D01*
X49038405Y13723242D01*
X49038406Y13723262D01*
X49042608Y13765914D01*
X49042608Y13765915D01*
X49043060Y13770502D01*
X49043417Y13771925D01*
X49045178Y13776178D01*
X49045180Y13776184D01*
X49078390Y13856359D01*
X49078392Y13856363D01*
X49080746Y13862045D01*
X49081829Y13863668D01*
X49086181Y13868021D01*
X49086184Y13868024D01*
X49146447Y13928287D01*
X49146450Y13928290D01*
X49150803Y13932642D01*
X49152426Y13933725D01*
X49158108Y13936079D01*
X49158112Y13936081D01*
X49236860Y13968700D01*
X49236865Y13968702D01*
X49242546Y13971054D01*
X49244459Y13971435D01*
X49342005Y13971435D01*
X49343918Y13971054D01*
G37*
G36*
X52722294Y13976215D02*
G01*
X52723808Y13976066D01*
X52723827Y13976065D01*
X52732366Y13975224D01*
X52741849Y13974290D01*
X52747725Y13974823D01*
X52749664Y13974618D01*
X52754820Y13973012D01*
X52771067Y13971411D01*
X52772490Y13971054D01*
X52776746Y13969291D01*
X52776750Y13969290D01*
X52805760Y13957274D01*
X52808415Y13956313D01*
X52842794Y13945601D01*
X52844116Y13944963D01*
X52857619Y13935793D01*
X52862611Y13933725D01*
X52864233Y13932642D01*
X52868409Y13928466D01*
X52884659Y13917430D01*
X52885051Y13917135D01*
X52886229Y13916153D01*
X52886232Y13916151D01*
X53117698Y13723262D01*
X53170766Y13679039D01*
X53171127Y13678707D01*
X53205519Y13643793D01*
X53206384Y13642608D01*
X53251719Y13556237D01*
X53252271Y13554366D01*
X53252828Y13548239D01*
X53252829Y13548235D01*
X53260545Y13463356D01*
X53260544Y13463354D01*
X53261102Y13457223D01*
X53260897Y13455283D01*
X53231880Y13362153D01*
X53230947Y13360439D01*
X53168500Y13285503D01*
X53166983Y13284277D01*
X53080612Y13238942D01*
X53078741Y13238390D01*
X53072611Y13237833D01*
X53072609Y13237832D01*
X52987730Y13230116D01*
X52987727Y13230117D01*
X52981598Y13229559D01*
X52979658Y13229764D01*
X52886528Y13258781D01*
X52885206Y13259419D01*
X52844663Y13286952D01*
X52844271Y13287247D01*
X52638441Y13458773D01*
X52617820Y13466239D01*
X52397217Y13466239D01*
X52376596Y13458773D01*
X52237095Y13342523D01*
X52226953Y13327171D01*
X52223273Y13314903D01*
X52120986Y12973943D01*
X52119661Y12964916D01*
X52119661Y12810896D01*
X52120985Y12801870D01*
X52214887Y12488859D01*
X52226952Y12448643D01*
X52237094Y12433291D01*
X52376597Y12317038D01*
X52397218Y12309572D01*
X52720265Y12309572D01*
X52721804Y12309572D01*
X52722294Y12309548D01*
X52723808Y12309399D01*
X52723827Y12309398D01*
X52732366Y12308557D01*
X52741849Y12307623D01*
X52747725Y12308156D01*
X52749664Y12307951D01*
X52754820Y12306345D01*
X52771067Y12304744D01*
X52772490Y12304387D01*
X52776746Y12302624D01*
X52776750Y12302623D01*
X52805762Y12290606D01*
X52808417Y12289645D01*
X52842793Y12278934D01*
X52844115Y12278296D01*
X52857618Y12269127D01*
X52862611Y12267058D01*
X52864233Y12265975D01*
X52868410Y12261798D01*
X52884659Y12250763D01*
X52885051Y12250468D01*
X52886228Y12249487D01*
X53149371Y12030201D01*
X53170765Y12012373D01*
X53171126Y12012041D01*
X53205519Y11977127D01*
X53206384Y11975942D01*
X53208525Y11971862D01*
X53208526Y11971861D01*
X53215871Y11957867D01*
X53219333Y11952626D01*
X53232233Y11936809D01*
X53232983Y11935548D01*
X53251600Y11890213D01*
X53251764Y11889751D01*
X53394621Y11413560D01*
X53394739Y11413083D01*
X53395033Y11411579D01*
X53395034Y11411576D01*
X53397384Y11399568D01*
X53397739Y11397976D01*
X53398427Y11395226D01*
X53400190Y11390972D01*
X53400547Y11389549D01*
X53400998Y11384963D01*
X53400999Y11384960D01*
X53401619Y11378666D01*
X53402050Y11375724D01*
X53404152Y11364986D01*
X53404219Y11363520D01*
X53403751Y11358932D01*
X53403881Y11356119D01*
X53403997Y11354507D01*
X53405351Y11340776D01*
X53405375Y11340286D01*
X53405375Y11102191D01*
X53405351Y11101701D01*
X53405200Y11100173D01*
X53404000Y11087990D01*
X53403883Y11086362D01*
X53403752Y11083536D01*
X53404219Y11078957D01*
X53404152Y11077490D01*
X53402050Y11066756D01*
X53401619Y11063824D01*
X53400547Y11052928D01*
X53400190Y11051504D01*
X53398424Y11047243D01*
X53397741Y11044514D01*
X53397386Y11042920D01*
X53395259Y11032056D01*
X53394739Y11029394D01*
X53394621Y11028917D01*
X53251764Y10552726D01*
X53251600Y10552264D01*
X53232983Y10506929D01*
X53232233Y10505668D01*
X53219977Y10490643D01*
X53219332Y10489852D01*
X53215871Y10484612D01*
X53206384Y10466535D01*
X53205519Y10465350D01*
X53171126Y10430436D01*
X53170765Y10430104D01*
X52885051Y10192009D01*
X52884659Y10191714D01*
X52883398Y10190859D01*
X52883397Y10190857D01*
X52873994Y10184472D01*
X52873944Y10184439D01*
X52868407Y10180679D01*
X52864233Y10176503D01*
X52862610Y10175419D01*
X52857619Y10173353D01*
X52844115Y10164181D01*
X52842793Y10163543D01*
X52808414Y10152833D01*
X52805755Y10151870D01*
X52778179Y10140446D01*
X52772491Y10138090D01*
X52771067Y10137733D01*
X52754822Y10136134D01*
X52749665Y10134526D01*
X52747724Y10134321D01*
X52741848Y10134856D01*
X52722294Y10132929D01*
X52721804Y10132905D01*
X52720266Y10132905D01*
X52151913Y10132905D01*
X52150375Y10132905D01*
X52149885Y10132929D01*
X52130329Y10134856D01*
X52124455Y10134321D01*
X52122515Y10134526D01*
X52117357Y10136134D01*
X52101112Y10137733D01*
X52099688Y10138090D01*
X52077877Y10147125D01*
X52066429Y10151867D01*
X52063772Y10152831D01*
X52050243Y10157045D01*
X52033785Y10162172D01*
X52033782Y10162174D01*
X52029386Y10163543D01*
X52028064Y10164181D01*
X52014559Y10173352D01*
X52009568Y10175419D01*
X52007946Y10176502D01*
X52003767Y10180681D01*
X51987520Y10191714D01*
X51987128Y10192009D01*
X51701414Y10430104D01*
X51701053Y10430436D01*
X51666660Y10465350D01*
X51665795Y10466535D01*
X51663653Y10470615D01*
X51623319Y10547457D01*
X51623318Y10547460D01*
X51620460Y10552905D01*
X51619908Y10554776D01*
X51619351Y10560901D01*
X51619349Y10560908D01*
X51611633Y10645788D01*
X51611633Y10645796D01*
X51611077Y10651920D01*
X51611282Y10653860D01*
X51640299Y10746989D01*
X51641232Y10748703D01*
X51645171Y10753431D01*
X51645174Y10753435D01*
X51699738Y10818911D01*
X51699738Y10818912D01*
X51703679Y10823640D01*
X51705196Y10824866D01*
X51710641Y10827725D01*
X51710646Y10827728D01*
X51786117Y10867342D01*
X51786121Y10867344D01*
X51791566Y10870201D01*
X51793437Y10870753D01*
X51799559Y10871310D01*
X51799568Y10871312D01*
X51884448Y10879028D01*
X51884455Y10879028D01*
X51890581Y10879584D01*
X51892521Y10879379D01*
X51985650Y10850362D01*
X51986972Y10849724D01*
X51990782Y10847137D01*
X51990783Y10847136D01*
X52026252Y10823050D01*
X52026260Y10823044D01*
X52027516Y10822191D01*
X52027908Y10821896D01*
X52117796Y10746989D01*
X52233738Y10650371D01*
X52254359Y10642905D01*
X52617820Y10642905D01*
X52638441Y10650371D01*
X52777940Y10766622D01*
X52788081Y10781974D01*
X52788082Y10781976D01*
X52870745Y11057519D01*
X52894050Y11135203D01*
X52895375Y11144230D01*
X52895375Y11298249D01*
X52894050Y11307276D01*
X52807409Y11596078D01*
X52788080Y11660505D01*
X52777939Y11675856D01*
X52638441Y11792106D01*
X52617820Y11799572D01*
X52293233Y11799572D01*
X52292743Y11799596D01*
X52273188Y11801523D01*
X52267314Y11800988D01*
X52265374Y11801193D01*
X52260216Y11802801D01*
X52243970Y11804400D01*
X52242546Y11804757D01*
X52209279Y11818538D01*
X52206626Y11819498D01*
X52172244Y11830209D01*
X52170922Y11830847D01*
X52157417Y11840019D01*
X52152427Y11842085D01*
X52150804Y11843169D01*
X52146628Y11847345D01*
X52141023Y11851151D01*
X52140947Y11851202D01*
X52131659Y11857509D01*
X52131644Y11857521D01*
X52130378Y11858380D01*
X52129986Y11858675D01*
X51844271Y12096770D01*
X51843910Y12097102D01*
X51809517Y12132017D01*
X51808652Y12133202D01*
X51806511Y12137280D01*
X51806507Y12137286D01*
X51799162Y12151279D01*
X51795702Y12156518D01*
X51782803Y12172334D01*
X51782053Y12173595D01*
X51772868Y12195963D01*
X51764022Y12217503D01*
X51764019Y12217511D01*
X51763436Y12218931D01*
X51763272Y12219393D01*
X51762831Y12220862D01*
X51762827Y12220874D01*
X51620859Y12694104D01*
X51620415Y12695584D01*
X51620297Y12696061D01*
X51620001Y12697572D01*
X51617651Y12709575D01*
X51617297Y12711163D01*
X51616607Y12713917D01*
X51614845Y12718172D01*
X51614489Y12719595D01*
X51614037Y12724177D01*
X51614035Y12724186D01*
X51613415Y12730486D01*
X51612984Y12733420D01*
X51611768Y12739635D01*
X51611767Y12739642D01*
X51610884Y12744158D01*
X51610817Y12745623D01*
X51611281Y12750200D01*
X51611150Y12753050D01*
X51611033Y12754672D01*
X51609836Y12766826D01*
X51609835Y12766843D01*
X51609685Y12768368D01*
X51609661Y12768858D01*
X51609661Y13006953D01*
X51609685Y13007443D01*
X51609835Y13008969D01*
X51611033Y13021140D01*
X51611150Y13022762D01*
X51611281Y13025613D01*
X51610817Y13030188D01*
X51610884Y13031653D01*
X51611767Y13036170D01*
X51611768Y13036179D01*
X51612984Y13042389D01*
X51613415Y13045324D01*
X51614037Y13051635D01*
X51614037Y13051638D01*
X51614489Y13056216D01*
X51614845Y13057639D01*
X51616606Y13061894D01*
X51617300Y13064662D01*
X51617653Y13066248D01*
X51619999Y13078236D01*
X51620005Y13078264D01*
X51620297Y13079751D01*
X51620415Y13080227D01*
X51620850Y13081679D01*
X51620855Y13081697D01*
X51762827Y13554937D01*
X51762833Y13554956D01*
X51763272Y13556417D01*
X51763436Y13556879D01*
X51764016Y13558294D01*
X51764022Y13558308D01*
X51780301Y13597950D01*
X51780302Y13597954D01*
X51782053Y13602215D01*
X51782803Y13603476D01*
X51795704Y13619298D01*
X51799164Y13624534D01*
X51799165Y13624535D01*
X51805274Y13636173D01*
X51806509Y13638526D01*
X51806511Y13638529D01*
X51808652Y13642608D01*
X51809517Y13643793D01*
X51812752Y13647077D01*
X51812753Y13647079D01*
X51842826Y13677607D01*
X51842830Y13677612D01*
X51843910Y13678707D01*
X51844271Y13679039D01*
X51845443Y13680016D01*
X51845453Y13680025D01*
X52128800Y13916148D01*
X52128816Y13916161D01*
X52129986Y13917135D01*
X52130378Y13917430D01*
X52131636Y13918285D01*
X52131654Y13918298D01*
X52141407Y13924921D01*
X52146629Y13928468D01*
X52150805Y13932642D01*
X52152426Y13933725D01*
X52157415Y13935793D01*
X52170922Y13944964D01*
X52172244Y13945602D01*
X52206631Y13956317D01*
X52209277Y13957275D01*
X52221748Y13962439D01*
X52238292Y13969292D01*
X52238294Y13969293D01*
X52242547Y13971054D01*
X52243970Y13971411D01*
X52260216Y13973012D01*
X52265374Y13974618D01*
X52267314Y13974823D01*
X52273188Y13974290D01*
X52280228Y13974983D01*
X52291209Y13976065D01*
X52291229Y13976066D01*
X52292743Y13976215D01*
X52293233Y13976239D01*
X52721804Y13976239D01*
X52722294Y13976215D01*
G37*
G36*
X55293722Y13976215D02*
G01*
X55295236Y13976066D01*
X55295255Y13976065D01*
X55303794Y13975224D01*
X55313277Y13974290D01*
X55319153Y13974823D01*
X55321092Y13974618D01*
X55326248Y13973012D01*
X55342495Y13971411D01*
X55343918Y13971054D01*
X55348174Y13969291D01*
X55348178Y13969290D01*
X55377188Y13957274D01*
X55379843Y13956313D01*
X55414222Y13945601D01*
X55415544Y13944963D01*
X55429047Y13935793D01*
X55434039Y13933725D01*
X55435661Y13932642D01*
X55439837Y13928466D01*
X55456087Y13917430D01*
X55456479Y13917135D01*
X55457657Y13916153D01*
X55457660Y13916151D01*
X55689126Y13723262D01*
X55742194Y13679039D01*
X55742555Y13678707D01*
X55776947Y13643793D01*
X55777812Y13642608D01*
X55781926Y13634769D01*
X55787298Y13624535D01*
X55790760Y13619295D01*
X55803661Y13603476D01*
X55804411Y13602215D01*
X55806161Y13597952D01*
X55806162Y13597951D01*
X55809232Y13590475D01*
X55823027Y13556879D01*
X55823191Y13556417D01*
X55966049Y13080228D01*
X55966167Y13079751D01*
X55968814Y13066225D01*
X55969164Y13064657D01*
X55969854Y13061900D01*
X55971619Y13057640D01*
X55971976Y13056216D01*
X55973048Y13045324D01*
X55973478Y13042392D01*
X55975581Y13031655D01*
X55975648Y13030188D01*
X55975181Y13025611D01*
X55975312Y13022783D01*
X55975429Y13021155D01*
X55975430Y13021140D01*
X55976780Y13007443D01*
X55976804Y13006953D01*
X55976804Y10387905D01*
X55976780Y10387415D01*
X55971976Y10338642D01*
X55971619Y10337219D01*
X55934290Y10247099D01*
X55933207Y10245476D01*
X55864233Y10176502D01*
X55862610Y10175419D01*
X55772490Y10138090D01*
X55770577Y10137709D01*
X55764422Y10137709D01*
X55679186Y10137709D01*
X55673031Y10137709D01*
X55671118Y10138090D01*
X55665431Y10140446D01*
X55665429Y10140446D01*
X55594058Y10170009D01*
X55567358Y10169252D01*
X55562219Y10166775D01*
X55558400Y10164180D01*
X55557078Y10163542D01*
X55522689Y10152830D01*
X55520039Y10151870D01*
X55486776Y10138090D01*
X55485352Y10137733D01*
X55469106Y10136134D01*
X55463949Y10134526D01*
X55462008Y10134321D01*
X55456132Y10134856D01*
X55436579Y10132929D01*
X55436089Y10132905D01*
X55434551Y10132905D01*
X54723342Y10132905D01*
X54721804Y10132905D01*
X54721314Y10132929D01*
X54701759Y10134856D01*
X54695885Y10134321D01*
X54693945Y10134526D01*
X54688787Y10136134D01*
X54672541Y10137733D01*
X54671117Y10138090D01*
X54637850Y10151871D01*
X54635197Y10152831D01*
X54600815Y10163542D01*
X54599493Y10164180D01*
X54585988Y10173352D01*
X54580998Y10175418D01*
X54579375Y10176502D01*
X54575199Y10180678D01*
X54569594Y10184484D01*
X54569518Y10184535D01*
X54560230Y10190842D01*
X54560210Y10190857D01*
X54558949Y10191713D01*
X54558557Y10192008D01*
X54272842Y10430103D01*
X54272481Y10430435D01*
X54238088Y10465350D01*
X54237223Y10466535D01*
X54235081Y10470615D01*
X54235078Y10470619D01*
X54227733Y10484612D01*
X54224273Y10489851D01*
X54223627Y10490643D01*
X54211374Y10505667D01*
X54210624Y10506928D01*
X54201012Y10530334D01*
X54192593Y10550836D01*
X54192590Y10550844D01*
X54192007Y10552264D01*
X54191843Y10552726D01*
X54191402Y10554195D01*
X54191398Y10554207D01*
X54049430Y11027437D01*
X54048986Y11028917D01*
X54048868Y11029394D01*
X54048571Y11030912D01*
X54046222Y11042908D01*
X54045868Y11044496D01*
X54045178Y11047250D01*
X54043416Y11051505D01*
X54043060Y11052928D01*
X54042608Y11057510D01*
X54042606Y11057519D01*
X54041986Y11063819D01*
X54041555Y11066753D01*
X54040339Y11072968D01*
X54040338Y11072975D01*
X54039455Y11077491D01*
X54039388Y11078956D01*
X54039852Y11083533D01*
X54039721Y11086383D01*
X54039604Y11088005D01*
X54038407Y11100159D01*
X54038406Y11100176D01*
X54038256Y11101701D01*
X54038232Y11102191D01*
X54038232Y11536345D01*
X54548232Y11536345D01*
X54548232Y11144229D01*
X54549556Y11135203D01*
X54652867Y10790828D01*
X54655523Y10781976D01*
X54665665Y10766624D01*
X54805168Y10650371D01*
X54825789Y10642905D01*
X55332104Y10642905D01*
X55352725Y10650371D01*
X55455003Y10735603D01*
X55466804Y10760799D01*
X55466804Y12001056D01*
X55430193Y12037667D01*
X54825789Y12037667D01*
X54805168Y12030201D01*
X54783375Y12012041D01*
X54686467Y11931286D01*
X54665665Y11913952D01*
X54655523Y11898601D01*
X54564202Y11594190D01*
X54549557Y11545372D01*
X54548232Y11536345D01*
X54038232Y11536345D01*
X54038232Y11578381D01*
X54038256Y11578871D01*
X54039604Y11592568D01*
X54039721Y11594190D01*
X54039852Y11597041D01*
X54039388Y11601616D01*
X54039455Y11603081D01*
X54040338Y11607598D01*
X54040339Y11607607D01*
X54041555Y11613817D01*
X54041986Y11616752D01*
X54042608Y11623063D01*
X54042608Y11623066D01*
X54043060Y11627644D01*
X54043416Y11629067D01*
X54045177Y11633322D01*
X54045871Y11636090D01*
X54046224Y11637676D01*
X54048570Y11649664D01*
X54048576Y11649692D01*
X54048868Y11651179D01*
X54048986Y11651655D01*
X54049421Y11653107D01*
X54049426Y11653125D01*
X54191398Y12126366D01*
X54191404Y12126385D01*
X54191843Y12127846D01*
X54192007Y12128308D01*
X54192587Y12129723D01*
X54192593Y12129737D01*
X54208872Y12169379D01*
X54208873Y12169383D01*
X54210624Y12173644D01*
X54211374Y12174905D01*
X54224275Y12190727D01*
X54227735Y12195963D01*
X54235080Y12209956D01*
X54235082Y12209959D01*
X54237223Y12214037D01*
X54238088Y12215222D01*
X54241321Y12218505D01*
X54241324Y12218508D01*
X54271407Y12249048D01*
X54271420Y12249061D01*
X54272481Y12250137D01*
X54272842Y12250469D01*
X54273999Y12251434D01*
X54274013Y12251446D01*
X54557380Y12487584D01*
X54557390Y12487592D01*
X54558557Y12488564D01*
X54558949Y12488859D01*
X54560193Y12489705D01*
X54560217Y12489722D01*
X54569909Y12496304D01*
X54569998Y12496364D01*
X54575202Y12499898D01*
X54579376Y12504070D01*
X54580997Y12505153D01*
X54585985Y12507220D01*
X54599493Y12516392D01*
X54600815Y12517030D01*
X54635202Y12527745D01*
X54637848Y12528703D01*
X54649931Y12533707D01*
X54666863Y12540720D01*
X54666865Y12540721D01*
X54671118Y12542482D01*
X54672541Y12542839D01*
X54688787Y12544440D01*
X54693945Y12546046D01*
X54695885Y12546251D01*
X54701759Y12545718D01*
X54708475Y12546380D01*
X54719780Y12547493D01*
X54719800Y12547494D01*
X54721314Y12547643D01*
X54721804Y12547667D01*
X55332104Y12547667D01*
X55352725Y12555133D01*
X55455003Y12640365D01*
X55466804Y12665561D01*
X55466804Y12964916D01*
X55465479Y12973943D01*
X55372011Y13285503D01*
X55359510Y13327170D01*
X55349370Y13342521D01*
X55209869Y13458773D01*
X55189248Y13466239D01*
X54825788Y13466239D01*
X54805167Y13458773D01*
X54599336Y13287247D01*
X54598944Y13286952D01*
X54558400Y13259419D01*
X54557078Y13258781D01*
X54463949Y13229764D01*
X54462009Y13229559D01*
X54455878Y13230117D01*
X54455876Y13230116D01*
X54370996Y13237832D01*
X54370992Y13237833D01*
X54364865Y13238390D01*
X54362994Y13238942D01*
X54357545Y13241802D01*
X54282074Y13281416D01*
X54282072Y13281417D01*
X54276624Y13284277D01*
X54275107Y13285503D01*
X54239763Y13327916D01*
X54216602Y13355709D01*
X54216601Y13355711D01*
X54212660Y13360440D01*
X54211727Y13362154D01*
X54182710Y13455283D01*
X54182505Y13457223D01*
X54183061Y13463349D01*
X54183061Y13463356D01*
X54190777Y13548236D01*
X54190779Y13548245D01*
X54191336Y13554367D01*
X54191888Y13556238D01*
X54194745Y13561683D01*
X54194747Y13561687D01*
X54235081Y13638529D01*
X54235084Y13638534D01*
X54237223Y13642608D01*
X54238088Y13643793D01*
X54241319Y13647074D01*
X54241322Y13647077D01*
X54271397Y13677607D01*
X54271401Y13677612D01*
X54272481Y13678707D01*
X54272842Y13679039D01*
X54274014Y13680016D01*
X54274024Y13680025D01*
X54557371Y13916148D01*
X54557387Y13916161D01*
X54558557Y13917135D01*
X54558949Y13917430D01*
X54560207Y13918285D01*
X54560225Y13918298D01*
X54569978Y13924921D01*
X54575200Y13928468D01*
X54579376Y13932642D01*
X54580997Y13933725D01*
X54585986Y13935793D01*
X54599493Y13944964D01*
X54600815Y13945602D01*
X54635202Y13956317D01*
X54637848Y13957275D01*
X54650319Y13962439D01*
X54666863Y13969292D01*
X54666865Y13969293D01*
X54671118Y13971054D01*
X54672541Y13971411D01*
X54688787Y13973012D01*
X54693945Y13974618D01*
X54695885Y13974823D01*
X54701759Y13974290D01*
X54708799Y13974983D01*
X54719780Y13976065D01*
X54719800Y13976066D01*
X54721314Y13976215D01*
X54721804Y13976239D01*
X55293232Y13976239D01*
X55293722Y13976215D01*
G37*
G36*
X48002190Y15641650D02*
G01*
X48086493Y15629106D01*
X48086496Y15629105D01*
X48092584Y15628199D01*
X48094420Y15627540D01*
X48099694Y15624376D01*
X48099701Y15624373D01*
X48172782Y15580524D01*
X48172785Y15580521D01*
X48178065Y15577353D01*
X48179510Y15576043D01*
X48237582Y15497667D01*
X48238416Y15495903D01*
X48262073Y15401271D01*
X48262168Y15399322D01*
X48247811Y15302839D01*
X48247384Y15301435D01*
X48226410Y15257141D01*
X48226178Y15256709D01*
X48225384Y15255388D01*
X48225380Y15255378D01*
X47017950Y13242996D01*
X47016146Y13212353D01*
X48240058Y10492548D01*
X48240237Y10492091D01*
X48255871Y10445642D01*
X48256130Y10444198D01*
X48259071Y10346698D01*
X48258748Y10344774D01*
X48224154Y10253570D01*
X48223120Y10251916D01*
X48156256Y10180893D01*
X48154667Y10179760D01*
X48065713Y10139731D01*
X48063812Y10139293D01*
X47966311Y10136352D01*
X47964387Y10136675D01*
X47873183Y10171269D01*
X47871529Y10172303D01*
X47800506Y10239167D01*
X47799596Y10240319D01*
X47775201Y10282825D01*
X47774978Y10283262D01*
X47753255Y10331534D01*
X46722996Y12620998D01*
X46647419Y12625446D01*
X46552767Y12467691D01*
X46548232Y12451317D01*
X46548232Y10387905D01*
X46548208Y10387415D01*
X46543404Y10338642D01*
X46543047Y10337219D01*
X46505718Y10247099D01*
X46504635Y10245476D01*
X46435661Y10176502D01*
X46434038Y10175419D01*
X46343918Y10138090D01*
X46342005Y10137709D01*
X46335850Y10137709D01*
X46250614Y10137709D01*
X46244459Y10137709D01*
X46242546Y10138090D01*
X46236861Y10140445D01*
X46236860Y10140445D01*
X46184412Y10162170D01*
X46152426Y10175419D01*
X46150803Y10176502D01*
X46081829Y10245476D01*
X46080746Y10247099D01*
X46078390Y10252786D01*
X46045180Y10332961D01*
X46045178Y10332966D01*
X46043417Y10337219D01*
X46043060Y10338642D01*
X46042405Y10345288D01*
X46038406Y10385883D01*
X46038405Y10385902D01*
X46038256Y10387415D01*
X46038232Y10387905D01*
X46038232Y15387905D01*
X46038256Y15388395D01*
X46038405Y15389908D01*
X46038406Y15389928D01*
X46042608Y15432580D01*
X46042608Y15432581D01*
X46043060Y15437168D01*
X46043417Y15438591D01*
X46045178Y15442844D01*
X46045180Y15442850D01*
X46078390Y15523025D01*
X46078392Y15523029D01*
X46080746Y15528711D01*
X46081829Y15530334D01*
X46086181Y15534687D01*
X46086184Y15534690D01*
X46146447Y15594953D01*
X46146450Y15594956D01*
X46150803Y15599308D01*
X46152426Y15600391D01*
X46158108Y15602745D01*
X46158112Y15602747D01*
X46236860Y15635366D01*
X46236865Y15635368D01*
X46242546Y15637720D01*
X46244459Y15638101D01*
X46342005Y15638101D01*
X46343918Y15637720D01*
X46349599Y15635367D01*
X46349603Y15635366D01*
X46428351Y15602747D01*
X46428352Y15602747D01*
X46434038Y15600391D01*
X46435661Y15599308D01*
X46504635Y15530334D01*
X46505718Y15528711D01*
X46543047Y15438591D01*
X46543404Y15437168D01*
X46548208Y15388395D01*
X46548232Y15387905D01*
X46548232Y15386366D01*
X46548232Y13629493D01*
X46639864Y13604113D01*
X47788054Y15517765D01*
X47788077Y15517800D01*
X47788858Y15519101D01*
X47789130Y15519509D01*
X47790041Y15520738D01*
X47790053Y15520754D01*
X47815593Y15555157D01*
X47815596Y15555161D01*
X47818343Y15558860D01*
X47819381Y15559897D01*
X47847220Y15580524D01*
X47892814Y15614307D01*
X47892815Y15614308D01*
X47897757Y15617969D01*
X47899521Y15618803D01*
X47905488Y15620295D01*
X47905493Y15620297D01*
X47988181Y15640969D01*
X47988184Y15640970D01*
X47994152Y15642461D01*
X47996101Y15642556D01*
X48002190Y15641650D01*
G37*
G36*
X57201061Y15637720D02*
G01*
X57206742Y15635367D01*
X57206746Y15635366D01*
X57285494Y15602747D01*
X57285495Y15602747D01*
X57291181Y15600391D01*
X57292804Y15599308D01*
X57361778Y15530334D01*
X57362861Y15528711D01*
X57400190Y15438591D01*
X57400547Y15437168D01*
X57405351Y15388395D01*
X57405375Y15387905D01*
X57405375Y15386366D01*
X57405375Y12915209D01*
X57497007Y12889829D01*
X58073768Y13851099D01*
X58073791Y13851134D01*
X58074572Y13852435D01*
X58074844Y13852843D01*
X58075755Y13854072D01*
X58075767Y13854088D01*
X58101307Y13888491D01*
X58101310Y13888495D01*
X58104057Y13892194D01*
X58105095Y13893231D01*
X58128653Y13910686D01*
X58178527Y13947640D01*
X58178528Y13947641D01*
X58183470Y13951302D01*
X58185234Y13952136D01*
X58191201Y13953628D01*
X58191206Y13953630D01*
X58273894Y13974302D01*
X58273898Y13974303D01*
X58279866Y13975794D01*
X58281815Y13975889D01*
X58287904Y13974983D01*
X58372207Y13962439D01*
X58372210Y13962438D01*
X58378298Y13961532D01*
X58380134Y13960873D01*
X58385408Y13957709D01*
X58385415Y13957706D01*
X58458496Y13913857D01*
X58458499Y13913854D01*
X58463779Y13910686D01*
X58465224Y13909376D01*
X58523295Y13831001D01*
X58524129Y13829237D01*
X58547787Y13734605D01*
X58547882Y13732656D01*
X58533525Y13636173D01*
X58533098Y13634769D01*
X58512124Y13590475D01*
X58511892Y13590043D01*
X58378685Y13368032D01*
X57732236Y12290616D01*
X57730432Y12259973D01*
X58525772Y10492548D01*
X58525951Y10492091D01*
X58541585Y10445643D01*
X58541844Y10444199D01*
X58544785Y10346698D01*
X58544462Y10344774D01*
X58509868Y10253571D01*
X58508834Y10251917D01*
X58441970Y10180893D01*
X58440381Y10179760D01*
X58351426Y10139731D01*
X58349525Y10139293D01*
X58252025Y10136352D01*
X58250101Y10136675D01*
X58158897Y10171269D01*
X58157243Y10172303D01*
X58086220Y10239167D01*
X58085310Y10240319D01*
X58060914Y10282825D01*
X58060691Y10283262D01*
X58035599Y10339021D01*
X57939640Y10552264D01*
X57504141Y11520042D01*
X57405375Y11498843D01*
X57405375Y10387905D01*
X57405351Y10387415D01*
X57400547Y10338642D01*
X57400190Y10337219D01*
X57362861Y10247099D01*
X57361778Y10245476D01*
X57292804Y10176502D01*
X57291181Y10175419D01*
X57201061Y10138090D01*
X57199148Y10137709D01*
X57192993Y10137709D01*
X57107757Y10137709D01*
X57101602Y10137709D01*
X57099689Y10138090D01*
X57094004Y10140445D01*
X57094003Y10140445D01*
X57041555Y10162170D01*
X57009569Y10175419D01*
X57007946Y10176502D01*
X56938972Y10245476D01*
X56937889Y10247099D01*
X56935533Y10252786D01*
X56902323Y10332961D01*
X56902321Y10332966D01*
X56900560Y10337219D01*
X56900203Y10338642D01*
X56899548Y10345288D01*
X56895549Y10385883D01*
X56895548Y10385902D01*
X56895399Y10387415D01*
X56895375Y10387905D01*
X56895375Y15387905D01*
X56895399Y15388395D01*
X56895548Y15389908D01*
X56895549Y15389928D01*
X56899751Y15432580D01*
X56899751Y15432581D01*
X56900203Y15437168D01*
X56900560Y15438591D01*
X56902321Y15442844D01*
X56902323Y15442850D01*
X56935533Y15523025D01*
X56935535Y15523029D01*
X56937889Y15528711D01*
X56938972Y15530334D01*
X56943324Y15534687D01*
X56943327Y15534690D01*
X57003590Y15594953D01*
X57003593Y15594956D01*
X57007946Y15599308D01*
X57009569Y15600391D01*
X57015251Y15602745D01*
X57015255Y15602747D01*
X57094003Y15635366D01*
X57094008Y15635368D01*
X57099689Y15637720D01*
X57101602Y15638101D01*
X57199148Y15638101D01*
X57201061Y15637720D01*
G37*
G36*
X42150865Y13976215D02*
G01*
X42152379Y13976066D01*
X42152398Y13976065D01*
X42160937Y13975224D01*
X42170420Y13974290D01*
X42176296Y13974823D01*
X42178235Y13974618D01*
X42183391Y13973012D01*
X42199638Y13971411D01*
X42201061Y13971054D01*
X42205317Y13969291D01*
X42205321Y13969290D01*
X42234331Y13957274D01*
X42236986Y13956313D01*
X42271365Y13945601D01*
X42272687Y13944963D01*
X42286190Y13935793D01*
X42291182Y13933725D01*
X42292804Y13932642D01*
X42296980Y13928466D01*
X42313230Y13917430D01*
X42313622Y13917135D01*
X42314800Y13916153D01*
X42314803Y13916151D01*
X42546269Y13723262D01*
X42599337Y13679039D01*
X42599698Y13678707D01*
X42634090Y13643793D01*
X42634955Y13642608D01*
X42639069Y13634769D01*
X42644441Y13624535D01*
X42647903Y13619295D01*
X42660804Y13603476D01*
X42661554Y13602215D01*
X42663304Y13597952D01*
X42663305Y13597951D01*
X42666375Y13590475D01*
X42680170Y13556879D01*
X42680334Y13556417D01*
X42823192Y13080228D01*
X42823310Y13079751D01*
X42825957Y13066225D01*
X42826307Y13064657D01*
X42826997Y13061900D01*
X42828762Y13057640D01*
X42829119Y13056216D01*
X42830191Y13045324D01*
X42830621Y13042392D01*
X42832724Y13031655D01*
X42832791Y13030188D01*
X42832324Y13025611D01*
X42832455Y13022783D01*
X42832572Y13021155D01*
X42832573Y13021140D01*
X42833923Y13007443D01*
X42833947Y13006953D01*
X42833947Y10387905D01*
X42833923Y10387415D01*
X42829119Y10338642D01*
X42828762Y10337219D01*
X42791433Y10247099D01*
X42790350Y10245476D01*
X42721376Y10176502D01*
X42719753Y10175419D01*
X42629633Y10138090D01*
X42627720Y10137709D01*
X42621565Y10137709D01*
X42536329Y10137709D01*
X42530174Y10137709D01*
X42528261Y10138090D01*
X42522576Y10140445D01*
X42522575Y10140445D01*
X42470127Y10162170D01*
X42438141Y10175419D01*
X42436518Y10176502D01*
X42367544Y10245476D01*
X42366461Y10247099D01*
X42364105Y10252786D01*
X42330895Y10332961D01*
X42330893Y10332966D01*
X42329132Y10337219D01*
X42328775Y10338642D01*
X42328120Y10345288D01*
X42324121Y10385883D01*
X42324120Y10385902D01*
X42323971Y10387415D01*
X42323947Y10387905D01*
X42323947Y12964916D01*
X42322622Y12973943D01*
X42229154Y13285503D01*
X42216653Y13327170D01*
X42206513Y13342521D01*
X42067012Y13458773D01*
X42046391Y13466239D01*
X41825789Y13466239D01*
X41805168Y13458773D01*
X41711914Y13381064D01*
X41636615Y13318315D01*
X41629779Y13310333D01*
X41552767Y13181977D01*
X41548232Y13165602D01*
X41548232Y10387905D01*
X41548208Y10387415D01*
X41543404Y10338642D01*
X41543047Y10337219D01*
X41505718Y10247099D01*
X41504635Y10245476D01*
X41435661Y10176502D01*
X41434038Y10175419D01*
X41343918Y10138090D01*
X41342005Y10137709D01*
X41335850Y10137709D01*
X41250614Y10137709D01*
X41244459Y10137709D01*
X41242546Y10138090D01*
X41236861Y10140445D01*
X41236860Y10140445D01*
X41184412Y10162170D01*
X41152426Y10175419D01*
X41150803Y10176502D01*
X41081829Y10245476D01*
X41080746Y10247099D01*
X41078390Y10252786D01*
X41045180Y10332961D01*
X41045178Y10332966D01*
X41043417Y10337219D01*
X41043060Y10338642D01*
X41042405Y10345288D01*
X41038406Y10385883D01*
X41038405Y10385902D01*
X41038256Y10387415D01*
X41038232Y10387905D01*
X41038232Y13721239D01*
X41038256Y13721729D01*
X41038405Y13723242D01*
X41038406Y13723262D01*
X41042608Y13765914D01*
X41042608Y13765915D01*
X41043060Y13770502D01*
X41043417Y13771925D01*
X41045178Y13776178D01*
X41045180Y13776184D01*
X41078390Y13856359D01*
X41078392Y13856363D01*
X41080746Y13862045D01*
X41081829Y13863668D01*
X41086181Y13868021D01*
X41086184Y13868024D01*
X41146447Y13928287D01*
X41146450Y13928290D01*
X41150803Y13932642D01*
X41152426Y13933725D01*
X41158108Y13936079D01*
X41158112Y13936081D01*
X41236860Y13968700D01*
X41236865Y13968702D01*
X41242546Y13971054D01*
X41244459Y13971435D01*
X41342005Y13971435D01*
X41343918Y13971054D01*
X41349599Y13968701D01*
X41349603Y13968700D01*
X41428351Y13936081D01*
X41428352Y13936081D01*
X41434038Y13933725D01*
X41435661Y13932642D01*
X41476764Y13891539D01*
X41525198Y13889340D01*
X41557382Y13916157D01*
X41557396Y13916168D01*
X41558557Y13917135D01*
X41558949Y13917430D01*
X41560203Y13918283D01*
X41560218Y13918293D01*
X41569978Y13924921D01*
X41575200Y13928468D01*
X41579376Y13932642D01*
X41580997Y13933725D01*
X41585986Y13935793D01*
X41599493Y13944964D01*
X41600815Y13945602D01*
X41635202Y13956317D01*
X41637848Y13957275D01*
X41650319Y13962439D01*
X41666863Y13969292D01*
X41666865Y13969293D01*
X41671118Y13971054D01*
X41672541Y13971411D01*
X41688787Y13973012D01*
X41693945Y13974618D01*
X41695885Y13974823D01*
X41701759Y13974290D01*
X41708799Y13974983D01*
X41719780Y13976065D01*
X41719800Y13976066D01*
X41721314Y13976215D01*
X41721804Y13976239D01*
X42150375Y13976239D01*
X42150865Y13976215D01*
G37*
G36*
X5195090Y15480785D02*
G01*
X5382683Y15423880D01*
X5555570Y15331470D01*
X5707107Y15207107D01*
X5831470Y15055570D01*
X5923880Y14882683D01*
X5980785Y14695090D01*
X6000000Y14500000D01*
X5980785Y14304910D01*
X5923880Y14117317D01*
X5831470Y13944430D01*
X5707107Y13792893D01*
X5555570Y13668530D01*
X5382683Y13576120D01*
X5195090Y13519215D01*
X5000000Y13500000D01*
X4804910Y13519215D01*
X4617317Y13576120D01*
X4444430Y13668530D01*
X4292893Y13792893D01*
X4168530Y13944430D01*
X4076120Y14117317D01*
X4019215Y14304910D01*
X4000000Y14500000D01*
X4019215Y14695090D01*
X4076120Y14882683D01*
X4168530Y15055570D01*
X4292893Y15207107D01*
X4444430Y15331470D01*
X4617317Y15423880D01*
X4804910Y15480785D01*
X5000000Y15500000D01*
X5195090Y15480785D01*
G37*
G36*
X75558737Y67946150D02*
G01*
X75672208Y67915746D01*
X75773943Y67857009D01*
X75857009Y67773943D01*
X75915746Y67672208D01*
X75946150Y67558737D01*
X75950000Y67500000D01*
X75950000Y57500000D01*
X75946150Y57441263D01*
X75915746Y57327792D01*
X75857009Y57226057D01*
X75773943Y57142991D01*
X75672208Y57084254D01*
X75558737Y57053850D01*
X75441263Y57053850D01*
X75327792Y57084254D01*
X75226057Y57142991D01*
X75142991Y57226057D01*
X75084254Y57327792D01*
X75053850Y57441263D01*
X75050000Y57500000D01*
X75050000Y67013389D01*
X75013389Y67050000D01*
X30986611Y67050000D01*
X30950000Y67013389D01*
X30950000Y42986611D01*
X30986611Y42950000D01*
X75013389Y42950000D01*
X75050000Y42986611D01*
X75050000Y51997958D01*
X75050000Y52000000D01*
X75053850Y52058737D01*
X75084254Y52172208D01*
X75142991Y52273943D01*
X75226057Y52357009D01*
X75327792Y52415746D01*
X75441263Y52446150D01*
X75558737Y52446150D01*
X75672208Y52415746D01*
X75773943Y52357009D01*
X75857009Y52273943D01*
X75915746Y52172208D01*
X75946150Y52058737D01*
X75950000Y52000000D01*
X75950000Y42500000D01*
X75946150Y42441263D01*
X75915746Y42327792D01*
X75857009Y42226057D01*
X75773943Y42142991D01*
X75672208Y42084254D01*
X75558737Y42053850D01*
X75500000Y42050000D01*
X75497958Y42050000D01*
X30502042Y42050000D01*
X30500000Y42050000D01*
X30441263Y42053850D01*
X30327792Y42084254D01*
X30226057Y42142991D01*
X30142991Y42226057D01*
X30084254Y42327792D01*
X30053850Y42441263D01*
X30050000Y42500000D01*
X30050000Y67500000D01*
X30053850Y67558737D01*
X30084254Y67672208D01*
X30142991Y67773943D01*
X30226057Y67857009D01*
X30327792Y67915746D01*
X30441263Y67946150D01*
X30500000Y67950000D01*
X75500000Y67950000D01*
X75558737Y67946150D01*
G37*
G36*
X67615938Y46505350D02*
G01*
X67624782Y46501445D01*
X67631336Y46500490D01*
X67672310Y46480459D01*
X67712759Y46462599D01*
X67716503Y46458855D01*
X67716848Y46458686D01*
X67783685Y46391849D01*
X67783853Y46391505D01*
X67787599Y46387759D01*
X67805463Y46347300D01*
X67825489Y46306337D01*
X67826443Y46299786D01*
X67830350Y46290938D01*
X67838000Y46225000D01*
X67838000Y45275000D01*
X67830350Y45209062D01*
X67826443Y45200215D01*
X67825489Y45193664D01*
X67805468Y45152711D01*
X67787599Y45112241D01*
X67783852Y45108495D01*
X67783685Y45108152D01*
X67716848Y45041315D01*
X67716505Y45041148D01*
X67712759Y45037401D01*
X67672289Y45019532D01*
X67631336Y44999511D01*
X67624785Y44998557D01*
X67615938Y44994650D01*
X67550000Y44987000D01*
X67050000Y44987000D01*
X66984062Y44994650D01*
X66975214Y44998557D01*
X66968663Y44999511D01*
X66927700Y45019537D01*
X66887241Y45037401D01*
X66883495Y45041147D01*
X66883151Y45041315D01*
X66816314Y45108152D01*
X66816145Y45108497D01*
X66812401Y45112241D01*
X66794541Y45152690D01*
X66774510Y45193664D01*
X66773555Y45200218D01*
X66769650Y45209062D01*
X66762000Y45275000D01*
X66762000Y46225000D01*
X66769650Y46290938D01*
X66773554Y46299782D01*
X66774510Y46306337D01*
X66794545Y46347322D01*
X66812401Y46387759D01*
X66816144Y46391503D01*
X66816314Y46391849D01*
X66883151Y46458686D01*
X66883497Y46458856D01*
X66887241Y46462599D01*
X66927678Y46480455D01*
X66968663Y46500490D01*
X66975218Y46501446D01*
X66984062Y46505350D01*
X67050000Y46513000D01*
X67550000Y46513000D01*
X67615938Y46505350D01*
G37*
G36*
X69515938Y46505350D02*
G01*
X69524782Y46501445D01*
X69531336Y46500490D01*
X69572310Y46480459D01*
X69612759Y46462599D01*
X69616503Y46458855D01*
X69616848Y46458686D01*
X69683685Y46391849D01*
X69683853Y46391505D01*
X69687599Y46387759D01*
X69705463Y46347300D01*
X69725489Y46306337D01*
X69726443Y46299786D01*
X69730350Y46290938D01*
X69738000Y46225000D01*
X69738000Y45275000D01*
X69730350Y45209062D01*
X69726443Y45200215D01*
X69725489Y45193664D01*
X69705468Y45152711D01*
X69687599Y45112241D01*
X69683852Y45108495D01*
X69683685Y45108152D01*
X69616848Y45041315D01*
X69616505Y45041148D01*
X69612759Y45037401D01*
X69572289Y45019532D01*
X69531336Y44999511D01*
X69524785Y44998557D01*
X69515938Y44994650D01*
X69450000Y44987000D01*
X68950000Y44987000D01*
X68884062Y44994650D01*
X68875214Y44998557D01*
X68868663Y44999511D01*
X68827700Y45019537D01*
X68787241Y45037401D01*
X68783495Y45041147D01*
X68783151Y45041315D01*
X68716314Y45108152D01*
X68716145Y45108497D01*
X68712401Y45112241D01*
X68694541Y45152690D01*
X68674510Y45193664D01*
X68673555Y45200218D01*
X68669650Y45209062D01*
X68662000Y45275000D01*
X68662000Y46225000D01*
X68669650Y46290938D01*
X68673554Y46299782D01*
X68674510Y46306337D01*
X68694545Y46347322D01*
X68712401Y46387759D01*
X68716144Y46391503D01*
X68716314Y46391849D01*
X68783151Y46458686D01*
X68783497Y46458856D01*
X68787241Y46462599D01*
X68827678Y46480455D01*
X68868663Y46500490D01*
X68875218Y46501446D01*
X68884062Y46505350D01*
X68950000Y46513000D01*
X69450000Y46513000D01*
X69515938Y46505350D01*
G37*
G36*
X90766682Y47040762D02*
G01*
X90931500Y46967380D01*
X91077460Y46861334D01*
X91198182Y46727259D01*
X91288390Y46571014D01*
X91344141Y46399428D01*
X91363000Y46220000D01*
X91344141Y46040572D01*
X91288390Y45868986D01*
X91198182Y45712741D01*
X91077460Y45578666D01*
X90931500Y45472620D01*
X90766682Y45399238D01*
X90590208Y45361728D01*
X90409792Y45361728D01*
X90233318Y45399238D01*
X90068500Y45472620D01*
X89922540Y45578666D01*
X89801818Y45712741D01*
X89711610Y45868986D01*
X89655859Y46040572D01*
X89637000Y46220000D01*
X89655859Y46399428D01*
X89711610Y46571014D01*
X89801818Y46727259D01*
X89922540Y46861334D01*
X90068500Y46967380D01*
X90233318Y47040762D01*
X90409792Y47078272D01*
X90590208Y47078272D01*
X90766682Y47040762D01*
G37*
G36*
X67665938Y48755350D02*
G01*
X67674782Y48751445D01*
X67681336Y48750490D01*
X67722310Y48730459D01*
X67762759Y48712599D01*
X67766503Y48708855D01*
X67766848Y48708686D01*
X67833685Y48641849D01*
X67833853Y48641505D01*
X67837599Y48637759D01*
X67855463Y48597300D01*
X67875489Y48556337D01*
X67876443Y48549786D01*
X67880350Y48540938D01*
X67888000Y48475000D01*
X67888000Y47525000D01*
X67880350Y47459062D01*
X67876443Y47450215D01*
X67875489Y47443664D01*
X67855468Y47402711D01*
X67837599Y47362241D01*
X67833852Y47358495D01*
X67833685Y47358152D01*
X67766848Y47291315D01*
X67766505Y47291148D01*
X67762759Y47287401D01*
X67722289Y47269532D01*
X67681336Y47249511D01*
X67674785Y47248557D01*
X67665938Y47244650D01*
X67600000Y47237000D01*
X67100000Y47237000D01*
X67034062Y47244650D01*
X67025214Y47248557D01*
X67018663Y47249511D01*
X66977700Y47269537D01*
X66937241Y47287401D01*
X66933495Y47291147D01*
X66933151Y47291315D01*
X66866314Y47358152D01*
X66866145Y47358497D01*
X66862401Y47362241D01*
X66844541Y47402690D01*
X66824510Y47443664D01*
X66823555Y47450218D01*
X66819650Y47459062D01*
X66812000Y47525000D01*
X66812000Y48475000D01*
X66819650Y48540938D01*
X66823554Y48549782D01*
X66824510Y48556337D01*
X66844545Y48597322D01*
X66862401Y48637759D01*
X66866144Y48641503D01*
X66866314Y48641849D01*
X66933151Y48708686D01*
X66933497Y48708856D01*
X66937241Y48712599D01*
X66977678Y48730455D01*
X67018663Y48750490D01*
X67025218Y48751446D01*
X67034062Y48755350D01*
X67100000Y48763000D01*
X67600000Y48763000D01*
X67665938Y48755350D01*
G37*
G36*
X69565938Y48755350D02*
G01*
X69574782Y48751445D01*
X69581336Y48750490D01*
X69622310Y48730459D01*
X69662759Y48712599D01*
X69666503Y48708855D01*
X69666848Y48708686D01*
X69733685Y48641849D01*
X69733853Y48641505D01*
X69737599Y48637759D01*
X69755463Y48597300D01*
X69775489Y48556337D01*
X69776443Y48549786D01*
X69780350Y48540938D01*
X69788000Y48475000D01*
X69788000Y47525000D01*
X69780350Y47459062D01*
X69776443Y47450215D01*
X69775489Y47443664D01*
X69755468Y47402711D01*
X69737599Y47362241D01*
X69733852Y47358495D01*
X69733685Y47358152D01*
X69666848Y47291315D01*
X69666505Y47291148D01*
X69662759Y47287401D01*
X69622289Y47269532D01*
X69581336Y47249511D01*
X69574785Y47248557D01*
X69565938Y47244650D01*
X69500000Y47237000D01*
X69000000Y47237000D01*
X68934062Y47244650D01*
X68925214Y47248557D01*
X68918663Y47249511D01*
X68877700Y47269537D01*
X68837241Y47287401D01*
X68833495Y47291147D01*
X68833151Y47291315D01*
X68766314Y47358152D01*
X68766145Y47358497D01*
X68762401Y47362241D01*
X68744541Y47402690D01*
X68724510Y47443664D01*
X68723555Y47450218D01*
X68719650Y47459062D01*
X68712000Y47525000D01*
X68712000Y48475000D01*
X68719650Y48540938D01*
X68723554Y48549782D01*
X68724510Y48556337D01*
X68744545Y48597322D01*
X68762401Y48637759D01*
X68766144Y48641503D01*
X68766314Y48641849D01*
X68833151Y48708686D01*
X68833497Y48708856D01*
X68837241Y48712599D01*
X68877678Y48730455D01*
X68918663Y48750490D01*
X68925218Y48751446D01*
X68934062Y48755350D01*
X69000000Y48763000D01*
X69500000Y48763000D01*
X69565938Y48755350D01*
G37*
G36*
X90766682Y49580762D02*
G01*
X90931500Y49507380D01*
X91077460Y49401334D01*
X91198182Y49267259D01*
X91288390Y49111014D01*
X91344141Y48939428D01*
X91363000Y48760000D01*
X91344141Y48580572D01*
X91288390Y48408986D01*
X91198182Y48252741D01*
X91077460Y48118666D01*
X90931500Y48012620D01*
X90766682Y47939238D01*
X90590208Y47901728D01*
X90409792Y47901728D01*
X90233318Y47939238D01*
X90068500Y48012620D01*
X89922540Y48118666D01*
X89801818Y48252741D01*
X89711610Y48408986D01*
X89655859Y48580572D01*
X89637000Y48760000D01*
X89655859Y48939428D01*
X89711610Y49111014D01*
X89801818Y49267259D01*
X89922540Y49401334D01*
X90068500Y49507380D01*
X90233318Y49580762D01*
X90409792Y49618272D01*
X90590208Y49618272D01*
X90766682Y49580762D01*
G37*
G36*
X51280062Y48911993D02*
G01*
X51327205Y48906524D01*
X51343313Y48899412D01*
X51366079Y48894883D01*
X51390448Y48878600D01*
X51408892Y48870456D01*
X51421489Y48857859D01*
X51443291Y48843291D01*
X51457858Y48821490D01*
X51470455Y48808893D01*
X51478597Y48790452D01*
X51494883Y48766079D01*
X51499411Y48743312D01*
X51506523Y48727206D01*
X51511991Y48680073D01*
X51513000Y48675000D01*
X51513000Y48275000D01*
X51511990Y48269926D01*
X51506523Y48222795D01*
X51499412Y48206691D01*
X51494883Y48183921D01*
X51478596Y48159547D01*
X51470455Y48141108D01*
X51457860Y48128514D01*
X51443291Y48106709D01*
X51421486Y48092140D01*
X51408892Y48079545D01*
X51390453Y48071404D01*
X51366079Y48055117D01*
X51343309Y48050588D01*
X51327205Y48043477D01*
X51280073Y48038010D01*
X51275000Y48037000D01*
X50725000Y48037000D01*
X50719926Y48038010D01*
X50672794Y48043477D01*
X50656688Y48050589D01*
X50633921Y48055117D01*
X50609548Y48071403D01*
X50591107Y48079545D01*
X50578510Y48092142D01*
X50556709Y48106709D01*
X50542141Y48128511D01*
X50529544Y48141108D01*
X50521400Y48159552D01*
X50505117Y48183921D01*
X50500588Y48206687D01*
X50493476Y48222795D01*
X50488006Y48269939D01*
X50487000Y48275000D01*
X50487000Y48675000D01*
X50488006Y48680062D01*
X50493476Y48727206D01*
X50500589Y48743316D01*
X50505117Y48766079D01*
X50521399Y48790448D01*
X50529544Y48808893D01*
X50542143Y48821493D01*
X50556709Y48843291D01*
X50578507Y48857857D01*
X50591107Y48870456D01*
X50609552Y48878601D01*
X50633921Y48894883D01*
X50656684Y48899411D01*
X50672794Y48906524D01*
X50719939Y48911994D01*
X50725000Y48913000D01*
X51275000Y48913000D01*
X51280062Y48911993D01*
G37*
G36*
X52630062Y50561993D02*
G01*
X52677205Y50556524D01*
X52693313Y50549412D01*
X52716079Y50544883D01*
X52740448Y50528600D01*
X52758892Y50520456D01*
X52771489Y50507859D01*
X52793291Y50493291D01*
X52807858Y50471490D01*
X52820455Y50458893D01*
X52828597Y50440452D01*
X52844883Y50416079D01*
X52849411Y50393312D01*
X52856523Y50377206D01*
X52861991Y50330073D01*
X52863000Y50325000D01*
X52863000Y49775000D01*
X52861990Y49769926D01*
X52856523Y49722795D01*
X52849412Y49706691D01*
X52844883Y49683921D01*
X52828596Y49659547D01*
X52820455Y49641108D01*
X52807860Y49628514D01*
X52793291Y49606709D01*
X52771486Y49592140D01*
X52758892Y49579545D01*
X52740453Y49571404D01*
X52716079Y49555117D01*
X52693309Y49550588D01*
X52677205Y49543477D01*
X52630073Y49538010D01*
X52625000Y49537000D01*
X52225000Y49537000D01*
X52219926Y49538010D01*
X52172794Y49543477D01*
X52156688Y49550589D01*
X52133921Y49555117D01*
X52109548Y49571403D01*
X52091107Y49579545D01*
X52078510Y49592142D01*
X52056709Y49606709D01*
X52042141Y49628511D01*
X52029544Y49641108D01*
X52021400Y49659552D01*
X52005117Y49683921D01*
X52000588Y49706687D01*
X51993476Y49722795D01*
X51988006Y49769939D01*
X51987000Y49775000D01*
X51987000Y50325000D01*
X51988006Y50330062D01*
X51993476Y50377206D01*
X52000589Y50393316D01*
X52005117Y50416079D01*
X52021399Y50440448D01*
X52029544Y50458893D01*
X52042143Y50471493D01*
X52056709Y50493291D01*
X52078507Y50507857D01*
X52091107Y50520456D01*
X52109552Y50528601D01*
X52133921Y50544883D01*
X52156684Y50549411D01*
X52172794Y50556524D01*
X52219939Y50561994D01*
X52225000Y50563000D01*
X52625000Y50563000D01*
X52630062Y50561993D01*
G37*
G36*
X54280062Y50561993D02*
G01*
X54327205Y50556524D01*
X54343313Y50549412D01*
X54366079Y50544883D01*
X54390448Y50528600D01*
X54408892Y50520456D01*
X54421489Y50507859D01*
X54443291Y50493291D01*
X54457858Y50471490D01*
X54470455Y50458893D01*
X54478597Y50440452D01*
X54494883Y50416079D01*
X54499411Y50393312D01*
X54506523Y50377206D01*
X54511991Y50330073D01*
X54513000Y50325000D01*
X54513000Y49775000D01*
X54511990Y49769926D01*
X54506523Y49722795D01*
X54499412Y49706691D01*
X54494883Y49683921D01*
X54478596Y49659547D01*
X54470455Y49641108D01*
X54457860Y49628514D01*
X54443291Y49606709D01*
X54421486Y49592140D01*
X54408892Y49579545D01*
X54390453Y49571404D01*
X54366079Y49555117D01*
X54343309Y49550588D01*
X54327205Y49543477D01*
X54280073Y49538010D01*
X54275000Y49537000D01*
X53875000Y49537000D01*
X53869926Y49538010D01*
X53822794Y49543477D01*
X53806688Y49550589D01*
X53783921Y49555117D01*
X53759548Y49571403D01*
X53741107Y49579545D01*
X53728510Y49592142D01*
X53706709Y49606709D01*
X53692141Y49628511D01*
X53679544Y49641108D01*
X53671400Y49659552D01*
X53655117Y49683921D01*
X53650588Y49706687D01*
X53643476Y49722795D01*
X53638006Y49769939D01*
X53637000Y49775000D01*
X53637000Y50325000D01*
X53638006Y50330062D01*
X53643476Y50377206D01*
X53650589Y50393316D01*
X53655117Y50416079D01*
X53671399Y50440448D01*
X53679544Y50458893D01*
X53692143Y50471493D01*
X53706709Y50493291D01*
X53728507Y50507857D01*
X53741107Y50520456D01*
X53759552Y50528601D01*
X53783921Y50544883D01*
X53806684Y50549411D01*
X53822794Y50556524D01*
X53869939Y50561994D01*
X53875000Y50563000D01*
X54275000Y50563000D01*
X54280062Y50561993D01*
G37*
G36*
X72280062Y50536993D02*
G01*
X72327205Y50531524D01*
X72343313Y50524412D01*
X72366079Y50519883D01*
X72390448Y50503600D01*
X72408892Y50495456D01*
X72421489Y50482859D01*
X72443291Y50468291D01*
X72457858Y50446490D01*
X72470455Y50433893D01*
X72478597Y50415452D01*
X72494883Y50391079D01*
X72499411Y50368312D01*
X72506523Y50352206D01*
X72511991Y50305073D01*
X72513000Y50300000D01*
X72513000Y49900000D01*
X72511990Y49894926D01*
X72506523Y49847795D01*
X72499412Y49831691D01*
X72494883Y49808921D01*
X72478596Y49784547D01*
X72470455Y49766108D01*
X72457860Y49753514D01*
X72443291Y49731709D01*
X72421486Y49717140D01*
X72408892Y49704545D01*
X72390453Y49696404D01*
X72366079Y49680117D01*
X72343309Y49675588D01*
X72327205Y49668477D01*
X72280073Y49663010D01*
X72275000Y49662000D01*
X71725000Y49662000D01*
X71719926Y49663010D01*
X71672794Y49668477D01*
X71656688Y49675589D01*
X71633921Y49680117D01*
X71609548Y49696403D01*
X71591107Y49704545D01*
X71578510Y49717142D01*
X71556709Y49731709D01*
X71542141Y49753511D01*
X71529544Y49766108D01*
X71521400Y49784552D01*
X71505117Y49808921D01*
X71500588Y49831687D01*
X71493476Y49847795D01*
X71488006Y49894939D01*
X71487000Y49900000D01*
X71487000Y50300000D01*
X71488006Y50305062D01*
X71493476Y50352206D01*
X71500589Y50368316D01*
X71505117Y50391079D01*
X71521399Y50415448D01*
X71529544Y50433893D01*
X71542143Y50446493D01*
X71556709Y50468291D01*
X71578507Y50482857D01*
X71591107Y50495456D01*
X71609552Y50503601D01*
X71633921Y50519883D01*
X71656684Y50524411D01*
X71672794Y50531524D01*
X71719939Y50536994D01*
X71725000Y50538000D01*
X72275000Y50538000D01*
X72280062Y50536993D01*
G37*
G36*
X51280062Y50561993D02*
G01*
X51327205Y50556524D01*
X51343313Y50549412D01*
X51366079Y50544883D01*
X51390448Y50528600D01*
X51408892Y50520456D01*
X51421489Y50507859D01*
X51443291Y50493291D01*
X51457858Y50471490D01*
X51470455Y50458893D01*
X51478597Y50440452D01*
X51494883Y50416079D01*
X51499411Y50393312D01*
X51506523Y50377206D01*
X51511991Y50330073D01*
X51513000Y50325000D01*
X51513000Y49925000D01*
X51511990Y49919926D01*
X51506523Y49872795D01*
X51499412Y49856691D01*
X51494883Y49833921D01*
X51478596Y49809547D01*
X51470455Y49791108D01*
X51457860Y49778514D01*
X51443291Y49756709D01*
X51421486Y49742140D01*
X51408892Y49729545D01*
X51390453Y49721404D01*
X51366079Y49705117D01*
X51343309Y49700588D01*
X51327205Y49693477D01*
X51280073Y49688010D01*
X51275000Y49687000D01*
X50725000Y49687000D01*
X50719926Y49688010D01*
X50672794Y49693477D01*
X50656688Y49700589D01*
X50633921Y49705117D01*
X50609548Y49721403D01*
X50591107Y49729545D01*
X50578510Y49742142D01*
X50556709Y49756709D01*
X50542141Y49778511D01*
X50529544Y49791108D01*
X50521400Y49809552D01*
X50505117Y49833921D01*
X50500588Y49856687D01*
X50493476Y49872795D01*
X50488006Y49919939D01*
X50487000Y49925000D01*
X50487000Y50325000D01*
X50488006Y50330062D01*
X50493476Y50377206D01*
X50500589Y50393316D01*
X50505117Y50416079D01*
X50521399Y50440448D01*
X50529544Y50458893D01*
X50542143Y50471493D01*
X50556709Y50493291D01*
X50578507Y50507857D01*
X50591107Y50520456D01*
X50609552Y50528601D01*
X50633921Y50544883D01*
X50656684Y50549411D01*
X50672794Y50556524D01*
X50719939Y50561994D01*
X50725000Y50563000D01*
X51275000Y50563000D01*
X51280062Y50561993D01*
G37*
G36*
X67983013Y51011406D02*
G01*
X68041550Y51003700D01*
X68056276Y50996833D01*
X68075646Y50992980D01*
X68101300Y50975838D01*
X68125298Y50964648D01*
X68139897Y50950049D01*
X68160969Y50935969D01*
X68175048Y50914898D01*
X68189647Y50900299D01*
X68200836Y50876304D01*
X68217980Y50850646D01*
X68221833Y50831275D01*
X68228699Y50816551D01*
X68236403Y50758025D01*
X68238000Y50750000D01*
X68238000Y50250000D01*
X68236403Y50241972D01*
X68228699Y50183450D01*
X68221833Y50168727D01*
X68217980Y50149354D01*
X68200834Y50123695D01*
X68189647Y50099702D01*
X68175050Y50085106D01*
X68160969Y50064031D01*
X68139894Y50049950D01*
X68125298Y50035353D01*
X68101305Y50024166D01*
X68075646Y50007020D01*
X68056273Y50003167D01*
X68041550Y49996301D01*
X67983026Y49988597D01*
X67975000Y49987000D01*
X67525000Y49987000D01*
X67516973Y49988597D01*
X67458449Y49996301D01*
X67443725Y50003167D01*
X67424354Y50007020D01*
X67398696Y50024164D01*
X67374701Y50035353D01*
X67360102Y50049952D01*
X67339031Y50064031D01*
X67324951Y50085103D01*
X67310352Y50099702D01*
X67299162Y50123700D01*
X67282020Y50149354D01*
X67278167Y50168724D01*
X67271300Y50183450D01*
X67263593Y50241989D01*
X67262000Y50250000D01*
X67262000Y50750000D01*
X67263593Y50758012D01*
X67271300Y50816551D01*
X67278167Y50831279D01*
X67282020Y50850646D01*
X67299160Y50876299D01*
X67310352Y50900299D01*
X67324953Y50914901D01*
X67339031Y50935969D01*
X67360099Y50950047D01*
X67374701Y50964648D01*
X67398701Y50975840D01*
X67424354Y50992980D01*
X67443721Y50996833D01*
X67458449Y51003700D01*
X67516989Y51011407D01*
X67525000Y51013000D01*
X67975000Y51013000D01*
X67983013Y51011406D01*
G37*
G36*
X69533013Y51011406D02*
G01*
X69591550Y51003700D01*
X69606276Y50996833D01*
X69625646Y50992980D01*
X69651300Y50975838D01*
X69675298Y50964648D01*
X69689897Y50950049D01*
X69710969Y50935969D01*
X69725048Y50914898D01*
X69739647Y50900299D01*
X69750836Y50876304D01*
X69767980Y50850646D01*
X69771833Y50831275D01*
X69778699Y50816551D01*
X69786403Y50758025D01*
X69788000Y50750000D01*
X69788000Y50250000D01*
X69786403Y50241972D01*
X69778699Y50183450D01*
X69771833Y50168727D01*
X69767980Y50149354D01*
X69750834Y50123695D01*
X69739647Y50099702D01*
X69725050Y50085106D01*
X69710969Y50064031D01*
X69689894Y50049950D01*
X69675298Y50035353D01*
X69651305Y50024166D01*
X69625646Y50007020D01*
X69606273Y50003167D01*
X69591550Y49996301D01*
X69533026Y49988597D01*
X69525000Y49987000D01*
X69075000Y49987000D01*
X69066973Y49988597D01*
X69008449Y49996301D01*
X68993725Y50003167D01*
X68974354Y50007020D01*
X68948696Y50024164D01*
X68924701Y50035353D01*
X68910102Y50049952D01*
X68889031Y50064031D01*
X68874951Y50085103D01*
X68860352Y50099702D01*
X68849162Y50123700D01*
X68832020Y50149354D01*
X68828167Y50168724D01*
X68821300Y50183450D01*
X68813593Y50241989D01*
X68812000Y50250000D01*
X68812000Y50750000D01*
X68813593Y50758012D01*
X68821300Y50816551D01*
X68828167Y50831279D01*
X68832020Y50850646D01*
X68849160Y50876299D01*
X68860352Y50900299D01*
X68874953Y50914901D01*
X68889031Y50935969D01*
X68910099Y50950047D01*
X68924701Y50964648D01*
X68948701Y50975840D01*
X68974354Y50992980D01*
X68993721Y50996833D01*
X69008449Y51003700D01*
X69066989Y51011407D01*
X69075000Y51013000D01*
X69525000Y51013000D01*
X69533013Y51011406D01*
G37*
G36*
X90766682Y52120762D02*
G01*
X90931500Y52047380D01*
X91077460Y51941334D01*
X91198182Y51807259D01*
X91288390Y51651014D01*
X91344141Y51479428D01*
X91363000Y51300000D01*
X91344141Y51120572D01*
X91288390Y50948986D01*
X91198182Y50792741D01*
X91077460Y50658666D01*
X90931500Y50552620D01*
X90766682Y50479238D01*
X90590208Y50441728D01*
X90409792Y50441728D01*
X90233318Y50479238D01*
X90068500Y50552620D01*
X89922540Y50658666D01*
X89801818Y50792741D01*
X89711610Y50948986D01*
X89655859Y51120572D01*
X89637000Y51300000D01*
X89655859Y51479428D01*
X89711610Y51651014D01*
X89801818Y51807259D01*
X89922540Y51941334D01*
X90068500Y52047380D01*
X90233318Y52120762D01*
X90409792Y52158272D01*
X90590208Y52158272D01*
X90766682Y52120762D01*
G37*
G36*
X35223700Y53228302D02*
G01*
X35278407Y53228302D01*
X35338700Y53218241D01*
X35398000Y53213053D01*
X35444567Y53200575D01*
X35492270Y53192615D01*
X35556265Y53170646D01*
X35619072Y53153816D01*
X35657545Y53135876D01*
X35697343Y53122213D01*
X35762733Y53086826D01*
X35826500Y53057091D01*
X35856515Y53036075D01*
X35888025Y53019022D01*
X35952172Y52969095D01*
X36013980Y52925816D01*
X36035762Y52904034D01*
X36059126Y52885849D01*
X36119141Y52820655D01*
X36175816Y52763980D01*
X36190122Y52743548D01*
X36205971Y52726332D01*
X36258837Y52645413D01*
X36307091Y52576500D01*
X36315146Y52559226D01*
X36324559Y52544818D01*
X36367285Y52447412D01*
X36403816Y52369072D01*
X36407217Y52356377D01*
X36411654Y52346263D01*
X36441352Y52228986D01*
X36463053Y52148000D01*
X36463682Y52140808D01*
X36464880Y52136078D01*
X36478931Y51966505D01*
X36483000Y51920000D01*
X36478931Y51873493D01*
X36464880Y51703923D01*
X36463682Y51699194D01*
X36463053Y51692000D01*
X36441348Y51610998D01*
X36411654Y51493738D01*
X36407218Y51483627D01*
X36403816Y51470928D01*
X36367278Y51392573D01*
X36324559Y51295183D01*
X36315147Y51280779D01*
X36307091Y51263500D01*
X36258827Y51194574D01*
X36205971Y51113669D01*
X36190125Y51096457D01*
X36175816Y51076020D01*
X36119129Y51019334D01*
X36059126Y50954152D01*
X36035766Y50935971D01*
X36013980Y50914184D01*
X35952159Y50870897D01*
X35888025Y50820979D01*
X35856521Y50803931D01*
X35826500Y50782909D01*
X35762720Y50753169D01*
X35697343Y50717788D01*
X35657553Y50704129D01*
X35619072Y50686184D01*
X35556252Y50669352D01*
X35492270Y50647386D01*
X35444575Y50639428D01*
X35398000Y50626947D01*
X35338696Y50621759D01*
X35278407Y50611698D01*
X35223700Y50611698D01*
X35170000Y50607000D01*
X35116300Y50611698D01*
X35061593Y50611698D01*
X35001302Y50621759D01*
X34942000Y50626947D01*
X34895425Y50639427D01*
X34847729Y50647386D01*
X34783743Y50669353D01*
X34720928Y50686184D01*
X34682449Y50704127D01*
X34642656Y50717788D01*
X34577272Y50753172D01*
X34513500Y50782909D01*
X34483481Y50803928D01*
X34451974Y50820979D01*
X34387830Y50870904D01*
X34326020Y50914184D01*
X34304235Y50935969D01*
X34280873Y50954152D01*
X34220857Y51019347D01*
X34164184Y51076020D01*
X34149877Y51096452D01*
X34134028Y51113669D01*
X34081157Y51194595D01*
X34032909Y51263500D01*
X34024854Y51280773D01*
X34015440Y51295183D01*
X33972704Y51392609D01*
X33936184Y51470928D01*
X33932783Y51483621D01*
X33928345Y51493738D01*
X33898633Y51611066D01*
X33876947Y51692000D01*
X33876318Y51699188D01*
X33875119Y51703923D01*
X33861049Y51873709D01*
X33857000Y51920000D01*
X33861049Y51966288D01*
X33875119Y52136078D01*
X33876318Y52140815D01*
X33876947Y52148000D01*
X33898629Y52228918D01*
X33928345Y52346263D01*
X33932783Y52356383D01*
X33936184Y52369072D01*
X33972697Y52447376D01*
X34015440Y52544818D01*
X34024856Y52559231D01*
X34032909Y52576500D01*
X34081147Y52645392D01*
X34134028Y52726332D01*
X34149880Y52743553D01*
X34164184Y52763980D01*
X34220846Y52820643D01*
X34280873Y52885849D01*
X34304241Y52904038D01*
X34326020Y52925816D01*
X34387817Y52969088D01*
X34451974Y53019022D01*
X34483488Y53036077D01*
X34513500Y53057091D01*
X34577258Y53086823D01*
X34642656Y53122213D01*
X34682457Y53135877D01*
X34720928Y53153816D01*
X34783730Y53170645D01*
X34847729Y53192615D01*
X34895433Y53200576D01*
X34942000Y53213053D01*
X35001299Y53218241D01*
X35061593Y53228302D01*
X35116300Y53228302D01*
X35170000Y53233000D01*
X35223700Y53228302D01*
G37*
G36*
X40303700Y53228302D02*
G01*
X40358407Y53228302D01*
X40418700Y53218241D01*
X40478000Y53213053D01*
X40524567Y53200575D01*
X40572270Y53192615D01*
X40636265Y53170646D01*
X40699072Y53153816D01*
X40737545Y53135876D01*
X40777343Y53122213D01*
X40842733Y53086826D01*
X40906500Y53057091D01*
X40936515Y53036075D01*
X40968025Y53019022D01*
X41032172Y52969095D01*
X41093980Y52925816D01*
X41115762Y52904034D01*
X41139126Y52885849D01*
X41199141Y52820655D01*
X41255816Y52763980D01*
X41270122Y52743548D01*
X41285971Y52726332D01*
X41338837Y52645413D01*
X41387091Y52576500D01*
X41395146Y52559226D01*
X41404559Y52544818D01*
X41447285Y52447412D01*
X41483816Y52369072D01*
X41487217Y52356377D01*
X41491654Y52346263D01*
X41521352Y52228986D01*
X41543053Y52148000D01*
X41543682Y52140808D01*
X41544880Y52136078D01*
X41558931Y51966505D01*
X41563000Y51920000D01*
X41558931Y51873493D01*
X41544880Y51703923D01*
X41543682Y51699194D01*
X41543053Y51692000D01*
X41521348Y51610998D01*
X41491654Y51493738D01*
X41487218Y51483627D01*
X41483816Y51470928D01*
X41447278Y51392573D01*
X41404559Y51295183D01*
X41395147Y51280779D01*
X41387091Y51263500D01*
X41338827Y51194574D01*
X41285971Y51113669D01*
X41270125Y51096457D01*
X41255816Y51076020D01*
X41199129Y51019334D01*
X41139126Y50954152D01*
X41115766Y50935971D01*
X41093980Y50914184D01*
X41032159Y50870897D01*
X40968025Y50820979D01*
X40936521Y50803931D01*
X40906500Y50782909D01*
X40842720Y50753169D01*
X40777343Y50717788D01*
X40737553Y50704129D01*
X40699072Y50686184D01*
X40636252Y50669352D01*
X40572270Y50647386D01*
X40524575Y50639428D01*
X40478000Y50626947D01*
X40418696Y50621759D01*
X40358407Y50611698D01*
X40303700Y50611698D01*
X40250000Y50607000D01*
X40196300Y50611698D01*
X40141593Y50611698D01*
X40081302Y50621759D01*
X40022000Y50626947D01*
X39975425Y50639427D01*
X39927729Y50647386D01*
X39863743Y50669353D01*
X39800928Y50686184D01*
X39762449Y50704127D01*
X39722656Y50717788D01*
X39657272Y50753172D01*
X39593500Y50782909D01*
X39563481Y50803928D01*
X39531974Y50820979D01*
X39467830Y50870904D01*
X39406020Y50914184D01*
X39384235Y50935969D01*
X39360873Y50954152D01*
X39300857Y51019347D01*
X39244184Y51076020D01*
X39229877Y51096452D01*
X39214028Y51113669D01*
X39161157Y51194595D01*
X39112909Y51263500D01*
X39104854Y51280773D01*
X39095440Y51295183D01*
X39052704Y51392609D01*
X39016184Y51470928D01*
X39012783Y51483621D01*
X39008345Y51493738D01*
X38978633Y51611066D01*
X38956947Y51692000D01*
X38956318Y51699188D01*
X38955119Y51703923D01*
X38941049Y51873709D01*
X38937000Y51920000D01*
X38941049Y51966288D01*
X38955119Y52136078D01*
X38956318Y52140815D01*
X38956947Y52148000D01*
X38978629Y52228918D01*
X39008345Y52346263D01*
X39012783Y52356383D01*
X39016184Y52369072D01*
X39052697Y52447376D01*
X39095440Y52544818D01*
X39104856Y52559231D01*
X39112909Y52576500D01*
X39161147Y52645392D01*
X39214028Y52726332D01*
X39229880Y52743553D01*
X39244184Y52763980D01*
X39300846Y52820643D01*
X39360873Y52885849D01*
X39384241Y52904038D01*
X39406020Y52925816D01*
X39467817Y52969088D01*
X39531974Y53019022D01*
X39563488Y53036077D01*
X39593500Y53057091D01*
X39657258Y53086823D01*
X39722656Y53122213D01*
X39762457Y53135877D01*
X39800928Y53153816D01*
X39863730Y53170645D01*
X39927729Y53192615D01*
X39975433Y53200576D01*
X40022000Y53213053D01*
X40081299Y53218241D01*
X40141593Y53228302D01*
X40196300Y53228302D01*
X40250000Y53233000D01*
X40303700Y53228302D01*
G37*
G36*
X70738118Y51344451D02*
G01*
X70795865Y51305865D01*
X70834451Y51248118D01*
X70848000Y51180000D01*
X70848000Y50900000D01*
X70834451Y50831882D01*
X70795865Y50774135D01*
X70738118Y50735549D01*
X70670000Y50722000D01*
X70330000Y50722000D01*
X70261882Y50735549D01*
X70204135Y50774135D01*
X70165549Y50831882D01*
X70152000Y50900000D01*
X70152000Y51180000D01*
X70165549Y51248118D01*
X70204135Y51305865D01*
X70261882Y51344451D01*
X70330000Y51358000D01*
X70670000Y51358000D01*
X70738118Y51344451D01*
G37*
G36*
X50208118Y51834451D02*
G01*
X50265865Y51795865D01*
X50304451Y51738118D01*
X50318000Y51670000D01*
X50318000Y51330000D01*
X50304451Y51261882D01*
X50265865Y51204135D01*
X50208118Y51165549D01*
X50140000Y51152000D01*
X49860000Y51152000D01*
X49791882Y51165549D01*
X49734135Y51204135D01*
X49695549Y51261882D01*
X49682000Y51330000D01*
X49682000Y51670000D01*
X49695549Y51738118D01*
X49734135Y51795865D01*
X49791882Y51834451D01*
X49860000Y51848000D01*
X50140000Y51848000D01*
X50208118Y51834451D01*
G37*
G36*
X51168118Y51834451D02*
G01*
X51225865Y51795865D01*
X51264451Y51738118D01*
X51278000Y51670000D01*
X51278000Y51330000D01*
X51264451Y51261882D01*
X51225865Y51204135D01*
X51168118Y51165549D01*
X51100000Y51152000D01*
X50820000Y51152000D01*
X50751882Y51165549D01*
X50694135Y51204135D01*
X50655549Y51261882D01*
X50642000Y51330000D01*
X50642000Y51670000D01*
X50655549Y51738118D01*
X50694135Y51795865D01*
X50751882Y51834451D01*
X50820000Y51848000D01*
X51100000Y51848000D01*
X51168118Y51834451D01*
G37*
G36*
X72280062Y52186993D02*
G01*
X72327205Y52181524D01*
X72343313Y52174412D01*
X72366079Y52169883D01*
X72390448Y52153600D01*
X72408892Y52145456D01*
X72421489Y52132859D01*
X72443291Y52118291D01*
X72457858Y52096490D01*
X72470455Y52083893D01*
X72478597Y52065452D01*
X72494883Y52041079D01*
X72499411Y52018312D01*
X72506523Y52002206D01*
X72511991Y51955073D01*
X72513000Y51950000D01*
X72513000Y51550000D01*
X72511990Y51544926D01*
X72506523Y51497795D01*
X72499412Y51481691D01*
X72494883Y51458921D01*
X72478596Y51434547D01*
X72470455Y51416108D01*
X72457860Y51403514D01*
X72443291Y51381709D01*
X72421486Y51367140D01*
X72408892Y51354545D01*
X72390453Y51346404D01*
X72366079Y51330117D01*
X72343309Y51325588D01*
X72327205Y51318477D01*
X72280073Y51313010D01*
X72275000Y51312000D01*
X71725000Y51312000D01*
X71719926Y51313010D01*
X71672794Y51318477D01*
X71656688Y51325589D01*
X71633921Y51330117D01*
X71609548Y51346403D01*
X71591107Y51354545D01*
X71578510Y51367142D01*
X71556709Y51381709D01*
X71542141Y51403511D01*
X71529544Y51416108D01*
X71521400Y51434552D01*
X71505117Y51458921D01*
X71500588Y51481687D01*
X71493476Y51497795D01*
X71488006Y51544939D01*
X71487000Y51550000D01*
X71487000Y51950000D01*
X71488006Y51955062D01*
X71493476Y52002206D01*
X71500589Y52018316D01*
X71505117Y52041079D01*
X71521399Y52065448D01*
X71529544Y52083893D01*
X71542143Y52096493D01*
X71556709Y52118291D01*
X71578507Y52132857D01*
X71591107Y52145456D01*
X71609552Y52153601D01*
X71633921Y52169883D01*
X71656684Y52174411D01*
X71672794Y52181524D01*
X71719939Y52186994D01*
X71725000Y52188000D01*
X72275000Y52188000D01*
X72280062Y52186993D01*
G37*
G36*
X65488118Y52124451D02*
G01*
X65545865Y52085865D01*
X65584451Y52028118D01*
X65598000Y51960000D01*
X65598000Y51680000D01*
X65584451Y51611882D01*
X65545865Y51554135D01*
X65488118Y51515549D01*
X65420000Y51502000D01*
X65080000Y51502000D01*
X65011882Y51515549D01*
X64954135Y51554135D01*
X64915549Y51611882D01*
X64902000Y51680000D01*
X64902000Y51960000D01*
X64915549Y52028118D01*
X64954135Y52085865D01*
X65011882Y52124451D01*
X65080000Y52138000D01*
X65420000Y52138000D01*
X65488118Y52124451D01*
G37*
G36*
X68748118Y52334451D02*
G01*
X68805865Y52295865D01*
X68844451Y52238118D01*
X68858000Y52170000D01*
X68858000Y51830000D01*
X68844451Y51761882D01*
X68805865Y51704135D01*
X68748118Y51665549D01*
X68680000Y51652000D01*
X68400000Y51652000D01*
X68331882Y51665549D01*
X68274135Y51704135D01*
X68235549Y51761882D01*
X68222000Y51830000D01*
X68222000Y52170000D01*
X68235549Y52238118D01*
X68274135Y52295865D01*
X68331882Y52334451D01*
X68400000Y52348000D01*
X68680000Y52348000D01*
X68748118Y52334451D01*
G37*
G36*
X69708118Y52334451D02*
G01*
X69765865Y52295865D01*
X69804451Y52238118D01*
X69818000Y52170000D01*
X69818000Y51830000D01*
X69804451Y51761882D01*
X69765865Y51704135D01*
X69708118Y51665549D01*
X69640000Y51652000D01*
X69360000Y51652000D01*
X69291882Y51665549D01*
X69234135Y51704135D01*
X69195549Y51761882D01*
X69182000Y51830000D01*
X69182000Y52170000D01*
X69195549Y52238118D01*
X69234135Y52295865D01*
X69291882Y52334451D01*
X69360000Y52348000D01*
X69640000Y52348000D01*
X69708118Y52334451D01*
G37*
G36*
X70738118Y52304451D02*
G01*
X70795865Y52265865D01*
X70834451Y52208118D01*
X70848000Y52140000D01*
X70848000Y51860000D01*
X70834451Y51791882D01*
X70795865Y51734135D01*
X70738118Y51695549D01*
X70670000Y51682000D01*
X70330000Y51682000D01*
X70261882Y51695549D01*
X70204135Y51734135D01*
X70165549Y51791882D01*
X70152000Y51860000D01*
X70152000Y52140000D01*
X70165549Y52208118D01*
X70204135Y52265865D01*
X70261882Y52304451D01*
X70330000Y52318000D01*
X70670000Y52318000D01*
X70738118Y52304451D01*
G37*
G36*
X51283013Y53186406D02*
G01*
X51341550Y53178700D01*
X51356276Y53171833D01*
X51375646Y53167980D01*
X51401300Y53150838D01*
X51425298Y53139648D01*
X51439897Y53125049D01*
X51460969Y53110969D01*
X51475048Y53089898D01*
X51489647Y53075299D01*
X51500836Y53051304D01*
X51517980Y53025646D01*
X51521833Y53006275D01*
X51528699Y52991551D01*
X51536403Y52933025D01*
X51538000Y52925000D01*
X51538000Y52475000D01*
X51536403Y52466972D01*
X51528699Y52408450D01*
X51521833Y52393727D01*
X51517980Y52374354D01*
X51500834Y52348695D01*
X51489647Y52324702D01*
X51475050Y52310106D01*
X51460969Y52289031D01*
X51439894Y52274950D01*
X51425298Y52260353D01*
X51401305Y52249166D01*
X51375646Y52232020D01*
X51356273Y52228167D01*
X51341550Y52221301D01*
X51283026Y52213597D01*
X51275000Y52212000D01*
X50725000Y52212000D01*
X50716973Y52213597D01*
X50658449Y52221301D01*
X50643725Y52228167D01*
X50624354Y52232020D01*
X50598696Y52249164D01*
X50574701Y52260353D01*
X50560102Y52274952D01*
X50539031Y52289031D01*
X50524951Y52310103D01*
X50510352Y52324702D01*
X50499162Y52348700D01*
X50482020Y52374354D01*
X50478167Y52393724D01*
X50471300Y52408450D01*
X50463593Y52466989D01*
X50462000Y52475000D01*
X50462000Y52925000D01*
X50463593Y52933012D01*
X50471300Y52991551D01*
X50478167Y53006279D01*
X50482020Y53025646D01*
X50499160Y53051299D01*
X50510352Y53075299D01*
X50524953Y53089901D01*
X50539031Y53110969D01*
X50560099Y53125047D01*
X50574701Y53139648D01*
X50598701Y53150840D01*
X50624354Y53167980D01*
X50643721Y53171833D01*
X50658449Y53178700D01*
X50716989Y53186407D01*
X50725000Y53188000D01*
X51275000Y53188000D01*
X51283013Y53186406D01*
G37*
G36*
X66783013Y53236406D02*
G01*
X66841550Y53228700D01*
X66856276Y53221833D01*
X66875646Y53217980D01*
X66901300Y53200838D01*
X66925298Y53189648D01*
X66939897Y53175049D01*
X66960969Y53160969D01*
X66975048Y53139898D01*
X66989647Y53125299D01*
X67000836Y53101304D01*
X67017980Y53075646D01*
X67021833Y53056275D01*
X67028699Y53041551D01*
X67036403Y52983025D01*
X67038000Y52975000D01*
X67038000Y52525000D01*
X67036403Y52516972D01*
X67028699Y52458450D01*
X67021833Y52443727D01*
X67017980Y52424354D01*
X67000834Y52398695D01*
X66989647Y52374702D01*
X66975050Y52360106D01*
X66960969Y52339031D01*
X66939894Y52324950D01*
X66925298Y52310353D01*
X66901305Y52299166D01*
X66875646Y52282020D01*
X66856273Y52278167D01*
X66841550Y52271301D01*
X66783026Y52263597D01*
X66775000Y52262000D01*
X66225000Y52262000D01*
X66216973Y52263597D01*
X66158449Y52271301D01*
X66143725Y52278167D01*
X66124354Y52282020D01*
X66098696Y52299164D01*
X66074701Y52310353D01*
X66060102Y52324952D01*
X66039031Y52339031D01*
X66024951Y52360103D01*
X66010352Y52374702D01*
X65999162Y52398700D01*
X65982020Y52424354D01*
X65978167Y52443724D01*
X65971300Y52458450D01*
X65963593Y52516989D01*
X65962000Y52525000D01*
X65962000Y52975000D01*
X65963593Y52983012D01*
X65971300Y53041551D01*
X65978167Y53056279D01*
X65982020Y53075646D01*
X65999160Y53101299D01*
X66010352Y53125299D01*
X66024953Y53139901D01*
X66039031Y53160969D01*
X66060099Y53175047D01*
X66074701Y53189648D01*
X66098701Y53200840D01*
X66124354Y53217980D01*
X66143721Y53221833D01*
X66158449Y53228700D01*
X66216989Y53236407D01*
X66225000Y53238000D01*
X66775000Y53238000D01*
X66783013Y53236406D01*
G37*
G36*
X63441204Y53144831D02*
G01*
X63497329Y53107329D01*
X63534831Y53051204D01*
X63548000Y52985000D01*
X63548000Y52615000D01*
X63534831Y52548796D01*
X63497329Y52492671D01*
X63441204Y52455169D01*
X63375000Y52442000D01*
X63105000Y52442000D01*
X63038796Y52455169D01*
X62982671Y52492671D01*
X62945169Y52548796D01*
X62932000Y52615000D01*
X62932000Y52985000D01*
X62945169Y53051204D01*
X62982671Y53107329D01*
X63038796Y53144831D01*
X63105000Y53158000D01*
X63375000Y53158000D01*
X63441204Y53144831D01*
G37*
G36*
X64461204Y53144831D02*
G01*
X64517329Y53107329D01*
X64554831Y53051204D01*
X64568000Y52985000D01*
X64568000Y52615000D01*
X64554831Y52548796D01*
X64517329Y52492671D01*
X64461204Y52455169D01*
X64395000Y52442000D01*
X64125000Y52442000D01*
X64058796Y52455169D01*
X64002671Y52492671D01*
X63965169Y52548796D01*
X63952000Y52615000D01*
X63952000Y52985000D01*
X63965169Y53051204D01*
X64002671Y53107329D01*
X64058796Y53144831D01*
X64125000Y53158000D01*
X64395000Y53158000D01*
X64461204Y53144831D01*
G37*
G36*
X65488118Y53084451D02*
G01*
X65545865Y53045865D01*
X65584451Y52988118D01*
X65598000Y52920000D01*
X65598000Y52640000D01*
X65584451Y52571882D01*
X65545865Y52514135D01*
X65488118Y52475549D01*
X65420000Y52462000D01*
X65080000Y52462000D01*
X65011882Y52475549D01*
X64954135Y52514135D01*
X64915549Y52571882D01*
X64902000Y52640000D01*
X64902000Y52920000D01*
X64915549Y52988118D01*
X64954135Y53045865D01*
X65011882Y53084451D01*
X65080000Y53098000D01*
X65420000Y53098000D01*
X65488118Y53084451D01*
G37*
G36*
X69618243Y53679398D02*
G01*
X69654903Y53654903D01*
X69679398Y53618243D01*
X69688000Y53575000D01*
X69688000Y53568839D01*
X69698706Y53515008D01*
X69801290Y53515006D01*
X69812000Y53568850D01*
X69812000Y53575000D01*
X69820602Y53618243D01*
X69845097Y53654903D01*
X69881757Y53679398D01*
X69925000Y53688000D01*
X70075000Y53688000D01*
X70118243Y53679398D01*
X70154903Y53654903D01*
X70179398Y53618243D01*
X70188000Y53575000D01*
X70188000Y53568839D01*
X70198706Y53515008D01*
X70301290Y53515006D01*
X70312000Y53568850D01*
X70312000Y53575000D01*
X70320602Y53618243D01*
X70345097Y53654903D01*
X70381757Y53679398D01*
X70425000Y53688000D01*
X70575000Y53688000D01*
X70618243Y53679398D01*
X70654903Y53654903D01*
X70679398Y53618243D01*
X70688000Y53575000D01*
X70688000Y53568839D01*
X70698706Y53515008D01*
X70801290Y53515006D01*
X70812000Y53568850D01*
X70812000Y53575000D01*
X70820602Y53618243D01*
X70845097Y53654903D01*
X70881757Y53679398D01*
X70925000Y53688000D01*
X71075000Y53688000D01*
X71118243Y53679398D01*
X71154903Y53654903D01*
X71179398Y53618243D01*
X71188000Y53575000D01*
X71188000Y53568839D01*
X71198706Y53515008D01*
X71301290Y53515006D01*
X71312000Y53568850D01*
X71312000Y53575000D01*
X71320602Y53618243D01*
X71345097Y53654903D01*
X71381757Y53679398D01*
X71425000Y53688000D01*
X71575000Y53688000D01*
X71618243Y53679398D01*
X71654903Y53654903D01*
X71679398Y53618243D01*
X71688000Y53575000D01*
X71688000Y52925000D01*
X71679398Y52881757D01*
X71654903Y52845097D01*
X71618243Y52820602D01*
X71575000Y52812000D01*
X71425000Y52812000D01*
X71381757Y52820602D01*
X71345097Y52845097D01*
X71320602Y52881757D01*
X71312000Y52925000D01*
X71312000Y52931156D01*
X71301292Y52984994D01*
X71198708Y52984994D01*
X71188000Y52931159D01*
X71188000Y52925000D01*
X71179398Y52881757D01*
X71154903Y52845097D01*
X71118243Y52820602D01*
X71075000Y52812000D01*
X70925000Y52812000D01*
X70881757Y52820602D01*
X70845097Y52845097D01*
X70820602Y52881757D01*
X70812000Y52925000D01*
X70812000Y52931156D01*
X70801292Y52984994D01*
X70698708Y52984994D01*
X70688000Y52931159D01*
X70688000Y52925000D01*
X70679398Y52881757D01*
X70654903Y52845097D01*
X70618243Y52820602D01*
X70575000Y52812000D01*
X70425000Y52812000D01*
X70381757Y52820602D01*
X70345097Y52845097D01*
X70320602Y52881757D01*
X70312000Y52925000D01*
X70312000Y52931156D01*
X70301292Y52984994D01*
X70198708Y52984994D01*
X70188000Y52931159D01*
X70188000Y52925000D01*
X70179398Y52881757D01*
X70154903Y52845097D01*
X70118243Y52820602D01*
X70075000Y52812000D01*
X69925000Y52812000D01*
X69881757Y52820602D01*
X69845097Y52845097D01*
X69820602Y52881757D01*
X69812000Y52925000D01*
X69812000Y52931156D01*
X69801292Y52984994D01*
X69698708Y52984994D01*
X69688000Y52931159D01*
X69688000Y52925000D01*
X69679398Y52881757D01*
X69654903Y52845097D01*
X69618243Y52820602D01*
X69575000Y52812000D01*
X69425000Y52812000D01*
X69381757Y52820602D01*
X69345097Y52845097D01*
X69320602Y52881757D01*
X69312000Y52925000D01*
X69312000Y53575000D01*
X69320602Y53618243D01*
X69345097Y53654903D01*
X69381757Y53679398D01*
X69425000Y53688000D01*
X69575000Y53688000D01*
X69618243Y53679398D01*
G37*
G36*
X90766682Y54660762D02*
G01*
X90931500Y54587380D01*
X91077460Y54481334D01*
X91198182Y54347259D01*
X91288390Y54191014D01*
X91344141Y54019428D01*
X91363000Y53840000D01*
X91344141Y53660572D01*
X91288390Y53488986D01*
X91198182Y53332741D01*
X91077460Y53198666D01*
X90931500Y53092620D01*
X90766682Y53019238D01*
X90590208Y52981728D01*
X90409792Y52981728D01*
X90233318Y53019238D01*
X90068500Y53092620D01*
X89922540Y53198666D01*
X89801818Y53332741D01*
X89711610Y53488986D01*
X89655859Y53660572D01*
X89637000Y53840000D01*
X89655859Y54019428D01*
X89711610Y54191014D01*
X89801818Y54347259D01*
X89922540Y54481334D01*
X90068500Y54587380D01*
X90233318Y54660762D01*
X90409792Y54698272D01*
X90590208Y54698272D01*
X90766682Y54660762D01*
G37*
G36*
X46488118Y53604451D02*
G01*
X46545865Y53565865D01*
X46584451Y53508118D01*
X46598000Y53440000D01*
X46598000Y53160000D01*
X46584451Y53091882D01*
X46545865Y53034135D01*
X46488118Y52995549D01*
X46420000Y52982000D01*
X46080000Y52982000D01*
X46011882Y52995549D01*
X45954135Y53034135D01*
X45915549Y53091882D01*
X45902000Y53160000D01*
X45902000Y53440000D01*
X45915549Y53508118D01*
X45954135Y53565865D01*
X46011882Y53604451D01*
X46080000Y53618000D01*
X46420000Y53618000D01*
X46488118Y53604451D01*
G37*
G36*
X43238118Y53624451D02*
G01*
X43295865Y53585865D01*
X43334451Y53528118D01*
X43348000Y53460000D01*
X43348000Y53180000D01*
X43334451Y53111882D01*
X43295865Y53054135D01*
X43238118Y53015549D01*
X43170000Y53002000D01*
X42830000Y53002000D01*
X42761882Y53015549D01*
X42704135Y53054135D01*
X42665549Y53111882D01*
X42652000Y53180000D01*
X42652000Y53460000D01*
X42665549Y53528118D01*
X42704135Y53585865D01*
X42761882Y53624451D01*
X42830000Y53638000D01*
X43170000Y53638000D01*
X43238118Y53624451D01*
G37*
G36*
X56488118Y53644451D02*
G01*
X56545865Y53605865D01*
X56584451Y53548118D01*
X56598000Y53480000D01*
X56598000Y53200000D01*
X56584451Y53131882D01*
X56545865Y53074135D01*
X56488118Y53035549D01*
X56420000Y53022000D01*
X56080000Y53022000D01*
X56011882Y53035549D01*
X55954135Y53074135D01*
X55915549Y53131882D01*
X55902000Y53200000D01*
X55902000Y53480000D01*
X55915549Y53548118D01*
X55954135Y53605865D01*
X56011882Y53644451D01*
X56080000Y53658000D01*
X56420000Y53658000D01*
X56488118Y53644451D01*
G37*
G36*
X59517377Y53675592D02*
G01*
X59570258Y53640258D01*
X59605592Y53587377D01*
X59618000Y53525000D01*
X59618000Y53275000D01*
X59605592Y53212623D01*
X59570258Y53159742D01*
X59517377Y53124408D01*
X59455000Y53112000D01*
X59045000Y53112000D01*
X58982623Y53124408D01*
X58929742Y53159742D01*
X58894408Y53212623D01*
X58882000Y53275000D01*
X58882000Y53525000D01*
X58894408Y53587377D01*
X58929742Y53640258D01*
X58982623Y53675592D01*
X59045000Y53688000D01*
X59455000Y53688000D01*
X59517377Y53675592D01*
G37*
G36*
X38278823Y55622168D02*
G01*
X38379749Y55612997D01*
X38402625Y55605869D01*
X38427921Y55602538D01*
X38472291Y55584160D01*
X38518766Y55569677D01*
X38543821Y55554531D01*
X38572750Y55542548D01*
X38606566Y55516600D01*
X38642557Y55494843D01*
X38667738Y55469662D01*
X38697118Y55447118D01*
X38719661Y55417739D01*
X38744842Y55392558D01*
X38766598Y55356569D01*
X38792548Y55322750D01*
X38804531Y55293820D01*
X38819676Y55268767D01*
X38834155Y55222302D01*
X38852538Y55177921D01*
X38855869Y55152618D01*
X38862995Y55129750D01*
X38872163Y55028851D01*
X38873000Y55022500D01*
X38873000Y53897500D01*
X38872164Y53891152D01*
X38862996Y53790251D01*
X38855869Y53767380D01*
X38852538Y53742079D01*
X38834155Y53697700D01*
X38819676Y53651234D01*
X38804532Y53626185D01*
X38792548Y53597250D01*
X38766595Y53563428D01*
X38744842Y53527443D01*
X38719664Y53502266D01*
X38697118Y53472882D01*
X38667734Y53450336D01*
X38642557Y53425158D01*
X38606572Y53403405D01*
X38572750Y53377452D01*
X38543815Y53365468D01*
X38518766Y53350324D01*
X38472304Y53335847D01*
X38427921Y53317462D01*
X38402615Y53314131D01*
X38379749Y53307005D01*
X38278852Y53297837D01*
X38272500Y53297000D01*
X37147500Y53297000D01*
X37141153Y53297836D01*
X37040250Y53307004D01*
X37017378Y53314132D01*
X36992079Y53317462D01*
X36947702Y53335844D01*
X36901233Y53350324D01*
X36876180Y53365469D01*
X36847250Y53377452D01*
X36813431Y53403402D01*
X36777442Y53425158D01*
X36752261Y53450339D01*
X36722882Y53472882D01*
X36700338Y53502262D01*
X36675157Y53527443D01*
X36653400Y53563434D01*
X36627452Y53597250D01*
X36615469Y53626179D01*
X36600323Y53651234D01*
X36585841Y53697706D01*
X36567462Y53742079D01*
X36564131Y53767380D01*
X36557004Y53790251D01*
X36547833Y53891173D01*
X36547000Y53897500D01*
X36547000Y55022500D01*
X36547832Y55028822D01*
X36557003Y55129750D01*
X36564131Y55152628D01*
X36567462Y55177921D01*
X36585839Y55222289D01*
X36600323Y55268767D01*
X36615470Y55293825D01*
X36627452Y55322750D01*
X36653397Y55356563D01*
X36675157Y55392558D01*
X36700341Y55417743D01*
X36722882Y55447118D01*
X36752257Y55469659D01*
X36777442Y55494843D01*
X36813437Y55516603D01*
X36847250Y55542548D01*
X36876175Y55554530D01*
X36901233Y55569677D01*
X36947708Y55584160D01*
X36992079Y55602538D01*
X37017377Y55605869D01*
X37040250Y55612996D01*
X37141174Y55622168D01*
X37147500Y55623000D01*
X38272500Y55623000D01*
X38278823Y55622168D01*
G37*
G36*
X51283013Y54786406D02*
G01*
X51341550Y54778700D01*
X51356276Y54771833D01*
X51375646Y54767980D01*
X51401300Y54750838D01*
X51425298Y54739648D01*
X51439897Y54725049D01*
X51460969Y54710969D01*
X51475048Y54689898D01*
X51489647Y54675299D01*
X51500836Y54651304D01*
X51517980Y54625646D01*
X51521833Y54606275D01*
X51528699Y54591551D01*
X51536403Y54533025D01*
X51538000Y54525000D01*
X51538000Y54075000D01*
X51536403Y54066972D01*
X51528699Y54008450D01*
X51521833Y53993727D01*
X51517980Y53974354D01*
X51500834Y53948695D01*
X51489647Y53924702D01*
X51475050Y53910106D01*
X51460969Y53889031D01*
X51439894Y53874950D01*
X51425298Y53860353D01*
X51401305Y53849166D01*
X51375646Y53832020D01*
X51356273Y53828167D01*
X51341550Y53821301D01*
X51283026Y53813597D01*
X51275000Y53812000D01*
X50725000Y53812000D01*
X50716973Y53813597D01*
X50658449Y53821301D01*
X50643725Y53828167D01*
X50624354Y53832020D01*
X50598696Y53849164D01*
X50574701Y53860353D01*
X50560102Y53874952D01*
X50539031Y53889031D01*
X50524951Y53910103D01*
X50510352Y53924702D01*
X50499162Y53948700D01*
X50482020Y53974354D01*
X50478167Y53993724D01*
X50471300Y54008450D01*
X50463593Y54066989D01*
X50462000Y54075000D01*
X50462000Y54525000D01*
X50463593Y54533012D01*
X50471300Y54591551D01*
X50478167Y54606279D01*
X50482020Y54625646D01*
X50499160Y54651299D01*
X50510352Y54675299D01*
X50524953Y54689901D01*
X50539031Y54710969D01*
X50560099Y54725047D01*
X50574701Y54739648D01*
X50598701Y54750840D01*
X50624354Y54767980D01*
X50643721Y54771833D01*
X50658449Y54778700D01*
X50716989Y54786407D01*
X50725000Y54788000D01*
X51275000Y54788000D01*
X51283013Y54786406D01*
G37*
G36*
X71690938Y56655350D02*
G01*
X71699782Y56651445D01*
X71706336Y56650490D01*
X71747310Y56630459D01*
X71787759Y56612599D01*
X71791503Y56608855D01*
X71791848Y56608686D01*
X71858685Y56541849D01*
X71858853Y56541505D01*
X71862599Y56537759D01*
X71880463Y56497300D01*
X71900489Y56456337D01*
X71901443Y56449786D01*
X71905350Y56440938D01*
X71913000Y56375000D01*
X71913000Y54125000D01*
X71905350Y54059062D01*
X71901443Y54050215D01*
X71900489Y54043664D01*
X71880468Y54002711D01*
X71862599Y53962241D01*
X71858852Y53958495D01*
X71858685Y53958152D01*
X71791848Y53891315D01*
X71791505Y53891148D01*
X71787759Y53887401D01*
X71747289Y53869532D01*
X71706336Y53849511D01*
X71699785Y53848557D01*
X71690938Y53844650D01*
X71625000Y53837000D01*
X69375000Y53837000D01*
X69309062Y53844650D01*
X69300214Y53848557D01*
X69293663Y53849511D01*
X69252700Y53869537D01*
X69212241Y53887401D01*
X69208495Y53891147D01*
X69208151Y53891315D01*
X69141314Y53958152D01*
X69141145Y53958497D01*
X69137401Y53962241D01*
X69119541Y54002690D01*
X69099510Y54043664D01*
X69098555Y54050218D01*
X69094650Y54059062D01*
X69087000Y54125000D01*
X69087000Y56375000D01*
X69094650Y56440938D01*
X69098554Y56449782D01*
X69099510Y56456337D01*
X69119545Y56497322D01*
X69137401Y56537759D01*
X69141144Y56541503D01*
X69141314Y56541849D01*
X69208151Y56608686D01*
X69208497Y56608856D01*
X69212241Y56612599D01*
X69252678Y56630455D01*
X69293663Y56650490D01*
X69300218Y56651446D01*
X69309062Y56655350D01*
X69375000Y56663000D01*
X71625000Y56663000D01*
X71690938Y56655350D01*
G37*
G36*
X66783013Y54836406D02*
G01*
X66841550Y54828700D01*
X66856276Y54821833D01*
X66875646Y54817980D01*
X66901300Y54800838D01*
X66925298Y54789648D01*
X66939897Y54775049D01*
X66960969Y54760969D01*
X66975048Y54739898D01*
X66989647Y54725299D01*
X67000836Y54701304D01*
X67017980Y54675646D01*
X67021833Y54656275D01*
X67028699Y54641551D01*
X67036403Y54583025D01*
X67038000Y54575000D01*
X67038000Y54125000D01*
X67036403Y54116972D01*
X67028699Y54058450D01*
X67021833Y54043727D01*
X67017980Y54024354D01*
X67000834Y53998695D01*
X66989647Y53974702D01*
X66975050Y53960106D01*
X66960969Y53939031D01*
X66939894Y53924950D01*
X66925298Y53910353D01*
X66901305Y53899166D01*
X66875646Y53882020D01*
X66856273Y53878167D01*
X66841550Y53871301D01*
X66783026Y53863597D01*
X66775000Y53862000D01*
X66225000Y53862000D01*
X66216973Y53863597D01*
X66158449Y53871301D01*
X66143725Y53878167D01*
X66124354Y53882020D01*
X66098696Y53899164D01*
X66074701Y53910353D01*
X66060102Y53924952D01*
X66039031Y53939031D01*
X66024951Y53960103D01*
X66010352Y53974702D01*
X65999162Y53998700D01*
X65982020Y54024354D01*
X65978167Y54043724D01*
X65971300Y54058450D01*
X65963593Y54116989D01*
X65962000Y54125000D01*
X65962000Y54575000D01*
X65963593Y54583012D01*
X65971300Y54641551D01*
X65978167Y54656279D01*
X65982020Y54675646D01*
X65999160Y54701299D01*
X66010352Y54725299D01*
X66024953Y54739901D01*
X66039031Y54760969D01*
X66060099Y54775047D01*
X66074701Y54789648D01*
X66098701Y54800840D01*
X66124354Y54817980D01*
X66143721Y54821833D01*
X66158449Y54828700D01*
X66216989Y54836407D01*
X66225000Y54838000D01*
X66775000Y54838000D01*
X66783013Y54836406D01*
G37*
G36*
X44287377Y54655592D02*
G01*
X44340258Y54620258D01*
X44375592Y54567377D01*
X44388000Y54505000D01*
X44388000Y54095000D01*
X44375592Y54032623D01*
X44340258Y53979742D01*
X44287377Y53944408D01*
X44225000Y53932000D01*
X43975000Y53932000D01*
X43912623Y53944408D01*
X43859742Y53979742D01*
X43824408Y54032623D01*
X43812000Y54095000D01*
X43812000Y54505000D01*
X43824408Y54567377D01*
X43859742Y54620258D01*
X43912623Y54655592D01*
X43975000Y54668000D01*
X44225000Y54668000D01*
X44287377Y54655592D01*
G37*
G36*
X45187377Y54655592D02*
G01*
X45240258Y54620258D01*
X45275592Y54567377D01*
X45288000Y54505000D01*
X45288000Y54095000D01*
X45275592Y54032623D01*
X45240258Y53979742D01*
X45187377Y53944408D01*
X45125000Y53932000D01*
X44875000Y53932000D01*
X44812623Y53944408D01*
X44759742Y53979742D01*
X44724408Y54032623D01*
X44712000Y54095000D01*
X44712000Y54505000D01*
X44724408Y54567377D01*
X44759742Y54620258D01*
X44812623Y54655592D01*
X44875000Y54668000D01*
X45125000Y54668000D01*
X45187377Y54655592D01*
G37*
G36*
X54487377Y54655592D02*
G01*
X54540258Y54620258D01*
X54575592Y54567377D01*
X54588000Y54505000D01*
X54588000Y54095000D01*
X54575592Y54032623D01*
X54540258Y53979742D01*
X54487377Y53944408D01*
X54425000Y53932000D01*
X54175000Y53932000D01*
X54112623Y53944408D01*
X54059742Y53979742D01*
X54024408Y54032623D01*
X54012000Y54095000D01*
X54012000Y54505000D01*
X54024408Y54567377D01*
X54059742Y54620258D01*
X54112623Y54655592D01*
X54175000Y54668000D01*
X54425000Y54668000D01*
X54487377Y54655592D01*
G37*
G36*
X55387377Y54655592D02*
G01*
X55440258Y54620258D01*
X55475592Y54567377D01*
X55488000Y54505000D01*
X55488000Y54095000D01*
X55475592Y54032623D01*
X55440258Y53979742D01*
X55387377Y53944408D01*
X55325000Y53932000D01*
X55075000Y53932000D01*
X55012623Y53944408D01*
X54959742Y53979742D01*
X54924408Y54032623D01*
X54912000Y54095000D01*
X54912000Y54505000D01*
X54924408Y54567377D01*
X54959742Y54620258D01*
X55012623Y54655592D01*
X55075000Y54668000D01*
X55325000Y54668000D01*
X55387377Y54655592D01*
G37*
G36*
X57487377Y54655592D02*
G01*
X57540258Y54620258D01*
X57575592Y54567377D01*
X57588000Y54505000D01*
X57588000Y54095000D01*
X57575592Y54032623D01*
X57540258Y53979742D01*
X57487377Y53944408D01*
X57425000Y53932000D01*
X57175000Y53932000D01*
X57112623Y53944408D01*
X57059742Y53979742D01*
X57024408Y54032623D01*
X57012000Y54095000D01*
X57012000Y54505000D01*
X57024408Y54567377D01*
X57059742Y54620258D01*
X57112623Y54655592D01*
X57175000Y54668000D01*
X57425000Y54668000D01*
X57487377Y54655592D01*
G37*
G36*
X58387377Y54655592D02*
G01*
X58440258Y54620258D01*
X58475592Y54567377D01*
X58488000Y54505000D01*
X58488000Y54095000D01*
X58475592Y54032623D01*
X58440258Y53979742D01*
X58387377Y53944408D01*
X58325000Y53932000D01*
X58075000Y53932000D01*
X58012623Y53944408D01*
X57959742Y53979742D01*
X57924408Y54032623D01*
X57912000Y54095000D01*
X57912000Y54505000D01*
X57924408Y54567377D01*
X57959742Y54620258D01*
X58012623Y54655592D01*
X58075000Y54668000D01*
X58325000Y54668000D01*
X58387377Y54655592D01*
G37*
G36*
X62537377Y54655592D02*
G01*
X62590258Y54620258D01*
X62625592Y54567377D01*
X62638000Y54505000D01*
X62638000Y54095000D01*
X62625592Y54032623D01*
X62590258Y53979742D01*
X62537377Y53944408D01*
X62475000Y53932000D01*
X62225000Y53932000D01*
X62162623Y53944408D01*
X62109742Y53979742D01*
X62074408Y54032623D01*
X62062000Y54095000D01*
X62062000Y54505000D01*
X62074408Y54567377D01*
X62109742Y54620258D01*
X62162623Y54655592D01*
X62225000Y54668000D01*
X62475000Y54668000D01*
X62537377Y54655592D01*
G37*
G36*
X63437377Y54655592D02*
G01*
X63490258Y54620258D01*
X63525592Y54567377D01*
X63538000Y54505000D01*
X63538000Y54095000D01*
X63525592Y54032623D01*
X63490258Y53979742D01*
X63437377Y53944408D01*
X63375000Y53932000D01*
X63125000Y53932000D01*
X63062623Y53944408D01*
X63009742Y53979742D01*
X62974408Y54032623D01*
X62962000Y54095000D01*
X62962000Y54505000D01*
X62974408Y54567377D01*
X63009742Y54620258D01*
X63062623Y54655592D01*
X63125000Y54668000D01*
X63375000Y54668000D01*
X63437377Y54655592D01*
G37*
G36*
X46488118Y54564451D02*
G01*
X46545865Y54525865D01*
X46584451Y54468118D01*
X46598000Y54400000D01*
X46598000Y54120000D01*
X46584451Y54051882D01*
X46545865Y53994135D01*
X46488118Y53955549D01*
X46420000Y53942000D01*
X46080000Y53942000D01*
X46011882Y53955549D01*
X45954135Y53994135D01*
X45915549Y54051882D01*
X45902000Y54120000D01*
X45902000Y54400000D01*
X45915549Y54468118D01*
X45954135Y54525865D01*
X46011882Y54564451D01*
X46080000Y54578000D01*
X46420000Y54578000D01*
X46488118Y54564451D01*
G37*
G36*
X47478118Y54634451D02*
G01*
X47535865Y54595865D01*
X47574451Y54538118D01*
X47588000Y54470000D01*
X47588000Y54130000D01*
X47574451Y54061882D01*
X47535865Y54004135D01*
X47478118Y53965549D01*
X47410000Y53952000D01*
X47130000Y53952000D01*
X47061882Y53965549D01*
X47004135Y54004135D01*
X46965549Y54061882D01*
X46952000Y54130000D01*
X46952000Y54470000D01*
X46965549Y54538118D01*
X47004135Y54595865D01*
X47061882Y54634451D01*
X47130000Y54648000D01*
X47410000Y54648000D01*
X47478118Y54634451D01*
G37*
G36*
X48438118Y54634451D02*
G01*
X48495865Y54595865D01*
X48534451Y54538118D01*
X48548000Y54470000D01*
X48548000Y54130000D01*
X48534451Y54061882D01*
X48495865Y54004135D01*
X48438118Y53965549D01*
X48370000Y53952000D01*
X48090000Y53952000D01*
X48021882Y53965549D01*
X47964135Y54004135D01*
X47925549Y54061882D01*
X47912000Y54130000D01*
X47912000Y54470000D01*
X47925549Y54538118D01*
X47964135Y54595865D01*
X48021882Y54634451D01*
X48090000Y54648000D01*
X48370000Y54648000D01*
X48438118Y54634451D01*
G37*
G36*
X52478118Y54634451D02*
G01*
X52535865Y54595865D01*
X52574451Y54538118D01*
X52588000Y54470000D01*
X52588000Y54130000D01*
X52574451Y54061882D01*
X52535865Y54004135D01*
X52478118Y53965549D01*
X52410000Y53952000D01*
X52130000Y53952000D01*
X52061882Y53965549D01*
X52004135Y54004135D01*
X51965549Y54061882D01*
X51952000Y54130000D01*
X51952000Y54470000D01*
X51965549Y54538118D01*
X52004135Y54595865D01*
X52061882Y54634451D01*
X52130000Y54648000D01*
X52410000Y54648000D01*
X52478118Y54634451D01*
G37*
G36*
X53438118Y54634451D02*
G01*
X53495865Y54595865D01*
X53534451Y54538118D01*
X53548000Y54470000D01*
X53548000Y54130000D01*
X53534451Y54061882D01*
X53495865Y54004135D01*
X53438118Y53965549D01*
X53370000Y53952000D01*
X53090000Y53952000D01*
X53021882Y53965549D01*
X52964135Y54004135D01*
X52925549Y54061882D01*
X52912000Y54130000D01*
X52912000Y54470000D01*
X52925549Y54538118D01*
X52964135Y54595865D01*
X53021882Y54634451D01*
X53090000Y54648000D01*
X53370000Y54648000D01*
X53438118Y54634451D01*
G37*
G36*
X60498118Y54634451D02*
G01*
X60555865Y54595865D01*
X60594451Y54538118D01*
X60608000Y54470000D01*
X60608000Y54130000D01*
X60594451Y54061882D01*
X60555865Y54004135D01*
X60498118Y53965549D01*
X60430000Y53952000D01*
X60150000Y53952000D01*
X60081882Y53965549D01*
X60024135Y54004135D01*
X59985549Y54061882D01*
X59972000Y54130000D01*
X59972000Y54470000D01*
X59985549Y54538118D01*
X60024135Y54595865D01*
X60081882Y54634451D01*
X60150000Y54648000D01*
X60430000Y54648000D01*
X60498118Y54634451D01*
G37*
G36*
X61458118Y54634451D02*
G01*
X61515865Y54595865D01*
X61554451Y54538118D01*
X61568000Y54470000D01*
X61568000Y54130000D01*
X61554451Y54061882D01*
X61515865Y54004135D01*
X61458118Y53965549D01*
X61390000Y53952000D01*
X61110000Y53952000D01*
X61041882Y53965549D01*
X60984135Y54004135D01*
X60945549Y54061882D01*
X60932000Y54130000D01*
X60932000Y54470000D01*
X60945549Y54538118D01*
X60984135Y54595865D01*
X61041882Y54634451D01*
X61110000Y54648000D01*
X61390000Y54648000D01*
X61458118Y54634451D01*
G37*
G36*
X64458118Y54634451D02*
G01*
X64515865Y54595865D01*
X64554451Y54538118D01*
X64568000Y54470000D01*
X64568000Y54130000D01*
X64554451Y54061882D01*
X64515865Y54004135D01*
X64458118Y53965549D01*
X64390000Y53952000D01*
X64110000Y53952000D01*
X64041882Y53965549D01*
X63984135Y54004135D01*
X63945549Y54061882D01*
X63932000Y54130000D01*
X63932000Y54470000D01*
X63945549Y54538118D01*
X63984135Y54595865D01*
X64041882Y54634451D01*
X64110000Y54648000D01*
X64390000Y54648000D01*
X64458118Y54634451D01*
G37*
G36*
X65418118Y54634451D02*
G01*
X65475865Y54595865D01*
X65514451Y54538118D01*
X65528000Y54470000D01*
X65528000Y54130000D01*
X65514451Y54061882D01*
X65475865Y54004135D01*
X65418118Y53965549D01*
X65350000Y53952000D01*
X65070000Y53952000D01*
X65001882Y53965549D01*
X64944135Y54004135D01*
X64905549Y54061882D01*
X64892000Y54130000D01*
X64892000Y54470000D01*
X64905549Y54538118D01*
X64944135Y54595865D01*
X65001882Y54634451D01*
X65070000Y54648000D01*
X65350000Y54648000D01*
X65418118Y54634451D01*
G37*
G36*
X43238118Y54584451D02*
G01*
X43295865Y54545865D01*
X43334451Y54488118D01*
X43348000Y54420000D01*
X43348000Y54140000D01*
X43334451Y54071882D01*
X43295865Y54014135D01*
X43238118Y53975549D01*
X43170000Y53962000D01*
X42830000Y53962000D01*
X42761882Y53975549D01*
X42704135Y54014135D01*
X42665549Y54071882D01*
X42652000Y54140000D01*
X42652000Y54420000D01*
X42665549Y54488118D01*
X42704135Y54545865D01*
X42761882Y54584451D01*
X42830000Y54598000D01*
X43170000Y54598000D01*
X43238118Y54584451D01*
G37*
G36*
X49235527Y54628447D02*
G01*
X49276242Y54601242D01*
X49303447Y54560527D01*
X49313000Y54512500D01*
X49313000Y54087500D01*
X49303447Y54039473D01*
X49276242Y53998758D01*
X49235527Y53971553D01*
X49187500Y53962000D01*
X49012500Y53962000D01*
X48964473Y53971553D01*
X48923758Y53998758D01*
X48896553Y54039473D01*
X48887000Y54087500D01*
X48887000Y54512500D01*
X48896553Y54560527D01*
X48923758Y54601242D01*
X48964473Y54628447D01*
X49012500Y54638000D01*
X49187500Y54638000D01*
X49235527Y54628447D01*
G37*
G36*
X49885527Y54628447D02*
G01*
X49926242Y54601242D01*
X49953447Y54560527D01*
X49963000Y54512500D01*
X49963000Y54087500D01*
X49953447Y54039473D01*
X49926242Y53998758D01*
X49885527Y53971553D01*
X49837500Y53962000D01*
X49662500Y53962000D01*
X49614473Y53971553D01*
X49573758Y53998758D01*
X49546553Y54039473D01*
X49537000Y54087500D01*
X49537000Y54512500D01*
X49546553Y54560527D01*
X49573758Y54601242D01*
X49614473Y54628447D01*
X49662500Y54638000D01*
X49837500Y54638000D01*
X49885527Y54628447D01*
G37*
G36*
X56488118Y54604451D02*
G01*
X56545865Y54565865D01*
X56584451Y54508118D01*
X56598000Y54440000D01*
X56598000Y54160000D01*
X56584451Y54091882D01*
X56545865Y54034135D01*
X56488118Y53995549D01*
X56420000Y53982000D01*
X56080000Y53982000D01*
X56011882Y53995549D01*
X55954135Y54034135D01*
X55915549Y54091882D01*
X55902000Y54160000D01*
X55902000Y54440000D01*
X55915549Y54508118D01*
X55954135Y54565865D01*
X56011882Y54604451D01*
X56080000Y54618000D01*
X56420000Y54618000D01*
X56488118Y54604451D01*
G37*
G36*
X59517377Y54575592D02*
G01*
X59570258Y54540258D01*
X59605592Y54487377D01*
X59618000Y54425000D01*
X59618000Y54175000D01*
X59605592Y54112623D01*
X59570258Y54059742D01*
X59517377Y54024408D01*
X59455000Y54012000D01*
X59045000Y54012000D01*
X58982623Y54024408D01*
X58929742Y54059742D01*
X58894408Y54112623D01*
X58882000Y54175000D01*
X58882000Y54425000D01*
X58894408Y54487377D01*
X58929742Y54540258D01*
X58982623Y54575592D01*
X59045000Y54588000D01*
X59455000Y54588000D01*
X59517377Y54575592D01*
G37*
G36*
X68868243Y56429398D02*
G01*
X68904903Y56404903D01*
X68929398Y56368243D01*
X68938000Y56325000D01*
X68938000Y56175000D01*
X68929398Y56131757D01*
X68904903Y56095097D01*
X68868243Y56070602D01*
X68825000Y56062000D01*
X68818837Y56062000D01*
X68765007Y56051294D01*
X68765005Y55948710D01*
X68818848Y55938000D01*
X68825000Y55938000D01*
X68868243Y55929398D01*
X68904903Y55904903D01*
X68929398Y55868243D01*
X68938000Y55825000D01*
X68938000Y55675000D01*
X68929398Y55631757D01*
X68904903Y55595097D01*
X68868243Y55570602D01*
X68825000Y55562000D01*
X68818837Y55562000D01*
X68765007Y55551294D01*
X68765005Y55448710D01*
X68818848Y55438000D01*
X68825000Y55438000D01*
X68868243Y55429398D01*
X68904903Y55404903D01*
X68929398Y55368243D01*
X68938000Y55325000D01*
X68938000Y55175000D01*
X68929398Y55131757D01*
X68904903Y55095097D01*
X68868243Y55070602D01*
X68825000Y55062000D01*
X68818837Y55062000D01*
X68765007Y55051294D01*
X68765005Y54948710D01*
X68818848Y54938000D01*
X68825000Y54938000D01*
X68868243Y54929398D01*
X68904903Y54904903D01*
X68929398Y54868243D01*
X68938000Y54825000D01*
X68938000Y54675000D01*
X68929398Y54631757D01*
X68904903Y54595097D01*
X68868243Y54570602D01*
X68825000Y54562000D01*
X68818837Y54562000D01*
X68765007Y54551294D01*
X68765005Y54448710D01*
X68818848Y54438000D01*
X68825000Y54438000D01*
X68868243Y54429398D01*
X68904903Y54404903D01*
X68929398Y54368243D01*
X68938000Y54325000D01*
X68938000Y54175000D01*
X68929398Y54131757D01*
X68904903Y54095097D01*
X68868243Y54070602D01*
X68825000Y54062000D01*
X68175000Y54062000D01*
X68131757Y54070602D01*
X68095097Y54095097D01*
X68070602Y54131757D01*
X68062000Y54175000D01*
X68062000Y54325000D01*
X68070602Y54368243D01*
X68095097Y54404903D01*
X68131757Y54429398D01*
X68175000Y54438000D01*
X68181155Y54438000D01*
X68234993Y54448708D01*
X68234993Y54551292D01*
X68181158Y54562000D01*
X68175000Y54562000D01*
X68131757Y54570602D01*
X68095097Y54595097D01*
X68070602Y54631757D01*
X68062000Y54675000D01*
X68062000Y54825000D01*
X68070602Y54868243D01*
X68095097Y54904903D01*
X68131757Y54929398D01*
X68175000Y54938000D01*
X68181155Y54938000D01*
X68234993Y54948708D01*
X68234993Y55051292D01*
X68181158Y55062000D01*
X68175000Y55062000D01*
X68131757Y55070602D01*
X68095097Y55095097D01*
X68070602Y55131757D01*
X68062000Y55175000D01*
X68062000Y55325000D01*
X68070602Y55368243D01*
X68095097Y55404903D01*
X68131757Y55429398D01*
X68175000Y55438000D01*
X68181155Y55438000D01*
X68234993Y55448708D01*
X68234993Y55551292D01*
X68181158Y55562000D01*
X68175000Y55562000D01*
X68131757Y55570602D01*
X68095097Y55595097D01*
X68070602Y55631757D01*
X68062000Y55675000D01*
X68062000Y55825000D01*
X68070602Y55868243D01*
X68095097Y55904903D01*
X68131757Y55929398D01*
X68175000Y55938000D01*
X68181155Y55938000D01*
X68234993Y55948708D01*
X68234993Y56051292D01*
X68181158Y56062000D01*
X68175000Y56062000D01*
X68131757Y56070602D01*
X68095097Y56095097D01*
X68070602Y56131757D01*
X68062000Y56175000D01*
X68062000Y56325000D01*
X68070602Y56368243D01*
X68095097Y56404903D01*
X68131757Y56429398D01*
X68175000Y56438000D01*
X68825000Y56438000D01*
X68868243Y56429398D01*
G37*
G36*
X72868243Y56429398D02*
G01*
X72904903Y56404903D01*
X72929398Y56368243D01*
X72938000Y56325000D01*
X72938000Y56175000D01*
X72929398Y56131757D01*
X72904903Y56095097D01*
X72868243Y56070602D01*
X72825000Y56062000D01*
X72818837Y56062000D01*
X72765007Y56051294D01*
X72765005Y55948710D01*
X72818848Y55938000D01*
X72825000Y55938000D01*
X72868243Y55929398D01*
X72904903Y55904903D01*
X72929398Y55868243D01*
X72938000Y55825000D01*
X72938000Y55675000D01*
X72929398Y55631757D01*
X72904903Y55595097D01*
X72868243Y55570602D01*
X72825000Y55562000D01*
X72818837Y55562000D01*
X72765007Y55551294D01*
X72765005Y55448710D01*
X72818848Y55438000D01*
X72825000Y55438000D01*
X72868243Y55429398D01*
X72904903Y55404903D01*
X72929398Y55368243D01*
X72938000Y55325000D01*
X72938000Y55175000D01*
X72929398Y55131757D01*
X72904903Y55095097D01*
X72868243Y55070602D01*
X72825000Y55062000D01*
X72818837Y55062000D01*
X72765007Y55051294D01*
X72765005Y54948710D01*
X72818848Y54938000D01*
X72825000Y54938000D01*
X72868243Y54929398D01*
X72904903Y54904903D01*
X72929398Y54868243D01*
X72938000Y54825000D01*
X72938000Y54675000D01*
X72929398Y54631757D01*
X72904903Y54595097D01*
X72868243Y54570602D01*
X72825000Y54562000D01*
X72818837Y54562000D01*
X72765007Y54551294D01*
X72765005Y54448710D01*
X72818848Y54438000D01*
X72825000Y54438000D01*
X72868243Y54429398D01*
X72904903Y54404903D01*
X72929398Y54368243D01*
X72938000Y54325000D01*
X72938000Y54175000D01*
X72929398Y54131757D01*
X72904903Y54095097D01*
X72868243Y54070602D01*
X72825000Y54062000D01*
X72175000Y54062000D01*
X72131757Y54070602D01*
X72095097Y54095097D01*
X72070602Y54131757D01*
X72062000Y54175000D01*
X72062000Y54325000D01*
X72070602Y54368243D01*
X72095097Y54404903D01*
X72131757Y54429398D01*
X72175000Y54438000D01*
X72181155Y54438000D01*
X72234993Y54448708D01*
X72234993Y54551292D01*
X72181158Y54562000D01*
X72175000Y54562000D01*
X72131757Y54570602D01*
X72095097Y54595097D01*
X72070602Y54631757D01*
X72062000Y54675000D01*
X72062000Y54825000D01*
X72070602Y54868243D01*
X72095097Y54904903D01*
X72131757Y54929398D01*
X72175000Y54938000D01*
X72181155Y54938000D01*
X72234993Y54948708D01*
X72234993Y55051292D01*
X72181158Y55062000D01*
X72175000Y55062000D01*
X72131757Y55070602D01*
X72095097Y55095097D01*
X72070602Y55131757D01*
X72062000Y55175000D01*
X72062000Y55325000D01*
X72070602Y55368243D01*
X72095097Y55404903D01*
X72131757Y55429398D01*
X72175000Y55438000D01*
X72181155Y55438000D01*
X72234993Y55448708D01*
X72234993Y55551292D01*
X72181158Y55562000D01*
X72175000Y55562000D01*
X72131757Y55570602D01*
X72095097Y55595097D01*
X72070602Y55631757D01*
X72062000Y55675000D01*
X72062000Y55825000D01*
X72070602Y55868243D01*
X72095097Y55904903D01*
X72131757Y55929398D01*
X72175000Y55938000D01*
X72181155Y55938000D01*
X72234993Y55948708D01*
X72234993Y56051292D01*
X72181158Y56062000D01*
X72175000Y56062000D01*
X72131757Y56070602D01*
X72095097Y56095097D01*
X72070602Y56131757D01*
X72062000Y56175000D01*
X72062000Y56325000D01*
X72070602Y56368243D01*
X72095097Y56404903D01*
X72131757Y56429398D01*
X72175000Y56438000D01*
X72825000Y56438000D01*
X72868243Y56429398D01*
G37*
G36*
X64978118Y56084451D02*
G01*
X65035865Y56045865D01*
X65074451Y55988118D01*
X65088000Y55920000D01*
X65088000Y55580000D01*
X65074451Y55511882D01*
X65035865Y55454135D01*
X64978118Y55415549D01*
X64910000Y55402000D01*
X64630000Y55402000D01*
X64561882Y55415549D01*
X64504135Y55454135D01*
X64465549Y55511882D01*
X64452000Y55580000D01*
X64452000Y55920000D01*
X64465549Y55988118D01*
X64504135Y56045865D01*
X64561882Y56084451D01*
X64630000Y56098000D01*
X64910000Y56098000D01*
X64978118Y56084451D01*
G37*
G36*
X65938118Y56084451D02*
G01*
X65995865Y56045865D01*
X66034451Y55988118D01*
X66048000Y55920000D01*
X66048000Y55580000D01*
X66034451Y55511882D01*
X65995865Y55454135D01*
X65938118Y55415549D01*
X65870000Y55402000D01*
X65590000Y55402000D01*
X65521882Y55415549D01*
X65464135Y55454135D01*
X65425549Y55511882D01*
X65412000Y55580000D01*
X65412000Y55920000D01*
X65425549Y55988118D01*
X65464135Y56045865D01*
X65521882Y56084451D01*
X65590000Y56098000D01*
X65870000Y56098000D01*
X65938118Y56084451D01*
G37*
G36*
X90766682Y57200762D02*
G01*
X90931500Y57127380D01*
X91077460Y57021334D01*
X91198182Y56887259D01*
X91288390Y56731014D01*
X91344141Y56559428D01*
X91363000Y56380000D01*
X91344141Y56200572D01*
X91288390Y56028986D01*
X91198182Y55872741D01*
X91077460Y55738666D01*
X90931500Y55632620D01*
X90766682Y55559238D01*
X90590208Y55521728D01*
X90409792Y55521728D01*
X90233318Y55559238D01*
X90068500Y55632620D01*
X89922540Y55738666D01*
X89801818Y55872741D01*
X89711610Y56028986D01*
X89655859Y56200572D01*
X89637000Y56380000D01*
X89655859Y56559428D01*
X89711610Y56731014D01*
X89801818Y56887259D01*
X89922540Y57021334D01*
X90068500Y57127380D01*
X90233318Y57200762D01*
X90409792Y57238272D01*
X90590208Y57238272D01*
X90766682Y57200762D01*
G37*
G36*
X67267377Y56125592D02*
G01*
X67320258Y56090258D01*
X67355592Y56037377D01*
X67368000Y55975000D01*
X67368000Y55725000D01*
X67355592Y55662623D01*
X67320258Y55609742D01*
X67267377Y55574408D01*
X67205000Y55562000D01*
X66795000Y55562000D01*
X66732623Y55574408D01*
X66679742Y55609742D01*
X66644408Y55662623D01*
X66632000Y55725000D01*
X66632000Y55975000D01*
X66644408Y56037377D01*
X66679742Y56090258D01*
X66732623Y56125592D01*
X66795000Y56138000D01*
X67205000Y56138000D01*
X67267377Y56125592D01*
G37*
G36*
X35223700Y58308302D02*
G01*
X35278407Y58308302D01*
X35338700Y58298241D01*
X35398000Y58293053D01*
X35444567Y58280575D01*
X35492270Y58272615D01*
X35556265Y58250646D01*
X35619072Y58233816D01*
X35657545Y58215876D01*
X35697343Y58202213D01*
X35762733Y58166826D01*
X35826500Y58137091D01*
X35856515Y58116075D01*
X35888025Y58099022D01*
X35952172Y58049095D01*
X36013980Y58005816D01*
X36035762Y57984034D01*
X36059126Y57965849D01*
X36119141Y57900655D01*
X36175816Y57843980D01*
X36190122Y57823548D01*
X36205971Y57806332D01*
X36258837Y57725413D01*
X36307091Y57656500D01*
X36315146Y57639226D01*
X36324559Y57624818D01*
X36367285Y57527412D01*
X36403816Y57449072D01*
X36407217Y57436377D01*
X36411654Y57426263D01*
X36441352Y57308986D01*
X36463053Y57228000D01*
X36463682Y57220808D01*
X36464880Y57216078D01*
X36478931Y57046505D01*
X36483000Y57000000D01*
X36478931Y56953493D01*
X36464880Y56783923D01*
X36463682Y56779194D01*
X36463053Y56772000D01*
X36441348Y56690998D01*
X36411654Y56573738D01*
X36407218Y56563627D01*
X36403816Y56550928D01*
X36367278Y56472573D01*
X36324559Y56375183D01*
X36315147Y56360779D01*
X36307091Y56343500D01*
X36258827Y56274574D01*
X36205971Y56193669D01*
X36190125Y56176457D01*
X36175816Y56156020D01*
X36119129Y56099334D01*
X36059126Y56034152D01*
X36035766Y56015971D01*
X36013980Y55994184D01*
X35952159Y55950897D01*
X35888025Y55900979D01*
X35856521Y55883931D01*
X35826500Y55862909D01*
X35762720Y55833169D01*
X35697343Y55797788D01*
X35657553Y55784129D01*
X35619072Y55766184D01*
X35556252Y55749352D01*
X35492270Y55727386D01*
X35444575Y55719428D01*
X35398000Y55706947D01*
X35338696Y55701759D01*
X35278407Y55691698D01*
X35223700Y55691698D01*
X35170000Y55687000D01*
X35116300Y55691698D01*
X35061593Y55691698D01*
X35001302Y55701759D01*
X34942000Y55706947D01*
X34895425Y55719427D01*
X34847729Y55727386D01*
X34783743Y55749353D01*
X34720928Y55766184D01*
X34682449Y55784127D01*
X34642656Y55797788D01*
X34577272Y55833172D01*
X34513500Y55862909D01*
X34483481Y55883928D01*
X34451974Y55900979D01*
X34387830Y55950904D01*
X34326020Y55994184D01*
X34304236Y56015968D01*
X34280873Y56034152D01*
X34220857Y56099347D01*
X34164184Y56156020D01*
X34149877Y56176452D01*
X34134028Y56193669D01*
X34081157Y56274595D01*
X34032909Y56343500D01*
X34024854Y56360773D01*
X34015440Y56375183D01*
X33972704Y56472609D01*
X33936184Y56550928D01*
X33932783Y56563621D01*
X33928345Y56573738D01*
X33898633Y56691066D01*
X33876947Y56772000D01*
X33876318Y56779188D01*
X33875119Y56783923D01*
X33861049Y56953709D01*
X33857000Y57000000D01*
X33861049Y57046288D01*
X33875119Y57216078D01*
X33876318Y57220815D01*
X33876947Y57228000D01*
X33898629Y57308918D01*
X33928345Y57426263D01*
X33932783Y57436383D01*
X33936184Y57449072D01*
X33972697Y57527376D01*
X34015440Y57624818D01*
X34024856Y57639231D01*
X34032909Y57656500D01*
X34081147Y57725392D01*
X34134028Y57806332D01*
X34149880Y57823553D01*
X34164184Y57843980D01*
X34220846Y57900643D01*
X34280873Y57965849D01*
X34304241Y57984038D01*
X34326020Y58005816D01*
X34387817Y58049088D01*
X34451974Y58099022D01*
X34483488Y58116077D01*
X34513500Y58137091D01*
X34577258Y58166823D01*
X34642656Y58202213D01*
X34682457Y58215877D01*
X34720928Y58233816D01*
X34783730Y58250645D01*
X34847729Y58272615D01*
X34895433Y58280576D01*
X34942000Y58293053D01*
X35001299Y58298241D01*
X35061593Y58308302D01*
X35116300Y58308302D01*
X35170000Y58313000D01*
X35223700Y58308302D01*
G37*
G36*
X40303700Y58308302D02*
G01*
X40358407Y58308302D01*
X40418700Y58298241D01*
X40478000Y58293053D01*
X40524567Y58280575D01*
X40572270Y58272615D01*
X40636265Y58250646D01*
X40699072Y58233816D01*
X40737545Y58215876D01*
X40777343Y58202213D01*
X40842733Y58166826D01*
X40906500Y58137091D01*
X40936515Y58116075D01*
X40968025Y58099022D01*
X41032172Y58049095D01*
X41093980Y58005816D01*
X41115762Y57984034D01*
X41139126Y57965849D01*
X41199141Y57900655D01*
X41255816Y57843980D01*
X41270122Y57823548D01*
X41285971Y57806332D01*
X41338837Y57725413D01*
X41387091Y57656500D01*
X41395146Y57639226D01*
X41404559Y57624818D01*
X41447285Y57527412D01*
X41483816Y57449072D01*
X41487217Y57436377D01*
X41491654Y57426263D01*
X41521352Y57308986D01*
X41543053Y57228000D01*
X41543682Y57220808D01*
X41544880Y57216078D01*
X41558931Y57046505D01*
X41563000Y57000000D01*
X41558931Y56953493D01*
X41544880Y56783923D01*
X41543682Y56779194D01*
X41543053Y56772000D01*
X41521348Y56690998D01*
X41491654Y56573738D01*
X41487218Y56563627D01*
X41483816Y56550928D01*
X41447278Y56472573D01*
X41404559Y56375183D01*
X41395147Y56360779D01*
X41387091Y56343500D01*
X41338827Y56274574D01*
X41285971Y56193669D01*
X41270125Y56176457D01*
X41255816Y56156020D01*
X41199129Y56099334D01*
X41139126Y56034152D01*
X41115766Y56015971D01*
X41093980Y55994184D01*
X41032159Y55950897D01*
X40968025Y55900979D01*
X40936521Y55883931D01*
X40906500Y55862909D01*
X40842720Y55833169D01*
X40777343Y55797788D01*
X40737553Y55784129D01*
X40699072Y55766184D01*
X40636252Y55749352D01*
X40572270Y55727386D01*
X40524575Y55719428D01*
X40478000Y55706947D01*
X40418696Y55701759D01*
X40358407Y55691698D01*
X40303700Y55691698D01*
X40250000Y55687000D01*
X40196300Y55691698D01*
X40141593Y55691698D01*
X40081302Y55701759D01*
X40022000Y55706947D01*
X39975425Y55719427D01*
X39927729Y55727386D01*
X39863743Y55749353D01*
X39800928Y55766184D01*
X39762449Y55784127D01*
X39722656Y55797788D01*
X39657272Y55833172D01*
X39593500Y55862909D01*
X39563481Y55883928D01*
X39531974Y55900979D01*
X39467830Y55950904D01*
X39406020Y55994184D01*
X39384236Y56015968D01*
X39360873Y56034152D01*
X39300857Y56099347D01*
X39244184Y56156020D01*
X39229877Y56176452D01*
X39214028Y56193669D01*
X39161157Y56274595D01*
X39112909Y56343500D01*
X39104854Y56360773D01*
X39095440Y56375183D01*
X39052704Y56472609D01*
X39016184Y56550928D01*
X39012783Y56563621D01*
X39008345Y56573738D01*
X38978633Y56691066D01*
X38956947Y56772000D01*
X38956318Y56779188D01*
X38955119Y56783923D01*
X38941049Y56953709D01*
X38937000Y57000000D01*
X38941049Y57046288D01*
X38955119Y57216078D01*
X38956318Y57220815D01*
X38956947Y57228000D01*
X38978629Y57308918D01*
X39008345Y57426263D01*
X39012783Y57436383D01*
X39016184Y57449072D01*
X39052697Y57527376D01*
X39095440Y57624818D01*
X39104856Y57639231D01*
X39112909Y57656500D01*
X39161147Y57725392D01*
X39214028Y57806332D01*
X39229880Y57823553D01*
X39244184Y57843980D01*
X39300846Y57900643D01*
X39360873Y57965849D01*
X39384241Y57984038D01*
X39406020Y58005816D01*
X39467817Y58049088D01*
X39531974Y58099022D01*
X39563488Y58116077D01*
X39593500Y58137091D01*
X39657258Y58166823D01*
X39722656Y58202213D01*
X39762457Y58215877D01*
X39800928Y58233816D01*
X39863730Y58250645D01*
X39927729Y58272615D01*
X39975433Y58280576D01*
X40022000Y58293053D01*
X40081299Y58298241D01*
X40141593Y58308302D01*
X40196300Y58308302D01*
X40250000Y58313000D01*
X40303700Y58308302D01*
G37*
G36*
X52987377Y57105592D02*
G01*
X53040258Y57070258D01*
X53075592Y57017377D01*
X53088000Y56955000D01*
X53088000Y56545000D01*
X53075592Y56482623D01*
X53040258Y56429742D01*
X52987377Y56394408D01*
X52925000Y56382000D01*
X52675000Y56382000D01*
X52612623Y56394408D01*
X52559742Y56429742D01*
X52524408Y56482623D01*
X52512000Y56545000D01*
X52512000Y56955000D01*
X52524408Y57017377D01*
X52559742Y57070258D01*
X52612623Y57105592D01*
X52675000Y57118000D01*
X52925000Y57118000D01*
X52987377Y57105592D01*
G37*
G36*
X53887377Y57105592D02*
G01*
X53940258Y57070258D01*
X53975592Y57017377D01*
X53988000Y56955000D01*
X53988000Y56545000D01*
X53975592Y56482623D01*
X53940258Y56429742D01*
X53887377Y56394408D01*
X53825000Y56382000D01*
X53575000Y56382000D01*
X53512623Y56394408D01*
X53459742Y56429742D01*
X53424408Y56482623D01*
X53412000Y56545000D01*
X53412000Y56955000D01*
X53424408Y57017377D01*
X53459742Y57070258D01*
X53512623Y57105592D01*
X53575000Y57118000D01*
X53825000Y57118000D01*
X53887377Y57105592D01*
G37*
G36*
X63978118Y57084451D02*
G01*
X64035865Y57045865D01*
X64074451Y56988118D01*
X64088000Y56920000D01*
X64088000Y56580000D01*
X64074451Y56511882D01*
X64035865Y56454135D01*
X63978118Y56415549D01*
X63910000Y56402000D01*
X63630000Y56402000D01*
X63561882Y56415549D01*
X63504135Y56454135D01*
X63465549Y56511882D01*
X63452000Y56580000D01*
X63452000Y56920000D01*
X63465549Y56988118D01*
X63504135Y57045865D01*
X63561882Y57084451D01*
X63630000Y57098000D01*
X63910000Y57098000D01*
X63978118Y57084451D01*
G37*
G36*
X64938118Y57084451D02*
G01*
X64995865Y57045865D01*
X65034451Y56988118D01*
X65048000Y56920000D01*
X65048000Y56580000D01*
X65034451Y56511882D01*
X64995865Y56454135D01*
X64938118Y56415549D01*
X64870000Y56402000D01*
X64590000Y56402000D01*
X64521882Y56415549D01*
X64464135Y56454135D01*
X64425549Y56511882D01*
X64412000Y56580000D01*
X64412000Y56920000D01*
X64425549Y56988118D01*
X64464135Y57045865D01*
X64521882Y57084451D01*
X64590000Y57098000D01*
X64870000Y57098000D01*
X64938118Y57084451D01*
G37*
G36*
X51988118Y57054451D02*
G01*
X52045865Y57015865D01*
X52084451Y56958118D01*
X52098000Y56890000D01*
X52098000Y56610000D01*
X52084451Y56541882D01*
X52045865Y56484135D01*
X51988118Y56445549D01*
X51920000Y56432000D01*
X51580000Y56432000D01*
X51511882Y56445549D01*
X51454135Y56484135D01*
X51415549Y56541882D01*
X51402000Y56610000D01*
X51402000Y56890000D01*
X51415549Y56958118D01*
X51454135Y57015865D01*
X51511882Y57054451D01*
X51580000Y57068000D01*
X51920000Y57068000D01*
X51988118Y57054451D01*
G37*
G36*
X54988118Y57074451D02*
G01*
X55045865Y57035865D01*
X55084451Y56978118D01*
X55098000Y56910000D01*
X55098000Y56630000D01*
X55084451Y56561882D01*
X55045865Y56504135D01*
X54988118Y56465549D01*
X54920000Y56452000D01*
X54580000Y56452000D01*
X54511882Y56465549D01*
X54454135Y56504135D01*
X54415549Y56561882D01*
X54402000Y56630000D01*
X54402000Y56910000D01*
X54415549Y56978118D01*
X54454135Y57035865D01*
X54511882Y57074451D01*
X54580000Y57088000D01*
X54920000Y57088000D01*
X54988118Y57074451D01*
G37*
G36*
X67267377Y57025592D02*
G01*
X67320258Y56990258D01*
X67355592Y56937377D01*
X67368000Y56875000D01*
X67368000Y56625000D01*
X67355592Y56562623D01*
X67320258Y56509742D01*
X67267377Y56474408D01*
X67205000Y56462000D01*
X66795000Y56462000D01*
X66732623Y56474408D01*
X66679742Y56509742D01*
X66644408Y56562623D01*
X66632000Y56625000D01*
X66632000Y56875000D01*
X66644408Y56937377D01*
X66679742Y56990258D01*
X66732623Y57025592D01*
X66795000Y57038000D01*
X67205000Y57038000D01*
X67267377Y57025592D01*
G37*
G36*
X56010527Y56953447D02*
G01*
X56051242Y56926242D01*
X56078447Y56885527D01*
X56088000Y56837500D01*
X56088000Y56662500D01*
X56078447Y56614473D01*
X56051242Y56573758D01*
X56010527Y56546553D01*
X55962500Y56537000D01*
X55537500Y56537000D01*
X55489473Y56546553D01*
X55448758Y56573758D01*
X55421553Y56614473D01*
X55412000Y56662500D01*
X55412000Y56837500D01*
X55421553Y56885527D01*
X55448758Y56926242D01*
X55489473Y56953447D01*
X55537500Y56963000D01*
X55962500Y56963000D01*
X56010527Y56953447D01*
G37*
G36*
X69618243Y57679398D02*
G01*
X69654903Y57654903D01*
X69679398Y57618243D01*
X69688000Y57575000D01*
X69688000Y57568839D01*
X69698706Y57515008D01*
X69801290Y57515006D01*
X69812000Y57568850D01*
X69812000Y57575000D01*
X69820602Y57618243D01*
X69845097Y57654903D01*
X69881757Y57679398D01*
X69925000Y57688000D01*
X70075000Y57688000D01*
X70118243Y57679398D01*
X70154903Y57654903D01*
X70179398Y57618243D01*
X70188000Y57575000D01*
X70188000Y57568839D01*
X70198706Y57515008D01*
X70301290Y57515006D01*
X70312000Y57568850D01*
X70312000Y57575000D01*
X70320602Y57618243D01*
X70345097Y57654903D01*
X70381757Y57679398D01*
X70425000Y57688000D01*
X70575000Y57688000D01*
X70618243Y57679398D01*
X70654903Y57654903D01*
X70679398Y57618243D01*
X70688000Y57575000D01*
X70688000Y57568839D01*
X70698706Y57515008D01*
X70801290Y57515006D01*
X70812000Y57568850D01*
X70812000Y57575000D01*
X70820602Y57618243D01*
X70845097Y57654903D01*
X70881757Y57679398D01*
X70925000Y57688000D01*
X71075000Y57688000D01*
X71118243Y57679398D01*
X71154903Y57654903D01*
X71179398Y57618243D01*
X71188000Y57575000D01*
X71188000Y57568839D01*
X71198706Y57515008D01*
X71301290Y57515006D01*
X71312000Y57568850D01*
X71312000Y57575000D01*
X71320602Y57618243D01*
X71345097Y57654903D01*
X71381757Y57679398D01*
X71425000Y57688000D01*
X71575000Y57688000D01*
X71618243Y57679398D01*
X71654903Y57654903D01*
X71679398Y57618243D01*
X71688000Y57575000D01*
X71688000Y56925000D01*
X71679398Y56881757D01*
X71654903Y56845097D01*
X71618243Y56820602D01*
X71575000Y56812000D01*
X71425000Y56812000D01*
X71381757Y56820602D01*
X71345097Y56845097D01*
X71320602Y56881757D01*
X71312000Y56925000D01*
X71312000Y56931156D01*
X71301292Y56984994D01*
X71198708Y56984994D01*
X71188000Y56931159D01*
X71188000Y56925000D01*
X71179398Y56881757D01*
X71154903Y56845097D01*
X71118243Y56820602D01*
X71075000Y56812000D01*
X70925000Y56812000D01*
X70881757Y56820602D01*
X70845097Y56845097D01*
X70820602Y56881757D01*
X70812000Y56925000D01*
X70812000Y56931156D01*
X70801292Y56984994D01*
X70698708Y56984994D01*
X70688000Y56931159D01*
X70688000Y56925000D01*
X70679398Y56881757D01*
X70654903Y56845097D01*
X70618243Y56820602D01*
X70575000Y56812000D01*
X70425000Y56812000D01*
X70381757Y56820602D01*
X70345097Y56845097D01*
X70320602Y56881757D01*
X70312000Y56925000D01*
X70312000Y56931156D01*
X70301292Y56984994D01*
X70198708Y56984994D01*
X70188000Y56931159D01*
X70188000Y56925000D01*
X70179398Y56881757D01*
X70154903Y56845097D01*
X70118243Y56820602D01*
X70075000Y56812000D01*
X69925000Y56812000D01*
X69881757Y56820602D01*
X69845097Y56845097D01*
X69820602Y56881757D01*
X69812000Y56925000D01*
X69812000Y56931156D01*
X69801292Y56984994D01*
X69698708Y56984994D01*
X69688000Y56931159D01*
X69688000Y56925000D01*
X69679398Y56881757D01*
X69654903Y56845097D01*
X69618243Y56820602D01*
X69575000Y56812000D01*
X69425000Y56812000D01*
X69381757Y56820602D01*
X69345097Y56845097D01*
X69320602Y56881757D01*
X69312000Y56925000D01*
X69312000Y57575000D01*
X69320602Y57618243D01*
X69345097Y57654903D01*
X69381757Y57679398D01*
X69425000Y57688000D01*
X69575000Y57688000D01*
X69618243Y57679398D01*
G37*
G36*
X56010527Y57603447D02*
G01*
X56051242Y57576242D01*
X56078447Y57535527D01*
X56088000Y57487500D01*
X56088000Y57312500D01*
X56078447Y57264473D01*
X56051242Y57223758D01*
X56010527Y57196553D01*
X55962500Y57187000D01*
X55537500Y57187000D01*
X55489473Y57196553D01*
X55448758Y57223758D01*
X55421553Y57264473D01*
X55412000Y57312500D01*
X55412000Y57487500D01*
X55421553Y57535527D01*
X55448758Y57576242D01*
X55489473Y57603447D01*
X55537500Y57613000D01*
X55962500Y57613000D01*
X56010527Y57603447D01*
G37*
G36*
X64987377Y58105592D02*
G01*
X65040258Y58070258D01*
X65075592Y58017377D01*
X65088000Y57955000D01*
X65088000Y57545000D01*
X65075592Y57482623D01*
X65040258Y57429742D01*
X64987377Y57394408D01*
X64925000Y57382000D01*
X64675000Y57382000D01*
X64612623Y57394408D01*
X64559742Y57429742D01*
X64524408Y57482623D01*
X64512000Y57545000D01*
X64512000Y57955000D01*
X64524408Y58017377D01*
X64559742Y58070258D01*
X64612623Y58105592D01*
X64675000Y58118000D01*
X64925000Y58118000D01*
X64987377Y58105592D01*
G37*
G36*
X65887377Y58105592D02*
G01*
X65940258Y58070258D01*
X65975592Y58017377D01*
X65988000Y57955000D01*
X65988000Y57545000D01*
X65975592Y57482623D01*
X65940258Y57429742D01*
X65887377Y57394408D01*
X65825000Y57382000D01*
X65575000Y57382000D01*
X65512623Y57394408D01*
X65459742Y57429742D01*
X65424408Y57482623D01*
X65412000Y57545000D01*
X65412000Y57955000D01*
X65424408Y58017377D01*
X65459742Y58070258D01*
X65512623Y58105592D01*
X65575000Y58118000D01*
X65825000Y58118000D01*
X65887377Y58105592D01*
G37*
G36*
X51988118Y58014451D02*
G01*
X52045865Y57975865D01*
X52084451Y57918118D01*
X52098000Y57850000D01*
X52098000Y57570000D01*
X52084451Y57501882D01*
X52045865Y57444135D01*
X51988118Y57405549D01*
X51920000Y57392000D01*
X51580000Y57392000D01*
X51511882Y57405549D01*
X51454135Y57444135D01*
X51415549Y57501882D01*
X51402000Y57570000D01*
X51402000Y57850000D01*
X51415549Y57918118D01*
X51454135Y57975865D01*
X51511882Y58014451D01*
X51580000Y58028000D01*
X51920000Y58028000D01*
X51988118Y58014451D01*
G37*
G36*
X54988118Y58034451D02*
G01*
X55045865Y57995865D01*
X55084451Y57938118D01*
X55098000Y57870000D01*
X55098000Y57590000D01*
X55084451Y57521882D01*
X55045865Y57464135D01*
X54988118Y57425549D01*
X54920000Y57412000D01*
X54580000Y57412000D01*
X54511882Y57425549D01*
X54454135Y57464135D01*
X54415549Y57521882D01*
X54402000Y57590000D01*
X54402000Y57870000D01*
X54415549Y57938118D01*
X54454135Y57995865D01*
X54511882Y58034451D01*
X54580000Y58048000D01*
X54920000Y58048000D01*
X54988118Y58034451D01*
G37*
G36*
X67238118Y58094451D02*
G01*
X67295865Y58055865D01*
X67334451Y57998118D01*
X67348000Y57930000D01*
X67348000Y57650000D01*
X67334451Y57581882D01*
X67295865Y57524135D01*
X67238118Y57485549D01*
X67170000Y57472000D01*
X66830000Y57472000D01*
X66761882Y57485549D01*
X66704135Y57524135D01*
X66665549Y57581882D01*
X66652000Y57650000D01*
X66652000Y57930000D01*
X66665549Y57998118D01*
X66704135Y58055865D01*
X66761882Y58094451D01*
X66830000Y58108000D01*
X67170000Y58108000D01*
X67238118Y58094451D01*
G37*
G36*
X53530062Y58436993D02*
G01*
X53577205Y58431524D01*
X53593313Y58424412D01*
X53616079Y58419883D01*
X53640448Y58403600D01*
X53658892Y58395456D01*
X53671489Y58382859D01*
X53693291Y58368291D01*
X53707858Y58346490D01*
X53720455Y58333893D01*
X53728597Y58315452D01*
X53744883Y58291079D01*
X53749411Y58268312D01*
X53756523Y58252206D01*
X53761991Y58205073D01*
X53763000Y58200000D01*
X53763000Y57800000D01*
X53761990Y57794926D01*
X53756523Y57747795D01*
X53749412Y57731691D01*
X53744883Y57708921D01*
X53728596Y57684547D01*
X53720455Y57666108D01*
X53707860Y57653514D01*
X53693291Y57631709D01*
X53671486Y57617140D01*
X53658892Y57604545D01*
X53640453Y57596404D01*
X53616079Y57580117D01*
X53593309Y57575588D01*
X53577205Y57568477D01*
X53530073Y57563010D01*
X53525000Y57562000D01*
X52975000Y57562000D01*
X52969926Y57563010D01*
X52922794Y57568477D01*
X52906688Y57575589D01*
X52883921Y57580117D01*
X52859548Y57596403D01*
X52841107Y57604545D01*
X52828510Y57617142D01*
X52806709Y57631709D01*
X52792141Y57653511D01*
X52779544Y57666108D01*
X52771400Y57684552D01*
X52755117Y57708921D01*
X52750588Y57731687D01*
X52743476Y57747795D01*
X52738006Y57794939D01*
X52737000Y57800000D01*
X52737000Y58200000D01*
X52738006Y58205062D01*
X52743476Y58252206D01*
X52750589Y58268316D01*
X52755117Y58291079D01*
X52771399Y58315448D01*
X52779544Y58333893D01*
X52792143Y58346493D01*
X52806709Y58368291D01*
X52828507Y58382857D01*
X52841107Y58395456D01*
X52859552Y58403601D01*
X52883921Y58419883D01*
X52906684Y58424411D01*
X52922794Y58431524D01*
X52969939Y58436994D01*
X52975000Y58438000D01*
X53525000Y58438000D01*
X53530062Y58436993D01*
G37*
G36*
X90766682Y59740762D02*
G01*
X90931500Y59667380D01*
X91077460Y59561334D01*
X91198182Y59427259D01*
X91288390Y59271014D01*
X91344141Y59099428D01*
X91363000Y58920000D01*
X91344141Y58740572D01*
X91288390Y58568986D01*
X91198182Y58412741D01*
X91077460Y58278666D01*
X90931500Y58172620D01*
X90766682Y58099238D01*
X90590208Y58061728D01*
X90409792Y58061728D01*
X90233318Y58099238D01*
X90068500Y58172620D01*
X89922540Y58278666D01*
X89801818Y58412741D01*
X89711610Y58568986D01*
X89655859Y58740572D01*
X89637000Y58920000D01*
X89655859Y59099428D01*
X89711610Y59271014D01*
X89801818Y59427259D01*
X89922540Y59561334D01*
X90068500Y59667380D01*
X90233318Y59740762D01*
X90409792Y59778272D01*
X90590208Y59778272D01*
X90766682Y59740762D01*
G37*
G36*
X71208118Y58834451D02*
G01*
X71265865Y58795865D01*
X71304451Y58738118D01*
X71318000Y58670000D01*
X71318000Y58330000D01*
X71304451Y58261882D01*
X71265865Y58204135D01*
X71208118Y58165549D01*
X71140000Y58152000D01*
X70860000Y58152000D01*
X70791882Y58165549D01*
X70734135Y58204135D01*
X70695549Y58261882D01*
X70682000Y58330000D01*
X70682000Y58670000D01*
X70695549Y58738118D01*
X70734135Y58795865D01*
X70791882Y58834451D01*
X70860000Y58848000D01*
X71140000Y58848000D01*
X71208118Y58834451D01*
G37*
G36*
X72168118Y58834451D02*
G01*
X72225865Y58795865D01*
X72264451Y58738118D01*
X72278000Y58670000D01*
X72278000Y58330000D01*
X72264451Y58261882D01*
X72225865Y58204135D01*
X72168118Y58165549D01*
X72100000Y58152000D01*
X71820000Y58152000D01*
X71751882Y58165549D01*
X71694135Y58204135D01*
X71655549Y58261882D01*
X71642000Y58330000D01*
X71642000Y58670000D01*
X71655549Y58738118D01*
X71694135Y58795865D01*
X71751882Y58834451D01*
X71820000Y58848000D01*
X72100000Y58848000D01*
X72168118Y58834451D01*
G37*
G36*
X67238118Y59054451D02*
G01*
X67295865Y59015865D01*
X67334451Y58958118D01*
X67348000Y58890000D01*
X67348000Y58610000D01*
X67334451Y58541882D01*
X67295865Y58484135D01*
X67238118Y58445549D01*
X67170000Y58432000D01*
X66830000Y58432000D01*
X66761882Y58445549D01*
X66704135Y58484135D01*
X66665549Y58541882D01*
X66652000Y58610000D01*
X66652000Y58890000D01*
X66665549Y58958118D01*
X66704135Y59015865D01*
X66761882Y59054451D01*
X66830000Y59068000D01*
X67170000Y59068000D01*
X67238118Y59054451D01*
G37*
G36*
X55780062Y59536993D02*
G01*
X55827205Y59531524D01*
X55843313Y59524412D01*
X55866079Y59519883D01*
X55890448Y59503600D01*
X55908892Y59495456D01*
X55921489Y59482859D01*
X55943291Y59468291D01*
X55957858Y59446490D01*
X55970455Y59433893D01*
X55978597Y59415452D01*
X55994883Y59391079D01*
X55999411Y59368312D01*
X56006523Y59352206D01*
X56011991Y59305073D01*
X56013000Y59300000D01*
X56013000Y58900000D01*
X56011990Y58894926D01*
X56006523Y58847795D01*
X55999412Y58831691D01*
X55994883Y58808921D01*
X55978596Y58784547D01*
X55970455Y58766108D01*
X55957860Y58753514D01*
X55943291Y58731709D01*
X55921486Y58717140D01*
X55908892Y58704545D01*
X55890453Y58696404D01*
X55866079Y58680117D01*
X55843309Y58675588D01*
X55827205Y58668477D01*
X55780073Y58663010D01*
X55775000Y58662000D01*
X55225000Y58662000D01*
X55219926Y58663010D01*
X55172794Y58668477D01*
X55156688Y58675589D01*
X55133921Y58680117D01*
X55109548Y58696403D01*
X55091107Y58704545D01*
X55078510Y58717142D01*
X55056709Y58731709D01*
X55042141Y58753511D01*
X55029544Y58766108D01*
X55021400Y58784552D01*
X55005117Y58808921D01*
X55000588Y58831687D01*
X54993476Y58847795D01*
X54988006Y58894939D01*
X54987000Y58900000D01*
X54987000Y59300000D01*
X54988006Y59305062D01*
X54993476Y59352206D01*
X55000589Y59368316D01*
X55005117Y59391079D01*
X55021399Y59415448D01*
X55029544Y59433893D01*
X55042143Y59446493D01*
X55056709Y59468291D01*
X55078507Y59482857D01*
X55091107Y59495456D01*
X55109552Y59503601D01*
X55133921Y59519883D01*
X55156684Y59524411D01*
X55172794Y59531524D01*
X55219939Y59536994D01*
X55225000Y59538000D01*
X55775000Y59538000D01*
X55780062Y59536993D01*
G37*
G36*
X53530062Y60086993D02*
G01*
X53577205Y60081524D01*
X53593313Y60074412D01*
X53616079Y60069883D01*
X53640448Y60053600D01*
X53658892Y60045456D01*
X53671489Y60032859D01*
X53693291Y60018291D01*
X53707858Y59996490D01*
X53720455Y59983893D01*
X53728597Y59965452D01*
X53744883Y59941079D01*
X53749411Y59918312D01*
X53756523Y59902206D01*
X53761991Y59855073D01*
X53763000Y59850000D01*
X53763000Y59450000D01*
X53761990Y59444926D01*
X53756523Y59397795D01*
X53749412Y59381691D01*
X53744883Y59358921D01*
X53728596Y59334547D01*
X53720455Y59316108D01*
X53707860Y59303514D01*
X53693291Y59281709D01*
X53671486Y59267140D01*
X53658892Y59254545D01*
X53640453Y59246404D01*
X53616079Y59230117D01*
X53593309Y59225588D01*
X53577205Y59218477D01*
X53530073Y59213010D01*
X53525000Y59212000D01*
X52975000Y59212000D01*
X52969926Y59213010D01*
X52922794Y59218477D01*
X52906688Y59225589D01*
X52883921Y59230117D01*
X52859548Y59246403D01*
X52841107Y59254545D01*
X52828510Y59267142D01*
X52806709Y59281709D01*
X52792141Y59303511D01*
X52779544Y59316108D01*
X52771400Y59334552D01*
X52755117Y59358921D01*
X52750588Y59381687D01*
X52743476Y59397795D01*
X52738006Y59444939D01*
X52737000Y59450000D01*
X52737000Y59850000D01*
X52738006Y59855062D01*
X52743476Y59902206D01*
X52750589Y59918316D01*
X52755117Y59941079D01*
X52771399Y59965448D01*
X52779544Y59983893D01*
X52792143Y59996493D01*
X52806709Y60018291D01*
X52828507Y60032857D01*
X52841107Y60045456D01*
X52859552Y60053601D01*
X52883921Y60069883D01*
X52906684Y60074411D01*
X52922794Y60081524D01*
X52969939Y60086994D01*
X52975000Y60088000D01*
X53525000Y60088000D01*
X53530062Y60086993D01*
G37*
G36*
X70905062Y60186993D02*
G01*
X70952205Y60181524D01*
X70968313Y60174412D01*
X70991079Y60169883D01*
X71015448Y60153600D01*
X71033892Y60145456D01*
X71046489Y60132859D01*
X71068291Y60118291D01*
X71082858Y60096490D01*
X71095455Y60083893D01*
X71103597Y60065452D01*
X71119883Y60041079D01*
X71124411Y60018312D01*
X71131523Y60002206D01*
X71136991Y59955073D01*
X71138000Y59950000D01*
X71138000Y59550000D01*
X71136990Y59544926D01*
X71131523Y59497795D01*
X71124412Y59481691D01*
X71119883Y59458921D01*
X71103596Y59434547D01*
X71095455Y59416108D01*
X71082860Y59403514D01*
X71068291Y59381709D01*
X71046486Y59367140D01*
X71033892Y59354545D01*
X71015453Y59346404D01*
X70991079Y59330117D01*
X70968309Y59325588D01*
X70952205Y59318477D01*
X70905073Y59313010D01*
X70900000Y59312000D01*
X70300000Y59312000D01*
X70294926Y59313010D01*
X70247794Y59318477D01*
X70231688Y59325589D01*
X70208921Y59330117D01*
X70184548Y59346403D01*
X70166107Y59354545D01*
X70153510Y59367142D01*
X70131709Y59381709D01*
X70117141Y59403511D01*
X70104544Y59416108D01*
X70096400Y59434552D01*
X70080117Y59458921D01*
X70075588Y59481687D01*
X70068476Y59497795D01*
X70063006Y59544939D01*
X70062000Y59550000D01*
X70062000Y59950000D01*
X70063006Y59955062D01*
X70068476Y60002206D01*
X70075589Y60018316D01*
X70080117Y60041079D01*
X70096399Y60065448D01*
X70104544Y60083893D01*
X70117143Y60096493D01*
X70131709Y60118291D01*
X70153507Y60132857D01*
X70166107Y60145456D01*
X70184552Y60153601D01*
X70208921Y60169883D01*
X70231684Y60174411D01*
X70247794Y60181524D01*
X70294939Y60186994D01*
X70300000Y60188000D01*
X70900000Y60188000D01*
X70905062Y60186993D01*
G37*
G36*
X72305062Y60186993D02*
G01*
X72352205Y60181524D01*
X72368313Y60174412D01*
X72391079Y60169883D01*
X72415448Y60153600D01*
X72433892Y60145456D01*
X72446489Y60132859D01*
X72468291Y60118291D01*
X72482858Y60096490D01*
X72495455Y60083893D01*
X72503597Y60065452D01*
X72519883Y60041079D01*
X72524411Y60018312D01*
X72531523Y60002206D01*
X72536991Y59955073D01*
X72538000Y59950000D01*
X72538000Y59550000D01*
X72536990Y59544926D01*
X72531523Y59497795D01*
X72524412Y59481691D01*
X72519883Y59458921D01*
X72503596Y59434547D01*
X72495455Y59416108D01*
X72482860Y59403514D01*
X72468291Y59381709D01*
X72446486Y59367140D01*
X72433892Y59354545D01*
X72415453Y59346404D01*
X72391079Y59330117D01*
X72368309Y59325588D01*
X72352205Y59318477D01*
X72305073Y59313010D01*
X72300000Y59312000D01*
X71700000Y59312000D01*
X71694926Y59313010D01*
X71647794Y59318477D01*
X71631688Y59325589D01*
X71608921Y59330117D01*
X71584548Y59346403D01*
X71566107Y59354545D01*
X71553510Y59367142D01*
X71531709Y59381709D01*
X71517141Y59403511D01*
X71504544Y59416108D01*
X71496400Y59434552D01*
X71480117Y59458921D01*
X71475588Y59481687D01*
X71468476Y59497795D01*
X71463006Y59544939D01*
X71462000Y59550000D01*
X71462000Y59950000D01*
X71463006Y59955062D01*
X71468476Y60002206D01*
X71475589Y60018316D01*
X71480117Y60041079D01*
X71496399Y60065448D01*
X71504544Y60083893D01*
X71517143Y60096493D01*
X71531709Y60118291D01*
X71553507Y60132857D01*
X71566107Y60145456D01*
X71584552Y60153601D01*
X71608921Y60169883D01*
X71631684Y60174411D01*
X71647794Y60181524D01*
X71694939Y60186994D01*
X71700000Y60188000D01*
X72300000Y60188000D01*
X72305062Y60186993D01*
G37*
G36*
X61691204Y60844831D02*
G01*
X61747329Y60807329D01*
X61784831Y60751204D01*
X61798000Y60685000D01*
X61798000Y60315000D01*
X61784831Y60248796D01*
X61747329Y60192671D01*
X61691204Y60155169D01*
X61625000Y60142000D01*
X61355000Y60142000D01*
X61288796Y60155169D01*
X61232671Y60192671D01*
X61195169Y60248796D01*
X61182000Y60315000D01*
X61182000Y60685000D01*
X61195169Y60751204D01*
X61232671Y60807329D01*
X61288796Y60844831D01*
X61355000Y60858000D01*
X61625000Y60858000D01*
X61691204Y60844831D01*
G37*
G36*
X62711204Y60844831D02*
G01*
X62767329Y60807329D01*
X62804831Y60751204D01*
X62818000Y60685000D01*
X62818000Y60315000D01*
X62804831Y60248796D01*
X62767329Y60192671D01*
X62711204Y60155169D01*
X62645000Y60142000D01*
X62375000Y60142000D01*
X62308796Y60155169D01*
X62252671Y60192671D01*
X62215169Y60248796D01*
X62202000Y60315000D01*
X62202000Y60685000D01*
X62215169Y60751204D01*
X62252671Y60807329D01*
X62308796Y60844831D01*
X62375000Y60858000D01*
X62645000Y60858000D01*
X62711204Y60844831D01*
G37*
G36*
X67251204Y60784831D02*
G01*
X67307329Y60747329D01*
X67344831Y60691204D01*
X67358000Y60625000D01*
X67358000Y60355000D01*
X67344831Y60288796D01*
X67307329Y60232671D01*
X67251204Y60195169D01*
X67185000Y60182000D01*
X66815000Y60182000D01*
X66748796Y60195169D01*
X66692671Y60232671D01*
X66655169Y60288796D01*
X66642000Y60355000D01*
X66642000Y60625000D01*
X66655169Y60691204D01*
X66692671Y60747329D01*
X66748796Y60784831D01*
X66815000Y60798000D01*
X67185000Y60798000D01*
X67251204Y60784831D01*
G37*
G36*
X55780062Y61186993D02*
G01*
X55827205Y61181524D01*
X55843313Y61174412D01*
X55866079Y61169883D01*
X55890448Y61153600D01*
X55908892Y61145456D01*
X55921489Y61132859D01*
X55943291Y61118291D01*
X55957858Y61096490D01*
X55970455Y61083893D01*
X55978597Y61065452D01*
X55994883Y61041079D01*
X55999411Y61018312D01*
X56006523Y61002206D01*
X56011991Y60955073D01*
X56013000Y60950000D01*
X56013000Y60550000D01*
X56011990Y60544926D01*
X56006523Y60497795D01*
X55999412Y60481691D01*
X55994883Y60458921D01*
X55978596Y60434547D01*
X55970455Y60416108D01*
X55957860Y60403514D01*
X55943291Y60381709D01*
X55921486Y60367140D01*
X55908892Y60354545D01*
X55890453Y60346404D01*
X55866079Y60330117D01*
X55843309Y60325588D01*
X55827205Y60318477D01*
X55780073Y60313010D01*
X55775000Y60312000D01*
X55225000Y60312000D01*
X55219926Y60313010D01*
X55172794Y60318477D01*
X55156688Y60325589D01*
X55133921Y60330117D01*
X55109548Y60346403D01*
X55091107Y60354545D01*
X55078510Y60367142D01*
X55056709Y60381709D01*
X55042141Y60403511D01*
X55029544Y60416108D01*
X55021400Y60434552D01*
X55005117Y60458921D01*
X55000588Y60481687D01*
X54993476Y60497795D01*
X54988006Y60544939D01*
X54987000Y60550000D01*
X54987000Y60950000D01*
X54988006Y60955062D01*
X54993476Y61002206D01*
X55000589Y61018316D01*
X55005117Y61041079D01*
X55021399Y61065448D01*
X55029544Y61083893D01*
X55042143Y61096493D01*
X55056709Y61118291D01*
X55078507Y61132857D01*
X55091107Y61145456D01*
X55109552Y61153601D01*
X55133921Y61169883D01*
X55156684Y61174411D01*
X55172794Y61181524D01*
X55219939Y61186994D01*
X55225000Y61188000D01*
X55775000Y61188000D01*
X55780062Y61186993D01*
G37*
G36*
X73738118Y61074451D02*
G01*
X73795865Y61035865D01*
X73834451Y60978118D01*
X73848000Y60910000D01*
X73848000Y60630000D01*
X73834451Y60561882D01*
X73795865Y60504135D01*
X73738118Y60465549D01*
X73670000Y60452000D01*
X73330000Y60452000D01*
X73261882Y60465549D01*
X73204135Y60504135D01*
X73165549Y60561882D01*
X73152000Y60630000D01*
X73152000Y60910000D01*
X73165549Y60978118D01*
X73204135Y61035865D01*
X73261882Y61074451D01*
X73330000Y61088000D01*
X73670000Y61088000D01*
X73738118Y61074451D01*
G37*
G36*
X90766682Y62280762D02*
G01*
X90931500Y62207380D01*
X91077460Y62101334D01*
X91198182Y61967259D01*
X91288390Y61811014D01*
X91344141Y61639428D01*
X91363000Y61460000D01*
X91344141Y61280572D01*
X91288390Y61108986D01*
X91198182Y60952741D01*
X91077460Y60818666D01*
X90931500Y60712620D01*
X90766682Y60639238D01*
X90590208Y60601728D01*
X90409792Y60601728D01*
X90233318Y60639238D01*
X90068500Y60712620D01*
X89922540Y60818666D01*
X89801818Y60952741D01*
X89711610Y61108986D01*
X89655859Y61280572D01*
X89637000Y61460000D01*
X89655859Y61639428D01*
X89711610Y61811014D01*
X89801818Y61967259D01*
X89922540Y62101334D01*
X90068500Y62207380D01*
X90233318Y62280762D01*
X90409792Y62318272D01*
X90590208Y62318272D01*
X90766682Y62280762D01*
G37*
G36*
X64691204Y61844831D02*
G01*
X64747329Y61807329D01*
X64784831Y61751204D01*
X64798000Y61685000D01*
X64798000Y61315000D01*
X64784831Y61248796D01*
X64747329Y61192671D01*
X64691204Y61155169D01*
X64625000Y61142000D01*
X64355000Y61142000D01*
X64288796Y61155169D01*
X64232671Y61192671D01*
X64195169Y61248796D01*
X64182000Y61315000D01*
X64182000Y61685000D01*
X64195169Y61751204D01*
X64232671Y61807329D01*
X64288796Y61844831D01*
X64355000Y61858000D01*
X64625000Y61858000D01*
X64691204Y61844831D01*
G37*
G36*
X65711204Y61844831D02*
G01*
X65767329Y61807329D01*
X65804831Y61751204D01*
X65818000Y61685000D01*
X65818000Y61315000D01*
X65804831Y61248796D01*
X65767329Y61192671D01*
X65711204Y61155169D01*
X65645000Y61142000D01*
X65375000Y61142000D01*
X65308796Y61155169D01*
X65252671Y61192671D01*
X65215169Y61248796D01*
X65202000Y61315000D01*
X65202000Y61685000D01*
X65215169Y61751204D01*
X65252671Y61807329D01*
X65308796Y61844831D01*
X65375000Y61858000D01*
X65645000Y61858000D01*
X65711204Y61844831D01*
G37*
G36*
X67251204Y61804831D02*
G01*
X67307329Y61767329D01*
X67344831Y61711204D01*
X67358000Y61645000D01*
X67358000Y61375000D01*
X67344831Y61308796D01*
X67307329Y61252671D01*
X67251204Y61215169D01*
X67185000Y61202000D01*
X66815000Y61202000D01*
X66748796Y61215169D01*
X66692671Y61252671D01*
X66655169Y61308796D01*
X66642000Y61375000D01*
X66642000Y61645000D01*
X66655169Y61711204D01*
X66692671Y61767329D01*
X66748796Y61804831D01*
X66815000Y61818000D01*
X67185000Y61818000D01*
X67251204Y61804831D01*
G37*
G36*
X70905062Y62286993D02*
G01*
X70952205Y62281524D01*
X70968313Y62274412D01*
X70991079Y62269883D01*
X71015448Y62253600D01*
X71033892Y62245456D01*
X71046489Y62232859D01*
X71068291Y62218291D01*
X71082858Y62196490D01*
X71095455Y62183893D01*
X71103597Y62165452D01*
X71119883Y62141079D01*
X71124411Y62118312D01*
X71131523Y62102206D01*
X71136991Y62055073D01*
X71138000Y62050000D01*
X71138000Y61650000D01*
X71136990Y61644926D01*
X71131523Y61597795D01*
X71124412Y61581691D01*
X71119883Y61558921D01*
X71103596Y61534547D01*
X71095455Y61516108D01*
X71082860Y61503514D01*
X71068291Y61481709D01*
X71046486Y61467140D01*
X71033892Y61454545D01*
X71015453Y61446404D01*
X70991079Y61430117D01*
X70968309Y61425588D01*
X70952205Y61418477D01*
X70905073Y61413010D01*
X70900000Y61412000D01*
X70300000Y61412000D01*
X70294926Y61413010D01*
X70247794Y61418477D01*
X70231688Y61425589D01*
X70208921Y61430117D01*
X70184548Y61446403D01*
X70166107Y61454545D01*
X70153510Y61467142D01*
X70131709Y61481709D01*
X70117141Y61503511D01*
X70104544Y61516108D01*
X70096400Y61534552D01*
X70080117Y61558921D01*
X70075588Y61581687D01*
X70068476Y61597795D01*
X70063006Y61644939D01*
X70062000Y61650000D01*
X70062000Y62050000D01*
X70063006Y62055062D01*
X70068476Y62102206D01*
X70075589Y62118316D01*
X70080117Y62141079D01*
X70096399Y62165448D01*
X70104544Y62183893D01*
X70117143Y62196493D01*
X70131709Y62218291D01*
X70153507Y62232857D01*
X70166107Y62245456D01*
X70184552Y62253601D01*
X70208921Y62269883D01*
X70231684Y62274411D01*
X70247794Y62281524D01*
X70294939Y62286994D01*
X70300000Y62288000D01*
X70900000Y62288000D01*
X70905062Y62286993D01*
G37*
G36*
X72305062Y62286993D02*
G01*
X72352205Y62281524D01*
X72368313Y62274412D01*
X72391079Y62269883D01*
X72415448Y62253600D01*
X72433892Y62245456D01*
X72446489Y62232859D01*
X72468291Y62218291D01*
X72482858Y62196490D01*
X72495455Y62183893D01*
X72503597Y62165452D01*
X72519883Y62141079D01*
X72524411Y62118312D01*
X72531523Y62102206D01*
X72536991Y62055073D01*
X72538000Y62050000D01*
X72538000Y61650000D01*
X72536990Y61644926D01*
X72531523Y61597795D01*
X72524412Y61581691D01*
X72519883Y61558921D01*
X72503596Y61534547D01*
X72495455Y61516108D01*
X72482860Y61503514D01*
X72468291Y61481709D01*
X72446486Y61467140D01*
X72433892Y61454545D01*
X72415453Y61446404D01*
X72391079Y61430117D01*
X72368309Y61425588D01*
X72352205Y61418477D01*
X72305073Y61413010D01*
X72300000Y61412000D01*
X71700000Y61412000D01*
X71694926Y61413010D01*
X71647794Y61418477D01*
X71631688Y61425589D01*
X71608921Y61430117D01*
X71584548Y61446403D01*
X71566107Y61454545D01*
X71553510Y61467142D01*
X71531709Y61481709D01*
X71517141Y61503511D01*
X71504544Y61516108D01*
X71496400Y61534552D01*
X71480117Y61558921D01*
X71475588Y61581687D01*
X71468476Y61597795D01*
X71463006Y61644939D01*
X71462000Y61650000D01*
X71462000Y62050000D01*
X71463006Y62055062D01*
X71468476Y62102206D01*
X71475589Y62118316D01*
X71480117Y62141079D01*
X71496399Y62165448D01*
X71504544Y62183893D01*
X71517143Y62196493D01*
X71531709Y62218291D01*
X71553507Y62232857D01*
X71566107Y62245456D01*
X71584552Y62253601D01*
X71608921Y62269883D01*
X71631684Y62274411D01*
X71647794Y62281524D01*
X71694939Y62286994D01*
X71700000Y62288000D01*
X72300000Y62288000D01*
X72305062Y62286993D01*
G37*
G36*
X73738118Y62034451D02*
G01*
X73795865Y61995865D01*
X73834451Y61938118D01*
X73848000Y61870000D01*
X73848000Y61590000D01*
X73834451Y61521882D01*
X73795865Y61464135D01*
X73738118Y61425549D01*
X73670000Y61412000D01*
X73330000Y61412000D01*
X73261882Y61425549D01*
X73204135Y61464135D01*
X73165549Y61521882D01*
X73152000Y61590000D01*
X73152000Y61870000D01*
X73165549Y61938118D01*
X73204135Y61995865D01*
X73261882Y62034451D01*
X73330000Y62048000D01*
X73670000Y62048000D01*
X73738118Y62034451D01*
G37*
G36*
X60627310Y63539495D02*
G01*
X60672081Y63509581D01*
X60701995Y63464810D01*
X60712500Y63412000D01*
X60712500Y63345415D01*
X60806888Y63324489D01*
X60807971Y63329929D01*
X60825761Y63356555D01*
X60837613Y63381969D01*
X60853072Y63397429D01*
X60867692Y63419308D01*
X60889571Y63433928D01*
X60905032Y63449388D01*
X60930445Y63461239D01*
X60957071Y63479029D01*
X60977172Y63483028D01*
X60992713Y63490274D01*
X61054489Y63498407D01*
X61062500Y63500000D01*
X61737500Y63500000D01*
X61745514Y63498406D01*
X61807286Y63490274D01*
X61822825Y63483028D01*
X61842929Y63479029D01*
X61869556Y63461237D01*
X61894967Y63449388D01*
X61910425Y63433930D01*
X61932308Y63419308D01*
X61946929Y63397426D01*
X61962386Y63381969D01*
X61974233Y63356563D01*
X61992029Y63329929D01*
X61993110Y63324491D01*
X62087500Y63345415D01*
X62087500Y63405845D01*
X62087500Y63405846D01*
X62087500Y63412000D01*
X62098005Y63464810D01*
X62127919Y63509581D01*
X62172690Y63539495D01*
X62225500Y63550000D01*
X62450500Y63550000D01*
X62503310Y63539495D01*
X62548081Y63509581D01*
X62577995Y63464810D01*
X62588500Y63412000D01*
X62588500Y63212000D01*
X62577995Y63159190D01*
X62548081Y63114419D01*
X62503310Y63084505D01*
X62450500Y63074000D01*
X62225500Y63074000D01*
X62172690Y63084505D01*
X62127919Y63114419D01*
X62100511Y63155439D01*
X62013000Y63128893D01*
X62013000Y62845111D01*
X62100511Y62818561D01*
X62127919Y62859581D01*
X62172690Y62889495D01*
X62225500Y62900000D01*
X62450500Y62900000D01*
X62503310Y62889495D01*
X62548081Y62859581D01*
X62577995Y62814810D01*
X62588500Y62762000D01*
X62588500Y62562000D01*
X62577995Y62509190D01*
X62548081Y62464419D01*
X62503310Y62434505D01*
X62450500Y62424000D01*
X62225500Y62424000D01*
X62172690Y62434505D01*
X62127919Y62464419D01*
X62098005Y62509190D01*
X62087500Y62562000D01*
X62087500Y62568157D01*
X62087497Y62628590D01*
X61993110Y62649510D01*
X61992029Y62644071D01*
X61974229Y62617432D01*
X61962386Y62592032D01*
X61946931Y62576578D01*
X61932308Y62554692D01*
X61910422Y62540069D01*
X61894967Y62524613D01*
X61869561Y62512767D01*
X61842929Y62494971D01*
X61822821Y62490972D01*
X61807286Y62483727D01*
X61745527Y62475597D01*
X61737500Y62474000D01*
X61062500Y62474000D01*
X61054473Y62475597D01*
X60992713Y62483727D01*
X60977176Y62490972D01*
X60957071Y62494971D01*
X60930440Y62512765D01*
X60905032Y62524613D01*
X60889574Y62540071D01*
X60867692Y62554692D01*
X60853070Y62576575D01*
X60837613Y62592032D01*
X60825763Y62617443D01*
X60807971Y62644071D01*
X60806888Y62649514D01*
X60712500Y62628584D01*
X60712500Y62562000D01*
X60701995Y62509190D01*
X60672081Y62464419D01*
X60627310Y62434505D01*
X60574500Y62424000D01*
X60349500Y62424000D01*
X60296690Y62434505D01*
X60251919Y62464419D01*
X60222005Y62509190D01*
X60211500Y62562000D01*
X60211500Y62762000D01*
X60222005Y62814810D01*
X60251919Y62859581D01*
X60296690Y62889495D01*
X60349500Y62900000D01*
X60574500Y62900000D01*
X60627310Y62889495D01*
X60672081Y62859581D01*
X60699487Y62818563D01*
X60787000Y62845108D01*
X60787000Y63128892D01*
X60699487Y63155438D01*
X60672081Y63114419D01*
X60627310Y63084505D01*
X60574500Y63074000D01*
X60349500Y63074000D01*
X60296690Y63084505D01*
X60251919Y63114419D01*
X60222005Y63159190D01*
X60211500Y63212000D01*
X60211500Y63412000D01*
X60222005Y63464810D01*
X60251919Y63509581D01*
X60296690Y63539495D01*
X60349500Y63550000D01*
X60574500Y63550000D01*
X60627310Y63539495D01*
G37*
G36*
X91140938Y64855350D02*
G01*
X91149782Y64851445D01*
X91156336Y64850490D01*
X91197310Y64830459D01*
X91237759Y64812599D01*
X91241503Y64808855D01*
X91241848Y64808686D01*
X91308685Y64741849D01*
X91308853Y64741505D01*
X91312599Y64737759D01*
X91330463Y64697300D01*
X91350489Y64656337D01*
X91351443Y64649786D01*
X91355350Y64640938D01*
X91363000Y64575000D01*
X91363000Y63425000D01*
X91355350Y63359062D01*
X91351443Y63350215D01*
X91350489Y63343664D01*
X91330468Y63302711D01*
X91312599Y63262241D01*
X91308852Y63258495D01*
X91308685Y63258152D01*
X91241848Y63191315D01*
X91241505Y63191148D01*
X91237759Y63187401D01*
X91197289Y63169532D01*
X91156336Y63149511D01*
X91149785Y63148557D01*
X91140938Y63144650D01*
X91075000Y63137000D01*
X89925000Y63137000D01*
X89859062Y63144650D01*
X89850214Y63148557D01*
X89843663Y63149511D01*
X89802700Y63169537D01*
X89762241Y63187401D01*
X89758495Y63191147D01*
X89758151Y63191315D01*
X89691314Y63258152D01*
X89691145Y63258497D01*
X89687401Y63262241D01*
X89669541Y63302690D01*
X89649510Y63343664D01*
X89648555Y63350218D01*
X89644650Y63359062D01*
X89637000Y63425000D01*
X89637000Y64575000D01*
X89644650Y64640938D01*
X89648554Y64649782D01*
X89649510Y64656337D01*
X89669545Y64697322D01*
X89687401Y64737759D01*
X89691144Y64741503D01*
X89691314Y64741849D01*
X89758151Y64808686D01*
X89758497Y64808856D01*
X89762241Y64812599D01*
X89802678Y64830455D01*
X89843663Y64850490D01*
X89850218Y64851446D01*
X89859062Y64855350D01*
X89925000Y64863000D01*
X91075000Y64863000D01*
X91140938Y64855350D01*
G37*
G36*
X60627310Y64189495D02*
G01*
X60672081Y64159581D01*
X60701995Y64114810D01*
X60712500Y64062000D01*
X60712500Y63862000D01*
X60701995Y63809190D01*
X60672081Y63764419D01*
X60627310Y63734505D01*
X60574500Y63724000D01*
X60349500Y63724000D01*
X60296690Y63734505D01*
X60251919Y63764419D01*
X60222005Y63809190D01*
X60211500Y63862000D01*
X60211500Y64062000D01*
X60222005Y64114810D01*
X60251919Y64159581D01*
X60296690Y64189495D01*
X60349500Y64200000D01*
X60574500Y64200000D01*
X60627310Y64189495D01*
G37*
G36*
X61740464Y64267973D02*
G01*
X61791723Y64233723D01*
X61825973Y64182464D01*
X61838000Y64122000D01*
X61838000Y63882000D01*
X61825973Y63821536D01*
X61791723Y63770277D01*
X61740464Y63736027D01*
X61680000Y63724000D01*
X61120000Y63724000D01*
X61059536Y63736027D01*
X61008277Y63770277D01*
X60974027Y63821536D01*
X60962000Y63882000D01*
X60962000Y64122000D01*
X60974027Y64182464D01*
X61008277Y64233723D01*
X61059536Y64267973D01*
X61120000Y64280000D01*
X61680000Y64280000D01*
X61740464Y64267973D01*
G37*
G36*
X62503310Y64189495D02*
G01*
X62548081Y64159581D01*
X62577995Y64114810D01*
X62588500Y64062000D01*
X62588500Y63862000D01*
X62577995Y63809190D01*
X62548081Y63764419D01*
X62503310Y63734505D01*
X62450500Y63724000D01*
X62225500Y63724000D01*
X62172690Y63734505D01*
X62127919Y63764419D01*
X62098005Y63809190D01*
X62087500Y63862000D01*
X62087500Y64062000D01*
X62098005Y64114810D01*
X62127919Y64159581D01*
X62172690Y64189495D01*
X62225500Y64200000D01*
X62450500Y64200000D01*
X62503310Y64189495D01*
G37*
G36*
X5195090Y77980785D02*
G01*
X5382683Y77923880D01*
X5555570Y77831470D01*
X5707107Y77707107D01*
X5831470Y77555570D01*
X5923880Y77382683D01*
X5980785Y77195090D01*
X6000000Y77000000D01*
X5980785Y76804910D01*
X5923880Y76617317D01*
X5831470Y76444430D01*
X5707107Y76292893D01*
X5555570Y76168530D01*
X5382683Y76076120D01*
X5195090Y76019215D01*
X5000000Y76000000D01*
X4804910Y76019215D01*
X4617317Y76076120D01*
X4444430Y76168530D01*
X4292893Y76292893D01*
X4168530Y76444430D01*
X4076120Y76617317D01*
X4019215Y76804910D01*
X4000000Y77000000D01*
X4019215Y77195090D01*
X4076120Y77382683D01*
X4168530Y77555570D01*
X4292893Y77707107D01*
X4444430Y77831470D01*
X4617317Y77923880D01*
X4804910Y77980785D01*
X5000000Y78000000D01*
X5195090Y77980785D01*
G37*
G36*
X90695090Y77980785D02*
G01*
X90882683Y77923880D01*
X91055570Y77831470D01*
X91207107Y77707107D01*
X91331470Y77555570D01*
X91423880Y77382683D01*
X91480785Y77195090D01*
X91500000Y77000000D01*
X91480785Y76804910D01*
X91423880Y76617317D01*
X91331470Y76444430D01*
X91207107Y76292893D01*
X91055570Y76168530D01*
X90882683Y76076120D01*
X90695090Y76019215D01*
X90500000Y76000000D01*
X90304910Y76019215D01*
X90117317Y76076120D01*
X89944430Y76168530D01*
X89792893Y76292893D01*
X89668530Y76444430D01*
X89576120Y76617317D01*
X89519215Y76804910D01*
X89500000Y77000000D01*
X89519215Y77195090D01*
X89576120Y77382683D01*
X89668530Y77555570D01*
X89792893Y77707107D01*
X89944430Y77831470D01*
X90117317Y77923880D01*
X90304910Y77980785D01*
X90500000Y78000000D01*
X90695090Y77980785D01*
G37*
G36*
X6023850Y87695344D02*
G01*
X6366257Y87619975D01*
X6698507Y87508027D01*
X7016707Y87360812D01*
X7317124Y87180057D01*
X7596237Y86967881D01*
X7850773Y86726771D01*
X8077749Y86459554D01*
X8274504Y86169363D01*
X8438729Y85859601D01*
X8568501Y85533898D01*
X8662297Y85196074D01*
X8719019Y84850089D01*
X8738000Y84500000D01*
X8719019Y84149911D01*
X8662297Y83803926D01*
X8568501Y83466102D01*
X8438729Y83140399D01*
X8274504Y82830637D01*
X8077749Y82540446D01*
X7850773Y82273229D01*
X7596237Y82032119D01*
X7317124Y81819943D01*
X7016707Y81639188D01*
X6698507Y81491973D01*
X6366257Y81380025D01*
X6023850Y81304656D01*
X5675302Y81266749D01*
X5324698Y81266749D01*
X4976150Y81304656D01*
X4633743Y81380025D01*
X4301493Y81491973D01*
X3983293Y81639188D01*
X3682876Y81819943D01*
X3403763Y82032119D01*
X3149227Y82273229D01*
X2922251Y82540446D01*
X2725496Y82830637D01*
X2561271Y83140399D01*
X2431499Y83466102D01*
X2337703Y83803926D01*
X2280981Y84149911D01*
X2262000Y84500000D01*
X2280981Y84850089D01*
X2337703Y85196074D01*
X2431499Y85533898D01*
X2561271Y85859601D01*
X2725496Y86169363D01*
X2922251Y86459554D01*
X3149227Y86726771D01*
X3403763Y86967881D01*
X3682876Y87180057D01*
X3983293Y87360812D01*
X4301493Y87508027D01*
X4633743Y87619975D01*
X4976150Y87695344D01*
X5324698Y87733251D01*
X5675302Y87733251D01*
X6023850Y87695344D01*
G37*
G36*
X91023850Y87695344D02*
G01*
X91366257Y87619975D01*
X91698507Y87508027D01*
X92016707Y87360812D01*
X92317124Y87180057D01*
X92596237Y86967881D01*
X92850773Y86726771D01*
X93077749Y86459554D01*
X93274504Y86169363D01*
X93438729Y85859601D01*
X93568501Y85533898D01*
X93662297Y85196074D01*
X93719019Y84850089D01*
X93738000Y84500000D01*
X93719019Y84149911D01*
X93662297Y83803926D01*
X93568501Y83466102D01*
X93438729Y83140399D01*
X93274504Y82830637D01*
X93077749Y82540446D01*
X92850773Y82273229D01*
X92596237Y82032119D01*
X92317124Y81819943D01*
X92016707Y81639188D01*
X91698507Y81491973D01*
X91366257Y81380025D01*
X91023850Y81304656D01*
X90675302Y81266749D01*
X90324698Y81266749D01*
X89976150Y81304656D01*
X89633743Y81380025D01*
X89301493Y81491973D01*
X88983293Y81639188D01*
X88682876Y81819943D01*
X88403763Y82032119D01*
X88149227Y82273229D01*
X87922251Y82540446D01*
X87725496Y82830637D01*
X87561271Y83140399D01*
X87431499Y83466102D01*
X87337703Y83803926D01*
X87280981Y84149911D01*
X87262000Y84500000D01*
X87280981Y84850089D01*
X87337703Y85196074D01*
X87431499Y85533898D01*
X87561271Y85859601D01*
X87725496Y86169363D01*
X87922251Y86459554D01*
X88149227Y86726771D01*
X88403763Y86967881D01*
X88682876Y87180057D01*
X88983293Y87360812D01*
X89301493Y87508027D01*
X89633743Y87619975D01*
X89976150Y87695344D01*
X90324698Y87733251D01*
X90675302Y87733251D01*
X91023850Y87695344D01*
G37*
M02*
