%TF.GenerationSoftware,KiCad,Pcbnew,8.0.8*%
%TF.CreationDate,2025-03-29T16:24:55+01:00*%
%TF.ProjectId,rf,72662e6b-6963-4616-945f-706362585858,rev?*%
%TF.SameCoordinates,PX55d4a80PY8044ea0*%
%TF.FileFunction,Copper,L2,Inr*%
%TF.FilePolarity,Positive*%
%FSLAX46Y46*%
G04 Gerber Fmt 4.6, Leading zero omitted, Abs format (unit mm)*
G04 Created by KiCad (PCBNEW 8.0.8) date 2025-03-29 16:24:55*
%MOMM*%
%LPD*%
G01*
G04 APERTURE LIST*
G04 Aperture macros list*
%AMRoundRect*
0 Rectangle with rounded corners*
0 $1 Rounding radius*
0 $2 $3 $4 $5 $6 $7 $8 $9 X,Y pos of 4 corners*
0 Add a 4 corners polygon primitive as box body*
4,1,4,$2,$3,$4,$5,$6,$7,$8,$9,$2,$3,0*
0 Add four circle primitives for the rounded corners*
1,1,$1+$1,$2,$3*
1,1,$1+$1,$4,$5*
1,1,$1+$1,$6,$7*
1,1,$1+$1,$8,$9*
0 Add four rect primitives between the rounded corners*
20,1,$1+$1,$2,$3,$4,$5,0*
20,1,$1+$1,$4,$5,$6,$7,0*
20,1,$1+$1,$6,$7,$8,$9,0*
20,1,$1+$1,$8,$9,$2,$3,0*%
G04 Aperture macros list end*
%TA.AperFunction,ComponentPad*%
%ADD10C,0.800000*%
%TD*%
%TA.AperFunction,ComponentPad*%
%ADD11C,6.400000*%
%TD*%
%TA.AperFunction,ComponentPad*%
%ADD12RoundRect,0.250000X-0.575000X0.575000X-0.575000X-0.575000X0.575000X-0.575000X0.575000X0.575000X0*%
%TD*%
%TA.AperFunction,ComponentPad*%
%ADD13C,1.650000*%
%TD*%
%TA.AperFunction,ComponentPad*%
%ADD14RoundRect,0.562500X0.562500X0.562500X-0.562500X0.562500X-0.562500X-0.562500X0.562500X-0.562500X0*%
%TD*%
%TA.AperFunction,ComponentPad*%
%ADD15C,2.550000*%
%TD*%
%TA.AperFunction,ViaPad*%
%ADD16C,0.900000*%
%TD*%
%TA.AperFunction,ViaPad*%
%ADD17C,0.700000*%
%TD*%
G04 APERTURE END LIST*
D10*
%TO.N,GND*%
%TO.C,H3*%
X88100000Y5500000D03*
X88802944Y7197056D03*
X88802944Y3802944D03*
X90500000Y7900000D03*
D11*
X90500000Y5500000D03*
D10*
X90500000Y3100000D03*
X92197056Y7197056D03*
X92197056Y3802944D03*
X92900000Y5500000D03*
%TD*%
D12*
%TO.N,+3V3*%
%TO.C,J1*%
X90500000Y64000000D03*
D13*
%TO.N,/nSEL_RF*%
X90500000Y61460000D03*
%TO.N,/SDI_RF*%
X90500000Y58920000D03*
%TO.N,/SDO_RF*%
X90500000Y56380000D03*
%TO.N,/SCLK_RF*%
X90500000Y53840000D03*
%TO.N,/nIRQ_RF*%
X90500000Y51300000D03*
%TO.N,/COMMAND_DONE_RF*%
X90500000Y48760000D03*
%TO.N,GND*%
X90500000Y46220000D03*
%TD*%
D10*
%TO.N,GND*%
%TO.C,H4*%
X3100000Y5500000D03*
X3802944Y7197056D03*
X3802944Y3802944D03*
X5500000Y7900000D03*
D11*
X5500000Y5500000D03*
D10*
X5500000Y3100000D03*
X7197056Y7197056D03*
X7197056Y3802944D03*
X7900000Y5500000D03*
%TD*%
%TO.N,GND*%
%TO.C,H1*%
X3100000Y84500000D03*
X3802944Y86197056D03*
X3802944Y82802944D03*
X5500000Y86900000D03*
D11*
X5500000Y84500000D03*
D10*
X5500000Y82100000D03*
X7197056Y86197056D03*
X7197056Y82802944D03*
X7900000Y84500000D03*
%TD*%
%TO.N,GND*%
%TO.C,H2*%
X88100000Y84500000D03*
X88802944Y86197056D03*
X88802944Y82802944D03*
X90500000Y86900000D03*
D11*
X90500000Y84500000D03*
D10*
X90500000Y82100000D03*
X92197056Y86197056D03*
X92197056Y82802944D03*
X92900000Y84500000D03*
%TD*%
D14*
%TO.N,Net-(C22-Pad1)*%
%TO.C,J5*%
X37710000Y54460000D03*
D15*
%TO.N,GND*%
X40250000Y51920000D03*
X35170000Y51920000D03*
X35170000Y57000000D03*
X40250000Y57000000D03*
%TD*%
D16*
%TO.N,GND*%
X30500000Y47500000D03*
X66000000Y59500000D03*
%TO.N,+3V3*%
X71750000Y45750000D03*
X63000000Y51500000D03*
X51000000Y47250000D03*
X73500000Y63750000D03*
X73500000Y62750000D03*
X63000000Y50500000D03*
X51000000Y46250000D03*
X70750000Y45750000D03*
%TO.N,GND*%
X87500000Y52500000D03*
X53000000Y67500000D03*
X94500000Y37750000D03*
X58000000Y42500000D03*
X85000000Y52500000D03*
X57500000Y55750000D03*
X45500000Y42500000D03*
X48000000Y67500000D03*
X73000000Y42500000D03*
X61250000Y64500000D03*
X75500000Y45000000D03*
X30500000Y67500000D03*
X94500000Y52250000D03*
X1500000Y81250000D03*
X94500000Y1500000D03*
X68000000Y42500000D03*
X75500000Y42500000D03*
X87500000Y57500000D03*
D17*
X71250000Y54500000D03*
D16*
X82500000Y50000000D03*
X30500000Y50000000D03*
X46250000Y52000000D03*
X33000000Y42500000D03*
X87500000Y55000000D03*
X85000000Y55000000D03*
X38000000Y42500000D03*
X58000000Y67500000D03*
X67000000Y59000000D03*
X60000000Y55750000D03*
X66250000Y45750000D03*
X43000000Y52000000D03*
X63500000Y88500000D03*
X94500000Y8750000D03*
X87500000Y60000000D03*
X1500000Y30500000D03*
X75500000Y65000000D03*
X67350000Y48000000D03*
X68000000Y52000000D03*
X68000000Y67500000D03*
X94500000Y23250000D03*
X68500000Y57250000D03*
X62500000Y58750000D03*
X48000000Y1500000D03*
X46250000Y53000000D03*
X60500000Y42500000D03*
X73000000Y67500000D03*
X40250000Y88500000D03*
X94500000Y88500000D03*
X1500000Y52250000D03*
X85000000Y60000000D03*
X65250000Y50250000D03*
X63000000Y42500000D03*
X17000000Y1500000D03*
X1500000Y45000000D03*
X85000000Y50000000D03*
X65250000Y51250000D03*
X24750000Y1500000D03*
X60000000Y64500000D03*
X94500000Y81250000D03*
X67300000Y45750000D03*
X59250000Y52000000D03*
X75500000Y57500000D03*
X40500000Y42500000D03*
X75500000Y47500000D03*
X24750000Y88500000D03*
X46250000Y55750000D03*
X55750000Y1500000D03*
X94500000Y30500000D03*
X79000000Y1500000D03*
X30500000Y42500000D03*
X60500000Y67500000D03*
D17*
X69750000Y54500000D03*
D16*
X70500000Y67500000D03*
X55750000Y88500000D03*
X38000000Y67500000D03*
X87500000Y50000000D03*
X50500000Y67500000D03*
X48000000Y88500000D03*
X52750000Y55500000D03*
X30500000Y55000000D03*
X1500000Y74000000D03*
X1500000Y16000000D03*
X53250000Y60750000D03*
X86750000Y1500000D03*
X30500000Y60000000D03*
X32500000Y88500000D03*
D17*
X70500000Y55250000D03*
D16*
X1500000Y23250000D03*
X65500000Y67500000D03*
X94500000Y66750000D03*
X17000000Y88500000D03*
X1500000Y1500000D03*
X86750000Y88500000D03*
X82500000Y60000000D03*
X82500000Y57500000D03*
X63500000Y1500000D03*
X43000000Y53000000D03*
X70500000Y42500000D03*
X40500000Y67500000D03*
X67000000Y60250000D03*
X71250000Y88500000D03*
X75500000Y62500000D03*
X75500000Y50000000D03*
X30500000Y57500000D03*
X85000000Y57500000D03*
X48000000Y42500000D03*
D17*
X69750000Y56000000D03*
D16*
X82500000Y55000000D03*
X80000000Y52500000D03*
X70500000Y50000000D03*
X1500000Y59500000D03*
X70500000Y49000000D03*
X53250000Y59750000D03*
X82500000Y52500000D03*
X9250000Y88500000D03*
X59250000Y53000000D03*
X45500000Y67500000D03*
X75500000Y60000000D03*
X49500000Y51500000D03*
X43000000Y55750000D03*
X43000000Y42500000D03*
X50500000Y42500000D03*
X35500000Y67500000D03*
X55500000Y42500000D03*
X57500000Y58750000D03*
X66250000Y48000000D03*
X75500000Y67500000D03*
X63000000Y67500000D03*
X1500000Y88500000D03*
X30500000Y52500000D03*
X56250000Y53000000D03*
X32500000Y1500000D03*
X56250000Y52000000D03*
X1500000Y8750000D03*
X60000000Y58750000D03*
X94500000Y74000000D03*
X30500000Y65000000D03*
X79000000Y88500000D03*
X80000000Y57500000D03*
X62500000Y55750000D03*
X66750000Y50500000D03*
X67750000Y50500000D03*
X30500000Y62500000D03*
X94500000Y16000000D03*
X1500000Y37750000D03*
X9250000Y1500000D03*
X43000000Y67500000D03*
X94500000Y59500000D03*
X55500000Y67500000D03*
D17*
X71250000Y56000000D03*
D16*
X53000000Y42500000D03*
X53250000Y52000000D03*
X94500000Y45000000D03*
X35500000Y42500000D03*
X80000000Y55000000D03*
X71250000Y1500000D03*
X65500000Y42500000D03*
X30500000Y45000000D03*
X40250000Y1500000D03*
X33000000Y67500000D03*
X1500000Y66750000D03*
X48500000Y51500000D03*
%TO.N,/SW*%
X55500000Y63000000D03*
X56750000Y50050000D03*
X55500000Y50050000D03*
X55500000Y62000000D03*
%TD*%
%TA.AperFunction,Conductor*%
%TO.N,GND*%
G36*
X94502897Y89799272D02*
G01*
X94697487Y89783958D01*
X94708949Y89782142D01*
X94895910Y89737257D01*
X94906938Y89733674D01*
X95070200Y89666049D01*
X95084582Y89660091D01*
X95094928Y89654819D01*
X95258860Y89554362D01*
X95268254Y89547537D01*
X95414456Y89422668D01*
X95422667Y89414457D01*
X95547536Y89268255D01*
X95554361Y89258861D01*
X95654818Y89094929D01*
X95660090Y89084583D01*
X95733670Y88906947D01*
X95737258Y88895903D01*
X95782140Y88708954D01*
X95783957Y88697485D01*
X95799272Y88502898D01*
X95799500Y88497092D01*
X95799500Y1502909D01*
X95799272Y1497103D01*
X95783957Y1302516D01*
X95782140Y1291047D01*
X95737258Y1104098D01*
X95733670Y1093054D01*
X95660090Y915418D01*
X95654818Y905072D01*
X95554361Y741140D01*
X95547536Y731746D01*
X95422667Y585544D01*
X95414456Y577333D01*
X95268254Y452464D01*
X95258860Y445639D01*
X95094928Y345182D01*
X95084582Y339910D01*
X94906946Y266330D01*
X94895902Y262742D01*
X94708953Y217860D01*
X94697484Y216043D01*
X94502897Y200728D01*
X94497091Y200500D01*
X1502909Y200500D01*
X1497103Y200728D01*
X1302515Y216043D01*
X1291046Y217860D01*
X1104097Y262742D01*
X1093053Y266330D01*
X915417Y339910D01*
X905071Y345182D01*
X741139Y445639D01*
X731745Y452464D01*
X585543Y577333D01*
X577332Y585544D01*
X452463Y731746D01*
X445638Y741140D01*
X345181Y905072D01*
X339909Y915418D01*
X333951Y929800D01*
X266326Y1093062D01*
X262743Y1104090D01*
X217858Y1291051D01*
X216042Y1302516D01*
X200728Y1497103D01*
X200500Y1502909D01*
X200500Y47250000D01*
X50244751Y47250000D01*
X50263687Y47081941D01*
X50263689Y47081933D01*
X50319544Y46922309D01*
X50403075Y46789371D01*
X50412563Y46733534D01*
X50403075Y46710629D01*
X50319544Y46577692D01*
X50263689Y46418068D01*
X50263687Y46418060D01*
X50244751Y46250000D01*
X50263687Y46081941D01*
X50263689Y46081933D01*
X50319544Y45922309D01*
X50409519Y45779115D01*
X50409521Y45779113D01*
X50409523Y45779110D01*
X50529110Y45659523D01*
X50529112Y45659522D01*
X50529114Y45659520D01*
X50652580Y45581941D01*
X50672310Y45569544D01*
X50831941Y45513687D01*
X51000000Y45494751D01*
X51168059Y45513687D01*
X51327690Y45569544D01*
X51470890Y45659523D01*
X51561367Y45750000D01*
X69994751Y45750000D01*
X70013687Y45581941D01*
X70013689Y45581933D01*
X70069544Y45422309D01*
X70159519Y45279115D01*
X70159521Y45279113D01*
X70159523Y45279110D01*
X70279110Y45159523D01*
X70279112Y45159522D01*
X70279114Y45159520D01*
X70289370Y45153076D01*
X70422310Y45069544D01*
X70581941Y45013687D01*
X70750000Y44994751D01*
X70918059Y45013687D01*
X71077690Y45069544D01*
X71210629Y45153077D01*
X71266466Y45162564D01*
X71289368Y45153077D01*
X71422310Y45069544D01*
X71581941Y45013687D01*
X71750000Y44994751D01*
X71918059Y45013687D01*
X72077690Y45069544D01*
X72220890Y45159523D01*
X72340477Y45279110D01*
X72430456Y45422310D01*
X72486313Y45581941D01*
X72505249Y45750000D01*
X72486313Y45918059D01*
X72430456Y46077690D01*
X72340477Y46220890D01*
X72220890Y46340477D01*
X72220887Y46340479D01*
X72220885Y46340481D01*
X72077691Y46430456D01*
X71918067Y46486311D01*
X71918059Y46486313D01*
X71750000Y46505249D01*
X71581940Y46486313D01*
X71581932Y46486311D01*
X71422308Y46430456D01*
X71289371Y46346925D01*
X71233534Y46337437D01*
X71210629Y46346925D01*
X71077691Y46430456D01*
X70918067Y46486311D01*
X70918059Y46486313D01*
X70750000Y46505249D01*
X70581940Y46486313D01*
X70581932Y46486311D01*
X70422308Y46430456D01*
X70279114Y46340481D01*
X70159519Y46220886D01*
X70069544Y46077692D01*
X70013689Y45918068D01*
X70013687Y45918060D01*
X69994751Y45750000D01*
X51561367Y45750000D01*
X51590477Y45779110D01*
X51680456Y45922310D01*
X51736313Y46081941D01*
X51755249Y46250000D01*
X51736313Y46418059D01*
X51680456Y46577690D01*
X51596923Y46710630D01*
X51587436Y46766466D01*
X51596924Y46789371D01*
X51680455Y46922309D01*
X51680456Y46922310D01*
X51736313Y47081941D01*
X51755249Y47250000D01*
X51736313Y47418059D01*
X51680456Y47577690D01*
X51644759Y47634501D01*
X51590480Y47720886D01*
X51590478Y47720888D01*
X51590477Y47720890D01*
X51470890Y47840477D01*
X51470887Y47840479D01*
X51470885Y47840481D01*
X51327691Y47930456D01*
X51168067Y47986311D01*
X51168059Y47986313D01*
X51000000Y48005249D01*
X50831940Y47986313D01*
X50831932Y47986311D01*
X50672308Y47930456D01*
X50529114Y47840481D01*
X50409519Y47720886D01*
X50319544Y47577692D01*
X50263689Y47418068D01*
X50263687Y47418060D01*
X50244751Y47250000D01*
X200500Y47250000D01*
X200500Y48760004D01*
X89369678Y48760004D01*
X89369678Y48759997D01*
X89388922Y48552310D01*
X89446004Y48351687D01*
X89446006Y48351682D01*
X89538981Y48164961D01*
X89538983Y48164958D01*
X89664680Y47998508D01*
X89664681Y47998507D01*
X89805204Y47870405D01*
X89818829Y47857984D01*
X89996172Y47748177D01*
X90190673Y47672827D01*
X90395707Y47634500D01*
X90395709Y47634500D01*
X90604291Y47634500D01*
X90604293Y47634500D01*
X90809327Y47672827D01*
X91003828Y47748177D01*
X91181171Y47857984D01*
X91335318Y47998507D01*
X91340410Y48005249D01*
X91461016Y48164958D01*
X91461018Y48164961D01*
X91461017Y48164961D01*
X91461019Y48164962D01*
X91553994Y48351681D01*
X91611076Y48552304D01*
X91630322Y48760000D01*
X91630322Y48760004D01*
X91611077Y48967691D01*
X91553995Y49168314D01*
X91553994Y49168319D01*
X91461019Y49355038D01*
X91461018Y49355039D01*
X91461018Y49355040D01*
X91461016Y49355043D01*
X91335319Y49521493D01*
X91335318Y49521494D01*
X91181171Y49662016D01*
X91083795Y49722309D01*
X91003828Y49771823D01*
X90809327Y49847173D01*
X90719277Y49864007D01*
X90604296Y49885500D01*
X90604293Y49885500D01*
X90395707Y49885500D01*
X90395703Y49885500D01*
X90242395Y49856842D01*
X90190673Y49847173D01*
X90190671Y49847173D01*
X90190669Y49847172D01*
X89996177Y49771825D01*
X89996172Y49771823D01*
X89996167Y49771821D01*
X89996167Y49771820D01*
X89818828Y49662016D01*
X89818827Y49662016D01*
X89664681Y49521494D01*
X89664680Y49521493D01*
X89538983Y49355043D01*
X89538981Y49355040D01*
X89446006Y49168319D01*
X89446004Y49168314D01*
X89388922Y48967691D01*
X89369678Y48760004D01*
X200500Y48760004D01*
X200500Y50050000D01*
X54744751Y50050000D01*
X54763687Y49881941D01*
X54763689Y49881933D01*
X54819544Y49722309D01*
X54909519Y49579115D01*
X54909521Y49579113D01*
X54909523Y49579110D01*
X55029110Y49459523D01*
X55029112Y49459522D01*
X55029114Y49459520D01*
X55172308Y49369545D01*
X55172310Y49369544D01*
X55331941Y49313687D01*
X55500000Y49294751D01*
X55668059Y49313687D01*
X55827690Y49369544D01*
X55970890Y49459523D01*
X56072675Y49561309D01*
X56125000Y49582982D01*
X56177324Y49561309D01*
X56279110Y49459523D01*
X56279112Y49459522D01*
X56279114Y49459520D01*
X56422308Y49369545D01*
X56422310Y49369544D01*
X56581941Y49313687D01*
X56750000Y49294751D01*
X56918059Y49313687D01*
X57077690Y49369544D01*
X57220890Y49459523D01*
X57340477Y49579110D01*
X57430456Y49722310D01*
X57486313Y49881941D01*
X57505249Y50050000D01*
X57486313Y50218059D01*
X57430456Y50377690D01*
X57430455Y50377692D01*
X57340480Y50520886D01*
X57340478Y50520888D01*
X57340477Y50520890D01*
X57220890Y50640477D01*
X57220887Y50640479D01*
X57220885Y50640481D01*
X57077691Y50730456D01*
X56918067Y50786311D01*
X56918059Y50786313D01*
X56750000Y50805249D01*
X56581940Y50786313D01*
X56581932Y50786311D01*
X56422308Y50730456D01*
X56279114Y50640481D01*
X56279113Y50640480D01*
X56279110Y50640478D01*
X56279110Y50640477D01*
X56177324Y50538692D01*
X56125000Y50517018D01*
X56072675Y50538692D01*
X55970890Y50640477D01*
X55970887Y50640479D01*
X55970885Y50640481D01*
X55827691Y50730456D01*
X55668067Y50786311D01*
X55668059Y50786313D01*
X55500000Y50805249D01*
X55331940Y50786313D01*
X55331932Y50786311D01*
X55172308Y50730456D01*
X55029114Y50640481D01*
X54909519Y50520886D01*
X54819544Y50377692D01*
X54763689Y50218068D01*
X54763687Y50218060D01*
X54744751Y50050000D01*
X200500Y50050000D01*
X200500Y51500000D01*
X62244751Y51500000D01*
X62263687Y51331941D01*
X62263689Y51331933D01*
X62319544Y51172309D01*
X62403075Y51039371D01*
X62412563Y50983534D01*
X62403075Y50960629D01*
X62319544Y50827692D01*
X62263689Y50668068D01*
X62263687Y50668060D01*
X62244751Y50500000D01*
X62263687Y50331941D01*
X62263689Y50331933D01*
X62319544Y50172309D01*
X62409519Y50029115D01*
X62409521Y50029113D01*
X62409523Y50029110D01*
X62529110Y49909523D01*
X62529112Y49909522D01*
X62529114Y49909520D01*
X62672308Y49819545D01*
X62672310Y49819544D01*
X62778929Y49782237D01*
X62808689Y49771823D01*
X62831941Y49763687D01*
X63000000Y49744751D01*
X63168059Y49763687D01*
X63327690Y49819544D01*
X63470890Y49909523D01*
X63590477Y50029110D01*
X63680456Y50172310D01*
X63736313Y50331941D01*
X63755249Y50500000D01*
X63736313Y50668059D01*
X63680456Y50827690D01*
X63596923Y50960630D01*
X63587436Y51016466D01*
X63596924Y51039371D01*
X63630185Y51092304D01*
X63680456Y51172310D01*
X63725138Y51300004D01*
X89369678Y51300004D01*
X89369678Y51299997D01*
X89388922Y51092310D01*
X89446004Y50891687D01*
X89446006Y50891682D01*
X89538981Y50704961D01*
X89538983Y50704958D01*
X89664680Y50538508D01*
X89664681Y50538507D01*
X89805204Y50410405D01*
X89818829Y50397984D01*
X89996172Y50288177D01*
X90190673Y50212827D01*
X90395707Y50174500D01*
X90395709Y50174500D01*
X90604291Y50174500D01*
X90604293Y50174500D01*
X90809327Y50212827D01*
X91003828Y50288177D01*
X91181171Y50397984D01*
X91335318Y50538507D01*
X91412325Y50640480D01*
X91461016Y50704958D01*
X91461018Y50704961D01*
X91461017Y50704961D01*
X91461019Y50704962D01*
X91553994Y50891681D01*
X91611076Y51092304D01*
X91630322Y51300000D01*
X91627363Y51331933D01*
X91611077Y51507691D01*
X91565449Y51668060D01*
X91553994Y51708319D01*
X91461019Y51895038D01*
X91461018Y51895039D01*
X91461018Y51895040D01*
X91461016Y51895043D01*
X91335319Y52061493D01*
X91335318Y52061494D01*
X91181171Y52202016D01*
X91095197Y52255249D01*
X91003828Y52311823D01*
X90809327Y52387173D01*
X90719277Y52404007D01*
X90604296Y52425500D01*
X90604293Y52425500D01*
X90395707Y52425500D01*
X90395703Y52425500D01*
X90242395Y52396842D01*
X90190673Y52387173D01*
X90190671Y52387173D01*
X90190669Y52387172D01*
X89996177Y52311825D01*
X89996172Y52311823D01*
X89996167Y52311821D01*
X89996167Y52311820D01*
X89818828Y52202016D01*
X89818827Y52202016D01*
X89664681Y52061494D01*
X89664680Y52061493D01*
X89538983Y51895043D01*
X89538981Y51895040D01*
X89446006Y51708319D01*
X89446004Y51708314D01*
X89388922Y51507691D01*
X89369678Y51300004D01*
X63725138Y51300004D01*
X63736313Y51331941D01*
X63755249Y51500000D01*
X63736313Y51668059D01*
X63722225Y51708319D01*
X63680455Y51827692D01*
X63590480Y51970886D01*
X63590478Y51970888D01*
X63590477Y51970890D01*
X63470890Y52090477D01*
X63470887Y52090479D01*
X63470885Y52090481D01*
X63327691Y52180456D01*
X63168067Y52236311D01*
X63168059Y52236313D01*
X63000000Y52255249D01*
X62831940Y52236313D01*
X62831932Y52236311D01*
X62672308Y52180456D01*
X62529114Y52090481D01*
X62409519Y51970886D01*
X62319544Y51827692D01*
X62263689Y51668068D01*
X62263687Y51668060D01*
X62244751Y51500000D01*
X200500Y51500000D01*
X200500Y55097551D01*
X36284500Y55097551D01*
X36284500Y53822450D01*
X36287357Y53780315D01*
X36287357Y53780313D01*
X36287358Y53780308D01*
X36332660Y53598143D01*
X36332661Y53598140D01*
X36332662Y53598138D01*
X36416061Y53429980D01*
X36416063Y53429977D01*
X36416064Y53429975D01*
X36533668Y53283668D01*
X36679975Y53166064D01*
X36848143Y53082660D01*
X37030308Y53037358D01*
X37053296Y53035800D01*
X37072449Y53034500D01*
X37072454Y53034500D01*
X38347551Y53034500D01*
X38365106Y53035691D01*
X38389692Y53037358D01*
X38571857Y53082660D01*
X38740025Y53166064D01*
X38886332Y53283668D01*
X39003936Y53429975D01*
X39087340Y53598143D01*
X39132642Y53780308D01*
X39135500Y53822454D01*
X39135500Y53840004D01*
X89369678Y53840004D01*
X89369678Y53839997D01*
X89388922Y53632310D01*
X89398644Y53598143D01*
X89446006Y53431681D01*
X89492493Y53338322D01*
X89538981Y53244961D01*
X89538983Y53244958D01*
X89664680Y53078508D01*
X89664681Y53078507D01*
X89805204Y52950405D01*
X89818829Y52937984D01*
X89996172Y52828177D01*
X90190673Y52752827D01*
X90395707Y52714500D01*
X90395709Y52714500D01*
X90604291Y52714500D01*
X90604293Y52714500D01*
X90809327Y52752827D01*
X91003828Y52828177D01*
X91181171Y52937984D01*
X91335318Y53078507D01*
X91338457Y53082663D01*
X91461016Y53244958D01*
X91461018Y53244961D01*
X91461017Y53244961D01*
X91461019Y53244962D01*
X91553994Y53431681D01*
X91611076Y53632304D01*
X91624792Y53780315D01*
X91630322Y53839997D01*
X91630322Y53840004D01*
X91611077Y54047691D01*
X91553995Y54248314D01*
X91553994Y54248319D01*
X91461019Y54435038D01*
X91461018Y54435039D01*
X91461018Y54435040D01*
X91461016Y54435043D01*
X91335319Y54601493D01*
X91335318Y54601494D01*
X91181171Y54742016D01*
X91003828Y54851823D01*
X90809327Y54927173D01*
X90719277Y54944007D01*
X90604296Y54965500D01*
X90604293Y54965500D01*
X90395707Y54965500D01*
X90395703Y54965500D01*
X90242395Y54936842D01*
X90190673Y54927173D01*
X90190671Y54927173D01*
X90190669Y54927172D01*
X89996177Y54851825D01*
X89996172Y54851823D01*
X89996167Y54851821D01*
X89996167Y54851820D01*
X89818828Y54742016D01*
X89818827Y54742016D01*
X89664681Y54601494D01*
X89664680Y54601493D01*
X89538983Y54435043D01*
X89538981Y54435040D01*
X89446006Y54248319D01*
X89446004Y54248314D01*
X89388922Y54047691D01*
X89369678Y53840004D01*
X39135500Y53840004D01*
X39135500Y55097546D01*
X39132642Y55139692D01*
X39087340Y55321857D01*
X39003936Y55490025D01*
X38886332Y55636332D01*
X38740025Y55753936D01*
X38740023Y55753937D01*
X38740020Y55753939D01*
X38571862Y55837338D01*
X38571860Y55837339D01*
X38571857Y55837340D01*
X38389692Y55882642D01*
X38389687Y55882643D01*
X38389685Y55882643D01*
X38347551Y55885500D01*
X38347546Y55885500D01*
X37072454Y55885500D01*
X37072449Y55885500D01*
X37030314Y55882643D01*
X37030310Y55882643D01*
X37030308Y55882642D01*
X36848143Y55837340D01*
X36848140Y55837339D01*
X36848137Y55837338D01*
X36679979Y55753939D01*
X36679976Y55753937D01*
X36533669Y55636334D01*
X36533666Y55636331D01*
X36416063Y55490024D01*
X36416061Y55490021D01*
X36332662Y55321863D01*
X36332661Y55321860D01*
X36332660Y55321857D01*
X36287358Y55139692D01*
X36287357Y55139686D01*
X36284500Y55097551D01*
X200500Y55097551D01*
X200500Y56380004D01*
X89369678Y56380004D01*
X89369678Y56379997D01*
X89388922Y56172310D01*
X89446004Y55971687D01*
X89446006Y55971682D01*
X89538981Y55784961D01*
X89538983Y55784958D01*
X89664680Y55618508D01*
X89664681Y55618507D01*
X89805204Y55490405D01*
X89818829Y55477984D01*
X89996172Y55368177D01*
X90190673Y55292827D01*
X90395707Y55254500D01*
X90395709Y55254500D01*
X90604291Y55254500D01*
X90604293Y55254500D01*
X90809327Y55292827D01*
X91003828Y55368177D01*
X91181171Y55477984D01*
X91335318Y55618507D01*
X91348781Y55636334D01*
X91461016Y55784958D01*
X91461018Y55784961D01*
X91461017Y55784961D01*
X91461019Y55784962D01*
X91553994Y55971681D01*
X91611076Y56172304D01*
X91630322Y56380000D01*
X91630322Y56380004D01*
X91611077Y56587691D01*
X91553995Y56788314D01*
X91553994Y56788319D01*
X91461019Y56975038D01*
X91461018Y56975039D01*
X91461018Y56975040D01*
X91461016Y56975043D01*
X91335319Y57141493D01*
X91335318Y57141494D01*
X91181171Y57282016D01*
X91003828Y57391823D01*
X90809327Y57467173D01*
X90719277Y57484007D01*
X90604296Y57505500D01*
X90604293Y57505500D01*
X90395707Y57505500D01*
X90395703Y57505500D01*
X90242395Y57476842D01*
X90190673Y57467173D01*
X90190671Y57467173D01*
X90190669Y57467172D01*
X89996177Y57391825D01*
X89996172Y57391823D01*
X89996167Y57391821D01*
X89996167Y57391820D01*
X89818828Y57282016D01*
X89818827Y57282016D01*
X89664681Y57141494D01*
X89664680Y57141493D01*
X89538983Y56975043D01*
X89538981Y56975040D01*
X89446006Y56788319D01*
X89446004Y56788314D01*
X89388922Y56587691D01*
X89369678Y56380004D01*
X200500Y56380004D01*
X200500Y58920004D01*
X89369678Y58920004D01*
X89369678Y58919997D01*
X89388922Y58712310D01*
X89446004Y58511687D01*
X89446006Y58511682D01*
X89538981Y58324961D01*
X89538983Y58324958D01*
X89664680Y58158508D01*
X89664681Y58158507D01*
X89805204Y58030405D01*
X89818829Y58017984D01*
X89996172Y57908177D01*
X90190673Y57832827D01*
X90395707Y57794500D01*
X90395709Y57794500D01*
X90604291Y57794500D01*
X90604293Y57794500D01*
X90809327Y57832827D01*
X91003828Y57908177D01*
X91181171Y58017984D01*
X91335318Y58158507D01*
X91461019Y58324962D01*
X91553994Y58511681D01*
X91611076Y58712304D01*
X91630322Y58920000D01*
X91630322Y58920004D01*
X91611077Y59127691D01*
X91553995Y59328314D01*
X91553994Y59328319D01*
X91461019Y59515038D01*
X91461018Y59515039D01*
X91461018Y59515040D01*
X91461016Y59515043D01*
X91335319Y59681493D01*
X91335318Y59681494D01*
X91181171Y59822016D01*
X91003828Y59931823D01*
X90809327Y60007173D01*
X90719277Y60024007D01*
X90604296Y60045500D01*
X90604293Y60045500D01*
X90395707Y60045500D01*
X90395703Y60045500D01*
X90242395Y60016842D01*
X90190673Y60007173D01*
X90190671Y60007173D01*
X90190669Y60007172D01*
X89996177Y59931825D01*
X89996172Y59931823D01*
X89996167Y59931821D01*
X89996167Y59931820D01*
X89818828Y59822016D01*
X89818827Y59822016D01*
X89664681Y59681494D01*
X89664680Y59681493D01*
X89538983Y59515043D01*
X89538981Y59515040D01*
X89446006Y59328319D01*
X89446004Y59328314D01*
X89388922Y59127691D01*
X89369678Y58920004D01*
X200500Y58920004D01*
X200500Y63000000D01*
X54744751Y63000000D01*
X54763687Y62831941D01*
X54763689Y62831933D01*
X54819544Y62672309D01*
X54903075Y62539371D01*
X54912563Y62483534D01*
X54903075Y62460629D01*
X54819544Y62327692D01*
X54763689Y62168068D01*
X54763687Y62168060D01*
X54744751Y62000000D01*
X54763687Y61831941D01*
X54763689Y61831933D01*
X54819544Y61672309D01*
X54909519Y61529115D01*
X54909521Y61529113D01*
X54909523Y61529110D01*
X55029110Y61409523D01*
X55029112Y61409522D01*
X55029114Y61409520D01*
X55172308Y61319545D01*
X55172310Y61319544D01*
X55331941Y61263687D01*
X55500000Y61244751D01*
X55668059Y61263687D01*
X55827690Y61319544D01*
X55970890Y61409523D01*
X56021371Y61460004D01*
X89369678Y61460004D01*
X89369678Y61459997D01*
X89388922Y61252310D01*
X89446004Y61051687D01*
X89446006Y61051682D01*
X89538981Y60864961D01*
X89538983Y60864958D01*
X89664680Y60698508D01*
X89664681Y60698507D01*
X89805204Y60570405D01*
X89818829Y60557984D01*
X89996172Y60448177D01*
X90190673Y60372827D01*
X90395707Y60334500D01*
X90395709Y60334500D01*
X90604291Y60334500D01*
X90604293Y60334500D01*
X90809327Y60372827D01*
X91003828Y60448177D01*
X91181171Y60557984D01*
X91335318Y60698507D01*
X91461019Y60864962D01*
X91553994Y61051681D01*
X91611076Y61252304D01*
X91612132Y61263690D01*
X91630322Y61459997D01*
X91630322Y61460004D01*
X91611077Y61667691D01*
X91564347Y61831933D01*
X91553994Y61868319D01*
X91461019Y62055038D01*
X91461018Y62055039D01*
X91461018Y62055040D01*
X91461016Y62055043D01*
X91335319Y62221493D01*
X91335318Y62221494D01*
X91181171Y62362016D01*
X91083795Y62422309D01*
X91003828Y62471823D01*
X90855953Y62529110D01*
X90809330Y62547172D01*
X90809329Y62547173D01*
X90809327Y62547173D01*
X90719277Y62564007D01*
X90604296Y62585500D01*
X90604293Y62585500D01*
X90395707Y62585500D01*
X90395703Y62585500D01*
X90242395Y62556842D01*
X90190673Y62547173D01*
X90190671Y62547173D01*
X90190669Y62547172D01*
X89996177Y62471825D01*
X89996172Y62471823D01*
X89996167Y62471821D01*
X89996167Y62471820D01*
X89818828Y62362016D01*
X89818827Y62362016D01*
X89664681Y62221494D01*
X89664680Y62221493D01*
X89538983Y62055043D01*
X89538981Y62055040D01*
X89446006Y61868319D01*
X89446004Y61868314D01*
X89388922Y61667691D01*
X89369678Y61460004D01*
X56021371Y61460004D01*
X56090477Y61529110D01*
X56180456Y61672310D01*
X56236313Y61831941D01*
X56255249Y62000000D01*
X56236313Y62168059D01*
X56180456Y62327690D01*
X56158887Y62362016D01*
X56150017Y62376133D01*
X56096923Y62460630D01*
X56087436Y62516466D01*
X56096924Y62539371D01*
X56101827Y62547173D01*
X56180456Y62672310D01*
X56236313Y62831941D01*
X56255249Y63000000D01*
X56236313Y63168059D01*
X56180456Y63327690D01*
X56090477Y63470890D01*
X55970890Y63590477D01*
X55970887Y63590479D01*
X55970885Y63590481D01*
X55827691Y63680456D01*
X55668067Y63736311D01*
X55668059Y63736313D01*
X55546585Y63750000D01*
X72744751Y63750000D01*
X72763687Y63581941D01*
X72763689Y63581933D01*
X72819544Y63422309D01*
X72903075Y63289371D01*
X72912563Y63233534D01*
X72903075Y63210629D01*
X72819544Y63077692D01*
X72763689Y62918068D01*
X72763687Y62918060D01*
X72744751Y62750000D01*
X72763687Y62581941D01*
X72763689Y62581933D01*
X72819544Y62422309D01*
X72909519Y62279115D01*
X72909521Y62279113D01*
X72909523Y62279110D01*
X73029110Y62159523D01*
X73029112Y62159522D01*
X73029114Y62159520D01*
X73172308Y62069545D01*
X73172310Y62069544D01*
X73331941Y62013687D01*
X73500000Y61994751D01*
X73668059Y62013687D01*
X73827690Y62069544D01*
X73970890Y62159523D01*
X74090477Y62279110D01*
X74180456Y62422310D01*
X74236313Y62581941D01*
X74255249Y62750000D01*
X74236313Y62918059D01*
X74180456Y63077690D01*
X74096923Y63210630D01*
X74087436Y63266466D01*
X74096924Y63289371D01*
X74099479Y63293436D01*
X74155062Y63381896D01*
X89374499Y63381896D01*
X89384185Y63301247D01*
X89385123Y63293436D01*
X89395759Y63266466D01*
X89440638Y63152659D01*
X89497488Y63077692D01*
X89532078Y63032078D01*
X89652658Y62940639D01*
X89793436Y62885123D01*
X89864764Y62876558D01*
X89881896Y62874500D01*
X89881898Y62874500D01*
X91118104Y62874500D01*
X91133722Y62876376D01*
X91206564Y62885123D01*
X91347342Y62940639D01*
X91467922Y63032078D01*
X91559361Y63152658D01*
X91614877Y63293436D01*
X91625500Y63381898D01*
X91625500Y64618102D01*
X91614877Y64706564D01*
X91559361Y64847342D01*
X91467922Y64967922D01*
X91347342Y65059361D01*
X91347341Y65059362D01*
X91262079Y65092985D01*
X91206564Y65114877D01*
X91177076Y65118418D01*
X91118104Y65125500D01*
X91118102Y65125500D01*
X89881898Y65125500D01*
X89881896Y65125500D01*
X89793436Y65114877D01*
X89652658Y65059362D01*
X89532078Y64967923D01*
X89532077Y64967922D01*
X89440638Y64847342D01*
X89385123Y64706564D01*
X89374500Y64618102D01*
X89374500Y63381898D01*
X89374500Y63381896D01*
X89374499Y63381896D01*
X74155062Y63381896D01*
X74180456Y63422310D01*
X74236313Y63581941D01*
X74255249Y63750000D01*
X74236313Y63918059D01*
X74180456Y64077690D01*
X74090477Y64220890D01*
X73970890Y64340477D01*
X73970887Y64340479D01*
X73970885Y64340481D01*
X73827691Y64430456D01*
X73668067Y64486311D01*
X73668059Y64486313D01*
X73500000Y64505249D01*
X73331940Y64486313D01*
X73331932Y64486311D01*
X73172308Y64430456D01*
X73029114Y64340481D01*
X72909519Y64220886D01*
X72819544Y64077692D01*
X72763689Y63918068D01*
X72763687Y63918060D01*
X72744751Y63750000D01*
X55546585Y63750000D01*
X55500000Y63755249D01*
X55331940Y63736313D01*
X55331932Y63736311D01*
X55172308Y63680456D01*
X55029114Y63590481D01*
X54909519Y63470886D01*
X54819544Y63327692D01*
X54763689Y63168068D01*
X54763687Y63168060D01*
X54744751Y63000000D01*
X200500Y63000000D01*
X200500Y88497092D01*
X200728Y88502898D01*
X216042Y88697485D01*
X217857Y88708948D01*
X262744Y88895915D01*
X266325Y88906936D01*
X339910Y89084587D01*
X345181Y89094929D01*
X345704Y89095782D01*
X445643Y89258869D01*
X452457Y89268248D01*
X577339Y89414465D01*
X585535Y89422661D01*
X731752Y89547543D01*
X741131Y89554357D01*
X905074Y89654821D01*
X915413Y89660090D01*
X1093064Y89733675D01*
X1104085Y89737256D01*
X1291052Y89782143D01*
X1302510Y89783958D01*
X1497103Y89799272D01*
X1502909Y89799500D01*
X1539882Y89799500D01*
X94460118Y89799500D01*
X94497091Y89799500D01*
X94502897Y89799272D01*
G37*
%TD.AperFunction*%
%TD*%
M02*
