M48
; DRILL file {KiCad 8.0.8} date 2025-03-29T16:24:48+0100
; FORMAT={-:-/ absolute / metric / decimal}
; #@! TF.CreationDate,2025-03-29T16:24:48+01:00
; #@! TF.GenerationSoftware,Kicad,Pcbnew,8.0.8
; #@! TF.FileFunction,Plated,1,4,PTH
FMAT,2
METRIC
; #@! TA.AperFunction,Plated,PTH,ViaDrill
T1C0.300
; #@! TA.AperFunction,Plated,PTH,ViaDrill
T2C0.400
; #@! TA.AperFunction,Plated,PTH,ComponentDrill
T3C0.500
; #@! TA.AperFunction,Plated,PTH,ComponentDrill
T4C1.100
; #@! TA.AperFunction,Plated,PTH,ComponentDrill
T5C1.500
; #@! TA.AperFunction,Plated,PTH,ComponentDrill
T6C1.700
; #@! TA.AperFunction,Plated,PTH,ComponentDrill
T7C3.200
%
G90
G05
T1
X69.75Y56.0
X69.75Y54.5
X70.5Y55.25
X71.25Y56.0
X71.25Y54.5
T2
X1.5Y88.5
X1.5Y81.25
X1.5Y74.0
X1.5Y66.75
X1.5Y59.5
X1.5Y52.25
X1.5Y45.0
X1.5Y37.75
X1.5Y30.5
X1.5Y23.25
X1.5Y16.0
X1.5Y8.75
X1.5Y1.5
X9.25Y88.5
X9.25Y1.5
X17.0Y88.5
X17.0Y1.5
X24.75Y88.5
X24.75Y1.5
X30.5Y67.5
X30.5Y65.0
X30.5Y62.5
X30.5Y60.0
X30.5Y57.5
X30.5Y55.0
X30.5Y52.5
X30.5Y50.0
X30.5Y47.5
X30.5Y45.0
X30.5Y42.5
X32.5Y88.5
X32.5Y1.5
X33.0Y67.5
X33.0Y42.5
X35.5Y67.5
X35.5Y42.5
X38.0Y67.5
X38.0Y42.5
X40.25Y88.5
X40.25Y1.5
X40.5Y67.5
X40.5Y42.5
X43.0Y67.5
X43.0Y55.75
X43.0Y53.0
X43.0Y52.0
X43.0Y42.5
X45.5Y67.5
X45.5Y42.5
X46.25Y55.75
X46.25Y53.0
X46.25Y52.0
X48.0Y88.5
X48.0Y67.5
X48.0Y42.5
X48.0Y1.5
X48.5Y51.5
X49.5Y51.5
X50.5Y67.5
X50.5Y42.5
X51.0Y47.25
X51.0Y46.25
X52.75Y55.5
X53.0Y67.5
X53.0Y42.5
X53.25Y60.75
X53.25Y59.75
X53.25Y52.0
X55.5Y67.5
X55.5Y63.0
X55.5Y62.0
X55.5Y50.05
X55.5Y42.5
X55.75Y88.5
X55.75Y1.5
X56.25Y53.0
X56.25Y52.0
X56.75Y50.05
X57.5Y58.75
X57.5Y55.75
X58.0Y67.5
X58.0Y42.5
X59.25Y53.0
X59.25Y52.0
X60.0Y64.5
X60.0Y58.75
X60.0Y55.75
X60.5Y67.5
X60.5Y42.5
X61.25Y64.5
X62.5Y58.75
X62.5Y55.75
X63.0Y67.5
X63.0Y51.5
X63.0Y50.5
X63.0Y42.5
X63.5Y88.5
X63.5Y1.5
X65.25Y51.25
X65.25Y50.25
X65.5Y67.5
X65.5Y42.5
X66.0Y59.5
X66.25Y48.0
X66.25Y45.75
X66.75Y50.5
X67.0Y60.25
X67.0Y59.0
X67.3Y45.75
X67.35Y48.0
X67.75Y50.5
X68.0Y67.5
X68.0Y52.0
X68.0Y42.5
X68.5Y57.25
X70.5Y67.5
X70.5Y50.0
X70.5Y49.0
X70.5Y42.5
X70.75Y45.75
X71.25Y88.5
X71.25Y1.5
X71.75Y45.75
X73.0Y67.5
X73.0Y42.5
X73.5Y63.75
X73.5Y62.75
X75.5Y67.5
X75.5Y65.0
X75.5Y62.5
X75.5Y60.0
X75.5Y57.5
X75.5Y50.0
X75.5Y47.5
X75.5Y45.0
X75.5Y42.5
X79.0Y88.5
X79.0Y1.5
X80.0Y57.5
X80.0Y55.0
X80.0Y52.5
X82.5Y60.0
X82.5Y57.5
X82.5Y55.0
X82.5Y52.5
X82.5Y50.0
X85.0Y60.0
X85.0Y57.5
X85.0Y55.0
X85.0Y52.5
X85.0Y50.0
X86.75Y88.5
X86.75Y1.5
X87.5Y60.0
X87.5Y57.5
X87.5Y55.0
X87.5Y52.5
X87.5Y50.0
X94.5Y88.5
X94.5Y81.25
X94.5Y74.0
X94.5Y66.75
X94.5Y59.5
X94.5Y52.25
X94.5Y45.0
X94.5Y37.75
X94.5Y30.5
X94.5Y23.25
X94.5Y16.0
X94.5Y8.75
X94.5Y1.5
T3
X3.1Y84.5
X3.1Y5.5
X3.803Y86.197
X3.803Y82.803
X3.803Y7.197
X3.803Y3.803
X5.5Y86.9
X5.5Y82.1
X5.5Y7.9
X5.5Y3.1
X7.197Y86.197
X7.197Y82.803
X7.197Y7.197
X7.197Y3.803
X7.9Y84.5
X7.9Y5.5
X88.1Y84.5
X88.1Y5.5
X88.803Y86.197
X88.803Y82.803
X88.803Y7.197
X88.803Y3.803
X90.5Y86.9
X90.5Y82.1
X90.5Y7.9
X90.5Y3.1
X92.197Y86.197
X92.197Y82.803
X92.197Y7.197
X92.197Y3.803
X92.9Y84.5
X92.9Y5.5
T4
X90.5Y64.0
X90.5Y61.46
X90.5Y58.92
X90.5Y56.38
X90.5Y53.84
X90.5Y51.3
X90.5Y48.76
X90.5Y46.22
T5
X37.71Y54.46
T6
X35.17Y57.0
X35.17Y51.92
X40.25Y57.0
X40.25Y51.92
T7
X5.5Y84.5
X5.5Y5.5
X90.5Y84.5
X90.5Y5.5
M30
