%TF.GenerationSoftware,KiCad,Pcbnew,8.0.8*%
%TF.CreationDate,2025-03-28T17:24:47+01:00*%
%TF.ProjectId,mcu,6d63752e-6b69-4636-9164-5f7063625858,rev?*%
%TF.SameCoordinates,PX47868c0PY8583b00*%
%TF.FileFunction,Copper,L2,Inr*%
%TF.FilePolarity,Positive*%
%FSLAX46Y46*%
G04 Gerber Fmt 4.6, Leading zero omitted, Abs format (unit mm)*
G04 Created by KiCad (PCBNEW 8.0.8) date 2025-03-28 17:24:47*
%MOMM*%
%LPD*%
G01*
G04 APERTURE LIST*
G04 Aperture macros list*
%AMRoundRect*
0 Rectangle with rounded corners*
0 $1 Rounding radius*
0 $2 $3 $4 $5 $6 $7 $8 $9 X,Y pos of 4 corners*
0 Add a 4 corners polygon primitive as box body*
4,1,4,$2,$3,$4,$5,$6,$7,$8,$9,$2,$3,0*
0 Add four circle primitives for the rounded corners*
1,1,$1+$1,$2,$3*
1,1,$1+$1,$4,$5*
1,1,$1+$1,$6,$7*
1,1,$1+$1,$8,$9*
0 Add four rect primitives between the rounded corners*
20,1,$1+$1,$2,$3,$4,$5,0*
20,1,$1+$1,$4,$5,$6,$7,0*
20,1,$1+$1,$6,$7,$8,$9,0*
20,1,$1+$1,$8,$9,$2,$3,0*%
G04 Aperture macros list end*
%TA.AperFunction,ComponentPad*%
%ADD10O,1.900000X1.100000*%
%TD*%
%TA.AperFunction,ComponentPad*%
%ADD11C,1.250000*%
%TD*%
%TA.AperFunction,ComponentPad*%
%ADD12RoundRect,0.250000X-0.552500X0.552500X-0.552500X-0.552500X0.552500X-0.552500X0.552500X0.552500X0*%
%TD*%
%TA.AperFunction,ComponentPad*%
%ADD13C,1.605000*%
%TD*%
%TA.AperFunction,ComponentPad*%
%ADD14RoundRect,0.250000X0.500000X-0.500000X0.500000X0.500000X-0.500000X0.500000X-0.500000X-0.500000X0*%
%TD*%
%TA.AperFunction,ComponentPad*%
%ADD15C,1.500000*%
%TD*%
%TA.AperFunction,ComponentPad*%
%ADD16C,0.800000*%
%TD*%
%TA.AperFunction,ComponentPad*%
%ADD17C,6.400000*%
%TD*%
%TA.AperFunction,ComponentPad*%
%ADD18RoundRect,0.250000X-0.537500X-0.537500X0.537500X-0.537500X0.537500X0.537500X-0.537500X0.537500X0*%
%TD*%
%TA.AperFunction,ComponentPad*%
%ADD19C,1.575000*%
%TD*%
%TA.AperFunction,ViaPad*%
%ADD20C,0.900000*%
%TD*%
G04 APERTURE END LIST*
D10*
%TO.N,GND*%
%TO.C,J3*%
X2250000Y63050000D03*
D11*
X4900000Y64050000D03*
X4900000Y69250000D03*
D10*
X2250000Y70250000D03*
%TD*%
D12*
%TO.N,+3V3*%
%TO.C,J2*%
X7000000Y36700000D03*
D13*
%TO.N,/SWCLK*%
X7000000Y34160000D03*
%TO.N,GND*%
X7000000Y31620000D03*
%TO.N,/SWDIO*%
X7000000Y29080000D03*
%TO.N,/NRST*%
X7000000Y26540000D03*
%TO.N,/TRACE*%
X7000000Y24000000D03*
%TD*%
D14*
%TO.N,/ADC_VBUS*%
%TO.C,J1*%
X90500000Y25950000D03*
D15*
%TO.N,/FLT{slash}*%
X90500000Y28490000D03*
%TO.N,/CAM_SDA*%
X90500000Y31030000D03*
%TO.N,/CAM_SCL*%
X90500000Y33570000D03*
%TO.N,/INT_N*%
X90500000Y36110000D03*
%TO.N,/CC1*%
X90500000Y38650000D03*
%TO.N,/CC2*%
X90500000Y41190000D03*
%TO.N,/NTC_2+*%
X90500000Y43730000D03*
%TO.N,+3V3*%
X90500000Y46270000D03*
%TO.N,/nSEL*%
X90500000Y48810000D03*
%TO.N,/SDI*%
X90500000Y51350000D03*
%TO.N,/SDO*%
X90500000Y53890000D03*
%TO.N,/SCLK*%
X90500000Y56430000D03*
%TO.N,/nIRQ*%
X90500000Y58970000D03*
%TO.N,/COMMAND_DONE*%
X90500000Y61510000D03*
%TO.N,GND*%
X90500000Y64050000D03*
%TD*%
D16*
%TO.N,GND*%
%TO.C,H2*%
X88100000Y84500000D03*
X88802944Y86197056D03*
X88802944Y82802944D03*
X90500000Y86900000D03*
D17*
X90500000Y84500000D03*
D16*
X90500000Y82100000D03*
X92197056Y86197056D03*
X92197056Y82802944D03*
X92900000Y84500000D03*
%TD*%
%TO.N,GND*%
%TO.C,H1*%
X3100000Y84500000D03*
X3802944Y86197056D03*
X3802944Y82802944D03*
X5500000Y86900000D03*
D17*
X5500000Y84500000D03*
D16*
X5500000Y82100000D03*
X7197056Y86197056D03*
X7197056Y82802944D03*
X7900000Y84500000D03*
%TD*%
%TO.N,GND*%
%TO.C,H3*%
X88100000Y5500000D03*
X88802944Y7197056D03*
X88802944Y3802944D03*
X90500000Y7900000D03*
D17*
X90500000Y5500000D03*
D16*
X90500000Y3100000D03*
X92197056Y7197056D03*
X92197056Y3802944D03*
X92900000Y5500000D03*
%TD*%
%TO.N,GND*%
%TO.C,H4*%
X3100000Y5500000D03*
X3802944Y7197056D03*
X3802944Y3802944D03*
X5500000Y7900000D03*
D17*
X5500000Y5500000D03*
D16*
X5500000Y3100000D03*
X7197056Y7197056D03*
X7197056Y3802944D03*
X7900000Y5500000D03*
%TD*%
D18*
%TO.N,/3V3*%
%TO.C,J4*%
X58000000Y35040000D03*
D19*
%TO.N,+3V3*%
X58000000Y32500000D03*
%TO.N,/CAM_SDA*%
X55460000Y35040000D03*
%TO.N,/CAM_SCL*%
X55460000Y32500000D03*
%TO.N,/HS*%
X52920000Y35040000D03*
%TO.N,/VS*%
X52920000Y32500000D03*
%TO.N,/MCLK*%
X50380000Y35040000D03*
%TO.N,/PCLK*%
X50380000Y32500000D03*
%TO.N,/D6*%
X47840000Y35040000D03*
%TO.N,/D7*%
X47840000Y32500000D03*
%TO.N,/D4*%
X45300000Y35040000D03*
%TO.N,/D5*%
X45300000Y32500000D03*
%TO.N,/D2*%
X42760000Y35040000D03*
%TO.N,/D3*%
X42760000Y32500000D03*
%TO.N,/D0*%
X40220000Y35040000D03*
%TO.N,/D1*%
X40220000Y32500000D03*
%TO.N,/PWDN*%
X37680000Y35040000D03*
%TO.N,/RST*%
X37680000Y32500000D03*
%TD*%
D20*
%TO.N,GND*%
X73000000Y70000000D03*
X63500000Y1500000D03*
X48250000Y52000000D03*
X79500000Y27250000D03*
X87750000Y40000000D03*
X1500000Y8750000D03*
X54500000Y71750000D03*
X27500000Y48250000D03*
X57000000Y40500000D03*
X1500000Y30500000D03*
X46500000Y29000000D03*
X10500000Y43500000D03*
X79000000Y1500000D03*
X71250000Y88500000D03*
X24750000Y1500000D03*
X95000000Y66750000D03*
X95000000Y52250000D03*
X11750000Y43500000D03*
X20000000Y60000000D03*
X47250000Y46000000D03*
X65000000Y74250000D03*
X54000000Y51500000D03*
X54500000Y70750000D03*
X55750000Y1500000D03*
X32500000Y67500000D03*
X38750000Y48250000D03*
X38750000Y40750000D03*
X52750000Y65500000D03*
X43500000Y61250000D03*
X41500000Y62500000D03*
X64250000Y58750000D03*
X54000000Y40500000D03*
X79500000Y42500000D03*
X87750000Y60250000D03*
X19000000Y64250000D03*
X86750000Y1500000D03*
X1500000Y81250000D03*
X58500000Y58730000D03*
X49250000Y29000000D03*
X1500000Y74000000D03*
X1500000Y59500000D03*
X86750000Y88500000D03*
X28500000Y22750000D03*
X87750000Y47500000D03*
X48000000Y88500000D03*
X71250000Y1500000D03*
X57000000Y68250000D03*
X70000000Y77500000D03*
X95000000Y59500000D03*
X40250000Y88500000D03*
X49250000Y26500000D03*
X27500000Y55000000D03*
X94500000Y74000000D03*
X76500000Y70000000D03*
X94500000Y30500000D03*
X79500000Y32250000D03*
X42250000Y38750000D03*
X75000000Y80000000D03*
X79500000Y55750000D03*
X27500000Y57750000D03*
X16500000Y68250000D03*
X94500000Y45000000D03*
X57000000Y41500000D03*
X31750000Y30000000D03*
X9250000Y66950000D03*
X48250000Y50750000D03*
X61000000Y65000000D03*
X21250000Y57500000D03*
X25000000Y22750000D03*
X79500000Y38750000D03*
X94500000Y23250000D03*
X42250000Y39750000D03*
X17000000Y1500000D03*
X17000000Y88500000D03*
X87750000Y65750000D03*
X2500000Y37750000D03*
X50750000Y45000000D03*
X94500000Y37750000D03*
X38750000Y41750000D03*
X1500000Y52250000D03*
X1500000Y45000000D03*
X54000000Y41500000D03*
X48000000Y1500000D03*
X36250000Y52500000D03*
X66250000Y74250000D03*
X87750000Y37250000D03*
X27500000Y62000000D03*
X87750000Y32250000D03*
X54250000Y29000000D03*
X46500000Y26500000D03*
X87750000Y34750000D03*
X57000000Y69250000D03*
X72500000Y82500000D03*
X48000000Y46750000D03*
X94500000Y8750000D03*
X52750000Y64500000D03*
X20000000Y62250000D03*
X87750000Y27250000D03*
X87750000Y54000000D03*
X40750000Y71250000D03*
X41250000Y27500000D03*
X83000000Y64250000D03*
X9250000Y88500000D03*
X79500000Y49750000D03*
X8250000Y66950000D03*
X79500000Y29750000D03*
X44500000Y61250000D03*
X28500000Y64500000D03*
X55750000Y88500000D03*
X10000000Y31620000D03*
X23250000Y55750000D03*
X72750000Y75250000D03*
X94500000Y16000000D03*
X22500000Y65000000D03*
X58000000Y40500000D03*
X24750000Y88500000D03*
X79000000Y88500000D03*
X32500000Y1500000D03*
X16500000Y65500000D03*
X54750000Y50750000D03*
X77500000Y77500000D03*
X64250000Y55000000D03*
X31750000Y27500000D03*
X39750000Y71250000D03*
X62000000Y65000000D03*
X37750000Y52500000D03*
X79500000Y35500000D03*
X9250000Y1500000D03*
X44000000Y29000000D03*
X27500000Y61000000D03*
X1500000Y66750000D03*
X25000000Y25750000D03*
X87750000Y29750000D03*
X1500000Y88500000D03*
X1500000Y16000000D03*
X80000000Y75000000D03*
X11000000Y31620000D03*
X27500000Y67500000D03*
X94500000Y1500000D03*
X32500000Y88500000D03*
X75250000Y72750000D03*
X20000000Y67500000D03*
X94500000Y88500000D03*
X40250000Y1500000D03*
X63500000Y88500000D03*
X1500000Y1500000D03*
X23500000Y62500000D03*
X2500000Y23250000D03*
X27500000Y45000000D03*
X59500000Y58730000D03*
X94500000Y81250000D03*
%TO.N,+3V3*%
X63000000Y61046000D03*
X14000000Y36800000D03*
X39000000Y52250000D03*
X51250000Y71000000D03*
X52500000Y72000000D03*
X65750000Y68500000D03*
X35500000Y69250000D03*
X62000000Y61046000D03*
X55000000Y52500000D03*
X15250000Y36800000D03*
X55000000Y53500000D03*
X66750000Y68500000D03*
X36500000Y69250000D03*
X62000000Y58750000D03*
X39000000Y53250000D03*
X61000000Y58750000D03*
X57250000Y29750000D03*
X58500000Y29750000D03*
%TO.N,/NRST*%
X18000000Y30950000D03*
X17000000Y26540000D03*
X62000000Y63500000D03*
X17000000Y30950000D03*
X17960000Y26540000D03*
X61000000Y63500000D03*
%TO.N,/TRACE*%
X19250000Y32250000D03*
X20250000Y32250000D03*
X19250000Y24000000D03*
X20250000Y24000000D03*
%TO.N,/D4*%
X43500000Y57000000D03*
X44500000Y57000000D03*
%TO.N,/D1*%
X32750000Y41750000D03*
X32750000Y61000000D03*
X32750000Y40750000D03*
X33750000Y61000000D03*
%TO.N,/D3*%
X31500000Y60000000D03*
X31500000Y40750000D03*
X31500000Y41750000D03*
X31500000Y61000000D03*
%TO.N,/D0*%
X35750000Y62250000D03*
X34750000Y62250000D03*
%TO.N,/FLT{slash}*%
X60500000Y77500000D03*
X59500000Y77500000D03*
%TO.N,/D5*%
X27250000Y30000000D03*
X27250000Y31000000D03*
%TO.N,/CAM_SCL*%
X42750000Y67250000D03*
X61250000Y52750000D03*
X61250000Y51750000D03*
X42750000Y66250000D03*
%TO.N,/MCLK*%
X44500000Y59500000D03*
X43500000Y59500000D03*
%TO.N,/D2*%
X42000000Y60500000D03*
X41000000Y60500000D03*
%TO.N,/COMMAND_DONE*%
X66250000Y79000000D03*
X67250000Y79000000D03*
%TO.N,/PWDN*%
X35500000Y64500000D03*
X36500000Y64500000D03*
%TO.N,/D6*%
X50500000Y47750000D03*
X50500000Y46750000D03*
%TO.N,/PCLK*%
X50750000Y65000000D03*
X50750000Y66000000D03*
%TO.N,/SDO*%
X89000000Y68250000D03*
X89750000Y67500000D03*
%TO.N,/RST*%
X36500000Y66000000D03*
X35500000Y66000000D03*
%TO.N,/ADC_VBUS*%
X49750000Y67500000D03*
X48750000Y67500000D03*
%TO.N,/CAM_SDA*%
X58250000Y48250000D03*
X41500000Y66250000D03*
X57249997Y48250000D03*
X41500000Y67250000D03*
%TO.N,/NTC_2+*%
X66500000Y70000000D03*
X65500000Y70000000D03*
%TO.N,/nIRQ*%
X62750000Y80500000D03*
X61500000Y80500000D03*
%TO.N,/HS*%
X51750000Y57250000D03*
X51750000Y56250000D03*
%TO.N,/CAM_3V3*%
X54000000Y44750000D03*
X41500000Y64000000D03*
X42750000Y64000000D03*
X54000000Y43750000D03*
%TD*%
%TA.AperFunction,Conductor*%
%TO.N,GND*%
G36*
X94502897Y89799272D02*
G01*
X94697487Y89783958D01*
X94708949Y89782142D01*
X94895910Y89737257D01*
X94906938Y89733674D01*
X95070200Y89666049D01*
X95084582Y89660091D01*
X95094928Y89654819D01*
X95258860Y89554362D01*
X95268254Y89547537D01*
X95414456Y89422668D01*
X95422667Y89414457D01*
X95547536Y89268255D01*
X95554361Y89258861D01*
X95654818Y89094929D01*
X95660090Y89084583D01*
X95733670Y88906947D01*
X95737258Y88895903D01*
X95782140Y88708954D01*
X95783957Y88697485D01*
X95799272Y88502898D01*
X95799500Y88497092D01*
X95799500Y1502909D01*
X95799272Y1497103D01*
X95783957Y1302516D01*
X95782140Y1291047D01*
X95737258Y1104098D01*
X95733670Y1093054D01*
X95660090Y915418D01*
X95654818Y905072D01*
X95554361Y741140D01*
X95547536Y731746D01*
X95422667Y585544D01*
X95414456Y577333D01*
X95268254Y452464D01*
X95258860Y445639D01*
X95094928Y345182D01*
X95084582Y339910D01*
X94906946Y266330D01*
X94895902Y262742D01*
X94708953Y217860D01*
X94697484Y216043D01*
X94502897Y200728D01*
X94497091Y200500D01*
X1502909Y200500D01*
X1497103Y200728D01*
X1302515Y216043D01*
X1291046Y217860D01*
X1104097Y262742D01*
X1093053Y266330D01*
X915417Y339910D01*
X905071Y345182D01*
X741139Y445639D01*
X731745Y452464D01*
X585543Y577333D01*
X577332Y585544D01*
X452463Y731746D01*
X445638Y741140D01*
X345181Y905072D01*
X339909Y915418D01*
X333951Y929800D01*
X266326Y1093062D01*
X262743Y1104090D01*
X217858Y1291051D01*
X216042Y1302516D01*
X200728Y1497103D01*
X200500Y1502909D01*
X200500Y22225500D01*
X222174Y22277826D01*
X274500Y22299500D01*
X1059311Y22299500D01*
X1059311Y22299501D01*
X1173886Y22330201D01*
X1276613Y22389511D01*
X1360489Y22473387D01*
X1419799Y22576114D01*
X1450499Y22690689D01*
X1450500Y22690689D01*
X1450500Y23559311D01*
X1450499Y23559312D01*
X1419800Y23673883D01*
X1419798Y23673888D01*
X1360491Y23776610D01*
X1360490Y23776611D01*
X1360489Y23776613D01*
X1276613Y23860489D01*
X1276610Y23860491D01*
X1276609Y23860492D01*
X1173887Y23919799D01*
X1173882Y23919801D01*
X1059311Y23950500D01*
X1059309Y23950500D01*
X1039882Y23950500D01*
X274500Y23950500D01*
X222174Y23972174D01*
X210647Y24000004D01*
X5892275Y24000004D01*
X5892275Y23999997D01*
X5911134Y23796468D01*
X5911136Y23796455D01*
X5956668Y23636426D01*
X5967077Y23599844D01*
X6002296Y23529115D01*
X6058193Y23416857D01*
X6058195Y23416854D01*
X6181379Y23253731D01*
X6181380Y23253730D01*
X6319094Y23128189D01*
X6332447Y23116016D01*
X6506244Y23008405D01*
X6696857Y22934562D01*
X6897792Y22897000D01*
X7102208Y22897000D01*
X7303143Y22934562D01*
X7493756Y23008405D01*
X7667553Y23116016D01*
X7818619Y23253730D01*
X7826141Y23263690D01*
X7941804Y23416854D01*
X7941806Y23416857D01*
X7941805Y23416857D01*
X7941807Y23416858D01*
X8032923Y23599844D01*
X8088864Y23796456D01*
X8094279Y23854903D01*
X8107725Y23999997D01*
X8107725Y24000000D01*
X18494751Y24000000D01*
X18513687Y23831941D01*
X18513689Y23831933D01*
X18569544Y23672309D01*
X18659519Y23529115D01*
X18659521Y23529113D01*
X18659523Y23529110D01*
X18779110Y23409523D01*
X18779112Y23409522D01*
X18779114Y23409520D01*
X18789370Y23403076D01*
X18922310Y23319544D01*
X19081941Y23263687D01*
X19250000Y23244751D01*
X19418059Y23263687D01*
X19577690Y23319544D01*
X19710629Y23403077D01*
X19766466Y23412564D01*
X19789368Y23403077D01*
X19922310Y23319544D01*
X20081941Y23263687D01*
X20250000Y23244751D01*
X20418059Y23263687D01*
X20577690Y23319544D01*
X20720890Y23409523D01*
X20840477Y23529110D01*
X20930456Y23672310D01*
X20986313Y23831941D01*
X21005249Y24000000D01*
X20986313Y24168059D01*
X20930456Y24327690D01*
X20930455Y24327692D01*
X20840480Y24470886D01*
X20840478Y24470888D01*
X20840477Y24470890D01*
X20720890Y24590477D01*
X20720887Y24590479D01*
X20720885Y24590481D01*
X20577691Y24680456D01*
X20418067Y24736311D01*
X20418059Y24736313D01*
X20250000Y24755249D01*
X20081940Y24736313D01*
X20081932Y24736311D01*
X19922308Y24680456D01*
X19789371Y24596925D01*
X19733534Y24587437D01*
X19710629Y24596925D01*
X19577691Y24680456D01*
X19418067Y24736311D01*
X19418059Y24736313D01*
X19250000Y24755249D01*
X19081940Y24736313D01*
X19081932Y24736311D01*
X18922308Y24680456D01*
X18779114Y24590481D01*
X18659519Y24470886D01*
X18569544Y24327692D01*
X18513689Y24168068D01*
X18513687Y24168060D01*
X18494751Y24000000D01*
X8107725Y24000000D01*
X8107725Y24000004D01*
X8088865Y24203533D01*
X8088864Y24203544D01*
X8032923Y24400156D01*
X7941807Y24583142D01*
X7941806Y24583143D01*
X7941806Y24583144D01*
X7941804Y24583147D01*
X7818620Y24746270D01*
X7818619Y24746271D01*
X7667553Y24883984D01*
X7625337Y24910123D01*
X7493756Y24991595D01*
X7493751Y24991597D01*
X7303145Y25065438D01*
X7102211Y25103000D01*
X7102208Y25103000D01*
X6897792Y25103000D01*
X6897788Y25103000D01*
X6696854Y25065438D01*
X6506248Y24991597D01*
X6506239Y24991592D01*
X6332446Y24883984D01*
X6332445Y24883984D01*
X6181380Y24746271D01*
X6181379Y24746270D01*
X6058195Y24583147D01*
X6058193Y24583144D01*
X5967077Y24400156D01*
X5967075Y24400151D01*
X5911136Y24203546D01*
X5911134Y24203533D01*
X5892275Y24000004D01*
X210647Y24000004D01*
X200500Y24024500D01*
X200500Y25406896D01*
X89449499Y25406896D01*
X89460123Y25318437D01*
X89515638Y25177659D01*
X89515639Y25177658D01*
X89607078Y25057078D01*
X89727658Y24965639D01*
X89868436Y24910123D01*
X89939764Y24901558D01*
X89956896Y24899500D01*
X89956898Y24899500D01*
X91043104Y24899500D01*
X91058722Y24901376D01*
X91131564Y24910123D01*
X91272342Y24965639D01*
X91392922Y25057078D01*
X91484361Y25177658D01*
X91539877Y25318436D01*
X91550500Y25406898D01*
X91550500Y26493102D01*
X91539877Y26581564D01*
X91484361Y26722342D01*
X91392922Y26842922D01*
X91272342Y26934361D01*
X91272341Y26934362D01*
X91187079Y26967985D01*
X91131564Y26989877D01*
X91102076Y26993418D01*
X91043104Y27000500D01*
X91043102Y27000500D01*
X89956898Y27000500D01*
X89956896Y27000500D01*
X89868436Y26989877D01*
X89727658Y26934362D01*
X89607078Y26842923D01*
X89607077Y26842922D01*
X89515638Y26722342D01*
X89510006Y26708059D01*
X89460123Y26581564D01*
X89449500Y26493102D01*
X89449500Y25406898D01*
X89449500Y25406896D01*
X89449499Y25406896D01*
X200500Y25406896D01*
X200500Y26540004D01*
X5892275Y26540004D01*
X5892275Y26539997D01*
X5911134Y26336468D01*
X5911136Y26336455D01*
X5967075Y26139850D01*
X5967077Y26139845D01*
X6058193Y25956857D01*
X6058195Y25956854D01*
X6181379Y25793731D01*
X6181380Y25793730D01*
X6319094Y25668189D01*
X6332447Y25656016D01*
X6506244Y25548405D01*
X6696857Y25474562D01*
X6897792Y25437000D01*
X7102208Y25437000D01*
X7303143Y25474562D01*
X7493756Y25548405D01*
X7667553Y25656016D01*
X7818619Y25793730D01*
X7826141Y25803690D01*
X7941804Y25956854D01*
X7941806Y25956857D01*
X7941805Y25956857D01*
X7941807Y25956858D01*
X8032923Y26139844D01*
X8088864Y26336456D01*
X8107725Y26540000D01*
X16244751Y26540000D01*
X16263687Y26371941D01*
X16263689Y26371933D01*
X16319544Y26212309D01*
X16409519Y26069115D01*
X16409521Y26069113D01*
X16409523Y26069110D01*
X16529110Y25949523D01*
X16529112Y25949522D01*
X16529114Y25949520D01*
X16544270Y25939997D01*
X16672310Y25859544D01*
X16831941Y25803687D01*
X17000000Y25784751D01*
X17168059Y25803687D01*
X17327690Y25859544D01*
X17440629Y25930510D01*
X17496466Y25939997D01*
X17519369Y25930510D01*
X17632310Y25859544D01*
X17791941Y25803687D01*
X17960000Y25784751D01*
X18128059Y25803687D01*
X18287690Y25859544D01*
X18430890Y25949523D01*
X18550477Y26069110D01*
X18640456Y26212310D01*
X18696313Y26371941D01*
X18715249Y26540000D01*
X18696313Y26708059D01*
X18640456Y26867690D01*
X18598563Y26934362D01*
X18550480Y27010886D01*
X18550478Y27010888D01*
X18550477Y27010890D01*
X18430890Y27130477D01*
X18430887Y27130479D01*
X18430885Y27130481D01*
X18287691Y27220456D01*
X18128067Y27276311D01*
X18128059Y27276313D01*
X17960000Y27295249D01*
X17791940Y27276313D01*
X17791932Y27276311D01*
X17632308Y27220456D01*
X17519371Y27149492D01*
X17463534Y27140004D01*
X17440629Y27149492D01*
X17327691Y27220456D01*
X17168067Y27276311D01*
X17168059Y27276313D01*
X17000000Y27295249D01*
X16831940Y27276313D01*
X16831932Y27276311D01*
X16672308Y27220456D01*
X16529114Y27130481D01*
X16409519Y27010886D01*
X16319544Y26867692D01*
X16263689Y26708068D01*
X16263687Y26708060D01*
X16244751Y26540000D01*
X8107725Y26540000D01*
X8088864Y26743544D01*
X8032923Y26940156D01*
X7941807Y27123142D01*
X7941806Y27123143D01*
X7941806Y27123144D01*
X7941804Y27123147D01*
X7818620Y27286270D01*
X7818619Y27286271D01*
X7667553Y27423984D01*
X7617945Y27454700D01*
X7493756Y27531595D01*
X7493751Y27531597D01*
X7303145Y27605438D01*
X7102211Y27643000D01*
X7102208Y27643000D01*
X6897792Y27643000D01*
X6897788Y27643000D01*
X6696854Y27605438D01*
X6506248Y27531597D01*
X6506239Y27531592D01*
X6332446Y27423984D01*
X6332445Y27423984D01*
X6181380Y27286271D01*
X6181379Y27286270D01*
X6058195Y27123147D01*
X6058193Y27123144D01*
X5967077Y26940156D01*
X5967075Y26940151D01*
X5911136Y26743546D01*
X5911134Y26743533D01*
X5892275Y26540004D01*
X200500Y26540004D01*
X200500Y29080004D01*
X5892275Y29080004D01*
X5892275Y29079997D01*
X5911134Y28876468D01*
X5911136Y28876455D01*
X5967075Y28679850D01*
X5967077Y28679845D01*
X6058193Y28496857D01*
X6058195Y28496854D01*
X6181379Y28333731D01*
X6181380Y28333730D01*
X6235860Y28284066D01*
X6332447Y28196016D01*
X6506244Y28088405D01*
X6696857Y28014562D01*
X6897792Y27977000D01*
X7102208Y27977000D01*
X7303143Y28014562D01*
X7493756Y28088405D01*
X7667553Y28196016D01*
X7818619Y28333730D01*
X7936628Y28490000D01*
X89444417Y28490000D01*
X89464700Y28284066D01*
X89524768Y28086046D01*
X89622315Y27903550D01*
X89753590Y27743590D01*
X89913550Y27612315D01*
X90096046Y27514768D01*
X90294066Y27454700D01*
X90500000Y27434417D01*
X90705934Y27454700D01*
X90903954Y27514768D01*
X91086450Y27612315D01*
X91246410Y27743590D01*
X91377685Y27903550D01*
X91475232Y28086046D01*
X91535300Y28284066D01*
X91555583Y28490000D01*
X91535300Y28695934D01*
X91475232Y28893954D01*
X91377685Y29076450D01*
X91246410Y29236410D01*
X91236246Y29244751D01*
X91086450Y29367685D01*
X90903956Y29465231D01*
X90903955Y29465232D01*
X90903954Y29465232D01*
X90792158Y29499145D01*
X90705935Y29525300D01*
X90500000Y29545583D01*
X90294064Y29525300D01*
X90096043Y29465231D01*
X89913549Y29367685D01*
X89753590Y29236411D01*
X89753589Y29236410D01*
X89622315Y29076451D01*
X89524769Y28893957D01*
X89464700Y28695936D01*
X89464700Y28695934D01*
X89444417Y28490000D01*
X7936628Y28490000D01*
X7941807Y28496858D01*
X8032923Y28679844D01*
X8088864Y28876456D01*
X8107725Y29080000D01*
X8100356Y29159520D01*
X8088865Y29283533D01*
X8088864Y29283544D01*
X8032923Y29480156D01*
X7941807Y29663142D01*
X7941806Y29663143D01*
X7941806Y29663144D01*
X7941804Y29663147D01*
X7818620Y29826270D01*
X7818619Y29826271D01*
X7667553Y29963984D01*
X7617945Y29994700D01*
X7493756Y30071595D01*
X7478018Y30077692D01*
X7303145Y30145438D01*
X7102211Y30183000D01*
X7102208Y30183000D01*
X6897792Y30183000D01*
X6897788Y30183000D01*
X6696854Y30145438D01*
X6506248Y30071597D01*
X6506239Y30071592D01*
X6332446Y29963984D01*
X6332445Y29963984D01*
X6181380Y29826271D01*
X6181379Y29826270D01*
X6058195Y29663147D01*
X6058193Y29663144D01*
X5967077Y29480156D01*
X5967075Y29480151D01*
X5911136Y29283546D01*
X5911134Y29283533D01*
X5892275Y29080004D01*
X200500Y29080004D01*
X200500Y30950000D01*
X16244751Y30950000D01*
X16263687Y30781941D01*
X16263689Y30781933D01*
X16319544Y30622309D01*
X16409519Y30479115D01*
X16409521Y30479113D01*
X16409523Y30479110D01*
X16529110Y30359523D01*
X16529112Y30359522D01*
X16529114Y30359520D01*
X16649954Y30283591D01*
X16672310Y30269544D01*
X16831941Y30213687D01*
X17000000Y30194751D01*
X17168059Y30213687D01*
X17327690Y30269544D01*
X17460629Y30353077D01*
X17516466Y30362564D01*
X17539368Y30353077D01*
X17672310Y30269544D01*
X17831941Y30213687D01*
X18000000Y30194751D01*
X18168059Y30213687D01*
X18327690Y30269544D01*
X18470890Y30359523D01*
X18590477Y30479110D01*
X18680456Y30622310D01*
X18736313Y30781941D01*
X18755249Y30950000D01*
X18749615Y31000000D01*
X26494751Y31000000D01*
X26513687Y30831941D01*
X26513689Y30831933D01*
X26569544Y30672309D01*
X26653075Y30539371D01*
X26662563Y30483534D01*
X26653075Y30460629D01*
X26569544Y30327692D01*
X26513689Y30168068D01*
X26513687Y30168060D01*
X26494751Y30000000D01*
X26513687Y29831941D01*
X26513689Y29831933D01*
X26569544Y29672309D01*
X26659519Y29529115D01*
X26659521Y29529113D01*
X26659523Y29529110D01*
X26779110Y29409523D01*
X26779112Y29409522D01*
X26779114Y29409520D01*
X26845694Y29367685D01*
X26922310Y29319544D01*
X27081941Y29263687D01*
X27250000Y29244751D01*
X27418059Y29263687D01*
X27577690Y29319544D01*
X27720890Y29409523D01*
X27840477Y29529110D01*
X27930456Y29672310D01*
X27957641Y29750000D01*
X56494751Y29750000D01*
X56513687Y29581941D01*
X56513689Y29581933D01*
X56569544Y29422309D01*
X56659519Y29279115D01*
X56659521Y29279113D01*
X56659523Y29279110D01*
X56779110Y29159523D01*
X56779112Y29159522D01*
X56779114Y29159520D01*
X56911319Y29076450D01*
X56922310Y29069544D01*
X57081941Y29013687D01*
X57250000Y28994751D01*
X57418059Y29013687D01*
X57577690Y29069544D01*
X57720890Y29159523D01*
X57822675Y29261309D01*
X57875000Y29282982D01*
X57927324Y29261309D01*
X58029110Y29159523D01*
X58029112Y29159522D01*
X58029114Y29159520D01*
X58161319Y29076450D01*
X58172310Y29069544D01*
X58331941Y29013687D01*
X58500000Y28994751D01*
X58668059Y29013687D01*
X58827690Y29069544D01*
X58970890Y29159523D01*
X59090477Y29279110D01*
X59180456Y29422310D01*
X59236313Y29581941D01*
X59255249Y29750000D01*
X59236313Y29918059D01*
X59180456Y30077690D01*
X59133566Y30152315D01*
X59090480Y30220886D01*
X59090478Y30220888D01*
X59090477Y30220890D01*
X58970890Y30340477D01*
X58970887Y30340479D01*
X58970885Y30340481D01*
X58827691Y30430456D01*
X58668067Y30486311D01*
X58668059Y30486313D01*
X58500000Y30505249D01*
X58331940Y30486313D01*
X58331932Y30486311D01*
X58172308Y30430456D01*
X58029114Y30340481D01*
X58029113Y30340480D01*
X58029110Y30340478D01*
X58029110Y30340477D01*
X57927324Y30238692D01*
X57875000Y30217018D01*
X57822675Y30238692D01*
X57720890Y30340477D01*
X57720887Y30340479D01*
X57720885Y30340481D01*
X57577691Y30430456D01*
X57418067Y30486311D01*
X57418059Y30486313D01*
X57250000Y30505249D01*
X57081940Y30486313D01*
X57081932Y30486311D01*
X56922308Y30430456D01*
X56779114Y30340481D01*
X56659519Y30220886D01*
X56569544Y30077692D01*
X56513689Y29918068D01*
X56513687Y29918060D01*
X56494751Y29750000D01*
X27957641Y29750000D01*
X27986313Y29831941D01*
X28005249Y30000000D01*
X27986313Y30168059D01*
X27930456Y30327690D01*
X27922421Y30340477D01*
X27892163Y30388633D01*
X27846923Y30460630D01*
X27837436Y30516466D01*
X27846924Y30539371D01*
X27899039Y30622310D01*
X27930456Y30672310D01*
X27986313Y30831941D01*
X28005249Y31000000D01*
X28001869Y31030000D01*
X89444417Y31030000D01*
X89464700Y30824066D01*
X89524768Y30626046D01*
X89622315Y30443550D01*
X89753590Y30283590D01*
X89913550Y30152315D01*
X90096046Y30054768D01*
X90294066Y29994700D01*
X90500000Y29974417D01*
X90705934Y29994700D01*
X90903954Y30054768D01*
X91086450Y30152315D01*
X91246410Y30283590D01*
X91377685Y30443550D01*
X91475232Y30626046D01*
X91535300Y30824066D01*
X91555583Y31030000D01*
X91535300Y31235934D01*
X91475232Y31433954D01*
X91377685Y31616450D01*
X91246410Y31776410D01*
X91086450Y31907685D01*
X90903954Y32005232D01*
X90792158Y32039145D01*
X90705935Y32065300D01*
X90500000Y32085583D01*
X90294064Y32065300D01*
X90096043Y32005231D01*
X89913549Y31907685D01*
X89753590Y31776411D01*
X89753589Y31776410D01*
X89622315Y31616451D01*
X89524769Y31433957D01*
X89464700Y31235936D01*
X89464700Y31235934D01*
X89444417Y31030000D01*
X28001869Y31030000D01*
X27986313Y31168059D01*
X27930456Y31327690D01*
X27930455Y31327692D01*
X27840480Y31470886D01*
X27840478Y31470888D01*
X27840477Y31470890D01*
X27720890Y31590477D01*
X27720887Y31590479D01*
X27720885Y31590481D01*
X27577691Y31680456D01*
X27418067Y31736311D01*
X27418059Y31736313D01*
X27250000Y31755249D01*
X27081940Y31736313D01*
X27081932Y31736311D01*
X26922308Y31680456D01*
X26779114Y31590481D01*
X26659519Y31470886D01*
X26569544Y31327692D01*
X26513689Y31168068D01*
X26513687Y31168060D01*
X26494751Y31000000D01*
X18749615Y31000000D01*
X18736313Y31118059D01*
X18680456Y31277690D01*
X18649039Y31327690D01*
X18590480Y31420886D01*
X18590478Y31420888D01*
X18590477Y31420890D01*
X18470890Y31540477D01*
X18470887Y31540479D01*
X18470885Y31540481D01*
X18327691Y31630456D01*
X18168067Y31686311D01*
X18168059Y31686313D01*
X18000000Y31705249D01*
X17831940Y31686313D01*
X17831932Y31686311D01*
X17672308Y31630456D01*
X17539371Y31546925D01*
X17483534Y31537437D01*
X17460629Y31546925D01*
X17327691Y31630456D01*
X17168067Y31686311D01*
X17168059Y31686313D01*
X17000000Y31705249D01*
X16831940Y31686313D01*
X16831932Y31686311D01*
X16672308Y31630456D01*
X16529114Y31540481D01*
X16409519Y31420886D01*
X16319544Y31277692D01*
X16263689Y31118068D01*
X16263687Y31118060D01*
X16244751Y30950000D01*
X200500Y30950000D01*
X200500Y32250000D01*
X18494751Y32250000D01*
X18513687Y32081941D01*
X18513689Y32081933D01*
X18569544Y31922309D01*
X18659519Y31779115D01*
X18659521Y31779113D01*
X18659523Y31779110D01*
X18779110Y31659523D01*
X18779112Y31659522D01*
X18779114Y31659520D01*
X18888989Y31590481D01*
X18922310Y31569544D01*
X18986952Y31546925D01*
X19058486Y31521894D01*
X19081941Y31513687D01*
X19250000Y31494751D01*
X19418059Y31513687D01*
X19577690Y31569544D01*
X19710629Y31653077D01*
X19766466Y31662564D01*
X19789368Y31653077D01*
X19922310Y31569544D01*
X19986952Y31546925D01*
X20058486Y31521894D01*
X20081941Y31513687D01*
X20250000Y31494751D01*
X20418059Y31513687D01*
X20577690Y31569544D01*
X20720890Y31659523D01*
X20840477Y31779110D01*
X20930456Y31922310D01*
X20986313Y32081941D01*
X21005249Y32250000D01*
X20986313Y32418059D01*
X20957639Y32500004D01*
X36587339Y32500004D01*
X36587339Y32499997D01*
X36605942Y32299230D01*
X36661122Y32105290D01*
X36661123Y32105288D01*
X36661124Y32105285D01*
X36672748Y32081941D01*
X36751001Y31924787D01*
X36751003Y31924785D01*
X36793724Y31868214D01*
X36863050Y31776411D01*
X36872516Y31763877D01*
X36902755Y31736311D01*
X37021525Y31628038D01*
X37192959Y31521890D01*
X37380979Y31449051D01*
X37579182Y31412000D01*
X37780818Y31412000D01*
X37979021Y31449051D01*
X38167041Y31521890D01*
X38338475Y31628038D01*
X38487486Y31763879D01*
X38608999Y31924788D01*
X38698876Y32105285D01*
X38754056Y32299224D01*
X38772661Y32500000D01*
X38772661Y32500004D01*
X39127339Y32500004D01*
X39127339Y32499997D01*
X39145942Y32299230D01*
X39201122Y32105290D01*
X39201123Y32105288D01*
X39201124Y32105285D01*
X39212748Y32081941D01*
X39291001Y31924787D01*
X39291003Y31924785D01*
X39333724Y31868214D01*
X39403050Y31776411D01*
X39412516Y31763877D01*
X39442755Y31736311D01*
X39561525Y31628038D01*
X39732959Y31521890D01*
X39920979Y31449051D01*
X40119182Y31412000D01*
X40320818Y31412000D01*
X40519021Y31449051D01*
X40707041Y31521890D01*
X40878475Y31628038D01*
X41027486Y31763879D01*
X41148999Y31924788D01*
X41238876Y32105285D01*
X41294056Y32299224D01*
X41312661Y32500000D01*
X41312661Y32500004D01*
X41667339Y32500004D01*
X41667339Y32499997D01*
X41685942Y32299230D01*
X41741122Y32105290D01*
X41741123Y32105288D01*
X41741124Y32105285D01*
X41752748Y32081941D01*
X41831001Y31924787D01*
X41831003Y31924785D01*
X41873724Y31868214D01*
X41943050Y31776411D01*
X41952516Y31763877D01*
X41982755Y31736311D01*
X42101525Y31628038D01*
X42272959Y31521890D01*
X42460979Y31449051D01*
X42659182Y31412000D01*
X42860818Y31412000D01*
X43059021Y31449051D01*
X43247041Y31521890D01*
X43418475Y31628038D01*
X43567486Y31763879D01*
X43688999Y31924788D01*
X43778876Y32105285D01*
X43834056Y32299224D01*
X43852661Y32500000D01*
X43852661Y32500004D01*
X44207339Y32500004D01*
X44207339Y32499997D01*
X44225942Y32299230D01*
X44281122Y32105290D01*
X44281123Y32105288D01*
X44281124Y32105285D01*
X44292748Y32081941D01*
X44371001Y31924787D01*
X44371003Y31924785D01*
X44413724Y31868214D01*
X44483050Y31776411D01*
X44492516Y31763877D01*
X44522755Y31736311D01*
X44641525Y31628038D01*
X44812959Y31521890D01*
X45000979Y31449051D01*
X45199182Y31412000D01*
X45400818Y31412000D01*
X45599021Y31449051D01*
X45787041Y31521890D01*
X45958475Y31628038D01*
X46107486Y31763879D01*
X46228999Y31924788D01*
X46318876Y32105285D01*
X46374056Y32299224D01*
X46392661Y32500000D01*
X46392661Y32500004D01*
X46747339Y32500004D01*
X46747339Y32499997D01*
X46765942Y32299230D01*
X46821122Y32105290D01*
X46821123Y32105288D01*
X46821124Y32105285D01*
X46832748Y32081941D01*
X46911001Y31924787D01*
X46911003Y31924785D01*
X46953724Y31868214D01*
X47023050Y31776411D01*
X47032516Y31763877D01*
X47062755Y31736311D01*
X47181525Y31628038D01*
X47352959Y31521890D01*
X47540979Y31449051D01*
X47739182Y31412000D01*
X47940818Y31412000D01*
X48139021Y31449051D01*
X48327041Y31521890D01*
X48498475Y31628038D01*
X48647486Y31763879D01*
X48768999Y31924788D01*
X48858876Y32105285D01*
X48914056Y32299224D01*
X48932661Y32500000D01*
X48932661Y32500004D01*
X49287339Y32500004D01*
X49287339Y32499997D01*
X49305942Y32299230D01*
X49361122Y32105290D01*
X49361123Y32105288D01*
X49361124Y32105285D01*
X49372748Y32081941D01*
X49451001Y31924787D01*
X49451003Y31924785D01*
X49493724Y31868214D01*
X49563050Y31776411D01*
X49572516Y31763877D01*
X49602755Y31736311D01*
X49721525Y31628038D01*
X49892959Y31521890D01*
X50080979Y31449051D01*
X50279182Y31412000D01*
X50480818Y31412000D01*
X50679021Y31449051D01*
X50867041Y31521890D01*
X51038475Y31628038D01*
X51187486Y31763879D01*
X51308999Y31924788D01*
X51398876Y32105285D01*
X51454056Y32299224D01*
X51472661Y32500000D01*
X51472661Y32500004D01*
X51827339Y32500004D01*
X51827339Y32499997D01*
X51845942Y32299230D01*
X51901122Y32105290D01*
X51901123Y32105288D01*
X51901124Y32105285D01*
X51912748Y32081941D01*
X51991001Y31924787D01*
X51991003Y31924785D01*
X52033724Y31868214D01*
X52103050Y31776411D01*
X52112516Y31763877D01*
X52142755Y31736311D01*
X52261525Y31628038D01*
X52432959Y31521890D01*
X52620979Y31449051D01*
X52819182Y31412000D01*
X53020818Y31412000D01*
X53219021Y31449051D01*
X53407041Y31521890D01*
X53578475Y31628038D01*
X53727486Y31763879D01*
X53848999Y31924788D01*
X53938876Y32105285D01*
X53994056Y32299224D01*
X54012661Y32500000D01*
X54012661Y32500004D01*
X54367339Y32500004D01*
X54367339Y32499997D01*
X54385942Y32299230D01*
X54441122Y32105290D01*
X54441123Y32105288D01*
X54441124Y32105285D01*
X54452748Y32081941D01*
X54531001Y31924787D01*
X54531003Y31924785D01*
X54573724Y31868214D01*
X54643050Y31776411D01*
X54652516Y31763877D01*
X54682755Y31736311D01*
X54801525Y31628038D01*
X54972959Y31521890D01*
X55160979Y31449051D01*
X55359182Y31412000D01*
X55560818Y31412000D01*
X55759021Y31449051D01*
X55947041Y31521890D01*
X56118475Y31628038D01*
X56267486Y31763879D01*
X56388999Y31924788D01*
X56478876Y32105285D01*
X56534056Y32299224D01*
X56552661Y32500000D01*
X56552661Y32500004D01*
X56907339Y32500004D01*
X56907339Y32499997D01*
X56925942Y32299230D01*
X56981122Y32105290D01*
X56981123Y32105288D01*
X56981124Y32105285D01*
X56992748Y32081941D01*
X57071001Y31924787D01*
X57071003Y31924785D01*
X57113724Y31868214D01*
X57183050Y31776411D01*
X57192516Y31763877D01*
X57222755Y31736311D01*
X57341525Y31628038D01*
X57512959Y31521890D01*
X57700979Y31449051D01*
X57899182Y31412000D01*
X58100818Y31412000D01*
X58299021Y31449051D01*
X58487041Y31521890D01*
X58658475Y31628038D01*
X58807486Y31763879D01*
X58928999Y31924788D01*
X59018876Y32105285D01*
X59074056Y32299224D01*
X59092661Y32500000D01*
X59089446Y32534700D01*
X59074057Y32700771D01*
X59039112Y32823590D01*
X59018876Y32894715D01*
X58928999Y33075212D01*
X58928998Y33075213D01*
X58928998Y33075214D01*
X58928996Y33075216D01*
X58925671Y33079619D01*
X58807486Y33236121D01*
X58658475Y33371962D01*
X58487041Y33478110D01*
X58431548Y33499608D01*
X58299023Y33550949D01*
X58197111Y33570000D01*
X89444417Y33570000D01*
X89464700Y33364066D01*
X89524052Y33168405D01*
X89524769Y33166044D01*
X89622315Y32983550D01*
X89734439Y32846925D01*
X89753590Y32823590D01*
X89913550Y32692315D01*
X90096046Y32594768D01*
X90294066Y32534700D01*
X90500000Y32514417D01*
X90705934Y32534700D01*
X90903954Y32594768D01*
X91086450Y32692315D01*
X91246410Y32823590D01*
X91377685Y32983550D01*
X91475232Y33166046D01*
X91535300Y33364066D01*
X91555583Y33570000D01*
X91535300Y33775934D01*
X91475232Y33973954D01*
X91377685Y34156450D01*
X91246410Y34316410D01*
X91179969Y34370936D01*
X91086450Y34447685D01*
X90903956Y34545231D01*
X90903955Y34545232D01*
X90903954Y34545232D01*
X90792158Y34579145D01*
X90705935Y34605300D01*
X90500000Y34625583D01*
X90294064Y34605300D01*
X90096043Y34545231D01*
X89913549Y34447685D01*
X89753590Y34316411D01*
X89753589Y34316410D01*
X89622315Y34156451D01*
X89524769Y33973957D01*
X89464700Y33775936D01*
X89464700Y33775934D01*
X89444417Y33570000D01*
X58197111Y33570000D01*
X58100821Y33588000D01*
X58100818Y33588000D01*
X57899182Y33588000D01*
X57899178Y33588000D01*
X57700976Y33550949D01*
X57512964Y33478112D01*
X57512959Y33478110D01*
X57512954Y33478108D01*
X57512954Y33478107D01*
X57341524Y33371962D01*
X57341523Y33371962D01*
X57192516Y33236124D01*
X57071003Y33075216D01*
X57071001Y33075214D01*
X56981124Y32894715D01*
X56981122Y32894711D01*
X56925942Y32700771D01*
X56907339Y32500004D01*
X56552661Y32500004D01*
X56549446Y32534700D01*
X56534057Y32700771D01*
X56499112Y32823590D01*
X56478876Y32894715D01*
X56388999Y33075212D01*
X56388998Y33075213D01*
X56388998Y33075214D01*
X56388996Y33075216D01*
X56385671Y33079619D01*
X56267486Y33236121D01*
X56118475Y33371962D01*
X55947041Y33478110D01*
X55891548Y33499608D01*
X55759023Y33550949D01*
X55560821Y33588000D01*
X55560818Y33588000D01*
X55359182Y33588000D01*
X55359178Y33588000D01*
X55160976Y33550949D01*
X54972964Y33478112D01*
X54972959Y33478110D01*
X54972954Y33478108D01*
X54972954Y33478107D01*
X54801524Y33371962D01*
X54801523Y33371962D01*
X54652516Y33236124D01*
X54531003Y33075216D01*
X54531001Y33075214D01*
X54441124Y32894715D01*
X54441122Y32894711D01*
X54385942Y32700771D01*
X54367339Y32500004D01*
X54012661Y32500004D01*
X54009446Y32534700D01*
X53994057Y32700771D01*
X53959112Y32823590D01*
X53938876Y32894715D01*
X53848999Y33075212D01*
X53848998Y33075213D01*
X53848998Y33075214D01*
X53848996Y33075216D01*
X53845671Y33079619D01*
X53727486Y33236121D01*
X53578475Y33371962D01*
X53407041Y33478110D01*
X53351548Y33499608D01*
X53219023Y33550949D01*
X53020821Y33588000D01*
X53020818Y33588000D01*
X52819182Y33588000D01*
X52819178Y33588000D01*
X52620976Y33550949D01*
X52432964Y33478112D01*
X52432959Y33478110D01*
X52432954Y33478108D01*
X52432954Y33478107D01*
X52261524Y33371962D01*
X52261523Y33371962D01*
X52112516Y33236124D01*
X51991003Y33075216D01*
X51991001Y33075214D01*
X51901124Y32894715D01*
X51901122Y32894711D01*
X51845942Y32700771D01*
X51827339Y32500004D01*
X51472661Y32500004D01*
X51469446Y32534700D01*
X51454057Y32700771D01*
X51419112Y32823590D01*
X51398876Y32894715D01*
X51308999Y33075212D01*
X51308998Y33075213D01*
X51308998Y33075214D01*
X51308996Y33075216D01*
X51305671Y33079619D01*
X51187486Y33236121D01*
X51038475Y33371962D01*
X50867041Y33478110D01*
X50811548Y33499608D01*
X50679023Y33550949D01*
X50480821Y33588000D01*
X50480818Y33588000D01*
X50279182Y33588000D01*
X50279178Y33588000D01*
X50080976Y33550949D01*
X49892964Y33478112D01*
X49892959Y33478110D01*
X49892954Y33478108D01*
X49892954Y33478107D01*
X49721524Y33371962D01*
X49721523Y33371962D01*
X49572516Y33236124D01*
X49451003Y33075216D01*
X49451001Y33075214D01*
X49361124Y32894715D01*
X49361122Y32894711D01*
X49305942Y32700771D01*
X49287339Y32500004D01*
X48932661Y32500004D01*
X48929446Y32534700D01*
X48914057Y32700771D01*
X48879112Y32823590D01*
X48858876Y32894715D01*
X48768999Y33075212D01*
X48768998Y33075213D01*
X48768998Y33075214D01*
X48768996Y33075216D01*
X48765671Y33079619D01*
X48647486Y33236121D01*
X48498475Y33371962D01*
X48327041Y33478110D01*
X48271548Y33499608D01*
X48139023Y33550949D01*
X47940821Y33588000D01*
X47940818Y33588000D01*
X47739182Y33588000D01*
X47739178Y33588000D01*
X47540976Y33550949D01*
X47352964Y33478112D01*
X47352959Y33478110D01*
X47352954Y33478108D01*
X47352954Y33478107D01*
X47181524Y33371962D01*
X47181523Y33371962D01*
X47032516Y33236124D01*
X46911003Y33075216D01*
X46911001Y33075214D01*
X46821124Y32894715D01*
X46821122Y32894711D01*
X46765942Y32700771D01*
X46747339Y32500004D01*
X46392661Y32500004D01*
X46389446Y32534700D01*
X46374057Y32700771D01*
X46339112Y32823590D01*
X46318876Y32894715D01*
X46228999Y33075212D01*
X46228998Y33075213D01*
X46228998Y33075214D01*
X46228996Y33075216D01*
X46225671Y33079619D01*
X46107486Y33236121D01*
X45958475Y33371962D01*
X45787041Y33478110D01*
X45731548Y33499608D01*
X45599023Y33550949D01*
X45400821Y33588000D01*
X45400818Y33588000D01*
X45199182Y33588000D01*
X45199178Y33588000D01*
X45000976Y33550949D01*
X44812964Y33478112D01*
X44812959Y33478110D01*
X44812954Y33478108D01*
X44812954Y33478107D01*
X44641524Y33371962D01*
X44641523Y33371962D01*
X44492516Y33236124D01*
X44371003Y33075216D01*
X44371001Y33075214D01*
X44281124Y32894715D01*
X44281122Y32894711D01*
X44225942Y32700771D01*
X44207339Y32500004D01*
X43852661Y32500004D01*
X43849446Y32534700D01*
X43834057Y32700771D01*
X43799112Y32823590D01*
X43778876Y32894715D01*
X43688999Y33075212D01*
X43688998Y33075213D01*
X43688998Y33075214D01*
X43688996Y33075216D01*
X43685671Y33079619D01*
X43567486Y33236121D01*
X43418475Y33371962D01*
X43247041Y33478110D01*
X43191548Y33499608D01*
X43059023Y33550949D01*
X42860821Y33588000D01*
X42860818Y33588000D01*
X42659182Y33588000D01*
X42659178Y33588000D01*
X42460976Y33550949D01*
X42272964Y33478112D01*
X42272959Y33478110D01*
X42272954Y33478108D01*
X42272954Y33478107D01*
X42101524Y33371962D01*
X42101523Y33371962D01*
X41952516Y33236124D01*
X41831003Y33075216D01*
X41831001Y33075214D01*
X41741124Y32894715D01*
X41741122Y32894711D01*
X41685942Y32700771D01*
X41667339Y32500004D01*
X41312661Y32500004D01*
X41309446Y32534700D01*
X41294057Y32700771D01*
X41259112Y32823590D01*
X41238876Y32894715D01*
X41148999Y33075212D01*
X41148998Y33075213D01*
X41148998Y33075214D01*
X41148996Y33075216D01*
X41145671Y33079619D01*
X41027486Y33236121D01*
X40878475Y33371962D01*
X40707041Y33478110D01*
X40651548Y33499608D01*
X40519023Y33550949D01*
X40320821Y33588000D01*
X40320818Y33588000D01*
X40119182Y33588000D01*
X40119178Y33588000D01*
X39920976Y33550949D01*
X39732964Y33478112D01*
X39732959Y33478110D01*
X39732954Y33478108D01*
X39732954Y33478107D01*
X39561524Y33371962D01*
X39561523Y33371962D01*
X39412516Y33236124D01*
X39291003Y33075216D01*
X39291001Y33075214D01*
X39201124Y32894715D01*
X39201122Y32894711D01*
X39145942Y32700771D01*
X39127339Y32500004D01*
X38772661Y32500004D01*
X38769446Y32534700D01*
X38754057Y32700771D01*
X38719112Y32823590D01*
X38698876Y32894715D01*
X38608999Y33075212D01*
X38608998Y33075213D01*
X38608998Y33075214D01*
X38608996Y33075216D01*
X38605671Y33079619D01*
X38487486Y33236121D01*
X38338475Y33371962D01*
X38167041Y33478110D01*
X38111548Y33499608D01*
X37979023Y33550949D01*
X37780821Y33588000D01*
X37780818Y33588000D01*
X37579182Y33588000D01*
X37579178Y33588000D01*
X37380976Y33550949D01*
X37192964Y33478112D01*
X37192959Y33478110D01*
X37192954Y33478108D01*
X37192954Y33478107D01*
X37021524Y33371962D01*
X37021523Y33371962D01*
X36872516Y33236124D01*
X36751003Y33075216D01*
X36751001Y33075214D01*
X36661124Y32894715D01*
X36661122Y32894711D01*
X36605942Y32700771D01*
X36587339Y32500004D01*
X20957639Y32500004D01*
X20930456Y32577690D01*
X20858432Y32692315D01*
X20840480Y32720886D01*
X20840478Y32720888D01*
X20840477Y32720890D01*
X20720890Y32840477D01*
X20720887Y32840479D01*
X20720885Y32840481D01*
X20577691Y32930456D01*
X20418067Y32986311D01*
X20418059Y32986313D01*
X20250000Y33005249D01*
X20081940Y32986313D01*
X20081932Y32986311D01*
X19922308Y32930456D01*
X19789371Y32846925D01*
X19733534Y32837437D01*
X19710629Y32846925D01*
X19577691Y32930456D01*
X19418067Y32986311D01*
X19418059Y32986313D01*
X19250000Y33005249D01*
X19081940Y32986313D01*
X19081932Y32986311D01*
X18922308Y32930456D01*
X18779114Y32840481D01*
X18659519Y32720886D01*
X18569544Y32577692D01*
X18513689Y32418068D01*
X18513687Y32418060D01*
X18494751Y32250000D01*
X200500Y32250000D01*
X200500Y34160004D01*
X5892275Y34160004D01*
X5892275Y34159997D01*
X5911134Y33956468D01*
X5911136Y33956455D01*
X5967075Y33759850D01*
X5967077Y33759845D01*
X6058193Y33576857D01*
X6058195Y33576854D01*
X6181379Y33413731D01*
X6181380Y33413730D01*
X6235860Y33364066D01*
X6332447Y33276016D01*
X6506244Y33168405D01*
X6696857Y33094562D01*
X6897792Y33057000D01*
X7102208Y33057000D01*
X7303143Y33094562D01*
X7493756Y33168405D01*
X7667553Y33276016D01*
X7818619Y33413730D01*
X7941807Y33576858D01*
X8032923Y33759844D01*
X8088864Y33956456D01*
X8107725Y34160000D01*
X8106980Y34168038D01*
X8088865Y34363533D01*
X8088864Y34363544D01*
X8032923Y34560156D01*
X7941807Y34743142D01*
X7941806Y34743143D01*
X7941806Y34743144D01*
X7941804Y34743147D01*
X7818620Y34906270D01*
X7818619Y34906271D01*
X7671919Y35040004D01*
X36587339Y35040004D01*
X36587339Y35039997D01*
X36605942Y34839230D01*
X36661122Y34645290D01*
X36661123Y34645288D01*
X36661124Y34645285D01*
X36681034Y34605300D01*
X36751001Y34464787D01*
X36751003Y34464785D01*
X36793724Y34408214D01*
X36872514Y34303879D01*
X37021525Y34168038D01*
X37192959Y34061890D01*
X37380979Y33989051D01*
X37579182Y33952000D01*
X37780818Y33952000D01*
X37979021Y33989051D01*
X38167041Y34061890D01*
X38338475Y34168038D01*
X38487486Y34303879D01*
X38608999Y34464788D01*
X38698876Y34645285D01*
X38754056Y34839224D01*
X38772661Y35040000D01*
X38772661Y35040004D01*
X39127339Y35040004D01*
X39127339Y35039997D01*
X39145942Y34839230D01*
X39201122Y34645290D01*
X39201123Y34645288D01*
X39201124Y34645285D01*
X39221034Y34605300D01*
X39291001Y34464787D01*
X39291003Y34464785D01*
X39333724Y34408214D01*
X39412514Y34303879D01*
X39561525Y34168038D01*
X39732959Y34061890D01*
X39920979Y33989051D01*
X40119182Y33952000D01*
X40320818Y33952000D01*
X40519021Y33989051D01*
X40707041Y34061890D01*
X40878475Y34168038D01*
X41027486Y34303879D01*
X41148999Y34464788D01*
X41238876Y34645285D01*
X41294056Y34839224D01*
X41312661Y35040000D01*
X41312661Y35040004D01*
X41667339Y35040004D01*
X41667339Y35039997D01*
X41685942Y34839230D01*
X41741122Y34645290D01*
X41741123Y34645288D01*
X41741124Y34645285D01*
X41761034Y34605300D01*
X41831001Y34464787D01*
X41831003Y34464785D01*
X41873724Y34408214D01*
X41952514Y34303879D01*
X42101525Y34168038D01*
X42272959Y34061890D01*
X42460979Y33989051D01*
X42659182Y33952000D01*
X42860818Y33952000D01*
X43059021Y33989051D01*
X43247041Y34061890D01*
X43418475Y34168038D01*
X43567486Y34303879D01*
X43688999Y34464788D01*
X43778876Y34645285D01*
X43834056Y34839224D01*
X43852661Y35040000D01*
X43852661Y35040004D01*
X44207339Y35040004D01*
X44207339Y35039997D01*
X44225942Y34839230D01*
X44281122Y34645290D01*
X44281123Y34645288D01*
X44281124Y34645285D01*
X44301034Y34605300D01*
X44371001Y34464787D01*
X44371003Y34464785D01*
X44413724Y34408214D01*
X44492514Y34303879D01*
X44641525Y34168038D01*
X44812959Y34061890D01*
X45000979Y33989051D01*
X45199182Y33952000D01*
X45400818Y33952000D01*
X45599021Y33989051D01*
X45787041Y34061890D01*
X45958475Y34168038D01*
X46107486Y34303879D01*
X46228999Y34464788D01*
X46318876Y34645285D01*
X46374056Y34839224D01*
X46392661Y35040000D01*
X46392661Y35040004D01*
X46747339Y35040004D01*
X46747339Y35039997D01*
X46765942Y34839230D01*
X46821122Y34645290D01*
X46821123Y34645288D01*
X46821124Y34645285D01*
X46841034Y34605300D01*
X46911001Y34464787D01*
X46911003Y34464785D01*
X46953724Y34408214D01*
X47032514Y34303879D01*
X47181525Y34168038D01*
X47352959Y34061890D01*
X47540979Y33989051D01*
X47739182Y33952000D01*
X47940818Y33952000D01*
X48139021Y33989051D01*
X48327041Y34061890D01*
X48498475Y34168038D01*
X48647486Y34303879D01*
X48768999Y34464788D01*
X48858876Y34645285D01*
X48914056Y34839224D01*
X48932661Y35040000D01*
X48932661Y35040004D01*
X49287339Y35040004D01*
X49287339Y35039997D01*
X49305942Y34839230D01*
X49361122Y34645290D01*
X49361123Y34645288D01*
X49361124Y34645285D01*
X49381034Y34605300D01*
X49451001Y34464787D01*
X49451003Y34464785D01*
X49493724Y34408214D01*
X49572514Y34303879D01*
X49721525Y34168038D01*
X49892959Y34061890D01*
X50080979Y33989051D01*
X50279182Y33952000D01*
X50480818Y33952000D01*
X50679021Y33989051D01*
X50867041Y34061890D01*
X51038475Y34168038D01*
X51187486Y34303879D01*
X51308999Y34464788D01*
X51398876Y34645285D01*
X51454056Y34839224D01*
X51472661Y35040000D01*
X51472661Y35040004D01*
X51827339Y35040004D01*
X51827339Y35039997D01*
X51845942Y34839230D01*
X51901122Y34645290D01*
X51901123Y34645288D01*
X51901124Y34645285D01*
X51921034Y34605300D01*
X51991001Y34464787D01*
X51991003Y34464785D01*
X52033724Y34408214D01*
X52112514Y34303879D01*
X52261525Y34168038D01*
X52432959Y34061890D01*
X52620979Y33989051D01*
X52819182Y33952000D01*
X53020818Y33952000D01*
X53219021Y33989051D01*
X53407041Y34061890D01*
X53578475Y34168038D01*
X53727486Y34303879D01*
X53848999Y34464788D01*
X53938876Y34645285D01*
X53994056Y34839224D01*
X54012661Y35040000D01*
X54012661Y35040004D01*
X54367339Y35040004D01*
X54367339Y35039997D01*
X54385942Y34839230D01*
X54441122Y34645290D01*
X54441123Y34645288D01*
X54441124Y34645285D01*
X54461034Y34605300D01*
X54531001Y34464787D01*
X54531003Y34464785D01*
X54573724Y34408214D01*
X54652514Y34303879D01*
X54801525Y34168038D01*
X54972959Y34061890D01*
X55160979Y33989051D01*
X55359182Y33952000D01*
X55560818Y33952000D01*
X55759021Y33989051D01*
X55947041Y34061890D01*
X56118475Y34168038D01*
X56267486Y34303879D01*
X56384927Y34459396D01*
X56911999Y34459396D01*
X56921685Y34378747D01*
X56922623Y34370936D01*
X56944125Y34316411D01*
X56978138Y34230159D01*
X57034034Y34156450D01*
X57069578Y34109578D01*
X57190158Y34018139D01*
X57330936Y33962623D01*
X57402264Y33954058D01*
X57419396Y33952000D01*
X57419398Y33952000D01*
X58580604Y33952000D01*
X58596222Y33953876D01*
X58669064Y33962623D01*
X58809842Y34018139D01*
X58930422Y34109578D01*
X59021861Y34230158D01*
X59077377Y34370936D01*
X59088000Y34459398D01*
X59088000Y35620602D01*
X59077377Y35709064D01*
X59021861Y35849842D01*
X58930422Y35970422D01*
X58809842Y36061861D01*
X58809841Y36061862D01*
X58701976Y36104398D01*
X58687771Y36110000D01*
X89444417Y36110000D01*
X89464700Y35904065D01*
X89524769Y35706044D01*
X89622315Y35523550D01*
X89695219Y35434715D01*
X89753590Y35363590D01*
X89913550Y35232315D01*
X90096046Y35134768D01*
X90294066Y35074700D01*
X90500000Y35054417D01*
X90705934Y35074700D01*
X90903954Y35134768D01*
X91086450Y35232315D01*
X91246410Y35363590D01*
X91377685Y35523550D01*
X91475232Y35706046D01*
X91535300Y35904066D01*
X91555583Y36110000D01*
X91535300Y36315934D01*
X91475232Y36513954D01*
X91377685Y36696450D01*
X91246410Y36856410D01*
X91110364Y36968059D01*
X91086450Y36987685D01*
X90903956Y37085231D01*
X90903955Y37085232D01*
X90903954Y37085232D01*
X90763987Y37127690D01*
X90705935Y37145300D01*
X90500000Y37165583D01*
X90294064Y37145300D01*
X90096043Y37085231D01*
X89913549Y36987685D01*
X89753590Y36856411D01*
X89753589Y36856410D01*
X89622315Y36696451D01*
X89524769Y36513957D01*
X89464700Y36315936D01*
X89444417Y36110000D01*
X58687771Y36110000D01*
X58669064Y36117377D01*
X58639576Y36120918D01*
X58580604Y36128000D01*
X58580602Y36128000D01*
X57419398Y36128000D01*
X57419396Y36128000D01*
X57330936Y36117377D01*
X57190158Y36061862D01*
X57069578Y35970423D01*
X57069577Y35970422D01*
X56978138Y35849842D01*
X56922623Y35709064D01*
X56912000Y35620602D01*
X56912000Y34459398D01*
X56912000Y34459396D01*
X56911999Y34459396D01*
X56384927Y34459396D01*
X56388999Y34464788D01*
X56478876Y34645285D01*
X56534056Y34839224D01*
X56552661Y35040000D01*
X56549446Y35074700D01*
X56534057Y35240771D01*
X56527732Y35263000D01*
X56478876Y35434715D01*
X56388999Y35615212D01*
X56388998Y35615213D01*
X56388998Y35615214D01*
X56388996Y35615216D01*
X56352806Y35663139D01*
X56267486Y35776121D01*
X56118475Y35911962D01*
X55947041Y36018110D01*
X55891548Y36039608D01*
X55759023Y36090949D01*
X55560821Y36128000D01*
X55560818Y36128000D01*
X55359182Y36128000D01*
X55359178Y36128000D01*
X55160976Y36090949D01*
X54972964Y36018112D01*
X54972959Y36018110D01*
X54972954Y36018108D01*
X54972954Y36018107D01*
X54801524Y35911962D01*
X54801523Y35911962D01*
X54652516Y35776124D01*
X54531003Y35615216D01*
X54531001Y35615214D01*
X54441124Y35434715D01*
X54441122Y35434711D01*
X54385942Y35240771D01*
X54367339Y35040004D01*
X54012661Y35040004D01*
X54009446Y35074700D01*
X53994057Y35240771D01*
X53987732Y35263000D01*
X53938876Y35434715D01*
X53848999Y35615212D01*
X53848998Y35615213D01*
X53848998Y35615214D01*
X53848996Y35615216D01*
X53812806Y35663139D01*
X53727486Y35776121D01*
X53578475Y35911962D01*
X53407041Y36018110D01*
X53351548Y36039608D01*
X53219023Y36090949D01*
X53020821Y36128000D01*
X53020818Y36128000D01*
X52819182Y36128000D01*
X52819178Y36128000D01*
X52620976Y36090949D01*
X52432964Y36018112D01*
X52432959Y36018110D01*
X52432954Y36018108D01*
X52432954Y36018107D01*
X52261524Y35911962D01*
X52261523Y35911962D01*
X52112516Y35776124D01*
X51991003Y35615216D01*
X51991001Y35615214D01*
X51901124Y35434715D01*
X51901122Y35434711D01*
X51845942Y35240771D01*
X51827339Y35040004D01*
X51472661Y35040004D01*
X51469446Y35074700D01*
X51454057Y35240771D01*
X51447732Y35263000D01*
X51398876Y35434715D01*
X51308999Y35615212D01*
X51308998Y35615213D01*
X51308998Y35615214D01*
X51308996Y35615216D01*
X51272806Y35663139D01*
X51187486Y35776121D01*
X51038475Y35911962D01*
X50867041Y36018110D01*
X50811548Y36039608D01*
X50679023Y36090949D01*
X50480821Y36128000D01*
X50480818Y36128000D01*
X50279182Y36128000D01*
X50279178Y36128000D01*
X50080976Y36090949D01*
X49892964Y36018112D01*
X49892959Y36018110D01*
X49892954Y36018108D01*
X49892954Y36018107D01*
X49721524Y35911962D01*
X49721523Y35911962D01*
X49572516Y35776124D01*
X49451003Y35615216D01*
X49451001Y35615214D01*
X49361124Y35434715D01*
X49361122Y35434711D01*
X49305942Y35240771D01*
X49287339Y35040004D01*
X48932661Y35040004D01*
X48929446Y35074700D01*
X48914057Y35240771D01*
X48907732Y35263000D01*
X48858876Y35434715D01*
X48768999Y35615212D01*
X48768998Y35615213D01*
X48768998Y35615214D01*
X48768996Y35615216D01*
X48732806Y35663139D01*
X48647486Y35776121D01*
X48498475Y35911962D01*
X48327041Y36018110D01*
X48271548Y36039608D01*
X48139023Y36090949D01*
X47940821Y36128000D01*
X47940818Y36128000D01*
X47739182Y36128000D01*
X47739178Y36128000D01*
X47540976Y36090949D01*
X47352964Y36018112D01*
X47352959Y36018110D01*
X47352954Y36018108D01*
X47352954Y36018107D01*
X47181524Y35911962D01*
X47181523Y35911962D01*
X47032516Y35776124D01*
X46911003Y35615216D01*
X46911001Y35615214D01*
X46821124Y35434715D01*
X46821122Y35434711D01*
X46765942Y35240771D01*
X46747339Y35040004D01*
X46392661Y35040004D01*
X46389446Y35074700D01*
X46374057Y35240771D01*
X46367732Y35263000D01*
X46318876Y35434715D01*
X46228999Y35615212D01*
X46228998Y35615213D01*
X46228998Y35615214D01*
X46228996Y35615216D01*
X46192806Y35663139D01*
X46107486Y35776121D01*
X45958475Y35911962D01*
X45787041Y36018110D01*
X45731548Y36039608D01*
X45599023Y36090949D01*
X45400821Y36128000D01*
X45400818Y36128000D01*
X45199182Y36128000D01*
X45199178Y36128000D01*
X45000976Y36090949D01*
X44812964Y36018112D01*
X44812959Y36018110D01*
X44812954Y36018108D01*
X44812954Y36018107D01*
X44641524Y35911962D01*
X44641523Y35911962D01*
X44492516Y35776124D01*
X44371003Y35615216D01*
X44371001Y35615214D01*
X44281124Y35434715D01*
X44281122Y35434711D01*
X44225942Y35240771D01*
X44207339Y35040004D01*
X43852661Y35040004D01*
X43849446Y35074700D01*
X43834057Y35240771D01*
X43827732Y35263000D01*
X43778876Y35434715D01*
X43688999Y35615212D01*
X43688998Y35615213D01*
X43688998Y35615214D01*
X43688996Y35615216D01*
X43652806Y35663139D01*
X43567486Y35776121D01*
X43418475Y35911962D01*
X43247041Y36018110D01*
X43191548Y36039608D01*
X43059023Y36090949D01*
X42860821Y36128000D01*
X42860818Y36128000D01*
X42659182Y36128000D01*
X42659178Y36128000D01*
X42460976Y36090949D01*
X42272964Y36018112D01*
X42272959Y36018110D01*
X42272954Y36018108D01*
X42272954Y36018107D01*
X42101524Y35911962D01*
X42101523Y35911962D01*
X41952516Y35776124D01*
X41831003Y35615216D01*
X41831001Y35615214D01*
X41741124Y35434715D01*
X41741122Y35434711D01*
X41685942Y35240771D01*
X41667339Y35040004D01*
X41312661Y35040004D01*
X41309446Y35074700D01*
X41294057Y35240771D01*
X41287732Y35263000D01*
X41238876Y35434715D01*
X41148999Y35615212D01*
X41148998Y35615213D01*
X41148998Y35615214D01*
X41148996Y35615216D01*
X41112806Y35663139D01*
X41027486Y35776121D01*
X40878475Y35911962D01*
X40707041Y36018110D01*
X40651548Y36039608D01*
X40519023Y36090949D01*
X40320821Y36128000D01*
X40320818Y36128000D01*
X40119182Y36128000D01*
X40119178Y36128000D01*
X39920976Y36090949D01*
X39732964Y36018112D01*
X39732959Y36018110D01*
X39732954Y36018108D01*
X39732954Y36018107D01*
X39561524Y35911962D01*
X39561523Y35911962D01*
X39412516Y35776124D01*
X39291003Y35615216D01*
X39291001Y35615214D01*
X39201124Y35434715D01*
X39201122Y35434711D01*
X39145942Y35240771D01*
X39127339Y35040004D01*
X38772661Y35040004D01*
X38769446Y35074700D01*
X38754057Y35240771D01*
X38747732Y35263000D01*
X38698876Y35434715D01*
X38608999Y35615212D01*
X38608998Y35615213D01*
X38608998Y35615214D01*
X38608996Y35615216D01*
X38572806Y35663139D01*
X38487486Y35776121D01*
X38338475Y35911962D01*
X38167041Y36018110D01*
X38111548Y36039608D01*
X37979023Y36090949D01*
X37780821Y36128000D01*
X37780818Y36128000D01*
X37579182Y36128000D01*
X37579178Y36128000D01*
X37380976Y36090949D01*
X37192964Y36018112D01*
X37192959Y36018110D01*
X37192954Y36018108D01*
X37192954Y36018107D01*
X37021524Y35911962D01*
X37021523Y35911962D01*
X36872516Y35776124D01*
X36751003Y35615216D01*
X36751001Y35615214D01*
X36661124Y35434715D01*
X36661122Y35434711D01*
X36605942Y35240771D01*
X36587339Y35040004D01*
X7671919Y35040004D01*
X7667553Y35043984D01*
X7617945Y35074700D01*
X7493756Y35151595D01*
X7493751Y35151597D01*
X7303145Y35225438D01*
X7102211Y35263000D01*
X7102208Y35263000D01*
X6897792Y35263000D01*
X6897788Y35263000D01*
X6696854Y35225438D01*
X6506248Y35151597D01*
X6506239Y35151592D01*
X6332446Y35043984D01*
X6332445Y35043984D01*
X6181380Y34906271D01*
X6181379Y34906270D01*
X6058195Y34743147D01*
X6058193Y34743144D01*
X5967077Y34560156D01*
X5967075Y34560151D01*
X5911136Y34363546D01*
X5911134Y34363533D01*
X5892275Y34160004D01*
X200500Y34160004D01*
X200500Y36104396D01*
X5896999Y36104396D01*
X5907623Y36015937D01*
X5963138Y35875159D01*
X5963139Y35875158D01*
X6054578Y35754578D01*
X6175158Y35663139D01*
X6315936Y35607623D01*
X6387264Y35599058D01*
X6404396Y35597000D01*
X6404398Y35597000D01*
X7595604Y35597000D01*
X7611222Y35598876D01*
X7684064Y35607623D01*
X7824842Y35663139D01*
X7945422Y35754578D01*
X8036861Y35875158D01*
X8092377Y36015936D01*
X8103000Y36104398D01*
X8103000Y36800000D01*
X13244751Y36800000D01*
X13263687Y36631941D01*
X13263689Y36631933D01*
X13319544Y36472309D01*
X13409519Y36329115D01*
X13409521Y36329113D01*
X13409523Y36329110D01*
X13529110Y36209523D01*
X13529112Y36209522D01*
X13529114Y36209520D01*
X13658852Y36128000D01*
X13672310Y36119544D01*
X13831941Y36063687D01*
X14000000Y36044751D01*
X14168059Y36063687D01*
X14327690Y36119544D01*
X14470890Y36209523D01*
X14572675Y36311309D01*
X14625000Y36332982D01*
X14677324Y36311309D01*
X14779110Y36209523D01*
X14779112Y36209522D01*
X14779114Y36209520D01*
X14908852Y36128000D01*
X14922310Y36119544D01*
X15081941Y36063687D01*
X15250000Y36044751D01*
X15418059Y36063687D01*
X15577690Y36119544D01*
X15720890Y36209523D01*
X15840477Y36329110D01*
X15930456Y36472310D01*
X15986313Y36631941D01*
X16005249Y36800000D01*
X15986313Y36968059D01*
X15930456Y37127690D01*
X15890870Y37190691D01*
X15840480Y37270886D01*
X15840478Y37270888D01*
X15840477Y37270890D01*
X15720890Y37390477D01*
X15720887Y37390479D01*
X15720885Y37390481D01*
X15577691Y37480456D01*
X15418067Y37536311D01*
X15418059Y37536313D01*
X15250000Y37555249D01*
X15081940Y37536313D01*
X15081932Y37536311D01*
X14922308Y37480456D01*
X14779114Y37390481D01*
X14779113Y37390480D01*
X14779110Y37390478D01*
X14779110Y37390477D01*
X14677324Y37288692D01*
X14625000Y37267018D01*
X14572675Y37288692D01*
X14470890Y37390477D01*
X14470887Y37390479D01*
X14470885Y37390481D01*
X14327691Y37480456D01*
X14168067Y37536311D01*
X14168059Y37536313D01*
X14000000Y37555249D01*
X13831940Y37536313D01*
X13831932Y37536311D01*
X13672308Y37480456D01*
X13529114Y37390481D01*
X13409519Y37270886D01*
X13319544Y37127692D01*
X13263689Y36968068D01*
X13263687Y36968060D01*
X13244751Y36800000D01*
X8103000Y36800000D01*
X8103000Y37295602D01*
X8092377Y37384064D01*
X8036861Y37524842D01*
X7945422Y37645422D01*
X7824842Y37736861D01*
X7824841Y37736862D01*
X7734935Y37772316D01*
X7684064Y37792377D01*
X7654576Y37795918D01*
X7595604Y37803000D01*
X7595602Y37803000D01*
X6404398Y37803000D01*
X6404396Y37803000D01*
X6315936Y37792377D01*
X6175158Y37736862D01*
X6054578Y37645423D01*
X6054577Y37645422D01*
X5963138Y37524842D01*
X5945635Y37480456D01*
X5907623Y37384064D01*
X5897000Y37295602D01*
X5897000Y36104398D01*
X5897000Y36104396D01*
X5896999Y36104396D01*
X200500Y36104396D01*
X200500Y36725500D01*
X222174Y36777826D01*
X274500Y36799500D01*
X1059311Y36799500D01*
X1059311Y36799501D01*
X1173886Y36830201D01*
X1276613Y36889511D01*
X1360489Y36973387D01*
X1419799Y37076114D01*
X1450499Y37190689D01*
X1450500Y37190689D01*
X1450500Y38059311D01*
X1450499Y38059312D01*
X1449363Y38063550D01*
X1435149Y38116598D01*
X1419800Y38173883D01*
X1419798Y38173888D01*
X1360491Y38276610D01*
X1360490Y38276611D01*
X1360489Y38276613D01*
X1276613Y38360489D01*
X1276610Y38360491D01*
X1276609Y38360492D01*
X1173887Y38419799D01*
X1173882Y38419801D01*
X1059311Y38450500D01*
X1059309Y38450500D01*
X1039882Y38450500D01*
X274500Y38450500D01*
X222174Y38472174D01*
X200500Y38524500D01*
X200500Y38650000D01*
X89444417Y38650000D01*
X89464700Y38444065D01*
X89490855Y38357842D01*
X89524768Y38246046D01*
X89622315Y38063550D01*
X89753590Y37903590D01*
X89913550Y37772315D01*
X90096046Y37674768D01*
X90294066Y37614700D01*
X90500000Y37594417D01*
X90705934Y37614700D01*
X90903954Y37674768D01*
X91086450Y37772315D01*
X91246410Y37903590D01*
X91377685Y38063550D01*
X91475232Y38246046D01*
X91535300Y38444066D01*
X91555583Y38650000D01*
X91535300Y38855934D01*
X91475232Y39053954D01*
X91377685Y39236450D01*
X91246410Y39396410D01*
X91086450Y39527685D01*
X90903954Y39625232D01*
X90792158Y39659145D01*
X90705935Y39685300D01*
X90500000Y39705583D01*
X90294064Y39685300D01*
X90096043Y39625231D01*
X89913549Y39527685D01*
X89753590Y39396411D01*
X89753589Y39396410D01*
X89622315Y39236451D01*
X89524769Y39053957D01*
X89464700Y38855936D01*
X89444417Y38650000D01*
X200500Y38650000D01*
X200500Y41750000D01*
X30744751Y41750000D01*
X30763687Y41581941D01*
X30763689Y41581933D01*
X30819544Y41422309D01*
X30903075Y41289371D01*
X30912563Y41233534D01*
X30903075Y41210629D01*
X30819544Y41077692D01*
X30763689Y40918068D01*
X30763687Y40918060D01*
X30744751Y40750000D01*
X30763687Y40581941D01*
X30763689Y40581933D01*
X30819544Y40422309D01*
X30909519Y40279115D01*
X30909521Y40279113D01*
X30909523Y40279110D01*
X31029110Y40159523D01*
X31029112Y40159522D01*
X31029114Y40159520D01*
X31172308Y40069545D01*
X31172310Y40069544D01*
X31331941Y40013687D01*
X31500000Y39994751D01*
X31668059Y40013687D01*
X31827690Y40069544D01*
X31970890Y40159523D01*
X32072675Y40261309D01*
X32125000Y40282982D01*
X32177324Y40261309D01*
X32279110Y40159523D01*
X32279112Y40159522D01*
X32279114Y40159520D01*
X32422308Y40069545D01*
X32422310Y40069544D01*
X32581941Y40013687D01*
X32750000Y39994751D01*
X32918059Y40013687D01*
X33077690Y40069544D01*
X33220890Y40159523D01*
X33340477Y40279110D01*
X33430456Y40422310D01*
X33486313Y40581941D01*
X33505249Y40750000D01*
X33486313Y40918059D01*
X33430456Y41077690D01*
X33359886Y41190000D01*
X89444417Y41190000D01*
X89464700Y40984065D01*
X89524769Y40786044D01*
X89622315Y40603550D01*
X89640055Y40581933D01*
X89753590Y40443590D01*
X89913550Y40312315D01*
X90096046Y40214768D01*
X90294066Y40154700D01*
X90500000Y40134417D01*
X90705934Y40154700D01*
X90903954Y40214768D01*
X91086450Y40312315D01*
X91246410Y40443590D01*
X91377685Y40603550D01*
X91475232Y40786046D01*
X91535300Y40984066D01*
X91555583Y41190000D01*
X91535300Y41395934D01*
X91475232Y41593954D01*
X91377685Y41776450D01*
X91246410Y41936410D01*
X91086450Y42067685D01*
X90903954Y42165232D01*
X90792158Y42199145D01*
X90705935Y42225300D01*
X90500000Y42245583D01*
X90294064Y42225300D01*
X90121616Y42172989D01*
X90098407Y42165948D01*
X90096043Y42165231D01*
X89913549Y42067685D01*
X89753590Y41936411D01*
X89753589Y41936410D01*
X89622315Y41776451D01*
X89524769Y41593957D01*
X89464700Y41395936D01*
X89444417Y41190000D01*
X33359886Y41190000D01*
X33346923Y41210630D01*
X33337436Y41266466D01*
X33346924Y41289371D01*
X33413883Y41395934D01*
X33430456Y41422310D01*
X33486313Y41581941D01*
X33505249Y41750000D01*
X33486313Y41918059D01*
X33430456Y42077690D01*
X33375450Y42165231D01*
X33340480Y42220886D01*
X33340478Y42220888D01*
X33340477Y42220890D01*
X33220890Y42340477D01*
X33220887Y42340479D01*
X33220885Y42340481D01*
X33077691Y42430456D01*
X32918067Y42486311D01*
X32918059Y42486313D01*
X32750000Y42505249D01*
X32581940Y42486313D01*
X32581932Y42486311D01*
X32422308Y42430456D01*
X32279114Y42340481D01*
X32279113Y42340480D01*
X32279110Y42340478D01*
X32279110Y42340477D01*
X32177324Y42238692D01*
X32125000Y42217018D01*
X32072675Y42238692D01*
X31970890Y42340477D01*
X31970887Y42340479D01*
X31970885Y42340481D01*
X31827691Y42430456D01*
X31668067Y42486311D01*
X31668059Y42486313D01*
X31500000Y42505249D01*
X31331940Y42486313D01*
X31331932Y42486311D01*
X31172308Y42430456D01*
X31029114Y42340481D01*
X30909519Y42220886D01*
X30819544Y42077692D01*
X30763689Y41918068D01*
X30763687Y41918060D01*
X30744751Y41750000D01*
X200500Y41750000D01*
X200500Y44750000D01*
X53244751Y44750000D01*
X53263687Y44581941D01*
X53263689Y44581933D01*
X53319544Y44422309D01*
X53403075Y44289371D01*
X53412563Y44233534D01*
X53403075Y44210629D01*
X53319544Y44077692D01*
X53263689Y43918068D01*
X53263687Y43918060D01*
X53244751Y43750000D01*
X53263687Y43581941D01*
X53263689Y43581933D01*
X53319544Y43422309D01*
X53409519Y43279115D01*
X53409521Y43279113D01*
X53409523Y43279110D01*
X53529110Y43159523D01*
X53529112Y43159522D01*
X53529114Y43159520D01*
X53672308Y43069545D01*
X53672310Y43069544D01*
X53831941Y43013687D01*
X54000000Y42994751D01*
X54168059Y43013687D01*
X54327690Y43069544D01*
X54470890Y43159523D01*
X54590477Y43279110D01*
X54680456Y43422310D01*
X54736313Y43581941D01*
X54752996Y43730000D01*
X89444417Y43730000D01*
X89464700Y43524065D01*
X89524769Y43326044D01*
X89622315Y43143550D01*
X89744429Y42994752D01*
X89753590Y42983590D01*
X89913550Y42852315D01*
X90096046Y42754768D01*
X90294066Y42694700D01*
X90500000Y42674417D01*
X90705934Y42694700D01*
X90903954Y42754768D01*
X91086450Y42852315D01*
X91246410Y42983590D01*
X91377685Y43143550D01*
X91475232Y43326046D01*
X91535300Y43524066D01*
X91555583Y43730000D01*
X91535300Y43935934D01*
X91475232Y44133954D01*
X91377685Y44316450D01*
X91246410Y44476410D01*
X91086450Y44607685D01*
X90903954Y44705232D01*
X90756372Y44750000D01*
X90705935Y44765300D01*
X90500000Y44785583D01*
X90294064Y44765300D01*
X90096043Y44705231D01*
X89913549Y44607685D01*
X89753590Y44476411D01*
X89753589Y44476410D01*
X89622315Y44316451D01*
X89524769Y44133957D01*
X89464700Y43935936D01*
X89444417Y43730000D01*
X54752996Y43730000D01*
X54755249Y43750000D01*
X54736313Y43918059D01*
X54680456Y44077690D01*
X54596923Y44210630D01*
X54587436Y44266466D01*
X54596924Y44289371D01*
X54680455Y44422309D01*
X54680456Y44422310D01*
X54736313Y44581941D01*
X54755249Y44750000D01*
X54736313Y44918059D01*
X54680456Y45077690D01*
X54680455Y45077692D01*
X54590480Y45220886D01*
X54590478Y45220888D01*
X54590477Y45220890D01*
X54470890Y45340477D01*
X54470887Y45340479D01*
X54470885Y45340481D01*
X54327691Y45430456D01*
X54168067Y45486311D01*
X54168059Y45486313D01*
X54000000Y45505249D01*
X53831940Y45486313D01*
X53831932Y45486311D01*
X53672308Y45430456D01*
X53529114Y45340481D01*
X53409519Y45220886D01*
X53319544Y45077692D01*
X53263689Y44918068D01*
X53263687Y44918060D01*
X53244751Y44750000D01*
X200500Y44750000D01*
X200500Y47750000D01*
X49744751Y47750000D01*
X49763687Y47581941D01*
X49763689Y47581933D01*
X49819544Y47422309D01*
X49903075Y47289371D01*
X49912563Y47233534D01*
X49903075Y47210629D01*
X49819544Y47077692D01*
X49763689Y46918068D01*
X49763687Y46918060D01*
X49744751Y46750000D01*
X49763687Y46581941D01*
X49763689Y46581933D01*
X49819544Y46422309D01*
X49909519Y46279115D01*
X49909521Y46279113D01*
X49909523Y46279110D01*
X50029110Y46159523D01*
X50029112Y46159522D01*
X50029114Y46159520D01*
X50172308Y46069545D01*
X50172310Y46069544D01*
X50331941Y46013687D01*
X50500000Y45994751D01*
X50668059Y46013687D01*
X50827690Y46069544D01*
X50970890Y46159523D01*
X51081367Y46270000D01*
X89444417Y46270000D01*
X89464700Y46064066D01*
X89524768Y45866046D01*
X89622315Y45683550D01*
X89753590Y45523590D01*
X89913550Y45392315D01*
X90096046Y45294768D01*
X90294066Y45234700D01*
X90500000Y45214417D01*
X90705934Y45234700D01*
X90903954Y45294768D01*
X91086450Y45392315D01*
X91246410Y45523590D01*
X91377685Y45683550D01*
X91475232Y45866046D01*
X91535300Y46064066D01*
X91555583Y46270000D01*
X91535300Y46475934D01*
X91475232Y46673954D01*
X91377685Y46856450D01*
X91246410Y47016410D01*
X91086450Y47147685D01*
X90903954Y47245232D01*
X90792158Y47279145D01*
X90705935Y47305300D01*
X90500000Y47325583D01*
X90294064Y47305300D01*
X90096043Y47245231D01*
X89913549Y47147685D01*
X89753590Y47016411D01*
X89753589Y47016410D01*
X89622315Y46856451D01*
X89524769Y46673957D01*
X89464700Y46475936D01*
X89464700Y46475934D01*
X89444417Y46270000D01*
X51081367Y46270000D01*
X51090477Y46279110D01*
X51180456Y46422310D01*
X51236313Y46581941D01*
X51255249Y46750000D01*
X51236313Y46918059D01*
X51180456Y47077690D01*
X51096923Y47210630D01*
X51087436Y47266466D01*
X51096924Y47289371D01*
X51180455Y47422309D01*
X51180456Y47422310D01*
X51236313Y47581941D01*
X51255249Y47750000D01*
X51236313Y47918059D01*
X51180456Y48077690D01*
X51090477Y48220890D01*
X51061367Y48250000D01*
X56494748Y48250000D01*
X56513684Y48081941D01*
X56513686Y48081933D01*
X56569541Y47922309D01*
X56659516Y47779115D01*
X56659518Y47779113D01*
X56659520Y47779110D01*
X56779107Y47659523D01*
X56779109Y47659522D01*
X56779111Y47659520D01*
X56902577Y47581941D01*
X56922307Y47569544D01*
X57081938Y47513687D01*
X57249997Y47494751D01*
X57418056Y47513687D01*
X57577687Y47569544D01*
X57710628Y47653078D01*
X57766464Y47662565D01*
X57789368Y47653078D01*
X57922310Y47569544D01*
X58081941Y47513687D01*
X58250000Y47494751D01*
X58418059Y47513687D01*
X58577690Y47569544D01*
X58720890Y47659523D01*
X58840477Y47779110D01*
X58930456Y47922310D01*
X58986313Y48081941D01*
X59005249Y48250000D01*
X58986313Y48418059D01*
X58930456Y48577690D01*
X58930455Y48577692D01*
X58840480Y48720886D01*
X58840478Y48720888D01*
X58840477Y48720890D01*
X58751367Y48810000D01*
X89444417Y48810000D01*
X89464700Y48604066D01*
X89521121Y48418068D01*
X89524769Y48406044D01*
X89559816Y48340477D01*
X89622315Y48223550D01*
X89753590Y48063590D01*
X89913550Y47932315D01*
X90096046Y47834768D01*
X90294066Y47774700D01*
X90500000Y47754417D01*
X90705934Y47774700D01*
X90903954Y47834768D01*
X91086450Y47932315D01*
X91246410Y48063590D01*
X91377685Y48223550D01*
X91475232Y48406046D01*
X91535300Y48604066D01*
X91555583Y48810000D01*
X91535300Y49015934D01*
X91475232Y49213954D01*
X91377685Y49396450D01*
X91246410Y49556410D01*
X91086450Y49687685D01*
X90903954Y49785232D01*
X90792158Y49819145D01*
X90705935Y49845300D01*
X90500000Y49865583D01*
X90294064Y49845300D01*
X90096043Y49785231D01*
X89913549Y49687685D01*
X89753590Y49556411D01*
X89753589Y49556410D01*
X89622315Y49396451D01*
X89524769Y49213957D01*
X89464700Y49015936D01*
X89461782Y48986311D01*
X89444417Y48810000D01*
X58751367Y48810000D01*
X58720890Y48840477D01*
X58720887Y48840479D01*
X58720885Y48840481D01*
X58577691Y48930456D01*
X58418067Y48986311D01*
X58418059Y48986313D01*
X58250000Y49005249D01*
X58081940Y48986313D01*
X58081932Y48986311D01*
X57922309Y48930457D01*
X57789368Y48846924D01*
X57733531Y48837437D01*
X57710628Y48846924D01*
X57577687Y48930457D01*
X57418064Y48986311D01*
X57418056Y48986313D01*
X57249997Y49005249D01*
X57081937Y48986313D01*
X57081929Y48986311D01*
X56922305Y48930456D01*
X56779111Y48840481D01*
X56659516Y48720886D01*
X56569541Y48577692D01*
X56513686Y48418068D01*
X56513684Y48418060D01*
X56494748Y48250000D01*
X51061367Y48250000D01*
X50970890Y48340477D01*
X50970887Y48340479D01*
X50970885Y48340481D01*
X50827691Y48430456D01*
X50668067Y48486311D01*
X50668059Y48486313D01*
X50500000Y48505249D01*
X50331940Y48486313D01*
X50331932Y48486311D01*
X50172308Y48430456D01*
X50029114Y48340481D01*
X49909519Y48220886D01*
X49819544Y48077692D01*
X49763689Y47918068D01*
X49763687Y47918060D01*
X49744751Y47750000D01*
X200500Y47750000D01*
X200500Y53250000D01*
X38244751Y53250000D01*
X38263687Y53081941D01*
X38263689Y53081933D01*
X38319544Y52922309D01*
X38403075Y52789371D01*
X38412563Y52733534D01*
X38403075Y52710629D01*
X38319544Y52577692D01*
X38263689Y52418068D01*
X38263687Y52418060D01*
X38244751Y52250000D01*
X38263687Y52081941D01*
X38263689Y52081933D01*
X38319544Y51922309D01*
X38409519Y51779115D01*
X38409521Y51779113D01*
X38409523Y51779110D01*
X38529110Y51659523D01*
X38529112Y51659522D01*
X38529114Y51659520D01*
X38652580Y51581941D01*
X38672310Y51569544D01*
X38831941Y51513687D01*
X39000000Y51494751D01*
X39168059Y51513687D01*
X39327690Y51569544D01*
X39470890Y51659523D01*
X39590477Y51779110D01*
X39680456Y51922310D01*
X39736313Y52081941D01*
X39755249Y52250000D01*
X39736313Y52418059D01*
X39680456Y52577690D01*
X39596923Y52710630D01*
X39587436Y52766466D01*
X39596924Y52789371D01*
X39625229Y52834417D01*
X39680456Y52922310D01*
X39736313Y53081941D01*
X39755249Y53250000D01*
X39736313Y53418059D01*
X39707641Y53500000D01*
X54244751Y53500000D01*
X54263687Y53331941D01*
X54263689Y53331933D01*
X54319544Y53172309D01*
X54403075Y53039371D01*
X54412563Y52983534D01*
X54403075Y52960629D01*
X54319544Y52827692D01*
X54263689Y52668068D01*
X54263687Y52668060D01*
X54244751Y52500000D01*
X54263687Y52331941D01*
X54263689Y52331933D01*
X54319544Y52172309D01*
X54409519Y52029115D01*
X54409521Y52029113D01*
X54409523Y52029110D01*
X54529110Y51909523D01*
X54529112Y51909522D01*
X54529114Y51909520D01*
X54672308Y51819545D01*
X54672310Y51819544D01*
X54831941Y51763687D01*
X55000000Y51744751D01*
X55168059Y51763687D01*
X55327690Y51819544D01*
X55470890Y51909523D01*
X55590477Y52029110D01*
X55680456Y52172310D01*
X55736313Y52331941D01*
X55755249Y52500000D01*
X55736313Y52668059D01*
X55707641Y52750000D01*
X60494751Y52750000D01*
X60513687Y52581941D01*
X60513689Y52581933D01*
X60569544Y52422309D01*
X60653075Y52289371D01*
X60662563Y52233534D01*
X60653075Y52210629D01*
X60569544Y52077692D01*
X60513689Y51918068D01*
X60513687Y51918060D01*
X60494751Y51750000D01*
X60513687Y51581941D01*
X60513689Y51581933D01*
X60569544Y51422309D01*
X60659519Y51279115D01*
X60659521Y51279113D01*
X60659523Y51279110D01*
X60779110Y51159523D01*
X60779112Y51159522D01*
X60779114Y51159520D01*
X60922308Y51069545D01*
X60922310Y51069544D01*
X61081941Y51013687D01*
X61250000Y50994751D01*
X61418059Y51013687D01*
X61577690Y51069544D01*
X61720890Y51159523D01*
X61840477Y51279110D01*
X61885020Y51350000D01*
X89444417Y51350000D01*
X89464700Y51144066D01*
X89524768Y50946046D01*
X89622315Y50763550D01*
X89753590Y50603590D01*
X89913550Y50472315D01*
X90096046Y50374768D01*
X90294066Y50314700D01*
X90500000Y50294417D01*
X90705934Y50314700D01*
X90903954Y50374768D01*
X91086450Y50472315D01*
X91246410Y50603590D01*
X91377685Y50763550D01*
X91475232Y50946046D01*
X91535300Y51144066D01*
X91555583Y51350000D01*
X91535300Y51555934D01*
X91475232Y51753954D01*
X91377685Y51936450D01*
X91246410Y52096410D01*
X91086450Y52227685D01*
X91044702Y52250000D01*
X90903956Y52325231D01*
X90903955Y52325232D01*
X90903954Y52325232D01*
X90792158Y52359145D01*
X90705935Y52385300D01*
X90500000Y52405583D01*
X90294064Y52385300D01*
X90121616Y52332989D01*
X90118137Y52331933D01*
X90096043Y52325231D01*
X89913549Y52227685D01*
X89753590Y52096411D01*
X89753589Y52096410D01*
X89622315Y51936451D01*
X89524769Y51753957D01*
X89464700Y51555936D01*
X89464700Y51555934D01*
X89444417Y51350000D01*
X61885020Y51350000D01*
X61930456Y51422310D01*
X61986313Y51581941D01*
X62005249Y51750000D01*
X61986313Y51918059D01*
X61930456Y52077690D01*
X61918693Y52096410D01*
X61900017Y52126133D01*
X61846923Y52210630D01*
X61837436Y52266466D01*
X61846924Y52289371D01*
X61869457Y52325231D01*
X61930456Y52422310D01*
X61986313Y52581941D01*
X62005249Y52750000D01*
X61986313Y52918059D01*
X61930456Y53077690D01*
X61889048Y53143590D01*
X61840480Y53220886D01*
X61840478Y53220888D01*
X61840477Y53220890D01*
X61720890Y53340477D01*
X61720887Y53340479D01*
X61720885Y53340481D01*
X61577691Y53430456D01*
X61418067Y53486311D01*
X61418059Y53486313D01*
X61250000Y53505249D01*
X61081940Y53486313D01*
X61081932Y53486311D01*
X60922308Y53430456D01*
X60779114Y53340481D01*
X60659519Y53220886D01*
X60569544Y53077692D01*
X60513689Y52918068D01*
X60513687Y52918060D01*
X60494751Y52750000D01*
X55707641Y52750000D01*
X55680456Y52827690D01*
X55676228Y52834418D01*
X55623667Y52918068D01*
X55596923Y52960630D01*
X55587436Y53016466D01*
X55596924Y53039371D01*
X55662411Y53143591D01*
X55680456Y53172310D01*
X55736313Y53331941D01*
X55755249Y53500000D01*
X55736313Y53668059D01*
X55680456Y53827690D01*
X55680455Y53827692D01*
X55641304Y53890000D01*
X89444417Y53890000D01*
X89464700Y53684065D01*
X89490855Y53597842D01*
X89524768Y53486046D01*
X89622315Y53303550D01*
X89753590Y53143590D01*
X89913550Y53012315D01*
X90096046Y52914768D01*
X90294066Y52854700D01*
X90500000Y52834417D01*
X90705934Y52854700D01*
X90903954Y52914768D01*
X91086450Y53012315D01*
X91246410Y53143590D01*
X91377685Y53303550D01*
X91475232Y53486046D01*
X91535300Y53684066D01*
X91555583Y53890000D01*
X91535300Y54095934D01*
X91475232Y54293954D01*
X91377685Y54476450D01*
X91246410Y54636410D01*
X91086450Y54767685D01*
X90903954Y54865232D01*
X90792158Y54899145D01*
X90705935Y54925300D01*
X90500000Y54945583D01*
X90294064Y54925300D01*
X90096043Y54865231D01*
X89913549Y54767685D01*
X89753590Y54636411D01*
X89753589Y54636410D01*
X89622315Y54476451D01*
X89524769Y54293957D01*
X89464700Y54095936D01*
X89444417Y53890000D01*
X55641304Y53890000D01*
X55590480Y53970886D01*
X55590478Y53970888D01*
X55590477Y53970890D01*
X55470890Y54090477D01*
X55470887Y54090479D01*
X55470885Y54090481D01*
X55327691Y54180456D01*
X55168067Y54236311D01*
X55168059Y54236313D01*
X55000000Y54255249D01*
X54831940Y54236313D01*
X54831932Y54236311D01*
X54672308Y54180456D01*
X54529114Y54090481D01*
X54409519Y53970886D01*
X54319544Y53827692D01*
X54263689Y53668068D01*
X54263687Y53668060D01*
X54244751Y53500000D01*
X39707641Y53500000D01*
X39680456Y53577690D01*
X39623673Y53668059D01*
X39590480Y53720886D01*
X39590478Y53720888D01*
X39590477Y53720890D01*
X39470890Y53840477D01*
X39470887Y53840479D01*
X39470885Y53840481D01*
X39327691Y53930456D01*
X39168067Y53986311D01*
X39168059Y53986313D01*
X39000000Y54005249D01*
X38831940Y53986313D01*
X38831932Y53986311D01*
X38672308Y53930456D01*
X38529114Y53840481D01*
X38409519Y53720886D01*
X38319544Y53577692D01*
X38263689Y53418068D01*
X38263687Y53418060D01*
X38244751Y53250000D01*
X200500Y53250000D01*
X200500Y57000000D01*
X42744751Y57000000D01*
X42763687Y56831941D01*
X42763689Y56831933D01*
X42819544Y56672309D01*
X42909519Y56529115D01*
X42909521Y56529113D01*
X42909523Y56529110D01*
X43029110Y56409523D01*
X43029112Y56409522D01*
X43029114Y56409520D01*
X43039370Y56403076D01*
X43172310Y56319544D01*
X43331941Y56263687D01*
X43500000Y56244751D01*
X43668059Y56263687D01*
X43827690Y56319544D01*
X43960629Y56403077D01*
X44016466Y56412564D01*
X44039368Y56403077D01*
X44172310Y56319544D01*
X44331941Y56263687D01*
X44500000Y56244751D01*
X44668059Y56263687D01*
X44827690Y56319544D01*
X44970890Y56409523D01*
X45090477Y56529110D01*
X45180456Y56672310D01*
X45236313Y56831941D01*
X45255249Y57000000D01*
X45236313Y57168059D01*
X45207641Y57250000D01*
X50994751Y57250000D01*
X51013687Y57081941D01*
X51013689Y57081933D01*
X51069544Y56922309D01*
X51153075Y56789371D01*
X51162563Y56733534D01*
X51153075Y56710629D01*
X51069544Y56577692D01*
X51013689Y56418068D01*
X51013687Y56418060D01*
X50994751Y56250000D01*
X51013687Y56081941D01*
X51013689Y56081933D01*
X51069544Y55922309D01*
X51159519Y55779115D01*
X51159521Y55779113D01*
X51159523Y55779110D01*
X51279110Y55659523D01*
X51279112Y55659522D01*
X51279114Y55659520D01*
X51422308Y55569545D01*
X51422310Y55569544D01*
X51581941Y55513687D01*
X51750000Y55494751D01*
X51918059Y55513687D01*
X52077690Y55569544D01*
X52220890Y55659523D01*
X52340477Y55779110D01*
X52430456Y55922310D01*
X52486313Y56081941D01*
X52505249Y56250000D01*
X52486313Y56418059D01*
X52482135Y56430000D01*
X89444417Y56430000D01*
X89462662Y56244752D01*
X89464700Y56224066D01*
X89524768Y56026046D01*
X89622315Y55843550D01*
X89753590Y55683590D01*
X89913550Y55552315D01*
X90096046Y55454768D01*
X90294066Y55394700D01*
X90500000Y55374417D01*
X90705934Y55394700D01*
X90903954Y55454768D01*
X91086450Y55552315D01*
X91246410Y55683590D01*
X91377685Y55843550D01*
X91475232Y56026046D01*
X91535300Y56224066D01*
X91555583Y56430000D01*
X91535300Y56635934D01*
X91475232Y56833954D01*
X91377685Y57016450D01*
X91246410Y57176410D01*
X91086450Y57307685D01*
X90903954Y57405232D01*
X90792158Y57439145D01*
X90705935Y57465300D01*
X90500000Y57485583D01*
X90294064Y57465300D01*
X90096043Y57405231D01*
X89913549Y57307685D01*
X89753590Y57176411D01*
X89753589Y57176410D01*
X89622315Y57016451D01*
X89524769Y56833957D01*
X89464700Y56635936D01*
X89444417Y56430000D01*
X52482135Y56430000D01*
X52430456Y56577690D01*
X52346923Y56710630D01*
X52337436Y56766466D01*
X52346924Y56789371D01*
X52374940Y56833957D01*
X52430456Y56922310D01*
X52486313Y57081941D01*
X52505249Y57250000D01*
X52486313Y57418059D01*
X52430456Y57577690D01*
X52424332Y57587437D01*
X52340480Y57720886D01*
X52340478Y57720888D01*
X52340477Y57720890D01*
X52220890Y57840477D01*
X52220887Y57840479D01*
X52220885Y57840481D01*
X52077691Y57930456D01*
X51918067Y57986311D01*
X51918059Y57986313D01*
X51750000Y58005249D01*
X51581940Y57986313D01*
X51581932Y57986311D01*
X51422308Y57930456D01*
X51279114Y57840481D01*
X51159519Y57720886D01*
X51069544Y57577692D01*
X51013689Y57418068D01*
X51013687Y57418060D01*
X50994751Y57250000D01*
X45207641Y57250000D01*
X45180456Y57327690D01*
X45123673Y57418059D01*
X45090480Y57470886D01*
X45090478Y57470888D01*
X45090477Y57470890D01*
X44970890Y57590477D01*
X44970887Y57590479D01*
X44970885Y57590481D01*
X44827691Y57680456D01*
X44668067Y57736311D01*
X44668059Y57736313D01*
X44500000Y57755249D01*
X44331940Y57736313D01*
X44331932Y57736311D01*
X44172308Y57680456D01*
X44039371Y57596925D01*
X43983534Y57587437D01*
X43960629Y57596925D01*
X43827691Y57680456D01*
X43668067Y57736311D01*
X43668059Y57736313D01*
X43500000Y57755249D01*
X43331940Y57736313D01*
X43331932Y57736311D01*
X43172308Y57680456D01*
X43029114Y57590481D01*
X42909519Y57470886D01*
X42819544Y57327692D01*
X42763689Y57168068D01*
X42763687Y57168060D01*
X42744751Y57000000D01*
X200500Y57000000D01*
X200500Y61000000D01*
X30744751Y61000000D01*
X30763687Y60831941D01*
X30763689Y60831933D01*
X30819544Y60672309D01*
X30903075Y60539371D01*
X30912563Y60483534D01*
X30903075Y60460629D01*
X30819544Y60327692D01*
X30763689Y60168068D01*
X30763687Y60168060D01*
X30744751Y60000000D01*
X30763687Y59831941D01*
X30763689Y59831933D01*
X30819544Y59672309D01*
X30909519Y59529115D01*
X30909521Y59529113D01*
X30909523Y59529110D01*
X31029110Y59409523D01*
X31029112Y59409522D01*
X31029114Y59409520D01*
X31152580Y59331941D01*
X31172310Y59319544D01*
X31331941Y59263687D01*
X31500000Y59244751D01*
X31668059Y59263687D01*
X31827690Y59319544D01*
X31970890Y59409523D01*
X32061367Y59500000D01*
X42744751Y59500000D01*
X42763687Y59331941D01*
X42763689Y59331933D01*
X42819544Y59172309D01*
X42909519Y59029115D01*
X42909521Y59029113D01*
X42909523Y59029110D01*
X43029110Y58909523D01*
X43029112Y58909522D01*
X43029114Y58909520D01*
X43039370Y58903076D01*
X43172310Y58819544D01*
X43278929Y58782237D01*
X43330860Y58764065D01*
X43331941Y58763687D01*
X43500000Y58744751D01*
X43668059Y58763687D01*
X43827690Y58819544D01*
X43960629Y58903077D01*
X44016466Y58912564D01*
X44039368Y58903077D01*
X44172310Y58819544D01*
X44278929Y58782237D01*
X44330860Y58764065D01*
X44331941Y58763687D01*
X44500000Y58744751D01*
X44546585Y58750000D01*
X60244751Y58750000D01*
X60263687Y58581941D01*
X60263689Y58581933D01*
X60319544Y58422309D01*
X60409519Y58279115D01*
X60409521Y58279113D01*
X60409523Y58279110D01*
X60529110Y58159523D01*
X60529112Y58159522D01*
X60529114Y58159520D01*
X60636070Y58092315D01*
X60672310Y58069544D01*
X60831941Y58013687D01*
X61000000Y57994751D01*
X61168059Y58013687D01*
X61327690Y58069544D01*
X61460629Y58153077D01*
X61516466Y58162564D01*
X61539368Y58153077D01*
X61672310Y58069544D01*
X61831941Y58013687D01*
X62000000Y57994751D01*
X62168059Y58013687D01*
X62327690Y58069544D01*
X62470890Y58159523D01*
X62590477Y58279110D01*
X62680456Y58422310D01*
X62736313Y58581941D01*
X62755249Y58750000D01*
X62736313Y58918059D01*
X62718138Y58970000D01*
X89444417Y58970000D01*
X89464700Y58764065D01*
X89464815Y58763687D01*
X89524768Y58566046D01*
X89622315Y58383550D01*
X89753590Y58223590D01*
X89913550Y58092315D01*
X90096046Y57994768D01*
X90294066Y57934700D01*
X90500000Y57914417D01*
X90705934Y57934700D01*
X90903954Y57994768D01*
X91086450Y58092315D01*
X91246410Y58223590D01*
X91377685Y58383550D01*
X91475232Y58566046D01*
X91535300Y58764066D01*
X91555583Y58970000D01*
X91535300Y59175934D01*
X91475232Y59373954D01*
X91377685Y59556450D01*
X91246410Y59716410D01*
X91188802Y59763687D01*
X91086450Y59847685D01*
X90903956Y59945231D01*
X90903955Y59945232D01*
X90903954Y59945232D01*
X90792158Y59979145D01*
X90705935Y60005300D01*
X90500000Y60025583D01*
X90294064Y60005300D01*
X90096043Y59945231D01*
X89913549Y59847685D01*
X89753590Y59716411D01*
X89753589Y59716410D01*
X89622315Y59556451D01*
X89524769Y59373957D01*
X89464700Y59175936D01*
X89444417Y58970000D01*
X62718138Y58970000D01*
X62680456Y59077690D01*
X62590477Y59220890D01*
X62470890Y59340477D01*
X62470887Y59340479D01*
X62470885Y59340481D01*
X62327691Y59430456D01*
X62168067Y59486311D01*
X62168059Y59486313D01*
X62000000Y59505249D01*
X61831940Y59486313D01*
X61831932Y59486311D01*
X61672308Y59430456D01*
X61539371Y59346925D01*
X61483534Y59337437D01*
X61460629Y59346925D01*
X61327691Y59430456D01*
X61168067Y59486311D01*
X61168059Y59486313D01*
X61000000Y59505249D01*
X60831940Y59486313D01*
X60831932Y59486311D01*
X60672308Y59430456D01*
X60529114Y59340481D01*
X60409519Y59220886D01*
X60319544Y59077692D01*
X60263689Y58918068D01*
X60263687Y58918060D01*
X60244751Y58750000D01*
X44546585Y58750000D01*
X44668059Y58763687D01*
X44827690Y58819544D01*
X44970890Y58909523D01*
X45090477Y59029110D01*
X45180456Y59172310D01*
X45236313Y59331941D01*
X45255249Y59500000D01*
X45236313Y59668059D01*
X45180456Y59827690D01*
X45177785Y59831941D01*
X45090480Y59970886D01*
X45090478Y59970888D01*
X45090477Y59970890D01*
X44970890Y60090477D01*
X44970887Y60090479D01*
X44970885Y60090481D01*
X44827691Y60180456D01*
X44668067Y60236311D01*
X44668059Y60236313D01*
X44500000Y60255249D01*
X44331940Y60236313D01*
X44331932Y60236311D01*
X44172308Y60180456D01*
X44039371Y60096925D01*
X43983534Y60087437D01*
X43960629Y60096925D01*
X43827691Y60180456D01*
X43668067Y60236311D01*
X43668059Y60236313D01*
X43500000Y60255249D01*
X43331940Y60236313D01*
X43331932Y60236311D01*
X43172308Y60180456D01*
X43029114Y60090481D01*
X42909519Y59970886D01*
X42819544Y59827692D01*
X42763689Y59668068D01*
X42763687Y59668060D01*
X42744751Y59500000D01*
X32061367Y59500000D01*
X32090477Y59529110D01*
X32180456Y59672310D01*
X32236313Y59831941D01*
X32255249Y60000000D01*
X32236313Y60168059D01*
X32209477Y60244751D01*
X32185795Y60312432D01*
X32188970Y60368980D01*
X32231201Y60406720D01*
X32287749Y60403545D01*
X32295013Y60399530D01*
X32422308Y60319545D01*
X32422310Y60319544D01*
X32581941Y60263687D01*
X32750000Y60244751D01*
X32918059Y60263687D01*
X33077690Y60319544D01*
X33210629Y60403077D01*
X33266466Y60412564D01*
X33289368Y60403077D01*
X33349100Y60365545D01*
X33409345Y60327690D01*
X33422310Y60319544D01*
X33581941Y60263687D01*
X33750000Y60244751D01*
X33918059Y60263687D01*
X34077690Y60319544D01*
X34220890Y60409523D01*
X34311367Y60500000D01*
X40244751Y60500000D01*
X40263687Y60331941D01*
X40263689Y60331933D01*
X40319544Y60172309D01*
X40409519Y60029115D01*
X40409521Y60029113D01*
X40409523Y60029110D01*
X40529110Y59909523D01*
X40529112Y59909522D01*
X40529114Y59909520D01*
X40672308Y59819545D01*
X40672310Y59819544D01*
X40831941Y59763687D01*
X41000000Y59744751D01*
X41168059Y59763687D01*
X41327690Y59819544D01*
X41460629Y59903077D01*
X41516466Y59912564D01*
X41539368Y59903077D01*
X41623867Y59849983D01*
X41659345Y59827690D01*
X41672310Y59819544D01*
X41831941Y59763687D01*
X42000000Y59744751D01*
X42168059Y59763687D01*
X42327690Y59819544D01*
X42470890Y59909523D01*
X42590477Y60029110D01*
X42680456Y60172310D01*
X42736313Y60331941D01*
X42755249Y60500000D01*
X42736313Y60668059D01*
X42680456Y60827690D01*
X42590477Y60970890D01*
X42515367Y61046000D01*
X61244751Y61046000D01*
X61263687Y60877941D01*
X61263689Y60877933D01*
X61319544Y60718309D01*
X61409519Y60575115D01*
X61409521Y60575113D01*
X61409523Y60575110D01*
X61529110Y60455523D01*
X61529112Y60455522D01*
X61529114Y60455520D01*
X61672308Y60365545D01*
X61672310Y60365544D01*
X61831941Y60309687D01*
X62000000Y60290751D01*
X62168059Y60309687D01*
X62327690Y60365544D01*
X62460629Y60449077D01*
X62516466Y60458564D01*
X62539368Y60449077D01*
X62618222Y60399530D01*
X62666841Y60368980D01*
X62672310Y60365544D01*
X62831941Y60309687D01*
X63000000Y60290751D01*
X63168059Y60309687D01*
X63327690Y60365544D01*
X63470890Y60455523D01*
X63590477Y60575110D01*
X63680456Y60718310D01*
X63736313Y60877941D01*
X63755249Y61046000D01*
X63736313Y61214059D01*
X63680456Y61373690D01*
X63680455Y61373692D01*
X63594807Y61510000D01*
X89444417Y61510000D01*
X89457842Y61373690D01*
X89464700Y61304066D01*
X89505956Y61168060D01*
X89524769Y61106044D01*
X89581451Y61000000D01*
X89622315Y60923550D01*
X89753590Y60763590D01*
X89913550Y60632315D01*
X90096046Y60534768D01*
X90294066Y60474700D01*
X90500000Y60454417D01*
X90705934Y60474700D01*
X90903954Y60534768D01*
X91086450Y60632315D01*
X91246410Y60763590D01*
X91377685Y60923550D01*
X91475232Y61106046D01*
X91535300Y61304066D01*
X91555583Y61510000D01*
X91535300Y61715934D01*
X91475232Y61913954D01*
X91377685Y62096450D01*
X91246410Y62256410D01*
X91086450Y62387685D01*
X90903954Y62485232D01*
X90792158Y62519145D01*
X90705935Y62545300D01*
X90500000Y62565583D01*
X90294064Y62545300D01*
X90096043Y62485231D01*
X89913549Y62387685D01*
X89753590Y62256411D01*
X89753589Y62256410D01*
X89622315Y62096451D01*
X89524769Y61913957D01*
X89464700Y61715936D01*
X89444417Y61510000D01*
X63594807Y61510000D01*
X63590480Y61516886D01*
X63590478Y61516888D01*
X63590477Y61516890D01*
X63470890Y61636477D01*
X63470887Y61636479D01*
X63470885Y61636481D01*
X63327691Y61726456D01*
X63168067Y61782311D01*
X63168059Y61782313D01*
X63000000Y61801249D01*
X62831940Y61782313D01*
X62831932Y61782311D01*
X62672308Y61726456D01*
X62539371Y61642925D01*
X62483534Y61633437D01*
X62460629Y61642925D01*
X62327691Y61726456D01*
X62168067Y61782311D01*
X62168059Y61782313D01*
X62000000Y61801249D01*
X61831940Y61782313D01*
X61831932Y61782311D01*
X61672308Y61726456D01*
X61529114Y61636481D01*
X61409519Y61516886D01*
X61319544Y61373692D01*
X61263689Y61214068D01*
X61263687Y61214060D01*
X61244751Y61046000D01*
X42515367Y61046000D01*
X42470890Y61090477D01*
X42470887Y61090479D01*
X42470885Y61090481D01*
X42327691Y61180456D01*
X42168067Y61236311D01*
X42168059Y61236313D01*
X42000000Y61255249D01*
X41831940Y61236313D01*
X41831932Y61236311D01*
X41672308Y61180456D01*
X41539371Y61096925D01*
X41483534Y61087437D01*
X41460629Y61096925D01*
X41327691Y61180456D01*
X41168067Y61236311D01*
X41168059Y61236313D01*
X41000000Y61255249D01*
X40831940Y61236313D01*
X40831932Y61236311D01*
X40672308Y61180456D01*
X40529114Y61090481D01*
X40409519Y60970886D01*
X40319544Y60827692D01*
X40263689Y60668068D01*
X40263687Y60668060D01*
X40244751Y60500000D01*
X34311367Y60500000D01*
X34340477Y60529110D01*
X34430456Y60672310D01*
X34486313Y60831941D01*
X34505249Y61000000D01*
X34486313Y61168059D01*
X34430456Y61327690D01*
X34350470Y61454987D01*
X34340982Y61510824D01*
X34373756Y61557015D01*
X34429593Y61566503D01*
X34437568Y61564205D01*
X34572798Y61516886D01*
X34581941Y61513687D01*
X34750000Y61494751D01*
X34918059Y61513687D01*
X35077690Y61569544D01*
X35210629Y61653077D01*
X35266466Y61662564D01*
X35289368Y61653077D01*
X35362115Y61607367D01*
X35393833Y61587437D01*
X35422310Y61569544D01*
X35528929Y61532237D01*
X35572798Y61516886D01*
X35581941Y61513687D01*
X35750000Y61494751D01*
X35918059Y61513687D01*
X36077690Y61569544D01*
X36220890Y61659523D01*
X36340477Y61779110D01*
X36430456Y61922310D01*
X36486313Y62081941D01*
X36505249Y62250000D01*
X36486313Y62418059D01*
X36430456Y62577690D01*
X36340477Y62720890D01*
X36220890Y62840477D01*
X36220887Y62840479D01*
X36220885Y62840481D01*
X36077691Y62930456D01*
X35918067Y62986311D01*
X35918059Y62986313D01*
X35750000Y63005249D01*
X35581940Y62986313D01*
X35581932Y62986311D01*
X35422308Y62930456D01*
X35289371Y62846925D01*
X35233534Y62837437D01*
X35210629Y62846925D01*
X35077691Y62930456D01*
X34918067Y62986311D01*
X34918059Y62986313D01*
X34750000Y63005249D01*
X34581940Y62986313D01*
X34581932Y62986311D01*
X34422308Y62930456D01*
X34279114Y62840481D01*
X34159519Y62720886D01*
X34069544Y62577692D01*
X34013689Y62418068D01*
X34013687Y62418060D01*
X33994751Y62250000D01*
X34013687Y62081941D01*
X34013689Y62081933D01*
X34069544Y61922309D01*
X34149529Y61795014D01*
X34159017Y61739177D01*
X34126243Y61692986D01*
X34070406Y61683498D01*
X34062432Y61685796D01*
X33918070Y61736310D01*
X33918059Y61736313D01*
X33750000Y61755249D01*
X33581940Y61736313D01*
X33581932Y61736311D01*
X33422308Y61680456D01*
X33289371Y61596925D01*
X33233534Y61587437D01*
X33210629Y61596925D01*
X33077691Y61680456D01*
X32918067Y61736311D01*
X32918059Y61736313D01*
X32750000Y61755249D01*
X32581940Y61736313D01*
X32581932Y61736311D01*
X32422308Y61680456D01*
X32279114Y61590481D01*
X32279113Y61590480D01*
X32279110Y61590478D01*
X32279110Y61590477D01*
X32177324Y61488692D01*
X32125000Y61467018D01*
X32072675Y61488692D01*
X31970890Y61590477D01*
X31970887Y61590479D01*
X31970885Y61590481D01*
X31827691Y61680456D01*
X31668067Y61736311D01*
X31668059Y61736313D01*
X31500000Y61755249D01*
X31331940Y61736313D01*
X31331932Y61736311D01*
X31172308Y61680456D01*
X31029114Y61590481D01*
X30909519Y61470886D01*
X30819544Y61327692D01*
X30763689Y61168068D01*
X30763687Y61168060D01*
X30744751Y61000000D01*
X200500Y61000000D01*
X200500Y66000000D01*
X34744751Y66000000D01*
X34763687Y65831941D01*
X34763689Y65831933D01*
X34819544Y65672309D01*
X34909519Y65529115D01*
X34909521Y65529113D01*
X34909523Y65529110D01*
X35029110Y65409523D01*
X35029112Y65409522D01*
X35029114Y65409520D01*
X35172308Y65319544D01*
X35176051Y65317742D01*
X35175373Y65316335D01*
X35213674Y65282107D01*
X35216849Y65225559D01*
X35179109Y65183328D01*
X35173132Y65180853D01*
X35172308Y65180457D01*
X35029114Y65090481D01*
X34909519Y64970886D01*
X34819544Y64827692D01*
X34763689Y64668068D01*
X34763687Y64668060D01*
X34744751Y64500000D01*
X34763687Y64331941D01*
X34763689Y64331933D01*
X34819544Y64172309D01*
X34909519Y64029115D01*
X34909521Y64029113D01*
X34909523Y64029110D01*
X35029110Y63909523D01*
X35029112Y63909522D01*
X35029114Y63909520D01*
X35172308Y63819545D01*
X35172310Y63819544D01*
X35331941Y63763687D01*
X35500000Y63744751D01*
X35668059Y63763687D01*
X35827690Y63819544D01*
X35960629Y63903077D01*
X36016466Y63912564D01*
X36039368Y63903077D01*
X36123867Y63849983D01*
X36159345Y63827690D01*
X36172310Y63819544D01*
X36331941Y63763687D01*
X36500000Y63744751D01*
X36668059Y63763687D01*
X36827690Y63819544D01*
X36970890Y63909523D01*
X37061367Y64000000D01*
X40744751Y64000000D01*
X40763687Y63831941D01*
X40763689Y63831933D01*
X40819544Y63672309D01*
X40909519Y63529115D01*
X40909521Y63529113D01*
X40909523Y63529110D01*
X41029110Y63409523D01*
X41029112Y63409522D01*
X41029114Y63409520D01*
X41152580Y63331941D01*
X41172310Y63319544D01*
X41331941Y63263687D01*
X41500000Y63244751D01*
X41668059Y63263687D01*
X41827690Y63319544D01*
X41970890Y63409523D01*
X42072675Y63511309D01*
X42125000Y63532982D01*
X42177324Y63511309D01*
X42279110Y63409523D01*
X42279112Y63409522D01*
X42279114Y63409520D01*
X42402580Y63331941D01*
X42422310Y63319544D01*
X42581941Y63263687D01*
X42750000Y63244751D01*
X42918059Y63263687D01*
X43077690Y63319544D01*
X43220890Y63409523D01*
X43311367Y63500000D01*
X60244751Y63500000D01*
X60263687Y63331941D01*
X60263689Y63331933D01*
X60319544Y63172309D01*
X60409519Y63029115D01*
X60409521Y63029113D01*
X60409523Y63029110D01*
X60529110Y62909523D01*
X60529112Y62909522D01*
X60529114Y62909520D01*
X60672308Y62819545D01*
X60672310Y62819544D01*
X60831941Y62763687D01*
X61000000Y62744751D01*
X61168059Y62763687D01*
X61327690Y62819544D01*
X61460629Y62903077D01*
X61516466Y62912564D01*
X61539368Y62903077D01*
X61623867Y62849983D01*
X61643833Y62837437D01*
X61672310Y62819544D01*
X61831941Y62763687D01*
X62000000Y62744751D01*
X62168059Y62763687D01*
X62327690Y62819544D01*
X62470890Y62909523D01*
X62590477Y63029110D01*
X62680456Y63172310D01*
X62736313Y63331941D01*
X62755249Y63500000D01*
X62736313Y63668059D01*
X62680456Y63827690D01*
X62590477Y63970890D01*
X62470890Y64090477D01*
X62470887Y64090479D01*
X62470885Y64090481D01*
X62327691Y64180456D01*
X62168067Y64236311D01*
X62168059Y64236313D01*
X62000000Y64255249D01*
X61831940Y64236313D01*
X61831932Y64236311D01*
X61672308Y64180456D01*
X61539371Y64096925D01*
X61483534Y64087437D01*
X61460629Y64096925D01*
X61327691Y64180456D01*
X61168067Y64236311D01*
X61168059Y64236313D01*
X61000000Y64255249D01*
X60831940Y64236313D01*
X60831932Y64236311D01*
X60672308Y64180456D01*
X60529114Y64090481D01*
X60409519Y63970886D01*
X60319544Y63827692D01*
X60263689Y63668068D01*
X60263687Y63668060D01*
X60244751Y63500000D01*
X43311367Y63500000D01*
X43340477Y63529110D01*
X43430456Y63672310D01*
X43486313Y63831941D01*
X43505249Y64000000D01*
X43486313Y64168059D01*
X43430456Y64327690D01*
X43340477Y64470890D01*
X43220890Y64590477D01*
X43220887Y64590479D01*
X43220885Y64590481D01*
X43077691Y64680456D01*
X42918067Y64736311D01*
X42918059Y64736313D01*
X42750000Y64755249D01*
X42581940Y64736313D01*
X42581932Y64736311D01*
X42422308Y64680456D01*
X42279114Y64590481D01*
X42279113Y64590480D01*
X42279110Y64590478D01*
X42279110Y64590477D01*
X42177324Y64488692D01*
X42125000Y64467018D01*
X42072675Y64488692D01*
X41970890Y64590477D01*
X41970887Y64590479D01*
X41970885Y64590481D01*
X41827691Y64680456D01*
X41668067Y64736311D01*
X41668059Y64736313D01*
X41500000Y64755249D01*
X41331940Y64736313D01*
X41331932Y64736311D01*
X41172308Y64680456D01*
X41029114Y64590481D01*
X40909519Y64470886D01*
X40819544Y64327692D01*
X40763689Y64168068D01*
X40763687Y64168060D01*
X40744751Y64000000D01*
X37061367Y64000000D01*
X37090477Y64029110D01*
X37180456Y64172310D01*
X37236313Y64331941D01*
X37255249Y64500000D01*
X37236313Y64668059D01*
X37180456Y64827690D01*
X37090477Y64970890D01*
X36970890Y65090477D01*
X36970887Y65090479D01*
X36970885Y65090481D01*
X36827691Y65180457D01*
X36823949Y65182258D01*
X36824627Y65183667D01*
X36786328Y65217886D01*
X36783147Y65274434D01*
X36820883Y65316669D01*
X36826874Y65319151D01*
X36827691Y65319544D01*
X36970885Y65409520D01*
X36970884Y65409520D01*
X36970890Y65409523D01*
X37090477Y65529110D01*
X37180456Y65672310D01*
X37236313Y65831941D01*
X37255249Y66000000D01*
X37236313Y66168059D01*
X37180456Y66327690D01*
X37123673Y66418059D01*
X37090480Y66470886D01*
X37090478Y66470888D01*
X37090477Y66470890D01*
X36970890Y66590477D01*
X36970887Y66590479D01*
X36970885Y66590481D01*
X36827691Y66680456D01*
X36668067Y66736311D01*
X36668059Y66736313D01*
X36500000Y66755249D01*
X36331940Y66736313D01*
X36331932Y66736311D01*
X36172308Y66680456D01*
X36039371Y66596925D01*
X35983534Y66587437D01*
X35960629Y66596925D01*
X35827691Y66680456D01*
X35668067Y66736311D01*
X35668059Y66736313D01*
X35500000Y66755249D01*
X35331940Y66736313D01*
X35331932Y66736311D01*
X35172308Y66680456D01*
X35029114Y66590481D01*
X34909519Y66470886D01*
X34819544Y66327692D01*
X34763689Y66168068D01*
X34763687Y66168060D01*
X34744751Y66000000D01*
X200500Y66000000D01*
X200500Y67250000D01*
X40744751Y67250000D01*
X40763687Y67081941D01*
X40763689Y67081933D01*
X40819544Y66922309D01*
X40903075Y66789371D01*
X40912563Y66733534D01*
X40903075Y66710629D01*
X40819544Y66577692D01*
X40763689Y66418068D01*
X40763687Y66418060D01*
X40744751Y66250000D01*
X40763687Y66081941D01*
X40763689Y66081933D01*
X40819544Y65922309D01*
X40909519Y65779115D01*
X40909521Y65779113D01*
X40909523Y65779110D01*
X41029110Y65659523D01*
X41029112Y65659522D01*
X41029114Y65659520D01*
X41172308Y65569545D01*
X41172310Y65569544D01*
X41331941Y65513687D01*
X41500000Y65494751D01*
X41668059Y65513687D01*
X41827690Y65569544D01*
X41970890Y65659523D01*
X42072675Y65761309D01*
X42125000Y65782982D01*
X42177324Y65761309D01*
X42279110Y65659523D01*
X42279112Y65659522D01*
X42279114Y65659520D01*
X42422308Y65569545D01*
X42422310Y65569544D01*
X42581941Y65513687D01*
X42750000Y65494751D01*
X42918059Y65513687D01*
X43077690Y65569544D01*
X43220890Y65659523D01*
X43340477Y65779110D01*
X43430456Y65922310D01*
X43457641Y66000000D01*
X49994751Y66000000D01*
X50013687Y65831941D01*
X50013689Y65831933D01*
X50069544Y65672309D01*
X50153075Y65539371D01*
X50162563Y65483534D01*
X50153075Y65460629D01*
X50069544Y65327692D01*
X50013689Y65168068D01*
X50013687Y65168060D01*
X49994751Y65000000D01*
X50013687Y64831941D01*
X50013689Y64831933D01*
X50069544Y64672309D01*
X50159519Y64529115D01*
X50159521Y64529113D01*
X50159523Y64529110D01*
X50279110Y64409523D01*
X50279112Y64409522D01*
X50279114Y64409520D01*
X50422308Y64319545D01*
X50422310Y64319544D01*
X50581941Y64263687D01*
X50750000Y64244751D01*
X50918059Y64263687D01*
X51077690Y64319544D01*
X51220890Y64409523D01*
X51340477Y64529110D01*
X51430456Y64672310D01*
X51486313Y64831941D01*
X51505249Y65000000D01*
X51486313Y65168059D01*
X51430456Y65327690D01*
X51346923Y65460630D01*
X51337436Y65516466D01*
X51346924Y65539371D01*
X51365884Y65569544D01*
X51430456Y65672310D01*
X51486313Y65831941D01*
X51505249Y66000000D01*
X51486313Y66168059D01*
X51430456Y66327690D01*
X51373673Y66418059D01*
X51340480Y66470886D01*
X51340478Y66470888D01*
X51340477Y66470890D01*
X51220890Y66590477D01*
X51220887Y66590479D01*
X51220885Y66590481D01*
X51077691Y66680456D01*
X50918067Y66736311D01*
X50918059Y66736313D01*
X50750000Y66755249D01*
X50581940Y66736313D01*
X50581932Y66736311D01*
X50422308Y66680456D01*
X50279114Y66590481D01*
X50159519Y66470886D01*
X50069544Y66327692D01*
X50013689Y66168068D01*
X50013687Y66168060D01*
X49994751Y66000000D01*
X43457641Y66000000D01*
X43486313Y66081941D01*
X43505249Y66250000D01*
X43486313Y66418059D01*
X43430456Y66577690D01*
X43422421Y66590477D01*
X43400017Y66626133D01*
X43346923Y66710630D01*
X43337436Y66766466D01*
X43346924Y66789371D01*
X43365884Y66819544D01*
X43430456Y66922310D01*
X43486313Y67081941D01*
X43505249Y67250000D01*
X43486313Y67418059D01*
X43457641Y67500000D01*
X47994751Y67500000D01*
X48013687Y67331941D01*
X48013689Y67331933D01*
X48069544Y67172309D01*
X48159519Y67029115D01*
X48159521Y67029113D01*
X48159523Y67029110D01*
X48279110Y66909523D01*
X48279112Y66909522D01*
X48279114Y66909520D01*
X48289370Y66903076D01*
X48422310Y66819544D01*
X48581941Y66763687D01*
X48750000Y66744751D01*
X48918059Y66763687D01*
X49077690Y66819544D01*
X49210629Y66903077D01*
X49266466Y66912564D01*
X49289368Y66903077D01*
X49422310Y66819544D01*
X49581941Y66763687D01*
X49750000Y66744751D01*
X49918059Y66763687D01*
X50077690Y66819544D01*
X50220890Y66909523D01*
X50340477Y67029110D01*
X50430456Y67172310D01*
X50486313Y67331941D01*
X50505249Y67500000D01*
X50486313Y67668059D01*
X50430456Y67827690D01*
X50430455Y67827692D01*
X50340480Y67970886D01*
X50340478Y67970888D01*
X50340477Y67970890D01*
X50220890Y68090477D01*
X50220887Y68090479D01*
X50220885Y68090481D01*
X50077691Y68180456D01*
X49918067Y68236311D01*
X49918059Y68236313D01*
X49750000Y68255249D01*
X49581940Y68236313D01*
X49581932Y68236311D01*
X49422308Y68180456D01*
X49289371Y68096925D01*
X49233534Y68087437D01*
X49210629Y68096925D01*
X49077691Y68180456D01*
X48918067Y68236311D01*
X48918059Y68236313D01*
X48750000Y68255249D01*
X48581940Y68236313D01*
X48581932Y68236311D01*
X48422308Y68180456D01*
X48279114Y68090481D01*
X48159519Y67970886D01*
X48069544Y67827692D01*
X48013689Y67668068D01*
X48013687Y67668060D01*
X47994751Y67500000D01*
X43457641Y67500000D01*
X43430456Y67577690D01*
X43373673Y67668059D01*
X43340480Y67720886D01*
X43340478Y67720888D01*
X43340477Y67720890D01*
X43220890Y67840477D01*
X43220887Y67840479D01*
X43220885Y67840481D01*
X43077691Y67930456D01*
X42918067Y67986311D01*
X42918059Y67986313D01*
X42750000Y68005249D01*
X42581940Y67986313D01*
X42581932Y67986311D01*
X42422308Y67930456D01*
X42279114Y67840481D01*
X42279113Y67840480D01*
X42279110Y67840478D01*
X42279110Y67840477D01*
X42177324Y67738692D01*
X42125000Y67717018D01*
X42072675Y67738692D01*
X41970890Y67840477D01*
X41970887Y67840479D01*
X41970885Y67840481D01*
X41827691Y67930456D01*
X41668067Y67986311D01*
X41668059Y67986313D01*
X41500000Y68005249D01*
X41331940Y67986313D01*
X41331932Y67986311D01*
X41172308Y67930456D01*
X41029114Y67840481D01*
X40909519Y67720886D01*
X40819544Y67577692D01*
X40763689Y67418068D01*
X40763687Y67418060D01*
X40744751Y67250000D01*
X200500Y67250000D01*
X200500Y69250000D01*
X34744751Y69250000D01*
X34763687Y69081941D01*
X34763689Y69081933D01*
X34819544Y68922309D01*
X34909519Y68779115D01*
X34909521Y68779113D01*
X34909523Y68779110D01*
X35029110Y68659523D01*
X35029112Y68659522D01*
X35029114Y68659520D01*
X35172308Y68569545D01*
X35172310Y68569544D01*
X35331941Y68513687D01*
X35500000Y68494751D01*
X35668059Y68513687D01*
X35827690Y68569544D01*
X35960629Y68653077D01*
X36016466Y68662564D01*
X36039368Y68653077D01*
X36123867Y68599983D01*
X36159345Y68577690D01*
X36172310Y68569544D01*
X36331941Y68513687D01*
X36500000Y68494751D01*
X36668059Y68513687D01*
X36827690Y68569544D01*
X36970890Y68659523D01*
X37090477Y68779110D01*
X37180456Y68922310D01*
X37236313Y69081941D01*
X37255249Y69250000D01*
X37236313Y69418059D01*
X37180456Y69577690D01*
X37090477Y69720890D01*
X36970890Y69840477D01*
X36970887Y69840479D01*
X36970885Y69840481D01*
X36827691Y69930456D01*
X36668067Y69986311D01*
X36668059Y69986313D01*
X36546585Y70000000D01*
X64744751Y70000000D01*
X64763687Y69831941D01*
X64763689Y69831933D01*
X64819544Y69672309D01*
X64909519Y69529115D01*
X64909521Y69529113D01*
X64909523Y69529110D01*
X65029110Y69409523D01*
X65029112Y69409522D01*
X65029114Y69409520D01*
X65172309Y69319544D01*
X65330026Y69264357D01*
X65372258Y69226618D01*
X65375433Y69170070D01*
X65344957Y69131853D01*
X65279115Y69090481D01*
X65279113Y69090480D01*
X65159519Y68970886D01*
X65069544Y68827692D01*
X65013689Y68668068D01*
X65013687Y68668060D01*
X64994751Y68500000D01*
X65013687Y68331941D01*
X65013689Y68331933D01*
X65069544Y68172309D01*
X65159519Y68029115D01*
X65159521Y68029113D01*
X65159523Y68029110D01*
X65279110Y67909523D01*
X65279112Y67909522D01*
X65279114Y67909520D01*
X65422308Y67819545D01*
X65422310Y67819544D01*
X65581941Y67763687D01*
X65750000Y67744751D01*
X65918059Y67763687D01*
X66077690Y67819544D01*
X66210629Y67903077D01*
X66266466Y67912564D01*
X66289368Y67903077D01*
X66373867Y67849983D01*
X66409345Y67827690D01*
X66422310Y67819544D01*
X66581941Y67763687D01*
X66750000Y67744751D01*
X66918059Y67763687D01*
X67077690Y67819544D01*
X67220890Y67909523D01*
X67340477Y68029110D01*
X67430456Y68172310D01*
X67457641Y68250000D01*
X88244751Y68250000D01*
X88263687Y68081941D01*
X88263689Y68081933D01*
X88319544Y67922309D01*
X88409519Y67779115D01*
X88409521Y67779113D01*
X88409523Y67779110D01*
X88529110Y67659523D01*
X88529112Y67659522D01*
X88529114Y67659520D01*
X88672308Y67569545D01*
X88672310Y67569544D01*
X88831941Y67513687D01*
X88936640Y67501891D01*
X88986210Y67474494D01*
X89001889Y67436643D01*
X89013687Y67331940D01*
X89013689Y67331933D01*
X89069544Y67172309D01*
X89159519Y67029115D01*
X89159521Y67029113D01*
X89159523Y67029110D01*
X89279110Y66909523D01*
X89279112Y66909522D01*
X89279114Y66909520D01*
X89289370Y66903076D01*
X89422310Y66819544D01*
X89581941Y66763687D01*
X89750000Y66744751D01*
X89918059Y66763687D01*
X90077690Y66819544D01*
X90220890Y66909523D01*
X90340477Y67029110D01*
X90430456Y67172310D01*
X90486313Y67331941D01*
X90505249Y67500000D01*
X90486313Y67668059D01*
X90430456Y67827690D01*
X90430455Y67827692D01*
X90340480Y67970886D01*
X90340478Y67970888D01*
X90340477Y67970890D01*
X90220890Y68090477D01*
X90220887Y68090479D01*
X90220885Y68090481D01*
X90077691Y68180456D01*
X89918067Y68236311D01*
X89918060Y68236313D01*
X89813357Y68248111D01*
X89763788Y68275509D01*
X89748109Y68313360D01*
X89736313Y68418059D01*
X89680456Y68577690D01*
X89623673Y68668059D01*
X89590480Y68720886D01*
X89590478Y68720888D01*
X89590477Y68720890D01*
X89470890Y68840477D01*
X89470887Y68840479D01*
X89470885Y68840481D01*
X89327691Y68930456D01*
X89168067Y68986311D01*
X89168059Y68986313D01*
X89000000Y69005249D01*
X88831940Y68986313D01*
X88831932Y68986311D01*
X88672308Y68930456D01*
X88529114Y68840481D01*
X88409519Y68720886D01*
X88319544Y68577692D01*
X88263689Y68418068D01*
X88263687Y68418060D01*
X88244751Y68250000D01*
X67457641Y68250000D01*
X67486313Y68331941D01*
X67505249Y68500000D01*
X67486313Y68668059D01*
X67430456Y68827690D01*
X67430455Y68827692D01*
X67340480Y68970886D01*
X67340478Y68970888D01*
X67340477Y68970890D01*
X67220890Y69090477D01*
X67220887Y69090479D01*
X67220885Y69090481D01*
X67077691Y69180456D01*
X66919972Y69235644D01*
X66877741Y69273383D01*
X66874566Y69329932D01*
X66905041Y69368148D01*
X66970890Y69409523D01*
X67090477Y69529110D01*
X67180456Y69672310D01*
X67236313Y69831941D01*
X67255249Y70000000D01*
X67236313Y70168059D01*
X67180456Y70327690D01*
X67090477Y70470890D01*
X66970890Y70590477D01*
X66970887Y70590479D01*
X66970885Y70590481D01*
X66827691Y70680456D01*
X66668067Y70736311D01*
X66668059Y70736313D01*
X66500000Y70755249D01*
X66331940Y70736313D01*
X66331932Y70736311D01*
X66172308Y70680456D01*
X66039371Y70596925D01*
X65983534Y70587437D01*
X65960629Y70596925D01*
X65827691Y70680456D01*
X65668067Y70736311D01*
X65668059Y70736313D01*
X65500000Y70755249D01*
X65331940Y70736313D01*
X65331932Y70736311D01*
X65172308Y70680456D01*
X65029114Y70590481D01*
X64909519Y70470886D01*
X64819544Y70327692D01*
X64763689Y70168068D01*
X64763687Y70168060D01*
X64744751Y70000000D01*
X36546585Y70000000D01*
X36500000Y70005249D01*
X36331940Y69986313D01*
X36331932Y69986311D01*
X36172308Y69930456D01*
X36039371Y69846925D01*
X35983534Y69837437D01*
X35960629Y69846925D01*
X35827691Y69930456D01*
X35668067Y69986311D01*
X35668059Y69986313D01*
X35500000Y70005249D01*
X35331940Y69986313D01*
X35331932Y69986311D01*
X35172308Y69930456D01*
X35029114Y69840481D01*
X34909519Y69720886D01*
X34819544Y69577692D01*
X34763689Y69418068D01*
X34763687Y69418060D01*
X34744751Y69250000D01*
X200500Y69250000D01*
X200500Y71000000D01*
X50494751Y71000000D01*
X50513687Y70831941D01*
X50513689Y70831933D01*
X50569544Y70672309D01*
X50659519Y70529115D01*
X50659521Y70529113D01*
X50659523Y70529110D01*
X50779110Y70409523D01*
X50779112Y70409522D01*
X50779114Y70409520D01*
X50922308Y70319545D01*
X50922310Y70319544D01*
X51081941Y70263687D01*
X51250000Y70244751D01*
X51418059Y70263687D01*
X51577690Y70319544D01*
X51720890Y70409523D01*
X51840477Y70529110D01*
X51930456Y70672310D01*
X51986313Y70831941D01*
X52005249Y71000000D01*
X51986313Y71168059D01*
X51959477Y71244751D01*
X51935795Y71312432D01*
X51938970Y71368980D01*
X51981201Y71406720D01*
X52037749Y71403545D01*
X52045013Y71399530D01*
X52172308Y71319545D01*
X52172310Y71319544D01*
X52331941Y71263687D01*
X52500000Y71244751D01*
X52668059Y71263687D01*
X52827690Y71319544D01*
X52970890Y71409523D01*
X53090477Y71529110D01*
X53180456Y71672310D01*
X53236313Y71831941D01*
X53255249Y72000000D01*
X53236313Y72168059D01*
X53180456Y72327690D01*
X53090477Y72470890D01*
X52970890Y72590477D01*
X52970887Y72590479D01*
X52970885Y72590481D01*
X52827691Y72680456D01*
X52668067Y72736311D01*
X52668059Y72736313D01*
X52500000Y72755249D01*
X52331940Y72736313D01*
X52331932Y72736311D01*
X52172308Y72680456D01*
X52029114Y72590481D01*
X51909519Y72470886D01*
X51819544Y72327692D01*
X51763689Y72168068D01*
X51763687Y72168060D01*
X51744751Y72000000D01*
X51763687Y71831941D01*
X51763690Y71831930D01*
X51814204Y71687568D01*
X51811029Y71631020D01*
X51768797Y71593281D01*
X51712249Y71596456D01*
X51704986Y71600471D01*
X51577691Y71680456D01*
X51418067Y71736311D01*
X51418059Y71736313D01*
X51250000Y71755249D01*
X51081940Y71736313D01*
X51081932Y71736311D01*
X50922308Y71680456D01*
X50779114Y71590481D01*
X50659519Y71470886D01*
X50569544Y71327692D01*
X50513689Y71168068D01*
X50513687Y71168060D01*
X50494751Y71000000D01*
X200500Y71000000D01*
X200500Y77500000D01*
X58744751Y77500000D01*
X58763687Y77331941D01*
X58763689Y77331933D01*
X58819544Y77172309D01*
X58909519Y77029115D01*
X58909521Y77029113D01*
X58909523Y77029110D01*
X59029110Y76909523D01*
X59029112Y76909522D01*
X59029114Y76909520D01*
X59039370Y76903076D01*
X59172310Y76819544D01*
X59331941Y76763687D01*
X59500000Y76744751D01*
X59668059Y76763687D01*
X59827690Y76819544D01*
X59960629Y76903077D01*
X60016466Y76912564D01*
X60039368Y76903077D01*
X60172310Y76819544D01*
X60331941Y76763687D01*
X60500000Y76744751D01*
X60668059Y76763687D01*
X60827690Y76819544D01*
X60970890Y76909523D01*
X61090477Y77029110D01*
X61180456Y77172310D01*
X61236313Y77331941D01*
X61255249Y77500000D01*
X61236313Y77668059D01*
X61180456Y77827690D01*
X61090477Y77970890D01*
X60970890Y78090477D01*
X60970887Y78090479D01*
X60970885Y78090481D01*
X60827691Y78180456D01*
X60668067Y78236311D01*
X60668059Y78236313D01*
X60500000Y78255249D01*
X60331940Y78236313D01*
X60331932Y78236311D01*
X60172308Y78180456D01*
X60039371Y78096925D01*
X59983534Y78087437D01*
X59960629Y78096925D01*
X59827691Y78180456D01*
X59668067Y78236311D01*
X59668059Y78236313D01*
X59500000Y78255249D01*
X59331940Y78236313D01*
X59331932Y78236311D01*
X59172308Y78180456D01*
X59029114Y78090481D01*
X58909519Y77970886D01*
X58819544Y77827692D01*
X58763689Y77668068D01*
X58763687Y77668060D01*
X58744751Y77500000D01*
X200500Y77500000D01*
X200500Y79000000D01*
X65494751Y79000000D01*
X65513687Y78831941D01*
X65513689Y78831933D01*
X65569544Y78672309D01*
X65659519Y78529115D01*
X65659521Y78529113D01*
X65659523Y78529110D01*
X65779110Y78409523D01*
X65779112Y78409522D01*
X65779114Y78409520D01*
X65789370Y78403076D01*
X65922310Y78319544D01*
X66081941Y78263687D01*
X66250000Y78244751D01*
X66418059Y78263687D01*
X66577690Y78319544D01*
X66710629Y78403077D01*
X66766466Y78412564D01*
X66789368Y78403077D01*
X66922310Y78319544D01*
X67081941Y78263687D01*
X67250000Y78244751D01*
X67418059Y78263687D01*
X67577690Y78319544D01*
X67720890Y78409523D01*
X67840477Y78529110D01*
X67930456Y78672310D01*
X67986313Y78831941D01*
X68005249Y79000000D01*
X67986313Y79168059D01*
X67930456Y79327690D01*
X67840477Y79470890D01*
X67720890Y79590477D01*
X67720887Y79590479D01*
X67720885Y79590481D01*
X67577691Y79680456D01*
X67418067Y79736311D01*
X67418059Y79736313D01*
X67250000Y79755249D01*
X67081940Y79736313D01*
X67081932Y79736311D01*
X66922308Y79680456D01*
X66789371Y79596925D01*
X66733534Y79587437D01*
X66710629Y79596925D01*
X66577691Y79680456D01*
X66418067Y79736311D01*
X66418059Y79736313D01*
X66250000Y79755249D01*
X66081940Y79736313D01*
X66081932Y79736311D01*
X65922308Y79680456D01*
X65779114Y79590481D01*
X65659519Y79470886D01*
X65569544Y79327692D01*
X65513689Y79168068D01*
X65513687Y79168060D01*
X65494751Y79000000D01*
X200500Y79000000D01*
X200500Y80500000D01*
X60744751Y80500000D01*
X60763687Y80331941D01*
X60763689Y80331933D01*
X60819544Y80172309D01*
X60909519Y80029115D01*
X60909521Y80029113D01*
X60909523Y80029110D01*
X61029110Y79909523D01*
X61029112Y79909522D01*
X61029114Y79909520D01*
X61172308Y79819545D01*
X61172310Y79819544D01*
X61331941Y79763687D01*
X61500000Y79744751D01*
X61668059Y79763687D01*
X61827690Y79819544D01*
X61970890Y79909523D01*
X62072675Y80011309D01*
X62125000Y80032982D01*
X62177324Y80011309D01*
X62279110Y79909523D01*
X62279112Y79909522D01*
X62279114Y79909520D01*
X62422308Y79819545D01*
X62422310Y79819544D01*
X62581941Y79763687D01*
X62750000Y79744751D01*
X62918059Y79763687D01*
X63077690Y79819544D01*
X63220890Y79909523D01*
X63340477Y80029110D01*
X63430456Y80172310D01*
X63486313Y80331941D01*
X63505249Y80500000D01*
X63486313Y80668059D01*
X63430456Y80827690D01*
X63340477Y80970890D01*
X63220890Y81090477D01*
X63220887Y81090479D01*
X63220885Y81090481D01*
X63077691Y81180456D01*
X62918067Y81236311D01*
X62918059Y81236313D01*
X62750000Y81255249D01*
X62581940Y81236313D01*
X62581932Y81236311D01*
X62422308Y81180456D01*
X62279114Y81090481D01*
X62279113Y81090480D01*
X62279110Y81090478D01*
X62279110Y81090477D01*
X62177324Y80988692D01*
X62125000Y80967018D01*
X62072675Y80988692D01*
X61970890Y81090477D01*
X61970887Y81090479D01*
X61970885Y81090481D01*
X61827691Y81180456D01*
X61668067Y81236311D01*
X61668059Y81236313D01*
X61500000Y81255249D01*
X61331940Y81236313D01*
X61331932Y81236311D01*
X61172308Y81180456D01*
X61029114Y81090481D01*
X60909519Y80970886D01*
X60819544Y80827692D01*
X60763689Y80668068D01*
X60763687Y80668060D01*
X60744751Y80500000D01*
X200500Y80500000D01*
X200500Y88497092D01*
X200728Y88502898D01*
X216042Y88697485D01*
X217857Y88708948D01*
X262744Y88895915D01*
X266325Y88906936D01*
X339910Y89084587D01*
X345181Y89094929D01*
X345704Y89095782D01*
X445643Y89258869D01*
X452457Y89268248D01*
X577339Y89414465D01*
X585535Y89422661D01*
X731752Y89547543D01*
X741131Y89554357D01*
X905074Y89654821D01*
X915413Y89660090D01*
X1093064Y89733675D01*
X1104085Y89737256D01*
X1291052Y89782143D01*
X1302510Y89783958D01*
X1497103Y89799272D01*
X1502909Y89799500D01*
X1539882Y89799500D01*
X94460118Y89799500D01*
X94497091Y89799500D01*
X94502897Y89799272D01*
G37*
%TD.AperFunction*%
%TD*%
M02*
