%TF.GenerationSoftware,KiCad,Pcbnew,8.0.8*%
%TF.CreationDate,2025-03-28T17:24:47+01:00*%
%TF.ProjectId,mcu,6d63752e-6b69-4636-9164-5f7063625858,rev?*%
%TF.SameCoordinates,PX47868c0PY8583b00*%
%TF.FileFunction,Paste,Top*%
%TF.FilePolarity,Positive*%
%FSLAX46Y46*%
G04 Gerber Fmt 4.6, Leading zero omitted, Abs format (unit mm)*
G04 Created by KiCad (PCBNEW 8.0.8) date 2025-03-28 17:24:47*
%MOMM*%
%LPD*%
G01*
G04 APERTURE LIST*
G04 Aperture macros list*
%AMRoundRect*
0 Rectangle with rounded corners*
0 $1 Rounding radius*
0 $2 $3 $4 $5 $6 $7 $8 $9 X,Y pos of 4 corners*
0 Add a 4 corners polygon primitive as box body*
4,1,4,$2,$3,$4,$5,$6,$7,$8,$9,$2,$3,0*
0 Add four circle primitives for the rounded corners*
1,1,$1+$1,$2,$3*
1,1,$1+$1,$4,$5*
1,1,$1+$1,$6,$7*
1,1,$1+$1,$8,$9*
0 Add four rect primitives between the rounded corners*
20,1,$1+$1,$2,$3,$4,$5,0*
20,1,$1+$1,$4,$5,$6,$7,0*
20,1,$1+$1,$6,$7,$8,$9,0*
20,1,$1+$1,$8,$9,$2,$3,0*%
G04 Aperture macros list end*
%ADD10RoundRect,0.100000X0.112500X-0.100000X0.112500X0.100000X-0.112500X0.100000X-0.112500X-0.100000X0*%
%ADD11RoundRect,0.237500X0.337500X-0.237500X0.337500X0.237500X-0.337500X0.237500X-0.337500X-0.237500X0*%
%ADD12RoundRect,0.120000X0.280000X-0.120000X0.280000X0.120000X-0.280000X0.120000X-0.280000X-0.120000X0*%
%ADD13RoundRect,0.100000X-0.500000X0.100000X-0.500000X-0.100000X0.500000X-0.100000X0.500000X0.100000X0*%
%ADD14RoundRect,0.100000X0.525000X-0.100000X0.525000X0.100000X-0.525000X0.100000X-0.525000X-0.100000X0*%
%ADD15RoundRect,0.200000X0.200000X0.275000X-0.200000X0.275000X-0.200000X-0.275000X0.200000X-0.275000X0*%
%ADD16RoundRect,0.140000X0.140000X0.170000X-0.140000X0.170000X-0.140000X-0.170000X0.140000X-0.170000X0*%
%ADD17RoundRect,0.200000X-0.275000X0.200000X-0.275000X-0.200000X0.275000X-0.200000X0.275000X0.200000X0*%
%ADD18RoundRect,0.250000X0.250000X0.475000X-0.250000X0.475000X-0.250000X-0.475000X0.250000X-0.475000X0*%
%ADD19RoundRect,0.140000X-0.140000X-0.170000X0.140000X-0.170000X0.140000X0.170000X-0.140000X0.170000X0*%
%ADD20RoundRect,0.135000X0.185000X-0.135000X0.185000X0.135000X-0.185000X0.135000X-0.185000X-0.135000X0*%
%ADD21R,1.000000X0.900000*%
%ADD22RoundRect,0.225000X0.250000X-0.225000X0.250000X0.225000X-0.250000X0.225000X-0.250000X-0.225000X0*%
%ADD23RoundRect,0.135000X-0.185000X0.135000X-0.185000X-0.135000X0.185000X-0.135000X0.185000X0.135000X0*%
%ADD24RoundRect,0.140000X-0.170000X0.140000X-0.170000X-0.140000X0.170000X-0.140000X0.170000X0.140000X0*%
%ADD25RoundRect,0.250000X-0.475000X0.250000X-0.475000X-0.250000X0.475000X-0.250000X0.475000X0.250000X0*%
%ADD26RoundRect,0.200000X0.275000X-0.200000X0.275000X0.200000X-0.275000X0.200000X-0.275000X-0.200000X0*%
%ADD27RoundRect,0.150000X-0.512500X-0.150000X0.512500X-0.150000X0.512500X0.150000X-0.512500X0.150000X0*%
%ADD28RoundRect,0.140000X0.170000X-0.140000X0.170000X0.140000X-0.170000X0.140000X-0.170000X-0.140000X0*%
%ADD29RoundRect,0.075000X0.725000X0.075000X-0.725000X0.075000X-0.725000X-0.075000X0.725000X-0.075000X0*%
%ADD30RoundRect,0.075000X0.075000X0.725000X-0.075000X0.725000X-0.075000X-0.725000X0.075000X-0.725000X0*%
%ADD31RoundRect,0.225000X-0.225000X-0.250000X0.225000X-0.250000X0.225000X0.250000X-0.225000X0.250000X0*%
%ADD32RoundRect,0.250000X0.825000X0.850000X-0.825000X0.850000X-0.825000X-0.850000X0.825000X-0.850000X0*%
%ADD33RoundRect,0.135000X-0.135000X-0.185000X0.135000X-0.185000X0.135000X0.185000X-0.135000X0.185000X0*%
%ADD34RoundRect,0.250000X0.475000X-0.250000X0.475000X0.250000X-0.475000X0.250000X-0.475000X-0.250000X0*%
G04 APERTURE END LIST*
D10*
%TO.C,Q5*%
X58938000Y38100000D03*
X58938000Y38750000D03*
X58938000Y39400000D03*
X57062000Y39400000D03*
X57062000Y38750000D03*
X57062000Y38100000D03*
D11*
X58000000Y38425000D03*
D12*
X58000000Y39440000D03*
%TD*%
D13*
%TO.C,IC6*%
X14900000Y30950000D03*
X14900000Y31600000D03*
X14900000Y32250000D03*
X13000000Y32250000D03*
X13000000Y30950000D03*
%TD*%
D14*
%TO.C,J3*%
X4900000Y67950000D03*
X4900000Y67300000D03*
X4900000Y66650000D03*
X4900000Y66000000D03*
X4900000Y65350000D03*
%TD*%
D15*
%TO.C,R32*%
X64575000Y68500000D03*
X62925000Y68500000D03*
%TD*%
D16*
%TO.C,C43*%
X38980000Y54500000D03*
X38020000Y54500000D03*
%TD*%
D17*
%TO.C,R36*%
X63500000Y75825000D03*
X63500000Y74175000D03*
%TD*%
D18*
%TO.C,C45*%
X41250000Y73000000D03*
X39350000Y73000000D03*
%TD*%
D19*
%TO.C,C41*%
X52520000Y70750000D03*
X53480000Y70750000D03*
%TD*%
D20*
%TO.C,R34*%
X49250000Y46740000D03*
X49250000Y47760000D03*
%TD*%
D21*
%TO.C,XTAL1*%
X59250000Y62000000D03*
X57624000Y62000000D03*
X57624000Y60776000D03*
X59250000Y60776000D03*
%TD*%
D22*
%TO.C,C47*%
X58250000Y67250000D03*
X58250000Y68800000D03*
%TD*%
D23*
%TO.C,R21*%
X57500000Y43760000D03*
X57500000Y42740000D03*
%TD*%
D24*
%TO.C,C50*%
X56000000Y64730000D03*
X56000000Y63770000D03*
%TD*%
D25*
%TO.C,C46*%
X36500000Y55700000D03*
X36500000Y53800000D03*
%TD*%
D26*
%TO.C,R33*%
X60750000Y66925000D03*
X60750000Y68575000D03*
%TD*%
D27*
%TO.C,IC7*%
X11000000Y67900000D03*
X11000000Y66950000D03*
X11000000Y66000000D03*
X13275000Y66000000D03*
X13275000Y66950000D03*
X13275000Y67900000D03*
%TD*%
D28*
%TO.C,C48*%
X57000000Y66250000D03*
X57000000Y67210000D03*
%TD*%
D20*
%TO.C,R38*%
X27500000Y59000000D03*
X27500000Y60020000D03*
%TD*%
D29*
%TO.C,IC9*%
X54425000Y55500000D03*
X54425000Y56000000D03*
X54425000Y56500000D03*
X54425000Y57000000D03*
X54425000Y57500000D03*
X54425000Y58000000D03*
X54425000Y58500000D03*
X54425000Y59000000D03*
X54425000Y59500000D03*
X54425000Y60000000D03*
X54425000Y60500000D03*
X54425000Y61000000D03*
X54425000Y61500000D03*
X54425000Y62000000D03*
X54425000Y62500000D03*
X54425000Y63000000D03*
X54425000Y63500000D03*
X54425000Y64000000D03*
X54425000Y64500000D03*
X54425000Y65000000D03*
X54425000Y65500000D03*
X54425000Y66000000D03*
X54425000Y66500000D03*
X54425000Y67000000D03*
X54425000Y67500000D03*
D30*
X52750000Y69175000D03*
X52250000Y69175000D03*
X51750000Y69175000D03*
X51250000Y69175000D03*
X50750000Y69175000D03*
X50250000Y69175000D03*
X49750000Y69175000D03*
X49250000Y69175000D03*
X48750000Y69175000D03*
X48250000Y69175000D03*
X47750000Y69175000D03*
X47250000Y69175000D03*
X46750000Y69175000D03*
X46250000Y69175000D03*
X45750000Y69175000D03*
X45250000Y69175000D03*
X44750000Y69175000D03*
X44250000Y69175000D03*
X43750000Y69175000D03*
X43250000Y69175000D03*
X42750000Y69175000D03*
X42250000Y69175000D03*
X41750000Y69175000D03*
X41250000Y69175000D03*
X40750000Y69175000D03*
D29*
X39075000Y67500000D03*
X39075000Y67000000D03*
X39075000Y66500000D03*
X39075000Y66000000D03*
X39075000Y65500000D03*
X39075000Y65000000D03*
X39075000Y64500000D03*
X39075000Y64000000D03*
X39075000Y63500000D03*
X39075000Y63000000D03*
X39075000Y62500000D03*
X39075000Y62000000D03*
X39075000Y61500000D03*
X39075000Y61000000D03*
X39075000Y60500000D03*
X39075000Y60000000D03*
X39075000Y59500000D03*
X39075000Y59000000D03*
X39075000Y58500000D03*
X39075000Y58000000D03*
X39075000Y57500000D03*
X39075000Y57000000D03*
X39075000Y56500000D03*
X39075000Y56000000D03*
X39075000Y55500000D03*
D30*
X40750000Y53825000D03*
X41250000Y53825000D03*
X41750000Y53825000D03*
X42250000Y53825000D03*
X42750000Y53825000D03*
X43250000Y53825000D03*
X43750000Y53825000D03*
X44250000Y53825000D03*
X44750000Y53825000D03*
X45250000Y53825000D03*
X45750000Y53825000D03*
X46250000Y53825000D03*
X46750000Y53825000D03*
X47250000Y53825000D03*
X47750000Y53825000D03*
X48250000Y53825000D03*
X48750000Y53825000D03*
X49250000Y53825000D03*
X49750000Y53825000D03*
X50250000Y53825000D03*
X50750000Y53825000D03*
X51250000Y53825000D03*
X51750000Y53825000D03*
X52250000Y53825000D03*
X52750000Y53825000D03*
%TD*%
D22*
%TO.C,R35*%
X68000000Y72500000D03*
X68000000Y74050000D03*
%TD*%
D24*
%TO.C,C40*%
X56270000Y59730000D03*
X56270000Y58770000D03*
%TD*%
D31*
%TO.C,C49*%
X58225000Y65000000D03*
X59775000Y65000000D03*
%TD*%
D28*
%TO.C,C51*%
X56000000Y61770000D03*
X56000000Y62730000D03*
%TD*%
D32*
%TO.C,D5*%
X11250000Y36800000D03*
X11250000Y41200000D03*
%TD*%
D24*
%TO.C,C44*%
X53750000Y53500000D03*
X53750000Y52540000D03*
%TD*%
D16*
%TO.C,C16*%
X26460000Y61260000D03*
X25500000Y61260000D03*
%TD*%
D28*
%TO.C,C42*%
X39750000Y69270000D03*
X39750000Y70230000D03*
%TD*%
D33*
%TO.C,R39*%
X55740000Y71750000D03*
X56760000Y71750000D03*
%TD*%
D17*
%TO.C,R22*%
X59000000Y43750000D03*
X59000000Y42100000D03*
%TD*%
D34*
%TO.C,C38*%
X38250000Y69250000D03*
X38250000Y71150000D03*
%TD*%
D28*
%TO.C,C52*%
X60624000Y61046000D03*
X60624000Y62006000D03*
%TD*%
%TO.C,C39*%
X57250000Y57770000D03*
X57250000Y58730000D03*
%TD*%
D23*
%TO.C,R37*%
X25500000Y60020000D03*
X25500000Y59000000D03*
%TD*%
M02*
