%TF.GenerationSoftware,KiCad,Pcbnew,8.0.8*%
%TF.CreationDate,2025-03-28T17:24:47+01:00*%
%TF.ProjectId,mcu,6d63752e-6b69-4636-9164-5f7063625858,rev?*%
%TF.SameCoordinates,PX47868c0PY8583b00*%
%TF.FileFunction,Soldermask,Bot*%
%TF.FilePolarity,Negative*%
%FSLAX46Y46*%
G04 Gerber Fmt 4.6, Leading zero omitted, Abs format (unit mm)*
G04 Created by KiCad (PCBNEW 8.0.8) date 2025-03-28 17:24:47*
%MOMM*%
%LPD*%
G01*
G04 APERTURE LIST*
G04 APERTURE END LIST*
G36*
X6023850Y8695344D02*
G01*
X6366257Y8619975D01*
X6698507Y8508027D01*
X7016707Y8360812D01*
X7317124Y8180057D01*
X7596237Y7967881D01*
X7850773Y7726771D01*
X8077749Y7459554D01*
X8274504Y7169363D01*
X8438729Y6859601D01*
X8568501Y6533898D01*
X8662297Y6196074D01*
X8719019Y5850089D01*
X8738000Y5500000D01*
X8719019Y5149911D01*
X8662297Y4803926D01*
X8568501Y4466102D01*
X8438729Y4140399D01*
X8274504Y3830637D01*
X8077749Y3540446D01*
X7850773Y3273229D01*
X7596237Y3032119D01*
X7317124Y2819943D01*
X7016707Y2639188D01*
X6698507Y2491973D01*
X6366257Y2380025D01*
X6023850Y2304656D01*
X5675302Y2266749D01*
X5324698Y2266749D01*
X4976150Y2304656D01*
X4633743Y2380025D01*
X4301493Y2491973D01*
X3983293Y2639188D01*
X3682876Y2819943D01*
X3403763Y3032119D01*
X3149227Y3273229D01*
X2922251Y3540446D01*
X2725496Y3830637D01*
X2561271Y4140399D01*
X2431499Y4466102D01*
X2337703Y4803926D01*
X2280981Y5149911D01*
X2262000Y5500000D01*
X2280981Y5850089D01*
X2337703Y6196074D01*
X2431499Y6533898D01*
X2561271Y6859601D01*
X2725496Y7169363D01*
X2922251Y7459554D01*
X3149227Y7726771D01*
X3403763Y7967881D01*
X3682876Y8180057D01*
X3983293Y8360812D01*
X4301493Y8508027D01*
X4633743Y8619975D01*
X4976150Y8695344D01*
X5324698Y8733251D01*
X5675302Y8733251D01*
X6023850Y8695344D01*
G37*
G36*
X91023850Y8695344D02*
G01*
X91366257Y8619975D01*
X91698507Y8508027D01*
X92016707Y8360812D01*
X92317124Y8180057D01*
X92596237Y7967881D01*
X92850773Y7726771D01*
X93077749Y7459554D01*
X93274504Y7169363D01*
X93438729Y6859601D01*
X93568501Y6533898D01*
X93662297Y6196074D01*
X93719019Y5850089D01*
X93738000Y5500000D01*
X93719019Y5149911D01*
X93662297Y4803926D01*
X93568501Y4466102D01*
X93438729Y4140399D01*
X93274504Y3830637D01*
X93077749Y3540446D01*
X92850773Y3273229D01*
X92596237Y3032119D01*
X92317124Y2819943D01*
X92016707Y2639188D01*
X91698507Y2491973D01*
X91366257Y2380025D01*
X91023850Y2304656D01*
X90675302Y2266749D01*
X90324698Y2266749D01*
X89976150Y2304656D01*
X89633743Y2380025D01*
X89301493Y2491973D01*
X88983293Y2639188D01*
X88682876Y2819943D01*
X88403763Y3032119D01*
X88149227Y3273229D01*
X87922251Y3540446D01*
X87725496Y3830637D01*
X87561271Y4140399D01*
X87431499Y4466102D01*
X87337703Y4803926D01*
X87280981Y5149911D01*
X87262000Y5500000D01*
X87280981Y5850089D01*
X87337703Y6196074D01*
X87431499Y6533898D01*
X87561271Y6859601D01*
X87725496Y7169363D01*
X87922251Y7459554D01*
X88149227Y7726771D01*
X88403763Y7967881D01*
X88682876Y8180057D01*
X88983293Y8360812D01*
X89301493Y8508027D01*
X89633743Y8619975D01*
X89976150Y8695344D01*
X90324698Y8733251D01*
X90675302Y8733251D01*
X91023850Y8695344D01*
G37*
G36*
X7259729Y24799363D02*
G01*
X7420250Y24727894D01*
X7562404Y24624613D01*
X7679979Y24494034D01*
X7767835Y24341862D01*
X7822133Y24174750D01*
X7840500Y24000000D01*
X7822133Y23825250D01*
X7767835Y23658138D01*
X7679979Y23505966D01*
X7562404Y23375387D01*
X7420250Y23272106D01*
X7259729Y23200637D01*
X7087856Y23164104D01*
X6912144Y23164104D01*
X6740271Y23200637D01*
X6579750Y23272106D01*
X6437596Y23375387D01*
X6320021Y23505966D01*
X6232165Y23658138D01*
X6177867Y23825250D01*
X6159500Y24000000D01*
X6177867Y24174750D01*
X6232165Y24341862D01*
X6320021Y24494034D01*
X6437596Y24624613D01*
X6579750Y24727894D01*
X6740271Y24799363D01*
X6912144Y24835896D01*
X7087856Y24835896D01*
X7259729Y24799363D01*
G37*
G36*
X91065938Y26730350D02*
G01*
X91074782Y26726445D01*
X91081336Y26725490D01*
X91122310Y26705459D01*
X91162759Y26687599D01*
X91166503Y26683855D01*
X91166848Y26683686D01*
X91233685Y26616849D01*
X91233853Y26616505D01*
X91237599Y26612759D01*
X91255463Y26572300D01*
X91275489Y26531337D01*
X91276443Y26524786D01*
X91280350Y26515938D01*
X91288000Y26450000D01*
X91288000Y25450000D01*
X91280350Y25384062D01*
X91276443Y25375215D01*
X91275489Y25368664D01*
X91255468Y25327711D01*
X91237599Y25287241D01*
X91233852Y25283495D01*
X91233685Y25283152D01*
X91166848Y25216315D01*
X91166505Y25216148D01*
X91162759Y25212401D01*
X91122289Y25194532D01*
X91081336Y25174511D01*
X91074785Y25173557D01*
X91065938Y25169650D01*
X91000000Y25162000D01*
X90000000Y25162000D01*
X89934062Y25169650D01*
X89925214Y25173557D01*
X89918663Y25174511D01*
X89877700Y25194537D01*
X89837241Y25212401D01*
X89833495Y25216147D01*
X89833151Y25216315D01*
X89766314Y25283152D01*
X89766145Y25283497D01*
X89762401Y25287241D01*
X89744541Y25327690D01*
X89724510Y25368664D01*
X89723555Y25375218D01*
X89719650Y25384062D01*
X89712000Y25450000D01*
X89712000Y26450000D01*
X89719650Y26515938D01*
X89723554Y26524782D01*
X89724510Y26531337D01*
X89744545Y26572322D01*
X89762401Y26612759D01*
X89766144Y26616503D01*
X89766314Y26616849D01*
X89833151Y26683686D01*
X89833497Y26683856D01*
X89837241Y26687599D01*
X89877678Y26705455D01*
X89918663Y26725490D01*
X89925218Y26726446D01*
X89934062Y26730350D01*
X90000000Y26738000D01*
X91000000Y26738000D01*
X91065938Y26730350D01*
G37*
G36*
X7259729Y27339363D02*
G01*
X7420250Y27267894D01*
X7562404Y27164613D01*
X7679979Y27034034D01*
X7767835Y26881862D01*
X7822133Y26714750D01*
X7840500Y26540000D01*
X7822133Y26365250D01*
X7767835Y26198138D01*
X7679979Y26045966D01*
X7562404Y25915387D01*
X7420250Y25812106D01*
X7259729Y25740637D01*
X7087856Y25704104D01*
X6912144Y25704104D01*
X6740271Y25740637D01*
X6579750Y25812106D01*
X6437596Y25915387D01*
X6320021Y26045966D01*
X6232165Y26198138D01*
X6177867Y26365250D01*
X6159500Y26540000D01*
X6177867Y26714750D01*
X6232165Y26881862D01*
X6320021Y27034034D01*
X6437596Y27164613D01*
X6579750Y27267894D01*
X6740271Y27339363D01*
X6912144Y27375896D01*
X7087856Y27375896D01*
X7259729Y27339363D01*
G37*
G36*
X90541349Y29273341D02*
G01*
X90582334Y29273341D01*
X90628570Y29263514D01*
X90675346Y29258243D01*
X90709356Y29246343D01*
X90743396Y29239107D01*
X90792454Y29217265D01*
X90841900Y29199963D01*
X90867637Y29183792D01*
X90893829Y29172130D01*
X90942663Y29136650D01*
X90991310Y29106083D01*
X91008781Y29088612D01*
X91027044Y29075343D01*
X91072194Y29025199D01*
X91116083Y28981310D01*
X91126177Y28965245D01*
X91137227Y28952973D01*
X91175024Y28887505D01*
X91209963Y28831900D01*
X91214326Y28819432D01*
X91219558Y28810369D01*
X91246356Y28727894D01*
X91268243Y28665346D01*
X91269072Y28657983D01*
X91270443Y28653765D01*
X91282866Y28535560D01*
X91288000Y28490000D01*
X91282866Y28444437D01*
X91270443Y28326236D01*
X91269072Y28322020D01*
X91268243Y28314654D01*
X91246351Y28252094D01*
X91219558Y28169632D01*
X91214326Y28160572D01*
X91209963Y28148100D01*
X91175017Y28092485D01*
X91137227Y28027028D01*
X91126179Y28014759D01*
X91116083Y27998690D01*
X91072185Y27954793D01*
X91027044Y27904658D01*
X91008784Y27891392D01*
X90991310Y27873917D01*
X90942653Y27843344D01*
X90893829Y27807871D01*
X90867642Y27796213D01*
X90841900Y27780037D01*
X90792443Y27762732D01*
X90743396Y27740894D01*
X90709362Y27733660D01*
X90675346Y27721757D01*
X90628567Y27716487D01*
X90582334Y27706659D01*
X90541349Y27706659D01*
X90500000Y27702000D01*
X90458651Y27706659D01*
X90417666Y27706659D01*
X90371432Y27716487D01*
X90324654Y27721757D01*
X90290638Y27733660D01*
X90256603Y27740894D01*
X90207551Y27762734D01*
X90158100Y27780037D01*
X90132359Y27796211D01*
X90106170Y27807871D01*
X90057339Y27843349D01*
X90008690Y27873917D01*
X89991217Y27891390D01*
X89972955Y27904658D01*
X89927804Y27954803D01*
X89883917Y27998690D01*
X89873822Y28014755D01*
X89862772Y28027028D01*
X89824970Y28092505D01*
X89790037Y28148100D01*
X89785674Y28160567D01*
X89780441Y28169632D01*
X89753634Y28252134D01*
X89731757Y28314654D01*
X89730927Y28322015D01*
X89729556Y28326236D01*
X89717118Y28444569D01*
X89712000Y28490000D01*
X89717118Y28535428D01*
X89729556Y28653765D01*
X89730927Y28657987D01*
X89731757Y28665346D01*
X89753629Y28727854D01*
X89780441Y28810369D01*
X89785675Y28819436D01*
X89790037Y28831900D01*
X89824962Y28887485D01*
X89862772Y28952973D01*
X89873824Y28965249D01*
X89883917Y28981310D01*
X89927795Y29025189D01*
X89972955Y29075343D01*
X89991221Y29088615D01*
X90008690Y29106083D01*
X90057334Y29136648D01*
X90106171Y29172130D01*
X90132362Y29183792D01*
X90158100Y29199963D01*
X90207545Y29217265D01*
X90256604Y29239107D01*
X90290643Y29246343D01*
X90324654Y29258243D01*
X90371429Y29263514D01*
X90417666Y29273341D01*
X90458651Y29273341D01*
X90500000Y29278000D01*
X90541349Y29273341D01*
G37*
G36*
X7259729Y29879363D02*
G01*
X7420250Y29807894D01*
X7562404Y29704613D01*
X7679979Y29574034D01*
X7767835Y29421862D01*
X7822133Y29254750D01*
X7840500Y29080000D01*
X7822133Y28905250D01*
X7767835Y28738138D01*
X7679979Y28585966D01*
X7562404Y28455387D01*
X7420250Y28352106D01*
X7259729Y28280637D01*
X7087856Y28244104D01*
X6912144Y28244104D01*
X6740271Y28280637D01*
X6579750Y28352106D01*
X6437596Y28455387D01*
X6320021Y28585966D01*
X6232165Y28738138D01*
X6177867Y28905250D01*
X6159500Y29080000D01*
X6177867Y29254750D01*
X6232165Y29421862D01*
X6320021Y29574034D01*
X6437596Y29704613D01*
X6579750Y29807894D01*
X6740271Y29879363D01*
X6912144Y29915896D01*
X7087856Y29915896D01*
X7259729Y29879363D01*
G37*
G36*
X90541349Y31813341D02*
G01*
X90582334Y31813341D01*
X90628570Y31803514D01*
X90675346Y31798243D01*
X90709356Y31786343D01*
X90743396Y31779107D01*
X90792454Y31757265D01*
X90841900Y31739963D01*
X90867637Y31723792D01*
X90893829Y31712130D01*
X90942663Y31676650D01*
X90991310Y31646083D01*
X91008781Y31628612D01*
X91027044Y31615343D01*
X91072194Y31565199D01*
X91116083Y31521310D01*
X91126177Y31505245D01*
X91137227Y31492973D01*
X91175024Y31427505D01*
X91209963Y31371900D01*
X91214326Y31359432D01*
X91219558Y31350369D01*
X91246356Y31267894D01*
X91268243Y31205346D01*
X91269072Y31197983D01*
X91270443Y31193765D01*
X91282866Y31075560D01*
X91288000Y31030000D01*
X91282866Y30984437D01*
X91270443Y30866236D01*
X91269072Y30862020D01*
X91268243Y30854654D01*
X91246351Y30792094D01*
X91219558Y30709632D01*
X91214326Y30700572D01*
X91209963Y30688100D01*
X91175017Y30632485D01*
X91137227Y30567028D01*
X91126179Y30554759D01*
X91116083Y30538690D01*
X91072185Y30494793D01*
X91027044Y30444658D01*
X91008784Y30431392D01*
X90991310Y30413917D01*
X90942653Y30383344D01*
X90893829Y30347871D01*
X90867642Y30336213D01*
X90841900Y30320037D01*
X90792443Y30302732D01*
X90743396Y30280894D01*
X90709362Y30273660D01*
X90675346Y30261757D01*
X90628567Y30256487D01*
X90582334Y30246659D01*
X90541349Y30246659D01*
X90500000Y30242000D01*
X90458651Y30246659D01*
X90417666Y30246659D01*
X90371432Y30256487D01*
X90324654Y30261757D01*
X90290638Y30273660D01*
X90256603Y30280894D01*
X90207551Y30302734D01*
X90158100Y30320037D01*
X90132359Y30336211D01*
X90106170Y30347871D01*
X90057339Y30383349D01*
X90008690Y30413917D01*
X89991217Y30431390D01*
X89972955Y30444658D01*
X89927804Y30494803D01*
X89883917Y30538690D01*
X89873822Y30554755D01*
X89862772Y30567028D01*
X89824970Y30632505D01*
X89790037Y30688100D01*
X89785674Y30700567D01*
X89780441Y30709632D01*
X89753634Y30792134D01*
X89731757Y30854654D01*
X89730927Y30862015D01*
X89729556Y30866236D01*
X89717118Y30984569D01*
X89712000Y31030000D01*
X89717118Y31075428D01*
X89729556Y31193765D01*
X89730927Y31197987D01*
X89731757Y31205346D01*
X89753629Y31267854D01*
X89780441Y31350369D01*
X89785675Y31359436D01*
X89790037Y31371900D01*
X89824962Y31427485D01*
X89862772Y31492973D01*
X89873824Y31505249D01*
X89883917Y31521310D01*
X89927795Y31565189D01*
X89972955Y31615343D01*
X89991221Y31628615D01*
X90008690Y31646083D01*
X90057334Y31676648D01*
X90106171Y31712130D01*
X90132362Y31723792D01*
X90158100Y31739963D01*
X90207545Y31757265D01*
X90256604Y31779107D01*
X90290643Y31786343D01*
X90324654Y31798243D01*
X90371429Y31803514D01*
X90417666Y31813341D01*
X90458651Y31813341D01*
X90500000Y31818000D01*
X90541349Y31813341D01*
G37*
G36*
X7259729Y32419363D02*
G01*
X7420250Y32347894D01*
X7562404Y32244613D01*
X7679979Y32114034D01*
X7767835Y31961862D01*
X7822133Y31794750D01*
X7840500Y31620000D01*
X7822133Y31445250D01*
X7767835Y31278138D01*
X7679979Y31125966D01*
X7562404Y30995387D01*
X7420250Y30892106D01*
X7259729Y30820637D01*
X7087856Y30784104D01*
X6912144Y30784104D01*
X6740271Y30820637D01*
X6579750Y30892106D01*
X6437596Y30995387D01*
X6320021Y31125966D01*
X6232165Y31278138D01*
X6177867Y31445250D01*
X6159500Y31620000D01*
X6177867Y31794750D01*
X6232165Y31961862D01*
X6320021Y32114034D01*
X6437596Y32244613D01*
X6579750Y32347894D01*
X6740271Y32419363D01*
X6912144Y32455896D01*
X7087856Y32455896D01*
X7259729Y32419363D01*
G37*
G36*
X37935094Y33285097D02*
G01*
X38092750Y33214904D01*
X38232367Y33113466D01*
X38347844Y32985217D01*
X38434132Y32835761D01*
X38487461Y32671631D01*
X38505500Y32500000D01*
X38487461Y32328369D01*
X38434132Y32164239D01*
X38347844Y32014783D01*
X38232367Y31886534D01*
X38092750Y31785096D01*
X37935094Y31714903D01*
X37766288Y31679022D01*
X37593712Y31679022D01*
X37424906Y31714903D01*
X37267250Y31785096D01*
X37127633Y31886534D01*
X37012156Y32014783D01*
X36925868Y32164239D01*
X36872539Y32328369D01*
X36854500Y32500000D01*
X36872539Y32671631D01*
X36925868Y32835761D01*
X37012156Y32985217D01*
X37127633Y33113466D01*
X37267250Y33214904D01*
X37424906Y33285097D01*
X37593712Y33320978D01*
X37766288Y33320978D01*
X37935094Y33285097D01*
G37*
G36*
X40475094Y33285097D02*
G01*
X40632750Y33214904D01*
X40772367Y33113466D01*
X40887844Y32985217D01*
X40974132Y32835761D01*
X41027461Y32671631D01*
X41045500Y32500000D01*
X41027461Y32328369D01*
X40974132Y32164239D01*
X40887844Y32014783D01*
X40772367Y31886534D01*
X40632750Y31785096D01*
X40475094Y31714903D01*
X40306288Y31679022D01*
X40133712Y31679022D01*
X39964906Y31714903D01*
X39807250Y31785096D01*
X39667633Y31886534D01*
X39552156Y32014783D01*
X39465868Y32164239D01*
X39412539Y32328369D01*
X39394500Y32500000D01*
X39412539Y32671631D01*
X39465868Y32835761D01*
X39552156Y32985217D01*
X39667633Y33113466D01*
X39807250Y33214904D01*
X39964906Y33285097D01*
X40133712Y33320978D01*
X40306288Y33320978D01*
X40475094Y33285097D01*
G37*
G36*
X43015094Y33285097D02*
G01*
X43172750Y33214904D01*
X43312367Y33113466D01*
X43427844Y32985217D01*
X43514132Y32835761D01*
X43567461Y32671631D01*
X43585500Y32500000D01*
X43567461Y32328369D01*
X43514132Y32164239D01*
X43427844Y32014783D01*
X43312367Y31886534D01*
X43172750Y31785096D01*
X43015094Y31714903D01*
X42846288Y31679022D01*
X42673712Y31679022D01*
X42504906Y31714903D01*
X42347250Y31785096D01*
X42207633Y31886534D01*
X42092156Y32014783D01*
X42005868Y32164239D01*
X41952539Y32328369D01*
X41934500Y32500000D01*
X41952539Y32671631D01*
X42005868Y32835761D01*
X42092156Y32985217D01*
X42207633Y33113466D01*
X42347250Y33214904D01*
X42504906Y33285097D01*
X42673712Y33320978D01*
X42846288Y33320978D01*
X43015094Y33285097D01*
G37*
G36*
X45555094Y33285097D02*
G01*
X45712750Y33214904D01*
X45852367Y33113466D01*
X45967844Y32985217D01*
X46054132Y32835761D01*
X46107461Y32671631D01*
X46125500Y32500000D01*
X46107461Y32328369D01*
X46054132Y32164239D01*
X45967844Y32014783D01*
X45852367Y31886534D01*
X45712750Y31785096D01*
X45555094Y31714903D01*
X45386288Y31679022D01*
X45213712Y31679022D01*
X45044906Y31714903D01*
X44887250Y31785096D01*
X44747633Y31886534D01*
X44632156Y32014783D01*
X44545868Y32164239D01*
X44492539Y32328369D01*
X44474500Y32500000D01*
X44492539Y32671631D01*
X44545868Y32835761D01*
X44632156Y32985217D01*
X44747633Y33113466D01*
X44887250Y33214904D01*
X45044906Y33285097D01*
X45213712Y33320978D01*
X45386288Y33320978D01*
X45555094Y33285097D01*
G37*
G36*
X48095094Y33285097D02*
G01*
X48252750Y33214904D01*
X48392367Y33113466D01*
X48507844Y32985217D01*
X48594132Y32835761D01*
X48647461Y32671631D01*
X48665500Y32500000D01*
X48647461Y32328369D01*
X48594132Y32164239D01*
X48507844Y32014783D01*
X48392367Y31886534D01*
X48252750Y31785096D01*
X48095094Y31714903D01*
X47926288Y31679022D01*
X47753712Y31679022D01*
X47584906Y31714903D01*
X47427250Y31785096D01*
X47287633Y31886534D01*
X47172156Y32014783D01*
X47085868Y32164239D01*
X47032539Y32328369D01*
X47014500Y32500000D01*
X47032539Y32671631D01*
X47085868Y32835761D01*
X47172156Y32985217D01*
X47287633Y33113466D01*
X47427250Y33214904D01*
X47584906Y33285097D01*
X47753712Y33320978D01*
X47926288Y33320978D01*
X48095094Y33285097D01*
G37*
G36*
X50635094Y33285097D02*
G01*
X50792750Y33214904D01*
X50932367Y33113466D01*
X51047844Y32985217D01*
X51134132Y32835761D01*
X51187461Y32671631D01*
X51205500Y32500000D01*
X51187461Y32328369D01*
X51134132Y32164239D01*
X51047844Y32014783D01*
X50932367Y31886534D01*
X50792750Y31785096D01*
X50635094Y31714903D01*
X50466288Y31679022D01*
X50293712Y31679022D01*
X50124906Y31714903D01*
X49967250Y31785096D01*
X49827633Y31886534D01*
X49712156Y32014783D01*
X49625868Y32164239D01*
X49572539Y32328369D01*
X49554500Y32500000D01*
X49572539Y32671631D01*
X49625868Y32835761D01*
X49712156Y32985217D01*
X49827633Y33113466D01*
X49967250Y33214904D01*
X50124906Y33285097D01*
X50293712Y33320978D01*
X50466288Y33320978D01*
X50635094Y33285097D01*
G37*
G36*
X53175094Y33285097D02*
G01*
X53332750Y33214904D01*
X53472367Y33113466D01*
X53587844Y32985217D01*
X53674132Y32835761D01*
X53727461Y32671631D01*
X53745500Y32500000D01*
X53727461Y32328369D01*
X53674132Y32164239D01*
X53587844Y32014783D01*
X53472367Y31886534D01*
X53332750Y31785096D01*
X53175094Y31714903D01*
X53006288Y31679022D01*
X52833712Y31679022D01*
X52664906Y31714903D01*
X52507250Y31785096D01*
X52367633Y31886534D01*
X52252156Y32014783D01*
X52165868Y32164239D01*
X52112539Y32328369D01*
X52094500Y32500000D01*
X52112539Y32671631D01*
X52165868Y32835761D01*
X52252156Y32985217D01*
X52367633Y33113466D01*
X52507250Y33214904D01*
X52664906Y33285097D01*
X52833712Y33320978D01*
X53006288Y33320978D01*
X53175094Y33285097D01*
G37*
G36*
X55715094Y33285097D02*
G01*
X55872750Y33214904D01*
X56012367Y33113466D01*
X56127844Y32985217D01*
X56214132Y32835761D01*
X56267461Y32671631D01*
X56285500Y32500000D01*
X56267461Y32328369D01*
X56214132Y32164239D01*
X56127844Y32014783D01*
X56012367Y31886534D01*
X55872750Y31785096D01*
X55715094Y31714903D01*
X55546288Y31679022D01*
X55373712Y31679022D01*
X55204906Y31714903D01*
X55047250Y31785096D01*
X54907633Y31886534D01*
X54792156Y32014783D01*
X54705868Y32164239D01*
X54652539Y32328369D01*
X54634500Y32500000D01*
X54652539Y32671631D01*
X54705868Y32835761D01*
X54792156Y32985217D01*
X54907633Y33113466D01*
X55047250Y33214904D01*
X55204906Y33285097D01*
X55373712Y33320978D01*
X55546288Y33320978D01*
X55715094Y33285097D01*
G37*
G36*
X58255094Y33285097D02*
G01*
X58412750Y33214904D01*
X58552367Y33113466D01*
X58667844Y32985217D01*
X58754132Y32835761D01*
X58807461Y32671631D01*
X58825500Y32500000D01*
X58807461Y32328369D01*
X58754132Y32164239D01*
X58667844Y32014783D01*
X58552367Y31886534D01*
X58412750Y31785096D01*
X58255094Y31714903D01*
X58086288Y31679022D01*
X57913712Y31679022D01*
X57744906Y31714903D01*
X57587250Y31785096D01*
X57447633Y31886534D01*
X57332156Y32014783D01*
X57245868Y32164239D01*
X57192539Y32328369D01*
X57174500Y32500000D01*
X57192539Y32671631D01*
X57245868Y32835761D01*
X57332156Y32985217D01*
X57447633Y33113466D01*
X57587250Y33214904D01*
X57744906Y33285097D01*
X57913712Y33320978D01*
X58086288Y33320978D01*
X58255094Y33285097D01*
G37*
G36*
X90541349Y34353341D02*
G01*
X90582334Y34353341D01*
X90628570Y34343514D01*
X90675346Y34338243D01*
X90709356Y34326343D01*
X90743396Y34319107D01*
X90792454Y34297265D01*
X90841900Y34279963D01*
X90867637Y34263792D01*
X90893829Y34252130D01*
X90942663Y34216650D01*
X90991310Y34186083D01*
X91008781Y34168612D01*
X91027044Y34155343D01*
X91072194Y34105199D01*
X91116083Y34061310D01*
X91126177Y34045245D01*
X91137227Y34032973D01*
X91175024Y33967505D01*
X91209963Y33911900D01*
X91214326Y33899432D01*
X91219558Y33890369D01*
X91246356Y33807894D01*
X91268243Y33745346D01*
X91269072Y33737983D01*
X91270443Y33733765D01*
X91282866Y33615560D01*
X91288000Y33570000D01*
X91282866Y33524437D01*
X91270443Y33406236D01*
X91269072Y33402020D01*
X91268243Y33394654D01*
X91246351Y33332094D01*
X91219558Y33249632D01*
X91214326Y33240572D01*
X91209963Y33228100D01*
X91175017Y33172485D01*
X91137227Y33107028D01*
X91126179Y33094759D01*
X91116083Y33078690D01*
X91072185Y33034793D01*
X91027044Y32984658D01*
X91008784Y32971392D01*
X90991310Y32953917D01*
X90942653Y32923344D01*
X90893829Y32887871D01*
X90867642Y32876213D01*
X90841900Y32860037D01*
X90792443Y32842732D01*
X90743396Y32820894D01*
X90709362Y32813660D01*
X90675346Y32801757D01*
X90628567Y32796487D01*
X90582334Y32786659D01*
X90541349Y32786659D01*
X90500000Y32782000D01*
X90458651Y32786659D01*
X90417666Y32786659D01*
X90371432Y32796487D01*
X90324654Y32801757D01*
X90290638Y32813660D01*
X90256603Y32820894D01*
X90207551Y32842734D01*
X90158100Y32860037D01*
X90132359Y32876211D01*
X90106170Y32887871D01*
X90057339Y32923349D01*
X90008690Y32953917D01*
X89991217Y32971390D01*
X89972955Y32984658D01*
X89927804Y33034803D01*
X89883917Y33078690D01*
X89873822Y33094755D01*
X89862772Y33107028D01*
X89824970Y33172505D01*
X89790037Y33228100D01*
X89785674Y33240567D01*
X89780441Y33249632D01*
X89753634Y33332134D01*
X89731757Y33394654D01*
X89730927Y33402015D01*
X89729556Y33406236D01*
X89717118Y33524569D01*
X89712000Y33570000D01*
X89717118Y33615428D01*
X89729556Y33733765D01*
X89730927Y33737987D01*
X89731757Y33745346D01*
X89753629Y33807854D01*
X89780441Y33890369D01*
X89785675Y33899436D01*
X89790037Y33911900D01*
X89824962Y33967485D01*
X89862772Y34032973D01*
X89873824Y34045249D01*
X89883917Y34061310D01*
X89927795Y34105189D01*
X89972955Y34155343D01*
X89991221Y34168615D01*
X90008690Y34186083D01*
X90057334Y34216648D01*
X90106171Y34252130D01*
X90132362Y34263792D01*
X90158100Y34279963D01*
X90207545Y34297265D01*
X90256604Y34319107D01*
X90290643Y34326343D01*
X90324654Y34338243D01*
X90371429Y34343514D01*
X90417666Y34353341D01*
X90458651Y34353341D01*
X90500000Y34358000D01*
X90541349Y34353341D01*
G37*
G36*
X7259729Y34959363D02*
G01*
X7420250Y34887894D01*
X7562404Y34784613D01*
X7679979Y34654034D01*
X7767835Y34501862D01*
X7822133Y34334750D01*
X7840500Y34160000D01*
X7822133Y33985250D01*
X7767835Y33818138D01*
X7679979Y33665966D01*
X7562404Y33535387D01*
X7420250Y33432106D01*
X7259729Y33360637D01*
X7087856Y33324104D01*
X6912144Y33324104D01*
X6740271Y33360637D01*
X6579750Y33432106D01*
X6437596Y33535387D01*
X6320021Y33665966D01*
X6232165Y33818138D01*
X6177867Y33985250D01*
X6159500Y34160000D01*
X6177867Y34334750D01*
X6232165Y34501862D01*
X6320021Y34654034D01*
X6437596Y34784613D01*
X6579750Y34887894D01*
X6740271Y34959363D01*
X6912144Y34995896D01*
X7087856Y34995896D01*
X7259729Y34959363D01*
G37*
G36*
X58603438Y35857850D02*
G01*
X58612282Y35853945D01*
X58618836Y35852990D01*
X58659810Y35832959D01*
X58700259Y35815099D01*
X58704003Y35811355D01*
X58704348Y35811186D01*
X58771185Y35744349D01*
X58771353Y35744005D01*
X58775099Y35740259D01*
X58792963Y35699800D01*
X58812989Y35658837D01*
X58813943Y35652286D01*
X58817850Y35643438D01*
X58825500Y35577500D01*
X58825500Y34502500D01*
X58817850Y34436562D01*
X58813943Y34427715D01*
X58812989Y34421164D01*
X58792968Y34380211D01*
X58775099Y34339741D01*
X58771352Y34335995D01*
X58771185Y34335652D01*
X58704348Y34268815D01*
X58704005Y34268648D01*
X58700259Y34264901D01*
X58659789Y34247032D01*
X58618836Y34227011D01*
X58612285Y34226057D01*
X58603438Y34222150D01*
X58537500Y34214500D01*
X57462500Y34214500D01*
X57396562Y34222150D01*
X57387714Y34226057D01*
X57381163Y34227011D01*
X57340200Y34247037D01*
X57299741Y34264901D01*
X57295995Y34268647D01*
X57295651Y34268815D01*
X57228814Y34335652D01*
X57228645Y34335997D01*
X57224901Y34339741D01*
X57207041Y34380190D01*
X57187010Y34421164D01*
X57186055Y34427718D01*
X57182150Y34436562D01*
X57174500Y34502500D01*
X57174500Y35577500D01*
X57182150Y35643438D01*
X57186054Y35652282D01*
X57187010Y35658837D01*
X57207045Y35699822D01*
X57224901Y35740259D01*
X57228644Y35744003D01*
X57228814Y35744349D01*
X57295651Y35811186D01*
X57295997Y35811356D01*
X57299741Y35815099D01*
X57340178Y35832955D01*
X57381163Y35852990D01*
X57387718Y35853946D01*
X57396562Y35857850D01*
X57462500Y35865500D01*
X58537500Y35865500D01*
X58603438Y35857850D01*
G37*
G36*
X37935094Y35825097D02*
G01*
X38092750Y35754904D01*
X38232367Y35653466D01*
X38347844Y35525217D01*
X38434132Y35375761D01*
X38487461Y35211631D01*
X38505500Y35040000D01*
X38487461Y34868369D01*
X38434132Y34704239D01*
X38347844Y34554783D01*
X38232367Y34426534D01*
X38092750Y34325096D01*
X37935094Y34254903D01*
X37766288Y34219022D01*
X37593712Y34219022D01*
X37424906Y34254903D01*
X37267250Y34325096D01*
X37127633Y34426534D01*
X37012156Y34554783D01*
X36925868Y34704239D01*
X36872539Y34868369D01*
X36854500Y35040000D01*
X36872539Y35211631D01*
X36925868Y35375761D01*
X37012156Y35525217D01*
X37127633Y35653466D01*
X37267250Y35754904D01*
X37424906Y35825097D01*
X37593712Y35860978D01*
X37766288Y35860978D01*
X37935094Y35825097D01*
G37*
G36*
X40475094Y35825097D02*
G01*
X40632750Y35754904D01*
X40772367Y35653466D01*
X40887844Y35525217D01*
X40974132Y35375761D01*
X41027461Y35211631D01*
X41045500Y35040000D01*
X41027461Y34868369D01*
X40974132Y34704239D01*
X40887844Y34554783D01*
X40772367Y34426534D01*
X40632750Y34325096D01*
X40475094Y34254903D01*
X40306288Y34219022D01*
X40133712Y34219022D01*
X39964906Y34254903D01*
X39807250Y34325096D01*
X39667633Y34426534D01*
X39552156Y34554783D01*
X39465868Y34704239D01*
X39412539Y34868369D01*
X39394500Y35040000D01*
X39412539Y35211631D01*
X39465868Y35375761D01*
X39552156Y35525217D01*
X39667633Y35653466D01*
X39807250Y35754904D01*
X39964906Y35825097D01*
X40133712Y35860978D01*
X40306288Y35860978D01*
X40475094Y35825097D01*
G37*
G36*
X43015094Y35825097D02*
G01*
X43172750Y35754904D01*
X43312367Y35653466D01*
X43427844Y35525217D01*
X43514132Y35375761D01*
X43567461Y35211631D01*
X43585500Y35040000D01*
X43567461Y34868369D01*
X43514132Y34704239D01*
X43427844Y34554783D01*
X43312367Y34426534D01*
X43172750Y34325096D01*
X43015094Y34254903D01*
X42846288Y34219022D01*
X42673712Y34219022D01*
X42504906Y34254903D01*
X42347250Y34325096D01*
X42207633Y34426534D01*
X42092156Y34554783D01*
X42005868Y34704239D01*
X41952539Y34868369D01*
X41934500Y35040000D01*
X41952539Y35211631D01*
X42005868Y35375761D01*
X42092156Y35525217D01*
X42207633Y35653466D01*
X42347250Y35754904D01*
X42504906Y35825097D01*
X42673712Y35860978D01*
X42846288Y35860978D01*
X43015094Y35825097D01*
G37*
G36*
X45555094Y35825097D02*
G01*
X45712750Y35754904D01*
X45852367Y35653466D01*
X45967844Y35525217D01*
X46054132Y35375761D01*
X46107461Y35211631D01*
X46125500Y35040000D01*
X46107461Y34868369D01*
X46054132Y34704239D01*
X45967844Y34554783D01*
X45852367Y34426534D01*
X45712750Y34325096D01*
X45555094Y34254903D01*
X45386288Y34219022D01*
X45213712Y34219022D01*
X45044906Y34254903D01*
X44887250Y34325096D01*
X44747633Y34426534D01*
X44632156Y34554783D01*
X44545868Y34704239D01*
X44492539Y34868369D01*
X44474500Y35040000D01*
X44492539Y35211631D01*
X44545868Y35375761D01*
X44632156Y35525217D01*
X44747633Y35653466D01*
X44887250Y35754904D01*
X45044906Y35825097D01*
X45213712Y35860978D01*
X45386288Y35860978D01*
X45555094Y35825097D01*
G37*
G36*
X48095094Y35825097D02*
G01*
X48252750Y35754904D01*
X48392367Y35653466D01*
X48507844Y35525217D01*
X48594132Y35375761D01*
X48647461Y35211631D01*
X48665500Y35040000D01*
X48647461Y34868369D01*
X48594132Y34704239D01*
X48507844Y34554783D01*
X48392367Y34426534D01*
X48252750Y34325096D01*
X48095094Y34254903D01*
X47926288Y34219022D01*
X47753712Y34219022D01*
X47584906Y34254903D01*
X47427250Y34325096D01*
X47287633Y34426534D01*
X47172156Y34554783D01*
X47085868Y34704239D01*
X47032539Y34868369D01*
X47014500Y35040000D01*
X47032539Y35211631D01*
X47085868Y35375761D01*
X47172156Y35525217D01*
X47287633Y35653466D01*
X47427250Y35754904D01*
X47584906Y35825097D01*
X47753712Y35860978D01*
X47926288Y35860978D01*
X48095094Y35825097D01*
G37*
G36*
X50635094Y35825097D02*
G01*
X50792750Y35754904D01*
X50932367Y35653466D01*
X51047844Y35525217D01*
X51134132Y35375761D01*
X51187461Y35211631D01*
X51205500Y35040000D01*
X51187461Y34868369D01*
X51134132Y34704239D01*
X51047844Y34554783D01*
X50932367Y34426534D01*
X50792750Y34325096D01*
X50635094Y34254903D01*
X50466288Y34219022D01*
X50293712Y34219022D01*
X50124906Y34254903D01*
X49967250Y34325096D01*
X49827633Y34426534D01*
X49712156Y34554783D01*
X49625868Y34704239D01*
X49572539Y34868369D01*
X49554500Y35040000D01*
X49572539Y35211631D01*
X49625868Y35375761D01*
X49712156Y35525217D01*
X49827633Y35653466D01*
X49967250Y35754904D01*
X50124906Y35825097D01*
X50293712Y35860978D01*
X50466288Y35860978D01*
X50635094Y35825097D01*
G37*
G36*
X53175094Y35825097D02*
G01*
X53332750Y35754904D01*
X53472367Y35653466D01*
X53587844Y35525217D01*
X53674132Y35375761D01*
X53727461Y35211631D01*
X53745500Y35040000D01*
X53727461Y34868369D01*
X53674132Y34704239D01*
X53587844Y34554783D01*
X53472367Y34426534D01*
X53332750Y34325096D01*
X53175094Y34254903D01*
X53006288Y34219022D01*
X52833712Y34219022D01*
X52664906Y34254903D01*
X52507250Y34325096D01*
X52367633Y34426534D01*
X52252156Y34554783D01*
X52165868Y34704239D01*
X52112539Y34868369D01*
X52094500Y35040000D01*
X52112539Y35211631D01*
X52165868Y35375761D01*
X52252156Y35525217D01*
X52367633Y35653466D01*
X52507250Y35754904D01*
X52664906Y35825097D01*
X52833712Y35860978D01*
X53006288Y35860978D01*
X53175094Y35825097D01*
G37*
G36*
X55715094Y35825097D02*
G01*
X55872750Y35754904D01*
X56012367Y35653466D01*
X56127844Y35525217D01*
X56214132Y35375761D01*
X56267461Y35211631D01*
X56285500Y35040000D01*
X56267461Y34868369D01*
X56214132Y34704239D01*
X56127844Y34554783D01*
X56012367Y34426534D01*
X55872750Y34325096D01*
X55715094Y34254903D01*
X55546288Y34219022D01*
X55373712Y34219022D01*
X55204906Y34254903D01*
X55047250Y34325096D01*
X54907633Y34426534D01*
X54792156Y34554783D01*
X54705868Y34704239D01*
X54652539Y34868369D01*
X54634500Y35040000D01*
X54652539Y35211631D01*
X54705868Y35375761D01*
X54792156Y35525217D01*
X54907633Y35653466D01*
X55047250Y35754904D01*
X55204906Y35825097D01*
X55373712Y35860978D01*
X55546288Y35860978D01*
X55715094Y35825097D01*
G37*
G36*
X90541349Y36893341D02*
G01*
X90582334Y36893341D01*
X90628570Y36883514D01*
X90675346Y36878243D01*
X90709356Y36866343D01*
X90743396Y36859107D01*
X90792454Y36837265D01*
X90841900Y36819963D01*
X90867637Y36803792D01*
X90893829Y36792130D01*
X90942663Y36756650D01*
X90991310Y36726083D01*
X91008781Y36708612D01*
X91027044Y36695343D01*
X91072194Y36645199D01*
X91116083Y36601310D01*
X91126177Y36585245D01*
X91137227Y36572973D01*
X91175024Y36507505D01*
X91209963Y36451900D01*
X91214326Y36439432D01*
X91219558Y36430369D01*
X91246356Y36347894D01*
X91268243Y36285346D01*
X91269072Y36277983D01*
X91270443Y36273765D01*
X91282866Y36155560D01*
X91288000Y36110000D01*
X91282866Y36064437D01*
X91270443Y35946236D01*
X91269072Y35942020D01*
X91268243Y35934654D01*
X91246351Y35872094D01*
X91219558Y35789632D01*
X91214326Y35780572D01*
X91209963Y35768100D01*
X91175017Y35712485D01*
X91137227Y35647028D01*
X91126179Y35634759D01*
X91116083Y35618690D01*
X91072185Y35574793D01*
X91027044Y35524658D01*
X91008784Y35511392D01*
X90991310Y35493917D01*
X90942653Y35463344D01*
X90893829Y35427871D01*
X90867642Y35416213D01*
X90841900Y35400037D01*
X90792443Y35382732D01*
X90743396Y35360894D01*
X90709362Y35353660D01*
X90675346Y35341757D01*
X90628567Y35336487D01*
X90582334Y35326659D01*
X90541349Y35326659D01*
X90500000Y35322000D01*
X90458651Y35326659D01*
X90417666Y35326659D01*
X90371432Y35336487D01*
X90324654Y35341757D01*
X90290638Y35353660D01*
X90256603Y35360894D01*
X90207551Y35382734D01*
X90158100Y35400037D01*
X90132359Y35416211D01*
X90106170Y35427871D01*
X90057339Y35463349D01*
X90008690Y35493917D01*
X89991217Y35511390D01*
X89972955Y35524658D01*
X89927804Y35574803D01*
X89883917Y35618690D01*
X89873822Y35634755D01*
X89862772Y35647028D01*
X89824970Y35712505D01*
X89790037Y35768100D01*
X89785674Y35780567D01*
X89780441Y35789632D01*
X89753634Y35872134D01*
X89731757Y35934654D01*
X89730927Y35942015D01*
X89729556Y35946236D01*
X89717118Y36064569D01*
X89712000Y36110000D01*
X89717118Y36155428D01*
X89729556Y36273765D01*
X89730927Y36277987D01*
X89731757Y36285346D01*
X89753629Y36347854D01*
X89780441Y36430369D01*
X89785675Y36439436D01*
X89790037Y36451900D01*
X89824962Y36507485D01*
X89862772Y36572973D01*
X89873824Y36585249D01*
X89883917Y36601310D01*
X89927795Y36645189D01*
X89972955Y36695343D01*
X89991221Y36708615D01*
X90008690Y36726083D01*
X90057334Y36756648D01*
X90106171Y36792130D01*
X90132362Y36803792D01*
X90158100Y36819963D01*
X90207545Y36837265D01*
X90256604Y36859107D01*
X90290643Y36866343D01*
X90324654Y36878243D01*
X90371429Y36883514D01*
X90417666Y36893341D01*
X90458651Y36893341D01*
X90500000Y36898000D01*
X90541349Y36893341D01*
G37*
G36*
X7618438Y37532850D02*
G01*
X7627282Y37528945D01*
X7633836Y37527990D01*
X7674810Y37507959D01*
X7715259Y37490099D01*
X7719003Y37486355D01*
X7719348Y37486186D01*
X7786185Y37419349D01*
X7786353Y37419005D01*
X7790099Y37415259D01*
X7807963Y37374800D01*
X7827989Y37333837D01*
X7828943Y37327286D01*
X7832850Y37318438D01*
X7840500Y37252500D01*
X7840500Y36147500D01*
X7832850Y36081562D01*
X7828943Y36072715D01*
X7827989Y36066164D01*
X7807968Y36025211D01*
X7790099Y35984741D01*
X7786352Y35980995D01*
X7786185Y35980652D01*
X7719348Y35913815D01*
X7719005Y35913648D01*
X7715259Y35909901D01*
X7674789Y35892032D01*
X7633836Y35872011D01*
X7627285Y35871057D01*
X7618438Y35867150D01*
X7552500Y35859500D01*
X6447500Y35859500D01*
X6381562Y35867150D01*
X6372714Y35871057D01*
X6366163Y35872011D01*
X6325200Y35892037D01*
X6284741Y35909901D01*
X6280995Y35913647D01*
X6280651Y35913815D01*
X6213814Y35980652D01*
X6213645Y35980997D01*
X6209901Y35984741D01*
X6192041Y36025190D01*
X6172010Y36066164D01*
X6171055Y36072718D01*
X6167150Y36081562D01*
X6159500Y36147500D01*
X6159500Y37252500D01*
X6167150Y37318438D01*
X6171054Y37327282D01*
X6172010Y37333837D01*
X6192045Y37374822D01*
X6209901Y37415259D01*
X6213644Y37419003D01*
X6213814Y37419349D01*
X6280651Y37486186D01*
X6280997Y37486356D01*
X6284741Y37490099D01*
X6325178Y37507955D01*
X6366163Y37527990D01*
X6372718Y37528946D01*
X6381562Y37532850D01*
X6447500Y37540500D01*
X7552500Y37540500D01*
X7618438Y37532850D01*
G37*
G36*
X90541349Y39433341D02*
G01*
X90582334Y39433341D01*
X90628570Y39423514D01*
X90675346Y39418243D01*
X90709356Y39406343D01*
X90743396Y39399107D01*
X90792454Y39377265D01*
X90841900Y39359963D01*
X90867637Y39343792D01*
X90893829Y39332130D01*
X90942663Y39296650D01*
X90991310Y39266083D01*
X91008781Y39248612D01*
X91027044Y39235343D01*
X91072194Y39185199D01*
X91116083Y39141310D01*
X91126177Y39125245D01*
X91137227Y39112973D01*
X91175024Y39047505D01*
X91209963Y38991900D01*
X91214326Y38979432D01*
X91219558Y38970369D01*
X91246356Y38887894D01*
X91268243Y38825346D01*
X91269072Y38817983D01*
X91270443Y38813765D01*
X91282866Y38695560D01*
X91288000Y38650000D01*
X91282866Y38604437D01*
X91270443Y38486236D01*
X91269072Y38482020D01*
X91268243Y38474654D01*
X91246351Y38412094D01*
X91219558Y38329632D01*
X91214326Y38320572D01*
X91209963Y38308100D01*
X91175017Y38252485D01*
X91137227Y38187028D01*
X91126179Y38174759D01*
X91116083Y38158690D01*
X91072185Y38114793D01*
X91027044Y38064658D01*
X91008784Y38051392D01*
X90991310Y38033917D01*
X90942653Y38003344D01*
X90893829Y37967871D01*
X90867642Y37956213D01*
X90841900Y37940037D01*
X90792443Y37922732D01*
X90743396Y37900894D01*
X90709362Y37893660D01*
X90675346Y37881757D01*
X90628567Y37876487D01*
X90582334Y37866659D01*
X90541349Y37866659D01*
X90500000Y37862000D01*
X90458651Y37866659D01*
X90417666Y37866659D01*
X90371432Y37876487D01*
X90324654Y37881757D01*
X90290638Y37893660D01*
X90256603Y37900894D01*
X90207551Y37922734D01*
X90158100Y37940037D01*
X90132359Y37956211D01*
X90106170Y37967871D01*
X90057339Y38003349D01*
X90008690Y38033917D01*
X89991217Y38051390D01*
X89972955Y38064658D01*
X89927804Y38114803D01*
X89883917Y38158690D01*
X89873822Y38174755D01*
X89862772Y38187028D01*
X89824970Y38252505D01*
X89790037Y38308100D01*
X89785674Y38320567D01*
X89780441Y38329632D01*
X89753634Y38412134D01*
X89731757Y38474654D01*
X89730927Y38482015D01*
X89729556Y38486236D01*
X89717118Y38604569D01*
X89712000Y38650000D01*
X89717118Y38695428D01*
X89729556Y38813765D01*
X89730927Y38817987D01*
X89731757Y38825346D01*
X89753629Y38887854D01*
X89780441Y38970369D01*
X89785675Y38979436D01*
X89790037Y38991900D01*
X89824962Y39047485D01*
X89862772Y39112973D01*
X89873824Y39125249D01*
X89883917Y39141310D01*
X89927795Y39185189D01*
X89972955Y39235343D01*
X89991221Y39248615D01*
X90008690Y39266083D01*
X90057334Y39296648D01*
X90106171Y39332130D01*
X90132362Y39343792D01*
X90158100Y39359963D01*
X90207545Y39377265D01*
X90256604Y39399107D01*
X90290643Y39406343D01*
X90324654Y39418243D01*
X90371429Y39423514D01*
X90417666Y39433341D01*
X90458651Y39433341D01*
X90500000Y39438000D01*
X90541349Y39433341D01*
G37*
G36*
X90541349Y41973341D02*
G01*
X90582334Y41973341D01*
X90628570Y41963514D01*
X90675346Y41958243D01*
X90709356Y41946343D01*
X90743396Y41939107D01*
X90792454Y41917265D01*
X90841900Y41899963D01*
X90867637Y41883792D01*
X90893829Y41872130D01*
X90942663Y41836650D01*
X90991310Y41806083D01*
X91008781Y41788612D01*
X91027044Y41775343D01*
X91072194Y41725199D01*
X91116083Y41681310D01*
X91126177Y41665245D01*
X91137227Y41652973D01*
X91175024Y41587505D01*
X91209963Y41531900D01*
X91214326Y41519432D01*
X91219558Y41510369D01*
X91246356Y41427894D01*
X91268243Y41365346D01*
X91269072Y41357983D01*
X91270443Y41353765D01*
X91282866Y41235560D01*
X91288000Y41190000D01*
X91282866Y41144437D01*
X91270443Y41026236D01*
X91269072Y41022020D01*
X91268243Y41014654D01*
X91246351Y40952094D01*
X91219558Y40869632D01*
X91214326Y40860572D01*
X91209963Y40848100D01*
X91175017Y40792485D01*
X91137227Y40727028D01*
X91126179Y40714759D01*
X91116083Y40698690D01*
X91072185Y40654793D01*
X91027044Y40604658D01*
X91008784Y40591392D01*
X90991310Y40573917D01*
X90942653Y40543344D01*
X90893829Y40507871D01*
X90867642Y40496213D01*
X90841900Y40480037D01*
X90792443Y40462732D01*
X90743396Y40440894D01*
X90709362Y40433660D01*
X90675346Y40421757D01*
X90628567Y40416487D01*
X90582334Y40406659D01*
X90541349Y40406659D01*
X90500000Y40402000D01*
X90458651Y40406659D01*
X90417666Y40406659D01*
X90371432Y40416487D01*
X90324654Y40421757D01*
X90290638Y40433660D01*
X90256603Y40440894D01*
X90207551Y40462734D01*
X90158100Y40480037D01*
X90132359Y40496211D01*
X90106170Y40507871D01*
X90057339Y40543349D01*
X90008690Y40573917D01*
X89991217Y40591390D01*
X89972955Y40604658D01*
X89927804Y40654803D01*
X89883917Y40698690D01*
X89873822Y40714755D01*
X89862772Y40727028D01*
X89824970Y40792505D01*
X89790037Y40848100D01*
X89785674Y40860567D01*
X89780441Y40869632D01*
X89753634Y40952134D01*
X89731757Y41014654D01*
X89730927Y41022015D01*
X89729556Y41026236D01*
X89717118Y41144569D01*
X89712000Y41190000D01*
X89717118Y41235428D01*
X89729556Y41353765D01*
X89730927Y41357987D01*
X89731757Y41365346D01*
X89753629Y41427854D01*
X89780441Y41510369D01*
X89785675Y41519436D01*
X89790037Y41531900D01*
X89824962Y41587485D01*
X89862772Y41652973D01*
X89873824Y41665249D01*
X89883917Y41681310D01*
X89927795Y41725189D01*
X89972955Y41775343D01*
X89991221Y41788615D01*
X90008690Y41806083D01*
X90057334Y41836648D01*
X90106171Y41872130D01*
X90132362Y41883792D01*
X90158100Y41899963D01*
X90207545Y41917265D01*
X90256604Y41939107D01*
X90290643Y41946343D01*
X90324654Y41958243D01*
X90371429Y41963514D01*
X90417666Y41973341D01*
X90458651Y41973341D01*
X90500000Y41978000D01*
X90541349Y41973341D01*
G37*
G36*
X90541349Y44513341D02*
G01*
X90582334Y44513341D01*
X90628570Y44503514D01*
X90675346Y44498243D01*
X90709356Y44486343D01*
X90743396Y44479107D01*
X90792454Y44457265D01*
X90841900Y44439963D01*
X90867637Y44423792D01*
X90893829Y44412130D01*
X90942663Y44376650D01*
X90991310Y44346083D01*
X91008781Y44328612D01*
X91027044Y44315343D01*
X91072194Y44265199D01*
X91116083Y44221310D01*
X91126177Y44205245D01*
X91137227Y44192973D01*
X91175024Y44127505D01*
X91209963Y44071900D01*
X91214326Y44059432D01*
X91219558Y44050369D01*
X91246356Y43967894D01*
X91268243Y43905346D01*
X91269072Y43897983D01*
X91270443Y43893765D01*
X91282866Y43775560D01*
X91288000Y43730000D01*
X91282866Y43684437D01*
X91270443Y43566236D01*
X91269072Y43562020D01*
X91268243Y43554654D01*
X91246351Y43492094D01*
X91219558Y43409632D01*
X91214326Y43400572D01*
X91209963Y43388100D01*
X91175017Y43332485D01*
X91137227Y43267028D01*
X91126179Y43254759D01*
X91116083Y43238690D01*
X91072185Y43194793D01*
X91027044Y43144658D01*
X91008784Y43131392D01*
X90991310Y43113917D01*
X90942653Y43083344D01*
X90893829Y43047871D01*
X90867642Y43036213D01*
X90841900Y43020037D01*
X90792443Y43002732D01*
X90743396Y42980894D01*
X90709362Y42973660D01*
X90675346Y42961757D01*
X90628567Y42956487D01*
X90582334Y42946659D01*
X90541349Y42946659D01*
X90500000Y42942000D01*
X90458651Y42946659D01*
X90417666Y42946659D01*
X90371432Y42956487D01*
X90324654Y42961757D01*
X90290638Y42973660D01*
X90256603Y42980894D01*
X90207551Y43002734D01*
X90158100Y43020037D01*
X90132359Y43036211D01*
X90106170Y43047871D01*
X90057339Y43083349D01*
X90008690Y43113917D01*
X89991217Y43131390D01*
X89972955Y43144658D01*
X89927804Y43194803D01*
X89883917Y43238690D01*
X89873822Y43254755D01*
X89862772Y43267028D01*
X89824970Y43332505D01*
X89790037Y43388100D01*
X89785674Y43400567D01*
X89780441Y43409632D01*
X89753634Y43492134D01*
X89731757Y43554654D01*
X89730927Y43562015D01*
X89729556Y43566236D01*
X89717118Y43684569D01*
X89712000Y43730000D01*
X89717118Y43775428D01*
X89729556Y43893765D01*
X89730927Y43897987D01*
X89731757Y43905346D01*
X89753629Y43967854D01*
X89780441Y44050369D01*
X89785675Y44059436D01*
X89790037Y44071900D01*
X89824962Y44127485D01*
X89862772Y44192973D01*
X89873824Y44205249D01*
X89883917Y44221310D01*
X89927795Y44265189D01*
X89972955Y44315343D01*
X89991221Y44328615D01*
X90008690Y44346083D01*
X90057334Y44376648D01*
X90106171Y44412130D01*
X90132362Y44423792D01*
X90158100Y44439963D01*
X90207545Y44457265D01*
X90256604Y44479107D01*
X90290643Y44486343D01*
X90324654Y44498243D01*
X90371429Y44503514D01*
X90417666Y44513341D01*
X90458651Y44513341D01*
X90500000Y44518000D01*
X90541349Y44513341D01*
G37*
G36*
X90541349Y47053341D02*
G01*
X90582334Y47053341D01*
X90628570Y47043514D01*
X90675346Y47038243D01*
X90709356Y47026343D01*
X90743396Y47019107D01*
X90792454Y46997265D01*
X90841900Y46979963D01*
X90867637Y46963792D01*
X90893829Y46952130D01*
X90942663Y46916650D01*
X90991310Y46886083D01*
X91008781Y46868612D01*
X91027044Y46855343D01*
X91072194Y46805199D01*
X91116083Y46761310D01*
X91126177Y46745245D01*
X91137227Y46732973D01*
X91175024Y46667505D01*
X91209963Y46611900D01*
X91214326Y46599432D01*
X91219558Y46590369D01*
X91246356Y46507894D01*
X91268243Y46445346D01*
X91269072Y46437983D01*
X91270443Y46433765D01*
X91282866Y46315560D01*
X91288000Y46270000D01*
X91282866Y46224437D01*
X91270443Y46106236D01*
X91269072Y46102020D01*
X91268243Y46094654D01*
X91246351Y46032094D01*
X91219558Y45949632D01*
X91214326Y45940572D01*
X91209963Y45928100D01*
X91175017Y45872485D01*
X91137227Y45807028D01*
X91126179Y45794759D01*
X91116083Y45778690D01*
X91072185Y45734793D01*
X91027044Y45684658D01*
X91008784Y45671392D01*
X90991310Y45653917D01*
X90942653Y45623344D01*
X90893829Y45587871D01*
X90867642Y45576213D01*
X90841900Y45560037D01*
X90792443Y45542732D01*
X90743396Y45520894D01*
X90709362Y45513660D01*
X90675346Y45501757D01*
X90628567Y45496487D01*
X90582334Y45486659D01*
X90541349Y45486659D01*
X90500000Y45482000D01*
X90458651Y45486659D01*
X90417666Y45486659D01*
X90371432Y45496487D01*
X90324654Y45501757D01*
X90290638Y45513660D01*
X90256603Y45520894D01*
X90207551Y45542734D01*
X90158100Y45560037D01*
X90132359Y45576211D01*
X90106170Y45587871D01*
X90057339Y45623349D01*
X90008690Y45653917D01*
X89991217Y45671390D01*
X89972955Y45684658D01*
X89927804Y45734803D01*
X89883917Y45778690D01*
X89873822Y45794755D01*
X89862772Y45807028D01*
X89824970Y45872505D01*
X89790037Y45928100D01*
X89785674Y45940567D01*
X89780441Y45949632D01*
X89753634Y46032134D01*
X89731757Y46094654D01*
X89730927Y46102015D01*
X89729556Y46106236D01*
X89717118Y46224569D01*
X89712000Y46270000D01*
X89717118Y46315428D01*
X89729556Y46433765D01*
X89730927Y46437987D01*
X89731757Y46445346D01*
X89753629Y46507854D01*
X89780441Y46590369D01*
X89785675Y46599436D01*
X89790037Y46611900D01*
X89824962Y46667485D01*
X89862772Y46732973D01*
X89873824Y46745249D01*
X89883917Y46761310D01*
X89927795Y46805189D01*
X89972955Y46855343D01*
X89991221Y46868615D01*
X90008690Y46886083D01*
X90057334Y46916648D01*
X90106171Y46952130D01*
X90132362Y46963792D01*
X90158100Y46979963D01*
X90207545Y46997265D01*
X90256604Y47019107D01*
X90290643Y47026343D01*
X90324654Y47038243D01*
X90371429Y47043514D01*
X90417666Y47053341D01*
X90458651Y47053341D01*
X90500000Y47058000D01*
X90541349Y47053341D01*
G37*
G36*
X90541349Y49593341D02*
G01*
X90582334Y49593341D01*
X90628570Y49583514D01*
X90675346Y49578243D01*
X90709356Y49566343D01*
X90743396Y49559107D01*
X90792454Y49537265D01*
X90841900Y49519963D01*
X90867637Y49503792D01*
X90893829Y49492130D01*
X90942663Y49456650D01*
X90991310Y49426083D01*
X91008781Y49408612D01*
X91027044Y49395343D01*
X91072194Y49345199D01*
X91116083Y49301310D01*
X91126177Y49285245D01*
X91137227Y49272973D01*
X91175024Y49207505D01*
X91209963Y49151900D01*
X91214326Y49139432D01*
X91219558Y49130369D01*
X91246356Y49047894D01*
X91268243Y48985346D01*
X91269072Y48977983D01*
X91270443Y48973765D01*
X91282866Y48855560D01*
X91288000Y48810000D01*
X91282866Y48764437D01*
X91270443Y48646236D01*
X91269072Y48642020D01*
X91268243Y48634654D01*
X91246351Y48572094D01*
X91219558Y48489632D01*
X91214326Y48480572D01*
X91209963Y48468100D01*
X91175017Y48412485D01*
X91137227Y48347028D01*
X91126179Y48334759D01*
X91116083Y48318690D01*
X91072185Y48274793D01*
X91027044Y48224658D01*
X91008784Y48211392D01*
X90991310Y48193917D01*
X90942653Y48163344D01*
X90893829Y48127871D01*
X90867642Y48116213D01*
X90841900Y48100037D01*
X90792443Y48082732D01*
X90743396Y48060894D01*
X90709362Y48053660D01*
X90675346Y48041757D01*
X90628567Y48036487D01*
X90582334Y48026659D01*
X90541349Y48026659D01*
X90500000Y48022000D01*
X90458651Y48026659D01*
X90417666Y48026659D01*
X90371432Y48036487D01*
X90324654Y48041757D01*
X90290638Y48053660D01*
X90256603Y48060894D01*
X90207551Y48082734D01*
X90158100Y48100037D01*
X90132359Y48116211D01*
X90106170Y48127871D01*
X90057339Y48163349D01*
X90008690Y48193917D01*
X89991217Y48211390D01*
X89972955Y48224658D01*
X89927804Y48274803D01*
X89883917Y48318690D01*
X89873822Y48334755D01*
X89862772Y48347028D01*
X89824970Y48412505D01*
X89790037Y48468100D01*
X89785674Y48480567D01*
X89780441Y48489632D01*
X89753634Y48572134D01*
X89731757Y48634654D01*
X89730927Y48642015D01*
X89729556Y48646236D01*
X89717118Y48764569D01*
X89712000Y48810000D01*
X89717118Y48855428D01*
X89729556Y48973765D01*
X89730927Y48977987D01*
X89731757Y48985346D01*
X89753629Y49047854D01*
X89780441Y49130369D01*
X89785675Y49139436D01*
X89790037Y49151900D01*
X89824962Y49207485D01*
X89862772Y49272973D01*
X89873824Y49285249D01*
X89883917Y49301310D01*
X89927795Y49345189D01*
X89972955Y49395343D01*
X89991221Y49408615D01*
X90008690Y49426083D01*
X90057334Y49456648D01*
X90106171Y49492130D01*
X90132362Y49503792D01*
X90158100Y49519963D01*
X90207545Y49537265D01*
X90256604Y49559107D01*
X90290643Y49566343D01*
X90324654Y49578243D01*
X90371429Y49583514D01*
X90417666Y49593341D01*
X90458651Y49593341D01*
X90500000Y49598000D01*
X90541349Y49593341D01*
G37*
G36*
X90541349Y52133341D02*
G01*
X90582334Y52133341D01*
X90628570Y52123514D01*
X90675346Y52118243D01*
X90709356Y52106343D01*
X90743396Y52099107D01*
X90792454Y52077265D01*
X90841900Y52059963D01*
X90867637Y52043792D01*
X90893829Y52032130D01*
X90942663Y51996650D01*
X90991310Y51966083D01*
X91008781Y51948612D01*
X91027044Y51935343D01*
X91072194Y51885199D01*
X91116083Y51841310D01*
X91126177Y51825245D01*
X91137227Y51812973D01*
X91175024Y51747505D01*
X91209963Y51691900D01*
X91214326Y51679432D01*
X91219558Y51670369D01*
X91246356Y51587894D01*
X91268243Y51525346D01*
X91269072Y51517983D01*
X91270443Y51513765D01*
X91282866Y51395560D01*
X91288000Y51350000D01*
X91282866Y51304437D01*
X91270443Y51186236D01*
X91269072Y51182020D01*
X91268243Y51174654D01*
X91246351Y51112094D01*
X91219558Y51029632D01*
X91214326Y51020572D01*
X91209963Y51008100D01*
X91175017Y50952485D01*
X91137227Y50887028D01*
X91126179Y50874759D01*
X91116083Y50858690D01*
X91072185Y50814793D01*
X91027044Y50764658D01*
X91008784Y50751392D01*
X90991310Y50733917D01*
X90942653Y50703344D01*
X90893829Y50667871D01*
X90867642Y50656213D01*
X90841900Y50640037D01*
X90792443Y50622732D01*
X90743396Y50600894D01*
X90709362Y50593660D01*
X90675346Y50581757D01*
X90628567Y50576487D01*
X90582334Y50566659D01*
X90541349Y50566659D01*
X90500000Y50562000D01*
X90458651Y50566659D01*
X90417666Y50566659D01*
X90371432Y50576487D01*
X90324654Y50581757D01*
X90290638Y50593660D01*
X90256603Y50600894D01*
X90207551Y50622734D01*
X90158100Y50640037D01*
X90132359Y50656211D01*
X90106170Y50667871D01*
X90057339Y50703349D01*
X90008690Y50733917D01*
X89991217Y50751390D01*
X89972955Y50764658D01*
X89927804Y50814803D01*
X89883917Y50858690D01*
X89873822Y50874755D01*
X89862772Y50887028D01*
X89824970Y50952505D01*
X89790037Y51008100D01*
X89785674Y51020567D01*
X89780441Y51029632D01*
X89753634Y51112134D01*
X89731757Y51174654D01*
X89730927Y51182015D01*
X89729556Y51186236D01*
X89717118Y51304569D01*
X89712000Y51350000D01*
X89717118Y51395428D01*
X89729556Y51513765D01*
X89730927Y51517987D01*
X89731757Y51525346D01*
X89753629Y51587854D01*
X89780441Y51670369D01*
X89785675Y51679436D01*
X89790037Y51691900D01*
X89824962Y51747485D01*
X89862772Y51812973D01*
X89873824Y51825249D01*
X89883917Y51841310D01*
X89927795Y51885189D01*
X89972955Y51935343D01*
X89991221Y51948615D01*
X90008690Y51966083D01*
X90057334Y51996648D01*
X90106171Y52032130D01*
X90132362Y52043792D01*
X90158100Y52059963D01*
X90207545Y52077265D01*
X90256604Y52099107D01*
X90290643Y52106343D01*
X90324654Y52118243D01*
X90371429Y52123514D01*
X90417666Y52133341D01*
X90458651Y52133341D01*
X90500000Y52138000D01*
X90541349Y52133341D01*
G37*
G36*
X90541349Y54673341D02*
G01*
X90582334Y54673341D01*
X90628570Y54663514D01*
X90675346Y54658243D01*
X90709356Y54646343D01*
X90743396Y54639107D01*
X90792454Y54617265D01*
X90841900Y54599963D01*
X90867637Y54583792D01*
X90893829Y54572130D01*
X90942663Y54536650D01*
X90991310Y54506083D01*
X91008781Y54488612D01*
X91027044Y54475343D01*
X91072194Y54425199D01*
X91116083Y54381310D01*
X91126177Y54365245D01*
X91137227Y54352973D01*
X91175024Y54287505D01*
X91209963Y54231900D01*
X91214326Y54219432D01*
X91219558Y54210369D01*
X91246356Y54127894D01*
X91268243Y54065346D01*
X91269072Y54057983D01*
X91270443Y54053765D01*
X91282866Y53935560D01*
X91288000Y53890000D01*
X91282866Y53844437D01*
X91270443Y53726236D01*
X91269072Y53722020D01*
X91268243Y53714654D01*
X91246351Y53652094D01*
X91219558Y53569632D01*
X91214326Y53560572D01*
X91209963Y53548100D01*
X91175017Y53492485D01*
X91137227Y53427028D01*
X91126179Y53414759D01*
X91116083Y53398690D01*
X91072185Y53354793D01*
X91027044Y53304658D01*
X91008784Y53291392D01*
X90991310Y53273917D01*
X90942653Y53243344D01*
X90893829Y53207871D01*
X90867642Y53196213D01*
X90841900Y53180037D01*
X90792443Y53162732D01*
X90743396Y53140894D01*
X90709362Y53133660D01*
X90675346Y53121757D01*
X90628567Y53116487D01*
X90582334Y53106659D01*
X90541349Y53106659D01*
X90500000Y53102000D01*
X90458651Y53106659D01*
X90417666Y53106659D01*
X90371432Y53116487D01*
X90324654Y53121757D01*
X90290638Y53133660D01*
X90256603Y53140894D01*
X90207551Y53162734D01*
X90158100Y53180037D01*
X90132359Y53196211D01*
X90106170Y53207871D01*
X90057339Y53243349D01*
X90008690Y53273917D01*
X89991217Y53291390D01*
X89972955Y53304658D01*
X89927804Y53354803D01*
X89883917Y53398690D01*
X89873822Y53414755D01*
X89862772Y53427028D01*
X89824970Y53492505D01*
X89790037Y53548100D01*
X89785674Y53560567D01*
X89780441Y53569632D01*
X89753634Y53652134D01*
X89731757Y53714654D01*
X89730927Y53722015D01*
X89729556Y53726236D01*
X89717118Y53844569D01*
X89712000Y53890000D01*
X89717118Y53935428D01*
X89729556Y54053765D01*
X89730927Y54057987D01*
X89731757Y54065346D01*
X89753629Y54127854D01*
X89780441Y54210369D01*
X89785675Y54219436D01*
X89790037Y54231900D01*
X89824962Y54287485D01*
X89862772Y54352973D01*
X89873824Y54365249D01*
X89883917Y54381310D01*
X89927795Y54425189D01*
X89972955Y54475343D01*
X89991221Y54488615D01*
X90008690Y54506083D01*
X90057334Y54536648D01*
X90106171Y54572130D01*
X90132362Y54583792D01*
X90158100Y54599963D01*
X90207545Y54617265D01*
X90256604Y54639107D01*
X90290643Y54646343D01*
X90324654Y54658243D01*
X90371429Y54663514D01*
X90417666Y54673341D01*
X90458651Y54673341D01*
X90500000Y54678000D01*
X90541349Y54673341D01*
G37*
G36*
X90541349Y57213341D02*
G01*
X90582334Y57213341D01*
X90628570Y57203514D01*
X90675346Y57198243D01*
X90709356Y57186343D01*
X90743396Y57179107D01*
X90792454Y57157265D01*
X90841900Y57139963D01*
X90867637Y57123792D01*
X90893829Y57112130D01*
X90942663Y57076650D01*
X90991310Y57046083D01*
X91008781Y57028612D01*
X91027044Y57015343D01*
X91072194Y56965199D01*
X91116083Y56921310D01*
X91126177Y56905245D01*
X91137227Y56892973D01*
X91175024Y56827505D01*
X91209963Y56771900D01*
X91214326Y56759432D01*
X91219558Y56750369D01*
X91246356Y56667894D01*
X91268243Y56605346D01*
X91269072Y56597983D01*
X91270443Y56593765D01*
X91282866Y56475560D01*
X91288000Y56430000D01*
X91282866Y56384437D01*
X91270443Y56266236D01*
X91269072Y56262020D01*
X91268243Y56254654D01*
X91246351Y56192094D01*
X91219558Y56109632D01*
X91214326Y56100572D01*
X91209963Y56088100D01*
X91175017Y56032485D01*
X91137227Y55967028D01*
X91126179Y55954759D01*
X91116083Y55938690D01*
X91072185Y55894793D01*
X91027044Y55844658D01*
X91008784Y55831392D01*
X90991310Y55813917D01*
X90942653Y55783344D01*
X90893829Y55747871D01*
X90867642Y55736213D01*
X90841900Y55720037D01*
X90792443Y55702732D01*
X90743396Y55680894D01*
X90709362Y55673660D01*
X90675346Y55661757D01*
X90628567Y55656487D01*
X90582334Y55646659D01*
X90541349Y55646659D01*
X90500000Y55642000D01*
X90458651Y55646659D01*
X90417666Y55646659D01*
X90371432Y55656487D01*
X90324654Y55661757D01*
X90290638Y55673660D01*
X90256603Y55680894D01*
X90207551Y55702734D01*
X90158100Y55720037D01*
X90132359Y55736211D01*
X90106170Y55747871D01*
X90057339Y55783349D01*
X90008690Y55813917D01*
X89991217Y55831390D01*
X89972955Y55844658D01*
X89927804Y55894803D01*
X89883917Y55938690D01*
X89873822Y55954755D01*
X89862772Y55967028D01*
X89824970Y56032505D01*
X89790037Y56088100D01*
X89785674Y56100567D01*
X89780441Y56109632D01*
X89753634Y56192134D01*
X89731757Y56254654D01*
X89730927Y56262015D01*
X89729556Y56266236D01*
X89717118Y56384569D01*
X89712000Y56430000D01*
X89717118Y56475428D01*
X89729556Y56593765D01*
X89730927Y56597987D01*
X89731757Y56605346D01*
X89753629Y56667854D01*
X89780441Y56750369D01*
X89785675Y56759436D01*
X89790037Y56771900D01*
X89824962Y56827485D01*
X89862772Y56892973D01*
X89873824Y56905249D01*
X89883917Y56921310D01*
X89927795Y56965189D01*
X89972955Y57015343D01*
X89991221Y57028615D01*
X90008690Y57046083D01*
X90057334Y57076648D01*
X90106171Y57112130D01*
X90132362Y57123792D01*
X90158100Y57139963D01*
X90207545Y57157265D01*
X90256604Y57179107D01*
X90290643Y57186343D01*
X90324654Y57198243D01*
X90371429Y57203514D01*
X90417666Y57213341D01*
X90458651Y57213341D01*
X90500000Y57218000D01*
X90541349Y57213341D01*
G37*
G36*
X90541349Y59753341D02*
G01*
X90582334Y59753341D01*
X90628570Y59743514D01*
X90675346Y59738243D01*
X90709356Y59726343D01*
X90743396Y59719107D01*
X90792454Y59697265D01*
X90841900Y59679963D01*
X90867637Y59663792D01*
X90893829Y59652130D01*
X90942663Y59616650D01*
X90991310Y59586083D01*
X91008781Y59568612D01*
X91027044Y59555343D01*
X91072194Y59505199D01*
X91116083Y59461310D01*
X91126177Y59445245D01*
X91137227Y59432973D01*
X91175024Y59367505D01*
X91209963Y59311900D01*
X91214326Y59299432D01*
X91219558Y59290369D01*
X91246356Y59207894D01*
X91268243Y59145346D01*
X91269072Y59137983D01*
X91270443Y59133765D01*
X91282866Y59015560D01*
X91288000Y58970000D01*
X91282866Y58924437D01*
X91270443Y58806236D01*
X91269072Y58802020D01*
X91268243Y58794654D01*
X91246351Y58732094D01*
X91219558Y58649632D01*
X91214326Y58640572D01*
X91209963Y58628100D01*
X91175017Y58572485D01*
X91137227Y58507028D01*
X91126179Y58494759D01*
X91116083Y58478690D01*
X91072185Y58434793D01*
X91027044Y58384658D01*
X91008784Y58371392D01*
X90991310Y58353917D01*
X90942653Y58323344D01*
X90893829Y58287871D01*
X90867642Y58276213D01*
X90841900Y58260037D01*
X90792443Y58242732D01*
X90743396Y58220894D01*
X90709362Y58213660D01*
X90675346Y58201757D01*
X90628567Y58196487D01*
X90582334Y58186659D01*
X90541349Y58186659D01*
X90500000Y58182000D01*
X90458651Y58186659D01*
X90417666Y58186659D01*
X90371432Y58196487D01*
X90324654Y58201757D01*
X90290638Y58213660D01*
X90256603Y58220894D01*
X90207551Y58242734D01*
X90158100Y58260037D01*
X90132359Y58276211D01*
X90106170Y58287871D01*
X90057339Y58323349D01*
X90008690Y58353917D01*
X89991217Y58371390D01*
X89972955Y58384658D01*
X89927804Y58434803D01*
X89883917Y58478690D01*
X89873822Y58494755D01*
X89862772Y58507028D01*
X89824970Y58572505D01*
X89790037Y58628100D01*
X89785674Y58640567D01*
X89780441Y58649632D01*
X89753634Y58732134D01*
X89731757Y58794654D01*
X89730927Y58802015D01*
X89729556Y58806236D01*
X89717118Y58924569D01*
X89712000Y58970000D01*
X89717118Y59015428D01*
X89729556Y59133765D01*
X89730927Y59137987D01*
X89731757Y59145346D01*
X89753629Y59207854D01*
X89780441Y59290369D01*
X89785675Y59299436D01*
X89790037Y59311900D01*
X89824962Y59367485D01*
X89862772Y59432973D01*
X89873824Y59445249D01*
X89883917Y59461310D01*
X89927795Y59505189D01*
X89972955Y59555343D01*
X89991221Y59568615D01*
X90008690Y59586083D01*
X90057334Y59616648D01*
X90106171Y59652130D01*
X90132362Y59663792D01*
X90158100Y59679963D01*
X90207545Y59697265D01*
X90256604Y59719107D01*
X90290643Y59726343D01*
X90324654Y59738243D01*
X90371429Y59743514D01*
X90417666Y59753341D01*
X90458651Y59753341D01*
X90500000Y59758000D01*
X90541349Y59753341D01*
G37*
G36*
X90541349Y62293341D02*
G01*
X90582334Y62293341D01*
X90628570Y62283514D01*
X90675346Y62278243D01*
X90709356Y62266343D01*
X90743396Y62259107D01*
X90792454Y62237265D01*
X90841900Y62219963D01*
X90867637Y62203792D01*
X90893829Y62192130D01*
X90942663Y62156650D01*
X90991310Y62126083D01*
X91008781Y62108612D01*
X91027044Y62095343D01*
X91072194Y62045199D01*
X91116083Y62001310D01*
X91126177Y61985245D01*
X91137227Y61972973D01*
X91175024Y61907505D01*
X91209963Y61851900D01*
X91214326Y61839432D01*
X91219558Y61830369D01*
X91246356Y61747894D01*
X91268243Y61685346D01*
X91269072Y61677983D01*
X91270443Y61673765D01*
X91282866Y61555560D01*
X91288000Y61510000D01*
X91282866Y61464437D01*
X91270443Y61346236D01*
X91269072Y61342020D01*
X91268243Y61334654D01*
X91246351Y61272094D01*
X91219558Y61189632D01*
X91214326Y61180572D01*
X91209963Y61168100D01*
X91175017Y61112485D01*
X91137227Y61047028D01*
X91126179Y61034759D01*
X91116083Y61018690D01*
X91072185Y60974793D01*
X91027044Y60924658D01*
X91008784Y60911392D01*
X90991310Y60893917D01*
X90942653Y60863344D01*
X90893829Y60827871D01*
X90867642Y60816213D01*
X90841900Y60800037D01*
X90792443Y60782732D01*
X90743396Y60760894D01*
X90709362Y60753660D01*
X90675346Y60741757D01*
X90628567Y60736487D01*
X90582334Y60726659D01*
X90541349Y60726659D01*
X90500000Y60722000D01*
X90458651Y60726659D01*
X90417666Y60726659D01*
X90371432Y60736487D01*
X90324654Y60741757D01*
X90290638Y60753660D01*
X90256603Y60760894D01*
X90207551Y60782734D01*
X90158100Y60800037D01*
X90132359Y60816211D01*
X90106170Y60827871D01*
X90057339Y60863349D01*
X90008690Y60893917D01*
X89991217Y60911390D01*
X89972955Y60924658D01*
X89927804Y60974803D01*
X89883917Y61018690D01*
X89873822Y61034755D01*
X89862772Y61047028D01*
X89824970Y61112505D01*
X89790037Y61168100D01*
X89785674Y61180567D01*
X89780441Y61189632D01*
X89753634Y61272134D01*
X89731757Y61334654D01*
X89730927Y61342015D01*
X89729556Y61346236D01*
X89717118Y61464569D01*
X89712000Y61510000D01*
X89717118Y61555428D01*
X89729556Y61673765D01*
X89730927Y61677987D01*
X89731757Y61685346D01*
X89753629Y61747854D01*
X89780441Y61830369D01*
X89785675Y61839436D01*
X89790037Y61851900D01*
X89824962Y61907485D01*
X89862772Y61972973D01*
X89873824Y61985249D01*
X89883917Y62001310D01*
X89927795Y62045189D01*
X89972955Y62095343D01*
X89991221Y62108615D01*
X90008690Y62126083D01*
X90057334Y62156648D01*
X90106171Y62192130D01*
X90132362Y62203792D01*
X90158100Y62219963D01*
X90207545Y62237265D01*
X90256604Y62259107D01*
X90290643Y62266343D01*
X90324654Y62278243D01*
X90371429Y62283514D01*
X90417666Y62293341D01*
X90458651Y62293341D01*
X90500000Y62298000D01*
X90541349Y62293341D01*
G37*
G36*
X2654599Y63637699D02*
G01*
X2706091Y63635170D01*
X2712434Y63633909D01*
X2726749Y63632970D01*
X2754403Y63625560D01*
X2820597Y63612393D01*
X2851839Y63599452D01*
X2875018Y63593241D01*
X2895800Y63581243D01*
X2927041Y63568302D01*
X2983151Y63530811D01*
X3007952Y63516492D01*
X3014740Y63509704D01*
X3022832Y63504297D01*
X3104296Y63422833D01*
X3109702Y63414742D01*
X3116492Y63407952D01*
X3130812Y63383148D01*
X3168301Y63327042D01*
X3181240Y63295804D01*
X3193241Y63275018D01*
X3199452Y63251836D01*
X3212392Y63220598D01*
X3225556Y63154416D01*
X3232970Y63126749D01*
X3232970Y63117147D01*
X3234868Y63107605D01*
X3234868Y62992396D01*
X3232970Y62982855D01*
X3232970Y62973251D01*
X3225555Y62945582D01*
X3212392Y62879403D01*
X3199453Y62848167D01*
X3193241Y62824982D01*
X3181239Y62804194D01*
X3168301Y62772959D01*
X3130817Y62716860D01*
X3116492Y62692048D01*
X3109700Y62685257D01*
X3104296Y62677168D01*
X3022832Y62595704D01*
X3014743Y62590300D01*
X3007952Y62583508D01*
X2983140Y62569183D01*
X2927041Y62531699D01*
X2895806Y62518761D01*
X2875018Y62506759D01*
X2851833Y62500547D01*
X2820597Y62487608D01*
X2754418Y62474445D01*
X2726749Y62467030D01*
X2712427Y62466092D01*
X2706091Y62464831D01*
X2654605Y62462302D01*
X2650000Y62462000D01*
X2648461Y62462000D01*
X1851539Y62462000D01*
X1850000Y62462000D01*
X1845394Y62462302D01*
X1793908Y62464831D01*
X1787571Y62466092D01*
X1773251Y62467030D01*
X1745584Y62474444D01*
X1679402Y62487608D01*
X1648164Y62500548D01*
X1624982Y62506759D01*
X1604196Y62518760D01*
X1572958Y62531699D01*
X1516852Y62569188D01*
X1492048Y62583508D01*
X1485258Y62590298D01*
X1477167Y62595704D01*
X1395703Y62677168D01*
X1390296Y62685260D01*
X1383508Y62692048D01*
X1369189Y62716849D01*
X1331698Y62772959D01*
X1318757Y62804200D01*
X1306759Y62824982D01*
X1300548Y62848161D01*
X1287607Y62879403D01*
X1274442Y62945588D01*
X1267030Y62973251D01*
X1267030Y62982854D01*
X1265132Y62992396D01*
X1265132Y63107605D01*
X1267030Y63117148D01*
X1267030Y63126749D01*
X1274441Y63154410D01*
X1287607Y63220598D01*
X1300549Y63251843D01*
X1306759Y63275018D01*
X1318755Y63295798D01*
X1331698Y63327042D01*
X1369193Y63383159D01*
X1383508Y63407952D01*
X1390294Y63414739D01*
X1395703Y63422833D01*
X1477167Y63504297D01*
X1485261Y63509706D01*
X1492048Y63516492D01*
X1516841Y63530807D01*
X1572958Y63568302D01*
X1604202Y63581245D01*
X1624982Y63593241D01*
X1648157Y63599451D01*
X1679402Y63612393D01*
X1745599Y63625561D01*
X1773251Y63632970D01*
X1787563Y63633909D01*
X1793908Y63635170D01*
X1845401Y63637699D01*
X1850000Y63638000D01*
X2650000Y63638000D01*
X2654599Y63637699D01*
G37*
G36*
X90541349Y64833341D02*
G01*
X90582334Y64833341D01*
X90628570Y64823514D01*
X90675346Y64818243D01*
X90709356Y64806343D01*
X90743396Y64799107D01*
X90792454Y64777265D01*
X90841900Y64759963D01*
X90867637Y64743792D01*
X90893829Y64732130D01*
X90942663Y64696650D01*
X90991310Y64666083D01*
X91008781Y64648612D01*
X91027044Y64635343D01*
X91072194Y64585199D01*
X91116083Y64541310D01*
X91126177Y64525245D01*
X91137227Y64512973D01*
X91175024Y64447505D01*
X91209963Y64391900D01*
X91214326Y64379432D01*
X91219558Y64370369D01*
X91246356Y64287894D01*
X91268243Y64225346D01*
X91269072Y64217983D01*
X91270443Y64213765D01*
X91282866Y64095560D01*
X91288000Y64050000D01*
X91282866Y64004437D01*
X91270443Y63886236D01*
X91269072Y63882020D01*
X91268243Y63874654D01*
X91246351Y63812094D01*
X91219558Y63729632D01*
X91214326Y63720572D01*
X91209963Y63708100D01*
X91175017Y63652485D01*
X91137227Y63587028D01*
X91126179Y63574759D01*
X91116083Y63558690D01*
X91072185Y63514793D01*
X91027044Y63464658D01*
X91008784Y63451392D01*
X90991310Y63433917D01*
X90942653Y63403344D01*
X90893829Y63367871D01*
X90867642Y63356213D01*
X90841900Y63340037D01*
X90792443Y63322732D01*
X90743396Y63300894D01*
X90709362Y63293660D01*
X90675346Y63281757D01*
X90628567Y63276487D01*
X90582334Y63266659D01*
X90541349Y63266659D01*
X90500000Y63262000D01*
X90458651Y63266659D01*
X90417666Y63266659D01*
X90371432Y63276487D01*
X90324654Y63281757D01*
X90290638Y63293660D01*
X90256603Y63300894D01*
X90207551Y63322734D01*
X90158100Y63340037D01*
X90132359Y63356211D01*
X90106170Y63367871D01*
X90057339Y63403349D01*
X90008690Y63433917D01*
X89991217Y63451390D01*
X89972955Y63464658D01*
X89927804Y63514803D01*
X89883917Y63558690D01*
X89873822Y63574755D01*
X89862772Y63587028D01*
X89824970Y63652505D01*
X89790037Y63708100D01*
X89785674Y63720567D01*
X89780441Y63729632D01*
X89753634Y63812134D01*
X89731757Y63874654D01*
X89730927Y63882015D01*
X89729556Y63886236D01*
X89717118Y64004569D01*
X89712000Y64050000D01*
X89717118Y64095428D01*
X89729556Y64213765D01*
X89730927Y64217987D01*
X89731757Y64225346D01*
X89753629Y64287854D01*
X89780441Y64370369D01*
X89785675Y64379436D01*
X89790037Y64391900D01*
X89824962Y64447485D01*
X89862772Y64512973D01*
X89873824Y64525249D01*
X89883917Y64541310D01*
X89927795Y64585189D01*
X89972955Y64635343D01*
X89991221Y64648615D01*
X90008690Y64666083D01*
X90057334Y64696648D01*
X90106171Y64732130D01*
X90132362Y64743792D01*
X90158100Y64759963D01*
X90207545Y64777265D01*
X90256604Y64799107D01*
X90290643Y64806343D01*
X90324654Y64818243D01*
X90371429Y64823514D01*
X90417666Y64833341D01*
X90458651Y64833341D01*
X90500000Y64838000D01*
X90541349Y64833341D01*
G37*
G36*
X4939397Y64708166D02*
G01*
X4979916Y64708166D01*
X5014037Y64699756D01*
X5047442Y64695992D01*
X5090652Y64680873D01*
X5135103Y64669916D01*
X5161387Y64656121D01*
X5187496Y64646985D01*
X5231624Y64619258D01*
X5276627Y64595638D01*
X5294709Y64579619D01*
X5313127Y64568046D01*
X5354712Y64526461D01*
X5396263Y64489650D01*
X5406825Y64474348D01*
X5418045Y64463128D01*
X5453320Y64406987D01*
X5487057Y64358111D01*
X5491663Y64345965D01*
X5496984Y64337497D01*
X5522142Y64265599D01*
X5543734Y64208666D01*
X5544621Y64201357D01*
X5545991Y64197443D01*
X5557505Y64095253D01*
X5563000Y64050000D01*
X5557504Y64004744D01*
X5545991Y63902558D01*
X5544621Y63898645D01*
X5543734Y63891334D01*
X5522137Y63834390D01*
X5496984Y63762504D01*
X5491664Y63754039D01*
X5487057Y63741889D01*
X5453313Y63693003D01*
X5418045Y63636873D01*
X5406827Y63625656D01*
X5396263Y63610350D01*
X5354704Y63573533D01*
X5313127Y63531955D01*
X5294712Y63520385D01*
X5276627Y63504362D01*
X5231614Y63480738D01*
X5187496Y63453016D01*
X5161393Y63443883D01*
X5135103Y63430084D01*
X5090642Y63419126D01*
X5047442Y63404009D01*
X5014044Y63400246D01*
X4979916Y63391834D01*
X4939388Y63391834D01*
X4900000Y63387396D01*
X4860612Y63391834D01*
X4820084Y63391834D01*
X4785955Y63400246D01*
X4752557Y63404009D01*
X4709353Y63419127D01*
X4664897Y63430084D01*
X4638608Y63443882D01*
X4612503Y63453016D01*
X4568379Y63480741D01*
X4523373Y63504362D01*
X4505289Y63520383D01*
X4486872Y63531955D01*
X4445287Y63573540D01*
X4403737Y63610350D01*
X4393174Y63625653D01*
X4381954Y63636873D01*
X4346675Y63693020D01*
X4312943Y63741889D01*
X4308336Y63754035D01*
X4303015Y63762504D01*
X4277849Y63834425D01*
X4256266Y63891334D01*
X4255378Y63898641D01*
X4254008Y63902558D01*
X4242481Y64004858D01*
X4237000Y64050000D01*
X4242480Y64095139D01*
X4254008Y64197443D01*
X4255379Y64201362D01*
X4256266Y64208666D01*
X4277844Y64265565D01*
X4303015Y64337497D01*
X4308337Y64345969D01*
X4312943Y64358111D01*
X4346668Y64406971D01*
X4381954Y64463128D01*
X4393176Y64474351D01*
X4403737Y64489650D01*
X4445278Y64526453D01*
X4486872Y64568046D01*
X4505293Y64579621D01*
X4523373Y64595638D01*
X4568369Y64619255D01*
X4612503Y64646985D01*
X4638614Y64656122D01*
X4664897Y64669916D01*
X4709344Y64680872D01*
X4752557Y64695992D01*
X4785963Y64699757D01*
X4820084Y64708166D01*
X4860603Y64708166D01*
X4900000Y64712605D01*
X4939397Y64708166D01*
G37*
G36*
X4939397Y69908166D02*
G01*
X4979916Y69908166D01*
X5014037Y69899756D01*
X5047442Y69895992D01*
X5090652Y69880873D01*
X5135103Y69869916D01*
X5161387Y69856121D01*
X5187496Y69846985D01*
X5231624Y69819258D01*
X5276627Y69795638D01*
X5294709Y69779619D01*
X5313127Y69768046D01*
X5354712Y69726461D01*
X5396263Y69689650D01*
X5406825Y69674348D01*
X5418045Y69663128D01*
X5453320Y69606987D01*
X5487057Y69558111D01*
X5491663Y69545965D01*
X5496984Y69537497D01*
X5522142Y69465599D01*
X5543734Y69408666D01*
X5544621Y69401357D01*
X5545991Y69397443D01*
X5557505Y69295253D01*
X5563000Y69250000D01*
X5557504Y69204744D01*
X5545991Y69102558D01*
X5544621Y69098645D01*
X5543734Y69091334D01*
X5522137Y69034390D01*
X5496984Y68962504D01*
X5491664Y68954039D01*
X5487057Y68941889D01*
X5453313Y68893003D01*
X5418045Y68836873D01*
X5406827Y68825656D01*
X5396263Y68810350D01*
X5354704Y68773533D01*
X5313127Y68731955D01*
X5294712Y68720385D01*
X5276627Y68704362D01*
X5231614Y68680738D01*
X5187496Y68653016D01*
X5161393Y68643883D01*
X5135103Y68630084D01*
X5090642Y68619126D01*
X5047442Y68604009D01*
X5014044Y68600246D01*
X4979916Y68591834D01*
X4939388Y68591834D01*
X4900000Y68587396D01*
X4860612Y68591834D01*
X4820084Y68591834D01*
X4785955Y68600246D01*
X4752557Y68604009D01*
X4709353Y68619127D01*
X4664897Y68630084D01*
X4638608Y68643882D01*
X4612503Y68653016D01*
X4568379Y68680741D01*
X4523373Y68704362D01*
X4505289Y68720383D01*
X4486872Y68731955D01*
X4445287Y68773540D01*
X4403737Y68810350D01*
X4393174Y68825653D01*
X4381954Y68836873D01*
X4346675Y68893020D01*
X4312943Y68941889D01*
X4308336Y68954035D01*
X4303015Y68962504D01*
X4277849Y69034425D01*
X4256266Y69091334D01*
X4255378Y69098641D01*
X4254008Y69102558D01*
X4242481Y69204858D01*
X4237000Y69250000D01*
X4242480Y69295139D01*
X4254008Y69397443D01*
X4255379Y69401362D01*
X4256266Y69408666D01*
X4277844Y69465565D01*
X4303015Y69537497D01*
X4308337Y69545969D01*
X4312943Y69558111D01*
X4346668Y69606971D01*
X4381954Y69663128D01*
X4393176Y69674351D01*
X4403737Y69689650D01*
X4445278Y69726453D01*
X4486872Y69768046D01*
X4505293Y69779621D01*
X4523373Y69795638D01*
X4568369Y69819255D01*
X4612503Y69846985D01*
X4638614Y69856122D01*
X4664897Y69869916D01*
X4709344Y69880872D01*
X4752557Y69895992D01*
X4785963Y69899757D01*
X4820084Y69908166D01*
X4860603Y69908166D01*
X4900000Y69912605D01*
X4939397Y69908166D01*
G37*
G36*
X2654599Y70837699D02*
G01*
X2706091Y70835170D01*
X2712434Y70833909D01*
X2726749Y70832970D01*
X2754403Y70825560D01*
X2820597Y70812393D01*
X2851839Y70799452D01*
X2875018Y70793241D01*
X2895800Y70781243D01*
X2927041Y70768302D01*
X2983151Y70730811D01*
X3007952Y70716492D01*
X3014740Y70709704D01*
X3022832Y70704297D01*
X3104296Y70622833D01*
X3109702Y70614742D01*
X3116492Y70607952D01*
X3130812Y70583148D01*
X3168301Y70527042D01*
X3181240Y70495804D01*
X3193241Y70475018D01*
X3199452Y70451836D01*
X3212392Y70420598D01*
X3225556Y70354416D01*
X3232970Y70326749D01*
X3232970Y70317147D01*
X3234868Y70307605D01*
X3234868Y70192396D01*
X3232970Y70182855D01*
X3232970Y70173251D01*
X3225555Y70145582D01*
X3212392Y70079403D01*
X3199453Y70048167D01*
X3193241Y70024982D01*
X3181239Y70004194D01*
X3168301Y69972959D01*
X3130817Y69916860D01*
X3116492Y69892048D01*
X3109700Y69885257D01*
X3104296Y69877168D01*
X3022832Y69795704D01*
X3014743Y69790300D01*
X3007952Y69783508D01*
X2983140Y69769183D01*
X2927041Y69731699D01*
X2895806Y69718761D01*
X2875018Y69706759D01*
X2851833Y69700547D01*
X2820597Y69687608D01*
X2754418Y69674445D01*
X2726749Y69667030D01*
X2712427Y69666092D01*
X2706091Y69664831D01*
X2654605Y69662302D01*
X2650000Y69662000D01*
X2648461Y69662000D01*
X1851539Y69662000D01*
X1850000Y69662000D01*
X1845394Y69662302D01*
X1793908Y69664831D01*
X1787571Y69666092D01*
X1773251Y69667030D01*
X1745584Y69674444D01*
X1679402Y69687608D01*
X1648164Y69700548D01*
X1624982Y69706759D01*
X1604196Y69718760D01*
X1572958Y69731699D01*
X1516852Y69769188D01*
X1492048Y69783508D01*
X1485258Y69790298D01*
X1477167Y69795704D01*
X1395703Y69877168D01*
X1390296Y69885260D01*
X1383508Y69892048D01*
X1369189Y69916849D01*
X1331698Y69972959D01*
X1318757Y70004200D01*
X1306759Y70024982D01*
X1300548Y70048161D01*
X1287607Y70079403D01*
X1274442Y70145588D01*
X1267030Y70173251D01*
X1267030Y70182854D01*
X1265132Y70192396D01*
X1265132Y70307605D01*
X1267030Y70317148D01*
X1267030Y70326749D01*
X1274441Y70354410D01*
X1287607Y70420598D01*
X1300549Y70451843D01*
X1306759Y70475018D01*
X1318755Y70495798D01*
X1331698Y70527042D01*
X1369193Y70583159D01*
X1383508Y70607952D01*
X1390294Y70614739D01*
X1395703Y70622833D01*
X1477167Y70704297D01*
X1485261Y70709706D01*
X1492048Y70716492D01*
X1516841Y70730807D01*
X1572958Y70768302D01*
X1604202Y70781245D01*
X1624982Y70793241D01*
X1648157Y70799451D01*
X1679402Y70812393D01*
X1745599Y70825561D01*
X1773251Y70832970D01*
X1787563Y70833909D01*
X1793908Y70835170D01*
X1845401Y70837699D01*
X1850000Y70838000D01*
X2650000Y70838000D01*
X2654599Y70837699D01*
G37*
G36*
X6023850Y87695344D02*
G01*
X6366257Y87619975D01*
X6698507Y87508027D01*
X7016707Y87360812D01*
X7317124Y87180057D01*
X7596237Y86967881D01*
X7850773Y86726771D01*
X8077749Y86459554D01*
X8274504Y86169363D01*
X8438729Y85859601D01*
X8568501Y85533898D01*
X8662297Y85196074D01*
X8719019Y84850089D01*
X8738000Y84500000D01*
X8719019Y84149911D01*
X8662297Y83803926D01*
X8568501Y83466102D01*
X8438729Y83140399D01*
X8274504Y82830637D01*
X8077749Y82540446D01*
X7850773Y82273229D01*
X7596237Y82032119D01*
X7317124Y81819943D01*
X7016707Y81639188D01*
X6698507Y81491973D01*
X6366257Y81380025D01*
X6023850Y81304656D01*
X5675302Y81266749D01*
X5324698Y81266749D01*
X4976150Y81304656D01*
X4633743Y81380025D01*
X4301493Y81491973D01*
X3983293Y81639188D01*
X3682876Y81819943D01*
X3403763Y82032119D01*
X3149227Y82273229D01*
X2922251Y82540446D01*
X2725496Y82830637D01*
X2561271Y83140399D01*
X2431499Y83466102D01*
X2337703Y83803926D01*
X2280981Y84149911D01*
X2262000Y84500000D01*
X2280981Y84850089D01*
X2337703Y85196074D01*
X2431499Y85533898D01*
X2561271Y85859601D01*
X2725496Y86169363D01*
X2922251Y86459554D01*
X3149227Y86726771D01*
X3403763Y86967881D01*
X3682876Y87180057D01*
X3983293Y87360812D01*
X4301493Y87508027D01*
X4633743Y87619975D01*
X4976150Y87695344D01*
X5324698Y87733251D01*
X5675302Y87733251D01*
X6023850Y87695344D01*
G37*
G36*
X91023850Y87695344D02*
G01*
X91366257Y87619975D01*
X91698507Y87508027D01*
X92016707Y87360812D01*
X92317124Y87180057D01*
X92596237Y86967881D01*
X92850773Y86726771D01*
X93077749Y86459554D01*
X93274504Y86169363D01*
X93438729Y85859601D01*
X93568501Y85533898D01*
X93662297Y85196074D01*
X93719019Y84850089D01*
X93738000Y84500000D01*
X93719019Y84149911D01*
X93662297Y83803926D01*
X93568501Y83466102D01*
X93438729Y83140399D01*
X93274504Y82830637D01*
X93077749Y82540446D01*
X92850773Y82273229D01*
X92596237Y82032119D01*
X92317124Y81819943D01*
X92016707Y81639188D01*
X91698507Y81491973D01*
X91366257Y81380025D01*
X91023850Y81304656D01*
X90675302Y81266749D01*
X90324698Y81266749D01*
X89976150Y81304656D01*
X89633743Y81380025D01*
X89301493Y81491973D01*
X88983293Y81639188D01*
X88682876Y81819943D01*
X88403763Y82032119D01*
X88149227Y82273229D01*
X87922251Y82540446D01*
X87725496Y82830637D01*
X87561271Y83140399D01*
X87431499Y83466102D01*
X87337703Y83803926D01*
X87280981Y84149911D01*
X87262000Y84500000D01*
X87280981Y84850089D01*
X87337703Y85196074D01*
X87431499Y85533898D01*
X87561271Y85859601D01*
X87725496Y86169363D01*
X87922251Y86459554D01*
X88149227Y86726771D01*
X88403763Y86967881D01*
X88682876Y87180057D01*
X88983293Y87360812D01*
X89301493Y87508027D01*
X89633743Y87619975D01*
X89976150Y87695344D01*
X90324698Y87733251D01*
X90675302Y87733251D01*
X91023850Y87695344D01*
G37*
M02*
