M48
; DRILL file {KiCad 8.0.8} date 2025-03-28T17:24:43+0100
; FORMAT={-:-/ absolute / metric / decimal}
; #@! TF.CreationDate,2025-03-28T17:24:43+01:00
; #@! TF.GenerationSoftware,Kicad,Pcbnew,8.0.8
; #@! TF.FileFunction,Plated,1,4,PTH
FMAT,2
METRIC
; #@! TA.AperFunction,Plated,PTH,ViaDrill
T1C0.400
; #@! TA.AperFunction,Plated,PTH,ComponentDrill
T2C0.500
; #@! TA.AperFunction,Plated,PTH,ComponentDrill
T3C0.700
; #@! TA.AperFunction,Plated,PTH,ComponentDrill
T4C1.000
; #@! TA.AperFunction,Plated,PTH,ComponentDrill
T5C1.050
; #@! TA.AperFunction,Plated,PTH,ComponentDrill
T6C1.070
; #@! TA.AperFunction,Plated,PTH,ComponentDrill
T7C3.200
%
G90
G05
T1
X1.5Y88.5
X1.5Y81.25
X1.5Y74.0
X1.5Y66.75
X1.5Y59.5
X1.5Y52.25
X1.5Y45.0
X1.5Y30.5
X1.5Y16.0
X1.5Y8.75
X1.5Y1.5
X2.5Y37.75
X2.5Y23.25
X8.25Y66.95
X9.25Y88.5
X9.25Y66.95
X9.25Y1.5
X10.0Y31.62
X10.5Y43.5
X11.0Y31.62
X11.75Y43.5
X14.0Y36.8
X15.25Y36.8
X16.5Y68.25
X16.5Y65.5
X17.0Y88.5
X17.0Y30.95
X17.0Y26.54
X17.0Y1.5
X17.96Y26.54
X18.0Y30.95
X19.0Y64.25
X19.25Y32.25
X19.25Y24.0
X20.0Y67.5
X20.0Y62.25
X20.0Y60.0
X20.25Y32.25
X20.25Y24.0
X21.25Y57.5
X22.5Y65.0
X23.25Y55.75
X23.5Y62.5
X24.75Y88.5
X24.75Y1.5
X25.0Y25.75
X25.0Y22.75
X27.25Y31.0
X27.25Y30.0
X27.5Y67.5
X27.5Y62.0
X27.5Y61.0
X27.5Y57.75
X27.5Y55.0
X27.5Y48.25
X27.5Y45.0
X28.5Y64.5
X28.5Y22.75
X31.5Y61.0
X31.5Y60.0
X31.5Y41.75
X31.5Y40.75
X31.75Y30.0
X31.75Y27.5
X32.5Y88.5
X32.5Y67.5
X32.5Y1.5
X32.75Y61.0
X32.75Y41.75
X32.75Y40.75
X33.75Y61.0
X34.75Y62.25
X35.5Y69.25
X35.5Y66.0
X35.5Y64.5
X35.75Y62.25
X36.25Y52.5
X36.5Y69.25
X36.5Y66.0
X36.5Y64.5
X37.75Y52.5
X38.75Y48.25
X38.75Y41.75
X38.75Y40.75
X39.0Y53.25
X39.0Y52.25
X39.75Y71.25
X40.25Y88.5
X40.25Y1.5
X40.75Y71.25
X41.0Y60.5
X41.25Y27.5
X41.5Y67.25
X41.5Y66.25
X41.5Y64.0
X41.5Y62.5
X42.0Y60.5
X42.25Y39.75
X42.25Y38.75
X42.75Y67.25
X42.75Y66.25
X42.75Y64.0
X43.5Y61.25
X43.5Y59.5
X43.5Y57.0
X44.0Y29.0
X44.5Y61.25
X44.5Y59.5
X44.5Y57.0
X46.5Y29.0
X46.5Y26.5
X47.25Y46.0
X48.0Y88.5
X48.0Y46.75
X48.0Y1.5
X48.25Y52.0
X48.25Y50.75
X48.75Y67.5
X49.25Y29.0
X49.25Y26.5
X49.75Y67.5
X50.5Y47.75
X50.5Y46.75
X50.75Y66.0
X50.75Y65.0
X50.75Y45.0
X51.25Y71.0
X51.75Y57.25
X51.75Y56.25
X52.5Y72.0
X52.75Y65.5
X52.75Y64.5
X54.0Y51.5
X54.0Y44.75
X54.0Y43.75
X54.0Y41.5
X54.0Y40.5
X54.25Y29.0
X54.5Y71.75
X54.5Y70.75
X54.75Y50.75
X55.0Y53.5
X55.0Y52.5
X55.75Y88.5
X55.75Y1.5
X57.0Y69.25
X57.0Y68.25
X57.0Y41.5
X57.0Y40.5
X57.25Y48.25
X57.25Y29.75
X58.0Y40.5
X58.25Y48.25
X58.5Y58.73
X58.5Y29.75
X59.5Y77.5
X59.5Y58.73
X60.5Y77.5
X61.0Y65.0
X61.0Y63.5
X61.0Y58.75
X61.25Y52.75
X61.25Y51.75
X61.5Y80.5
X62.0Y65.0
X62.0Y63.5
X62.0Y61.046
X62.0Y58.75
X62.75Y80.5
X63.0Y61.046
X63.5Y88.5
X63.5Y1.5
X64.25Y58.75
X64.25Y55.0
X65.0Y74.25
X65.5Y70.0
X65.75Y68.5
X66.25Y79.0
X66.25Y74.25
X66.5Y70.0
X66.75Y68.5
X67.25Y79.0
X70.0Y77.5
X71.25Y88.5
X71.25Y1.5
X72.5Y82.5
X72.75Y75.25
X73.0Y70.0
X75.0Y80.0
X75.25Y72.75
X76.5Y70.0
X77.5Y77.5
X79.0Y88.5
X79.0Y1.5
X79.5Y55.75
X79.5Y49.75
X79.5Y42.5
X79.5Y38.75
X79.5Y35.5
X79.5Y32.25
X79.5Y29.75
X79.5Y27.25
X80.0Y75.0
X83.0Y64.25
X86.75Y88.5
X86.75Y1.5
X87.75Y65.75
X87.75Y60.25
X87.75Y54.0
X87.75Y47.5
X87.75Y40.0
X87.75Y37.25
X87.75Y34.75
X87.75Y32.25
X87.75Y29.75
X87.75Y27.25
X89.0Y68.25
X89.75Y67.5
X94.5Y88.5
X94.5Y81.25
X94.5Y74.0
X94.5Y45.0
X94.5Y37.75
X94.5Y30.5
X94.5Y23.25
X94.5Y16.0
X94.5Y8.75
X94.5Y1.5
X95.0Y66.75
X95.0Y59.5
X95.0Y52.25
T2
X3.1Y84.5
X3.1Y5.5
X3.803Y86.197
X3.803Y82.803
X3.803Y7.197
X3.803Y3.803
X5.5Y86.9
X5.5Y82.1
X5.5Y7.9
X5.5Y3.1
X7.197Y86.197
X7.197Y82.803
X7.197Y7.197
X7.197Y3.803
X7.9Y84.5
X7.9Y5.5
X88.1Y84.5
X88.1Y5.5
X88.803Y86.197
X88.803Y82.803
X88.803Y7.197
X88.803Y3.803
X90.5Y86.9
X90.5Y82.1
X90.5Y7.9
X90.5Y3.1
X92.197Y86.197
X92.197Y82.803
X92.197Y7.197
X92.197Y3.803
X92.9Y84.5
X92.9Y5.5
T3
X4.9Y69.25
X4.9Y64.05
T4
X90.5Y64.05
X90.5Y61.51
X90.5Y58.97
X90.5Y56.43
X90.5Y53.89
X90.5Y51.35
X90.5Y48.81
X90.5Y46.27
X90.5Y43.73
X90.5Y41.19
X90.5Y38.65
X90.5Y36.11
X90.5Y33.57
X90.5Y31.03
X90.5Y28.49
X90.5Y25.95
T5
X37.68Y35.04
X37.68Y32.5
X40.22Y35.04
X40.22Y32.5
X42.76Y35.04
X42.76Y32.5
X45.3Y35.04
X45.3Y32.5
X47.84Y35.04
X47.84Y32.5
X50.38Y35.04
X50.38Y32.5
X52.92Y35.04
X52.92Y32.5
X55.46Y35.04
X55.46Y32.5
X58.0Y35.04
X58.0Y32.5
T6
X7.0Y36.7
X7.0Y34.16
X7.0Y31.62
X7.0Y29.08
X7.0Y26.54
X7.0Y24.0
T7
X5.5Y84.5
X5.5Y5.5
X90.5Y84.5
X90.5Y5.5
T2
G00X1.85Y70.25
M15
G01X2.65Y70.25
M16
G05
G00X1.85Y63.05
M15
G01X2.65Y63.05
M16
G05
M30
