%TF.GenerationSoftware,KiCad,Pcbnew,8.0.8*%
%TF.CreationDate,2025-03-29T17:39:48+01:00*%
%TF.ProjectId,eps,6570732e-6b69-4636-9164-5f7063625858,rev?*%
%TF.SameCoordinates,PX55d4a80PY8044ea0*%
%TF.FileFunction,Legend,Bot*%
%TF.FilePolarity,Positive*%
%FSLAX46Y46*%
G04 Gerber Fmt 4.6, Leading zero omitted, Abs format (unit mm)*
G04 Created by KiCad (PCBNEW 8.0.8) date 2025-03-29 17:39:48*
%MOMM*%
%LPD*%
G01*
G04 APERTURE LIST*
%ADD10C,0.200000*%
%ADD11C,0.100000*%
G04 APERTURE END LIST*
D10*
%TO.C,NTC2*%
X57800000Y42045000D02*
X57800000Y38345000D01*
D11*
X59000000Y42765000D02*
X59000000Y42765000D01*
X59000000Y42665000D02*
X59000000Y42665000D01*
D10*
X60200000Y42045000D02*
X60200000Y38345000D01*
D11*
X59000000Y42765000D02*
G75*
G02*
X59000000Y42665000I0J-50000D01*
G01*
X59000000Y42665000D02*
G75*
G02*
X59000000Y42765000I0J50000D01*
G01*
%TO.C,S1*%
X136500Y79000000D02*
X26363500Y79000000D01*
X26363500Y37000000D01*
X136500Y37000000D01*
X136500Y79000000D01*
%TO.C,BAT1*%
X33175000Y83655000D02*
X33175000Y83655000D01*
X33175000Y83655000D02*
X53825000Y83655000D01*
X33175000Y6605000D02*
X33175000Y6605000D01*
X33175000Y6605000D02*
X53825000Y6605000D01*
D10*
X43400000Y84150000D02*
X43400000Y84150000D01*
X43600000Y84150000D02*
X43600000Y84150000D01*
D11*
X53825000Y83655000D02*
X33175000Y83655000D01*
X53825000Y83655000D02*
X53825000Y83655000D01*
X53825000Y6605000D02*
X33175000Y6605000D01*
X53825000Y6605000D02*
X53825000Y6605000D01*
D10*
X43400000Y84150000D02*
G75*
G02*
X43600000Y84150000I100000J0D01*
G01*
X43600000Y84150000D02*
G75*
G02*
X43400000Y84150000I-100000J0D01*
G01*
D11*
%TO.C,BAT2*%
X63045000Y83655000D02*
X63045000Y83655000D01*
X63045000Y83655000D02*
X83695000Y83655000D01*
X63045000Y6605000D02*
X63045000Y6605000D01*
X63045000Y6605000D02*
X83695000Y6605000D01*
D10*
X73270000Y84150000D02*
X73270000Y84150000D01*
X73470000Y84150000D02*
X73470000Y84150000D01*
D11*
X83695000Y83655000D02*
X63045000Y83655000D01*
X83695000Y83655000D02*
X83695000Y83655000D01*
X83695000Y6605000D02*
X63045000Y6605000D01*
X83695000Y6605000D02*
X83695000Y6605000D01*
D10*
X73270000Y84150000D02*
G75*
G02*
X73470000Y84150000I100000J0D01*
G01*
X73470000Y84150000D02*
G75*
G02*
X73270000Y84150000I-100000J0D01*
G01*
%TO.C,NTC1*%
X57825000Y52380000D02*
X57825000Y56080000D01*
D11*
X59025000Y51760000D02*
X59025000Y51760000D01*
X59025000Y51660000D02*
X59025000Y51660000D01*
D10*
X60225000Y52380000D02*
X60225000Y56080000D01*
D11*
X59025000Y51760000D02*
G75*
G02*
X59025000Y51660000I0J-50000D01*
G01*
X59025000Y51660000D02*
G75*
G02*
X59025000Y51760000I0J50000D01*
G01*
D10*
%TO.C,J7*%
X89059000Y64000000D02*
X89059000Y44759000D01*
X89059000Y44759000D02*
X91940000Y44759000D01*
X91940000Y65460000D02*
X90500000Y65460000D01*
X91940000Y44759000D02*
X91940000Y65460000D01*
%TD*%
M02*
