%TF.GenerationSoftware,KiCad,Pcbnew,8.0.8*%
%TF.CreationDate,2025-03-29T17:39:48+01:00*%
%TF.ProjectId,eps,6570732e-6b69-4636-9164-5f7063625858,rev?*%
%TF.SameCoordinates,PX55d4a80PY8044ea0*%
%TF.FileFunction,Copper,L4,Bot*%
%TF.FilePolarity,Positive*%
%FSLAX46Y46*%
G04 Gerber Fmt 4.6, Leading zero omitted, Abs format (unit mm)*
G04 Created by KiCad (PCBNEW 8.0.8) date 2025-03-29 17:39:48*
%MOMM*%
%LPD*%
G01*
G04 APERTURE LIST*
G04 Aperture macros list*
%AMRoundRect*
0 Rectangle with rounded corners*
0 $1 Rounding radius*
0 $2 $3 $4 $5 $6 $7 $8 $9 X,Y pos of 4 corners*
0 Add a 4 corners polygon primitive as box body*
4,1,4,$2,$3,$4,$5,$6,$7,$8,$9,$2,$3,0*
0 Add four circle primitives for the rounded corners*
1,1,$1+$1,$2,$3*
1,1,$1+$1,$4,$5*
1,1,$1+$1,$6,$7*
1,1,$1+$1,$8,$9*
0 Add four rect primitives between the rounded corners*
20,1,$1+$1,$2,$3,$4,$5,0*
20,1,$1+$1,$4,$5,$6,$7,0*
20,1,$1+$1,$6,$7,$8,$9,0*
20,1,$1+$1,$8,$9,$2,$3,0*%
G04 Aperture macros list end*
%TA.AperFunction,ComponentPad*%
%ADD10C,1.800000*%
%TD*%
%TA.AperFunction,ComponentPad*%
%ADD11C,2.010000*%
%TD*%
%TA.AperFunction,ComponentPad*%
%ADD12RoundRect,0.250000X0.537500X-0.537500X0.537500X0.537500X-0.537500X0.537500X-0.537500X-0.537500X0*%
%TD*%
%TA.AperFunction,ComponentPad*%
%ADD13C,1.575000*%
%TD*%
%TA.AperFunction,ComponentPad*%
%ADD14C,3.000000*%
%TD*%
%TA.AperFunction,ComponentPad*%
%ADD15RoundRect,0.250000X-1.750000X-1.750000X1.750000X-1.750000X1.750000X1.750000X-1.750000X1.750000X0*%
%TD*%
%TA.AperFunction,ComponentPad*%
%ADD16C,0.800000*%
%TD*%
%TA.AperFunction,ComponentPad*%
%ADD17C,6.400000*%
%TD*%
%TA.AperFunction,ComponentPad*%
%ADD18RoundRect,0.250000X-0.458000X-0.458000X0.458000X-0.458000X0.458000X0.458000X-0.458000X0.458000X0*%
%TD*%
%TA.AperFunction,ComponentPad*%
%ADD19C,1.416000*%
%TD*%
%TA.AperFunction,ComponentPad*%
%ADD20C,1.600000*%
%TD*%
%TA.AperFunction,ComponentPad*%
%ADD21C,4.200000*%
%TD*%
%TA.AperFunction,ComponentPad*%
%ADD22C,1.980000*%
%TD*%
%TA.AperFunction,ComponentPad*%
%ADD23C,5.325000*%
%TD*%
%TA.AperFunction,ComponentPad*%
%ADD24C,3.585000*%
%TD*%
%TA.AperFunction,ComponentPad*%
%ADD25RoundRect,0.250000X0.458000X0.458000X-0.458000X0.458000X-0.458000X-0.458000X0.458000X-0.458000X0*%
%TD*%
%TA.AperFunction,ComponentPad*%
%ADD26RoundRect,0.250000X-0.575000X0.575000X-0.575000X-0.575000X0.575000X-0.575000X0.575000X0.575000X0*%
%TD*%
%TA.AperFunction,ComponentPad*%
%ADD27C,1.650000*%
%TD*%
%TA.AperFunction,ViaPad*%
%ADD28C,0.900000*%
%TD*%
%TA.AperFunction,ViaPad*%
%ADD29C,0.700000*%
%TD*%
%TA.AperFunction,Conductor*%
%ADD30C,0.900000*%
%TD*%
%TA.AperFunction,Conductor*%
%ADD31C,0.300000*%
%TD*%
%TA.AperFunction,Conductor*%
%ADD32C,1.250000*%
%TD*%
%TA.AperFunction,Conductor*%
%ADD33C,0.800000*%
%TD*%
%TA.AperFunction,Conductor*%
%ADD34C,0.700000*%
%TD*%
G04 APERTURE END LIST*
D10*
%TO.P,J1,1,MH1*%
%TO.N,GND*%
X6550000Y32320000D03*
%TO.P,J1,2,MH2*%
X6550000Y23680000D03*
D11*
%TO.P,J1,3,MH3*%
X2750000Y32320000D03*
%TO.P,J1,4,MH4*%
X2750000Y23680000D03*
%TD*%
D12*
%TO.P,J8,1,1*%
%TO.N,+3V3*%
X90500000Y26000000D03*
D13*
%TO.P,J8,2,2*%
%TO.N,unconnected-(J8-Pad2)*%
X90500000Y28540000D03*
%TO.P,J8,3,3*%
%TO.N,unconnected-(J8-Pad3)*%
X90500000Y31080000D03*
%TO.P,J8,4,4*%
%TO.N,unconnected-(J8-Pad4)*%
X90500000Y33620000D03*
%TO.P,J8,5,5*%
%TO.N,unconnected-(J8-Pad5)*%
X90500000Y36160000D03*
%TO.P,J8,6,6*%
%TO.N,unconnected-(J8-Pad6)*%
X90500000Y38700000D03*
%TO.P,J8,7,7*%
%TO.N,unconnected-(J8-Pad7)*%
X90500000Y41240000D03*
%TO.P,J8,8,8*%
%TO.N,GND*%
X90500000Y43780000D03*
%TD*%
D14*
%TO.P,TP5,1,1*%
%TO.N,+3V3*%
X25750000Y17750000D03*
%TD*%
D15*
%TO.P,TP1,1,1*%
%TO.N,GND*%
X18250000Y17750000D03*
%TD*%
D16*
%TO.P,H4,1,1*%
%TO.N,GND*%
X3100000Y5500000D03*
X3802944Y7197056D03*
X3802944Y3802944D03*
X5500000Y7900000D03*
D17*
X5500000Y5500000D03*
D16*
X5500000Y3100000D03*
X7197056Y7197056D03*
X7197056Y3802944D03*
X7900000Y5500000D03*
%TD*%
D14*
%TO.P,TP4,1,1*%
%TO.N,Net-(BAT1-+)*%
X58250000Y81250000D03*
%TD*%
D16*
%TO.P,H3,1,1*%
%TO.N,GND*%
X88100000Y5500000D03*
X88802944Y7197056D03*
X88802944Y3802944D03*
X90500000Y7900000D03*
D17*
X90500000Y5500000D03*
D16*
X90500000Y3100000D03*
X92197056Y7197056D03*
X92197056Y3802944D03*
X92900000Y5500000D03*
%TD*%
%TO.P,H1,1,1*%
%TO.N,GND*%
X3100000Y84500000D03*
X3802944Y86197056D03*
X3802944Y82802944D03*
X5500000Y86900000D03*
D17*
X5500000Y84500000D03*
D16*
X5500000Y82100000D03*
X7197056Y86197056D03*
X7197056Y82802944D03*
X7900000Y84500000D03*
%TD*%
D14*
%TO.P,TP2,1,1*%
%TO.N,Net-(D3-K)*%
X11000000Y17750000D03*
%TD*%
%TO.P,TP3,1,1*%
%TO.N,/VBUS*%
X29250000Y39250000D03*
%TD*%
D16*
%TO.P,H2,1,1*%
%TO.N,GND*%
X88100000Y84500000D03*
X88802944Y86197056D03*
X88802944Y82802944D03*
X90500000Y86900000D03*
D17*
X90500000Y84500000D03*
D16*
X90500000Y82100000D03*
X92197056Y86197056D03*
X92197056Y82802944D03*
X92900000Y84500000D03*
%TD*%
D18*
%TO.P,NTC2,1,1*%
%TO.N,/NTC_2_PS*%
X59000000Y41465000D03*
D19*
%TO.P,NTC2,2,2*%
%TO.N,+3V3*%
X59000000Y38925000D03*
%TD*%
D20*
%TO.P,S1,1,1*%
%TO.N,Net-(IC2-PMID)*%
X24363500Y58000000D03*
%TO.P,S1,2,2*%
%TO.N,Net-(IC3-EN)*%
X24363500Y51000000D03*
D21*
%TO.P,S1,3,MH1*%
%TO.N,unconnected-(S1-MH1-Pad3)*%
X14586500Y73901000D03*
%TO.P,S1,4,MH2*%
%TO.N,unconnected-(S1-MH2-Pad4)*%
X14586500Y42099000D03*
%TD*%
D22*
%TO.P,BAT1,1,+*%
%TO.N,Net-(BAT1-+)*%
X43500000Y81250000D03*
%TO.P,BAT1,2,-*%
%TO.N,Net-(BAT1--)*%
X43500000Y9030000D03*
D23*
%TO.P,BAT1,MH1,MH1*%
%TO.N,unconnected-(BAT1-PadMH1)*%
X35630000Y17850000D03*
D24*
%TO.P,BAT1,MH2,MH2*%
%TO.N,unconnected-(BAT1-PadMH2)*%
X35630000Y81250000D03*
D23*
%TO.P,BAT1,MH3,MH3*%
%TO.N,unconnected-(BAT1-PadMH3)*%
X51370000Y73050000D03*
%TD*%
D22*
%TO.P,BAT2,1,+*%
%TO.N,Net-(BAT1-+)*%
X73370000Y81250000D03*
%TO.P,BAT2,2,-*%
%TO.N,Net-(BAT1--)*%
X73370000Y9030000D03*
D23*
%TO.P,BAT2,MH1,MH1*%
%TO.N,unconnected-(BAT2-PadMH1)*%
X65500000Y17850000D03*
D24*
%TO.P,BAT2,MH2,MH2*%
%TO.N,unconnected-(BAT2-PadMH2)*%
X65500000Y81250000D03*
D23*
%TO.P,BAT2,MH3,MH3*%
%TO.N,unconnected-(BAT2-PadMH3)*%
X81240000Y73050000D03*
%TD*%
D25*
%TO.P,NTC1,1,1*%
%TO.N,GND*%
X59025000Y52960000D03*
D19*
%TO.P,NTC1,2,2*%
%TO.N,Net-(IC2-TS)*%
X59025000Y55500000D03*
%TD*%
D26*
%TO.P,J7,1,1*%
%TO.N,/ADC_VBUS_PS*%
X90500000Y64000000D03*
D27*
%TO.P,J7,2,2*%
%TO.N,/FLT{slash}_PS*%
X90500000Y61460000D03*
%TO.P,J7,3,3*%
%TO.N,/USB_SDA_PS*%
X90500000Y58920000D03*
%TO.P,J7,4,4*%
%TO.N,/USB_SCL_PS*%
X90500000Y56380000D03*
%TO.P,J7,5,5*%
%TO.N,/INT_N_PS*%
X90500000Y53840000D03*
%TO.P,J7,6,6*%
%TO.N,/BYPASS_CC1_PS*%
X90500000Y51300000D03*
%TO.P,J7,7,7*%
%TO.N,/BYPASS_CC2_PS*%
X90500000Y48760000D03*
%TO.P,J7,8,8*%
%TO.N,/NTC_2_PS*%
X90500000Y46220000D03*
%TD*%
D28*
%TO.N,Net-(BAT1--)*%
X66500000Y57000000D03*
X66500000Y58000000D03*
%TO.N,GND*%
X20000000Y85500000D03*
X39050000Y54000000D03*
X29500000Y87000000D03*
X16750000Y87000000D03*
X45750000Y61250000D03*
X94500000Y66750000D03*
X47412500Y56000000D03*
X55750000Y1500000D03*
X40890000Y30452500D03*
X1250000Y25250000D03*
X79000000Y1500000D03*
X14500000Y27000000D03*
X37000000Y54050000D03*
X28250000Y71000000D03*
X1500000Y45000000D03*
X44200000Y60750000D03*
X81250000Y44000000D03*
X27000000Y79500000D03*
X85000000Y42000000D03*
X36000000Y51000000D03*
X94500000Y74000000D03*
X40250000Y61000000D03*
X26000000Y82100000D03*
X42750000Y18250000D03*
X79000000Y88500000D03*
X95000000Y52250000D03*
X25000000Y82500000D03*
X19500000Y87000000D03*
X27000000Y87000000D03*
X76250000Y60000000D03*
X1500000Y1500000D03*
X5500000Y30750000D03*
X59250000Y66000000D03*
X32500000Y1500000D03*
X34250000Y46500000D03*
X48000000Y88500000D03*
X23252982Y29258947D03*
X71250000Y1500000D03*
X50750000Y50000000D03*
X28250000Y68500000D03*
X32500000Y88500000D03*
X95000000Y59500000D03*
X23187000Y82550000D03*
X29000000Y51750000D03*
X76000000Y32500000D03*
X22000000Y79500000D03*
X16750000Y84500000D03*
X13500000Y27000000D03*
X27000000Y82100000D03*
X59500000Y64575000D03*
X9250000Y32500000D03*
X54250000Y62500000D03*
X38000000Y52500000D03*
X39000000Y74500000D03*
X76000000Y55250000D03*
X40250000Y88500000D03*
X32000000Y26250000D03*
X24750000Y88500000D03*
X52500000Y42000000D03*
X59000000Y51000000D03*
X54500000Y23750000D03*
X34000000Y74500000D03*
X46750000Y69500000D03*
X94500000Y8750000D03*
X82750000Y53000000D03*
X64000000Y47500000D03*
X31500000Y79500000D03*
X36750000Y45250000D03*
X29250000Y26230000D03*
X53500000Y48750000D03*
X94500000Y16000000D03*
X86750000Y88500000D03*
X55750000Y88500000D03*
X46750000Y72000000D03*
X16750000Y79500000D03*
X31500000Y74500000D03*
X94500000Y45000000D03*
X62000000Y32250000D03*
X28250000Y61000000D03*
X27135026Y25853603D03*
X41500000Y74500000D03*
X20000000Y84500000D03*
X1500000Y59500000D03*
X31500000Y82000000D03*
X32000000Y27405000D03*
X40250000Y1500000D03*
X46750000Y74500000D03*
X57500000Y66000000D03*
X39250000Y45250000D03*
X24750000Y1500000D03*
X16750000Y82000000D03*
X43000000Y52100000D03*
X52250000Y21750000D03*
X43500000Y30000000D03*
X94500000Y23250000D03*
X22270000Y26300000D03*
X31500000Y87000000D03*
X59250000Y67500000D03*
X24500000Y79500000D03*
X1500000Y8750000D03*
X43750000Y32510000D03*
X71250000Y88500000D03*
X49500000Y55750000D03*
X57500000Y67500000D03*
X36000000Y52500000D03*
X41625000Y57875000D03*
X94500000Y30500000D03*
X39500000Y64500000D03*
X4750000Y21000000D03*
X30250000Y26230000D03*
X21500000Y27000000D03*
X87500000Y50000000D03*
X70500000Y27000000D03*
X48000000Y1500000D03*
X17000000Y1500000D03*
X57250000Y18250000D03*
X43000000Y24250000D03*
X28250000Y66000000D03*
X5500000Y25250000D03*
X36500000Y74500000D03*
X49500000Y54250000D03*
X61500000Y53000000D03*
X69750000Y32250000D03*
X9250000Y1500000D03*
X24500000Y87000000D03*
X52250000Y63750000D03*
X94500000Y81250000D03*
X9250000Y22250000D03*
X49500000Y50000000D03*
X17000000Y88500000D03*
X55000000Y53250000D03*
X43700000Y24950000D03*
X45750000Y60250000D03*
X46230000Y24750000D03*
X46990000Y23990000D03*
X71250000Y55000000D03*
X1500000Y37750000D03*
X55000000Y50750000D03*
X63500000Y88500000D03*
X50000000Y37000000D03*
X1250000Y30750000D03*
X50000000Y39500000D03*
X38750000Y61000000D03*
X45000000Y45250000D03*
X31500000Y84500000D03*
X29500000Y79500000D03*
X46750000Y67000000D03*
X29750000Y72750000D03*
X42500000Y45250000D03*
X43750000Y33750000D03*
X24000000Y23000000D03*
X21010000Y29500000D03*
X28250000Y63500000D03*
X9250000Y88500000D03*
X1500000Y81250000D03*
X38750000Y35500000D03*
X50000000Y45250000D03*
X55000000Y60000000D03*
X24250000Y29250000D03*
X4750000Y35250000D03*
X44890000Y27140000D03*
X1500000Y74000000D03*
X42347609Y57250000D03*
X94500000Y1500000D03*
X9250000Y33750000D03*
X64000000Y34250000D03*
X1500000Y52250000D03*
X81750000Y38250000D03*
X24000000Y24000000D03*
X61500000Y51000000D03*
X47250000Y64500000D03*
X22000000Y87000000D03*
X39500000Y69750000D03*
X49587500Y52000000D03*
X94500000Y88500000D03*
X86750000Y1500000D03*
X1500000Y88500000D03*
X75500000Y38250000D03*
X32000000Y25055000D03*
X60500000Y64575000D03*
X94500000Y37750000D03*
X59250000Y68980000D03*
X80250000Y59500000D03*
X60990000Y66750000D03*
X43000000Y51000000D03*
X49750000Y63750000D03*
X47500000Y45250000D03*
X41250000Y38250000D03*
X71250000Y50250000D03*
X28250000Y54500000D03*
X55000000Y57500000D03*
X38000000Y51000000D03*
X36000000Y33250000D03*
X51750000Y47000000D03*
X1500000Y16000000D03*
X32500000Y48250000D03*
X63500000Y1500000D03*
X52500000Y39500000D03*
X26376042Y26540068D03*
X1500000Y66750000D03*
X9250000Y23500000D03*
X30750000Y50000000D03*
%TO.N,Net-(IC2-PMID)*%
X35000000Y55950000D03*
X34000000Y55950000D03*
%TO.N,+3V3*%
X29750000Y84000000D03*
D29*
X39250000Y28902500D03*
D28*
X25750000Y23000000D03*
D29*
X38500000Y28902500D03*
D28*
X47750000Y26750000D03*
X28750000Y84000000D03*
X25750000Y22000000D03*
X47750000Y25750000D03*
%TO.N,/USB_CC1*%
X45250000Y22450000D03*
X56250000Y28000000D03*
X44250000Y22450000D03*
X57250000Y28000000D03*
%TO.N,Net-(D3-K)*%
X11000000Y29500000D03*
X10000000Y26480000D03*
X20500000Y33745000D03*
X11000000Y26500000D03*
X19250000Y33745000D03*
X16750000Y25500000D03*
X17750000Y25500000D03*
X10000000Y29500000D03*
%TO.N,Net-(IC1-COUT)*%
X56025000Y63075000D03*
X62010000Y64500000D03*
X57025000Y63075000D03*
X62010000Y65500000D03*
%TO.N,Net-(IC2-TS)*%
X52500000Y55500000D03*
X51412500Y55500000D03*
%TO.N,/FLT{slash}_PS*%
X26990000Y22000000D03*
X54250000Y44250000D03*
X55250000Y44250000D03*
X26990000Y21010000D03*
%TO.N,/USB_SDA_PS*%
X56250000Y23250000D03*
D29*
X40250000Y24402500D03*
X39500000Y24402500D03*
D28*
X57250000Y23250000D03*
%TO.N,/USB_SCL_PS*%
X57250000Y31500000D03*
D29*
X39500000Y25902500D03*
X40250000Y25902500D03*
D28*
X56250000Y31500000D03*
D29*
%TO.N,/INT_N_PS*%
X39500000Y27390000D03*
X40250000Y27390000D03*
D28*
X57250000Y30000000D03*
X56250000Y30000000D03*
%TO.N,/NTC_2_PS*%
X69500000Y46250000D03*
X68750000Y45500000D03*
%TO.N,/ADC_VBUS_PS*%
X46500000Y33500000D03*
X54250000Y46250000D03*
X46500000Y32500000D03*
X55250000Y46250000D03*
%TD*%
D30*
%TO.N,/NTC_2_PS*%
X68750000Y45500000D02*
X69500000Y46250000D01*
X69500000Y46250000D02*
X90470000Y46250000D01*
X90470000Y46250000D02*
X90500000Y46220000D01*
D31*
%TO.N,/INT_N_PS*%
X49000000Y30000000D02*
X57250000Y30000000D01*
X44750000Y25750000D02*
X49000000Y30000000D01*
X41500000Y27390000D02*
X43140000Y25750000D01*
X43140000Y25750000D02*
X44750000Y25750000D01*
X40250000Y27390000D02*
X41500000Y27390000D01*
D32*
%TO.N,Net-(BAT1--)*%
X73370000Y9030000D02*
X73370000Y20130000D01*
X66500000Y58000000D02*
X66500000Y57000000D01*
X73370000Y20130000D02*
X66500000Y27000000D01*
X43500000Y9030000D02*
X73370000Y9030000D01*
X66500000Y27000000D02*
X66500000Y57000000D01*
%TO.N,Net-(IC2-PMID)*%
X34000000Y55950000D02*
X35000000Y55950000D01*
X34000000Y55950000D02*
X31950000Y58000000D01*
X31950000Y58000000D02*
X24363500Y58000000D01*
D31*
%TO.N,/USB_CC1*%
X46000000Y21000000D02*
X49250000Y21000000D01*
D30*
X56250000Y28000000D02*
X57250000Y28000000D01*
D31*
X49250000Y21000000D02*
X56250000Y28000000D01*
D30*
X45250000Y22450000D02*
X44250000Y22450000D01*
D31*
X45250000Y21750000D02*
X46000000Y21000000D01*
X45250000Y22450000D02*
X45250000Y21750000D01*
D30*
%TO.N,Net-(D3-K)*%
X20500000Y33745000D02*
X19250000Y33745000D01*
X11000000Y26500000D02*
X11000000Y17750000D01*
X19250000Y33745000D02*
X14245000Y33745000D01*
X17750000Y25500000D02*
X11000000Y25500000D01*
D33*
X10980000Y26480000D02*
X11000000Y26500000D01*
D30*
X16750000Y25500000D02*
X17750000Y25500000D01*
X14245000Y33745000D02*
X11000000Y30500000D01*
X10000000Y29500000D02*
X11000000Y29500000D01*
D33*
X10000000Y26480000D02*
X10980000Y26480000D01*
D30*
X11000000Y25500000D02*
X11000000Y26500000D01*
X11000000Y30500000D02*
X11000000Y29500000D01*
X11000000Y30500000D02*
X11000000Y26500000D01*
%TO.N,Net-(IC1-COUT)*%
X56025000Y63075000D02*
X57025000Y63075000D01*
X62010000Y65500000D02*
X62010000Y64500000D01*
D31*
X61325000Y63075000D02*
X57025000Y63075000D01*
X62010000Y63760000D02*
X61325000Y63075000D01*
X62010000Y65500000D02*
X62010000Y63760000D01*
D30*
%TO.N,Net-(IC2-TS)*%
X52500000Y55500000D02*
X59025000Y55500000D01*
X51412500Y55500000D02*
X52500000Y55500000D01*
%TO.N,/FLT{slash}_PS*%
X26990000Y21010000D02*
X26990000Y21990000D01*
D31*
X36000000Y26500000D02*
X36000000Y28500000D01*
X26990000Y21990000D02*
X28500000Y23500000D01*
X36000000Y28500000D02*
X39000000Y31500000D01*
X28500000Y23500000D02*
X33000000Y23500000D01*
D30*
X54250000Y44250000D02*
X55250000Y44250000D01*
D31*
X55250000Y39250000D02*
X55250000Y44250000D01*
X47500000Y31500000D02*
X55250000Y39250000D01*
X33000000Y23500000D02*
X36000000Y26500000D01*
X39000000Y31500000D02*
X47500000Y31500000D01*
D30*
%TO.N,/USB_SDA_PS*%
X56250000Y23250000D02*
X57250000Y23250000D01*
D31*
X45250000Y20000000D02*
X53000000Y20000000D01*
D33*
X40250000Y24402500D02*
X39500000Y24402500D01*
D31*
X40847500Y24402500D02*
X45250000Y20000000D01*
X40250000Y24402500D02*
X40847500Y24402500D01*
X53000000Y20000000D02*
X56250000Y23250000D01*
D30*
%TO.N,/USB_SCL_PS*%
X56250000Y31500000D02*
X57250000Y31500000D01*
D31*
X49000000Y31500000D02*
X56250000Y31500000D01*
X39500000Y25902500D02*
X39097500Y25902500D01*
X38250000Y27250000D02*
X39202500Y28202500D01*
D34*
X40250000Y25902500D02*
X39500000Y25902500D01*
D31*
X41452500Y28202500D02*
X42250000Y29000000D01*
X39097500Y25902500D02*
X38250000Y26750000D01*
X39202500Y28202500D02*
X41452500Y28202500D01*
X42250000Y29000000D02*
X46500000Y29000000D01*
X46500000Y29000000D02*
X49000000Y31500000D01*
X38250000Y26750000D02*
X38250000Y27250000D01*
D30*
%TO.N,/INT_N_PS*%
X56250000Y30000000D02*
X57250000Y30000000D01*
D34*
X40250000Y27390000D02*
X39500000Y27390000D01*
D30*
%TO.N,/ADC_VBUS_PS*%
X54250000Y46250000D02*
X55250000Y46250000D01*
X46500000Y33500000D02*
X46500000Y32500000D01*
D31*
X46500000Y40500000D02*
X52250000Y46250000D01*
X52250000Y46250000D02*
X55250000Y46250000D01*
X46500000Y33500000D02*
X46500000Y40500000D01*
%TD*%
%TA.AperFunction,Conductor*%
%TO.N,GND*%
G36*
X55530545Y29229815D02*
G01*
X55551183Y29213185D01*
X55580345Y29184023D01*
X55618392Y29158601D01*
X55618395Y29158599D01*
X55628170Y29151350D01*
X55663549Y29122316D01*
X55663551Y29122314D01*
X55675009Y29116190D01*
X55687787Y29109360D01*
X55737632Y29060400D01*
X55753094Y28992262D01*
X55729264Y28926582D01*
X55687794Y28890645D01*
X55663553Y28877687D01*
X55663547Y28877683D01*
X55628167Y28848650D01*
X55618402Y28841408D01*
X55580349Y28815981D01*
X55580344Y28815977D01*
X55547979Y28783612D01*
X55538967Y28775445D01*
X55503590Y28746411D01*
X55503589Y28746410D01*
X55474555Y28711033D01*
X55466388Y28702021D01*
X55434023Y28669656D01*
X55434019Y28669651D01*
X55408592Y28631598D01*
X55401350Y28621833D01*
X55372317Y28586453D01*
X55372313Y28586448D01*
X55350742Y28546092D01*
X55344490Y28535662D01*
X55319058Y28497598D01*
X55319055Y28497591D01*
X55301547Y28455324D01*
X55296347Y28444328D01*
X55274768Y28403955D01*
X55274767Y28403953D01*
X55261484Y28360165D01*
X55257387Y28348714D01*
X55239869Y28306419D01*
X55239868Y28306416D01*
X55230939Y28261527D01*
X55227984Y28249730D01*
X55214700Y28205934D01*
X55214700Y28205933D01*
X55214700Y28205932D01*
X55214699Y28205930D01*
X55210214Y28160393D01*
X55208429Y28148361D01*
X55199500Y28103467D01*
X55199500Y28062231D01*
X55179815Y27995192D01*
X55163181Y27974550D01*
X48975451Y21786819D01*
X48914128Y21753334D01*
X48887770Y21750500D01*
X46362230Y21750500D01*
X46295191Y21770185D01*
X46274549Y21786819D01*
X46218446Y21842922D01*
X46184961Y21904245D01*
X46189945Y21973937D01*
X46191549Y21978016D01*
X46198458Y21994695D01*
X46203648Y22005668D01*
X46225232Y22046046D01*
X46238521Y22089859D01*
X46242607Y22101280D01*
X46260130Y22143580D01*
X46269061Y22188485D01*
X46272010Y22200259D01*
X46285300Y22244066D01*
X46289785Y22289618D01*
X46291571Y22301652D01*
X46300500Y22346532D01*
X46300500Y22392301D01*
X46301097Y22404455D01*
X46304750Y22441547D01*
X46305583Y22450000D01*
X46301097Y22495547D01*
X46300500Y22507701D01*
X46300500Y22553465D01*
X46299508Y22558453D01*
X46291567Y22598371D01*
X46289785Y22610385D01*
X46285300Y22655934D01*
X46272016Y22699726D01*
X46269060Y22711529D01*
X46260131Y22756413D01*
X46260130Y22756420D01*
X46242614Y22798705D01*
X46238518Y22810152D01*
X46225232Y22853954D01*
X46225231Y22853955D01*
X46225231Y22853957D01*
X46203654Y22894323D01*
X46198456Y22905311D01*
X46180941Y22947598D01*
X46155515Y22985651D01*
X46149262Y22996084D01*
X46127688Y23036445D01*
X46127684Y23036451D01*
X46098650Y23071830D01*
X46091401Y23081605D01*
X46065978Y23119654D01*
X46065974Y23119659D01*
X46033615Y23152017D01*
X46025442Y23161034D01*
X45996408Y23196412D01*
X45961033Y23225443D01*
X45952015Y23233617D01*
X45919658Y23265975D01*
X45919654Y23265978D01*
X45881597Y23291407D01*
X45871824Y23298655D01*
X45836452Y23327684D01*
X45796086Y23349261D01*
X45785653Y23355514D01*
X45747595Y23380943D01*
X45705316Y23398455D01*
X45694323Y23403654D01*
X45653954Y23425232D01*
X45653951Y23425233D01*
X45610146Y23438522D01*
X45598692Y23442621D01*
X45556422Y23460130D01*
X45556414Y23460132D01*
X45511531Y23469060D01*
X45499730Y23472016D01*
X45455935Y23485300D01*
X45410383Y23489787D01*
X45398353Y23491572D01*
X45353465Y23500500D01*
X45353463Y23500500D01*
X45307701Y23500500D01*
X45295547Y23501097D01*
X45250000Y23505583D01*
X45204453Y23501097D01*
X45192299Y23500500D01*
X44307701Y23500500D01*
X44295547Y23501097D01*
X44250000Y23505583D01*
X44204453Y23501097D01*
X44192299Y23500500D01*
X44146534Y23500500D01*
X44101639Y23491571D01*
X44089607Y23489786D01*
X44044070Y23485301D01*
X44044068Y23485301D01*
X44044066Y23485300D01*
X44000272Y23472016D01*
X43988473Y23469061D01*
X43943584Y23460132D01*
X43943581Y23460131D01*
X43901286Y23442613D01*
X43889835Y23438516D01*
X43846047Y23425233D01*
X43846045Y23425232D01*
X43805672Y23403653D01*
X43794676Y23398453D01*
X43752409Y23380945D01*
X43752402Y23380942D01*
X43714338Y23355510D01*
X43703908Y23349258D01*
X43663552Y23327687D01*
X43663547Y23327683D01*
X43628167Y23298650D01*
X43618402Y23291408D01*
X43580349Y23265981D01*
X43580344Y23265977D01*
X43547979Y23233612D01*
X43538967Y23225445D01*
X43503590Y23196411D01*
X43503589Y23196410D01*
X43474555Y23161033D01*
X43466388Y23152021D01*
X43434023Y23119655D01*
X43421994Y23101652D01*
X43420908Y23100027D01*
X43367294Y23055224D01*
X43297968Y23046519D01*
X43234942Y23076676D01*
X43230127Y23081241D01*
X41325913Y24985455D01*
X41261726Y25028341D01*
X41243855Y25040282D01*
X41202995Y25067584D01*
X41202994Y25067585D01*
X41202992Y25067586D01*
X41202990Y25067587D01*
X41066408Y25124161D01*
X41065651Y25124390D01*
X41065303Y25124618D01*
X41060786Y25126489D01*
X41061141Y25127347D01*
X41007216Y25162693D01*
X40978765Y25226508D01*
X40989332Y25295574D01*
X40998552Y25311933D01*
X41001940Y25317004D01*
X41010984Y25330541D01*
X41018231Y25340311D01*
X41022938Y25346046D01*
X41044136Y25371875D01*
X41063385Y25407891D01*
X41069630Y25418310D01*
X41092322Y25452269D01*
X41107949Y25490000D01*
X41113146Y25500989D01*
X41132396Y25536999D01*
X41144247Y25576068D01*
X41148345Y25587522D01*
X41163973Y25625249D01*
X41170964Y25660395D01*
X41171940Y25665301D01*
X41174897Y25677107D01*
X41186747Y25716169D01*
X41190747Y25756800D01*
X41192534Y25768840D01*
X41200500Y25808880D01*
X41200500Y25849714D01*
X41201097Y25861868D01*
X41205099Y25902500D01*
X41201097Y25943134D01*
X41200500Y25955288D01*
X41200500Y25996120D01*
X41192534Y26036159D01*
X41190747Y26048205D01*
X41186747Y26088828D01*
X41186747Y26088831D01*
X41174892Y26127910D01*
X41171941Y26139689D01*
X41163973Y26179751D01*
X41148346Y26217476D01*
X41144248Y26228932D01*
X41132396Y26268000D01*
X41132396Y26268001D01*
X41113150Y26304007D01*
X41107947Y26315009D01*
X41092322Y26352732D01*
X41069640Y26386676D01*
X41063382Y26397117D01*
X41044135Y26433127D01*
X41041090Y26436837D01*
X41013778Y26501148D01*
X41025571Y26570015D01*
X41072724Y26621574D01*
X41136945Y26639500D01*
X41137770Y26639500D01*
X41204809Y26619815D01*
X41225451Y26603181D01*
X41924676Y25903957D01*
X42557049Y25271584D01*
X42631256Y25197377D01*
X42661585Y25167048D01*
X42784498Y25084920D01*
X42784511Y25084913D01*
X42881636Y25044683D01*
X42921087Y25028342D01*
X42921091Y25028342D01*
X42921092Y25028341D01*
X43066079Y24999500D01*
X43066082Y24999500D01*
X44823920Y24999500D01*
X44921462Y25018904D01*
X44968913Y25028342D01*
X45105495Y25084916D01*
X45190205Y25141517D01*
X45228416Y25167048D01*
X46542981Y26481616D01*
X46604304Y26515100D01*
X46673995Y26510116D01*
X46729929Y26468245D01*
X46749322Y26429931D01*
X46760068Y26394505D01*
X46774768Y26346046D01*
X46794862Y26308453D01*
X46809103Y26240050D01*
X46794862Y26191547D01*
X46774768Y26153955D01*
X46714699Y25955933D01*
X46694417Y25750000D01*
X46714699Y25544068D01*
X46726620Y25504770D01*
X46774768Y25346046D01*
X46872315Y25163550D01*
X46904453Y25124390D01*
X47003589Y25003590D01*
X47100209Y24924298D01*
X47163550Y24872315D01*
X47346046Y24774768D01*
X47544066Y24714700D01*
X47544065Y24714700D01*
X47562529Y24712882D01*
X47750000Y24694417D01*
X47955934Y24714700D01*
X48153954Y24774768D01*
X48336450Y24872315D01*
X48496410Y25003590D01*
X48627685Y25163550D01*
X48725232Y25346046D01*
X48785300Y25544066D01*
X48805583Y25750000D01*
X48785300Y25955934D01*
X48725232Y26153954D01*
X48705137Y26191548D01*
X48690895Y26259947D01*
X48705136Y26308452D01*
X48725232Y26346046D01*
X48785300Y26544066D01*
X48805583Y26750000D01*
X48785300Y26955934D01*
X48725232Y27153954D01*
X48627685Y27336450D01*
X48530204Y27455232D01*
X48496410Y27496411D01*
X48336452Y27627683D01*
X48336453Y27627683D01*
X48336450Y27627685D01*
X48153954Y27725232D01*
X48070070Y27750678D01*
X48011632Y27788975D01*
X47983176Y27852787D01*
X47993736Y27921854D01*
X48018385Y27957019D01*
X48586135Y28524768D01*
X49274548Y29213181D01*
X49335871Y29246666D01*
X49362229Y29249500D01*
X55463506Y29249500D01*
X55530545Y29229815D01*
G37*
%TD.AperFunction*%
%TA.AperFunction,Conductor*%
G36*
X45955809Y28229815D02*
G01*
X46001564Y28177011D01*
X46011508Y28107853D01*
X45982483Y28044297D01*
X45976451Y28037819D01*
X44475451Y26536819D01*
X44414128Y26503334D01*
X44387770Y26500500D01*
X43502229Y26500500D01*
X43435190Y26520185D01*
X43414548Y26536819D01*
X42219048Y27732320D01*
X42185563Y27793643D01*
X42190547Y27863335D01*
X42219048Y27907682D01*
X42349186Y28037819D01*
X42524548Y28213181D01*
X42585871Y28246666D01*
X42612229Y28249500D01*
X45888770Y28249500D01*
X45955809Y28229815D01*
G37*
%TD.AperFunction*%
%TA.AperFunction,Conductor*%
G36*
X46955809Y30729815D02*
G01*
X47001564Y30677011D01*
X47011508Y30607853D01*
X46982483Y30544297D01*
X46976451Y30537819D01*
X46225451Y29786819D01*
X46164128Y29753334D01*
X46137770Y29750500D01*
X42176080Y29750500D01*
X42031092Y29721660D01*
X42031082Y29721657D01*
X41894511Y29665088D01*
X41894498Y29665081D01*
X41771584Y29582952D01*
X41771580Y29582949D01*
X41177951Y28989319D01*
X41116628Y28955834D01*
X41090270Y28953000D01*
X40312512Y28953000D01*
X40245473Y28972685D01*
X40199718Y29025489D01*
X40189109Y29064847D01*
X40188264Y29073427D01*
X40186747Y29088831D01*
X40132396Y29268001D01*
X40054599Y29413550D01*
X40044137Y29433124D01*
X40044135Y29433127D01*
X39925357Y29577858D01*
X39780626Y29696636D01*
X39780623Y29696638D01*
X39615502Y29784896D01*
X39436333Y29839247D01*
X39436331Y29839248D01*
X39250000Y29857599D01*
X39063668Y29839248D01*
X39063666Y29839247D01*
X38910996Y29792934D01*
X38841129Y29792310D01*
X38839004Y29792934D01*
X38686333Y29839247D01*
X38680355Y29840436D01*
X38680626Y29841800D01*
X38622358Y29865327D01*
X38581998Y29922361D01*
X38578880Y29992161D01*
X38611615Y30050249D01*
X39274548Y30713181D01*
X39335871Y30746666D01*
X39362229Y30749500D01*
X46888770Y30749500D01*
X46955809Y30729815D01*
G37*
%TD.AperFunction*%
%TA.AperFunction,Conductor*%
G36*
X53530545Y45479815D02*
G01*
X53551183Y45463185D01*
X53580345Y45434023D01*
X53618392Y45408601D01*
X53618395Y45408599D01*
X53628170Y45401350D01*
X53663549Y45372316D01*
X53663551Y45372314D01*
X53675009Y45366190D01*
X53687787Y45359360D01*
X53737632Y45310400D01*
X53753094Y45242262D01*
X53729264Y45176582D01*
X53687794Y45140645D01*
X53663553Y45127687D01*
X53663547Y45127683D01*
X53628167Y45098650D01*
X53618402Y45091408D01*
X53580349Y45065981D01*
X53580344Y45065977D01*
X53547979Y45033612D01*
X53538967Y45025445D01*
X53503590Y44996411D01*
X53503589Y44996410D01*
X53474555Y44961033D01*
X53466388Y44952021D01*
X53434023Y44919656D01*
X53434019Y44919651D01*
X53408592Y44881598D01*
X53401350Y44871833D01*
X53372317Y44836453D01*
X53372313Y44836448D01*
X53350742Y44796092D01*
X53344490Y44785662D01*
X53319058Y44747598D01*
X53319055Y44747591D01*
X53301547Y44705324D01*
X53296347Y44694328D01*
X53274768Y44653955D01*
X53274767Y44653953D01*
X53261484Y44610165D01*
X53257387Y44598714D01*
X53239869Y44556419D01*
X53239868Y44556416D01*
X53230939Y44511527D01*
X53227984Y44499730D01*
X53214700Y44455934D01*
X53214700Y44455933D01*
X53214700Y44455932D01*
X53214699Y44455930D01*
X53210214Y44410393D01*
X53208429Y44398361D01*
X53199500Y44353467D01*
X53199500Y44307701D01*
X53198903Y44295547D01*
X53194417Y44250001D01*
X53198903Y44204455D01*
X53199500Y44192301D01*
X53199500Y44146535D01*
X53208428Y44101652D01*
X53210213Y44089617D01*
X53214700Y44044066D01*
X53214700Y44044064D01*
X53227984Y44000270D01*
X53230940Y43988469D01*
X53239868Y43943586D01*
X53239870Y43943578D01*
X53257379Y43901308D01*
X53261478Y43889854D01*
X53274766Y43846051D01*
X53274768Y43846046D01*
X53296346Y43805677D01*
X53301545Y43794684D01*
X53319057Y43752405D01*
X53344486Y43714347D01*
X53350739Y43703914D01*
X53372316Y43663548D01*
X53401345Y43628176D01*
X53408593Y43618403D01*
X53434022Y43580346D01*
X53434025Y43580342D01*
X53466383Y43547985D01*
X53474557Y43538967D01*
X53503588Y43503592D01*
X53538966Y43474558D01*
X53547983Y43466385D01*
X53580341Y43434026D01*
X53580346Y43434022D01*
X53618395Y43408599D01*
X53628170Y43401350D01*
X53663550Y43372315D01*
X53663552Y43372314D01*
X53663555Y43372312D01*
X53703916Y43350738D01*
X53714349Y43344485D01*
X53752402Y43319059D01*
X53794689Y43301544D01*
X53805677Y43296346D01*
X53846043Y43274769D01*
X53846045Y43274769D01*
X53846046Y43274768D01*
X53889848Y43261482D01*
X53901295Y43257386D01*
X53943580Y43239870D01*
X53957517Y43237098D01*
X53988471Y43230940D01*
X54000274Y43227984D01*
X54016710Y43222999D01*
X54044066Y43214700D01*
X54089615Y43210215D01*
X54101629Y43208433D01*
X54146535Y43199500D01*
X54192299Y43199500D01*
X54204453Y43198903D01*
X54250000Y43194417D01*
X54295547Y43198903D01*
X54307701Y43199500D01*
X54375500Y43199500D01*
X54442539Y43179815D01*
X54488294Y43127011D01*
X54499500Y43075500D01*
X54499500Y39612230D01*
X54479815Y39545191D01*
X54463181Y39524549D01*
X47762181Y32823549D01*
X47700858Y32790064D01*
X47631166Y32795048D01*
X47575233Y32836920D01*
X47550816Y32902384D01*
X47550500Y32911230D01*
X47550500Y33442301D01*
X47551097Y33454455D01*
X47553955Y33483474D01*
X47555583Y33500000D01*
X47551097Y33545547D01*
X47550500Y33557701D01*
X47550500Y33603465D01*
X47547212Y33619994D01*
X47541567Y33648371D01*
X47539785Y33660385D01*
X47535300Y33705934D01*
X47527001Y33733290D01*
X47522016Y33749726D01*
X47519060Y33761529D01*
X47512082Y33796608D01*
X47510130Y33806420D01*
X47492611Y33848714D01*
X47488518Y33860152D01*
X47475232Y33903954D01*
X47475231Y33903955D01*
X47475231Y33903957D01*
X47453654Y33944323D01*
X47448456Y33955311D01*
X47430941Y33997598D01*
X47405508Y34035662D01*
X47399262Y34046084D01*
X47377688Y34086445D01*
X47377684Y34086451D01*
X47377682Y34086453D01*
X47348650Y34121830D01*
X47341401Y34131605D01*
X47315978Y34169654D01*
X47315974Y34169659D01*
X47286819Y34198814D01*
X47253334Y34260137D01*
X47250500Y34286495D01*
X47250500Y40137770D01*
X47270185Y40204809D01*
X47286819Y40225451D01*
X52524549Y45463181D01*
X52585872Y45496666D01*
X52612230Y45499500D01*
X53463506Y45499500D01*
X53530545Y45479815D01*
G37*
%TD.AperFunction*%
%TA.AperFunction,Conductor*%
G36*
X94504853Y89799119D02*
G01*
X94693563Y89784267D01*
X94712772Y89781224D01*
X94892085Y89738175D01*
X94910577Y89732167D01*
X95046833Y89675728D01*
X95080946Y89661597D01*
X95098283Y89652763D01*
X95255504Y89556418D01*
X95271246Y89544981D01*
X95411464Y89425223D01*
X95425222Y89411465D01*
X95544980Y89271247D01*
X95556417Y89255505D01*
X95652762Y89098284D01*
X95661596Y89080947D01*
X95732163Y88910585D01*
X95738176Y88892079D01*
X95781222Y88712778D01*
X95784266Y88693560D01*
X95799118Y88504854D01*
X95799500Y88495125D01*
X95799500Y1504876D01*
X95799118Y1495147D01*
X95784266Y1306441D01*
X95781222Y1287223D01*
X95738176Y1107922D01*
X95732163Y1089416D01*
X95661596Y919054D01*
X95652762Y901717D01*
X95556417Y744496D01*
X95544980Y728754D01*
X95425222Y588536D01*
X95411464Y574778D01*
X95271246Y455020D01*
X95255504Y443583D01*
X95098283Y347238D01*
X95080946Y338404D01*
X94910584Y267837D01*
X94892078Y261824D01*
X94712777Y218778D01*
X94693559Y215734D01*
X94504854Y200882D01*
X94495125Y200500D01*
X1504875Y200500D01*
X1495146Y200882D01*
X1306440Y215734D01*
X1287222Y218778D01*
X1107921Y261824D01*
X1089415Y267837D01*
X919053Y338404D01*
X901716Y347238D01*
X744495Y443583D01*
X728753Y455020D01*
X588535Y574778D01*
X574777Y588536D01*
X455019Y728754D01*
X443582Y744496D01*
X347237Y901717D01*
X338403Y919054D01*
X324272Y953167D01*
X267833Y1089423D01*
X261825Y1107915D01*
X218776Y1287228D01*
X215733Y1306441D01*
X200882Y1495147D01*
X200500Y1504876D01*
X200500Y9030000D01*
X41904582Y9030000D01*
X41924223Y8780425D01*
X41982666Y8536989D01*
X42078471Y8305695D01*
X42209276Y8092243D01*
X42209282Y8092234D01*
X42371866Y7901872D01*
X42371871Y7901867D01*
X42485873Y7804500D01*
X42562237Y7739280D01*
X42562240Y7739278D01*
X42562242Y7739277D01*
X42775694Y7608472D01*
X43006988Y7512667D01*
X43067847Y7498057D01*
X43250422Y7454224D01*
X43500000Y7434582D01*
X43749578Y7454224D01*
X43993011Y7512667D01*
X44224305Y7608472D01*
X44437763Y7739280D01*
X44479341Y7774791D01*
X44543100Y7803361D01*
X44559871Y7804500D01*
X72310129Y7804500D01*
X72377168Y7784815D01*
X72390653Y7774796D01*
X72432237Y7739280D01*
X72432239Y7739279D01*
X72432240Y7739278D01*
X72432242Y7739277D01*
X72645694Y7608472D01*
X72876988Y7512667D01*
X72937847Y7498057D01*
X73120422Y7454224D01*
X73370000Y7434582D01*
X73619578Y7454224D01*
X73863011Y7512667D01*
X74094305Y7608472D01*
X74307763Y7739280D01*
X74498131Y7901869D01*
X74660720Y8092237D01*
X74791528Y8305695D01*
X74887333Y8536989D01*
X74945776Y8780422D01*
X74965418Y9030000D01*
X74945776Y9279578D01*
X74887333Y9523011D01*
X74791528Y9754305D01*
X74791528Y9754306D01*
X74660725Y9967755D01*
X74660723Y9967758D01*
X74660720Y9967763D01*
X74625208Y10009343D01*
X74596639Y10073105D01*
X74595500Y10089873D01*
X74595500Y20226449D01*
X74577461Y20340342D01*
X74565324Y20416972D01*
X74505715Y20600429D01*
X74418141Y20772302D01*
X74375680Y20830745D01*
X74335753Y20885700D01*
X74304762Y20928357D01*
X67761819Y27471300D01*
X67728334Y27532623D01*
X67725500Y27558981D01*
X67725500Y41240007D01*
X89107243Y41240007D01*
X89107243Y41239994D01*
X89126237Y41010764D01*
X89182706Y40787773D01*
X89275106Y40577122D01*
X89400914Y40384557D01*
X89400917Y40384553D01*
X89400919Y40384551D01*
X89556711Y40215315D01*
X89605298Y40177499D01*
X89738226Y40074036D01*
X89738575Y40073808D01*
X89738685Y40073679D01*
X89742281Y40070880D01*
X89741705Y40070141D01*
X89783931Y40020660D01*
X89793353Y39951429D01*
X89763851Y39888094D01*
X89742149Y39869290D01*
X89742281Y39869120D01*
X89739068Y39866620D01*
X89738575Y39866192D01*
X89738226Y39865965D01*
X89556718Y39724691D01*
X89556708Y39724682D01*
X89400914Y39555444D01*
X89275106Y39362879D01*
X89182706Y39152228D01*
X89126237Y38929237D01*
X89107243Y38700007D01*
X89107243Y38699994D01*
X89126237Y38470764D01*
X89182706Y38247773D01*
X89275106Y38037122D01*
X89400914Y37844557D01*
X89400917Y37844553D01*
X89400919Y37844551D01*
X89556711Y37675315D01*
X89605298Y37637499D01*
X89738226Y37534036D01*
X89738575Y37533808D01*
X89738685Y37533679D01*
X89742281Y37530880D01*
X89741705Y37530141D01*
X89783931Y37480660D01*
X89793353Y37411429D01*
X89763851Y37348094D01*
X89742149Y37329290D01*
X89742281Y37329120D01*
X89739068Y37326620D01*
X89738575Y37326192D01*
X89738226Y37325965D01*
X89556718Y37184691D01*
X89556708Y37184682D01*
X89400914Y37015444D01*
X89275106Y36822879D01*
X89182706Y36612228D01*
X89126237Y36389237D01*
X89107243Y36160007D01*
X89107243Y36159994D01*
X89126237Y35930764D01*
X89182706Y35707773D01*
X89275106Y35497122D01*
X89400914Y35304557D01*
X89400917Y35304553D01*
X89400919Y35304551D01*
X89556711Y35135315D01*
X89605298Y35097499D01*
X89738226Y34994036D01*
X89738575Y34993808D01*
X89738685Y34993679D01*
X89742281Y34990880D01*
X89741705Y34990141D01*
X89783931Y34940660D01*
X89793353Y34871429D01*
X89763851Y34808094D01*
X89742149Y34789290D01*
X89742281Y34789120D01*
X89739068Y34786620D01*
X89738575Y34786192D01*
X89738226Y34785965D01*
X89556718Y34644691D01*
X89556708Y34644682D01*
X89400914Y34475444D01*
X89275106Y34282879D01*
X89182706Y34072228D01*
X89126237Y33849237D01*
X89107243Y33620007D01*
X89107243Y33619994D01*
X89126237Y33390764D01*
X89182706Y33167773D01*
X89275106Y32957122D01*
X89400914Y32764557D01*
X89400917Y32764553D01*
X89400919Y32764551D01*
X89556711Y32595315D01*
X89605038Y32557701D01*
X89738226Y32454036D01*
X89738575Y32453808D01*
X89738685Y32453679D01*
X89742281Y32450880D01*
X89741705Y32450141D01*
X89783931Y32400660D01*
X89793353Y32331429D01*
X89763851Y32268094D01*
X89742149Y32249290D01*
X89742281Y32249120D01*
X89739068Y32246620D01*
X89738575Y32246192D01*
X89738226Y32245965D01*
X89556718Y32104691D01*
X89556708Y32104682D01*
X89400914Y31935444D01*
X89275106Y31742879D01*
X89182706Y31532228D01*
X89126237Y31309237D01*
X89107243Y31080007D01*
X89107243Y31079994D01*
X89126237Y30850764D01*
X89182706Y30627773D01*
X89275106Y30417122D01*
X89400914Y30224557D01*
X89400917Y30224553D01*
X89400919Y30224551D01*
X89556711Y30055315D01*
X89605298Y30017499D01*
X89738226Y29914036D01*
X89738575Y29913808D01*
X89738685Y29913679D01*
X89742281Y29910880D01*
X89741705Y29910141D01*
X89783931Y29860660D01*
X89793353Y29791429D01*
X89763851Y29728094D01*
X89742149Y29709290D01*
X89742281Y29709120D01*
X89739068Y29706620D01*
X89738575Y29706192D01*
X89738226Y29705965D01*
X89556718Y29564691D01*
X89556708Y29564682D01*
X89400914Y29395444D01*
X89275106Y29202879D01*
X89182706Y28992228D01*
X89126237Y28769237D01*
X89107243Y28540007D01*
X89107243Y28539994D01*
X89126237Y28310764D01*
X89126237Y28310761D01*
X89126238Y28310760D01*
X89140217Y28255557D01*
X89182706Y28087773D01*
X89275106Y27877122D01*
X89400914Y27684557D01*
X89400917Y27684553D01*
X89400919Y27684551D01*
X89556711Y27515315D01*
X89566599Y27507619D01*
X89581211Y27496246D01*
X89622024Y27439536D01*
X89625699Y27369763D01*
X89591067Y27309080D01*
X89560145Y27287305D01*
X89501746Y27258342D01*
X89357559Y27142441D01*
X89241656Y26998251D01*
X89159464Y26832524D01*
X89159463Y26832522D01*
X89114817Y26653000D01*
X89112000Y26611452D01*
X89112000Y25388549D01*
X89114817Y25347001D01*
X89159463Y25167479D01*
X89159464Y25167477D01*
X89241656Y25001750D01*
X89241657Y25001749D01*
X89241658Y25001747D01*
X89271713Y24964357D01*
X89357559Y24857560D01*
X89431669Y24797989D01*
X89501747Y24741658D01*
X89667479Y24659463D01*
X89847001Y24614818D01*
X89847002Y24614818D01*
X89847005Y24614817D01*
X89888546Y24612000D01*
X89888548Y24612000D01*
X91111452Y24612000D01*
X91111454Y24612000D01*
X91152995Y24614817D01*
X91332521Y24659463D01*
X91498253Y24741658D01*
X91642440Y24857560D01*
X91758342Y25001747D01*
X91840537Y25167479D01*
X91885183Y25347005D01*
X91888000Y25388546D01*
X91888000Y26611454D01*
X91885183Y26652995D01*
X91876991Y26685934D01*
X91874256Y26696934D01*
X91840537Y26832521D01*
X91758342Y26998253D01*
X91675960Y27100740D01*
X91642440Y27142441D01*
X91498252Y27258343D01*
X91439855Y27287305D01*
X91388543Y27334726D01*
X91371014Y27402361D01*
X91392833Y27468737D01*
X91418781Y27496241D01*
X91443289Y27515315D01*
X91599081Y27684551D01*
X91724893Y27877121D01*
X91817294Y28087773D01*
X91873762Y28310760D01*
X91881484Y28403957D01*
X91892757Y28539994D01*
X91892757Y28540007D01*
X91878160Y28716167D01*
X91873762Y28769240D01*
X91817294Y28992227D01*
X91724893Y29202879D01*
X91713253Y29220695D01*
X91599085Y29395444D01*
X91599082Y29395447D01*
X91599081Y29395449D01*
X91443289Y29564685D01*
X91393462Y29603467D01*
X91261773Y29705965D01*
X91261434Y29706186D01*
X91261325Y29706313D01*
X91257719Y29709120D01*
X91258296Y29709862D01*
X91216073Y29759328D01*
X91206644Y29828559D01*
X91236140Y29891897D01*
X91257851Y29910710D01*
X91257719Y29910880D01*
X91260951Y29913397D01*
X91261434Y29913814D01*
X91261762Y29914030D01*
X91261766Y29914031D01*
X91261769Y29914034D01*
X91261773Y29914036D01*
X91362148Y29992161D01*
X91443289Y30055315D01*
X91599081Y30224551D01*
X91724893Y30417121D01*
X91817294Y30627773D01*
X91873762Y30850760D01*
X91886327Y31002402D01*
X91892757Y31079994D01*
X91892757Y31080007D01*
X91873762Y31309237D01*
X91873762Y31309240D01*
X91817294Y31532227D01*
X91724893Y31742879D01*
X91683379Y31806421D01*
X91599085Y31935444D01*
X91599082Y31935447D01*
X91599081Y31935449D01*
X91443289Y32104685D01*
X91418723Y32123805D01*
X91261773Y32245965D01*
X91261434Y32246186D01*
X91261325Y32246313D01*
X91257719Y32249120D01*
X91258296Y32249862D01*
X91216073Y32299328D01*
X91206644Y32368559D01*
X91236140Y32431897D01*
X91257851Y32450710D01*
X91257719Y32450880D01*
X91260951Y32453397D01*
X91261434Y32453814D01*
X91261762Y32454030D01*
X91261766Y32454031D01*
X91261769Y32454034D01*
X91261773Y32454036D01*
X91320829Y32500001D01*
X91443289Y32595315D01*
X91599081Y32764551D01*
X91724893Y32957121D01*
X91817294Y33167773D01*
X91873762Y33390760D01*
X91887595Y33557701D01*
X91892757Y33619994D01*
X91892757Y33620007D01*
X91873806Y33848704D01*
X91873762Y33849240D01*
X91817294Y34072227D01*
X91724893Y34282879D01*
X91693160Y34331450D01*
X91599085Y34475444D01*
X91599082Y34475447D01*
X91599081Y34475449D01*
X91443289Y34644685D01*
X91403130Y34675942D01*
X91261773Y34785965D01*
X91261434Y34786186D01*
X91261325Y34786313D01*
X91257719Y34789120D01*
X91258296Y34789862D01*
X91216073Y34839328D01*
X91206644Y34908559D01*
X91236140Y34971897D01*
X91257851Y34990710D01*
X91257719Y34990880D01*
X91260951Y34993397D01*
X91261434Y34993814D01*
X91261762Y34994030D01*
X91261766Y34994031D01*
X91261769Y34994034D01*
X91261773Y34994036D01*
X91310353Y35031848D01*
X91443289Y35135315D01*
X91599081Y35304551D01*
X91724893Y35497121D01*
X91817294Y35707773D01*
X91873762Y35930760D01*
X91892757Y36160000D01*
X91892757Y36160007D01*
X91873762Y36389237D01*
X91873762Y36389240D01*
X91817294Y36612227D01*
X91724893Y36822879D01*
X91599085Y37015444D01*
X91599082Y37015447D01*
X91599081Y37015449D01*
X91443289Y37184685D01*
X91418723Y37203805D01*
X91261773Y37325965D01*
X91261434Y37326186D01*
X91261325Y37326313D01*
X91257719Y37329120D01*
X91258296Y37329862D01*
X91216073Y37379328D01*
X91206644Y37448559D01*
X91236140Y37511897D01*
X91257851Y37530710D01*
X91257719Y37530880D01*
X91260951Y37533397D01*
X91261434Y37533814D01*
X91261762Y37534030D01*
X91261766Y37534031D01*
X91261769Y37534034D01*
X91261773Y37534036D01*
X91361301Y37611502D01*
X91443289Y37675315D01*
X91599081Y37844551D01*
X91724893Y38037121D01*
X91817294Y38247773D01*
X91873762Y38470760D01*
X91881360Y38562456D01*
X91892757Y38699994D01*
X91892757Y38700007D01*
X91873762Y38929237D01*
X91873762Y38929240D01*
X91817294Y39152227D01*
X91724893Y39362879D01*
X91653484Y39472179D01*
X91599085Y39555444D01*
X91599082Y39555447D01*
X91599081Y39555449D01*
X91443289Y39724685D01*
X91418723Y39743805D01*
X91261773Y39865965D01*
X91261434Y39866186D01*
X91261325Y39866313D01*
X91257719Y39869120D01*
X91258296Y39869862D01*
X91216073Y39919328D01*
X91206644Y39988559D01*
X91236140Y40051897D01*
X91257851Y40070710D01*
X91257719Y40070880D01*
X91260951Y40073397D01*
X91261434Y40073814D01*
X91261762Y40074030D01*
X91261766Y40074031D01*
X91261769Y40074034D01*
X91261773Y40074036D01*
X91310353Y40111848D01*
X91443289Y40215315D01*
X91599081Y40384551D01*
X91724893Y40577121D01*
X91817294Y40787773D01*
X91873762Y41010760D01*
X91892757Y41240000D01*
X91892757Y41240007D01*
X91873762Y41469237D01*
X91873762Y41469240D01*
X91817294Y41692227D01*
X91724893Y41902879D01*
X91599085Y42095444D01*
X91599082Y42095447D01*
X91599081Y42095449D01*
X91443289Y42264685D01*
X91414977Y42286721D01*
X91261774Y42405964D01*
X91261768Y42405968D01*
X91059464Y42515450D01*
X91059456Y42515453D01*
X90841905Y42590139D01*
X90671735Y42618535D01*
X90615013Y42628000D01*
X90384987Y42628000D01*
X90339609Y42620428D01*
X90158094Y42590139D01*
X89940543Y42515453D01*
X89940535Y42515450D01*
X89738231Y42405968D01*
X89738225Y42405964D01*
X89556718Y42264691D01*
X89556708Y42264682D01*
X89400914Y42095444D01*
X89275106Y41902879D01*
X89182706Y41692228D01*
X89126237Y41469237D01*
X89107243Y41240007D01*
X67725500Y41240007D01*
X67725500Y44739507D01*
X67745185Y44806546D01*
X67797989Y44852301D01*
X67867147Y44862245D01*
X67930703Y44833220D01*
X67937181Y44827188D01*
X67966379Y44797990D01*
X67974552Y44788973D01*
X68003587Y44753593D01*
X68003588Y44753592D01*
X68003590Y44753590D01*
X68037426Y44725822D01*
X68038970Y44724555D01*
X68047988Y44716381D01*
X68080341Y44684027D01*
X68080349Y44684021D01*
X68118395Y44658599D01*
X68128169Y44651351D01*
X68163550Y44622315D01*
X68183584Y44611606D01*
X68203912Y44600740D01*
X68214346Y44594486D01*
X68252393Y44569065D01*
X68252402Y44569059D01*
X68294689Y44551544D01*
X68305677Y44546346D01*
X68346043Y44524769D01*
X68346045Y44524769D01*
X68346046Y44524768D01*
X68389848Y44511482D01*
X68401295Y44507386D01*
X68443580Y44489870D01*
X68457517Y44487098D01*
X68488471Y44480940D01*
X68500274Y44477984D01*
X68516710Y44472999D01*
X68544066Y44464700D01*
X68589615Y44460215D01*
X68601629Y44458433D01*
X68646535Y44449500D01*
X68692299Y44449500D01*
X68704453Y44448903D01*
X68750000Y44444417D01*
X68795547Y44448903D01*
X68807701Y44449500D01*
X68853468Y44449500D01*
X68880201Y44454819D01*
X68898356Y44458431D01*
X68910382Y44460215D01*
X68955934Y44464700D01*
X68999741Y44477990D01*
X69011515Y44480939D01*
X69056420Y44489870D01*
X69098720Y44507393D01*
X69110141Y44511479D01*
X69153954Y44524768D01*
X69194332Y44546352D01*
X69205304Y44551542D01*
X69247598Y44569059D01*
X69285669Y44594498D01*
X69296068Y44600731D01*
X69336450Y44622315D01*
X69371832Y44651353D01*
X69381585Y44658588D01*
X69419655Y44684024D01*
X69452027Y44716398D01*
X69461029Y44724555D01*
X69496410Y44753590D01*
X69496412Y44753593D01*
X69525448Y44788975D01*
X69533611Y44797982D01*
X69898812Y45163181D01*
X69960135Y45196666D01*
X69986493Y45199500D01*
X89448225Y45199500D01*
X89515264Y45179815D01*
X89527098Y45170676D01*
X89527181Y45170782D01*
X89531223Y45167636D01*
X89531227Y45167632D01*
X89619849Y45098655D01*
X89713908Y45025445D01*
X89717654Y45022530D01*
X89888130Y44930273D01*
X89907757Y44919651D01*
X89925421Y44910092D01*
X90148861Y44833384D01*
X90381880Y44794500D01*
X90381881Y44794500D01*
X90618119Y44794500D01*
X90618120Y44794500D01*
X90851139Y44833384D01*
X91074579Y44910092D01*
X91282346Y45022530D01*
X91468773Y45167632D01*
X91628775Y45341439D01*
X91757986Y45539212D01*
X91852883Y45755555D01*
X91910876Y45984566D01*
X91924297Y46146532D01*
X91930385Y46219995D01*
X91930385Y46220006D01*
X91910876Y46455431D01*
X91910876Y46455434D01*
X91852883Y46684445D01*
X91757986Y46900788D01*
X91718626Y46961033D01*
X91628774Y47098563D01*
X91468776Y47272365D01*
X91468766Y47272374D01*
X91314882Y47392147D01*
X91274069Y47448857D01*
X91270394Y47518630D01*
X91305026Y47579313D01*
X91314882Y47587853D01*
X91413168Y47664353D01*
X91468773Y47707632D01*
X91628775Y47881439D01*
X91757986Y48079212D01*
X91852883Y48295555D01*
X91910876Y48524566D01*
X91930385Y48760000D01*
X91910876Y48995434D01*
X91852883Y49224445D01*
X91757986Y49440788D01*
X91654295Y49599500D01*
X91628774Y49638563D01*
X91468776Y49812365D01*
X91468766Y49812374D01*
X91314882Y49932147D01*
X91274069Y49988857D01*
X91270394Y50058630D01*
X91305026Y50119313D01*
X91314882Y50127853D01*
X91413168Y50204353D01*
X91468773Y50247632D01*
X91628775Y50421439D01*
X91757986Y50619212D01*
X91852883Y50835555D01*
X91910876Y51064566D01*
X91930385Y51300000D01*
X91910876Y51535434D01*
X91852883Y51764445D01*
X91757986Y51980788D01*
X91723274Y52033919D01*
X91628774Y52178563D01*
X91468776Y52352365D01*
X91468766Y52352374D01*
X91314882Y52472147D01*
X91274069Y52528857D01*
X91270394Y52598630D01*
X91305026Y52659313D01*
X91314882Y52667853D01*
X91413168Y52744353D01*
X91468773Y52787632D01*
X91628775Y52961439D01*
X91757986Y53159212D01*
X91852883Y53375555D01*
X91910876Y53604566D01*
X91930385Y53840000D01*
X91910876Y54075434D01*
X91852883Y54304445D01*
X91757986Y54520788D01*
X91691657Y54622312D01*
X91628774Y54718563D01*
X91468776Y54892365D01*
X91468766Y54892374D01*
X91314882Y55012147D01*
X91274069Y55068857D01*
X91270394Y55138630D01*
X91305026Y55199313D01*
X91314882Y55207853D01*
X91425647Y55294066D01*
X91468773Y55327632D01*
X91628775Y55501439D01*
X91757986Y55699212D01*
X91852883Y55915555D01*
X91910876Y56144566D01*
X91927427Y56344305D01*
X91930385Y56379995D01*
X91930385Y56380006D01*
X91910876Y56615431D01*
X91910876Y56615434D01*
X91852883Y56844445D01*
X91757986Y57060788D01*
X91734688Y57096449D01*
X91628774Y57258563D01*
X91468776Y57432365D01*
X91468766Y57432374D01*
X91314882Y57552147D01*
X91274069Y57608857D01*
X91270394Y57678630D01*
X91305026Y57739313D01*
X91314882Y57747853D01*
X91413168Y57824353D01*
X91468773Y57867632D01*
X91628775Y58041439D01*
X91757986Y58239212D01*
X91852883Y58455555D01*
X91910876Y58684566D01*
X91925674Y58863148D01*
X91930385Y58919995D01*
X91930385Y58920006D01*
X91910876Y59155431D01*
X91910876Y59155434D01*
X91852883Y59384445D01*
X91757986Y59600788D01*
X91628775Y59798561D01*
X91628774Y59798563D01*
X91468776Y59972365D01*
X91468766Y59972374D01*
X91314882Y60092147D01*
X91274069Y60148857D01*
X91270394Y60218630D01*
X91305026Y60279313D01*
X91314882Y60287853D01*
X91413168Y60364353D01*
X91468773Y60407632D01*
X91628775Y60581439D01*
X91757986Y60779212D01*
X91852883Y60995555D01*
X91910876Y61224566D01*
X91930385Y61460000D01*
X91910876Y61695434D01*
X91852883Y61924445D01*
X91757986Y62140788D01*
X91697350Y62233599D01*
X91628777Y62338559D01*
X91480515Y62499613D01*
X91449593Y62562267D01*
X91457453Y62631693D01*
X91501600Y62685849D01*
X91516652Y62694685D01*
X91535753Y62704158D01*
X91679940Y62820060D01*
X91795842Y62964247D01*
X91878037Y63129979D01*
X91922683Y63309505D01*
X91925500Y63351046D01*
X91925500Y64648954D01*
X91922683Y64690495D01*
X91878037Y64870021D01*
X91795842Y65035753D01*
X91745945Y65097827D01*
X91679940Y65179941D01*
X91577785Y65262055D01*
X91535753Y65295842D01*
X91535751Y65295843D01*
X91535750Y65295844D01*
X91370023Y65378036D01*
X91370021Y65378037D01*
X91190497Y65422683D01*
X91190501Y65422683D01*
X91159339Y65424796D01*
X91148954Y65425500D01*
X89851046Y65425500D01*
X89839177Y65424696D01*
X89809500Y65422683D01*
X89629978Y65378037D01*
X89629976Y65378036D01*
X89464249Y65295844D01*
X89320059Y65179941D01*
X89204156Y65035751D01*
X89121964Y64870024D01*
X89121963Y64870022D01*
X89077317Y64690500D01*
X89074500Y64648952D01*
X89074500Y63351049D01*
X89077317Y63309501D01*
X89121963Y63129979D01*
X89121964Y63129977D01*
X89204156Y62964250D01*
X89320059Y62820060D01*
X89464247Y62704158D01*
X89483348Y62694685D01*
X89534662Y62647264D01*
X89552192Y62579629D01*
X89530372Y62513254D01*
X89519485Y62499613D01*
X89371222Y62338559D01*
X89242013Y62140788D01*
X89147117Y61924446D01*
X89089123Y61695431D01*
X89069615Y61460006D01*
X89069615Y61459995D01*
X89089123Y61224570D01*
X89147117Y60995555D01*
X89242013Y60779213D01*
X89371225Y60581438D01*
X89531223Y60407636D01*
X89531233Y60407627D01*
X89685118Y60287853D01*
X89725931Y60231143D01*
X89729606Y60161370D01*
X89694974Y60100687D01*
X89685118Y60092147D01*
X89531233Y59972374D01*
X89531223Y59972365D01*
X89371225Y59798563D01*
X89242013Y59600788D01*
X89147117Y59384446D01*
X89089123Y59155431D01*
X89069615Y58920006D01*
X89069615Y58919995D01*
X89089123Y58684570D01*
X89147117Y58455555D01*
X89242013Y58239213D01*
X89371225Y58041438D01*
X89531223Y57867636D01*
X89531233Y57867627D01*
X89685118Y57747853D01*
X89725931Y57691143D01*
X89729606Y57621370D01*
X89694974Y57560687D01*
X89685118Y57552147D01*
X89531233Y57432374D01*
X89531223Y57432365D01*
X89371225Y57258563D01*
X89242013Y57060788D01*
X89147117Y56844446D01*
X89089123Y56615431D01*
X89069615Y56380006D01*
X89069615Y56379995D01*
X89089123Y56144570D01*
X89147117Y55915555D01*
X89242013Y55699213D01*
X89371225Y55501438D01*
X89531223Y55327636D01*
X89531233Y55327627D01*
X89685118Y55207853D01*
X89725931Y55151143D01*
X89729606Y55081370D01*
X89694974Y55020687D01*
X89685118Y55012147D01*
X89531233Y54892374D01*
X89531223Y54892365D01*
X89371225Y54718563D01*
X89242013Y54520788D01*
X89147117Y54304446D01*
X89089123Y54075431D01*
X89069615Y53840006D01*
X89069615Y53839995D01*
X89089123Y53604570D01*
X89147117Y53375555D01*
X89242013Y53159213D01*
X89371225Y52961438D01*
X89531223Y52787636D01*
X89531233Y52787627D01*
X89685118Y52667853D01*
X89725931Y52611143D01*
X89729606Y52541370D01*
X89694974Y52480687D01*
X89685118Y52472147D01*
X89531233Y52352374D01*
X89531223Y52352365D01*
X89371225Y52178563D01*
X89242013Y51980788D01*
X89147117Y51764446D01*
X89089123Y51535431D01*
X89069615Y51300006D01*
X89069615Y51299995D01*
X89089123Y51064570D01*
X89147117Y50835555D01*
X89242013Y50619213D01*
X89371225Y50421438D01*
X89531223Y50247636D01*
X89531233Y50247627D01*
X89685118Y50127853D01*
X89725931Y50071143D01*
X89729606Y50001370D01*
X89694974Y49940687D01*
X89685118Y49932147D01*
X89531233Y49812374D01*
X89531223Y49812365D01*
X89371225Y49638563D01*
X89242013Y49440788D01*
X89147117Y49224446D01*
X89089123Y48995431D01*
X89069615Y48760006D01*
X89069615Y48759995D01*
X89089123Y48524570D01*
X89147117Y48295555D01*
X89242013Y48079213D01*
X89371225Y47881438D01*
X89531223Y47707636D01*
X89531233Y47707627D01*
X89685118Y47587853D01*
X89725931Y47531143D01*
X89729606Y47461370D01*
X89694974Y47400687D01*
X89685118Y47392147D01*
X89600963Y47326646D01*
X89535972Y47301004D01*
X89524803Y47300500D01*
X69557701Y47300500D01*
X69545547Y47301097D01*
X69500000Y47305583D01*
X69454453Y47301097D01*
X69442299Y47300500D01*
X69396534Y47300500D01*
X69351639Y47291571D01*
X69339607Y47289786D01*
X69294070Y47285301D01*
X69294068Y47285301D01*
X69294066Y47285300D01*
X69250272Y47272016D01*
X69238473Y47269061D01*
X69193584Y47260132D01*
X69193581Y47260131D01*
X69151286Y47242613D01*
X69139835Y47238516D01*
X69096047Y47225233D01*
X69096045Y47225232D01*
X69055672Y47203653D01*
X69044676Y47198453D01*
X69002409Y47180945D01*
X69002402Y47180942D01*
X68964338Y47155510D01*
X68953908Y47149258D01*
X68913552Y47127687D01*
X68913547Y47127683D01*
X68878167Y47098650D01*
X68868402Y47091408D01*
X68830349Y47065981D01*
X68830344Y47065977D01*
X68797979Y47033612D01*
X68788967Y47025445D01*
X68753590Y46996411D01*
X68753589Y46996410D01*
X68724555Y46961033D01*
X68716388Y46952021D01*
X68684023Y46919655D01*
X68684020Y46919652D01*
X68047990Y46283623D01*
X68038977Y46275454D01*
X68003592Y46246413D01*
X67974545Y46211021D01*
X67966378Y46202010D01*
X67937183Y46172814D01*
X67875860Y46139328D01*
X67806168Y46144311D01*
X67750234Y46186182D01*
X67725816Y46251646D01*
X67725500Y46260494D01*
X67725500Y58096449D01*
X67695324Y58286970D01*
X67695324Y58286972D01*
X67635715Y58470429D01*
X67548141Y58642302D01*
X67434759Y58798359D01*
X67298359Y58934759D01*
X67142302Y59048141D01*
X66970429Y59135715D01*
X66786972Y59195324D01*
X66786970Y59195325D01*
X66786969Y59195325D01*
X66640614Y59218505D01*
X66596449Y59225500D01*
X66403551Y59225500D01*
X66367697Y59219822D01*
X66213030Y59195325D01*
X66029568Y59135714D01*
X65857697Y59048141D01*
X65768661Y58983453D01*
X65701641Y58934759D01*
X65701639Y58934757D01*
X65701638Y58934757D01*
X65565243Y58798362D01*
X65565243Y58798361D01*
X65565241Y58798359D01*
X65516547Y58731339D01*
X65451859Y58642303D01*
X65364286Y58470432D01*
X65304675Y58286970D01*
X65274500Y58096449D01*
X65274500Y26903552D01*
X65304675Y26713031D01*
X65364284Y26529573D01*
X65364287Y26529566D01*
X65379098Y26500500D01*
X65382931Y26492977D01*
X65451858Y26357698D01*
X65565241Y26201640D01*
X65565243Y26201638D01*
X72108181Y19658700D01*
X72141666Y19597377D01*
X72144500Y19571019D01*
X72144500Y10379500D01*
X72124815Y10312461D01*
X72072011Y10266706D01*
X72020500Y10255500D01*
X44559871Y10255500D01*
X44492832Y10275185D01*
X44479346Y10285205D01*
X44437763Y10320720D01*
X44437761Y10320722D01*
X44437759Y10320723D01*
X44437757Y10320724D01*
X44224305Y10451529D01*
X43993011Y10547334D01*
X43749574Y10605777D01*
X43749575Y10605777D01*
X43500000Y10625418D01*
X43250424Y10605777D01*
X43006988Y10547334D01*
X42775694Y10451529D01*
X42562242Y10320724D01*
X42562233Y10320718D01*
X42371871Y10158134D01*
X42371866Y10158129D01*
X42209282Y9967767D01*
X42209276Y9967758D01*
X42078471Y9754306D01*
X41982666Y9523012D01*
X41924223Y9279576D01*
X41904582Y9030000D01*
X200500Y9030000D01*
X200500Y17750000D01*
X8894592Y17750000D01*
X8914201Y17463320D01*
X8972666Y17181966D01*
X8972667Y17181963D01*
X9068894Y16911207D01*
X9068893Y16911207D01*
X9201098Y16656065D01*
X9366812Y16421300D01*
X9451923Y16330169D01*
X9562947Y16211292D01*
X9619517Y16165269D01*
X9785853Y16029945D01*
X10031382Y15880635D01*
X10218237Y15799474D01*
X10294942Y15766156D01*
X10571642Y15688629D01*
X10821920Y15654229D01*
X10856321Y15649500D01*
X10856322Y15649500D01*
X11143679Y15649500D01*
X11174370Y15653719D01*
X11428358Y15688629D01*
X11705058Y15766156D01*
X11818015Y15815221D01*
X11968617Y15880635D01*
X11968620Y15880637D01*
X11968625Y15880639D01*
X12214147Y16029945D01*
X12437053Y16211292D01*
X12633189Y16421302D01*
X12798901Y16656064D01*
X12931104Y16911203D01*
X13027334Y17181968D01*
X13085798Y17463314D01*
X13105408Y17750000D01*
X23644592Y17750000D01*
X23664201Y17463320D01*
X23722666Y17181966D01*
X23722667Y17181963D01*
X23818894Y16911207D01*
X23818893Y16911207D01*
X23951098Y16656065D01*
X24116812Y16421300D01*
X24201923Y16330169D01*
X24312947Y16211292D01*
X24369517Y16165269D01*
X24535853Y16029945D01*
X24781382Y15880635D01*
X24968237Y15799474D01*
X25044942Y15766156D01*
X25321642Y15688629D01*
X25571920Y15654229D01*
X25606321Y15649500D01*
X25606322Y15649500D01*
X25893679Y15649500D01*
X25924370Y15653719D01*
X26178358Y15688629D01*
X26455058Y15766156D01*
X26568015Y15815221D01*
X26718617Y15880635D01*
X26718620Y15880637D01*
X26718625Y15880639D01*
X26964147Y16029945D01*
X27187053Y16211292D01*
X27383189Y16421302D01*
X27548901Y16656064D01*
X27681104Y16911203D01*
X27777334Y17181968D01*
X27835798Y17463314D01*
X27855408Y17750000D01*
X27848568Y17850003D01*
X32362208Y17850003D01*
X32362208Y17849998D01*
X32381363Y17496693D01*
X32438608Y17147516D01*
X32438609Y17147513D01*
X32533264Y16806595D01*
X32533265Y16806593D01*
X32533267Y16806589D01*
X32664232Y16477890D01*
X32805574Y16211290D01*
X32829972Y16165272D01*
X32829973Y16165269D01*
X33028531Y15872419D01*
X33028539Y15872409D01*
X33257597Y15602742D01*
X33257598Y15602741D01*
X33514476Y15359413D01*
X33796157Y15145285D01*
X34099339Y14962866D01*
X34099343Y14962865D01*
X34099347Y14962862D01*
X34420454Y14814301D01*
X34420458Y14814301D01*
X34420465Y14814297D01*
X34755773Y14701319D01*
X35101330Y14625256D01*
X35453085Y14587000D01*
X35453091Y14587000D01*
X35806909Y14587000D01*
X35806915Y14587000D01*
X36158670Y14625256D01*
X36504227Y14701319D01*
X36839535Y14814297D01*
X36839542Y14814301D01*
X36839545Y14814301D01*
X37160652Y14962862D01*
X37160661Y14962866D01*
X37463843Y15145285D01*
X37745524Y15359413D01*
X38002402Y15602741D01*
X38231467Y15872417D01*
X38430031Y16165277D01*
X38595768Y16477890D01*
X38726733Y16806589D01*
X38821393Y17147521D01*
X38878636Y17496690D01*
X38897792Y17850000D01*
X38897792Y17850003D01*
X62232208Y17850003D01*
X62232208Y17849998D01*
X62251363Y17496693D01*
X62308608Y17147516D01*
X62308609Y17147513D01*
X62403264Y16806595D01*
X62403265Y16806593D01*
X62403267Y16806589D01*
X62534232Y16477890D01*
X62675574Y16211290D01*
X62699972Y16165272D01*
X62699973Y16165269D01*
X62898531Y15872419D01*
X62898539Y15872409D01*
X63127597Y15602742D01*
X63127598Y15602741D01*
X63384476Y15359413D01*
X63666157Y15145285D01*
X63969339Y14962866D01*
X63969343Y14962865D01*
X63969347Y14962862D01*
X64290454Y14814301D01*
X64290458Y14814301D01*
X64290465Y14814297D01*
X64625773Y14701319D01*
X64971330Y14625256D01*
X65323085Y14587000D01*
X65323091Y14587000D01*
X65676909Y14587000D01*
X65676915Y14587000D01*
X66028670Y14625256D01*
X66374227Y14701319D01*
X66709535Y14814297D01*
X66709542Y14814301D01*
X66709545Y14814301D01*
X67030652Y14962862D01*
X67030661Y14962866D01*
X67333843Y15145285D01*
X67615524Y15359413D01*
X67872402Y15602741D01*
X68101467Y15872417D01*
X68300031Y16165277D01*
X68465768Y16477890D01*
X68596733Y16806589D01*
X68691393Y17147521D01*
X68748636Y17496690D01*
X68767792Y17850000D01*
X68748636Y18203310D01*
X68691393Y18552479D01*
X68610470Y18843936D01*
X68596735Y18893406D01*
X68596734Y18893408D01*
X68465769Y19222107D01*
X68465768Y19222110D01*
X68300031Y19534723D01*
X68300027Y19534729D01*
X68300026Y19534732D01*
X68101468Y19827582D01*
X68101460Y19827592D01*
X67872402Y20097259D01*
X67797087Y20168601D01*
X67615524Y20340587D01*
X67615517Y20340593D01*
X67615514Y20340595D01*
X67548699Y20391386D01*
X67333843Y20554715D01*
X67132424Y20675905D01*
X67030665Y20737132D01*
X67030652Y20737139D01*
X66709545Y20885700D01*
X66709540Y20885701D01*
X66709537Y20885702D01*
X66709535Y20885703D01*
X66582933Y20928360D01*
X66374229Y20998681D01*
X66028668Y21074745D01*
X65676916Y21113000D01*
X65676915Y21113000D01*
X65323085Y21113000D01*
X65323083Y21113000D01*
X64971331Y21074745D01*
X64625770Y20998681D01*
X64290459Y20885701D01*
X64290454Y20885700D01*
X63969347Y20737139D01*
X63969334Y20737132D01*
X63742139Y20600432D01*
X63666157Y20554715D01*
X63610499Y20512405D01*
X63384485Y20340595D01*
X63384476Y20340587D01*
X63127597Y20097259D01*
X62898539Y19827592D01*
X62898531Y19827582D01*
X62699973Y19534732D01*
X62699972Y19534729D01*
X62534236Y19222119D01*
X62534230Y19222107D01*
X62403265Y18893408D01*
X62403264Y18893406D01*
X62308609Y18552488D01*
X62308608Y18552485D01*
X62251363Y18203308D01*
X62232208Y17850003D01*
X38897792Y17850003D01*
X38878636Y18203310D01*
X38821393Y18552479D01*
X38740470Y18843936D01*
X38726735Y18893406D01*
X38726734Y18893408D01*
X38595769Y19222107D01*
X38595768Y19222110D01*
X38430031Y19534723D01*
X38430027Y19534729D01*
X38430026Y19534732D01*
X38231468Y19827582D01*
X38231460Y19827592D01*
X38002402Y20097259D01*
X37927087Y20168601D01*
X37745524Y20340587D01*
X37745517Y20340593D01*
X37745514Y20340595D01*
X37678699Y20391386D01*
X37463843Y20554715D01*
X37262424Y20675905D01*
X37160665Y20737132D01*
X37160652Y20737139D01*
X36839545Y20885700D01*
X36839540Y20885701D01*
X36839537Y20885702D01*
X36839535Y20885703D01*
X36712933Y20928360D01*
X36504229Y20998681D01*
X36158668Y21074745D01*
X35806916Y21113000D01*
X35806915Y21113000D01*
X35453085Y21113000D01*
X35453083Y21113000D01*
X35101331Y21074745D01*
X34755770Y20998681D01*
X34420459Y20885701D01*
X34420454Y20885700D01*
X34099347Y20737139D01*
X34099334Y20737132D01*
X33872139Y20600432D01*
X33796157Y20554715D01*
X33740499Y20512405D01*
X33514485Y20340595D01*
X33514476Y20340587D01*
X33257597Y20097259D01*
X33028539Y19827592D01*
X33028531Y19827582D01*
X32829973Y19534732D01*
X32829972Y19534729D01*
X32664236Y19222119D01*
X32664230Y19222107D01*
X32533265Y18893408D01*
X32533264Y18893406D01*
X32438609Y18552488D01*
X32438608Y18552485D01*
X32381363Y18203308D01*
X32362208Y17850003D01*
X27848568Y17850003D01*
X27835798Y18036686D01*
X27777334Y18318032D01*
X27681105Y18588794D01*
X27681106Y18588794D01*
X27548901Y18843936D01*
X27383187Y19078701D01*
X27249251Y19222110D01*
X27187053Y19288708D01*
X26964147Y19470055D01*
X26964146Y19470056D01*
X26718617Y19619366D01*
X26455063Y19733842D01*
X26455061Y19733843D01*
X26455058Y19733844D01*
X26325578Y19770123D01*
X26178364Y19811370D01*
X26178359Y19811371D01*
X26178358Y19811371D01*
X26036018Y19830936D01*
X25893679Y19850500D01*
X25893678Y19850500D01*
X25606322Y19850500D01*
X25606321Y19850500D01*
X25321642Y19811371D01*
X25321635Y19811370D01*
X25113861Y19753155D01*
X25044942Y19733844D01*
X25044939Y19733844D01*
X25044936Y19733842D01*
X25044935Y19733842D01*
X24781382Y19619366D01*
X24535853Y19470056D01*
X24312950Y19288711D01*
X24116812Y19078701D01*
X23951098Y18843936D01*
X23818894Y18588794D01*
X23722667Y18318038D01*
X23722666Y18318035D01*
X23664201Y18036681D01*
X23644592Y17750000D01*
X13105408Y17750000D01*
X13085798Y18036686D01*
X13027334Y18318032D01*
X12931105Y18588794D01*
X12931106Y18588794D01*
X12798901Y18843936D01*
X12633187Y19078701D01*
X12499251Y19222110D01*
X12437053Y19288708D01*
X12214147Y19470055D01*
X12214146Y19470056D01*
X12214142Y19470059D01*
X12214139Y19470061D01*
X12110071Y19533347D01*
X12063019Y19584998D01*
X12050500Y19639294D01*
X12050500Y23000000D01*
X24694417Y23000000D01*
X24714699Y22794068D01*
X24774768Y22596046D01*
X24794862Y22558453D01*
X24809103Y22490050D01*
X24794862Y22441547D01*
X24774768Y22403955D01*
X24714699Y22205933D01*
X24694417Y22000000D01*
X24714699Y21794068D01*
X24714700Y21794066D01*
X24774768Y21596046D01*
X24872315Y21413550D01*
X24872317Y21413548D01*
X25003589Y21253590D01*
X25100209Y21174298D01*
X25163550Y21122315D01*
X25346046Y21024768D01*
X25544066Y20964700D01*
X25544065Y20964700D01*
X25546553Y20964455D01*
X25750000Y20944417D01*
X25815640Y20950883D01*
X25884283Y20937865D01*
X25934994Y20889801D01*
X25951196Y20839636D01*
X25954700Y20804066D01*
X25954700Y20804064D01*
X25967984Y20760270D01*
X25970940Y20748469D01*
X25979868Y20703586D01*
X25979870Y20703578D01*
X25997379Y20661308D01*
X26001478Y20649854D01*
X26014766Y20606051D01*
X26014768Y20606046D01*
X26036346Y20565677D01*
X26041545Y20554684D01*
X26059057Y20512405D01*
X26084486Y20474347D01*
X26090739Y20463914D01*
X26112316Y20423548D01*
X26141345Y20388176D01*
X26148593Y20378403D01*
X26174022Y20340346D01*
X26174025Y20340342D01*
X26206383Y20307985D01*
X26214557Y20298967D01*
X26243588Y20263592D01*
X26278966Y20234558D01*
X26287983Y20226385D01*
X26320341Y20194026D01*
X26320346Y20194022D01*
X26358395Y20168599D01*
X26368170Y20161350D01*
X26403550Y20132315D01*
X26403552Y20132314D01*
X26403555Y20132312D01*
X26443916Y20110738D01*
X26454349Y20104485D01*
X26492402Y20079059D01*
X26534689Y20061544D01*
X26545677Y20056346D01*
X26586043Y20034769D01*
X26586045Y20034769D01*
X26586046Y20034768D01*
X26629848Y20021482D01*
X26641295Y20017386D01*
X26683580Y19999870D01*
X26697517Y19997098D01*
X26728471Y19990940D01*
X26740274Y19987984D01*
X26756710Y19982999D01*
X26784066Y19974700D01*
X26829615Y19970215D01*
X26841629Y19968433D01*
X26886535Y19959500D01*
X26932299Y19959500D01*
X26944453Y19958903D01*
X26990000Y19954417D01*
X27035547Y19958903D01*
X27047701Y19959500D01*
X27093468Y19959500D01*
X27120201Y19964819D01*
X27138356Y19968431D01*
X27150382Y19970215D01*
X27195934Y19974700D01*
X27239741Y19987990D01*
X27251515Y19990939D01*
X27296420Y19999870D01*
X27338720Y20017393D01*
X27350141Y20021479D01*
X27393954Y20034768D01*
X27434332Y20056352D01*
X27445304Y20061542D01*
X27487598Y20079059D01*
X27525668Y20104498D01*
X27536085Y20110740D01*
X27576450Y20132315D01*
X27611834Y20161356D01*
X27621585Y20168587D01*
X27659655Y20194023D01*
X27692033Y20226403D01*
X27701020Y20234548D01*
X27736410Y20263590D01*
X27765452Y20298980D01*
X27773597Y20307967D01*
X27805977Y20340345D01*
X27831413Y20378415D01*
X27838644Y20388166D01*
X27867685Y20423550D01*
X27889262Y20463919D01*
X27895502Y20474332D01*
X27920941Y20512402D01*
X27938458Y20554696D01*
X27943648Y20565668D01*
X27965232Y20606046D01*
X27978521Y20649859D01*
X27982607Y20661280D01*
X28000130Y20703580D01*
X28009061Y20748485D01*
X28012014Y20760270D01*
X28025300Y20804066D01*
X28029785Y20849618D01*
X28031571Y20861652D01*
X28040500Y20906532D01*
X28040500Y20952301D01*
X28041097Y20964455D01*
X28041121Y20964700D01*
X28045583Y21010000D01*
X28041097Y21055547D01*
X28040500Y21067701D01*
X28040500Y21927771D01*
X28060185Y21994810D01*
X28076819Y22015452D01*
X28774548Y22713181D01*
X28835871Y22746666D01*
X28862229Y22749500D01*
X33073920Y22749500D01*
X33171462Y22768904D01*
X33218913Y22778342D01*
X33355495Y22834916D01*
X33404729Y22867814D01*
X33478416Y22917048D01*
X36582952Y26021585D01*
X36626293Y26086450D01*
X36665084Y26144505D01*
X36700576Y26230190D01*
X36721659Y26281088D01*
X36750500Y26426083D01*
X36750500Y26573918D01*
X36750500Y28137771D01*
X36770185Y28204810D01*
X36786819Y28225452D01*
X37068752Y28507385D01*
X37352251Y28790885D01*
X37413572Y28824368D01*
X37483263Y28819384D01*
X37539197Y28777513D01*
X37560794Y28721893D01*
X37562064Y28722145D01*
X37563253Y28716167D01*
X37617604Y28536998D01*
X37705862Y28371877D01*
X37705864Y28371874D01*
X37824642Y28227143D01*
X37906250Y28160169D01*
X37945584Y28102423D01*
X37947455Y28032579D01*
X37915266Y27976635D01*
X37667047Y27728416D01*
X37667043Y27728411D01*
X37643772Y27693581D01*
X37643772Y27693580D01*
X37584913Y27605492D01*
X37528343Y27468918D01*
X37528340Y27468908D01*
X37499500Y27323921D01*
X37499500Y27323918D01*
X37499500Y26676082D01*
X37499500Y26676080D01*
X37499499Y26676080D01*
X37528340Y26531093D01*
X37528343Y26531083D01*
X37584914Y26394508D01*
X37584915Y26394506D01*
X37584916Y26394505D01*
X37612828Y26352731D01*
X37617294Y26346048D01*
X37617295Y26346045D01*
X37667046Y26271586D01*
X37667052Y26271579D01*
X38619084Y25319548D01*
X38619086Y25319546D01*
X38649432Y25299271D01*
X38664606Y25289132D01*
X38690869Y25271584D01*
X38723071Y25250067D01*
X38767876Y25196455D01*
X38776583Y25127130D01*
X38746428Y25064102D01*
X38741863Y25059286D01*
X38722864Y25040287D01*
X38722860Y25040282D01*
X38613371Y24876421D01*
X38613364Y24876408D01*
X38537950Y24694340D01*
X38537947Y24694330D01*
X38499500Y24501044D01*
X38499500Y24501041D01*
X38499500Y24303959D01*
X38499500Y24303957D01*
X38499499Y24303957D01*
X38537947Y24110671D01*
X38537950Y24110661D01*
X38613364Y23928593D01*
X38613371Y23928580D01*
X38722860Y23764719D01*
X38722863Y23764715D01*
X38862214Y23625364D01*
X38862218Y23625361D01*
X39026079Y23515872D01*
X39026092Y23515865D01*
X39203694Y23442301D01*
X39208165Y23440449D01*
X39208169Y23440449D01*
X39208170Y23440448D01*
X39401456Y23402000D01*
X39401459Y23402000D01*
X40348543Y23402000D01*
X40478582Y23427868D01*
X40541835Y23440449D01*
X40611198Y23469181D01*
X40680665Y23476650D01*
X40743145Y23445376D01*
X40746331Y23442301D01*
X44771580Y19417052D01*
X44771584Y19417049D01*
X44894498Y19334920D01*
X44894511Y19334913D01*
X45006054Y19288711D01*
X45031087Y19278342D01*
X45031091Y19278342D01*
X45031092Y19278341D01*
X45176079Y19249500D01*
X45176082Y19249500D01*
X53073920Y19249500D01*
X53171462Y19268904D01*
X53218913Y19278342D01*
X53355495Y19334916D01*
X53404729Y19367814D01*
X53478416Y19417048D01*
X56224548Y22163182D01*
X56285871Y22196666D01*
X56312229Y22199500D01*
X57192299Y22199500D01*
X57204453Y22198903D01*
X57250000Y22194417D01*
X57295547Y22198903D01*
X57307701Y22199500D01*
X57353468Y22199500D01*
X57380201Y22204819D01*
X57398356Y22208431D01*
X57410382Y22210215D01*
X57455934Y22214700D01*
X57499741Y22227990D01*
X57511515Y22230939D01*
X57556420Y22239870D01*
X57598720Y22257393D01*
X57610141Y22261479D01*
X57653954Y22274768D01*
X57694332Y22296352D01*
X57705304Y22301542D01*
X57747598Y22319059D01*
X57785668Y22344498D01*
X57796085Y22350740D01*
X57836450Y22372315D01*
X57871834Y22401356D01*
X57881585Y22408587D01*
X57919655Y22434023D01*
X57952033Y22466403D01*
X57961020Y22474548D01*
X57996410Y22503590D01*
X58025452Y22538980D01*
X58033597Y22547967D01*
X58065977Y22580345D01*
X58091413Y22618415D01*
X58098644Y22628166D01*
X58127685Y22663550D01*
X58149262Y22703919D01*
X58155502Y22714332D01*
X58180941Y22752402D01*
X58198458Y22794696D01*
X58203648Y22805668D01*
X58225232Y22846046D01*
X58238521Y22889859D01*
X58242607Y22901280D01*
X58260130Y22943580D01*
X58269061Y22988485D01*
X58272010Y23000259D01*
X58285300Y23044066D01*
X58289785Y23089618D01*
X58291571Y23101652D01*
X58300500Y23146532D01*
X58300500Y23192301D01*
X58301097Y23204455D01*
X58305583Y23250000D01*
X58301097Y23295547D01*
X58300500Y23307701D01*
X58300500Y23353465D01*
X58295034Y23380941D01*
X58291567Y23398371D01*
X58289785Y23410385D01*
X58285300Y23455934D01*
X58272015Y23499728D01*
X58269060Y23511529D01*
X58260131Y23556413D01*
X58260130Y23556420D01*
X58242611Y23598714D01*
X58238518Y23610152D01*
X58225232Y23653954D01*
X58225231Y23653955D01*
X58225231Y23653957D01*
X58203654Y23694323D01*
X58198456Y23705311D01*
X58180941Y23747598D01*
X58155508Y23785662D01*
X58149262Y23796084D01*
X58127688Y23836445D01*
X58127684Y23836451D01*
X58127682Y23836453D01*
X58098650Y23871830D01*
X58091401Y23881605D01*
X58065978Y23919654D01*
X58065974Y23919659D01*
X58033615Y23952017D01*
X58025442Y23961034D01*
X57996408Y23996412D01*
X57961033Y24025443D01*
X57952015Y24033617D01*
X57919658Y24065975D01*
X57919654Y24065978D01*
X57881597Y24091407D01*
X57871824Y24098655D01*
X57836452Y24127684D01*
X57796086Y24149261D01*
X57785653Y24155514D01*
X57747595Y24180943D01*
X57705316Y24198455D01*
X57694323Y24203654D01*
X57653954Y24225232D01*
X57653951Y24225233D01*
X57610146Y24238522D01*
X57598692Y24242621D01*
X57556422Y24260130D01*
X57556414Y24260132D01*
X57511531Y24269060D01*
X57499730Y24272016D01*
X57455935Y24285300D01*
X57410383Y24289787D01*
X57398353Y24291572D01*
X57353465Y24300500D01*
X57353463Y24300500D01*
X57307701Y24300500D01*
X57295547Y24301097D01*
X57250000Y24305583D01*
X57204453Y24301097D01*
X57192299Y24300500D01*
X56307701Y24300500D01*
X56295547Y24301097D01*
X56250000Y24305583D01*
X56204453Y24301097D01*
X56192299Y24300500D01*
X56146534Y24300500D01*
X56101639Y24291571D01*
X56089607Y24289786D01*
X56044070Y24285301D01*
X56044068Y24285301D01*
X56044066Y24285300D01*
X56000272Y24272016D01*
X55988473Y24269061D01*
X55943584Y24260132D01*
X55943581Y24260131D01*
X55901286Y24242613D01*
X55889835Y24238516D01*
X55846047Y24225233D01*
X55846045Y24225232D01*
X55805672Y24203653D01*
X55794676Y24198453D01*
X55752409Y24180945D01*
X55752402Y24180942D01*
X55714338Y24155510D01*
X55703908Y24149258D01*
X55663552Y24127687D01*
X55663547Y24127683D01*
X55628167Y24098650D01*
X55618402Y24091408D01*
X55580349Y24065981D01*
X55580344Y24065977D01*
X55547979Y24033612D01*
X55538967Y24025445D01*
X55503590Y23996411D01*
X55503589Y23996410D01*
X55474555Y23961033D01*
X55466388Y23952021D01*
X55434023Y23919656D01*
X55434019Y23919651D01*
X55408592Y23881598D01*
X55401350Y23871833D01*
X55372317Y23836453D01*
X55372313Y23836448D01*
X55350742Y23796092D01*
X55344490Y23785662D01*
X55319058Y23747598D01*
X55319055Y23747591D01*
X55301547Y23705324D01*
X55296347Y23694328D01*
X55274768Y23653955D01*
X55274767Y23653953D01*
X55261484Y23610165D01*
X55257387Y23598714D01*
X55239869Y23556419D01*
X55239868Y23556416D01*
X55230939Y23511527D01*
X55227984Y23499730D01*
X55214700Y23455934D01*
X55214700Y23455933D01*
X55214700Y23455932D01*
X55214699Y23455930D01*
X55210214Y23410393D01*
X55208429Y23398361D01*
X55199500Y23353467D01*
X55199500Y23312231D01*
X55179815Y23245192D01*
X55163181Y23224550D01*
X52725451Y20786819D01*
X52664128Y20753334D01*
X52637770Y20750500D01*
X50361230Y20750500D01*
X50294191Y20770185D01*
X50248436Y20822989D01*
X50238492Y20892147D01*
X50267517Y20955703D01*
X50273549Y20962181D01*
X56224548Y26913181D01*
X56285871Y26946666D01*
X56312229Y26949500D01*
X57192299Y26949500D01*
X57204453Y26948903D01*
X57250000Y26944417D01*
X57295547Y26948903D01*
X57307701Y26949500D01*
X57353468Y26949500D01*
X57380201Y26954819D01*
X57398356Y26958431D01*
X57410382Y26960215D01*
X57455934Y26964700D01*
X57499741Y26977990D01*
X57511515Y26980939D01*
X57556420Y26989870D01*
X57598720Y27007393D01*
X57610141Y27011479D01*
X57653954Y27024768D01*
X57694332Y27046352D01*
X57705304Y27051542D01*
X57747598Y27069059D01*
X57785668Y27094498D01*
X57796085Y27100740D01*
X57836450Y27122315D01*
X57871834Y27151356D01*
X57881585Y27158587D01*
X57919655Y27184023D01*
X57952033Y27216403D01*
X57961020Y27224548D01*
X57996410Y27253590D01*
X58025452Y27288980D01*
X58033597Y27297967D01*
X58065977Y27330345D01*
X58091413Y27368415D01*
X58098644Y27378166D01*
X58127685Y27413550D01*
X58149262Y27453919D01*
X58155502Y27464332D01*
X58180941Y27502402D01*
X58198458Y27544696D01*
X58203648Y27555668D01*
X58225232Y27596046D01*
X58238521Y27639859D01*
X58242607Y27651280D01*
X58260130Y27693580D01*
X58269061Y27738485D01*
X58272010Y27750259D01*
X58285300Y27794066D01*
X58289785Y27839618D01*
X58291571Y27851652D01*
X58293896Y27863335D01*
X58296638Y27877122D01*
X58300500Y27896532D01*
X58300500Y27942301D01*
X58301097Y27954455D01*
X58305583Y28000000D01*
X58301097Y28045547D01*
X58300500Y28057701D01*
X58300500Y28103465D01*
X58299525Y28108364D01*
X58291567Y28148371D01*
X58289785Y28160385D01*
X58285300Y28205934D01*
X58272944Y28246666D01*
X58272016Y28249726D01*
X58269060Y28261529D01*
X58260131Y28306413D01*
X58260130Y28306420D01*
X58242611Y28348714D01*
X58238518Y28360152D01*
X58225232Y28403954D01*
X58225231Y28403955D01*
X58225231Y28403957D01*
X58203654Y28444323D01*
X58198456Y28455311D01*
X58180941Y28497598D01*
X58155508Y28535662D01*
X58149262Y28546084D01*
X58127688Y28586445D01*
X58127684Y28586451D01*
X58127682Y28586453D01*
X58098650Y28621830D01*
X58091401Y28631605D01*
X58065978Y28669654D01*
X58065974Y28669659D01*
X58033615Y28702017D01*
X58025442Y28711034D01*
X57996410Y28746410D01*
X57968591Y28769240D01*
X57961033Y28775443D01*
X57952015Y28783617D01*
X57919658Y28815975D01*
X57919654Y28815978D01*
X57881597Y28841407D01*
X57871824Y28848655D01*
X57836452Y28877684D01*
X57812205Y28890645D01*
X57762363Y28939610D01*
X57746905Y29007748D01*
X57770740Y29073427D01*
X57812210Y29109359D01*
X57836450Y29122315D01*
X57871834Y29151356D01*
X57881585Y29158587D01*
X57919655Y29184023D01*
X57952033Y29216403D01*
X57961020Y29224548D01*
X57996410Y29253590D01*
X58025452Y29288980D01*
X58033597Y29297967D01*
X58065977Y29330345D01*
X58091413Y29368415D01*
X58098644Y29378166D01*
X58127685Y29413550D01*
X58149262Y29453919D01*
X58155502Y29464332D01*
X58180941Y29502402D01*
X58198458Y29544696D01*
X58203648Y29555668D01*
X58225232Y29596046D01*
X58238521Y29639859D01*
X58242607Y29651280D01*
X58260130Y29693580D01*
X58269061Y29738485D01*
X58272010Y29750259D01*
X58285300Y29794066D01*
X58289785Y29839618D01*
X58291571Y29851652D01*
X58300500Y29896532D01*
X58300500Y29942301D01*
X58301097Y29954455D01*
X58301183Y29955324D01*
X58305583Y30000000D01*
X58301097Y30045547D01*
X58300500Y30057701D01*
X58300500Y30103465D01*
X58295911Y30126533D01*
X58291567Y30148371D01*
X58289785Y30160385D01*
X58285300Y30205934D01*
X58273022Y30246410D01*
X58272016Y30249726D01*
X58269060Y30261529D01*
X58260131Y30306413D01*
X58260130Y30306420D01*
X58242614Y30348705D01*
X58238518Y30360152D01*
X58225232Y30403954D01*
X58225231Y30403955D01*
X58225231Y30403957D01*
X58203654Y30444323D01*
X58198456Y30455311D01*
X58180941Y30497598D01*
X58155515Y30535651D01*
X58149262Y30546084D01*
X58127688Y30586445D01*
X58127684Y30586451D01*
X58098650Y30621830D01*
X58091401Y30631605D01*
X58065978Y30669654D01*
X58064597Y30671337D01*
X58064149Y30672392D01*
X58062592Y30674722D01*
X58063034Y30675018D01*
X58037285Y30735648D01*
X58049077Y30804515D01*
X58064603Y30828672D01*
X58065969Y30830338D01*
X58065977Y30830345D01*
X58091413Y30868415D01*
X58098644Y30878166D01*
X58127685Y30913550D01*
X58149262Y30953919D01*
X58155502Y30964332D01*
X58180941Y31002402D01*
X58198458Y31044696D01*
X58203648Y31055668D01*
X58225232Y31096046D01*
X58238521Y31139859D01*
X58242607Y31151280D01*
X58260130Y31193580D01*
X58269061Y31238485D01*
X58272010Y31250259D01*
X58285300Y31294066D01*
X58289785Y31339618D01*
X58291571Y31351652D01*
X58300500Y31396532D01*
X58300500Y31442301D01*
X58301097Y31454455D01*
X58305583Y31500000D01*
X58301097Y31545547D01*
X58300500Y31557701D01*
X58300500Y31603465D01*
X58291567Y31648371D01*
X58289785Y31660385D01*
X58285300Y31705934D01*
X58272016Y31749726D01*
X58269060Y31761529D01*
X58260131Y31806413D01*
X58260130Y31806420D01*
X58242614Y31848705D01*
X58238518Y31860152D01*
X58225232Y31903954D01*
X58225231Y31903955D01*
X58225231Y31903957D01*
X58203654Y31944323D01*
X58198456Y31955311D01*
X58180941Y31997598D01*
X58155515Y32035651D01*
X58149262Y32046084D01*
X58127688Y32086445D01*
X58127684Y32086451D01*
X58098650Y32121830D01*
X58091401Y32131605D01*
X58065978Y32169654D01*
X58065974Y32169659D01*
X58033615Y32202017D01*
X58025442Y32211034D01*
X57996772Y32245969D01*
X57996410Y32246410D01*
X57996154Y32246620D01*
X57961033Y32275443D01*
X57952015Y32283617D01*
X57919658Y32315975D01*
X57919654Y32315978D01*
X57881597Y32341407D01*
X57871824Y32348655D01*
X57836452Y32377684D01*
X57796086Y32399261D01*
X57785653Y32405514D01*
X57747595Y32430943D01*
X57705316Y32448455D01*
X57694323Y32453654D01*
X57653954Y32475232D01*
X57653951Y32475233D01*
X57610146Y32488522D01*
X57598692Y32492621D01*
X57556422Y32510130D01*
X57556414Y32510132D01*
X57511531Y32519060D01*
X57499730Y32522016D01*
X57455935Y32535300D01*
X57410383Y32539787D01*
X57398353Y32541572D01*
X57353465Y32550500D01*
X57353463Y32550500D01*
X57307701Y32550500D01*
X57295547Y32551097D01*
X57250000Y32555583D01*
X57204453Y32551097D01*
X57192299Y32550500D01*
X56307701Y32550500D01*
X56295547Y32551097D01*
X56250000Y32555583D01*
X56204453Y32551097D01*
X56192299Y32550500D01*
X56146534Y32550500D01*
X56101639Y32541571D01*
X56089607Y32539786D01*
X56044070Y32535301D01*
X56044068Y32535301D01*
X56044066Y32535300D01*
X56000272Y32522016D01*
X55988473Y32519061D01*
X55943584Y32510132D01*
X55943581Y32510131D01*
X55901286Y32492613D01*
X55889835Y32488516D01*
X55846047Y32475233D01*
X55846045Y32475232D01*
X55805672Y32453653D01*
X55794676Y32448453D01*
X55752409Y32430945D01*
X55752402Y32430942D01*
X55714338Y32405510D01*
X55703908Y32399258D01*
X55663552Y32377687D01*
X55663547Y32377683D01*
X55628167Y32348650D01*
X55618402Y32341408D01*
X55580349Y32315981D01*
X55580346Y32315978D01*
X55580345Y32315977D01*
X55551183Y32286817D01*
X55489861Y32253333D01*
X55463505Y32250500D01*
X49611230Y32250500D01*
X49544191Y32270185D01*
X49498436Y32322989D01*
X49488492Y32392147D01*
X49517517Y32455703D01*
X49523549Y32462181D01*
X51097030Y34035662D01*
X55832951Y38771584D01*
X55844307Y38788579D01*
X55915084Y38894505D01*
X55927716Y38925002D01*
X57686502Y38925002D01*
X57686502Y38924999D01*
X57706456Y38696919D01*
X57706457Y38696911D01*
X57765714Y38475762D01*
X57765718Y38475751D01*
X57862475Y38268255D01*
X57862477Y38268251D01*
X57993802Y38080700D01*
X58155700Y37918802D01*
X58343251Y37787477D01*
X58468091Y37729264D01*
X58550750Y37690719D01*
X58550752Y37690719D01*
X58550757Y37690716D01*
X58771913Y37631457D01*
X58934832Y37617204D01*
X58999998Y37611502D01*
X59000000Y37611502D01*
X59000002Y37611502D01*
X59057021Y37616491D01*
X59228087Y37631457D01*
X59449243Y37690716D01*
X59656749Y37787477D01*
X59844300Y37918802D01*
X60006198Y38080700D01*
X60137523Y38268251D01*
X60234284Y38475757D01*
X60293543Y38696913D01*
X60313498Y38925000D01*
X60310145Y38963320D01*
X60304217Y39031083D01*
X60293543Y39153087D01*
X60234284Y39374243D01*
X60137523Y39581749D01*
X60006198Y39769300D01*
X59844300Y39931198D01*
X59749561Y39997536D01*
X59705936Y40052113D01*
X59698744Y40121612D01*
X59730267Y40183966D01*
X59765583Y40210194D01*
X59918753Y40286158D01*
X60062940Y40402060D01*
X60178842Y40546247D01*
X60261037Y40711979D01*
X60305683Y40891505D01*
X60308500Y40933046D01*
X60308500Y41996954D01*
X60305683Y42038495D01*
X60261037Y42218021D01*
X60178842Y42383753D01*
X60128945Y42445827D01*
X60062940Y42527941D01*
X59938461Y42628000D01*
X59918753Y42643842D01*
X59918751Y42643843D01*
X59918750Y42643844D01*
X59753023Y42726036D01*
X59753021Y42726037D01*
X59573497Y42770683D01*
X59573501Y42770683D01*
X59542339Y42772796D01*
X59531954Y42773500D01*
X58468046Y42773500D01*
X58456177Y42772696D01*
X58426500Y42770683D01*
X58246978Y42726037D01*
X58246976Y42726036D01*
X58081249Y42643844D01*
X57937059Y42527941D01*
X57821156Y42383751D01*
X57738964Y42218024D01*
X57738963Y42218022D01*
X57694317Y42038500D01*
X57691500Y41996952D01*
X57691500Y40933049D01*
X57694317Y40891501D01*
X57738963Y40711979D01*
X57738964Y40711977D01*
X57821156Y40546250D01*
X57937059Y40402060D01*
X58033952Y40324175D01*
X58081247Y40286158D01*
X58234411Y40210196D01*
X58285721Y40162778D01*
X58303251Y40095143D01*
X58281431Y40028767D01*
X58250439Y39997536D01*
X58155697Y39931196D01*
X57993806Y39769305D01*
X57993803Y39769302D01*
X57993802Y39769300D01*
X57962562Y39724685D01*
X57862476Y39581748D01*
X57862475Y39581746D01*
X57765718Y39374250D01*
X57765714Y39374239D01*
X57706457Y39153090D01*
X57706456Y39153082D01*
X57686502Y38925002D01*
X55927716Y38925002D01*
X55971658Y39031087D01*
X55995926Y39153087D01*
X56000500Y39176080D01*
X56000500Y43463507D01*
X56020185Y43530546D01*
X56036815Y43551184D01*
X56065977Y43580345D01*
X56091413Y43618415D01*
X56098644Y43628166D01*
X56127685Y43663550D01*
X56149262Y43703919D01*
X56155502Y43714332D01*
X56180941Y43752402D01*
X56198458Y43794696D01*
X56203648Y43805668D01*
X56225232Y43846046D01*
X56238521Y43889859D01*
X56242607Y43901280D01*
X56260130Y43943580D01*
X56269061Y43988485D01*
X56272014Y44000270D01*
X56285300Y44044066D01*
X56289785Y44089618D01*
X56291571Y44101652D01*
X56300500Y44146532D01*
X56300500Y44192301D01*
X56301097Y44204455D01*
X56305583Y44250000D01*
X56301097Y44295547D01*
X56300500Y44307701D01*
X56300500Y44353465D01*
X56300500Y44353467D01*
X56291567Y44398371D01*
X56289785Y44410385D01*
X56285300Y44455934D01*
X56275005Y44489871D01*
X56272016Y44499726D01*
X56269060Y44511529D01*
X56262902Y44542483D01*
X56260130Y44556420D01*
X56242611Y44598714D01*
X56238518Y44610152D01*
X56225232Y44653954D01*
X56225231Y44653955D01*
X56225231Y44653957D01*
X56203654Y44694323D01*
X56198456Y44705311D01*
X56180941Y44747598D01*
X56155508Y44785662D01*
X56149262Y44796084D01*
X56127688Y44836445D01*
X56127684Y44836451D01*
X56127682Y44836453D01*
X56098650Y44871830D01*
X56091401Y44881605D01*
X56065978Y44919654D01*
X56065974Y44919659D01*
X56033615Y44952017D01*
X56025442Y44961034D01*
X55996408Y44996412D01*
X55961033Y45025443D01*
X55952015Y45033617D01*
X55919658Y45065975D01*
X55919654Y45065978D01*
X55881597Y45091407D01*
X55871824Y45098655D01*
X55836452Y45127684D01*
X55812205Y45140645D01*
X55762363Y45189610D01*
X55746905Y45257748D01*
X55770740Y45323427D01*
X55812210Y45359359D01*
X55836450Y45372315D01*
X55871834Y45401356D01*
X55881585Y45408587D01*
X55919655Y45434023D01*
X55952033Y45466403D01*
X55961020Y45474548D01*
X55996410Y45503590D01*
X56025452Y45538980D01*
X56033597Y45547967D01*
X56065977Y45580345D01*
X56091413Y45618415D01*
X56098644Y45628166D01*
X56127685Y45663550D01*
X56149262Y45703919D01*
X56155502Y45714332D01*
X56180941Y45752402D01*
X56198458Y45794696D01*
X56203648Y45805668D01*
X56225232Y45846046D01*
X56238521Y45889859D01*
X56242607Y45901280D01*
X56260130Y45943580D01*
X56269061Y45988485D01*
X56272010Y46000259D01*
X56285300Y46044066D01*
X56289785Y46089618D01*
X56291571Y46101652D01*
X56300500Y46146532D01*
X56300500Y46192301D01*
X56301097Y46204455D01*
X56301744Y46211021D01*
X56305583Y46250000D01*
X56301097Y46295547D01*
X56300500Y46307701D01*
X56300500Y46353465D01*
X56291567Y46398371D01*
X56289785Y46410385D01*
X56285300Y46455934D01*
X56272016Y46499726D01*
X56269060Y46511529D01*
X56260131Y46556413D01*
X56260130Y46556420D01*
X56242614Y46598705D01*
X56238518Y46610152D01*
X56225232Y46653954D01*
X56225231Y46653955D01*
X56225231Y46653957D01*
X56203654Y46694323D01*
X56198456Y46705311D01*
X56180941Y46747598D01*
X56155515Y46785651D01*
X56149262Y46796084D01*
X56127688Y46836445D01*
X56127684Y46836451D01*
X56098650Y46871830D01*
X56091401Y46881605D01*
X56065978Y46919654D01*
X56065974Y46919659D01*
X56033615Y46952017D01*
X56025442Y46961034D01*
X56016723Y46971658D01*
X55996410Y46996410D01*
X55991426Y47000500D01*
X55961033Y47025443D01*
X55952015Y47033617D01*
X55919658Y47065975D01*
X55919654Y47065978D01*
X55881597Y47091407D01*
X55871824Y47098655D01*
X55836452Y47127684D01*
X55796086Y47149261D01*
X55785653Y47155514D01*
X55747595Y47180943D01*
X55705316Y47198455D01*
X55694323Y47203654D01*
X55653954Y47225232D01*
X55653951Y47225233D01*
X55610146Y47238522D01*
X55598692Y47242621D01*
X55556422Y47260130D01*
X55556414Y47260132D01*
X55511531Y47269060D01*
X55499730Y47272016D01*
X55455935Y47285300D01*
X55410383Y47289787D01*
X55398353Y47291572D01*
X55353465Y47300500D01*
X55353463Y47300500D01*
X55307701Y47300500D01*
X55295547Y47301097D01*
X55250000Y47305583D01*
X55204453Y47301097D01*
X55192299Y47300500D01*
X54307701Y47300500D01*
X54295547Y47301097D01*
X54250000Y47305583D01*
X54204453Y47301097D01*
X54192299Y47300500D01*
X54146534Y47300500D01*
X54101639Y47291571D01*
X54089607Y47289786D01*
X54044070Y47285301D01*
X54044068Y47285301D01*
X54044066Y47285300D01*
X54000272Y47272016D01*
X53988473Y47269061D01*
X53943584Y47260132D01*
X53943581Y47260131D01*
X53901286Y47242613D01*
X53889835Y47238516D01*
X53846047Y47225233D01*
X53846045Y47225232D01*
X53805672Y47203653D01*
X53794676Y47198453D01*
X53752409Y47180945D01*
X53752402Y47180942D01*
X53714338Y47155510D01*
X53703908Y47149258D01*
X53663552Y47127687D01*
X53663547Y47127683D01*
X53628167Y47098650D01*
X53618402Y47091408D01*
X53580349Y47065981D01*
X53580346Y47065978D01*
X53580345Y47065977D01*
X53551183Y47036817D01*
X53489861Y47003333D01*
X53463505Y47000500D01*
X52176080Y47000500D01*
X52031092Y46971660D01*
X52031082Y46971657D01*
X51894511Y46915088D01*
X51894499Y46915081D01*
X51856449Y46889656D01*
X51856448Y46889655D01*
X51771579Y46832949D01*
X45917050Y40978420D01*
X45917044Y40978412D01*
X45867812Y40904732D01*
X45867813Y40904731D01*
X45834921Y40855504D01*
X45834914Y40855492D01*
X45778342Y40718914D01*
X45778340Y40718908D01*
X45749500Y40573921D01*
X45749500Y34286495D01*
X45729815Y34219456D01*
X45713186Y34198820D01*
X45684027Y34169659D01*
X45684019Y34169651D01*
X45658592Y34131598D01*
X45651350Y34121833D01*
X45622317Y34086453D01*
X45622313Y34086448D01*
X45600742Y34046092D01*
X45594490Y34035662D01*
X45569058Y33997598D01*
X45569055Y33997591D01*
X45551547Y33955324D01*
X45546347Y33944328D01*
X45524768Y33903955D01*
X45524767Y33903953D01*
X45511484Y33860165D01*
X45507387Y33848714D01*
X45489869Y33806419D01*
X45489868Y33806416D01*
X45480939Y33761527D01*
X45477984Y33749730D01*
X45464700Y33705934D01*
X45464700Y33705933D01*
X45464700Y33705932D01*
X45464699Y33705930D01*
X45460214Y33660393D01*
X45458429Y33648361D01*
X45449500Y33603467D01*
X45449500Y33557701D01*
X45448903Y33545547D01*
X45444417Y33500001D01*
X45448903Y33454455D01*
X45449500Y33442301D01*
X45449500Y32557701D01*
X45448903Y32545547D01*
X45444417Y32500001D01*
X45448903Y32454455D01*
X45449500Y32442301D01*
X45449500Y32396534D01*
X45450097Y32390472D01*
X45448317Y32390297D01*
X45442848Y32329110D01*
X45399990Y32273929D01*
X45334102Y32250678D01*
X45327454Y32250500D01*
X38926082Y32250500D01*
X38905521Y32246410D01*
X38905520Y32246410D01*
X38781095Y32221661D01*
X38781092Y32221660D01*
X38781088Y32221659D01*
X38701080Y32188519D01*
X38701078Y32188519D01*
X38644509Y32165086D01*
X38644497Y32165080D01*
X38622645Y32150478D01*
X38521582Y32082951D01*
X35417048Y28978417D01*
X35404265Y28959284D01*
X35380795Y28924158D01*
X35334914Y28855493D01*
X35278343Y28718918D01*
X35278340Y28718908D01*
X35249500Y28573921D01*
X35249500Y26862230D01*
X35229815Y26795191D01*
X35213181Y26774549D01*
X32725451Y24286819D01*
X32664128Y24253334D01*
X32637770Y24250500D01*
X28426080Y24250500D01*
X28281092Y24221660D01*
X28281082Y24221657D01*
X28144511Y24165088D01*
X28144498Y24165081D01*
X28021584Y24082952D01*
X28021580Y24082949D01*
X27026047Y23087417D01*
X26964724Y23053932D01*
X26950523Y23051695D01*
X26944134Y23051066D01*
X26925336Y23049215D01*
X26856691Y23062232D01*
X26805980Y23110296D01*
X26789778Y23160464D01*
X26786642Y23192301D01*
X26785300Y23205934D01*
X26725232Y23403954D01*
X26627685Y23586450D01*
X26572284Y23653957D01*
X26496410Y23746411D01*
X26343584Y23871830D01*
X26336450Y23877685D01*
X26153954Y23975232D01*
X25955934Y24035300D01*
X25955932Y24035301D01*
X25955934Y24035301D01*
X25750000Y24055583D01*
X25544067Y24035301D01*
X25346043Y23975231D01*
X25242070Y23919655D01*
X25163550Y23877685D01*
X25163548Y23877684D01*
X25163547Y23877683D01*
X25003589Y23746411D01*
X24872317Y23586453D01*
X24872315Y23586450D01*
X24856260Y23556413D01*
X24774769Y23403957D01*
X24714699Y23205933D01*
X24694417Y23000000D01*
X12050500Y23000000D01*
X12050500Y24325500D01*
X12070185Y24392539D01*
X12122989Y24438294D01*
X12174500Y24449500D01*
X16646535Y24449500D01*
X16692299Y24449500D01*
X16704453Y24448903D01*
X16750000Y24444417D01*
X16795547Y24448903D01*
X16807701Y24449500D01*
X17692299Y24449500D01*
X17704453Y24448903D01*
X17750000Y24444417D01*
X17795547Y24448903D01*
X17807701Y24449500D01*
X17853468Y24449500D01*
X17880201Y24454819D01*
X17898356Y24458431D01*
X17910382Y24460215D01*
X17955934Y24464700D01*
X17999741Y24477990D01*
X18011515Y24480939D01*
X18056420Y24489870D01*
X18098720Y24507393D01*
X18110141Y24511479D01*
X18153954Y24524768D01*
X18194332Y24546352D01*
X18205304Y24551542D01*
X18247598Y24569059D01*
X18285668Y24594498D01*
X18296085Y24600740D01*
X18336450Y24622315D01*
X18371834Y24651356D01*
X18381585Y24658587D01*
X18419655Y24684023D01*
X18452033Y24716403D01*
X18461020Y24724548D01*
X18496410Y24753590D01*
X18525452Y24788980D01*
X18533597Y24797967D01*
X18565977Y24830345D01*
X18591413Y24868415D01*
X18598644Y24878166D01*
X18627685Y24913550D01*
X18649262Y24953919D01*
X18655502Y24964332D01*
X18680941Y25002402D01*
X18698458Y25044696D01*
X18703648Y25055668D01*
X18725232Y25096046D01*
X18738521Y25139859D01*
X18742607Y25151280D01*
X18760130Y25193580D01*
X18769061Y25238485D01*
X18772010Y25250259D01*
X18785300Y25294066D01*
X18789785Y25339618D01*
X18791571Y25351652D01*
X18800500Y25396532D01*
X18800500Y25442301D01*
X18801097Y25454455D01*
X18804597Y25489994D01*
X18805583Y25500000D01*
X18801097Y25545547D01*
X18800500Y25557701D01*
X18800500Y25603465D01*
X18791567Y25648371D01*
X18789785Y25660385D01*
X18785300Y25705934D01*
X18772016Y25749726D01*
X18769060Y25761529D01*
X18760131Y25806413D01*
X18760130Y25806420D01*
X18742614Y25848705D01*
X18738518Y25860152D01*
X18725232Y25903954D01*
X18725231Y25903955D01*
X18725231Y25903957D01*
X18703654Y25944323D01*
X18698456Y25955311D01*
X18680941Y25997598D01*
X18655515Y26035651D01*
X18649262Y26046084D01*
X18627688Y26086445D01*
X18627682Y26086454D01*
X18598650Y26121830D01*
X18591401Y26131605D01*
X18565978Y26169654D01*
X18565974Y26169659D01*
X18533615Y26202017D01*
X18525442Y26211034D01*
X18515536Y26223105D01*
X18496410Y26246410D01*
X18461032Y26275444D01*
X18452015Y26283617D01*
X18419658Y26315975D01*
X18419654Y26315978D01*
X18381597Y26341407D01*
X18371824Y26348655D01*
X18336452Y26377684D01*
X18296086Y26399261D01*
X18285653Y26405514D01*
X18247595Y26430943D01*
X18205316Y26448455D01*
X18194323Y26453654D01*
X18153954Y26475232D01*
X18110146Y26488522D01*
X18098692Y26492621D01*
X18056422Y26510130D01*
X18056414Y26510132D01*
X18011531Y26519060D01*
X17999730Y26522016D01*
X17955935Y26535300D01*
X17910383Y26539787D01*
X17898353Y26541572D01*
X17853465Y26550500D01*
X17853463Y26550500D01*
X17807701Y26550500D01*
X17795547Y26551097D01*
X17750000Y26555583D01*
X17704453Y26551097D01*
X17692299Y26550500D01*
X16807701Y26550500D01*
X16795547Y26551097D01*
X16750000Y26555583D01*
X16704453Y26551097D01*
X16692299Y26550500D01*
X12174500Y26550500D01*
X12107461Y26570185D01*
X12061706Y26622989D01*
X12050500Y26674500D01*
X12050500Y29442301D01*
X12051097Y29454455D01*
X12052072Y29464357D01*
X12055583Y29500000D01*
X12051097Y29545547D01*
X12050500Y29557701D01*
X12050500Y30013507D01*
X12070185Y30080546D01*
X12086819Y30101188D01*
X14643812Y32658181D01*
X14705135Y32691666D01*
X14731493Y32694500D01*
X19146535Y32694500D01*
X19192299Y32694500D01*
X19204453Y32693903D01*
X19250000Y32689417D01*
X19295547Y32693903D01*
X19307701Y32694500D01*
X20442299Y32694500D01*
X20454453Y32693903D01*
X20500000Y32689417D01*
X20545547Y32693903D01*
X20557701Y32694500D01*
X20603468Y32694500D01*
X20630201Y32699819D01*
X20648356Y32703431D01*
X20660382Y32705215D01*
X20705934Y32709700D01*
X20749741Y32722990D01*
X20761515Y32725939D01*
X20806420Y32734870D01*
X20848720Y32752393D01*
X20860141Y32756479D01*
X20903954Y32769768D01*
X20944332Y32791352D01*
X20955304Y32796542D01*
X20997598Y32814059D01*
X21035668Y32839498D01*
X21046085Y32845740D01*
X21086450Y32867315D01*
X21121834Y32896356D01*
X21131585Y32903587D01*
X21169655Y32929023D01*
X21202033Y32961403D01*
X21211020Y32969548D01*
X21246410Y32998590D01*
X21275452Y33033980D01*
X21283597Y33042967D01*
X21315977Y33075345D01*
X21341413Y33113415D01*
X21348644Y33123166D01*
X21377685Y33158550D01*
X21399262Y33198919D01*
X21405502Y33209332D01*
X21430941Y33247402D01*
X21448458Y33289696D01*
X21453648Y33300668D01*
X21475232Y33341046D01*
X21488521Y33384859D01*
X21492607Y33396280D01*
X21510130Y33438580D01*
X21519061Y33483485D01*
X21522010Y33495259D01*
X21535300Y33539066D01*
X21539785Y33584618D01*
X21541571Y33596652D01*
X21542927Y33603465D01*
X21546216Y33620000D01*
X21550500Y33641532D01*
X21550500Y33687301D01*
X21551097Y33699455D01*
X21551735Y33705934D01*
X21555583Y33745000D01*
X21551097Y33790547D01*
X21550500Y33802701D01*
X21550500Y33848465D01*
X21549333Y33854329D01*
X21541567Y33893371D01*
X21539785Y33905385D01*
X21535300Y33950934D01*
X21522016Y33994726D01*
X21519060Y34006529D01*
X21510131Y34051413D01*
X21510130Y34051420D01*
X21492614Y34093705D01*
X21488518Y34105152D01*
X21475232Y34148954D01*
X21475231Y34148955D01*
X21475231Y34148957D01*
X21453654Y34189323D01*
X21448456Y34200311D01*
X21430941Y34242598D01*
X21405515Y34280651D01*
X21399262Y34291084D01*
X21377688Y34331445D01*
X21377684Y34331451D01*
X21348650Y34366830D01*
X21341401Y34376605D01*
X21315978Y34414654D01*
X21315974Y34414659D01*
X21283615Y34447017D01*
X21275442Y34456034D01*
X21246408Y34491412D01*
X21211033Y34520443D01*
X21202015Y34528617D01*
X21169658Y34560975D01*
X21169654Y34560978D01*
X21131597Y34586407D01*
X21121824Y34593655D01*
X21086452Y34622684D01*
X21046086Y34644261D01*
X21035653Y34650514D01*
X20997595Y34675943D01*
X20955316Y34693455D01*
X20944323Y34698654D01*
X20903954Y34720232D01*
X20860146Y34733522D01*
X20848692Y34737621D01*
X20806422Y34755130D01*
X20806414Y34755132D01*
X20761531Y34764060D01*
X20749730Y34767016D01*
X20705935Y34780300D01*
X20660383Y34784787D01*
X20648353Y34786572D01*
X20603465Y34795500D01*
X20603463Y34795500D01*
X20557701Y34795500D01*
X20545547Y34796097D01*
X20500000Y34800583D01*
X20454453Y34796097D01*
X20442299Y34795500D01*
X19307701Y34795500D01*
X19295547Y34796097D01*
X19250000Y34800583D01*
X19204453Y34796097D01*
X19192299Y34795500D01*
X14141530Y34795500D01*
X13938587Y34755132D01*
X13938579Y34755130D01*
X13747403Y34675942D01*
X13575344Y34560977D01*
X13538674Y34524306D01*
X13429023Y34414655D01*
X13429020Y34414652D01*
X10330348Y31315980D01*
X10330345Y31315977D01*
X10264651Y31250283D01*
X10184023Y31169656D01*
X10069058Y30997597D01*
X9989870Y30806421D01*
X9989868Y30806413D01*
X9956876Y30640551D01*
X9924491Y30578640D01*
X9863776Y30544066D01*
X9859449Y30543124D01*
X9851641Y30541571D01*
X9839607Y30539786D01*
X9794070Y30535301D01*
X9794068Y30535301D01*
X9794066Y30535300D01*
X9750272Y30522016D01*
X9738473Y30519061D01*
X9693584Y30510132D01*
X9693581Y30510131D01*
X9651286Y30492613D01*
X9639835Y30488516D01*
X9596047Y30475233D01*
X9596045Y30475232D01*
X9555672Y30453653D01*
X9544676Y30448453D01*
X9502409Y30430945D01*
X9502402Y30430942D01*
X9464338Y30405510D01*
X9453908Y30399258D01*
X9413552Y30377687D01*
X9413547Y30377683D01*
X9378167Y30348650D01*
X9368402Y30341408D01*
X9330349Y30315981D01*
X9330344Y30315977D01*
X9297979Y30283612D01*
X9288967Y30275445D01*
X9253590Y30246411D01*
X9253589Y30246410D01*
X9224555Y30211033D01*
X9216388Y30202021D01*
X9184023Y30169656D01*
X9184019Y30169651D01*
X9158592Y30131598D01*
X9151350Y30121833D01*
X9122317Y30086453D01*
X9122313Y30086448D01*
X9100742Y30046092D01*
X9094490Y30035662D01*
X9069058Y29997598D01*
X9069055Y29997591D01*
X9051547Y29955324D01*
X9046347Y29944328D01*
X9024768Y29903955D01*
X9024767Y29903953D01*
X9011484Y29860165D01*
X9007387Y29848714D01*
X8989869Y29806419D01*
X8989868Y29806416D01*
X8980939Y29761527D01*
X8977984Y29749730D01*
X8964700Y29705934D01*
X8964700Y29705932D01*
X8964699Y29705930D01*
X8960214Y29660393D01*
X8958429Y29648361D01*
X8949500Y29603467D01*
X8949500Y29557701D01*
X8948903Y29545547D01*
X8944417Y29500001D01*
X8948903Y29454455D01*
X8949500Y29442301D01*
X8949500Y29396535D01*
X8958428Y29351652D01*
X8960213Y29339617D01*
X8964700Y29294066D01*
X8964700Y29294064D01*
X8977984Y29250270D01*
X8980940Y29238469D01*
X8989868Y29193586D01*
X8989870Y29193578D01*
X9007379Y29151308D01*
X9011478Y29139854D01*
X9020729Y29109361D01*
X9024768Y29096046D01*
X9046346Y29055677D01*
X9051545Y29044684D01*
X9069057Y29002405D01*
X9094486Y28964347D01*
X9100739Y28953914D01*
X9122316Y28913548D01*
X9151345Y28878176D01*
X9158593Y28868403D01*
X9184022Y28830346D01*
X9184025Y28830342D01*
X9216383Y28797985D01*
X9224556Y28788968D01*
X9253590Y28753590D01*
X9262338Y28746411D01*
X9288966Y28724558D01*
X9297983Y28716385D01*
X9330341Y28684026D01*
X9330346Y28684022D01*
X9368395Y28658599D01*
X9378170Y28651350D01*
X9413550Y28622315D01*
X9413552Y28622314D01*
X9413555Y28622312D01*
X9453916Y28600738D01*
X9464349Y28594485D01*
X9502402Y28569059D01*
X9544689Y28551544D01*
X9555677Y28546346D01*
X9596043Y28524769D01*
X9596045Y28524769D01*
X9596046Y28524768D01*
X9639848Y28511482D01*
X9651295Y28507386D01*
X9693580Y28489870D01*
X9707517Y28487098D01*
X9738471Y28480940D01*
X9750274Y28477984D01*
X9794066Y28464700D01*
X9837652Y28460408D01*
X9902439Y28434249D01*
X9942799Y28377215D01*
X9949500Y28337005D01*
X9949500Y27642997D01*
X9929815Y27575958D01*
X9877011Y27530203D01*
X9837656Y27519594D01*
X9794067Y27515301D01*
X9596043Y27455231D01*
X9518065Y27413550D01*
X9413550Y27357685D01*
X9413548Y27357684D01*
X9413547Y27357683D01*
X9253589Y27226411D01*
X9122317Y27066453D01*
X9024769Y26883957D01*
X8964699Y26685933D01*
X8944417Y26480000D01*
X8964699Y26274068D01*
X8993310Y26179751D01*
X9024768Y26076046D01*
X9122315Y25893550D01*
X9122317Y25893548D01*
X9253589Y25733590D01*
X9287290Y25705933D01*
X9413550Y25602315D01*
X9596046Y25504768D01*
X9794066Y25444700D01*
X9837654Y25440407D01*
X9902441Y25414246D01*
X9942800Y25357212D01*
X9949500Y25317004D01*
X9949500Y19639294D01*
X9929815Y19572255D01*
X9889929Y19533347D01*
X9785860Y19470061D01*
X9785857Y19470059D01*
X9562950Y19288711D01*
X9366812Y19078701D01*
X9201098Y18843936D01*
X9068894Y18588794D01*
X8972667Y18318038D01*
X8972666Y18318035D01*
X8914201Y18036681D01*
X8894592Y17750000D01*
X200500Y17750000D01*
X200500Y39250000D01*
X27144592Y39250000D01*
X27164201Y38963320D01*
X27222666Y38681966D01*
X27222667Y38681963D01*
X27318894Y38411207D01*
X27318893Y38411207D01*
X27451098Y38156065D01*
X27616812Y37921300D01*
X27701923Y37830169D01*
X27812947Y37711292D01*
X28035853Y37529945D01*
X28230743Y37411429D01*
X28281382Y37380635D01*
X28468237Y37299474D01*
X28544942Y37266156D01*
X28821642Y37188629D01*
X29071920Y37154229D01*
X29106321Y37149500D01*
X29106322Y37149500D01*
X29393679Y37149500D01*
X29424370Y37153719D01*
X29678358Y37188629D01*
X29955058Y37266156D01*
X30068015Y37315221D01*
X30218617Y37380635D01*
X30218620Y37380637D01*
X30218625Y37380639D01*
X30464147Y37529945D01*
X30687053Y37711292D01*
X30883189Y37921302D01*
X31048901Y38156064D01*
X31181104Y38411203D01*
X31277334Y38681968D01*
X31335798Y38963314D01*
X31355408Y39250000D01*
X31335798Y39536686D01*
X31277334Y39818032D01*
X31237115Y39931196D01*
X31194218Y40051897D01*
X31181105Y40088794D01*
X31181106Y40088794D01*
X31048901Y40343936D01*
X30883187Y40578701D01*
X30804554Y40662895D01*
X30687053Y40788708D01*
X30464147Y40970055D01*
X30464146Y40970056D01*
X30218617Y41119366D01*
X29955063Y41233842D01*
X29955061Y41233843D01*
X29955058Y41233844D01*
X29825578Y41270123D01*
X29678364Y41311370D01*
X29678359Y41311371D01*
X29678358Y41311371D01*
X29536018Y41330936D01*
X29393679Y41350500D01*
X29393678Y41350500D01*
X29106322Y41350500D01*
X29106321Y41350500D01*
X28821642Y41311371D01*
X28821635Y41311370D01*
X28613861Y41253155D01*
X28544942Y41233844D01*
X28544939Y41233844D01*
X28544936Y41233842D01*
X28544935Y41233842D01*
X28281382Y41119366D01*
X28035853Y40970056D01*
X27812950Y40788711D01*
X27616812Y40578701D01*
X27451098Y40343936D01*
X27318894Y40088794D01*
X27222667Y39818038D01*
X27222666Y39818035D01*
X27164201Y39536681D01*
X27144592Y39250000D01*
X200500Y39250000D01*
X200500Y42099000D01*
X11881064Y42099000D01*
X11900789Y41772901D01*
X11959678Y41451548D01*
X12056866Y41139658D01*
X12056870Y41139646D01*
X12056873Y41139639D01*
X12190955Y40841721D01*
X12350911Y40577122D01*
X12359973Y40562132D01*
X12561454Y40304961D01*
X12792460Y40073955D01*
X13049631Y39872474D01*
X13049634Y39872472D01*
X13049637Y39872470D01*
X13329221Y39703455D01*
X13627139Y39569373D01*
X13627152Y39569369D01*
X13627157Y39569367D01*
X13939047Y39472179D01*
X14260396Y39413290D01*
X14586500Y39393564D01*
X14912604Y39413290D01*
X15233953Y39472179D01*
X15501177Y39555449D01*
X15545842Y39569367D01*
X15545842Y39569368D01*
X15545861Y39569373D01*
X15843779Y39703455D01*
X16123363Y39872470D01*
X16380536Y40073952D01*
X16611548Y40304964D01*
X16813030Y40562137D01*
X16982045Y40841721D01*
X17116127Y41139639D01*
X17213321Y41451547D01*
X17272210Y41772896D01*
X17291936Y42099000D01*
X17272210Y42425104D01*
X17213321Y42746453D01*
X17116127Y43058361D01*
X16982045Y43356279D01*
X16813030Y43635863D01*
X16813028Y43635866D01*
X16813026Y43635869D01*
X16611545Y43893040D01*
X16380539Y44124046D01*
X16123368Y44325527D01*
X16077150Y44353467D01*
X15843779Y44494545D01*
X15545861Y44628627D01*
X15545854Y44628630D01*
X15545842Y44628634D01*
X15233952Y44725822D01*
X14912599Y44784711D01*
X14586500Y44804436D01*
X14260400Y44784711D01*
X13939047Y44725822D01*
X13627157Y44628634D01*
X13627141Y44628628D01*
X13627139Y44628627D01*
X13466693Y44556416D01*
X13340733Y44499726D01*
X13329221Y44494545D01*
X13306716Y44480940D01*
X13049631Y44325527D01*
X12792460Y44124046D01*
X12561454Y43893040D01*
X12359973Y43635869D01*
X12301394Y43538967D01*
X12218202Y43401350D01*
X12190954Y43356277D01*
X12190953Y43356275D01*
X12174205Y43319063D01*
X12127236Y43214700D01*
X12056872Y43058358D01*
X12056866Y43058343D01*
X11959678Y42746453D01*
X11900789Y42425100D01*
X11881064Y42099000D01*
X200500Y42099000D01*
X200500Y51000007D01*
X22958200Y51000007D01*
X22958200Y50999994D01*
X22977364Y50768703D01*
X22977366Y50768692D01*
X23034342Y50543700D01*
X23127575Y50331152D01*
X23254516Y50136853D01*
X23254519Y50136849D01*
X23254521Y50136847D01*
X23411716Y49966087D01*
X23411719Y49966085D01*
X23411722Y49966082D01*
X23594865Y49823536D01*
X23594871Y49823532D01*
X23594874Y49823530D01*
X23798997Y49713064D01*
X23912987Y49673932D01*
X24018515Y49637703D01*
X24018517Y49637703D01*
X24018519Y49637702D01*
X24247451Y49599500D01*
X24247452Y49599500D01*
X24479548Y49599500D01*
X24479549Y49599500D01*
X24708481Y49637702D01*
X24928003Y49713064D01*
X25132126Y49823530D01*
X25315284Y49966087D01*
X25472479Y50136847D01*
X25599424Y50331151D01*
X25692657Y50543700D01*
X25749634Y50768695D01*
X25768800Y51000000D01*
X25768800Y51000007D01*
X25749635Y51231298D01*
X25749633Y51231309D01*
X25692657Y51456301D01*
X25599424Y51668849D01*
X25472483Y51863148D01*
X25472480Y51863151D01*
X25472479Y51863153D01*
X25315284Y52033913D01*
X25315279Y52033917D01*
X25315277Y52033919D01*
X25132134Y52176465D01*
X25132128Y52176469D01*
X24928004Y52286936D01*
X24927995Y52286939D01*
X24708484Y52362298D01*
X24536782Y52390950D01*
X24479549Y52400500D01*
X24247451Y52400500D01*
X24201664Y52392860D01*
X24018515Y52362298D01*
X23799004Y52286939D01*
X23798995Y52286936D01*
X23594871Y52176469D01*
X23594865Y52176465D01*
X23411722Y52033919D01*
X23411719Y52033916D01*
X23254516Y51863148D01*
X23127575Y51668849D01*
X23034342Y51456301D01*
X22977366Y51231309D01*
X22977364Y51231298D01*
X22958200Y51000007D01*
X200500Y51000007D01*
X200500Y58000007D01*
X22958200Y58000007D01*
X22958200Y57999994D01*
X22977364Y57768703D01*
X22977366Y57768692D01*
X23034342Y57543700D01*
X23127575Y57331152D01*
X23254516Y57136853D01*
X23254519Y57136849D01*
X23254521Y57136847D01*
X23411716Y56966087D01*
X23411719Y56966085D01*
X23411722Y56966082D01*
X23594865Y56823536D01*
X23594871Y56823532D01*
X23594874Y56823530D01*
X23798997Y56713064D01*
X23912987Y56673932D01*
X24018515Y56637703D01*
X24018517Y56637703D01*
X24018519Y56637702D01*
X24247451Y56599500D01*
X24247452Y56599500D01*
X24479548Y56599500D01*
X24479549Y56599500D01*
X24708481Y56637702D01*
X24928003Y56713064D01*
X25013911Y56759556D01*
X25072928Y56774500D01*
X31391019Y56774500D01*
X31458058Y56754815D01*
X31478700Y56738181D01*
X33201641Y55015241D01*
X33357698Y54901858D01*
X33419863Y54870184D01*
X33529571Y54814285D01*
X33713028Y54754676D01*
X33903551Y54724500D01*
X33903552Y54724500D01*
X35096448Y54724500D01*
X35096449Y54724500D01*
X35286972Y54754676D01*
X35470429Y54814285D01*
X35642302Y54901859D01*
X35798359Y55015241D01*
X35934759Y55151641D01*
X36048141Y55307698D01*
X36135715Y55479571D01*
X36142353Y55500001D01*
X50356917Y55500001D01*
X50361403Y55454455D01*
X50362000Y55442301D01*
X50362000Y55396535D01*
X50370928Y55351652D01*
X50372713Y55339617D01*
X50377200Y55294066D01*
X50377200Y55294064D01*
X50390484Y55250270D01*
X50393440Y55238469D01*
X50402368Y55193586D01*
X50402370Y55193578D01*
X50419879Y55151308D01*
X50423978Y55139854D01*
X50433035Y55110000D01*
X50437268Y55096046D01*
X50458846Y55055677D01*
X50464045Y55044684D01*
X50481557Y55002405D01*
X50506986Y54964347D01*
X50513239Y54953914D01*
X50534816Y54913548D01*
X50563845Y54878176D01*
X50571093Y54868403D01*
X50596522Y54830346D01*
X50596525Y54830342D01*
X50628883Y54797985D01*
X50637057Y54788967D01*
X50666088Y54753592D01*
X50701466Y54724558D01*
X50710483Y54716385D01*
X50742841Y54684026D01*
X50742846Y54684022D01*
X50780895Y54658599D01*
X50790670Y54651350D01*
X50826050Y54622315D01*
X50826052Y54622314D01*
X50826055Y54622312D01*
X50866416Y54600738D01*
X50876849Y54594485D01*
X50914902Y54569059D01*
X50957189Y54551544D01*
X50968177Y54546346D01*
X51008543Y54524769D01*
X51008545Y54524769D01*
X51008546Y54524768D01*
X51052348Y54511482D01*
X51063795Y54507386D01*
X51106080Y54489870D01*
X51120017Y54487098D01*
X51150971Y54480940D01*
X51162774Y54477984D01*
X51179210Y54472999D01*
X51206566Y54464700D01*
X51252115Y54460215D01*
X51264129Y54458433D01*
X51309035Y54449500D01*
X51354799Y54449500D01*
X51366953Y54448903D01*
X51412500Y54444417D01*
X51458047Y54448903D01*
X51470201Y54449500D01*
X52396535Y54449500D01*
X52442299Y54449500D01*
X52454453Y54448903D01*
X52500000Y54444417D01*
X52545547Y54448903D01*
X52557701Y54449500D01*
X58204872Y54449500D01*
X58271911Y54429815D01*
X58275995Y54427075D01*
X58368246Y54362480D01*
X58368248Y54362479D01*
X58368251Y54362477D01*
X58492700Y54304446D01*
X58575750Y54265719D01*
X58575752Y54265719D01*
X58575757Y54265716D01*
X58796913Y54206457D01*
X58959832Y54192204D01*
X59024998Y54186502D01*
X59025000Y54186502D01*
X59025002Y54186502D01*
X59082021Y54191491D01*
X59253087Y54206457D01*
X59474243Y54265716D01*
X59681749Y54362477D01*
X59869300Y54493802D01*
X60031198Y54655700D01*
X60162523Y54843251D01*
X60259284Y55050757D01*
X60318543Y55271913D01*
X60338498Y55500000D01*
X60318543Y55728087D01*
X60259284Y55949243D01*
X60256448Y55955324D01*
X60162524Y56156746D01*
X60162523Y56156748D01*
X60162523Y56156749D01*
X60031198Y56344300D01*
X59869300Y56506198D01*
X59681749Y56637523D01*
X59681363Y56637703D01*
X59474249Y56734282D01*
X59474238Y56734286D01*
X59253089Y56793543D01*
X59253081Y56793544D01*
X59025002Y56813498D01*
X59024998Y56813498D01*
X58796918Y56793544D01*
X58796910Y56793543D01*
X58575761Y56734286D01*
X58575750Y56734282D01*
X58368254Y56637525D01*
X58368246Y56637521D01*
X58275995Y56572925D01*
X58209789Y56550598D01*
X58204872Y56550500D01*
X52557701Y56550500D01*
X52545547Y56551097D01*
X52500000Y56555583D01*
X52454453Y56551097D01*
X52442299Y56550500D01*
X51470201Y56550500D01*
X51458047Y56551097D01*
X51412500Y56555583D01*
X51366953Y56551097D01*
X51354799Y56550500D01*
X51309034Y56550500D01*
X51264139Y56541571D01*
X51252107Y56539786D01*
X51206570Y56535301D01*
X51206568Y56535301D01*
X51206566Y56535300D01*
X51162772Y56522016D01*
X51150973Y56519061D01*
X51106084Y56510132D01*
X51106081Y56510131D01*
X51063786Y56492613D01*
X51052335Y56488516D01*
X51008547Y56475233D01*
X51008545Y56475232D01*
X50968172Y56453653D01*
X50957176Y56448453D01*
X50914909Y56430945D01*
X50914902Y56430942D01*
X50876838Y56405510D01*
X50866408Y56399258D01*
X50826052Y56377687D01*
X50826047Y56377683D01*
X50790667Y56348650D01*
X50780902Y56341408D01*
X50742849Y56315981D01*
X50742844Y56315977D01*
X50710479Y56283612D01*
X50701467Y56275445D01*
X50666090Y56246411D01*
X50666089Y56246410D01*
X50637055Y56211033D01*
X50628888Y56202021D01*
X50596523Y56169656D01*
X50596519Y56169651D01*
X50571092Y56131598D01*
X50563850Y56121833D01*
X50534817Y56086453D01*
X50534813Y56086448D01*
X50513242Y56046092D01*
X50506990Y56035662D01*
X50481558Y55997598D01*
X50481555Y55997591D01*
X50464047Y55955324D01*
X50458847Y55944328D01*
X50437268Y55903955D01*
X50437267Y55903953D01*
X50423984Y55860165D01*
X50419887Y55848714D01*
X50402369Y55806419D01*
X50402368Y55806416D01*
X50393439Y55761527D01*
X50390484Y55749730D01*
X50377200Y55705934D01*
X50377200Y55705932D01*
X50377199Y55705930D01*
X50372714Y55660393D01*
X50370929Y55648361D01*
X50362000Y55603467D01*
X50362000Y55557701D01*
X50361403Y55545547D01*
X50356917Y55500001D01*
X36142353Y55500001D01*
X36195324Y55663028D01*
X36225500Y55853551D01*
X36225500Y56046449D01*
X36195324Y56236972D01*
X36135715Y56420429D01*
X36048141Y56592302D01*
X35934759Y56748359D01*
X35798359Y56884759D01*
X35642302Y56998141D01*
X35470429Y57085715D01*
X35286972Y57145324D01*
X35286970Y57145325D01*
X35286969Y57145325D01*
X35140614Y57168505D01*
X35096449Y57175500D01*
X35096448Y57175500D01*
X34558980Y57175500D01*
X34491941Y57195185D01*
X34471299Y57211819D01*
X32748362Y58934757D01*
X32748361Y58934758D01*
X32748360Y58934759D01*
X32592302Y59048142D01*
X32478442Y59106156D01*
X32478439Y59106158D01*
X32420431Y59135714D01*
X32420430Y59135715D01*
X32420429Y59135715D01*
X32236972Y59195324D01*
X32236970Y59195325D01*
X32236969Y59195325D01*
X32090614Y59218505D01*
X32046449Y59225500D01*
X32046448Y59225500D01*
X25072928Y59225500D01*
X25013911Y59240445D01*
X24928003Y59286936D01*
X24927995Y59286939D01*
X24708484Y59362298D01*
X24536782Y59390950D01*
X24479549Y59400500D01*
X24247451Y59400500D01*
X24201664Y59392860D01*
X24018515Y59362298D01*
X23799004Y59286939D01*
X23798995Y59286936D01*
X23594871Y59176469D01*
X23594865Y59176465D01*
X23411722Y59033919D01*
X23411719Y59033916D01*
X23254516Y58863148D01*
X23127575Y58668849D01*
X23034342Y58456301D01*
X22977366Y58231309D01*
X22977364Y58231298D01*
X22958200Y58000007D01*
X200500Y58000007D01*
X200500Y63075001D01*
X54969417Y63075001D01*
X54973903Y63029455D01*
X54974500Y63017301D01*
X54974500Y62971535D01*
X54975950Y62964247D01*
X54983428Y62926652D01*
X54985213Y62914617D01*
X54989700Y62869066D01*
X54989700Y62869064D01*
X55002984Y62825270D01*
X55005940Y62813469D01*
X55014868Y62768586D01*
X55014870Y62768578D01*
X55032379Y62726308D01*
X55036478Y62714854D01*
X55049768Y62671046D01*
X55071346Y62630677D01*
X55076545Y62619684D01*
X55094057Y62577405D01*
X55119486Y62539347D01*
X55125739Y62528914D01*
X55147316Y62488548D01*
X55176345Y62453176D01*
X55183593Y62443403D01*
X55209022Y62405346D01*
X55209025Y62405342D01*
X55241383Y62372985D01*
X55249557Y62363967D01*
X55278588Y62328592D01*
X55313966Y62299558D01*
X55322983Y62291385D01*
X55355341Y62259026D01*
X55355346Y62259022D01*
X55393395Y62233599D01*
X55403170Y62226350D01*
X55438550Y62197315D01*
X55438552Y62197314D01*
X55438555Y62197312D01*
X55478916Y62175738D01*
X55489349Y62169485D01*
X55527402Y62144059D01*
X55569689Y62126544D01*
X55580677Y62121346D01*
X55621043Y62099769D01*
X55621045Y62099769D01*
X55621046Y62099768D01*
X55664848Y62086482D01*
X55676295Y62082386D01*
X55718580Y62064870D01*
X55732517Y62062098D01*
X55763471Y62055940D01*
X55775274Y62052984D01*
X55791710Y62047999D01*
X55819066Y62039700D01*
X55864615Y62035215D01*
X55876629Y62033433D01*
X55921535Y62024500D01*
X55967299Y62024500D01*
X55979453Y62023903D01*
X56025000Y62019417D01*
X56070547Y62023903D01*
X56082701Y62024500D01*
X56967299Y62024500D01*
X56979453Y62023903D01*
X57025000Y62019417D01*
X57070547Y62023903D01*
X57082701Y62024500D01*
X57128468Y62024500D01*
X57155201Y62029819D01*
X57173356Y62033431D01*
X57185382Y62035215D01*
X57230934Y62039700D01*
X57274741Y62052990D01*
X57286515Y62055939D01*
X57331420Y62064870D01*
X57373720Y62082393D01*
X57385141Y62086479D01*
X57428954Y62099768D01*
X57469332Y62121352D01*
X57480304Y62126542D01*
X57522598Y62144059D01*
X57560668Y62169498D01*
X57571085Y62175740D01*
X57611450Y62197315D01*
X57646834Y62226356D01*
X57656585Y62233587D01*
X57694655Y62259023D01*
X57723812Y62288182D01*
X57785133Y62321666D01*
X57811493Y62324500D01*
X61398920Y62324500D01*
X61496462Y62343904D01*
X61543913Y62353342D01*
X61649547Y62397098D01*
X61680488Y62409913D01*
X61680488Y62409914D01*
X61680495Y62409916D01*
X61733277Y62445184D01*
X61803416Y62492048D01*
X62592951Y63281584D01*
X62675084Y63404505D01*
X62731658Y63541087D01*
X62746503Y63615717D01*
X62760500Y63686080D01*
X62760500Y63713507D01*
X62780185Y63780546D01*
X62796815Y63801184D01*
X62825977Y63830345D01*
X62851413Y63868415D01*
X62858644Y63878166D01*
X62887685Y63913550D01*
X62909262Y63953919D01*
X62915502Y63964332D01*
X62940941Y64002402D01*
X62958458Y64044696D01*
X62963648Y64055668D01*
X62985232Y64096046D01*
X62998521Y64139859D01*
X63002607Y64151280D01*
X63020130Y64193580D01*
X63029061Y64238485D01*
X63032014Y64250270D01*
X63045300Y64294066D01*
X63049785Y64339618D01*
X63051571Y64351652D01*
X63060500Y64396532D01*
X63060500Y64442301D01*
X63061097Y64454455D01*
X63065583Y64500000D01*
X63061097Y64545547D01*
X63060500Y64557701D01*
X63060500Y65442301D01*
X63061097Y65454455D01*
X63065583Y65500000D01*
X63061097Y65545547D01*
X63060500Y65557701D01*
X63060500Y65603465D01*
X63060500Y65603467D01*
X63051567Y65648371D01*
X63049785Y65660385D01*
X63045300Y65705934D01*
X63032015Y65749728D01*
X63029060Y65761529D01*
X63020131Y65806413D01*
X63020130Y65806420D01*
X63002611Y65848714D01*
X62998518Y65860152D01*
X62985232Y65903954D01*
X62985231Y65903955D01*
X62985231Y65903957D01*
X62963654Y65944323D01*
X62958456Y65955311D01*
X62940941Y65997598D01*
X62915508Y66035662D01*
X62909262Y66046084D01*
X62887688Y66086445D01*
X62887684Y66086451D01*
X62887682Y66086453D01*
X62858650Y66121830D01*
X62851401Y66131605D01*
X62825978Y66169654D01*
X62825974Y66169659D01*
X62793615Y66202017D01*
X62785442Y66211034D01*
X62756408Y66246412D01*
X62721033Y66275443D01*
X62712015Y66283617D01*
X62679658Y66315975D01*
X62679654Y66315978D01*
X62641597Y66341407D01*
X62631824Y66348655D01*
X62596452Y66377684D01*
X62556086Y66399261D01*
X62545653Y66405514D01*
X62507595Y66430943D01*
X62465316Y66448455D01*
X62454323Y66453654D01*
X62413954Y66475232D01*
X62413951Y66475233D01*
X62370146Y66488522D01*
X62358692Y66492621D01*
X62316422Y66510130D01*
X62316414Y66510132D01*
X62271531Y66519060D01*
X62259730Y66522016D01*
X62215935Y66535300D01*
X62170383Y66539787D01*
X62158353Y66541572D01*
X62113465Y66550500D01*
X62113463Y66550500D01*
X62067701Y66550500D01*
X62055547Y66551097D01*
X62010000Y66555583D01*
X61964453Y66551097D01*
X61952299Y66550500D01*
X61906534Y66550500D01*
X61861639Y66541571D01*
X61849607Y66539786D01*
X61804070Y66535301D01*
X61804068Y66535301D01*
X61804066Y66535300D01*
X61760272Y66522016D01*
X61748473Y66519061D01*
X61703584Y66510132D01*
X61703581Y66510131D01*
X61661286Y66492613D01*
X61649835Y66488516D01*
X61606047Y66475233D01*
X61606045Y66475232D01*
X61565672Y66453653D01*
X61554676Y66448453D01*
X61512409Y66430945D01*
X61512402Y66430942D01*
X61474338Y66405510D01*
X61463908Y66399258D01*
X61423552Y66377687D01*
X61423547Y66377683D01*
X61388167Y66348650D01*
X61378402Y66341408D01*
X61340349Y66315981D01*
X61340344Y66315977D01*
X61307979Y66283612D01*
X61298967Y66275445D01*
X61263590Y66246411D01*
X61263589Y66246410D01*
X61234555Y66211033D01*
X61226388Y66202021D01*
X61194023Y66169656D01*
X61194019Y66169651D01*
X61168592Y66131598D01*
X61161350Y66121833D01*
X61132317Y66086453D01*
X61132313Y66086448D01*
X61110742Y66046092D01*
X61104490Y66035662D01*
X61079058Y65997598D01*
X61079055Y65997591D01*
X61061547Y65955324D01*
X61056347Y65944328D01*
X61034768Y65903955D01*
X61034767Y65903953D01*
X61021484Y65860165D01*
X61017387Y65848714D01*
X60999869Y65806419D01*
X60999868Y65806416D01*
X60990939Y65761527D01*
X60987984Y65749730D01*
X60974700Y65705934D01*
X60974700Y65705933D01*
X60974700Y65705932D01*
X60974699Y65705930D01*
X60970214Y65660393D01*
X60968429Y65648361D01*
X60959500Y65603467D01*
X60959500Y65557701D01*
X60958903Y65545547D01*
X60954417Y65500001D01*
X60958903Y65454455D01*
X60959500Y65442301D01*
X60959500Y64557701D01*
X60958903Y64545547D01*
X60954417Y64500001D01*
X60958903Y64454455D01*
X60959500Y64442301D01*
X60959500Y64396535D01*
X60959501Y64396532D01*
X60968428Y64351652D01*
X60970213Y64339617D01*
X60974700Y64294066D01*
X60974700Y64294064D01*
X60987984Y64250270D01*
X60990940Y64238469D01*
X60999868Y64193586D01*
X60999870Y64193578D01*
X61017379Y64151308D01*
X61021478Y64139854D01*
X61030444Y64110300D01*
X61034768Y64096046D01*
X61056346Y64055677D01*
X61061545Y64044683D01*
X61080148Y63999771D01*
X61087617Y63930302D01*
X61056342Y63867823D01*
X61053284Y63864653D01*
X61050466Y63861834D01*
X60989149Y63828338D01*
X60962769Y63825500D01*
X57811494Y63825500D01*
X57744455Y63845185D01*
X57723816Y63861816D01*
X57694655Y63890977D01*
X57694654Y63890978D01*
X57694653Y63890979D01*
X57656597Y63916407D01*
X57646824Y63923655D01*
X57611452Y63952684D01*
X57571086Y63974261D01*
X57560653Y63980514D01*
X57522595Y64005943D01*
X57480316Y64023455D01*
X57469323Y64028654D01*
X57428954Y64050232D01*
X57428700Y64050309D01*
X57385146Y64063522D01*
X57373692Y64067621D01*
X57331422Y64085130D01*
X57331414Y64085132D01*
X57286531Y64094060D01*
X57274730Y64097016D01*
X57230935Y64110300D01*
X57185383Y64114787D01*
X57173353Y64116572D01*
X57128465Y64125500D01*
X57128463Y64125500D01*
X57082701Y64125500D01*
X57070547Y64126097D01*
X57025000Y64130583D01*
X56979453Y64126097D01*
X56967299Y64125500D01*
X56082701Y64125500D01*
X56070547Y64126097D01*
X56025000Y64130583D01*
X55979453Y64126097D01*
X55967299Y64125500D01*
X55921534Y64125500D01*
X55876639Y64116571D01*
X55864607Y64114786D01*
X55819070Y64110301D01*
X55819068Y64110301D01*
X55819066Y64110300D01*
X55775272Y64097016D01*
X55763473Y64094061D01*
X55718584Y64085132D01*
X55718581Y64085131D01*
X55676286Y64067613D01*
X55664835Y64063516D01*
X55621047Y64050233D01*
X55621045Y64050232D01*
X55580672Y64028653D01*
X55569676Y64023453D01*
X55527409Y64005945D01*
X55527402Y64005942D01*
X55489338Y63980510D01*
X55478908Y63974258D01*
X55438552Y63952687D01*
X55438547Y63952683D01*
X55403167Y63923650D01*
X55393402Y63916408D01*
X55355349Y63890981D01*
X55355344Y63890977D01*
X55322979Y63858612D01*
X55313967Y63850445D01*
X55278590Y63821411D01*
X55278589Y63821410D01*
X55249555Y63786033D01*
X55241388Y63777021D01*
X55209023Y63744656D01*
X55209019Y63744651D01*
X55183592Y63706598D01*
X55176350Y63696833D01*
X55147317Y63661453D01*
X55147313Y63661448D01*
X55125742Y63621092D01*
X55119490Y63610662D01*
X55094058Y63572598D01*
X55094055Y63572591D01*
X55076547Y63530324D01*
X55071347Y63519328D01*
X55049768Y63478955D01*
X55049767Y63478953D01*
X55036484Y63435165D01*
X55032387Y63423714D01*
X55014869Y63381419D01*
X55014868Y63381416D01*
X55005939Y63336527D01*
X55002984Y63324730D01*
X54989700Y63280934D01*
X54989700Y63280932D01*
X54989699Y63280930D01*
X54985214Y63235393D01*
X54983429Y63223361D01*
X54974500Y63178467D01*
X54974500Y63132701D01*
X54973903Y63120547D01*
X54969417Y63075001D01*
X200500Y63075001D01*
X200500Y73901000D01*
X11881064Y73901000D01*
X11900789Y73574901D01*
X11959678Y73253548D01*
X12056866Y72941658D01*
X12056870Y72941646D01*
X12056873Y72941639D01*
X12190955Y72643721D01*
X12355401Y72371694D01*
X12359973Y72364132D01*
X12561454Y72106961D01*
X12792460Y71875955D01*
X13049631Y71674474D01*
X13049634Y71674472D01*
X13049637Y71674470D01*
X13329221Y71505455D01*
X13627139Y71371373D01*
X13627152Y71371369D01*
X13627157Y71371367D01*
X13939047Y71274179D01*
X14260396Y71215290D01*
X14586500Y71195564D01*
X14912604Y71215290D01*
X15233953Y71274179D01*
X15482515Y71351634D01*
X15545842Y71371367D01*
X15545842Y71371368D01*
X15545861Y71371373D01*
X15843779Y71505455D01*
X16123363Y71674470D01*
X16380536Y71875952D01*
X16611548Y72106964D01*
X16813030Y72364137D01*
X16982045Y72643721D01*
X17116127Y72941639D01*
X17149894Y73050003D01*
X48102208Y73050003D01*
X48102208Y73049998D01*
X48121363Y72696693D01*
X48178608Y72347516D01*
X48178609Y72347513D01*
X48273264Y72006595D01*
X48273265Y72006593D01*
X48273267Y72006589D01*
X48404232Y71677890D01*
X48566740Y71371367D01*
X48569972Y71365272D01*
X48569973Y71365269D01*
X48768531Y71072419D01*
X48768539Y71072409D01*
X48997597Y70802742D01*
X48997598Y70802741D01*
X49254476Y70559413D01*
X49536157Y70345285D01*
X49839339Y70162866D01*
X49839343Y70162865D01*
X49839347Y70162862D01*
X50160454Y70014301D01*
X50160458Y70014301D01*
X50160465Y70014297D01*
X50495773Y69901319D01*
X50841330Y69825256D01*
X51193085Y69787000D01*
X51193091Y69787000D01*
X51546909Y69787000D01*
X51546915Y69787000D01*
X51898670Y69825256D01*
X52244227Y69901319D01*
X52579535Y70014297D01*
X52579542Y70014301D01*
X52579545Y70014301D01*
X52900652Y70162862D01*
X52900661Y70162866D01*
X53203843Y70345285D01*
X53485524Y70559413D01*
X53742402Y70802741D01*
X53971467Y71072417D01*
X54170031Y71365277D01*
X54335768Y71677890D01*
X54466733Y72006589D01*
X54561393Y72347521D01*
X54618636Y72696690D01*
X54637792Y73050000D01*
X54637792Y73050003D01*
X77972208Y73050003D01*
X77972208Y73049998D01*
X77991363Y72696693D01*
X78048608Y72347516D01*
X78048609Y72347513D01*
X78143264Y72006595D01*
X78143265Y72006593D01*
X78143267Y72006589D01*
X78274232Y71677890D01*
X78436740Y71371367D01*
X78439972Y71365272D01*
X78439973Y71365269D01*
X78638531Y71072419D01*
X78638539Y71072409D01*
X78867597Y70802742D01*
X78867598Y70802741D01*
X79124476Y70559413D01*
X79406157Y70345285D01*
X79709339Y70162866D01*
X79709343Y70162865D01*
X79709347Y70162862D01*
X80030454Y70014301D01*
X80030458Y70014301D01*
X80030465Y70014297D01*
X80365773Y69901319D01*
X80711330Y69825256D01*
X81063085Y69787000D01*
X81063091Y69787000D01*
X81416909Y69787000D01*
X81416915Y69787000D01*
X81768670Y69825256D01*
X82114227Y69901319D01*
X82449535Y70014297D01*
X82449542Y70014301D01*
X82449545Y70014301D01*
X82770652Y70162862D01*
X82770661Y70162866D01*
X83073843Y70345285D01*
X83355524Y70559413D01*
X83612402Y70802741D01*
X83841467Y71072417D01*
X84040031Y71365277D01*
X84205768Y71677890D01*
X84336733Y72006589D01*
X84431393Y72347521D01*
X84488636Y72696690D01*
X84507792Y73050000D01*
X84488636Y73403310D01*
X84431393Y73752479D01*
X84388766Y73906007D01*
X84336735Y74093406D01*
X84336734Y74093408D01*
X84205769Y74422107D01*
X84205768Y74422110D01*
X84040031Y74734723D01*
X84040027Y74734729D01*
X84040026Y74734732D01*
X83841468Y75027582D01*
X83841460Y75027592D01*
X83612402Y75297259D01*
X83463968Y75437863D01*
X83355524Y75540587D01*
X83355517Y75540593D01*
X83355514Y75540595D01*
X83288699Y75591386D01*
X83073843Y75754715D01*
X82872424Y75875905D01*
X82770665Y75937132D01*
X82770652Y75937139D01*
X82449545Y76085700D01*
X82449540Y76085701D01*
X82449537Y76085702D01*
X82449535Y76085703D01*
X82325405Y76127527D01*
X82114229Y76198681D01*
X81768668Y76274745D01*
X81416916Y76313000D01*
X81416915Y76313000D01*
X81063085Y76313000D01*
X81063083Y76313000D01*
X80711331Y76274745D01*
X80365770Y76198681D01*
X80030459Y76085701D01*
X80030454Y76085700D01*
X79709347Y75937139D01*
X79709334Y75937132D01*
X79457038Y75785330D01*
X79406157Y75754715D01*
X79318849Y75688346D01*
X79124485Y75540595D01*
X79124476Y75540587D01*
X78867597Y75297259D01*
X78638539Y75027592D01*
X78638531Y75027582D01*
X78439973Y74734732D01*
X78439972Y74734729D01*
X78274236Y74422119D01*
X78274230Y74422107D01*
X78143265Y74093408D01*
X78143264Y74093406D01*
X78048609Y73752488D01*
X78048608Y73752485D01*
X77991363Y73403308D01*
X77972208Y73050003D01*
X54637792Y73050003D01*
X54618636Y73403310D01*
X54561393Y73752479D01*
X54518766Y73906007D01*
X54466735Y74093406D01*
X54466734Y74093408D01*
X54335769Y74422107D01*
X54335768Y74422110D01*
X54170031Y74734723D01*
X54170027Y74734729D01*
X54170026Y74734732D01*
X53971468Y75027582D01*
X53971460Y75027592D01*
X53742402Y75297259D01*
X53593968Y75437863D01*
X53485524Y75540587D01*
X53485517Y75540593D01*
X53485514Y75540595D01*
X53418699Y75591386D01*
X53203843Y75754715D01*
X53002424Y75875905D01*
X52900665Y75937132D01*
X52900652Y75937139D01*
X52579545Y76085700D01*
X52579540Y76085701D01*
X52579537Y76085702D01*
X52579535Y76085703D01*
X52455405Y76127527D01*
X52244229Y76198681D01*
X51898668Y76274745D01*
X51546916Y76313000D01*
X51546915Y76313000D01*
X51193085Y76313000D01*
X51193083Y76313000D01*
X50841331Y76274745D01*
X50495770Y76198681D01*
X50160459Y76085701D01*
X50160454Y76085700D01*
X49839347Y75937139D01*
X49839334Y75937132D01*
X49587038Y75785330D01*
X49536157Y75754715D01*
X49448849Y75688346D01*
X49254485Y75540595D01*
X49254476Y75540587D01*
X48997597Y75297259D01*
X48768539Y75027592D01*
X48768531Y75027582D01*
X48569973Y74734732D01*
X48569972Y74734729D01*
X48404236Y74422119D01*
X48404230Y74422107D01*
X48273265Y74093408D01*
X48273264Y74093406D01*
X48178609Y73752488D01*
X48178608Y73752485D01*
X48121363Y73403308D01*
X48102208Y73050003D01*
X17149894Y73050003D01*
X17213321Y73253547D01*
X17272210Y73574896D01*
X17291936Y73901000D01*
X17272210Y74227104D01*
X17213321Y74548453D01*
X17155277Y74734723D01*
X17116133Y74860343D01*
X17116131Y74860348D01*
X17116127Y74860361D01*
X16982045Y75158279D01*
X16813030Y75437863D01*
X16813028Y75437866D01*
X16813026Y75437869D01*
X16611545Y75695040D01*
X16380539Y75926046D01*
X16123368Y76127527D01*
X16005665Y76198681D01*
X15843779Y76296545D01*
X15545861Y76430627D01*
X15545854Y76430630D01*
X15545842Y76430634D01*
X15233952Y76527822D01*
X14912599Y76586711D01*
X14586500Y76606436D01*
X14260400Y76586711D01*
X13939047Y76527822D01*
X13627157Y76430634D01*
X13627141Y76430628D01*
X13627139Y76430627D01*
X13437433Y76345248D01*
X13329225Y76296547D01*
X13329223Y76296546D01*
X13049631Y76127527D01*
X12792460Y75926046D01*
X12561454Y75695040D01*
X12359973Y75437869D01*
X12190954Y75158277D01*
X12190953Y75158275D01*
X12056872Y74860358D01*
X12056866Y74860343D01*
X11959678Y74548453D01*
X11900789Y74227100D01*
X11881064Y73901000D01*
X200500Y73901000D01*
X200500Y81250006D01*
X33232269Y81250006D01*
X33232269Y81249995D01*
X33251174Y80949496D01*
X33251175Y80949489D01*
X33251176Y80949485D01*
X33302207Y80681968D01*
X33307599Y80653705D01*
X33400646Y80367335D01*
X33400648Y80367330D01*
X33528849Y80094889D01*
X33528851Y80094886D01*
X33528852Y80094884D01*
X33690195Y79840649D01*
X33882129Y79608640D01*
X34101629Y79402517D01*
X34345231Y79225529D01*
X34609096Y79080468D01*
X34609104Y79080464D01*
X34889056Y78969623D01*
X34889059Y78969622D01*
X35180706Y78894740D01*
X35180710Y78894739D01*
X35243381Y78886822D01*
X35479433Y78857001D01*
X35479442Y78857001D01*
X35479445Y78857000D01*
X35479447Y78857000D01*
X35780553Y78857000D01*
X35780555Y78857000D01*
X35780558Y78857001D01*
X35780566Y78857001D01*
X35958821Y78879521D01*
X36079290Y78894739D01*
X36370940Y78969622D01*
X36370943Y78969623D01*
X36650895Y79080464D01*
X36650899Y79080467D01*
X36650904Y79080468D01*
X36914769Y79225529D01*
X37158371Y79402517D01*
X37377871Y79608640D01*
X37569805Y79840649D01*
X37731148Y80094884D01*
X37859354Y80367336D01*
X37952402Y80653709D01*
X38008824Y80949485D01*
X38009694Y80963314D01*
X38027731Y81249995D01*
X38027731Y81250000D01*
X41904582Y81250000D01*
X41924223Y81000425D01*
X41982666Y80756989D01*
X42078471Y80525695D01*
X42209276Y80312243D01*
X42209282Y80312234D01*
X42371866Y80121872D01*
X42371871Y80121867D01*
X42403458Y80094889D01*
X42562237Y79959280D01*
X42562242Y79959277D01*
X42775694Y79828472D01*
X43006988Y79732667D01*
X43067847Y79718057D01*
X43250422Y79674224D01*
X43500000Y79654582D01*
X43749578Y79674224D01*
X43993011Y79732667D01*
X44224305Y79828472D01*
X44437763Y79959280D01*
X44628131Y80121869D01*
X44790720Y80312237D01*
X44921528Y80525695D01*
X45017333Y80756989D01*
X45075776Y81000422D01*
X45095418Y81250000D01*
X56144592Y81250000D01*
X56164201Y80963320D01*
X56164201Y80963316D01*
X56164202Y80963314D01*
X56167075Y80949489D01*
X56222666Y80681966D01*
X56222667Y80681963D01*
X56318894Y80411207D01*
X56318893Y80411207D01*
X56451098Y80156065D01*
X56616812Y79921300D01*
X56692134Y79840651D01*
X56812947Y79711292D01*
X57035853Y79529945D01*
X57245398Y79402517D01*
X57281382Y79380635D01*
X57468237Y79299474D01*
X57544942Y79266156D01*
X57821642Y79188629D01*
X58071920Y79154229D01*
X58106321Y79149500D01*
X58106322Y79149500D01*
X58393679Y79149500D01*
X58424370Y79153719D01*
X58678358Y79188629D01*
X58955058Y79266156D01*
X59068015Y79315221D01*
X59218617Y79380635D01*
X59218620Y79380637D01*
X59218625Y79380639D01*
X59464147Y79529945D01*
X59687053Y79711292D01*
X59883189Y79921302D01*
X60048901Y80156064D01*
X60181104Y80411203D01*
X60277334Y80681968D01*
X60335798Y80963314D01*
X60355408Y81250000D01*
X60355408Y81250006D01*
X63102269Y81250006D01*
X63102269Y81249995D01*
X63121174Y80949496D01*
X63121175Y80949489D01*
X63121176Y80949485D01*
X63172207Y80681968D01*
X63177599Y80653705D01*
X63270646Y80367335D01*
X63270648Y80367330D01*
X63398849Y80094889D01*
X63398851Y80094886D01*
X63398852Y80094884D01*
X63560195Y79840649D01*
X63752129Y79608640D01*
X63971629Y79402517D01*
X64215231Y79225529D01*
X64479096Y79080468D01*
X64479104Y79080464D01*
X64759056Y78969623D01*
X64759059Y78969622D01*
X65050706Y78894740D01*
X65050710Y78894739D01*
X65113381Y78886822D01*
X65349433Y78857001D01*
X65349442Y78857001D01*
X65349445Y78857000D01*
X65349447Y78857000D01*
X65650553Y78857000D01*
X65650555Y78857000D01*
X65650558Y78857001D01*
X65650566Y78857001D01*
X65828821Y78879521D01*
X65949290Y78894739D01*
X66240940Y78969622D01*
X66240943Y78969623D01*
X66520895Y79080464D01*
X66520899Y79080467D01*
X66520904Y79080468D01*
X66784769Y79225529D01*
X67028371Y79402517D01*
X67247871Y79608640D01*
X67439805Y79840649D01*
X67601148Y80094884D01*
X67729354Y80367336D01*
X67822402Y80653709D01*
X67878824Y80949485D01*
X67879694Y80963314D01*
X67897731Y81249995D01*
X67897731Y81250000D01*
X71774582Y81250000D01*
X71794223Y81000425D01*
X71852666Y80756989D01*
X71948471Y80525695D01*
X72079276Y80312243D01*
X72079282Y80312234D01*
X72241866Y80121872D01*
X72241871Y80121867D01*
X72273458Y80094889D01*
X72432237Y79959280D01*
X72432242Y79959277D01*
X72645694Y79828472D01*
X72876988Y79732667D01*
X72937847Y79718057D01*
X73120422Y79674224D01*
X73370000Y79654582D01*
X73619578Y79674224D01*
X73863011Y79732667D01*
X74094305Y79828472D01*
X74307763Y79959280D01*
X74498131Y80121869D01*
X74660720Y80312237D01*
X74791528Y80525695D01*
X74887333Y80756989D01*
X74945776Y81000422D01*
X74965418Y81250000D01*
X74945776Y81499578D01*
X74887333Y81743011D01*
X74856259Y81818032D01*
X74791528Y81974306D01*
X74660723Y82187758D01*
X74660717Y82187767D01*
X74498133Y82378129D01*
X74498128Y82378134D01*
X74307766Y82540718D01*
X74307757Y82540724D01*
X74094305Y82671529D01*
X73863011Y82767334D01*
X73619574Y82825777D01*
X73619575Y82825777D01*
X73370000Y82845418D01*
X73120424Y82825777D01*
X72876988Y82767334D01*
X72645694Y82671529D01*
X72432242Y82540724D01*
X72432233Y82540718D01*
X72241871Y82378134D01*
X72241866Y82378129D01*
X72079282Y82187767D01*
X72079276Y82187758D01*
X71948471Y81974306D01*
X71852666Y81743012D01*
X71794223Y81499576D01*
X71774582Y81250000D01*
X67897731Y81250000D01*
X67897731Y81250006D01*
X67878825Y81550505D01*
X67878824Y81550512D01*
X67878824Y81550515D01*
X67822402Y81846291D01*
X67729354Y82132664D01*
X67703426Y82187763D01*
X67601150Y82405112D01*
X67601149Y82405113D01*
X67601148Y82405116D01*
X67439805Y82659351D01*
X67247871Y82891360D01*
X67028371Y83097483D01*
X67028369Y83097485D01*
X66784772Y83274469D01*
X66784762Y83274475D01*
X66520903Y83419533D01*
X66520895Y83419537D01*
X66240943Y83530378D01*
X66240940Y83530379D01*
X65949293Y83605261D01*
X65949280Y83605263D01*
X65650566Y83643000D01*
X65650555Y83643000D01*
X65349445Y83643000D01*
X65349433Y83643000D01*
X65050719Y83605263D01*
X65050706Y83605261D01*
X64759059Y83530379D01*
X64759056Y83530378D01*
X64479104Y83419537D01*
X64479096Y83419533D01*
X64215237Y83274475D01*
X64215227Y83274469D01*
X63971630Y83097485D01*
X63971627Y83097482D01*
X63808630Y82944418D01*
X63752129Y82891360D01*
X63667211Y82788711D01*
X63560194Y82659350D01*
X63398849Y82405112D01*
X63270648Y82132671D01*
X63270646Y82132666D01*
X63177599Y81846296D01*
X63121175Y81550512D01*
X63121174Y81550505D01*
X63102269Y81250006D01*
X60355408Y81250006D01*
X60335798Y81536686D01*
X60277334Y81818032D01*
X60181105Y82088794D01*
X60181106Y82088794D01*
X60048901Y82343936D01*
X59883187Y82578701D01*
X59796491Y82671529D01*
X59687053Y82788708D01*
X59558452Y82893333D01*
X59464146Y82970056D01*
X59218617Y83119366D01*
X58955063Y83233842D01*
X58955061Y83233843D01*
X58955058Y83233844D01*
X58810043Y83274475D01*
X58678364Y83311370D01*
X58678359Y83311371D01*
X58678358Y83311371D01*
X58536018Y83330936D01*
X58393679Y83350500D01*
X58393678Y83350500D01*
X58106322Y83350500D01*
X58106321Y83350500D01*
X57821642Y83311371D01*
X57821635Y83311370D01*
X57615417Y83253590D01*
X57544942Y83233844D01*
X57544939Y83233844D01*
X57544936Y83233842D01*
X57544935Y83233842D01*
X57281382Y83119366D01*
X57035853Y82970056D01*
X56812950Y82788711D01*
X56616812Y82578701D01*
X56451098Y82343936D01*
X56318894Y82088794D01*
X56222667Y81818038D01*
X56222666Y81818035D01*
X56164201Y81536681D01*
X56144592Y81250000D01*
X45095418Y81250000D01*
X45075776Y81499578D01*
X45017333Y81743011D01*
X44986259Y81818032D01*
X44921528Y81974306D01*
X44790723Y82187758D01*
X44790717Y82187767D01*
X44628133Y82378129D01*
X44628128Y82378134D01*
X44437766Y82540718D01*
X44437757Y82540724D01*
X44224305Y82671529D01*
X43993011Y82767334D01*
X43749574Y82825777D01*
X43749575Y82825777D01*
X43500000Y82845418D01*
X43250424Y82825777D01*
X43006988Y82767334D01*
X42775694Y82671529D01*
X42562242Y82540724D01*
X42562233Y82540718D01*
X42371871Y82378134D01*
X42371866Y82378129D01*
X42209282Y82187767D01*
X42209276Y82187758D01*
X42078471Y81974306D01*
X41982666Y81743012D01*
X41924223Y81499576D01*
X41904582Y81250000D01*
X38027731Y81250000D01*
X38027731Y81250006D01*
X38008825Y81550505D01*
X38008824Y81550512D01*
X38008824Y81550515D01*
X37952402Y81846291D01*
X37859354Y82132664D01*
X37833426Y82187763D01*
X37731150Y82405112D01*
X37731149Y82405113D01*
X37731148Y82405116D01*
X37569805Y82659351D01*
X37377871Y82891360D01*
X37158371Y83097483D01*
X37158369Y83097485D01*
X36914772Y83274469D01*
X36914762Y83274475D01*
X36650903Y83419533D01*
X36650895Y83419537D01*
X36370943Y83530378D01*
X36370940Y83530379D01*
X36079293Y83605261D01*
X36079280Y83605263D01*
X35780566Y83643000D01*
X35780555Y83643000D01*
X35479445Y83643000D01*
X35479433Y83643000D01*
X35180719Y83605263D01*
X35180706Y83605261D01*
X34889059Y83530379D01*
X34889056Y83530378D01*
X34609104Y83419537D01*
X34609096Y83419533D01*
X34345237Y83274475D01*
X34345227Y83274469D01*
X34101630Y83097485D01*
X34101627Y83097482D01*
X33938630Y82944418D01*
X33882129Y82891360D01*
X33797211Y82788711D01*
X33690194Y82659350D01*
X33528849Y82405112D01*
X33400648Y82132671D01*
X33400646Y82132666D01*
X33307599Y81846296D01*
X33251175Y81550512D01*
X33251174Y81550505D01*
X33232269Y81250006D01*
X200500Y81250006D01*
X200500Y84000000D01*
X27694417Y84000000D01*
X27714699Y83794068D01*
X27714700Y83794066D01*
X27774768Y83596046D01*
X27872315Y83413550D01*
X27872317Y83413548D01*
X28003589Y83253590D01*
X28100209Y83174298D01*
X28163550Y83122315D01*
X28346046Y83024768D01*
X28544066Y82964700D01*
X28544065Y82964700D01*
X28562529Y82962882D01*
X28750000Y82944417D01*
X28955934Y82964700D01*
X29153954Y83024768D01*
X29191547Y83044863D01*
X29259947Y83059105D01*
X29308451Y83044864D01*
X29346046Y83024768D01*
X29544066Y82964700D01*
X29544065Y82964700D01*
X29562529Y82962882D01*
X29750000Y82944417D01*
X29955934Y82964700D01*
X30153954Y83024768D01*
X30336450Y83122315D01*
X30496410Y83253590D01*
X30627685Y83413550D01*
X30725232Y83596046D01*
X30785300Y83794066D01*
X30805583Y84000000D01*
X30785300Y84205934D01*
X30725232Y84403954D01*
X30627685Y84586450D01*
X30575702Y84649791D01*
X30496410Y84746411D01*
X30336452Y84877683D01*
X30336453Y84877683D01*
X30336450Y84877685D01*
X30153954Y84975232D01*
X29955934Y85035300D01*
X29955932Y85035301D01*
X29955934Y85035301D01*
X29750000Y85055583D01*
X29544067Y85035301D01*
X29346045Y84975232D01*
X29308453Y84955138D01*
X29240050Y84940897D01*
X29191547Y84955138D01*
X29153954Y84975232D01*
X28955934Y85035300D01*
X28955932Y85035301D01*
X28955934Y85035301D01*
X28750000Y85055583D01*
X28544067Y85035301D01*
X28346043Y84975231D01*
X28281810Y84940897D01*
X28163550Y84877685D01*
X28163548Y84877684D01*
X28163547Y84877683D01*
X28003589Y84746411D01*
X27872317Y84586453D01*
X27774769Y84403957D01*
X27714699Y84205933D01*
X27694417Y84000000D01*
X200500Y84000000D01*
X200500Y88495125D01*
X200882Y88504854D01*
X215733Y88693560D01*
X218775Y88712771D01*
X261826Y88892090D01*
X267832Y88910575D01*
X338404Y89080950D01*
X347237Y89098284D01*
X443582Y89255505D01*
X455019Y89271247D01*
X574781Y89411470D01*
X588530Y89425219D01*
X728755Y89544983D01*
X744495Y89556418D01*
X901719Y89652765D01*
X919050Y89661596D01*
X1089425Y89732168D01*
X1107910Y89738174D01*
X1287229Y89781225D01*
X1306434Y89784267D01*
X1495146Y89799119D01*
X1504875Y89799500D01*
X1539882Y89799500D01*
X94460118Y89799500D01*
X94495125Y89799500D01*
X94504853Y89799119D01*
G37*
%TD.AperFunction*%
%TD*%
M02*
