M48
; DRILL file {KiCad 8.0.8} date 2025-03-29T17:39:34+0100
; FORMAT={-:-/ absolute / metric / decimal}
; #@! TF.CreationDate,2025-03-29T17:39:34+01:00
; #@! TF.GenerationSoftware,Kicad,Pcbnew,8.0.8
; #@! TF.FileFunction,Plated,1,4,PTH
FMAT,2
METRIC
; #@! TA.AperFunction,Plated,PTH,ViaDrill
T1C0.300
; #@! TA.AperFunction,Plated,PTH,ViaDrill
T2C0.400
; #@! TA.AperFunction,Plated,PTH,ComponentDrill
T3C0.500
; #@! TA.AperFunction,Plated,PTH,ComponentDrill
T4C0.910
; #@! TA.AperFunction,Plated,PTH,ComponentDrill
T5C1.000
; #@! TA.AperFunction,Plated,PTH,ComponentDrill
T6C1.050
; #@! TA.AperFunction,Plated,PTH,ComponentDrill
T7C1.100
; #@! TA.AperFunction,Plated,PTH,ComponentDrill
T8C1.320
; #@! TA.AperFunction,Plated,PTH,ComponentDrill
T9C1.340
; #@! TA.AperFunction,Plated,PTH,ComponentDrill
T10C2.000
; #@! TA.AperFunction,Plated,PTH,ComponentDrill
T11C2.390
; #@! TA.AperFunction,Plated,PTH,ComponentDrill
T12C3.200
; #@! TA.AperFunction,Plated,PTH,ComponentDrill
T13C3.550
%
G90
G05
T1
X38.5Y28.902
X39.25Y28.902
X39.5Y27.39
X39.5Y25.902
X39.5Y24.402
X40.25Y27.39
X40.25Y25.902
X40.25Y24.402
T2
X1.25Y30.75
X1.25Y25.25
X1.5Y88.5
X1.5Y81.25
X1.5Y74.0
X1.5Y66.75
X1.5Y59.5
X1.5Y52.25
X1.5Y45.0
X1.5Y37.75
X1.5Y16.0
X1.5Y8.75
X1.5Y1.5
X4.75Y35.25
X4.75Y21.0
X5.5Y30.75
X5.5Y25.25
X9.25Y88.5
X9.25Y33.75
X9.25Y32.5
X9.25Y23.5
X9.25Y22.25
X9.25Y1.5
X10.0Y29.5
X10.0Y26.48
X11.0Y29.5
X11.0Y26.5
X13.5Y27.0
X14.5Y27.0
X16.75Y87.0
X16.75Y84.5
X16.75Y82.0
X16.75Y79.5
X16.75Y25.5
X17.0Y88.5
X17.0Y1.5
X17.75Y25.5
X19.25Y33.745
X19.5Y87.0
X20.0Y85.5
X20.0Y84.5
X20.5Y33.745
X21.01Y29.5
X21.5Y27.0
X22.0Y87.0
X22.0Y79.5
X22.27Y26.3
X23.187Y82.55
X23.253Y29.259
X24.0Y24.0
X24.0Y23.0
X24.25Y29.25
X24.5Y87.0
X24.5Y79.5
X24.75Y88.5
X24.75Y1.5
X25.0Y82.5
X25.75Y23.0
X25.75Y22.0
X26.0Y82.1
X26.376Y26.54
X26.99Y22.0
X26.99Y21.01
X27.0Y87.0
X27.0Y82.1
X27.0Y79.5
X27.135Y25.854
X28.25Y71.0
X28.25Y68.5
X28.25Y66.0
X28.25Y63.5
X28.25Y61.0
X28.25Y54.5
X28.75Y84.0
X29.0Y51.75
X29.25Y26.23
X29.5Y87.0
X29.5Y79.5
X29.75Y84.0
X29.75Y72.75
X30.25Y26.23
X30.75Y50.0
X31.5Y87.0
X31.5Y84.5
X31.5Y82.0
X31.5Y79.5
X31.5Y74.5
X32.0Y27.405
X32.0Y26.25
X32.0Y25.055
X32.5Y88.5
X32.5Y48.25
X32.5Y1.5
X34.0Y74.5
X34.0Y55.95
X34.25Y46.5
X35.0Y55.95
X36.0Y52.5
X36.0Y51.0
X36.0Y33.25
X36.5Y74.5
X36.75Y45.25
X37.0Y54.05
X38.0Y52.5
X38.0Y51.0
X38.75Y61.0
X38.75Y35.5
X39.0Y74.5
X39.05Y54.0
X39.25Y45.25
X39.5Y69.75
X39.5Y64.5
X40.25Y88.5
X40.25Y61.0
X40.25Y1.5
X40.89Y30.452
X41.25Y38.25
X41.5Y74.5
X41.625Y57.875
X42.348Y57.25
X42.5Y45.25
X42.75Y18.25
X43.0Y52.1
X43.0Y51.0
X43.0Y24.25
X43.5Y30.0
X43.7Y24.95
X43.75Y33.75
X43.75Y32.51
X44.2Y60.75
X44.25Y22.45
X44.89Y27.14
X45.0Y45.25
X45.25Y22.45
X45.75Y61.25
X45.75Y60.25
X46.23Y24.75
X46.5Y33.5
X46.5Y32.5
X46.75Y74.5
X46.75Y72.0
X46.75Y69.5
X46.75Y67.0
X46.99Y23.99
X47.25Y64.5
X47.412Y56.0
X47.5Y45.25
X47.75Y26.75
X47.75Y25.75
X48.0Y88.5
X48.0Y1.5
X49.5Y55.75
X49.5Y54.25
X49.5Y50.0
X49.587Y52.0
X49.75Y63.75
X50.0Y45.25
X50.0Y39.5
X50.0Y37.0
X50.75Y50.0
X51.412Y55.5
X51.75Y47.0
X52.25Y63.75
X52.25Y21.75
X52.5Y55.5
X52.5Y42.0
X52.5Y39.5
X53.5Y48.75
X54.25Y62.5
X54.25Y46.25
X54.25Y44.25
X54.5Y23.75
X55.0Y60.0
X55.0Y57.5
X55.0Y53.25
X55.0Y50.75
X55.25Y46.25
X55.25Y44.25
X55.75Y88.5
X55.75Y1.5
X56.025Y63.075
X56.25Y31.5
X56.25Y30.0
X56.25Y28.0
X56.25Y23.25
X57.025Y63.075
X57.25Y31.5
X57.25Y30.0
X57.25Y28.0
X57.25Y23.25
X57.25Y18.25
X57.5Y67.5
X57.5Y66.0
X59.0Y51.0
X59.25Y68.98
X59.25Y67.5
X59.25Y66.0
X59.5Y64.575
X60.5Y64.575
X60.99Y66.75
X61.5Y53.0
X61.5Y51.0
X62.0Y32.25
X62.01Y65.5
X62.01Y64.5
X63.5Y88.5
X63.5Y1.5
X64.0Y47.5
X64.0Y34.25
X66.5Y58.0
X66.5Y57.0
X68.75Y45.5
X69.5Y46.25
X69.75Y32.25
X70.5Y27.0
X71.25Y88.5
X71.25Y55.0
X71.25Y50.25
X71.25Y1.5
X75.5Y38.25
X76.0Y55.25
X76.0Y32.5
X76.25Y60.0
X79.0Y88.5
X79.0Y1.5
X80.25Y59.5
X81.25Y44.0
X81.75Y38.25
X82.75Y53.0
X85.0Y42.0
X86.75Y88.5
X86.75Y1.5
X87.5Y50.0
X94.5Y88.5
X94.5Y81.25
X94.5Y74.0
X94.5Y66.75
X94.5Y45.0
X94.5Y37.75
X94.5Y30.5
X94.5Y23.25
X94.5Y16.0
X94.5Y8.75
X94.5Y1.5
X95.0Y59.5
X95.0Y52.25
T3
X3.1Y84.5
X3.1Y5.5
X3.803Y86.197
X3.803Y82.803
X3.803Y7.197
X3.803Y3.803
X5.5Y86.9
X5.5Y82.1
X5.5Y7.9
X5.5Y3.1
X7.197Y86.197
X7.197Y82.803
X7.197Y7.197
X7.197Y3.803
X7.9Y84.5
X7.9Y5.5
X88.1Y84.5
X88.1Y5.5
X88.803Y86.197
X88.803Y82.803
X88.803Y7.197
X88.803Y3.803
X90.5Y86.9
X90.5Y82.1
X90.5Y7.9
X90.5Y3.1
X92.197Y86.197
X92.197Y82.803
X92.197Y7.197
X92.197Y3.803
X92.9Y84.5
X92.9Y5.5
T4
X59.0Y41.465
X59.0Y38.925
X59.025Y55.5
X59.025Y52.96
T5
X24.363Y58.0
X24.363Y51.0
T6
X90.5Y43.78
X90.5Y41.24
X90.5Y38.7
X90.5Y36.16
X90.5Y33.62
X90.5Y31.08
X90.5Y28.54
X90.5Y26.0
T7
X90.5Y64.0
X90.5Y61.46
X90.5Y58.92
X90.5Y56.38
X90.5Y53.84
X90.5Y51.3
X90.5Y48.76
X90.5Y46.22
T8
X43.5Y81.25
X43.5Y9.03
X73.37Y81.25
X73.37Y9.03
T9
X2.75Y32.32
X2.75Y23.68
X6.55Y32.32
X6.55Y23.68
T10
X11.0Y17.75
X18.25Y17.75
X25.75Y17.75
X29.25Y39.25
X58.25Y81.25
T11
X35.63Y81.25
X65.5Y81.25
T12
X5.5Y84.5
X5.5Y5.5
X14.586Y73.901
X14.586Y42.099
X90.5Y84.5
X90.5Y5.5
T13
X35.63Y17.85
X51.37Y73.05
X65.5Y17.85
X81.24Y73.05
M30
