%TF.GenerationSoftware,KiCad,Pcbnew,8.0.8*%
%TF.CreationDate,2025-03-29T17:39:48+01:00*%
%TF.ProjectId,eps,6570732e-6b69-4636-9164-5f7063625858,rev?*%
%TF.SameCoordinates,PX55d4a80PY8044ea0*%
%TF.FileFunction,Legend,Top*%
%TF.FilePolarity,Positive*%
%FSLAX46Y46*%
G04 Gerber Fmt 4.6, Leading zero omitted, Abs format (unit mm)*
G04 Created by KiCad (PCBNEW 8.0.8) date 2025-03-29 17:39:48*
%MOMM*%
%LPD*%
G01*
G04 APERTURE LIST*
%ADD10C,0.150000*%
%ADD11C,0.200000*%
%ADD12C,0.100000*%
%ADD13C,0.120000*%
%ADD14C,0.250000*%
G04 APERTURE END LIST*
D10*
X85336779Y45630181D02*
X85336779Y46630181D01*
X85336779Y46630181D02*
X85908207Y45630181D01*
X85908207Y45630181D02*
X85908207Y46630181D01*
X86241541Y46630181D02*
X86812969Y46630181D01*
X86527255Y45630181D02*
X86527255Y46630181D01*
X87717731Y45725420D02*
X87670112Y45677800D01*
X87670112Y45677800D02*
X87527255Y45630181D01*
X87527255Y45630181D02*
X87432017Y45630181D01*
X87432017Y45630181D02*
X87289160Y45677800D01*
X87289160Y45677800D02*
X87193922Y45773039D01*
X87193922Y45773039D02*
X87146303Y45868277D01*
X87146303Y45868277D02*
X87098684Y46058753D01*
X87098684Y46058753D02*
X87098684Y46201610D01*
X87098684Y46201610D02*
X87146303Y46392086D01*
X87146303Y46392086D02*
X87193922Y46487324D01*
X87193922Y46487324D02*
X87289160Y46582562D01*
X87289160Y46582562D02*
X87432017Y46630181D01*
X87432017Y46630181D02*
X87527255Y46630181D01*
X87527255Y46630181D02*
X87670112Y46582562D01*
X87670112Y46582562D02*
X87717731Y46534943D01*
X28562969Y44130181D02*
X28086779Y44130181D01*
X28086779Y44130181D02*
X28039160Y43653991D01*
X28039160Y43653991D02*
X28086779Y43701610D01*
X28086779Y43701610D02*
X28182017Y43749229D01*
X28182017Y43749229D02*
X28420112Y43749229D01*
X28420112Y43749229D02*
X28515350Y43701610D01*
X28515350Y43701610D02*
X28562969Y43653991D01*
X28562969Y43653991D02*
X28610588Y43558753D01*
X28610588Y43558753D02*
X28610588Y43320658D01*
X28610588Y43320658D02*
X28562969Y43225420D01*
X28562969Y43225420D02*
X28515350Y43177800D01*
X28515350Y43177800D02*
X28420112Y43130181D01*
X28420112Y43130181D02*
X28182017Y43130181D01*
X28182017Y43130181D02*
X28086779Y43177800D01*
X28086779Y43177800D02*
X28039160Y43225420D01*
X29658208Y44130181D02*
X29991541Y43130181D01*
X29991541Y43130181D02*
X30324874Y44130181D01*
X85658207Y50975420D02*
X85610588Y50927800D01*
X85610588Y50927800D02*
X85467731Y50880181D01*
X85467731Y50880181D02*
X85372493Y50880181D01*
X85372493Y50880181D02*
X85229636Y50927800D01*
X85229636Y50927800D02*
X85134398Y51023039D01*
X85134398Y51023039D02*
X85086779Y51118277D01*
X85086779Y51118277D02*
X85039160Y51308753D01*
X85039160Y51308753D02*
X85039160Y51451610D01*
X85039160Y51451610D02*
X85086779Y51642086D01*
X85086779Y51642086D02*
X85134398Y51737324D01*
X85134398Y51737324D02*
X85229636Y51832562D01*
X85229636Y51832562D02*
X85372493Y51880181D01*
X85372493Y51880181D02*
X85467731Y51880181D01*
X85467731Y51880181D02*
X85610588Y51832562D01*
X85610588Y51832562D02*
X85658207Y51784943D01*
X86658207Y50975420D02*
X86610588Y50927800D01*
X86610588Y50927800D02*
X86467731Y50880181D01*
X86467731Y50880181D02*
X86372493Y50880181D01*
X86372493Y50880181D02*
X86229636Y50927800D01*
X86229636Y50927800D02*
X86134398Y51023039D01*
X86134398Y51023039D02*
X86086779Y51118277D01*
X86086779Y51118277D02*
X86039160Y51308753D01*
X86039160Y51308753D02*
X86039160Y51451610D01*
X86039160Y51451610D02*
X86086779Y51642086D01*
X86086779Y51642086D02*
X86134398Y51737324D01*
X86134398Y51737324D02*
X86229636Y51832562D01*
X86229636Y51832562D02*
X86372493Y51880181D01*
X86372493Y51880181D02*
X86467731Y51880181D01*
X86467731Y51880181D02*
X86610588Y51832562D01*
X86610588Y51832562D02*
X86658207Y51784943D01*
X87610588Y50880181D02*
X87039160Y50880181D01*
X87324874Y50880181D02*
X87324874Y51880181D01*
X87324874Y51880181D02*
X87229636Y51737324D01*
X87229636Y51737324D02*
X87134398Y51642086D01*
X87134398Y51642086D02*
X87039160Y51594467D01*
X85241541Y26630181D02*
X85860588Y26630181D01*
X85860588Y26630181D02*
X85527255Y26249229D01*
X85527255Y26249229D02*
X85670112Y26249229D01*
X85670112Y26249229D02*
X85765350Y26201610D01*
X85765350Y26201610D02*
X85812969Y26153991D01*
X85812969Y26153991D02*
X85860588Y26058753D01*
X85860588Y26058753D02*
X85860588Y25820658D01*
X85860588Y25820658D02*
X85812969Y25725420D01*
X85812969Y25725420D02*
X85765350Y25677800D01*
X85765350Y25677800D02*
X85670112Y25630181D01*
X85670112Y25630181D02*
X85384398Y25630181D01*
X85384398Y25630181D02*
X85289160Y25677800D01*
X85289160Y25677800D02*
X85241541Y25725420D01*
X86146303Y26630181D02*
X86479636Y25630181D01*
X86479636Y25630181D02*
X86812969Y26630181D01*
X87051065Y26630181D02*
X87670112Y26630181D01*
X87670112Y26630181D02*
X87336779Y26249229D01*
X87336779Y26249229D02*
X87479636Y26249229D01*
X87479636Y26249229D02*
X87574874Y26201610D01*
X87574874Y26201610D02*
X87622493Y26153991D01*
X87622493Y26153991D02*
X87670112Y26058753D01*
X87670112Y26058753D02*
X87670112Y25820658D01*
X87670112Y25820658D02*
X87622493Y25725420D01*
X87622493Y25725420D02*
X87574874Y25677800D01*
X87574874Y25677800D02*
X87479636Y25630181D01*
X87479636Y25630181D02*
X87193922Y25630181D01*
X87193922Y25630181D02*
X87098684Y25677800D01*
X87098684Y25677800D02*
X87051065Y25725420D01*
X17610588Y13332562D02*
X17515350Y13380181D01*
X17515350Y13380181D02*
X17372493Y13380181D01*
X17372493Y13380181D02*
X17229636Y13332562D01*
X17229636Y13332562D02*
X17134398Y13237324D01*
X17134398Y13237324D02*
X17086779Y13142086D01*
X17086779Y13142086D02*
X17039160Y12951610D01*
X17039160Y12951610D02*
X17039160Y12808753D01*
X17039160Y12808753D02*
X17086779Y12618277D01*
X17086779Y12618277D02*
X17134398Y12523039D01*
X17134398Y12523039D02*
X17229636Y12427800D01*
X17229636Y12427800D02*
X17372493Y12380181D01*
X17372493Y12380181D02*
X17467731Y12380181D01*
X17467731Y12380181D02*
X17610588Y12427800D01*
X17610588Y12427800D02*
X17658207Y12475420D01*
X17658207Y12475420D02*
X17658207Y12808753D01*
X17658207Y12808753D02*
X17467731Y12808753D01*
X18086779Y12380181D02*
X18086779Y13380181D01*
X18086779Y13380181D02*
X18658207Y12380181D01*
X18658207Y12380181D02*
X18658207Y13380181D01*
X19134398Y12380181D02*
X19134398Y13380181D01*
X19134398Y13380181D02*
X19372493Y13380181D01*
X19372493Y13380181D02*
X19515350Y13332562D01*
X19515350Y13332562D02*
X19610588Y13237324D01*
X19610588Y13237324D02*
X19658207Y13142086D01*
X19658207Y13142086D02*
X19705826Y12951610D01*
X19705826Y12951610D02*
X19705826Y12808753D01*
X19705826Y12808753D02*
X19658207Y12618277D01*
X19658207Y12618277D02*
X19610588Y12523039D01*
X19610588Y12523039D02*
X19515350Y12427800D01*
X19515350Y12427800D02*
X19372493Y12380181D01*
X19372493Y12380181D02*
X19134398Y12380181D01*
X85610588Y44332562D02*
X85515350Y44380181D01*
X85515350Y44380181D02*
X85372493Y44380181D01*
X85372493Y44380181D02*
X85229636Y44332562D01*
X85229636Y44332562D02*
X85134398Y44237324D01*
X85134398Y44237324D02*
X85086779Y44142086D01*
X85086779Y44142086D02*
X85039160Y43951610D01*
X85039160Y43951610D02*
X85039160Y43808753D01*
X85039160Y43808753D02*
X85086779Y43618277D01*
X85086779Y43618277D02*
X85134398Y43523039D01*
X85134398Y43523039D02*
X85229636Y43427800D01*
X85229636Y43427800D02*
X85372493Y43380181D01*
X85372493Y43380181D02*
X85467731Y43380181D01*
X85467731Y43380181D02*
X85610588Y43427800D01*
X85610588Y43427800D02*
X85658207Y43475420D01*
X85658207Y43475420D02*
X85658207Y43808753D01*
X85658207Y43808753D02*
X85467731Y43808753D01*
X86086779Y43380181D02*
X86086779Y44380181D01*
X86086779Y44380181D02*
X86658207Y43380181D01*
X86658207Y43380181D02*
X86658207Y44380181D01*
X87134398Y43380181D02*
X87134398Y44380181D01*
X87134398Y44380181D02*
X87372493Y44380181D01*
X87372493Y44380181D02*
X87515350Y44332562D01*
X87515350Y44332562D02*
X87610588Y44237324D01*
X87610588Y44237324D02*
X87658207Y44142086D01*
X87658207Y44142086D02*
X87705826Y43951610D01*
X87705826Y43951610D02*
X87705826Y43808753D01*
X87705826Y43808753D02*
X87658207Y43618277D01*
X87658207Y43618277D02*
X87610588Y43523039D01*
X87610588Y43523039D02*
X87515350Y43427800D01*
X87515350Y43427800D02*
X87372493Y43380181D01*
X87372493Y43380181D02*
X87134398Y43380181D01*
X85170112Y61403991D02*
X84836779Y61403991D01*
X84836779Y60880181D02*
X84836779Y61880181D01*
X84836779Y61880181D02*
X85312969Y61880181D01*
X86170112Y60880181D02*
X85693922Y60880181D01*
X85693922Y60880181D02*
X85693922Y61880181D01*
X86360589Y61880181D02*
X86932017Y61880181D01*
X86646303Y60880181D02*
X86646303Y61880181D01*
X87979636Y61927800D02*
X87122494Y60642086D01*
X85289160Y58427800D02*
X85432017Y58380181D01*
X85432017Y58380181D02*
X85670112Y58380181D01*
X85670112Y58380181D02*
X85765350Y58427800D01*
X85765350Y58427800D02*
X85812969Y58475420D01*
X85812969Y58475420D02*
X85860588Y58570658D01*
X85860588Y58570658D02*
X85860588Y58665896D01*
X85860588Y58665896D02*
X85812969Y58761134D01*
X85812969Y58761134D02*
X85765350Y58808753D01*
X85765350Y58808753D02*
X85670112Y58856372D01*
X85670112Y58856372D02*
X85479636Y58903991D01*
X85479636Y58903991D02*
X85384398Y58951610D01*
X85384398Y58951610D02*
X85336779Y58999229D01*
X85336779Y58999229D02*
X85289160Y59094467D01*
X85289160Y59094467D02*
X85289160Y59189705D01*
X85289160Y59189705D02*
X85336779Y59284943D01*
X85336779Y59284943D02*
X85384398Y59332562D01*
X85384398Y59332562D02*
X85479636Y59380181D01*
X85479636Y59380181D02*
X85717731Y59380181D01*
X85717731Y59380181D02*
X85860588Y59332562D01*
X86289160Y58380181D02*
X86289160Y59380181D01*
X86289160Y59380181D02*
X86527255Y59380181D01*
X86527255Y59380181D02*
X86670112Y59332562D01*
X86670112Y59332562D02*
X86765350Y59237324D01*
X86765350Y59237324D02*
X86812969Y59142086D01*
X86812969Y59142086D02*
X86860588Y58951610D01*
X86860588Y58951610D02*
X86860588Y58808753D01*
X86860588Y58808753D02*
X86812969Y58618277D01*
X86812969Y58618277D02*
X86765350Y58523039D01*
X86765350Y58523039D02*
X86670112Y58427800D01*
X86670112Y58427800D02*
X86527255Y58380181D01*
X86527255Y58380181D02*
X86289160Y58380181D01*
X87241541Y58665896D02*
X87717731Y58665896D01*
X87146303Y58380181D02*
X87479636Y59380181D01*
X87479636Y59380181D02*
X87812969Y58380181D01*
X84086779Y53380181D02*
X84086779Y54380181D01*
X84562969Y53380181D02*
X84562969Y54380181D01*
X84562969Y54380181D02*
X85134397Y53380181D01*
X85134397Y53380181D02*
X85134397Y54380181D01*
X85467731Y54380181D02*
X86039159Y54380181D01*
X85753445Y53380181D02*
X85753445Y54380181D01*
X86134398Y53284943D02*
X86896302Y53284943D01*
X87134398Y53380181D02*
X87134398Y54380181D01*
X87134398Y54380181D02*
X87705826Y53380181D01*
X87705826Y53380181D02*
X87705826Y54380181D01*
X85658207Y48225420D02*
X85610588Y48177800D01*
X85610588Y48177800D02*
X85467731Y48130181D01*
X85467731Y48130181D02*
X85372493Y48130181D01*
X85372493Y48130181D02*
X85229636Y48177800D01*
X85229636Y48177800D02*
X85134398Y48273039D01*
X85134398Y48273039D02*
X85086779Y48368277D01*
X85086779Y48368277D02*
X85039160Y48558753D01*
X85039160Y48558753D02*
X85039160Y48701610D01*
X85039160Y48701610D02*
X85086779Y48892086D01*
X85086779Y48892086D02*
X85134398Y48987324D01*
X85134398Y48987324D02*
X85229636Y49082562D01*
X85229636Y49082562D02*
X85372493Y49130181D01*
X85372493Y49130181D02*
X85467731Y49130181D01*
X85467731Y49130181D02*
X85610588Y49082562D01*
X85610588Y49082562D02*
X85658207Y49034943D01*
X86658207Y48225420D02*
X86610588Y48177800D01*
X86610588Y48177800D02*
X86467731Y48130181D01*
X86467731Y48130181D02*
X86372493Y48130181D01*
X86372493Y48130181D02*
X86229636Y48177800D01*
X86229636Y48177800D02*
X86134398Y48273039D01*
X86134398Y48273039D02*
X86086779Y48368277D01*
X86086779Y48368277D02*
X86039160Y48558753D01*
X86039160Y48558753D02*
X86039160Y48701610D01*
X86039160Y48701610D02*
X86086779Y48892086D01*
X86086779Y48892086D02*
X86134398Y48987324D01*
X86134398Y48987324D02*
X86229636Y49082562D01*
X86229636Y49082562D02*
X86372493Y49130181D01*
X86372493Y49130181D02*
X86467731Y49130181D01*
X86467731Y49130181D02*
X86610588Y49082562D01*
X86610588Y49082562D02*
X86658207Y49034943D01*
X87039160Y49034943D02*
X87086779Y49082562D01*
X87086779Y49082562D02*
X87182017Y49130181D01*
X87182017Y49130181D02*
X87420112Y49130181D01*
X87420112Y49130181D02*
X87515350Y49082562D01*
X87515350Y49082562D02*
X87562969Y49034943D01*
X87562969Y49034943D02*
X87610588Y48939705D01*
X87610588Y48939705D02*
X87610588Y48844467D01*
X87610588Y48844467D02*
X87562969Y48701610D01*
X87562969Y48701610D02*
X86991541Y48130181D01*
X86991541Y48130181D02*
X87610588Y48130181D01*
X10562969Y13380181D02*
X10086779Y13380181D01*
X10086779Y13380181D02*
X10039160Y12903991D01*
X10039160Y12903991D02*
X10086779Y12951610D01*
X10086779Y12951610D02*
X10182017Y12999229D01*
X10182017Y12999229D02*
X10420112Y12999229D01*
X10420112Y12999229D02*
X10515350Y12951610D01*
X10515350Y12951610D02*
X10562969Y12903991D01*
X10562969Y12903991D02*
X10610588Y12808753D01*
X10610588Y12808753D02*
X10610588Y12570658D01*
X10610588Y12570658D02*
X10562969Y12475420D01*
X10562969Y12475420D02*
X10515350Y12427800D01*
X10515350Y12427800D02*
X10420112Y12380181D01*
X10420112Y12380181D02*
X10182017Y12380181D01*
X10182017Y12380181D02*
X10086779Y12427800D01*
X10086779Y12427800D02*
X10039160Y12475420D01*
X11658208Y13380181D02*
X11991541Y12380181D01*
X11991541Y12380181D02*
X12324874Y13380181D01*
X80789160Y63915896D02*
X81265350Y63915896D01*
X80693922Y63630181D02*
X81027255Y64630181D01*
X81027255Y64630181D02*
X81360588Y63630181D01*
X81693922Y63630181D02*
X81693922Y64630181D01*
X81693922Y64630181D02*
X81932017Y64630181D01*
X81932017Y64630181D02*
X82074874Y64582562D01*
X82074874Y64582562D02*
X82170112Y64487324D01*
X82170112Y64487324D02*
X82217731Y64392086D01*
X82217731Y64392086D02*
X82265350Y64201610D01*
X82265350Y64201610D02*
X82265350Y64058753D01*
X82265350Y64058753D02*
X82217731Y63868277D01*
X82217731Y63868277D02*
X82170112Y63773039D01*
X82170112Y63773039D02*
X82074874Y63677800D01*
X82074874Y63677800D02*
X81932017Y63630181D01*
X81932017Y63630181D02*
X81693922Y63630181D01*
X83265350Y63725420D02*
X83217731Y63677800D01*
X83217731Y63677800D02*
X83074874Y63630181D01*
X83074874Y63630181D02*
X82979636Y63630181D01*
X82979636Y63630181D02*
X82836779Y63677800D01*
X82836779Y63677800D02*
X82741541Y63773039D01*
X82741541Y63773039D02*
X82693922Y63868277D01*
X82693922Y63868277D02*
X82646303Y64058753D01*
X82646303Y64058753D02*
X82646303Y64201610D01*
X82646303Y64201610D02*
X82693922Y64392086D01*
X82693922Y64392086D02*
X82741541Y64487324D01*
X82741541Y64487324D02*
X82836779Y64582562D01*
X82836779Y64582562D02*
X82979636Y64630181D01*
X82979636Y64630181D02*
X83074874Y64630181D01*
X83074874Y64630181D02*
X83217731Y64582562D01*
X83217731Y64582562D02*
X83265350Y64534943D01*
X83455827Y63534943D02*
X84217731Y63534943D01*
X84312970Y64630181D02*
X84646303Y63630181D01*
X84646303Y63630181D02*
X84979636Y64630181D01*
X85646303Y64153991D02*
X85789160Y64106372D01*
X85789160Y64106372D02*
X85836779Y64058753D01*
X85836779Y64058753D02*
X85884398Y63963515D01*
X85884398Y63963515D02*
X85884398Y63820658D01*
X85884398Y63820658D02*
X85836779Y63725420D01*
X85836779Y63725420D02*
X85789160Y63677800D01*
X85789160Y63677800D02*
X85693922Y63630181D01*
X85693922Y63630181D02*
X85312970Y63630181D01*
X85312970Y63630181D02*
X85312970Y64630181D01*
X85312970Y64630181D02*
X85646303Y64630181D01*
X85646303Y64630181D02*
X85741541Y64582562D01*
X85741541Y64582562D02*
X85789160Y64534943D01*
X85789160Y64534943D02*
X85836779Y64439705D01*
X85836779Y64439705D02*
X85836779Y64344467D01*
X85836779Y64344467D02*
X85789160Y64249229D01*
X85789160Y64249229D02*
X85741541Y64201610D01*
X85741541Y64201610D02*
X85646303Y64153991D01*
X85646303Y64153991D02*
X85312970Y64153991D01*
X86312970Y64630181D02*
X86312970Y63820658D01*
X86312970Y63820658D02*
X86360589Y63725420D01*
X86360589Y63725420D02*
X86408208Y63677800D01*
X86408208Y63677800D02*
X86503446Y63630181D01*
X86503446Y63630181D02*
X86693922Y63630181D01*
X86693922Y63630181D02*
X86789160Y63677800D01*
X86789160Y63677800D02*
X86836779Y63725420D01*
X86836779Y63725420D02*
X86884398Y63820658D01*
X86884398Y63820658D02*
X86884398Y64630181D01*
X87312970Y63677800D02*
X87455827Y63630181D01*
X87455827Y63630181D02*
X87693922Y63630181D01*
X87693922Y63630181D02*
X87789160Y63677800D01*
X87789160Y63677800D02*
X87836779Y63725420D01*
X87836779Y63725420D02*
X87884398Y63820658D01*
X87884398Y63820658D02*
X87884398Y63915896D01*
X87884398Y63915896D02*
X87836779Y64011134D01*
X87836779Y64011134D02*
X87789160Y64058753D01*
X87789160Y64058753D02*
X87693922Y64106372D01*
X87693922Y64106372D02*
X87503446Y64153991D01*
X87503446Y64153991D02*
X87408208Y64201610D01*
X87408208Y64201610D02*
X87360589Y64249229D01*
X87360589Y64249229D02*
X87312970Y64344467D01*
X87312970Y64344467D02*
X87312970Y64439705D01*
X87312970Y64439705D02*
X87360589Y64534943D01*
X87360589Y64534943D02*
X87408208Y64582562D01*
X87408208Y64582562D02*
X87503446Y64630181D01*
X87503446Y64630181D02*
X87741541Y64630181D01*
X87741541Y64630181D02*
X87884398Y64582562D01*
X85289160Y55927800D02*
X85432017Y55880181D01*
X85432017Y55880181D02*
X85670112Y55880181D01*
X85670112Y55880181D02*
X85765350Y55927800D01*
X85765350Y55927800D02*
X85812969Y55975420D01*
X85812969Y55975420D02*
X85860588Y56070658D01*
X85860588Y56070658D02*
X85860588Y56165896D01*
X85860588Y56165896D02*
X85812969Y56261134D01*
X85812969Y56261134D02*
X85765350Y56308753D01*
X85765350Y56308753D02*
X85670112Y56356372D01*
X85670112Y56356372D02*
X85479636Y56403991D01*
X85479636Y56403991D02*
X85384398Y56451610D01*
X85384398Y56451610D02*
X85336779Y56499229D01*
X85336779Y56499229D02*
X85289160Y56594467D01*
X85289160Y56594467D02*
X85289160Y56689705D01*
X85289160Y56689705D02*
X85336779Y56784943D01*
X85336779Y56784943D02*
X85384398Y56832562D01*
X85384398Y56832562D02*
X85479636Y56880181D01*
X85479636Y56880181D02*
X85717731Y56880181D01*
X85717731Y56880181D02*
X85860588Y56832562D01*
X86860588Y55975420D02*
X86812969Y55927800D01*
X86812969Y55927800D02*
X86670112Y55880181D01*
X86670112Y55880181D02*
X86574874Y55880181D01*
X86574874Y55880181D02*
X86432017Y55927800D01*
X86432017Y55927800D02*
X86336779Y56023039D01*
X86336779Y56023039D02*
X86289160Y56118277D01*
X86289160Y56118277D02*
X86241541Y56308753D01*
X86241541Y56308753D02*
X86241541Y56451610D01*
X86241541Y56451610D02*
X86289160Y56642086D01*
X86289160Y56642086D02*
X86336779Y56737324D01*
X86336779Y56737324D02*
X86432017Y56832562D01*
X86432017Y56832562D02*
X86574874Y56880181D01*
X86574874Y56880181D02*
X86670112Y56880181D01*
X86670112Y56880181D02*
X86812969Y56832562D01*
X86812969Y56832562D02*
X86860588Y56784943D01*
X87765350Y55880181D02*
X87289160Y55880181D01*
X87289160Y55880181D02*
X87289160Y56880181D01*
X57670112Y85653991D02*
X57812969Y85606372D01*
X57812969Y85606372D02*
X57860588Y85558753D01*
X57860588Y85558753D02*
X57908207Y85463515D01*
X57908207Y85463515D02*
X57908207Y85320658D01*
X57908207Y85320658D02*
X57860588Y85225420D01*
X57860588Y85225420D02*
X57812969Y85177800D01*
X57812969Y85177800D02*
X57717731Y85130181D01*
X57717731Y85130181D02*
X57336779Y85130181D01*
X57336779Y85130181D02*
X57336779Y86130181D01*
X57336779Y86130181D02*
X57670112Y86130181D01*
X57670112Y86130181D02*
X57765350Y86082562D01*
X57765350Y86082562D02*
X57812969Y86034943D01*
X57812969Y86034943D02*
X57860588Y85939705D01*
X57860588Y85939705D02*
X57860588Y85844467D01*
X57860588Y85844467D02*
X57812969Y85749229D01*
X57812969Y85749229D02*
X57765350Y85701610D01*
X57765350Y85701610D02*
X57670112Y85653991D01*
X57670112Y85653991D02*
X57336779Y85653991D01*
X58289160Y85415896D02*
X58765350Y85415896D01*
X58193922Y85130181D02*
X58527255Y86130181D01*
X58527255Y86130181D02*
X58860588Y85130181D01*
X59051065Y86130181D02*
X59622493Y86130181D01*
X59336779Y85130181D02*
X59336779Y86130181D01*
X24241541Y13380181D02*
X24860588Y13380181D01*
X24860588Y13380181D02*
X24527255Y12999229D01*
X24527255Y12999229D02*
X24670112Y12999229D01*
X24670112Y12999229D02*
X24765350Y12951610D01*
X24765350Y12951610D02*
X24812969Y12903991D01*
X24812969Y12903991D02*
X24860588Y12808753D01*
X24860588Y12808753D02*
X24860588Y12570658D01*
X24860588Y12570658D02*
X24812969Y12475420D01*
X24812969Y12475420D02*
X24765350Y12427800D01*
X24765350Y12427800D02*
X24670112Y12380181D01*
X24670112Y12380181D02*
X24384398Y12380181D01*
X24384398Y12380181D02*
X24289160Y12427800D01*
X24289160Y12427800D02*
X24241541Y12475420D01*
X25146303Y13380181D02*
X25479636Y12380181D01*
X25479636Y12380181D02*
X25812969Y13380181D01*
X26051065Y13380181D02*
X26670112Y13380181D01*
X26670112Y13380181D02*
X26336779Y12999229D01*
X26336779Y12999229D02*
X26479636Y12999229D01*
X26479636Y12999229D02*
X26574874Y12951610D01*
X26574874Y12951610D02*
X26622493Y12903991D01*
X26622493Y12903991D02*
X26670112Y12808753D01*
X26670112Y12808753D02*
X26670112Y12570658D01*
X26670112Y12570658D02*
X26622493Y12475420D01*
X26622493Y12475420D02*
X26574874Y12427800D01*
X26574874Y12427800D02*
X26479636Y12380181D01*
X26479636Y12380181D02*
X26193922Y12380181D01*
X26193922Y12380181D02*
X26098684Y12427800D01*
X26098684Y12427800D02*
X26051065Y12475420D01*
D11*
%TO.C,J1*%
X5133000Y32470000D02*
X4333000Y32470000D01*
X150000Y32470000D02*
X1333000Y32470000D01*
D12*
X7800000Y28500000D02*
X7800000Y28500000D01*
X7700000Y28500000D02*
X7700000Y28500000D01*
D11*
X5133000Y23530000D02*
X4333000Y23530000D01*
X1333000Y23530000D02*
X150000Y23530000D01*
X150000Y23530000D02*
X150000Y32470000D01*
D12*
X7800000Y28500000D02*
G75*
G02*
X7700000Y28500000I-50000J0D01*
G01*
X7700000Y28500000D02*
G75*
G02*
X7800000Y28500000I50000J0D01*
G01*
D11*
%TO.C,Q1*%
X63350000Y64790000D02*
X63350000Y61490000D01*
X66650000Y61490000D02*
X66650000Y64790000D01*
X66028000Y65086000D02*
G75*
G02*
X65974000Y65086000I-27000J0D01*
G01*
X65974000Y65086000D02*
G75*
G02*
X66028000Y65086000I27000J0D01*
G01*
D13*
%TO.C,R16*%
X31477500Y23992742D02*
X31477500Y24467258D01*
X32522500Y23992742D02*
X32522500Y24467258D01*
%TO.C,R7*%
X46272936Y56735000D02*
X46727064Y56735000D01*
X46272936Y55265000D02*
X46727064Y55265000D01*
D12*
%TO.C,D3*%
X15550000Y25500000D02*
X15550000Y25500000D01*
X15650000Y25500000D02*
X15650000Y25500000D01*
X15550000Y25500000D02*
G75*
G02*
X15650000Y25500000I50000J0D01*
G01*
X15650000Y25500000D02*
G75*
G02*
X15550000Y25500000I-50000J0D01*
G01*
D11*
%TO.C,Q2*%
X57900000Y64790000D02*
X57900000Y61490000D01*
X61200000Y61490000D02*
X61200000Y64790000D01*
X60578000Y65086000D02*
G75*
G02*
X60524000Y65086000I-27000J0D01*
G01*
X60524000Y65086000D02*
G75*
G02*
X60578000Y65086000I27000J0D01*
G01*
%TO.C,J8*%
X89100000Y44500000D02*
X89100000Y24455000D01*
X89100000Y24455000D02*
X90500000Y24455000D01*
X91750000Y44500000D02*
X89100000Y44500000D01*
X91750000Y26000000D02*
X91750000Y44500000D01*
D13*
%TO.C,TP5*%
X27450000Y17750000D02*
G75*
G02*
X24050000Y17750000I-1700000J0D01*
G01*
X24050000Y17750000D02*
G75*
G02*
X27450000Y17750000I1700000J0D01*
G01*
%TO.C,R1*%
X61502500Y76847258D02*
X61502500Y76372742D01*
X62547500Y76847258D02*
X62547500Y76372742D01*
%TO.C,C13*%
X40380000Y29536920D02*
X40380000Y29818080D01*
X41400000Y29536920D02*
X41400000Y29818080D01*
%TO.C,IC5*%
X43530000Y28500000D02*
X44005000Y28500000D01*
X43530000Y28275000D02*
X43530000Y28500000D01*
X43530000Y26005000D02*
X43530000Y25780000D01*
X43530000Y25780000D02*
X44005000Y25780000D01*
X45775000Y28520000D02*
X46010000Y28520000D01*
X46250000Y26005000D02*
X46250000Y25780000D01*
X46250000Y25780000D02*
X45775000Y25780000D01*
X46580000Y28280000D02*
X46250000Y28520000D01*
X46580000Y28760000D01*
X46580000Y28280000D01*
G36*
X46580000Y28280000D02*
G01*
X46250000Y28520000D01*
X46580000Y28760000D01*
X46580000Y28280000D01*
G37*
%TO.C,R4*%
X58870000Y69643641D02*
X58870000Y69336359D01*
X59630000Y69643641D02*
X59630000Y69336359D01*
D11*
%TO.C,L1*%
X34700000Y67100000D02*
X34700000Y67100000D01*
X34700000Y66900000D02*
X34700000Y66900000D01*
D12*
X38500000Y71000000D02*
X40500000Y71000000D01*
X38500000Y63000000D02*
X40500000Y63000000D01*
D11*
X34700000Y67100000D02*
G75*
G02*
X34700000Y66900000I0J-100000D01*
G01*
X34700000Y66900000D02*
G75*
G02*
X34700000Y67100000I0J100000D01*
G01*
D13*
%TO.C,TP1*%
X16050000Y19950000D02*
X20450000Y19950000D01*
X16050000Y15550000D02*
X16050000Y19950000D01*
X20450000Y19950000D02*
X20450000Y15550000D01*
X20450000Y15550000D02*
X16050000Y15550000D01*
%TO.C,R22*%
X60012742Y28522500D02*
X60487258Y28522500D01*
X60012742Y27477500D02*
X60487258Y27477500D01*
D11*
%TO.C,IC3*%
X24687000Y82150000D02*
X24687000Y82150000D01*
X24687000Y81950000D02*
X24687000Y81950000D01*
X24687000Y82150000D02*
G75*
G02*
X24687000Y81950000I0J-100000D01*
G01*
X24687000Y81950000D02*
G75*
G02*
X24687000Y82150000I0J100000D01*
G01*
D13*
%TO.C,C11*%
X23640000Y24837836D02*
X23640000Y24622164D01*
X24360000Y24837836D02*
X24360000Y24622164D01*
%TO.C,C1*%
X62442164Y71795000D02*
X62657836Y71795000D01*
X62442164Y71075000D02*
X62657836Y71075000D01*
%TO.C,R3*%
X61653641Y67130000D02*
X61346359Y67130000D01*
X61653641Y66370000D02*
X61346359Y66370000D01*
D14*
%TO.C,IC1*%
X61025000Y68210000D02*
G75*
G02*
X60775000Y68210000I-125000J0D01*
G01*
X60775000Y68210000D02*
G75*
G02*
X61025000Y68210000I125000J0D01*
G01*
D13*
%TO.C,C15*%
X47140000Y28392164D02*
X47140000Y28607836D01*
X47860000Y28392164D02*
X47860000Y28607836D01*
%TO.C,C10*%
X22857836Y26610000D02*
X22642164Y26610000D01*
X22857836Y25890000D02*
X22642164Y25890000D01*
%TO.C,R19*%
X37596359Y26282500D02*
X37903641Y26282500D01*
X37596359Y25522500D02*
X37903641Y25522500D01*
D11*
%TO.C,D1*%
X38200000Y50075000D02*
X38200000Y47925000D01*
X38200000Y47925000D02*
X40900000Y47925000D01*
X40900000Y50075000D02*
X38200000Y50075000D01*
D13*
%TO.C,R15*%
X31477500Y28467258D02*
X31477500Y27992742D01*
X32522500Y28467258D02*
X32522500Y27992742D01*
%TO.C,R14*%
X43370000Y31846359D02*
X43370000Y32153641D01*
X44130000Y31846359D02*
X44130000Y32153641D01*
%TO.C,C8*%
X26265000Y83311252D02*
X26265000Y82788748D01*
X27735000Y83311252D02*
X27735000Y82788748D01*
%TO.C,C12*%
X42030000Y28814664D02*
X42030000Y29030336D01*
X42750000Y28814664D02*
X42750000Y29030336D01*
%TO.C,R2*%
X64371359Y68815000D02*
X64678641Y68815000D01*
X64371359Y68055000D02*
X64678641Y68055000D01*
%TO.C,C7*%
X19265000Y83288748D02*
X19265000Y83811252D01*
X20735000Y83288748D02*
X20735000Y83811252D01*
%TO.C,C14*%
X45642164Y25110000D02*
X45857836Y25110000D01*
X45642164Y24390000D02*
X45857836Y24390000D01*
%TO.C,R20*%
X37606359Y27782500D02*
X37913641Y27782500D01*
X37606359Y27022500D02*
X37913641Y27022500D01*
%TO.C,R6*%
X46272936Y53735000D02*
X46727064Y53735000D01*
X46272936Y52265000D02*
X46727064Y52265000D01*
%TO.C,R11*%
X20346359Y29880000D02*
X20653641Y29880000D01*
X20346359Y29120000D02*
X20653641Y29120000D01*
%TO.C,C4*%
X42988748Y61485000D02*
X43511252Y61485000D01*
X42988748Y60015000D02*
X43511252Y60015000D01*
%TO.C,TP4*%
X59950000Y81250000D02*
G75*
G02*
X56550000Y81250000I-1700000J0D01*
G01*
X56550000Y81250000D02*
G75*
G02*
X59950000Y81250000I1700000J0D01*
G01*
%TO.C,C3*%
X37765000Y58238748D02*
X37765000Y58761252D01*
X39235000Y58238748D02*
X39235000Y58761252D01*
%TO.C,C5*%
X40261252Y54735000D02*
X39738748Y54735000D01*
X40261252Y53265000D02*
X39738748Y53265000D01*
%TO.C,D2*%
X46540000Y50747500D02*
X46540000Y48062500D01*
X48460000Y50747500D02*
X46540000Y50747500D01*
X48460000Y48062500D02*
X48460000Y50747500D01*
%TO.C,R17*%
X27346359Y23610000D02*
X27653641Y23610000D01*
X27346359Y22850000D02*
X27653641Y22850000D01*
D11*
%TO.C,Q3*%
X29990000Y55425000D02*
X29990000Y56575000D01*
X30050000Y57275000D02*
X32950000Y57275000D01*
X30050000Y56925000D02*
X30050000Y57275000D01*
X32950000Y57275000D02*
X32950000Y56925000D01*
X32950000Y56925000D02*
X30050000Y56925000D01*
D13*
%TO.C,C6*%
X42265000Y53311252D02*
X42265000Y52788748D01*
X43735000Y53311252D02*
X43735000Y52788748D01*
%TO.C,R5*%
X36620000Y49346359D02*
X36620000Y49653641D01*
X37380000Y49346359D02*
X37380000Y49653641D01*
D14*
%TO.C,IC4*%
X28760000Y24980000D02*
G75*
G02*
X28510000Y24980000I-125000J0D01*
G01*
X28510000Y24980000D02*
G75*
G02*
X28760000Y24980000I125000J0D01*
G01*
D13*
%TO.C,R18*%
X37596359Y24782500D02*
X37903641Y24782500D01*
X37596359Y24022500D02*
X37903641Y24022500D01*
%TO.C,TP2*%
X12700000Y17750000D02*
G75*
G02*
X9300000Y17750000I-1700000J0D01*
G01*
X9300000Y17750000D02*
G75*
G02*
X12700000Y17750000I1700000J0D01*
G01*
%TO.C,C9*%
X23640000Y27817836D02*
X23640000Y27602164D01*
X24360000Y27817836D02*
X24360000Y27602164D01*
D12*
%TO.C,Q4*%
X21750000Y35315000D02*
X22850000Y35315000D01*
X21750000Y35140000D02*
X21750000Y35315000D01*
X21750000Y32340000D02*
X21750000Y32165000D01*
X21750000Y32165000D02*
X22850000Y32165000D01*
X23650000Y35315000D02*
X24750000Y35315000D01*
X23650000Y32165000D02*
X24750000Y32165000D01*
X24750000Y35315000D02*
X24750000Y35140000D01*
X24750000Y32165000D02*
X24750000Y32340000D01*
D11*
X25450000Y32840000D02*
X25450000Y32840000D01*
X25450000Y32640000D02*
X25450000Y32640000D01*
X25450000Y32840000D02*
G75*
G02*
X25450000Y32640000I0J-100000D01*
G01*
X25450000Y32640000D02*
G75*
G02*
X25450000Y32840000I0J100000D01*
G01*
D14*
%TO.C,IC2*%
X40625000Y55600000D02*
G75*
G02*
X40375000Y55600000I-125000J0D01*
G01*
X40375000Y55600000D02*
G75*
G02*
X40625000Y55600000I125000J0D01*
G01*
D11*
%TO.C,D4*%
X20600000Y25900000D02*
X19400000Y25900000D01*
X21075000Y25100000D02*
X19400000Y25100000D01*
D13*
%TO.C,R9*%
X50727064Y52735000D02*
X50272936Y52735000D01*
X50727064Y51265000D02*
X50272936Y51265000D01*
%TO.C,C2*%
X36265000Y55261252D02*
X36265000Y54738748D01*
X37735000Y55261252D02*
X37735000Y54738748D01*
%TO.C,R12*%
X26727500Y32237258D02*
X26727500Y31762742D01*
X27772500Y32237258D02*
X27772500Y31762742D01*
%TO.C,TP3*%
X30950000Y39250000D02*
G75*
G02*
X27550000Y39250000I-1700000J0D01*
G01*
X27550000Y39250000D02*
G75*
G02*
X30950000Y39250000I1700000J0D01*
G01*
%TO.C,R13*%
X44620000Y30748859D02*
X44620000Y31056141D01*
X45380000Y30748859D02*
X45380000Y31056141D01*
%TO.C,R10*%
X13596359Y29880000D02*
X13903641Y29880000D01*
X13596359Y29120000D02*
X13903641Y29120000D01*
%TO.C,R8*%
X50272936Y60735000D02*
X50727064Y60735000D01*
X50272936Y59265000D02*
X50727064Y59265000D01*
%TO.C,R21*%
X49762742Y26272500D02*
X50237258Y26272500D01*
X49762742Y25227500D02*
X50237258Y25227500D01*
%TD*%
M02*
