%TF.GenerationSoftware,KiCad,Pcbnew,8.0.8*%
%TF.CreationDate,2025-03-29T17:39:48+01:00*%
%TF.ProjectId,eps,6570732e-6b69-4636-9164-5f7063625858,rev?*%
%TF.SameCoordinates,PX55d4a80PY8044ea0*%
%TF.FileFunction,Paste,Top*%
%TF.FilePolarity,Positive*%
%FSLAX46Y46*%
G04 Gerber Fmt 4.6, Leading zero omitted, Abs format (unit mm)*
G04 Created by KiCad (PCBNEW 8.0.8) date 2025-03-29 17:39:48*
%MOMM*%
%LPD*%
G01*
G04 APERTURE LIST*
G04 Aperture macros list*
%AMRoundRect*
0 Rectangle with rounded corners*
0 $1 Rounding radius*
0 $2 $3 $4 $5 $6 $7 $8 $9 X,Y pos of 4 corners*
0 Add a 4 corners polygon primitive as box body*
4,1,4,$2,$3,$4,$5,$6,$7,$8,$9,$2,$3,0*
0 Add four circle primitives for the rounded corners*
1,1,$1+$1,$2,$3*
1,1,$1+$1,$4,$5*
1,1,$1+$1,$6,$7*
1,1,$1+$1,$8,$9*
0 Add four rect primitives between the rounded corners*
20,1,$1+$1,$2,$3,$4,$5,0*
20,1,$1+$1,$4,$5,$6,$7,0*
20,1,$1+$1,$6,$7,$8,$9,0*
20,1,$1+$1,$8,$9,$2,$3,0*%
G04 Aperture macros list end*
%ADD10RoundRect,0.175000X-0.425000X0.175000X-0.425000X-0.175000X0.425000X-0.175000X0.425000X0.175000X0*%
%ADD11RoundRect,0.190000X-0.410000X0.190000X-0.410000X-0.190000X0.410000X-0.190000X0.410000X0.190000X0*%
%ADD12RoundRect,0.200000X-0.400000X0.200000X-0.400000X-0.200000X0.400000X-0.200000X0.400000X0.200000X0*%
%ADD13RoundRect,0.125000X0.125000X0.190000X-0.125000X0.190000X-0.125000X-0.190000X0.125000X-0.190000X0*%
%ADD14RoundRect,0.125000X-0.125000X0.250000X-0.125000X-0.250000X0.125000X-0.250000X0.125000X0.250000X0*%
%ADD15RoundRect,0.250000X-0.975000X0.700000X-0.975000X-0.700000X0.975000X-0.700000X0.975000X0.700000X0*%
%ADD16RoundRect,0.200000X0.275000X-0.200000X0.275000X0.200000X-0.275000X0.200000X-0.275000X-0.200000X0*%
%ADD17RoundRect,0.250000X-0.262500X-0.450000X0.262500X-0.450000X0.262500X0.450000X-0.262500X0.450000X0*%
%ADD18RoundRect,0.137500X-0.137500X-0.262500X0.137500X-0.262500X0.137500X0.262500X-0.137500X0.262500X0*%
%ADD19RoundRect,0.200000X-0.275000X0.200000X-0.275000X-0.200000X0.275000X-0.200000X0.275000X0.200000X0*%
%ADD20RoundRect,0.225000X0.250000X-0.225000X0.250000X0.225000X-0.250000X0.225000X-0.250000X-0.225000X0*%
%ADD21RoundRect,0.145000X-0.145000X0.145000X-0.145000X-0.145000X0.145000X-0.145000X0.145000X0.145000X0*%
%ADD22RoundRect,0.062500X-0.062500X0.275000X-0.062500X-0.275000X0.062500X-0.275000X0.062500X0.275000X0*%
%ADD23RoundRect,0.062500X-0.275000X0.062500X-0.275000X-0.062500X0.275000X-0.062500X0.275000X0.062500X0*%
%ADD24RoundRect,0.135000X-0.185000X0.135000X-0.185000X-0.135000X0.185000X-0.135000X0.185000X0.135000X0*%
%ADD25RoundRect,0.250000X-1.050000X-3.850000X1.050000X-3.850000X1.050000X3.850000X-1.050000X3.850000X0*%
%ADD26RoundRect,0.200000X-0.200000X-0.275000X0.200000X-0.275000X0.200000X0.275000X-0.200000X0.275000X0*%
%ADD27RoundRect,0.087500X0.100000X-0.087500X0.100000X0.087500X-0.100000X0.087500X-0.100000X-0.087500X0*%
%ADD28RoundRect,0.100000X0.950000X-0.100000X0.950000X0.100000X-0.950000X0.100000X-0.950000X-0.100000X0*%
%ADD29RoundRect,0.250000X0.300000X0.500000X-0.300000X0.500000X-0.300000X-0.500000X0.300000X-0.500000X0*%
%ADD30RoundRect,0.140000X-0.170000X0.140000X-0.170000X-0.140000X0.170000X-0.140000X0.170000X0.140000X0*%
%ADD31RoundRect,0.140000X-0.140000X-0.170000X0.140000X-0.170000X0.140000X0.170000X-0.140000X0.170000X0*%
%ADD32RoundRect,0.135000X0.135000X0.185000X-0.135000X0.185000X-0.135000X-0.185000X0.135000X-0.185000X0*%
%ADD33RoundRect,0.075000X0.075000X0.450000X-0.075000X0.450000X-0.075000X-0.450000X0.075000X-0.450000X0*%
%ADD34RoundRect,0.140000X0.170000X-0.140000X0.170000X0.140000X-0.170000X0.140000X-0.170000X-0.140000X0*%
%ADD35RoundRect,0.140000X0.140000X0.170000X-0.140000X0.170000X-0.140000X-0.170000X0.140000X-0.170000X0*%
%ADD36RoundRect,0.135000X-0.135000X-0.185000X0.135000X-0.185000X0.135000X0.185000X-0.135000X0.185000X0*%
%ADD37RoundRect,0.250000X-0.300000X-0.475000X0.300000X-0.475000X0.300000X0.475000X-0.300000X0.475000X0*%
%ADD38RoundRect,0.135000X0.185000X-0.135000X0.185000X0.135000X-0.185000X0.135000X-0.185000X-0.135000X0*%
%ADD39RoundRect,0.250000X-0.475000X0.250000X-0.475000X-0.250000X0.475000X-0.250000X0.475000X0.250000X0*%
%ADD40RoundRect,0.250000X0.475000X-0.250000X0.475000X0.250000X-0.475000X0.250000X-0.475000X-0.250000X0*%
%ADD41RoundRect,0.250000X-0.250000X-0.475000X0.250000X-0.475000X0.250000X0.475000X-0.250000X0.475000X0*%
%ADD42RoundRect,0.250000X0.250000X0.475000X-0.250000X0.475000X-0.250000X-0.475000X0.250000X-0.475000X0*%
%ADD43RoundRect,0.243750X-0.456250X0.243750X-0.456250X-0.243750X0.456250X-0.243750X0.456250X0.243750X0*%
%ADD44RoundRect,0.150000X0.150000X0.425000X-0.150000X0.425000X-0.150000X-0.425000X0.150000X-0.425000X0*%
%ADD45RoundRect,0.075000X-0.350000X0.075000X-0.350000X-0.075000X0.350000X-0.075000X0.350000X0.075000X0*%
%ADD46RoundRect,0.075000X0.075000X0.350000X-0.075000X0.350000X-0.075000X-0.350000X0.075000X-0.350000X0*%
%ADD47RoundRect,0.250000X0.525000X0.525000X-0.525000X0.525000X-0.525000X-0.525000X0.525000X-0.525000X0*%
%ADD48RoundRect,0.100000X0.275000X-0.100000X0.275000X0.100000X-0.275000X0.100000X-0.275000X-0.100000X0*%
%ADD49RoundRect,0.250000X0.950000X0.975000X-0.950000X0.975000X-0.950000X-0.975000X0.950000X-0.975000X0*%
%ADD50RoundRect,0.100000X0.100000X0.277500X-0.100000X0.277500X-0.100000X-0.277500X0.100000X-0.277500X0*%
%ADD51RoundRect,0.075000X0.075000X0.325000X-0.075000X0.325000X-0.075000X-0.325000X0.075000X-0.325000X0*%
%ADD52RoundRect,0.075000X0.325000X-0.075000X0.325000X0.075000X-0.325000X0.075000X-0.325000X-0.075000X0*%
%ADD53RoundRect,0.250000X0.630000X-0.630000X0.630000X0.630000X-0.630000X0.630000X-0.630000X-0.630000X0*%
%ADD54RoundRect,0.105000X-0.245000X0.105000X-0.245000X-0.105000X0.245000X-0.105000X0.245000X0.105000X0*%
%ADD55RoundRect,0.250000X0.262500X0.450000X-0.262500X0.450000X-0.262500X-0.450000X0.262500X-0.450000X0*%
G04 APERTURE END LIST*
D10*
%TO.C,J1*%
X6630000Y28500000D03*
D11*
X6630000Y26480000D03*
D12*
X6630000Y25250000D03*
D10*
X6630000Y27500000D03*
D11*
X6630000Y29520000D03*
D12*
X6630000Y30750000D03*
%TD*%
D13*
%TO.C,Q1*%
X65975000Y64575000D03*
X65325000Y64575000D03*
X64675000Y64575000D03*
X64025000Y64575000D03*
D14*
X64025000Y61765000D03*
X64675000Y61765000D03*
X65325000Y61765000D03*
X65975000Y61765000D03*
D15*
X65000000Y62750000D03*
%TD*%
D16*
%TO.C,R16*%
X32000000Y23405000D03*
X32000000Y25055000D03*
%TD*%
D17*
%TO.C,R7*%
X45587500Y56000000D03*
X47412500Y56000000D03*
%TD*%
D18*
%TO.C,D3*%
X14875000Y25500000D03*
X13625000Y25500000D03*
%TD*%
D13*
%TO.C,Q2*%
X60525000Y64575000D03*
X59875000Y64575000D03*
X59225000Y64575000D03*
X58575000Y64575000D03*
D14*
X58575000Y61765000D03*
X59225000Y61765000D03*
X59875000Y61765000D03*
X60525000Y61765000D03*
D15*
X59550000Y62750000D03*
%TD*%
D19*
%TO.C,R1*%
X62025000Y77435000D03*
X62025000Y75785000D03*
%TD*%
D20*
%TO.C,C13*%
X40890000Y28902500D03*
X40890000Y30452500D03*
%TD*%
D21*
%TO.C,IC5*%
X45250000Y27500000D03*
X44530000Y27500000D03*
X45250000Y26780000D03*
X44530000Y26780000D03*
D22*
X45390000Y28402500D03*
X44890000Y28402500D03*
X44390000Y28402500D03*
D23*
X43627500Y27890000D03*
X43627500Y27390000D03*
X43627500Y26890000D03*
X43627500Y26390000D03*
D22*
X44390000Y25877500D03*
X44890000Y25877500D03*
X45390000Y25877500D03*
D23*
X46152500Y26390000D03*
X46152500Y26890000D03*
X46152500Y27390000D03*
X46152500Y27890000D03*
%TD*%
D24*
%TO.C,R4*%
X59250000Y70000000D03*
X59250000Y68980000D03*
%TD*%
D25*
%TO.C,L1*%
X36700000Y67000000D03*
X42300000Y67000000D03*
%TD*%
D26*
%TO.C,R22*%
X59425000Y28000000D03*
X61075000Y28000000D03*
%TD*%
D27*
%TO.C,IC3*%
X24125000Y82000000D03*
X24125000Y82550000D03*
X24125000Y83100000D03*
X22250000Y83100000D03*
X22250000Y82550000D03*
X22250000Y82000000D03*
D28*
X23187000Y81300000D03*
X23187000Y83800000D03*
D29*
X23187000Y82550000D03*
%TD*%
D30*
%TO.C,C11*%
X24000000Y25210000D03*
X24000000Y24250000D03*
%TD*%
D31*
%TO.C,C1*%
X62070000Y71435000D03*
X63030000Y71435000D03*
%TD*%
D32*
%TO.C,R3*%
X62010000Y66750000D03*
X60990000Y66750000D03*
%TD*%
D33*
%TO.C,IC1*%
X61550000Y68735000D03*
X62050000Y68735000D03*
X62550000Y68735000D03*
X62550000Y69935000D03*
X62050000Y69935000D03*
X61550000Y69935000D03*
%TD*%
D34*
%TO.C,C15*%
X47500000Y28020000D03*
X47500000Y28980000D03*
%TD*%
D35*
%TO.C,C10*%
X23230000Y26250000D03*
X22270000Y26250000D03*
%TD*%
D36*
%TO.C,R19*%
X37240000Y25902500D03*
X38260000Y25902500D03*
%TD*%
D37*
%TO.C,D1*%
X39100000Y49000000D03*
X40900000Y49000000D03*
%TD*%
D19*
%TO.C,R15*%
X32000000Y29055000D03*
X32000000Y27405000D03*
%TD*%
D38*
%TO.C,R14*%
X43750000Y31490000D03*
X43750000Y32510000D03*
%TD*%
D39*
%TO.C,C8*%
X27000000Y84000000D03*
X27000000Y82100000D03*
%TD*%
D34*
%TO.C,C12*%
X42390000Y28442500D03*
X42390000Y29402500D03*
%TD*%
D36*
%TO.C,R2*%
X64015000Y68435000D03*
X65035000Y68435000D03*
%TD*%
D40*
%TO.C,C7*%
X20000000Y82600000D03*
X20000000Y84500000D03*
%TD*%
D31*
%TO.C,C14*%
X45270000Y24750000D03*
X46230000Y24750000D03*
%TD*%
D36*
%TO.C,R20*%
X37250000Y27402500D03*
X38270000Y27402500D03*
%TD*%
D17*
%TO.C,R6*%
X45587500Y53000000D03*
X47412500Y53000000D03*
%TD*%
D36*
%TO.C,R11*%
X19990000Y29500000D03*
X21010000Y29500000D03*
%TD*%
D41*
%TO.C,C4*%
X42300000Y60750000D03*
X44200000Y60750000D03*
%TD*%
D40*
%TO.C,C3*%
X38500000Y57550000D03*
X38500000Y59450000D03*
%TD*%
D42*
%TO.C,C5*%
X40950000Y54000000D03*
X39050000Y54000000D03*
%TD*%
D43*
%TO.C,D2*%
X47500000Y50000000D03*
X47500000Y48125000D03*
%TD*%
D36*
%TO.C,R17*%
X26990000Y23230000D03*
X28010000Y23230000D03*
%TD*%
D44*
%TO.C,Q3*%
X30540000Y56000000D03*
X32460000Y56000000D03*
X31500000Y58200000D03*
%TD*%
D39*
%TO.C,C6*%
X43000000Y54000000D03*
X43000000Y52100000D03*
%TD*%
D38*
%TO.C,R5*%
X37000000Y48990000D03*
X37000000Y50010000D03*
%TD*%
D45*
%TO.C,IC4*%
X28210000Y25730000D03*
X28210000Y26230000D03*
X28210000Y26730000D03*
D46*
X27260000Y27680000D03*
X26760000Y27680000D03*
X26260000Y27680000D03*
D45*
X25310000Y26730000D03*
X25310000Y26230000D03*
X25310000Y25730000D03*
D46*
X26260000Y24780000D03*
X26760000Y24780000D03*
X27260000Y24780000D03*
D47*
X26760000Y26230000D03*
%TD*%
D36*
%TO.C,R18*%
X37240000Y24402500D03*
X38260000Y24402500D03*
%TD*%
D30*
%TO.C,C9*%
X24000000Y28190000D03*
X24000000Y27230000D03*
%TD*%
D48*
%TO.C,Q4*%
X24775000Y32765000D03*
X24775000Y33415000D03*
X24775000Y34065000D03*
X24775000Y34715000D03*
D49*
X22550000Y33740000D03*
D50*
X23250000Y32362500D03*
X23250000Y35117500D03*
%TD*%
D51*
%TO.C,IC2*%
X41250000Y56000000D03*
X41750000Y56000000D03*
X42250000Y56000000D03*
X42750000Y56000000D03*
D52*
X43500000Y56750000D03*
X43500000Y57250000D03*
X43500000Y57750000D03*
X43500000Y58250000D03*
D51*
X42750000Y59000000D03*
X42250000Y59000000D03*
X41750000Y59000000D03*
X41250000Y59000000D03*
D52*
X40500000Y58250000D03*
X40500000Y57750000D03*
X40500000Y57250000D03*
X40500000Y56750000D03*
D53*
X42000000Y57500000D03*
%TD*%
D54*
%TO.C,D4*%
X20725000Y25500000D03*
X19275000Y25500000D03*
%TD*%
D55*
%TO.C,R9*%
X51412500Y52000000D03*
X49587500Y52000000D03*
%TD*%
D39*
%TO.C,C2*%
X37000000Y55950000D03*
X37000000Y54050000D03*
%TD*%
D19*
%TO.C,R12*%
X27250000Y32825000D03*
X27250000Y31175000D03*
%TD*%
D38*
%TO.C,R13*%
X45000000Y30392500D03*
X45000000Y31412500D03*
%TD*%
D36*
%TO.C,R10*%
X13240000Y29500000D03*
X14260000Y29500000D03*
%TD*%
D17*
%TO.C,R8*%
X49587500Y60000000D03*
X51412500Y60000000D03*
%TD*%
D26*
%TO.C,R21*%
X49175000Y25750000D03*
X50825000Y25750000D03*
%TD*%
M02*
