%TF.GenerationSoftware,KiCad,Pcbnew,8.0.8*%
%TF.CreationDate,2025-03-29T17:39:48+01:00*%
%TF.ProjectId,eps,6570732e-6b69-4636-9164-5f7063625858,rev?*%
%TF.SameCoordinates,PX55d4a80PY8044ea0*%
%TF.FileFunction,Soldermask,Bot*%
%TF.FilePolarity,Negative*%
%FSLAX46Y46*%
G04 Gerber Fmt 4.6, Leading zero omitted, Abs format (unit mm)*
G04 Created by KiCad (PCBNEW 8.0.8) date 2025-03-29 17:39:48*
%MOMM*%
%LPD*%
G01*
G04 APERTURE LIST*
G04 APERTURE END LIST*
G36*
X6023850Y8695344D02*
G01*
X6366257Y8619975D01*
X6698507Y8508027D01*
X7016707Y8360812D01*
X7317124Y8180057D01*
X7596237Y7967881D01*
X7850773Y7726771D01*
X8077749Y7459554D01*
X8274504Y7169363D01*
X8438729Y6859601D01*
X8568501Y6533898D01*
X8662297Y6196074D01*
X8719019Y5850089D01*
X8738000Y5500000D01*
X8719019Y5149911D01*
X8662297Y4803926D01*
X8568501Y4466102D01*
X8438729Y4140399D01*
X8274504Y3830637D01*
X8077749Y3540446D01*
X7850773Y3273229D01*
X7596237Y3032119D01*
X7317124Y2819943D01*
X7016707Y2639188D01*
X6698507Y2491973D01*
X6366257Y2380025D01*
X6023850Y2304656D01*
X5675302Y2266749D01*
X5324698Y2266749D01*
X4976150Y2304656D01*
X4633743Y2380025D01*
X4301493Y2491973D01*
X3983293Y2639188D01*
X3682876Y2819943D01*
X3403763Y3032119D01*
X3149227Y3273229D01*
X2922251Y3540446D01*
X2725496Y3830637D01*
X2561271Y4140399D01*
X2431499Y4466102D01*
X2337703Y4803926D01*
X2280981Y5149911D01*
X2262000Y5500000D01*
X2280981Y5850089D01*
X2337703Y6196074D01*
X2431499Y6533898D01*
X2561271Y6859601D01*
X2725496Y7169363D01*
X2922251Y7459554D01*
X3149227Y7726771D01*
X3403763Y7967881D01*
X3682876Y8180057D01*
X3983293Y8360812D01*
X4301493Y8508027D01*
X4633743Y8619975D01*
X4976150Y8695344D01*
X5324698Y8733251D01*
X5675302Y8733251D01*
X6023850Y8695344D01*
G37*
G36*
X91023850Y8695344D02*
G01*
X91366257Y8619975D01*
X91698507Y8508027D01*
X92016707Y8360812D01*
X92317124Y8180057D01*
X92596237Y7967881D01*
X92850773Y7726771D01*
X93077749Y7459554D01*
X93274504Y7169363D01*
X93438729Y6859601D01*
X93568501Y6533898D01*
X93662297Y6196074D01*
X93719019Y5850089D01*
X93738000Y5500000D01*
X93719019Y5149911D01*
X93662297Y4803926D01*
X93568501Y4466102D01*
X93438729Y4140399D01*
X93274504Y3830637D01*
X93077749Y3540446D01*
X92850773Y3273229D01*
X92596237Y3032119D01*
X92317124Y2819943D01*
X92016707Y2639188D01*
X91698507Y2491973D01*
X91366257Y2380025D01*
X91023850Y2304656D01*
X90675302Y2266749D01*
X90324698Y2266749D01*
X89976150Y2304656D01*
X89633743Y2380025D01*
X89301493Y2491973D01*
X88983293Y2639188D01*
X88682876Y2819943D01*
X88403763Y3032119D01*
X88149227Y3273229D01*
X87922251Y3540446D01*
X87725496Y3830637D01*
X87561271Y4140399D01*
X87431499Y4466102D01*
X87337703Y4803926D01*
X87280981Y5149911D01*
X87262000Y5500000D01*
X87280981Y5850089D01*
X87337703Y6196074D01*
X87431499Y6533898D01*
X87561271Y6859601D01*
X87725496Y7169363D01*
X87922251Y7459554D01*
X88149227Y7726771D01*
X88403763Y7967881D01*
X88682876Y8180057D01*
X88983293Y8360812D01*
X89301493Y8508027D01*
X89633743Y8619975D01*
X89976150Y8695344D01*
X90324698Y8733251D01*
X90675302Y8733251D01*
X91023850Y8695344D01*
G37*
G36*
X43547232Y10053348D02*
G01*
X43594827Y10053348D01*
X43647834Y10043440D01*
X43700553Y10038247D01*
X43740600Y10026099D01*
X43781251Y10018500D01*
X43837550Y9996690D01*
X43893399Y9979748D01*
X43925310Y9962691D01*
X43958098Y9949989D01*
X44015064Y9914717D01*
X44071126Y9884751D01*
X44094683Y9865419D01*
X44119350Y9850145D01*
X44174004Y9800322D01*
X44226906Y9756906D01*
X44242582Y9737805D01*
X44259502Y9722380D01*
X44308627Y9657328D01*
X44354751Y9601126D01*
X44363669Y9584442D01*
X44373794Y9571034D01*
X44414074Y9490140D01*
X44449748Y9423399D01*
X44453552Y9410856D01*
X44458331Y9401260D01*
X44486559Y9302046D01*
X44508247Y9230553D01*
X44508959Y9223321D01*
X44510233Y9218844D01*
X44523471Y9075978D01*
X44528000Y9030000D01*
X44523471Y8984019D01*
X44510233Y8841157D01*
X44508959Y8836682D01*
X44508247Y8829447D01*
X44486555Y8757940D01*
X44458331Y8658741D01*
X44453553Y8649147D01*
X44449748Y8636601D01*
X44414067Y8569847D01*
X44373794Y8488967D01*
X44363670Y8475562D01*
X44354751Y8458874D01*
X44308617Y8402661D01*
X44259502Y8337621D01*
X44242585Y8322200D01*
X44226906Y8303094D01*
X44173993Y8259670D01*
X44119350Y8209856D01*
X44094688Y8194586D01*
X44071126Y8175249D01*
X44015052Y8145278D01*
X43958098Y8110012D01*
X43925317Y8097313D01*
X43893399Y8080252D01*
X43837538Y8063308D01*
X43781251Y8041501D01*
X43740607Y8033904D01*
X43700553Y8021753D01*
X43647831Y8016561D01*
X43594827Y8006652D01*
X43547232Y8006652D01*
X43500000Y8002000D01*
X43452768Y8006652D01*
X43405173Y8006652D01*
X43352168Y8016561D01*
X43299447Y8021753D01*
X43259393Y8033903D01*
X43218748Y8041501D01*
X43162456Y8063309D01*
X43106601Y8080252D01*
X43074685Y8097312D01*
X43041901Y8110012D01*
X42984939Y8145282D01*
X42928874Y8175249D01*
X42905315Y8194584D01*
X42880649Y8209856D01*
X42825996Y8259679D01*
X42773094Y8303094D01*
X42757417Y8322197D01*
X42740497Y8337621D01*
X42691369Y8402676D01*
X42645249Y8458874D01*
X42636331Y8475558D01*
X42626205Y8488967D01*
X42585918Y8569875D01*
X42550252Y8636601D01*
X42546447Y8649142D01*
X42541668Y8658741D01*
X42513428Y8757993D01*
X42491753Y8829447D01*
X42491041Y8836676D01*
X42489766Y8841157D01*
X42476511Y8984190D01*
X42472000Y9030000D01*
X42476511Y9075807D01*
X42489766Y9218844D01*
X42491041Y9223326D01*
X42491753Y9230553D01*
X42513423Y9301993D01*
X42541668Y9401260D01*
X42546448Y9410861D01*
X42550252Y9423399D01*
X42585910Y9490113D01*
X42626205Y9571034D01*
X42636333Y9584447D01*
X42645249Y9601126D01*
X42691360Y9657313D01*
X42740497Y9722380D01*
X42757420Y9737808D01*
X42773094Y9756906D01*
X42825985Y9800313D01*
X42880649Y9850145D01*
X42905320Y9865421D01*
X42928874Y9884751D01*
X42984928Y9914713D01*
X43041901Y9949989D01*
X43074692Y9962693D01*
X43106601Y9979748D01*
X43162444Y9996688D01*
X43218748Y10018500D01*
X43259400Y10026100D01*
X43299447Y10038247D01*
X43352165Y10043440D01*
X43405173Y10053348D01*
X43452768Y10053348D01*
X43500000Y10058000D01*
X43547232Y10053348D01*
G37*
G36*
X73417232Y10053348D02*
G01*
X73464827Y10053348D01*
X73517834Y10043440D01*
X73570553Y10038247D01*
X73610600Y10026099D01*
X73651251Y10018500D01*
X73707550Y9996690D01*
X73763399Y9979748D01*
X73795310Y9962691D01*
X73828098Y9949989D01*
X73885064Y9914717D01*
X73941126Y9884751D01*
X73964683Y9865419D01*
X73989350Y9850145D01*
X74044004Y9800322D01*
X74096906Y9756906D01*
X74112582Y9737805D01*
X74129502Y9722380D01*
X74178627Y9657328D01*
X74224751Y9601126D01*
X74233669Y9584442D01*
X74243794Y9571034D01*
X74284074Y9490140D01*
X74319748Y9423399D01*
X74323552Y9410856D01*
X74328331Y9401260D01*
X74356559Y9302046D01*
X74378247Y9230553D01*
X74378959Y9223321D01*
X74380233Y9218844D01*
X74393471Y9075978D01*
X74398000Y9030000D01*
X74393471Y8984019D01*
X74380233Y8841157D01*
X74378959Y8836682D01*
X74378247Y8829447D01*
X74356555Y8757940D01*
X74328331Y8658741D01*
X74323553Y8649147D01*
X74319748Y8636601D01*
X74284067Y8569847D01*
X74243794Y8488967D01*
X74233670Y8475562D01*
X74224751Y8458874D01*
X74178617Y8402661D01*
X74129502Y8337621D01*
X74112585Y8322200D01*
X74096906Y8303094D01*
X74043993Y8259670D01*
X73989350Y8209856D01*
X73964688Y8194586D01*
X73941126Y8175249D01*
X73885052Y8145278D01*
X73828098Y8110012D01*
X73795317Y8097313D01*
X73763399Y8080252D01*
X73707538Y8063308D01*
X73651251Y8041501D01*
X73610607Y8033904D01*
X73570553Y8021753D01*
X73517831Y8016561D01*
X73464827Y8006652D01*
X73417232Y8006652D01*
X73370000Y8002000D01*
X73322768Y8006652D01*
X73275173Y8006652D01*
X73222168Y8016561D01*
X73169447Y8021753D01*
X73129393Y8033903D01*
X73088748Y8041501D01*
X73032456Y8063309D01*
X72976601Y8080252D01*
X72944685Y8097312D01*
X72911901Y8110012D01*
X72854939Y8145282D01*
X72798874Y8175249D01*
X72775315Y8194584D01*
X72750649Y8209856D01*
X72695996Y8259679D01*
X72643094Y8303094D01*
X72627417Y8322197D01*
X72610497Y8337621D01*
X72561369Y8402676D01*
X72515249Y8458874D01*
X72506331Y8475558D01*
X72496205Y8488967D01*
X72455918Y8569875D01*
X72420252Y8636601D01*
X72416447Y8649142D01*
X72411668Y8658741D01*
X72383428Y8757993D01*
X72361753Y8829447D01*
X72361041Y8836676D01*
X72359766Y8841157D01*
X72346511Y8984190D01*
X72342000Y9030000D01*
X72346511Y9075807D01*
X72359766Y9218844D01*
X72361041Y9223326D01*
X72361753Y9230553D01*
X72383423Y9301993D01*
X72411668Y9401260D01*
X72416448Y9410861D01*
X72420252Y9423399D01*
X72455910Y9490113D01*
X72496205Y9571034D01*
X72506333Y9584447D01*
X72515249Y9601126D01*
X72561360Y9657313D01*
X72610497Y9722380D01*
X72627420Y9737808D01*
X72643094Y9756906D01*
X72695985Y9800313D01*
X72750649Y9850145D01*
X72775320Y9865421D01*
X72798874Y9884751D01*
X72854928Y9914713D01*
X72911901Y9949989D01*
X72944692Y9962693D01*
X72976601Y9979748D01*
X73032444Y9996688D01*
X73088748Y10018500D01*
X73129400Y10026100D01*
X73169447Y10038247D01*
X73222165Y10043440D01*
X73275173Y10053348D01*
X73322768Y10053348D01*
X73370000Y10058000D01*
X73417232Y10053348D01*
G37*
G36*
X35955509Y20530810D02*
G01*
X36276272Y20472028D01*
X36587610Y20375011D01*
X36884985Y20241174D01*
X37164059Y20072468D01*
X37420763Y19871353D01*
X37651353Y19640763D01*
X37852468Y19384059D01*
X38021174Y19104985D01*
X38155011Y18807610D01*
X38252028Y18496272D01*
X38310810Y18175509D01*
X38330500Y17850000D01*
X38310810Y17524491D01*
X38252028Y17203728D01*
X38155011Y16892390D01*
X38021174Y16595015D01*
X37852468Y16315941D01*
X37651353Y16059237D01*
X37420763Y15828647D01*
X37164059Y15627532D01*
X36884985Y15458826D01*
X36587610Y15324989D01*
X36276272Y15227972D01*
X35955509Y15169190D01*
X35630000Y15149500D01*
X35304491Y15169190D01*
X34983728Y15227972D01*
X34672390Y15324989D01*
X34375015Y15458826D01*
X34095941Y15627532D01*
X33839237Y15828647D01*
X33608647Y16059237D01*
X33407532Y16315941D01*
X33238826Y16595015D01*
X33104989Y16892390D01*
X33007972Y17203728D01*
X32949190Y17524491D01*
X32929500Y17850000D01*
X32949190Y18175509D01*
X33007972Y18496272D01*
X33104989Y18807610D01*
X33238826Y19104985D01*
X33407532Y19384059D01*
X33608647Y19640763D01*
X33839237Y19871353D01*
X34095941Y20072468D01*
X34375015Y20241174D01*
X34672390Y20375011D01*
X34983728Y20472028D01*
X35304491Y20530810D01*
X35630000Y20550500D01*
X35955509Y20530810D01*
G37*
G36*
X65825509Y20530810D02*
G01*
X66146272Y20472028D01*
X66457610Y20375011D01*
X66754985Y20241174D01*
X67034059Y20072468D01*
X67290763Y19871353D01*
X67521353Y19640763D01*
X67722468Y19384059D01*
X67891174Y19104985D01*
X68025011Y18807610D01*
X68122028Y18496272D01*
X68180810Y18175509D01*
X68200500Y17850000D01*
X68180810Y17524491D01*
X68122028Y17203728D01*
X68025011Y16892390D01*
X67891174Y16595015D01*
X67722468Y16315941D01*
X67521353Y16059237D01*
X67290763Y15828647D01*
X67034059Y15627532D01*
X66754985Y15458826D01*
X66457610Y15324989D01*
X66146272Y15227972D01*
X65825509Y15169190D01*
X65500000Y15149500D01*
X65174491Y15169190D01*
X64853728Y15227972D01*
X64542390Y15324989D01*
X64245015Y15458826D01*
X63965941Y15627532D01*
X63709237Y15828647D01*
X63478647Y16059237D01*
X63277532Y16315941D01*
X63108826Y16595015D01*
X62974989Y16892390D01*
X62877972Y17203728D01*
X62819190Y17524491D01*
X62799500Y17850000D01*
X62819190Y18175509D01*
X62877972Y18496272D01*
X62974989Y18807610D01*
X63108826Y19104985D01*
X63277532Y19384059D01*
X63478647Y19640763D01*
X63709237Y19871353D01*
X63965941Y20072468D01*
X64245015Y20241174D01*
X64542390Y20375011D01*
X64853728Y20472028D01*
X65174491Y20530810D01*
X65500000Y20550500D01*
X65825509Y20530810D01*
G37*
G36*
X20065938Y19780350D02*
G01*
X20074782Y19776445D01*
X20081336Y19775490D01*
X20122310Y19755459D01*
X20162759Y19737599D01*
X20166503Y19733855D01*
X20166848Y19733686D01*
X20233685Y19666849D01*
X20233853Y19666505D01*
X20237599Y19662759D01*
X20255463Y19622300D01*
X20275489Y19581337D01*
X20276443Y19574786D01*
X20280350Y19565938D01*
X20288000Y19500000D01*
X20288000Y16000000D01*
X20280350Y15934062D01*
X20276443Y15925215D01*
X20275489Y15918664D01*
X20255468Y15877711D01*
X20237599Y15837241D01*
X20233852Y15833495D01*
X20233685Y15833152D01*
X20166848Y15766315D01*
X20166505Y15766148D01*
X20162759Y15762401D01*
X20122289Y15744532D01*
X20081336Y15724511D01*
X20074785Y15723557D01*
X20065938Y15719650D01*
X20000000Y15712000D01*
X16500000Y15712000D01*
X16434062Y15719650D01*
X16425214Y15723557D01*
X16418663Y15724511D01*
X16377700Y15744537D01*
X16337241Y15762401D01*
X16333495Y15766147D01*
X16333151Y15766315D01*
X16266314Y15833152D01*
X16266145Y15833497D01*
X16262401Y15837241D01*
X16244541Y15877690D01*
X16224510Y15918664D01*
X16223555Y15925218D01*
X16219650Y15934062D01*
X16212000Y16000000D01*
X16212000Y19500000D01*
X16219650Y19565938D01*
X16223554Y19574782D01*
X16224510Y19581337D01*
X16244545Y19622322D01*
X16262401Y19662759D01*
X16266144Y19666503D01*
X16266314Y19666849D01*
X16333151Y19733686D01*
X16333497Y19733856D01*
X16337241Y19737599D01*
X16377678Y19755455D01*
X16418663Y19775490D01*
X16425218Y19776446D01*
X16434062Y19780350D01*
X16500000Y19788000D01*
X20000000Y19788000D01*
X20065938Y19780350D01*
G37*
G36*
X11240596Y19269065D02*
G01*
X11475268Y19212725D01*
X11698237Y19120368D01*
X11904014Y18994268D01*
X12087530Y18837530D01*
X12244268Y18654014D01*
X12370368Y18448237D01*
X12462725Y18225268D01*
X12519065Y17990596D01*
X12538000Y17750000D01*
X12519065Y17509404D01*
X12462725Y17274732D01*
X12370368Y17051763D01*
X12244268Y16845986D01*
X12087530Y16662470D01*
X11904014Y16505732D01*
X11698237Y16379632D01*
X11475268Y16287275D01*
X11240596Y16230935D01*
X11000000Y16212000D01*
X10759404Y16230935D01*
X10524732Y16287275D01*
X10301763Y16379632D01*
X10095986Y16505732D01*
X9912470Y16662470D01*
X9755732Y16845986D01*
X9629632Y17051763D01*
X9537275Y17274732D01*
X9480935Y17509404D01*
X9462000Y17750000D01*
X9480935Y17990596D01*
X9537275Y18225268D01*
X9629632Y18448237D01*
X9755732Y18654014D01*
X9912470Y18837530D01*
X10095986Y18994268D01*
X10301763Y19120368D01*
X10524732Y19212725D01*
X10759404Y19269065D01*
X11000000Y19288000D01*
X11240596Y19269065D01*
G37*
G36*
X25990596Y19269065D02*
G01*
X26225268Y19212725D01*
X26448237Y19120368D01*
X26654014Y18994268D01*
X26837530Y18837530D01*
X26994268Y18654014D01*
X27120368Y18448237D01*
X27212725Y18225268D01*
X27269065Y17990596D01*
X27288000Y17750000D01*
X27269065Y17509404D01*
X27212725Y17274732D01*
X27120368Y17051763D01*
X26994268Y16845986D01*
X26837530Y16662470D01*
X26654014Y16505732D01*
X26448237Y16379632D01*
X26225268Y16287275D01*
X25990596Y16230935D01*
X25750000Y16212000D01*
X25509404Y16230935D01*
X25274732Y16287275D01*
X25051763Y16379632D01*
X24845986Y16505732D01*
X24662470Y16662470D01*
X24505732Y16845986D01*
X24379632Y17051763D01*
X24287275Y17274732D01*
X24230935Y17509404D01*
X24212000Y17750000D01*
X24230935Y17990596D01*
X24287275Y18225268D01*
X24379632Y18448237D01*
X24505732Y18654014D01*
X24662470Y18837530D01*
X24845986Y18994268D01*
X25051763Y19120368D01*
X25274732Y19212725D01*
X25509404Y19269065D01*
X25750000Y19288000D01*
X25990596Y19269065D01*
G37*
G36*
X2797882Y24718284D02*
G01*
X2846211Y24718284D01*
X2900033Y24708223D01*
X2953479Y24702959D01*
X2994080Y24690643D01*
X3035356Y24682927D01*
X3092521Y24660781D01*
X3149139Y24643606D01*
X3181490Y24626314D01*
X3214786Y24613415D01*
X3272635Y24577597D01*
X3329460Y24547223D01*
X3353334Y24527630D01*
X3378388Y24512117D01*
X3433911Y24461501D01*
X3487512Y24417512D01*
X3503392Y24398162D01*
X3520588Y24382486D01*
X3570495Y24316398D01*
X3617223Y24259460D01*
X3626260Y24242552D01*
X3636547Y24228930D01*
X3677477Y24146731D01*
X3713606Y24079139D01*
X3717458Y24066440D01*
X3722319Y24056678D01*
X3751029Y23955772D01*
X3772959Y23883479D01*
X3773679Y23876164D01*
X3774978Y23871600D01*
X3788472Y23725970D01*
X3793000Y23680000D01*
X3788471Y23634027D01*
X3774978Y23488401D01*
X3773679Y23483838D01*
X3772959Y23476521D01*
X3751024Y23404214D01*
X3722319Y23303323D01*
X3717459Y23293564D01*
X3713606Y23280861D01*
X3677470Y23213257D01*
X3636547Y23131071D01*
X3626262Y23117453D01*
X3617223Y23100540D01*
X3570486Y23043592D01*
X3520588Y22977515D01*
X3503396Y22961843D01*
X3487512Y22942488D01*
X3433900Y22898491D01*
X3378388Y22847884D01*
X3353339Y22832375D01*
X3329460Y22812777D01*
X3272623Y22782398D01*
X3214786Y22746586D01*
X3181497Y22733690D01*
X3149139Y22716394D01*
X3092510Y22699216D01*
X3035356Y22677074D01*
X2994086Y22669360D01*
X2953479Y22657041D01*
X2900030Y22651777D01*
X2846211Y22641716D01*
X2797882Y22641716D01*
X2750000Y22637000D01*
X2702118Y22641716D01*
X2653789Y22641716D01*
X2599969Y22651777D01*
X2546521Y22657041D01*
X2505914Y22669359D01*
X2464643Y22677074D01*
X2407485Y22699218D01*
X2350861Y22716394D01*
X2318505Y22733689D01*
X2285213Y22746586D01*
X2227369Y22782402D01*
X2170540Y22812777D01*
X2146663Y22832373D01*
X2121611Y22847884D01*
X2066089Y22898499D01*
X2012488Y22942488D01*
X1996606Y22961840D01*
X1979411Y22977515D01*
X1929501Y23043607D01*
X1882777Y23100540D01*
X1873739Y23117448D01*
X1863452Y23131071D01*
X1822514Y23213284D01*
X1786394Y23280861D01*
X1782542Y23293559D01*
X1777680Y23303323D01*
X1748959Y23404267D01*
X1727041Y23476521D01*
X1726320Y23483833D01*
X1725021Y23488401D01*
X1711511Y23634199D01*
X1707000Y23680000D01*
X1711510Y23725799D01*
X1725021Y23871600D01*
X1726321Y23876170D01*
X1727041Y23883479D01*
X1748954Y23955718D01*
X1777680Y24056678D01*
X1782543Y24066445D01*
X1786394Y24079139D01*
X1822507Y24146703D01*
X1863452Y24228930D01*
X1873741Y24242556D01*
X1882777Y24259460D01*
X1929491Y24316382D01*
X1979411Y24382486D01*
X1996610Y24398165D01*
X2012488Y24417512D01*
X2066078Y24461493D01*
X2121611Y24512117D01*
X2146668Y24527632D01*
X2170540Y24547223D01*
X2227357Y24577593D01*
X2285213Y24613415D01*
X2318511Y24626316D01*
X2350861Y24643606D01*
X2407473Y24660780D01*
X2464643Y24682927D01*
X2505920Y24690644D01*
X2546521Y24702959D01*
X2599966Y24708223D01*
X2653789Y24718284D01*
X2702118Y24718284D01*
X2750000Y24723000D01*
X2797882Y24718284D01*
G37*
G36*
X6599102Y24612862D02*
G01*
X6648048Y24612862D01*
X6690308Y24603880D01*
X6732934Y24599681D01*
X6786491Y24583435D01*
X6839858Y24572091D01*
X6874005Y24556888D01*
X6908842Y24546320D01*
X6964201Y24516730D01*
X7019000Y24492332D01*
X7044477Y24473822D01*
X7070957Y24459668D01*
X7124969Y24415342D01*
X7177645Y24377070D01*
X7194749Y24358074D01*
X7213052Y24343053D01*
X7262239Y24283118D01*
X7308858Y24231343D01*
X7318651Y24214381D01*
X7329667Y24200958D01*
X7370417Y24124719D01*
X7406906Y24061519D01*
X7411103Y24048602D01*
X7416319Y24038843D01*
X7445083Y23944021D01*
X7467502Y23875021D01*
X7468291Y23867514D01*
X7469680Y23862935D01*
X7483187Y23725784D01*
X7488000Y23680000D01*
X7483187Y23634213D01*
X7469680Y23497066D01*
X7468291Y23492488D01*
X7467502Y23484979D01*
X7445078Y23415966D01*
X7416319Y23321158D01*
X7411104Y23311402D01*
X7406906Y23298481D01*
X7370410Y23235270D01*
X7329667Y23159043D01*
X7318653Y23145623D01*
X7308858Y23128657D01*
X7262230Y23076872D01*
X7213052Y23016948D01*
X7194752Y23001931D01*
X7177645Y22982930D01*
X7124958Y22944652D01*
X7070957Y22900333D01*
X7044482Y22886183D01*
X7019000Y22867668D01*
X6964190Y22843266D01*
X6908842Y22813681D01*
X6874013Y22803116D01*
X6839858Y22787909D01*
X6786480Y22776564D01*
X6732934Y22760320D01*
X6690317Y22756123D01*
X6648048Y22747138D01*
X6599092Y22747138D01*
X6550000Y22742303D01*
X6500908Y22747138D01*
X6451952Y22747138D01*
X6409683Y22756123D01*
X6367065Y22760320D01*
X6313516Y22776564D01*
X6260142Y22787909D01*
X6225989Y22803115D01*
X6191157Y22813681D01*
X6135803Y22843268D01*
X6081000Y22867668D01*
X6055519Y22886181D01*
X6029042Y22900333D01*
X5975032Y22944658D01*
X5922355Y22982930D01*
X5905250Y23001927D01*
X5886947Y23016948D01*
X5837758Y23076885D01*
X5791142Y23128657D01*
X5781349Y23145619D01*
X5770332Y23159043D01*
X5729575Y23235293D01*
X5693094Y23298481D01*
X5688897Y23311397D01*
X5683680Y23321158D01*
X5654906Y23416013D01*
X5632498Y23484979D01*
X5631709Y23492483D01*
X5630319Y23497066D01*
X5616796Y23634364D01*
X5612000Y23680000D01*
X5616796Y23725633D01*
X5630319Y23862935D01*
X5631709Y23867519D01*
X5632498Y23875021D01*
X5654901Y23943974D01*
X5683680Y24038843D01*
X5688898Y24048606D01*
X5693094Y24061519D01*
X5729568Y24124695D01*
X5770332Y24200958D01*
X5781351Y24214385D01*
X5791142Y24231343D01*
X5837748Y24283106D01*
X5886947Y24343053D01*
X5905253Y24358077D01*
X5922355Y24377070D01*
X5975022Y24415335D01*
X6029042Y24459668D01*
X6055525Y24473824D01*
X6081000Y24492332D01*
X6135792Y24516728D01*
X6191157Y24546320D01*
X6225996Y24556889D01*
X6260142Y24572091D01*
X6313505Y24583434D01*
X6367065Y24599681D01*
X6409692Y24603880D01*
X6451952Y24612862D01*
X6500898Y24612862D01*
X6550000Y24617698D01*
X6599102Y24612862D01*
G37*
G36*
X91103438Y26817850D02*
G01*
X91112282Y26813945D01*
X91118836Y26812990D01*
X91159810Y26792959D01*
X91200259Y26775099D01*
X91204003Y26771355D01*
X91204348Y26771186D01*
X91271185Y26704349D01*
X91271353Y26704005D01*
X91275099Y26700259D01*
X91292963Y26659800D01*
X91312989Y26618837D01*
X91313943Y26612286D01*
X91317850Y26603438D01*
X91325500Y26537500D01*
X91325500Y25462500D01*
X91317850Y25396562D01*
X91313943Y25387715D01*
X91312989Y25381164D01*
X91292968Y25340211D01*
X91275099Y25299741D01*
X91271352Y25295995D01*
X91271185Y25295652D01*
X91204348Y25228815D01*
X91204005Y25228648D01*
X91200259Y25224901D01*
X91159789Y25207032D01*
X91118836Y25187011D01*
X91112285Y25186057D01*
X91103438Y25182150D01*
X91037500Y25174500D01*
X89962500Y25174500D01*
X89896562Y25182150D01*
X89887714Y25186057D01*
X89881163Y25187011D01*
X89840200Y25207037D01*
X89799741Y25224901D01*
X89795995Y25228647D01*
X89795651Y25228815D01*
X89728814Y25295652D01*
X89728645Y25295997D01*
X89724901Y25299741D01*
X89707041Y25340190D01*
X89687010Y25381164D01*
X89686055Y25387718D01*
X89682150Y25396562D01*
X89674500Y25462500D01*
X89674500Y26537500D01*
X89682150Y26603438D01*
X89686054Y26612282D01*
X89687010Y26618837D01*
X89707045Y26659822D01*
X89724901Y26700259D01*
X89728644Y26704003D01*
X89728814Y26704349D01*
X89795651Y26771186D01*
X89795997Y26771356D01*
X89799741Y26775099D01*
X89840178Y26792955D01*
X89881163Y26812990D01*
X89887718Y26813946D01*
X89896562Y26817850D01*
X89962500Y26825500D01*
X91037500Y26825500D01*
X91103438Y26817850D01*
G37*
G36*
X90755094Y29325097D02*
G01*
X90912750Y29254904D01*
X91052367Y29153466D01*
X91167844Y29025217D01*
X91254132Y28875761D01*
X91307461Y28711631D01*
X91325500Y28540000D01*
X91307461Y28368369D01*
X91254132Y28204239D01*
X91167844Y28054783D01*
X91052367Y27926534D01*
X90912750Y27825096D01*
X90755094Y27754903D01*
X90586288Y27719022D01*
X90413712Y27719022D01*
X90244906Y27754903D01*
X90087250Y27825096D01*
X89947633Y27926534D01*
X89832156Y28054783D01*
X89745868Y28204239D01*
X89692539Y28368369D01*
X89674500Y28540000D01*
X89692539Y28711631D01*
X89745868Y28875761D01*
X89832156Y29025217D01*
X89947633Y29153466D01*
X90087250Y29254904D01*
X90244906Y29325097D01*
X90413712Y29360978D01*
X90586288Y29360978D01*
X90755094Y29325097D01*
G37*
G36*
X90755094Y31865097D02*
G01*
X90912750Y31794904D01*
X91052367Y31693466D01*
X91167844Y31565217D01*
X91254132Y31415761D01*
X91307461Y31251631D01*
X91325500Y31080000D01*
X91307461Y30908369D01*
X91254132Y30744239D01*
X91167844Y30594783D01*
X91052367Y30466534D01*
X90912750Y30365096D01*
X90755094Y30294903D01*
X90586288Y30259022D01*
X90413712Y30259022D01*
X90244906Y30294903D01*
X90087250Y30365096D01*
X89947633Y30466534D01*
X89832156Y30594783D01*
X89745868Y30744239D01*
X89692539Y30908369D01*
X89674500Y31080000D01*
X89692539Y31251631D01*
X89745868Y31415761D01*
X89832156Y31565217D01*
X89947633Y31693466D01*
X90087250Y31794904D01*
X90244906Y31865097D01*
X90413712Y31900978D01*
X90586288Y31900978D01*
X90755094Y31865097D01*
G37*
G36*
X2797882Y33358284D02*
G01*
X2846211Y33358284D01*
X2900033Y33348223D01*
X2953479Y33342959D01*
X2994080Y33330643D01*
X3035356Y33322927D01*
X3092521Y33300781D01*
X3149139Y33283606D01*
X3181490Y33266314D01*
X3214786Y33253415D01*
X3272635Y33217597D01*
X3329460Y33187223D01*
X3353334Y33167630D01*
X3378388Y33152117D01*
X3433911Y33101501D01*
X3487512Y33057512D01*
X3503392Y33038162D01*
X3520588Y33022486D01*
X3570495Y32956398D01*
X3617223Y32899460D01*
X3626260Y32882552D01*
X3636547Y32868930D01*
X3677477Y32786731D01*
X3713606Y32719139D01*
X3717458Y32706440D01*
X3722319Y32696678D01*
X3751029Y32595772D01*
X3772959Y32523479D01*
X3773679Y32516164D01*
X3774978Y32511600D01*
X3788472Y32365970D01*
X3793000Y32320000D01*
X3788471Y32274027D01*
X3774978Y32128401D01*
X3773679Y32123838D01*
X3772959Y32116521D01*
X3751024Y32044214D01*
X3722319Y31943323D01*
X3717459Y31933564D01*
X3713606Y31920861D01*
X3677470Y31853257D01*
X3636547Y31771071D01*
X3626262Y31757453D01*
X3617223Y31740540D01*
X3570486Y31683592D01*
X3520588Y31617515D01*
X3503396Y31601843D01*
X3487512Y31582488D01*
X3433900Y31538491D01*
X3378388Y31487884D01*
X3353339Y31472375D01*
X3329460Y31452777D01*
X3272623Y31422398D01*
X3214786Y31386586D01*
X3181497Y31373690D01*
X3149139Y31356394D01*
X3092510Y31339216D01*
X3035356Y31317074D01*
X2994086Y31309360D01*
X2953479Y31297041D01*
X2900030Y31291777D01*
X2846211Y31281716D01*
X2797882Y31281716D01*
X2750000Y31277000D01*
X2702118Y31281716D01*
X2653789Y31281716D01*
X2599969Y31291777D01*
X2546521Y31297041D01*
X2505914Y31309359D01*
X2464643Y31317074D01*
X2407485Y31339218D01*
X2350861Y31356394D01*
X2318505Y31373689D01*
X2285213Y31386586D01*
X2227369Y31422402D01*
X2170540Y31452777D01*
X2146663Y31472373D01*
X2121611Y31487884D01*
X2066089Y31538499D01*
X2012488Y31582488D01*
X1996606Y31601840D01*
X1979411Y31617515D01*
X1929501Y31683607D01*
X1882777Y31740540D01*
X1873739Y31757448D01*
X1863452Y31771071D01*
X1822514Y31853284D01*
X1786394Y31920861D01*
X1782542Y31933559D01*
X1777680Y31943323D01*
X1748959Y32044267D01*
X1727041Y32116521D01*
X1726320Y32123833D01*
X1725021Y32128401D01*
X1711511Y32274199D01*
X1707000Y32320000D01*
X1711510Y32365799D01*
X1725021Y32511600D01*
X1726321Y32516170D01*
X1727041Y32523479D01*
X1748954Y32595718D01*
X1777680Y32696678D01*
X1782543Y32706445D01*
X1786394Y32719139D01*
X1822507Y32786703D01*
X1863452Y32868930D01*
X1873741Y32882556D01*
X1882777Y32899460D01*
X1929491Y32956382D01*
X1979411Y33022486D01*
X1996610Y33038165D01*
X2012488Y33057512D01*
X2066078Y33101493D01*
X2121611Y33152117D01*
X2146668Y33167632D01*
X2170540Y33187223D01*
X2227357Y33217593D01*
X2285213Y33253415D01*
X2318511Y33266316D01*
X2350861Y33283606D01*
X2407473Y33300780D01*
X2464643Y33322927D01*
X2505920Y33330644D01*
X2546521Y33342959D01*
X2599966Y33348223D01*
X2653789Y33358284D01*
X2702118Y33358284D01*
X2750000Y33363000D01*
X2797882Y33358284D01*
G37*
G36*
X6599102Y33252862D02*
G01*
X6648048Y33252862D01*
X6690308Y33243880D01*
X6732934Y33239681D01*
X6786491Y33223435D01*
X6839858Y33212091D01*
X6874005Y33196888D01*
X6908842Y33186320D01*
X6964201Y33156730D01*
X7019000Y33132332D01*
X7044477Y33113822D01*
X7070957Y33099668D01*
X7124969Y33055342D01*
X7177645Y33017070D01*
X7194749Y32998074D01*
X7213052Y32983053D01*
X7262239Y32923118D01*
X7308858Y32871343D01*
X7318651Y32854381D01*
X7329667Y32840958D01*
X7370417Y32764719D01*
X7406906Y32701519D01*
X7411103Y32688602D01*
X7416319Y32678843D01*
X7445083Y32584021D01*
X7467502Y32515021D01*
X7468291Y32507514D01*
X7469680Y32502935D01*
X7483187Y32365784D01*
X7488000Y32320000D01*
X7483187Y32274213D01*
X7469680Y32137066D01*
X7468291Y32132488D01*
X7467502Y32124979D01*
X7445078Y32055966D01*
X7416319Y31961158D01*
X7411104Y31951402D01*
X7406906Y31938481D01*
X7370410Y31875270D01*
X7329667Y31799043D01*
X7318653Y31785623D01*
X7308858Y31768657D01*
X7262230Y31716872D01*
X7213052Y31656948D01*
X7194752Y31641931D01*
X7177645Y31622930D01*
X7124958Y31584652D01*
X7070957Y31540333D01*
X7044482Y31526183D01*
X7019000Y31507668D01*
X6964190Y31483266D01*
X6908842Y31453681D01*
X6874013Y31443116D01*
X6839858Y31427909D01*
X6786480Y31416564D01*
X6732934Y31400320D01*
X6690317Y31396123D01*
X6648048Y31387138D01*
X6599092Y31387138D01*
X6550000Y31382303D01*
X6500908Y31387138D01*
X6451952Y31387138D01*
X6409683Y31396123D01*
X6367065Y31400320D01*
X6313516Y31416564D01*
X6260142Y31427909D01*
X6225989Y31443115D01*
X6191157Y31453681D01*
X6135803Y31483268D01*
X6081000Y31507668D01*
X6055519Y31526181D01*
X6029042Y31540333D01*
X5975032Y31584658D01*
X5922355Y31622930D01*
X5905250Y31641927D01*
X5886947Y31656948D01*
X5837758Y31716885D01*
X5791142Y31768657D01*
X5781349Y31785619D01*
X5770332Y31799043D01*
X5729575Y31875293D01*
X5693094Y31938481D01*
X5688897Y31951397D01*
X5683680Y31961158D01*
X5654906Y32056013D01*
X5632498Y32124979D01*
X5631709Y32132483D01*
X5630319Y32137066D01*
X5616796Y32274364D01*
X5612000Y32320000D01*
X5616796Y32365633D01*
X5630319Y32502935D01*
X5631709Y32507519D01*
X5632498Y32515021D01*
X5654901Y32583974D01*
X5683680Y32678843D01*
X5688898Y32688606D01*
X5693094Y32701519D01*
X5729568Y32764695D01*
X5770332Y32840958D01*
X5781351Y32854385D01*
X5791142Y32871343D01*
X5837748Y32923106D01*
X5886947Y32983053D01*
X5905253Y32998077D01*
X5922355Y33017070D01*
X5975022Y33055335D01*
X6029042Y33099668D01*
X6055525Y33113824D01*
X6081000Y33132332D01*
X6135792Y33156728D01*
X6191157Y33186320D01*
X6225996Y33196889D01*
X6260142Y33212091D01*
X6313505Y33223434D01*
X6367065Y33239681D01*
X6409692Y33243880D01*
X6451952Y33252862D01*
X6500898Y33252862D01*
X6550000Y33257698D01*
X6599102Y33252862D01*
G37*
G36*
X90755094Y34405097D02*
G01*
X90912750Y34334904D01*
X91052367Y34233466D01*
X91167844Y34105217D01*
X91254132Y33955761D01*
X91307461Y33791631D01*
X91325500Y33620000D01*
X91307461Y33448369D01*
X91254132Y33284239D01*
X91167844Y33134783D01*
X91052367Y33006534D01*
X90912750Y32905096D01*
X90755094Y32834903D01*
X90586288Y32799022D01*
X90413712Y32799022D01*
X90244906Y32834903D01*
X90087250Y32905096D01*
X89947633Y33006534D01*
X89832156Y33134783D01*
X89745868Y33284239D01*
X89692539Y33448369D01*
X89674500Y33620000D01*
X89692539Y33791631D01*
X89745868Y33955761D01*
X89832156Y34105217D01*
X89947633Y34233466D01*
X90087250Y34334904D01*
X90244906Y34405097D01*
X90413712Y34440978D01*
X90586288Y34440978D01*
X90755094Y34405097D01*
G37*
G36*
X90755094Y36945097D02*
G01*
X90912750Y36874904D01*
X91052367Y36773466D01*
X91167844Y36645217D01*
X91254132Y36495761D01*
X91307461Y36331631D01*
X91325500Y36160000D01*
X91307461Y35988369D01*
X91254132Y35824239D01*
X91167844Y35674783D01*
X91052367Y35546534D01*
X90912750Y35445096D01*
X90755094Y35374903D01*
X90586288Y35339022D01*
X90413712Y35339022D01*
X90244906Y35374903D01*
X90087250Y35445096D01*
X89947633Y35546534D01*
X89832156Y35674783D01*
X89745868Y35824239D01*
X89692539Y35988369D01*
X89674500Y36160000D01*
X89692539Y36331631D01*
X89745868Y36495761D01*
X89832156Y36645217D01*
X89947633Y36773466D01*
X90087250Y36874904D01*
X90244906Y36945097D01*
X90413712Y36980978D01*
X90586288Y36980978D01*
X90755094Y36945097D01*
G37*
G36*
X29490596Y40769065D02*
G01*
X29725268Y40712725D01*
X29948237Y40620368D01*
X30154014Y40494268D01*
X30337530Y40337530D01*
X30494268Y40154014D01*
X30620368Y39948237D01*
X30712725Y39725268D01*
X30769065Y39490596D01*
X30788000Y39250000D01*
X30769065Y39009404D01*
X30712725Y38774732D01*
X30620368Y38551763D01*
X30494268Y38345986D01*
X30337530Y38162470D01*
X30154014Y38005732D01*
X29948237Y37879632D01*
X29725268Y37787275D01*
X29490596Y37730935D01*
X29250000Y37712000D01*
X29009404Y37730935D01*
X28774732Y37787275D01*
X28551763Y37879632D01*
X28345986Y38005732D01*
X28162470Y38162470D01*
X28005732Y38345986D01*
X27879632Y38551763D01*
X27787275Y38774732D01*
X27730935Y39009404D01*
X27712000Y39250000D01*
X27730935Y39490596D01*
X27787275Y39725268D01*
X27879632Y39948237D01*
X28005732Y40154014D01*
X28162470Y40337530D01*
X28345986Y40494268D01*
X28551763Y40620368D01*
X28774732Y40712725D01*
X29009404Y40769065D01*
X29250000Y40788000D01*
X29490596Y40769065D01*
G37*
G36*
X90755094Y39485097D02*
G01*
X90912750Y39414904D01*
X91052367Y39313466D01*
X91167844Y39185217D01*
X91254132Y39035761D01*
X91307461Y38871631D01*
X91325500Y38700000D01*
X91307461Y38528369D01*
X91254132Y38364239D01*
X91167844Y38214783D01*
X91052367Y38086534D01*
X90912750Y37985096D01*
X90755094Y37914903D01*
X90586288Y37879022D01*
X90413712Y37879022D01*
X90244906Y37914903D01*
X90087250Y37985096D01*
X89947633Y38086534D01*
X89832156Y38214783D01*
X89745868Y38364239D01*
X89692539Y38528369D01*
X89674500Y38700000D01*
X89692539Y38871631D01*
X89745868Y39035761D01*
X89832156Y39185217D01*
X89947633Y39313466D01*
X90087250Y39414904D01*
X90244906Y39485097D01*
X90413712Y39520978D01*
X90586288Y39520978D01*
X90755094Y39485097D01*
G37*
G36*
X59166001Y39652296D02*
G01*
X59323677Y39597123D01*
X59465123Y39508246D01*
X59583246Y39390123D01*
X59672123Y39248677D01*
X59727296Y39091001D01*
X59746000Y38925000D01*
X59727296Y38758999D01*
X59672123Y38601323D01*
X59583246Y38459877D01*
X59465123Y38341754D01*
X59323677Y38252877D01*
X59166001Y38197704D01*
X59000000Y38179000D01*
X58833999Y38197704D01*
X58676323Y38252877D01*
X58534877Y38341754D01*
X58416754Y38459877D01*
X58327877Y38601323D01*
X58272704Y38758999D01*
X58254000Y38925000D01*
X58272704Y39091001D01*
X58327877Y39248677D01*
X58416754Y39390123D01*
X58534877Y39508246D01*
X58676323Y39597123D01*
X58833999Y39652296D01*
X59000000Y39671000D01*
X59166001Y39652296D01*
G37*
G36*
X14660507Y44232016D02*
G01*
X14732402Y44232016D01*
X14797947Y44223008D01*
X14865547Y44218576D01*
X14944626Y44202847D01*
X15021489Y44192282D01*
X15079610Y44175998D01*
X15139820Y44164021D01*
X15222386Y44135994D01*
X15302473Y44113554D01*
X15352489Y44091829D01*
X15404622Y44074132D01*
X15488787Y44032627D01*
X15570119Y43997299D01*
X15611703Y43972011D01*
X15655435Y43950445D01*
X15739133Y43894520D01*
X15819443Y43845682D01*
X15852625Y43818686D01*
X15887954Y43795080D01*
X15968958Y43724042D01*
X16045799Y43661527D01*
X16070942Y43634606D01*
X16098200Y43610701D01*
X16174136Y43524112D01*
X16244971Y43448266D01*
X16262797Y43423013D01*
X16282579Y43400455D01*
X16350986Y43298077D01*
X16413249Y43209870D01*
X16424733Y43187706D01*
X16437944Y43167935D01*
X16496418Y43049361D01*
X16547498Y42950782D01*
X16553859Y42932882D01*
X16561631Y42917123D01*
X16607857Y42780945D01*
X16645217Y42675825D01*
X16647861Y42663098D01*
X16651520Y42652321D01*
X16683238Y42492857D01*
X16704587Y42390124D01*
X16705066Y42383121D01*
X16706075Y42378048D01*
X16721286Y42145976D01*
X16724500Y42099000D01*
X16721286Y42052021D01*
X16706075Y41819953D01*
X16705066Y41814882D01*
X16704587Y41807876D01*
X16683234Y41705122D01*
X16651520Y41545680D01*
X16647862Y41534906D01*
X16645217Y41522175D01*
X16607850Y41417034D01*
X16561631Y41280878D01*
X16553861Y41265123D01*
X16547498Y41247218D01*
X16496413Y41148630D01*
X16437944Y41030065D01*
X16424733Y41010295D01*
X16413249Y40988130D01*
X16350979Y40899915D01*
X16282579Y40797546D01*
X16262800Y40774993D01*
X16244971Y40749734D01*
X16174122Y40673874D01*
X16098200Y40587300D01*
X16070947Y40563401D01*
X16045799Y40536473D01*
X15968943Y40473946D01*
X15887954Y40402921D01*
X15852632Y40379321D01*
X15819443Y40352318D01*
X15739116Y40303471D01*
X15655435Y40247556D01*
X15611712Y40225995D01*
X15570119Y40200701D01*
X15488770Y40165367D01*
X15404622Y40123869D01*
X15352500Y40106176D01*
X15302473Y40084446D01*
X15222369Y40062003D01*
X15139820Y40033980D01*
X15079622Y40022007D01*
X15021489Y40005718D01*
X14944610Y39995152D01*
X14865547Y39979425D01*
X14797961Y39974995D01*
X14732402Y39965984D01*
X14660491Y39965984D01*
X14586500Y39961134D01*
X14512508Y39965984D01*
X14440598Y39965984D01*
X14375039Y39974995D01*
X14307452Y39979425D01*
X14228386Y39995152D01*
X14151511Y40005718D01*
X14093379Y40022006D01*
X14033179Y40033980D01*
X13950624Y40062004D01*
X13870527Y40084446D01*
X13820503Y40106175D01*
X13768377Y40123869D01*
X13684220Y40165371D01*
X13602881Y40200701D01*
X13561291Y40225992D01*
X13517564Y40247556D01*
X13433872Y40303478D01*
X13353557Y40352318D01*
X13320371Y40379317D01*
X13285045Y40402921D01*
X13204043Y40473958D01*
X13127201Y40536473D01*
X13102057Y40563396D01*
X13074799Y40587300D01*
X12998861Y40673891D01*
X12928029Y40749734D01*
X12910203Y40774988D01*
X12890420Y40797546D01*
X12822001Y40899941D01*
X12759751Y40988130D01*
X12748269Y41010289D01*
X12735055Y41030065D01*
X12676565Y41148670D01*
X12625502Y41247218D01*
X12619141Y41265115D01*
X12611368Y41280878D01*
X12565127Y41417097D01*
X12527783Y41522175D01*
X12525139Y41534898D01*
X12521479Y41545680D01*
X12489742Y41705234D01*
X12468413Y41807876D01*
X12467934Y41814874D01*
X12466924Y41819953D01*
X12451689Y42052372D01*
X12448500Y42099000D01*
X12451689Y42145626D01*
X12466924Y42378048D01*
X12467934Y42383129D01*
X12468413Y42390124D01*
X12489737Y42492744D01*
X12521479Y42652321D01*
X12525139Y42663106D01*
X12527783Y42675825D01*
X12565119Y42780883D01*
X12611368Y42917123D01*
X12619142Y42932889D01*
X12625502Y42950782D01*
X12676560Y43049321D01*
X12735055Y43167935D01*
X12748269Y43187713D01*
X12759751Y43209870D01*
X12821994Y43298050D01*
X12890420Y43400455D01*
X12910207Y43423019D01*
X12928029Y43448266D01*
X12998847Y43524094D01*
X13074799Y43610701D01*
X13102062Y43634611D01*
X13127201Y43661527D01*
X13204027Y43724031D01*
X13285045Y43795080D01*
X13320377Y43818689D01*
X13353557Y43845682D01*
X13433862Y43894518D01*
X13517565Y43950445D01*
X13561297Y43972012D01*
X13602881Y43997299D01*
X13684206Y44032624D01*
X13768377Y44074132D01*
X13820513Y44091831D01*
X13870527Y44113554D01*
X13950607Y44135992D01*
X14033179Y44164021D01*
X14093392Y44175998D01*
X14151511Y44192282D01*
X14228370Y44202847D01*
X14307452Y44218576D01*
X14375053Y44223008D01*
X14440598Y44232016D01*
X14512493Y44232016D01*
X14586500Y44236867D01*
X14660507Y44232016D01*
G37*
G36*
X90755094Y42025097D02*
G01*
X90912750Y41954904D01*
X91052367Y41853466D01*
X91167844Y41725217D01*
X91254132Y41575761D01*
X91307461Y41411631D01*
X91325500Y41240000D01*
X91307461Y41068369D01*
X91254132Y40904239D01*
X91167844Y40754783D01*
X91052367Y40626534D01*
X90912750Y40525096D01*
X90755094Y40454903D01*
X90586288Y40419022D01*
X90413712Y40419022D01*
X90244906Y40454903D01*
X90087250Y40525096D01*
X89947633Y40626534D01*
X89832156Y40754783D01*
X89745868Y40904239D01*
X89692539Y41068369D01*
X89674500Y41240000D01*
X89692539Y41411631D01*
X89745868Y41575761D01*
X89832156Y41725217D01*
X89947633Y41853466D01*
X90087250Y41954904D01*
X90244906Y42025097D01*
X90413712Y42060978D01*
X90586288Y42060978D01*
X90755094Y42025097D01*
G37*
G36*
X59523938Y42203350D02*
G01*
X59532782Y42199445D01*
X59539336Y42198490D01*
X59580310Y42178459D01*
X59620759Y42160599D01*
X59624503Y42156855D01*
X59624848Y42156686D01*
X59691685Y42089849D01*
X59691853Y42089505D01*
X59695599Y42085759D01*
X59713463Y42045300D01*
X59733489Y42004337D01*
X59734443Y41997786D01*
X59738350Y41988938D01*
X59746000Y41923000D01*
X59746000Y41007000D01*
X59738350Y40941062D01*
X59734443Y40932215D01*
X59733489Y40925664D01*
X59713468Y40884711D01*
X59695599Y40844241D01*
X59691852Y40840495D01*
X59691685Y40840152D01*
X59624848Y40773315D01*
X59624505Y40773148D01*
X59620759Y40769401D01*
X59580289Y40751532D01*
X59539336Y40731511D01*
X59532785Y40730557D01*
X59523938Y40726650D01*
X59458000Y40719000D01*
X58542000Y40719000D01*
X58476062Y40726650D01*
X58467214Y40730557D01*
X58460663Y40731511D01*
X58419700Y40751537D01*
X58379241Y40769401D01*
X58375495Y40773147D01*
X58375151Y40773315D01*
X58308314Y40840152D01*
X58308145Y40840497D01*
X58304401Y40844241D01*
X58286541Y40884690D01*
X58266510Y40925664D01*
X58265555Y40932218D01*
X58261650Y40941062D01*
X58254000Y41007000D01*
X58254000Y41923000D01*
X58261650Y41988938D01*
X58265554Y41997782D01*
X58266510Y42004337D01*
X58286545Y42045322D01*
X58304401Y42085759D01*
X58308144Y42089503D01*
X58308314Y42089849D01*
X58375151Y42156686D01*
X58375497Y42156856D01*
X58379241Y42160599D01*
X58419678Y42178455D01*
X58460663Y42198490D01*
X58467218Y42199446D01*
X58476062Y42203350D01*
X58542000Y42211000D01*
X59458000Y42211000D01*
X59523938Y42203350D01*
G37*
G36*
X90755094Y44565097D02*
G01*
X90912750Y44494904D01*
X91052367Y44393466D01*
X91167844Y44265217D01*
X91254132Y44115761D01*
X91307461Y43951631D01*
X91325500Y43780000D01*
X91307461Y43608369D01*
X91254132Y43444239D01*
X91167844Y43294783D01*
X91052367Y43166534D01*
X90912750Y43065096D01*
X90755094Y42994903D01*
X90586288Y42959022D01*
X90413712Y42959022D01*
X90244906Y42994903D01*
X90087250Y43065096D01*
X89947633Y43166534D01*
X89832156Y43294783D01*
X89745868Y43444239D01*
X89692539Y43608369D01*
X89674500Y43780000D01*
X89692539Y43951631D01*
X89745868Y44115761D01*
X89832156Y44265217D01*
X89947633Y44393466D01*
X90087250Y44494904D01*
X90244906Y44565097D01*
X90413712Y44600978D01*
X90586288Y44600978D01*
X90755094Y44565097D01*
G37*
G36*
X90766682Y47040762D02*
G01*
X90931500Y46967380D01*
X91077460Y46861334D01*
X91198182Y46727259D01*
X91288390Y46571014D01*
X91344141Y46399428D01*
X91363000Y46220000D01*
X91344141Y46040572D01*
X91288390Y45868986D01*
X91198182Y45712741D01*
X91077460Y45578666D01*
X90931500Y45472620D01*
X90766682Y45399238D01*
X90590208Y45361728D01*
X90409792Y45361728D01*
X90233318Y45399238D01*
X90068500Y45472620D01*
X89922540Y45578666D01*
X89801818Y45712741D01*
X89711610Y45868986D01*
X89655859Y46040572D01*
X89637000Y46220000D01*
X89655859Y46399428D01*
X89711610Y46571014D01*
X89801818Y46727259D01*
X89922540Y46861334D01*
X90068500Y46967380D01*
X90233318Y47040762D01*
X90409792Y47078272D01*
X90590208Y47078272D01*
X90766682Y47040762D01*
G37*
G36*
X90766682Y49580762D02*
G01*
X90931500Y49507380D01*
X91077460Y49401334D01*
X91198182Y49267259D01*
X91288390Y49111014D01*
X91344141Y48939428D01*
X91363000Y48760000D01*
X91344141Y48580572D01*
X91288390Y48408986D01*
X91198182Y48252741D01*
X91077460Y48118666D01*
X90931500Y48012620D01*
X90766682Y47939238D01*
X90590208Y47901728D01*
X90409792Y47901728D01*
X90233318Y47939238D01*
X90068500Y48012620D01*
X89922540Y48118666D01*
X89801818Y48252741D01*
X89711610Y48408986D01*
X89655859Y48580572D01*
X89637000Y48760000D01*
X89655859Y48939428D01*
X89711610Y49111014D01*
X89801818Y49267259D01*
X89922540Y49401334D01*
X90068500Y49507380D01*
X90233318Y49580762D01*
X90409792Y49618272D01*
X90590208Y49618272D01*
X90766682Y49580762D01*
G37*
G36*
X24622456Y51796985D02*
G01*
X24782500Y51725729D01*
X24924231Y51622755D01*
X25041456Y51492564D01*
X25129051Y51340845D01*
X25183188Y51174230D01*
X25201500Y51000000D01*
X25183188Y50825770D01*
X25129051Y50659155D01*
X25041456Y50507436D01*
X24924231Y50377245D01*
X24782500Y50274271D01*
X24622456Y50203015D01*
X24451095Y50166591D01*
X24275905Y50166591D01*
X24104544Y50203015D01*
X23944500Y50274271D01*
X23802769Y50377245D01*
X23685544Y50507436D01*
X23597949Y50659155D01*
X23543812Y50825770D01*
X23525500Y51000000D01*
X23543812Y51174230D01*
X23597949Y51340845D01*
X23685544Y51492564D01*
X23802769Y51622755D01*
X23944500Y51725729D01*
X24104544Y51796985D01*
X24275905Y51833409D01*
X24451095Y51833409D01*
X24622456Y51796985D01*
G37*
G36*
X90766682Y52120762D02*
G01*
X90931500Y52047380D01*
X91077460Y51941334D01*
X91198182Y51807259D01*
X91288390Y51651014D01*
X91344141Y51479428D01*
X91363000Y51300000D01*
X91344141Y51120572D01*
X91288390Y50948986D01*
X91198182Y50792741D01*
X91077460Y50658666D01*
X90931500Y50552620D01*
X90766682Y50479238D01*
X90590208Y50441728D01*
X90409792Y50441728D01*
X90233318Y50479238D01*
X90068500Y50552620D01*
X89922540Y50658666D01*
X89801818Y50792741D01*
X89711610Y50948986D01*
X89655859Y51120572D01*
X89637000Y51300000D01*
X89655859Y51479428D01*
X89711610Y51651014D01*
X89801818Y51807259D01*
X89922540Y51941334D01*
X90068500Y52047380D01*
X90233318Y52120762D01*
X90409792Y52158272D01*
X90590208Y52158272D01*
X90766682Y52120762D01*
G37*
G36*
X59548938Y53698350D02*
G01*
X59557782Y53694445D01*
X59564336Y53693490D01*
X59605310Y53673459D01*
X59645759Y53655599D01*
X59649503Y53651855D01*
X59649848Y53651686D01*
X59716685Y53584849D01*
X59716853Y53584505D01*
X59720599Y53580759D01*
X59738463Y53540300D01*
X59758489Y53499337D01*
X59759443Y53492786D01*
X59763350Y53483938D01*
X59771000Y53418000D01*
X59771000Y52502000D01*
X59763350Y52436062D01*
X59759443Y52427215D01*
X59758489Y52420664D01*
X59738468Y52379711D01*
X59720599Y52339241D01*
X59716852Y52335495D01*
X59716685Y52335152D01*
X59649848Y52268315D01*
X59649505Y52268148D01*
X59645759Y52264401D01*
X59605289Y52246532D01*
X59564336Y52226511D01*
X59557785Y52225557D01*
X59548938Y52221650D01*
X59483000Y52214000D01*
X58567000Y52214000D01*
X58501062Y52221650D01*
X58492214Y52225557D01*
X58485663Y52226511D01*
X58444700Y52246537D01*
X58404241Y52264401D01*
X58400495Y52268147D01*
X58400151Y52268315D01*
X58333314Y52335152D01*
X58333145Y52335497D01*
X58329401Y52339241D01*
X58311541Y52379690D01*
X58291510Y52420664D01*
X58290555Y52427218D01*
X58286650Y52436062D01*
X58279000Y52502000D01*
X58279000Y53418000D01*
X58286650Y53483938D01*
X58290554Y53492782D01*
X58291510Y53499337D01*
X58311545Y53540322D01*
X58329401Y53580759D01*
X58333144Y53584503D01*
X58333314Y53584849D01*
X58400151Y53651686D01*
X58400497Y53651856D01*
X58404241Y53655599D01*
X58444678Y53673455D01*
X58485663Y53693490D01*
X58492218Y53694446D01*
X58501062Y53698350D01*
X58567000Y53706000D01*
X59483000Y53706000D01*
X59548938Y53698350D01*
G37*
G36*
X90766682Y54660762D02*
G01*
X90931500Y54587380D01*
X91077460Y54481334D01*
X91198182Y54347259D01*
X91288390Y54191014D01*
X91344141Y54019428D01*
X91363000Y53840000D01*
X91344141Y53660572D01*
X91288390Y53488986D01*
X91198182Y53332741D01*
X91077460Y53198666D01*
X90931500Y53092620D01*
X90766682Y53019238D01*
X90590208Y52981728D01*
X90409792Y52981728D01*
X90233318Y53019238D01*
X90068500Y53092620D01*
X89922540Y53198666D01*
X89801818Y53332741D01*
X89711610Y53488986D01*
X89655859Y53660572D01*
X89637000Y53840000D01*
X89655859Y54019428D01*
X89711610Y54191014D01*
X89801818Y54347259D01*
X89922540Y54481334D01*
X90068500Y54587380D01*
X90233318Y54660762D01*
X90409792Y54698272D01*
X90590208Y54698272D01*
X90766682Y54660762D01*
G37*
G36*
X59191001Y56227296D02*
G01*
X59348677Y56172123D01*
X59490123Y56083246D01*
X59608246Y55965123D01*
X59697123Y55823677D01*
X59752296Y55666001D01*
X59771000Y55500000D01*
X59752296Y55333999D01*
X59697123Y55176323D01*
X59608246Y55034877D01*
X59490123Y54916754D01*
X59348677Y54827877D01*
X59191001Y54772704D01*
X59025000Y54754000D01*
X58858999Y54772704D01*
X58701323Y54827877D01*
X58559877Y54916754D01*
X58441754Y55034877D01*
X58352877Y55176323D01*
X58297704Y55333999D01*
X58279000Y55500000D01*
X58297704Y55666001D01*
X58352877Y55823677D01*
X58441754Y55965123D01*
X58559877Y56083246D01*
X58701323Y56172123D01*
X58858999Y56227296D01*
X59025000Y56246000D01*
X59191001Y56227296D01*
G37*
G36*
X90766682Y57200762D02*
G01*
X90931500Y57127380D01*
X91077460Y57021334D01*
X91198182Y56887259D01*
X91288390Y56731014D01*
X91344141Y56559428D01*
X91363000Y56380000D01*
X91344141Y56200572D01*
X91288390Y56028986D01*
X91198182Y55872741D01*
X91077460Y55738666D01*
X90931500Y55632620D01*
X90766682Y55559238D01*
X90590208Y55521728D01*
X90409792Y55521728D01*
X90233318Y55559238D01*
X90068500Y55632620D01*
X89922540Y55738666D01*
X89801818Y55872741D01*
X89711610Y56028986D01*
X89655859Y56200572D01*
X89637000Y56380000D01*
X89655859Y56559428D01*
X89711610Y56731014D01*
X89801818Y56887259D01*
X89922540Y57021334D01*
X90068500Y57127380D01*
X90233318Y57200762D01*
X90409792Y57238272D01*
X90590208Y57238272D01*
X90766682Y57200762D01*
G37*
G36*
X24622456Y58796985D02*
G01*
X24782500Y58725729D01*
X24924231Y58622755D01*
X25041456Y58492564D01*
X25129051Y58340845D01*
X25183188Y58174230D01*
X25201500Y58000000D01*
X25183188Y57825770D01*
X25129051Y57659155D01*
X25041456Y57507436D01*
X24924231Y57377245D01*
X24782500Y57274271D01*
X24622456Y57203015D01*
X24451095Y57166591D01*
X24275905Y57166591D01*
X24104544Y57203015D01*
X23944500Y57274271D01*
X23802769Y57377245D01*
X23685544Y57507436D01*
X23597949Y57659155D01*
X23543812Y57825770D01*
X23525500Y58000000D01*
X23543812Y58174230D01*
X23597949Y58340845D01*
X23685544Y58492564D01*
X23802769Y58622755D01*
X23944500Y58725729D01*
X24104544Y58796985D01*
X24275905Y58833409D01*
X24451095Y58833409D01*
X24622456Y58796985D01*
G37*
G36*
X90766682Y59740762D02*
G01*
X90931500Y59667380D01*
X91077460Y59561334D01*
X91198182Y59427259D01*
X91288390Y59271014D01*
X91344141Y59099428D01*
X91363000Y58920000D01*
X91344141Y58740572D01*
X91288390Y58568986D01*
X91198182Y58412741D01*
X91077460Y58278666D01*
X90931500Y58172620D01*
X90766682Y58099238D01*
X90590208Y58061728D01*
X90409792Y58061728D01*
X90233318Y58099238D01*
X90068500Y58172620D01*
X89922540Y58278666D01*
X89801818Y58412741D01*
X89711610Y58568986D01*
X89655859Y58740572D01*
X89637000Y58920000D01*
X89655859Y59099428D01*
X89711610Y59271014D01*
X89801818Y59427259D01*
X89922540Y59561334D01*
X90068500Y59667380D01*
X90233318Y59740762D01*
X90409792Y59778272D01*
X90590208Y59778272D01*
X90766682Y59740762D01*
G37*
G36*
X90766682Y62280762D02*
G01*
X90931500Y62207380D01*
X91077460Y62101334D01*
X91198182Y61967259D01*
X91288390Y61811014D01*
X91344141Y61639428D01*
X91363000Y61460000D01*
X91344141Y61280572D01*
X91288390Y61108986D01*
X91198182Y60952741D01*
X91077460Y60818666D01*
X90931500Y60712620D01*
X90766682Y60639238D01*
X90590208Y60601728D01*
X90409792Y60601728D01*
X90233318Y60639238D01*
X90068500Y60712620D01*
X89922540Y60818666D01*
X89801818Y60952741D01*
X89711610Y61108986D01*
X89655859Y61280572D01*
X89637000Y61460000D01*
X89655859Y61639428D01*
X89711610Y61811014D01*
X89801818Y61967259D01*
X89922540Y62101334D01*
X90068500Y62207380D01*
X90233318Y62280762D01*
X90409792Y62318272D01*
X90590208Y62318272D01*
X90766682Y62280762D01*
G37*
G36*
X91140938Y64855350D02*
G01*
X91149782Y64851445D01*
X91156336Y64850490D01*
X91197310Y64830459D01*
X91237759Y64812599D01*
X91241503Y64808855D01*
X91241848Y64808686D01*
X91308685Y64741849D01*
X91308853Y64741505D01*
X91312599Y64737759D01*
X91330463Y64697300D01*
X91350489Y64656337D01*
X91351443Y64649786D01*
X91355350Y64640938D01*
X91363000Y64575000D01*
X91363000Y63425000D01*
X91355350Y63359062D01*
X91351443Y63350215D01*
X91350489Y63343664D01*
X91330468Y63302711D01*
X91312599Y63262241D01*
X91308852Y63258495D01*
X91308685Y63258152D01*
X91241848Y63191315D01*
X91241505Y63191148D01*
X91237759Y63187401D01*
X91197289Y63169532D01*
X91156336Y63149511D01*
X91149785Y63148557D01*
X91140938Y63144650D01*
X91075000Y63137000D01*
X89925000Y63137000D01*
X89859062Y63144650D01*
X89850214Y63148557D01*
X89843663Y63149511D01*
X89802700Y63169537D01*
X89762241Y63187401D01*
X89758495Y63191147D01*
X89758151Y63191315D01*
X89691314Y63258152D01*
X89691145Y63258497D01*
X89687401Y63262241D01*
X89669541Y63302690D01*
X89649510Y63343664D01*
X89648555Y63350218D01*
X89644650Y63359062D01*
X89637000Y63425000D01*
X89637000Y64575000D01*
X89644650Y64640938D01*
X89648554Y64649782D01*
X89649510Y64656337D01*
X89669545Y64697322D01*
X89687401Y64737759D01*
X89691144Y64741503D01*
X89691314Y64741849D01*
X89758151Y64808686D01*
X89758497Y64808856D01*
X89762241Y64812599D01*
X89802678Y64830455D01*
X89843663Y64850490D01*
X89850218Y64851446D01*
X89859062Y64855350D01*
X89925000Y64863000D01*
X91075000Y64863000D01*
X91140938Y64855350D01*
G37*
G36*
X51695509Y75730810D02*
G01*
X52016272Y75672028D01*
X52327610Y75575011D01*
X52624985Y75441174D01*
X52904059Y75272468D01*
X53160763Y75071353D01*
X53391353Y74840763D01*
X53592468Y74584059D01*
X53761174Y74304985D01*
X53895011Y74007610D01*
X53992028Y73696272D01*
X54050810Y73375509D01*
X54070500Y73050000D01*
X54050810Y72724491D01*
X53992028Y72403728D01*
X53895011Y72092390D01*
X53761174Y71795015D01*
X53592468Y71515941D01*
X53391353Y71259237D01*
X53160763Y71028647D01*
X52904059Y70827532D01*
X52624985Y70658826D01*
X52327610Y70524989D01*
X52016272Y70427972D01*
X51695509Y70369190D01*
X51370000Y70349500D01*
X51044491Y70369190D01*
X50723728Y70427972D01*
X50412390Y70524989D01*
X50115015Y70658826D01*
X49835941Y70827532D01*
X49579237Y71028647D01*
X49348647Y71259237D01*
X49147532Y71515941D01*
X48978826Y71795015D01*
X48844989Y72092390D01*
X48747972Y72403728D01*
X48689190Y72724491D01*
X48669500Y73050000D01*
X48689190Y73375509D01*
X48747972Y73696272D01*
X48844989Y74007610D01*
X48978826Y74304985D01*
X49147532Y74584059D01*
X49348647Y74840763D01*
X49579237Y75071353D01*
X49835941Y75272468D01*
X50115015Y75441174D01*
X50412390Y75575011D01*
X50723728Y75672028D01*
X51044491Y75730810D01*
X51370000Y75750500D01*
X51695509Y75730810D01*
G37*
G36*
X81565509Y75730810D02*
G01*
X81886272Y75672028D01*
X82197610Y75575011D01*
X82494985Y75441174D01*
X82774059Y75272468D01*
X83030763Y75071353D01*
X83261353Y74840763D01*
X83462468Y74584059D01*
X83631174Y74304985D01*
X83765011Y74007610D01*
X83862028Y73696272D01*
X83920810Y73375509D01*
X83940500Y73050000D01*
X83920810Y72724491D01*
X83862028Y72403728D01*
X83765011Y72092390D01*
X83631174Y71795015D01*
X83462468Y71515941D01*
X83261353Y71259237D01*
X83030763Y71028647D01*
X82774059Y70827532D01*
X82494985Y70658826D01*
X82197610Y70524989D01*
X81886272Y70427972D01*
X81565509Y70369190D01*
X81240000Y70349500D01*
X80914491Y70369190D01*
X80593728Y70427972D01*
X80282390Y70524989D01*
X79985015Y70658826D01*
X79705941Y70827532D01*
X79449237Y71028647D01*
X79218647Y71259237D01*
X79017532Y71515941D01*
X78848826Y71795015D01*
X78714989Y72092390D01*
X78617972Y72403728D01*
X78559190Y72724491D01*
X78539500Y73050000D01*
X78559190Y73375509D01*
X78617972Y73696272D01*
X78714989Y74007610D01*
X78848826Y74304985D01*
X79017532Y74584059D01*
X79218647Y74840763D01*
X79449237Y75071353D01*
X79705941Y75272468D01*
X79985015Y75441174D01*
X80282390Y75575011D01*
X80593728Y75672028D01*
X80914491Y75730810D01*
X81240000Y75750500D01*
X81565509Y75730810D01*
G37*
G36*
X14660507Y76034016D02*
G01*
X14732402Y76034016D01*
X14797947Y76025008D01*
X14865547Y76020576D01*
X14944626Y76004847D01*
X15021489Y75994282D01*
X15079610Y75977998D01*
X15139820Y75966021D01*
X15222386Y75937994D01*
X15302473Y75915554D01*
X15352489Y75893829D01*
X15404622Y75876132D01*
X15488787Y75834627D01*
X15570119Y75799299D01*
X15611703Y75774011D01*
X15655435Y75752445D01*
X15739133Y75696520D01*
X15819443Y75647682D01*
X15852625Y75620686D01*
X15887954Y75597080D01*
X15968958Y75526042D01*
X16045799Y75463527D01*
X16070942Y75436606D01*
X16098200Y75412701D01*
X16174136Y75326112D01*
X16244971Y75250266D01*
X16262797Y75225013D01*
X16282579Y75202455D01*
X16350986Y75100077D01*
X16413249Y75011870D01*
X16424733Y74989706D01*
X16437944Y74969935D01*
X16496418Y74851361D01*
X16547498Y74752782D01*
X16553859Y74734882D01*
X16561631Y74719123D01*
X16607857Y74582945D01*
X16645217Y74477825D01*
X16647861Y74465098D01*
X16651520Y74454321D01*
X16683238Y74294857D01*
X16704587Y74192124D01*
X16705066Y74185121D01*
X16706075Y74180048D01*
X16721286Y73947976D01*
X16724500Y73901000D01*
X16721286Y73854021D01*
X16706075Y73621953D01*
X16705066Y73616882D01*
X16704587Y73609876D01*
X16683234Y73507122D01*
X16651520Y73347680D01*
X16647862Y73336906D01*
X16645217Y73324175D01*
X16607850Y73219034D01*
X16561631Y73082878D01*
X16553861Y73067123D01*
X16547498Y73049218D01*
X16496413Y72950630D01*
X16437944Y72832065D01*
X16424733Y72812295D01*
X16413249Y72790130D01*
X16350979Y72701915D01*
X16282579Y72599546D01*
X16262800Y72576993D01*
X16244971Y72551734D01*
X16174122Y72475874D01*
X16098200Y72389300D01*
X16070947Y72365401D01*
X16045799Y72338473D01*
X15968943Y72275946D01*
X15887954Y72204921D01*
X15852632Y72181321D01*
X15819443Y72154318D01*
X15739116Y72105471D01*
X15655435Y72049556D01*
X15611712Y72027995D01*
X15570119Y72002701D01*
X15488770Y71967367D01*
X15404622Y71925869D01*
X15352500Y71908176D01*
X15302473Y71886446D01*
X15222369Y71864003D01*
X15139820Y71835980D01*
X15079622Y71824007D01*
X15021489Y71807718D01*
X14944610Y71797152D01*
X14865547Y71781425D01*
X14797961Y71776995D01*
X14732402Y71767984D01*
X14660491Y71767984D01*
X14586500Y71763134D01*
X14512508Y71767984D01*
X14440598Y71767984D01*
X14375039Y71776995D01*
X14307452Y71781425D01*
X14228386Y71797152D01*
X14151511Y71807718D01*
X14093379Y71824006D01*
X14033179Y71835980D01*
X13950624Y71864004D01*
X13870527Y71886446D01*
X13820503Y71908175D01*
X13768377Y71925869D01*
X13684220Y71967371D01*
X13602881Y72002701D01*
X13561291Y72027992D01*
X13517564Y72049556D01*
X13433872Y72105478D01*
X13353557Y72154318D01*
X13320371Y72181317D01*
X13285045Y72204921D01*
X13204043Y72275958D01*
X13127201Y72338473D01*
X13102057Y72365396D01*
X13074799Y72389300D01*
X12998861Y72475891D01*
X12928029Y72551734D01*
X12910203Y72576988D01*
X12890420Y72599546D01*
X12822001Y72701941D01*
X12759751Y72790130D01*
X12748269Y72812289D01*
X12735055Y72832065D01*
X12676565Y72950670D01*
X12625502Y73049218D01*
X12619141Y73067115D01*
X12611368Y73082878D01*
X12565127Y73219097D01*
X12527783Y73324175D01*
X12525139Y73336898D01*
X12521479Y73347680D01*
X12489742Y73507234D01*
X12468413Y73609876D01*
X12467934Y73616874D01*
X12466924Y73621953D01*
X12451689Y73854372D01*
X12448500Y73901000D01*
X12451689Y73947626D01*
X12466924Y74180048D01*
X12467934Y74185129D01*
X12468413Y74192124D01*
X12489737Y74294744D01*
X12521479Y74454321D01*
X12525139Y74465106D01*
X12527783Y74477825D01*
X12565119Y74582883D01*
X12611368Y74719123D01*
X12619142Y74734889D01*
X12625502Y74752782D01*
X12676560Y74851321D01*
X12735055Y74969935D01*
X12748269Y74989713D01*
X12759751Y75011870D01*
X12821994Y75100050D01*
X12890420Y75202455D01*
X12910207Y75225019D01*
X12928029Y75250266D01*
X12998847Y75326094D01*
X13074799Y75412701D01*
X13102062Y75436611D01*
X13127201Y75463527D01*
X13204027Y75526031D01*
X13285045Y75597080D01*
X13320377Y75620689D01*
X13353557Y75647682D01*
X13433862Y75696518D01*
X13517565Y75752445D01*
X13561297Y75774012D01*
X13602881Y75799299D01*
X13684206Y75834624D01*
X13768377Y75876132D01*
X13820513Y75893831D01*
X13870527Y75915554D01*
X13950607Y75937992D01*
X14033179Y75966021D01*
X14093392Y75977998D01*
X14151511Y75994282D01*
X14228370Y76004847D01*
X14307452Y76020576D01*
X14375053Y76025008D01*
X14440598Y76034016D01*
X14512493Y76034016D01*
X14586500Y76038867D01*
X14660507Y76034016D01*
G37*
G36*
X35699333Y83075382D02*
G01*
X35766793Y83075382D01*
X35827714Y83066200D01*
X35890484Y83061710D01*
X35964894Y83045524D01*
X36037325Y83034606D01*
X36090544Y83018190D01*
X36145670Y83006198D01*
X36223359Y82977222D01*
X36298757Y82953964D01*
X36343554Y82932391D01*
X36390350Y82914937D01*
X36469170Y82871898D01*
X36545250Y82835260D01*
X36581382Y82810626D01*
X36619556Y82789781D01*
X36697129Y82731711D01*
X36771298Y82681143D01*
X36798934Y82655501D01*
X36828621Y82633277D01*
X36902407Y82559491D01*
X36971851Y82495056D01*
X36991574Y82470324D01*
X37013276Y82448622D01*
X37080579Y82358715D01*
X37142430Y82281157D01*
X37155213Y82259017D01*
X37169780Y82239557D01*
X37227888Y82133139D01*
X37279224Y82044224D01*
X37286338Y82026096D01*
X37294936Y82010351D01*
X37341212Y81886279D01*
X37379176Y81789549D01*
X37382148Y81776526D01*
X37386197Y81765671D01*
X37418108Y81618977D01*
X37440055Y81522822D01*
X37440596Y81515601D01*
X37441709Y81510485D01*
X37456988Y81296857D01*
X37460500Y81250000D01*
X37456988Y81203140D01*
X37441709Y80989516D01*
X37440596Y80984401D01*
X37440055Y80977178D01*
X37418103Y80881004D01*
X37386197Y80734330D01*
X37382149Y80723478D01*
X37379176Y80710451D01*
X37341205Y80613703D01*
X37294936Y80489650D01*
X37286340Y80473909D01*
X37279224Y80455776D01*
X37227878Y80366844D01*
X37169780Y80260444D01*
X37155215Y80240989D01*
X37142430Y80218843D01*
X37080567Y80141271D01*
X37013276Y80051379D01*
X36991578Y80029682D01*
X36971851Y80004944D01*
X36902393Y79940497D01*
X36828621Y79866724D01*
X36798939Y79844505D01*
X36771298Y79818857D01*
X36697114Y79768280D01*
X36619556Y79710220D01*
X36581389Y79689380D01*
X36545250Y79664740D01*
X36469155Y79628095D01*
X36390350Y79585064D01*
X36343563Y79567614D01*
X36298757Y79546036D01*
X36223343Y79522774D01*
X36145670Y79493803D01*
X36090555Y79481814D01*
X36037325Y79465394D01*
X35964879Y79454475D01*
X35890484Y79438291D01*
X35827727Y79433803D01*
X35766793Y79424618D01*
X35699319Y79424618D01*
X35630000Y79419660D01*
X35560681Y79424618D01*
X35493207Y79424618D01*
X35432273Y79433803D01*
X35369515Y79438291D01*
X35295117Y79454476D01*
X35222675Y79465394D01*
X35169446Y79481813D01*
X35114329Y79493803D01*
X35036650Y79522776D01*
X34961243Y79546036D01*
X34916440Y79567612D01*
X34869649Y79585064D01*
X34790836Y79628099D01*
X34714750Y79664740D01*
X34678614Y79689377D01*
X34640443Y79710220D01*
X34562874Y79768288D01*
X34488702Y79818857D01*
X34461064Y79844501D01*
X34431378Y79866724D01*
X34357592Y79940510D01*
X34288149Y80004944D01*
X34268425Y80029677D01*
X34246723Y80051379D01*
X34179416Y80141291D01*
X34117570Y80218843D01*
X34104787Y80240983D01*
X34090219Y80260444D01*
X34032102Y80366876D01*
X33980776Y80455776D01*
X33973662Y80473902D01*
X33965063Y80489650D01*
X33918774Y80613754D01*
X33880824Y80710451D01*
X33877852Y80723471D01*
X33873802Y80734330D01*
X33841875Y80881097D01*
X33819945Y80977178D01*
X33819404Y80984394D01*
X33818290Y80989516D01*
X33802989Y81203433D01*
X33799500Y81250000D01*
X33802989Y81296564D01*
X33818290Y81510485D01*
X33819404Y81515608D01*
X33819945Y81522822D01*
X33841870Y81618884D01*
X33873802Y81765671D01*
X33877852Y81776532D01*
X33880824Y81789549D01*
X33918767Y81886228D01*
X33965063Y82010351D01*
X33973663Y82026102D01*
X33980776Y82044224D01*
X34032092Y82133108D01*
X34090219Y82239557D01*
X34104790Y82259022D01*
X34117570Y82281157D01*
X34179403Y82358695D01*
X34246723Y82448622D01*
X34268429Y82470329D01*
X34288149Y82495056D01*
X34357578Y82559478D01*
X34431378Y82633277D01*
X34461070Y82655505D01*
X34488702Y82681143D01*
X34562859Y82731703D01*
X34640443Y82789781D01*
X34678621Y82810629D01*
X34714750Y82835260D01*
X34790820Y82871894D01*
X34869649Y82914937D01*
X34916449Y82932393D01*
X34961243Y82953964D01*
X35036635Y82977220D01*
X35114329Y83006198D01*
X35169457Y83018191D01*
X35222675Y83034606D01*
X35295102Y83045523D01*
X35369515Y83061710D01*
X35432285Y83066200D01*
X35493207Y83075382D01*
X35560667Y83075382D01*
X35630000Y83080341D01*
X35699333Y83075382D01*
G37*
G36*
X65569333Y83075382D02*
G01*
X65636793Y83075382D01*
X65697714Y83066200D01*
X65760484Y83061710D01*
X65834894Y83045524D01*
X65907325Y83034606D01*
X65960544Y83018190D01*
X66015670Y83006198D01*
X66093359Y82977222D01*
X66168757Y82953964D01*
X66213554Y82932391D01*
X66260350Y82914937D01*
X66339170Y82871898D01*
X66415250Y82835260D01*
X66451382Y82810626D01*
X66489556Y82789781D01*
X66567129Y82731711D01*
X66641298Y82681143D01*
X66668934Y82655501D01*
X66698621Y82633277D01*
X66772407Y82559491D01*
X66841851Y82495056D01*
X66861574Y82470324D01*
X66883276Y82448622D01*
X66950579Y82358715D01*
X67012430Y82281157D01*
X67025213Y82259017D01*
X67039780Y82239557D01*
X67097888Y82133139D01*
X67149224Y82044224D01*
X67156338Y82026096D01*
X67164936Y82010351D01*
X67211212Y81886279D01*
X67249176Y81789549D01*
X67252148Y81776526D01*
X67256197Y81765671D01*
X67288108Y81618977D01*
X67310055Y81522822D01*
X67310596Y81515601D01*
X67311709Y81510485D01*
X67326988Y81296857D01*
X67330500Y81250000D01*
X67326988Y81203140D01*
X67311709Y80989516D01*
X67310596Y80984401D01*
X67310055Y80977178D01*
X67288103Y80881004D01*
X67256197Y80734330D01*
X67252149Y80723478D01*
X67249176Y80710451D01*
X67211205Y80613703D01*
X67164936Y80489650D01*
X67156340Y80473909D01*
X67149224Y80455776D01*
X67097878Y80366844D01*
X67039780Y80260444D01*
X67025215Y80240989D01*
X67012430Y80218843D01*
X66950567Y80141271D01*
X66883276Y80051379D01*
X66861578Y80029682D01*
X66841851Y80004944D01*
X66772393Y79940497D01*
X66698621Y79866724D01*
X66668939Y79844505D01*
X66641298Y79818857D01*
X66567114Y79768280D01*
X66489556Y79710220D01*
X66451389Y79689380D01*
X66415250Y79664740D01*
X66339155Y79628095D01*
X66260350Y79585064D01*
X66213563Y79567614D01*
X66168757Y79546036D01*
X66093343Y79522774D01*
X66015670Y79493803D01*
X65960555Y79481814D01*
X65907325Y79465394D01*
X65834879Y79454475D01*
X65760484Y79438291D01*
X65697727Y79433803D01*
X65636793Y79424618D01*
X65569319Y79424618D01*
X65500000Y79419660D01*
X65430681Y79424618D01*
X65363207Y79424618D01*
X65302273Y79433803D01*
X65239515Y79438291D01*
X65165117Y79454476D01*
X65092675Y79465394D01*
X65039446Y79481813D01*
X64984329Y79493803D01*
X64906650Y79522776D01*
X64831243Y79546036D01*
X64786440Y79567612D01*
X64739649Y79585064D01*
X64660836Y79628099D01*
X64584750Y79664740D01*
X64548614Y79689377D01*
X64510443Y79710220D01*
X64432874Y79768288D01*
X64358702Y79818857D01*
X64331064Y79844501D01*
X64301378Y79866724D01*
X64227592Y79940510D01*
X64158149Y80004944D01*
X64138425Y80029677D01*
X64116723Y80051379D01*
X64049416Y80141291D01*
X63987570Y80218843D01*
X63974787Y80240983D01*
X63960219Y80260444D01*
X63902102Y80366876D01*
X63850776Y80455776D01*
X63843662Y80473902D01*
X63835063Y80489650D01*
X63788774Y80613754D01*
X63750824Y80710451D01*
X63747852Y80723471D01*
X63743802Y80734330D01*
X63711875Y80881097D01*
X63689945Y80977178D01*
X63689404Y80984394D01*
X63688290Y80989516D01*
X63672989Y81203433D01*
X63669500Y81250000D01*
X63672989Y81296564D01*
X63688290Y81510485D01*
X63689404Y81515608D01*
X63689945Y81522822D01*
X63711870Y81618884D01*
X63743802Y81765671D01*
X63747852Y81776532D01*
X63750824Y81789549D01*
X63788767Y81886228D01*
X63835063Y82010351D01*
X63843663Y82026102D01*
X63850776Y82044224D01*
X63902092Y82133108D01*
X63960219Y82239557D01*
X63974790Y82259022D01*
X63987570Y82281157D01*
X64049403Y82358695D01*
X64116723Y82448622D01*
X64138429Y82470329D01*
X64158149Y82495056D01*
X64227578Y82559478D01*
X64301378Y82633277D01*
X64331070Y82655505D01*
X64358702Y82681143D01*
X64432859Y82731703D01*
X64510443Y82789781D01*
X64548621Y82810629D01*
X64584750Y82835260D01*
X64660820Y82871894D01*
X64739649Y82914937D01*
X64786449Y82932393D01*
X64831243Y82953964D01*
X64906635Y82977220D01*
X64984329Y83006198D01*
X65039457Y83018191D01*
X65092675Y83034606D01*
X65165102Y83045523D01*
X65239515Y83061710D01*
X65302285Y83066200D01*
X65363207Y83075382D01*
X65430667Y83075382D01*
X65500000Y83080341D01*
X65569333Y83075382D01*
G37*
G36*
X58490596Y82769065D02*
G01*
X58725268Y82712725D01*
X58948237Y82620368D01*
X59154014Y82494268D01*
X59337530Y82337530D01*
X59494268Y82154014D01*
X59620368Y81948237D01*
X59712725Y81725268D01*
X59769065Y81490596D01*
X59788000Y81250000D01*
X59769065Y81009404D01*
X59712725Y80774732D01*
X59620368Y80551763D01*
X59494268Y80345986D01*
X59337530Y80162470D01*
X59154014Y80005732D01*
X58948237Y79879632D01*
X58725268Y79787275D01*
X58490596Y79730935D01*
X58250000Y79712000D01*
X58009404Y79730935D01*
X57774732Y79787275D01*
X57551763Y79879632D01*
X57345986Y80005732D01*
X57162470Y80162470D01*
X57005732Y80345986D01*
X56879632Y80551763D01*
X56787275Y80774732D01*
X56730935Y81009404D01*
X56712000Y81250000D01*
X56730935Y81490596D01*
X56787275Y81725268D01*
X56879632Y81948237D01*
X57005732Y82154014D01*
X57162470Y82337530D01*
X57345986Y82494268D01*
X57551763Y82620368D01*
X57774732Y82712725D01*
X58009404Y82769065D01*
X58250000Y82788000D01*
X58490596Y82769065D01*
G37*
G36*
X43547232Y82273348D02*
G01*
X43594827Y82273348D01*
X43647834Y82263440D01*
X43700553Y82258247D01*
X43740600Y82246099D01*
X43781251Y82238500D01*
X43837550Y82216690D01*
X43893399Y82199748D01*
X43925310Y82182691D01*
X43958098Y82169989D01*
X44015064Y82134717D01*
X44071126Y82104751D01*
X44094683Y82085419D01*
X44119350Y82070145D01*
X44174004Y82020322D01*
X44226906Y81976906D01*
X44242582Y81957805D01*
X44259502Y81942380D01*
X44308627Y81877328D01*
X44354751Y81821126D01*
X44363669Y81804442D01*
X44373794Y81791034D01*
X44414074Y81710140D01*
X44449748Y81643399D01*
X44453552Y81630856D01*
X44458331Y81621260D01*
X44486559Y81522046D01*
X44508247Y81450553D01*
X44508959Y81443321D01*
X44510233Y81438844D01*
X44523471Y81295978D01*
X44528000Y81250000D01*
X44523471Y81204019D01*
X44510233Y81061157D01*
X44508959Y81056682D01*
X44508247Y81049447D01*
X44486555Y80977940D01*
X44458331Y80878741D01*
X44453553Y80869147D01*
X44449748Y80856601D01*
X44414067Y80789847D01*
X44373794Y80708967D01*
X44363670Y80695562D01*
X44354751Y80678874D01*
X44308617Y80622661D01*
X44259502Y80557621D01*
X44242585Y80542200D01*
X44226906Y80523094D01*
X44173993Y80479670D01*
X44119350Y80429856D01*
X44094688Y80414586D01*
X44071126Y80395249D01*
X44015052Y80365278D01*
X43958098Y80330012D01*
X43925317Y80317313D01*
X43893399Y80300252D01*
X43837538Y80283308D01*
X43781251Y80261501D01*
X43740607Y80253904D01*
X43700553Y80241753D01*
X43647831Y80236561D01*
X43594827Y80226652D01*
X43547232Y80226652D01*
X43500000Y80222000D01*
X43452768Y80226652D01*
X43405173Y80226652D01*
X43352168Y80236561D01*
X43299447Y80241753D01*
X43259393Y80253903D01*
X43218748Y80261501D01*
X43162456Y80283309D01*
X43106601Y80300252D01*
X43074685Y80317312D01*
X43041901Y80330012D01*
X42984939Y80365282D01*
X42928874Y80395249D01*
X42905315Y80414584D01*
X42880649Y80429856D01*
X42825996Y80479679D01*
X42773094Y80523094D01*
X42757417Y80542197D01*
X42740497Y80557621D01*
X42691369Y80622676D01*
X42645249Y80678874D01*
X42636331Y80695558D01*
X42626205Y80708967D01*
X42585918Y80789875D01*
X42550252Y80856601D01*
X42546447Y80869142D01*
X42541668Y80878741D01*
X42513428Y80977993D01*
X42491753Y81049447D01*
X42491041Y81056676D01*
X42489766Y81061157D01*
X42476511Y81204190D01*
X42472000Y81250000D01*
X42476511Y81295807D01*
X42489766Y81438844D01*
X42491041Y81443326D01*
X42491753Y81450553D01*
X42513423Y81521993D01*
X42541668Y81621260D01*
X42546448Y81630861D01*
X42550252Y81643399D01*
X42585910Y81710113D01*
X42626205Y81791034D01*
X42636333Y81804447D01*
X42645249Y81821126D01*
X42691360Y81877313D01*
X42740497Y81942380D01*
X42757420Y81957808D01*
X42773094Y81976906D01*
X42825985Y82020313D01*
X42880649Y82070145D01*
X42905320Y82085421D01*
X42928874Y82104751D01*
X42984928Y82134713D01*
X43041901Y82169989D01*
X43074692Y82182693D01*
X43106601Y82199748D01*
X43162444Y82216688D01*
X43218748Y82238500D01*
X43259400Y82246100D01*
X43299447Y82258247D01*
X43352165Y82263440D01*
X43405173Y82273348D01*
X43452768Y82273348D01*
X43500000Y82278000D01*
X43547232Y82273348D01*
G37*
G36*
X73417232Y82273348D02*
G01*
X73464827Y82273348D01*
X73517834Y82263440D01*
X73570553Y82258247D01*
X73610600Y82246099D01*
X73651251Y82238500D01*
X73707550Y82216690D01*
X73763399Y82199748D01*
X73795310Y82182691D01*
X73828098Y82169989D01*
X73885064Y82134717D01*
X73941126Y82104751D01*
X73964683Y82085419D01*
X73989350Y82070145D01*
X74044004Y82020322D01*
X74096906Y81976906D01*
X74112582Y81957805D01*
X74129502Y81942380D01*
X74178627Y81877328D01*
X74224751Y81821126D01*
X74233669Y81804442D01*
X74243794Y81791034D01*
X74284074Y81710140D01*
X74319748Y81643399D01*
X74323552Y81630856D01*
X74328331Y81621260D01*
X74356559Y81522046D01*
X74378247Y81450553D01*
X74378959Y81443321D01*
X74380233Y81438844D01*
X74393471Y81295978D01*
X74398000Y81250000D01*
X74393471Y81204019D01*
X74380233Y81061157D01*
X74378959Y81056682D01*
X74378247Y81049447D01*
X74356555Y80977940D01*
X74328331Y80878741D01*
X74323553Y80869147D01*
X74319748Y80856601D01*
X74284067Y80789847D01*
X74243794Y80708967D01*
X74233670Y80695562D01*
X74224751Y80678874D01*
X74178617Y80622661D01*
X74129502Y80557621D01*
X74112585Y80542200D01*
X74096906Y80523094D01*
X74043993Y80479670D01*
X73989350Y80429856D01*
X73964688Y80414586D01*
X73941126Y80395249D01*
X73885052Y80365278D01*
X73828098Y80330012D01*
X73795317Y80317313D01*
X73763399Y80300252D01*
X73707538Y80283308D01*
X73651251Y80261501D01*
X73610607Y80253904D01*
X73570553Y80241753D01*
X73517831Y80236561D01*
X73464827Y80226652D01*
X73417232Y80226652D01*
X73370000Y80222000D01*
X73322768Y80226652D01*
X73275173Y80226652D01*
X73222168Y80236561D01*
X73169447Y80241753D01*
X73129393Y80253903D01*
X73088748Y80261501D01*
X73032456Y80283309D01*
X72976601Y80300252D01*
X72944685Y80317312D01*
X72911901Y80330012D01*
X72854939Y80365282D01*
X72798874Y80395249D01*
X72775315Y80414584D01*
X72750649Y80429856D01*
X72695996Y80479679D01*
X72643094Y80523094D01*
X72627417Y80542197D01*
X72610497Y80557621D01*
X72561369Y80622676D01*
X72515249Y80678874D01*
X72506331Y80695558D01*
X72496205Y80708967D01*
X72455918Y80789875D01*
X72420252Y80856601D01*
X72416447Y80869142D01*
X72411668Y80878741D01*
X72383428Y80977993D01*
X72361753Y81049447D01*
X72361041Y81056676D01*
X72359766Y81061157D01*
X72346511Y81204190D01*
X72342000Y81250000D01*
X72346511Y81295807D01*
X72359766Y81438844D01*
X72361041Y81443326D01*
X72361753Y81450553D01*
X72383423Y81521993D01*
X72411668Y81621260D01*
X72416448Y81630861D01*
X72420252Y81643399D01*
X72455910Y81710113D01*
X72496205Y81791034D01*
X72506333Y81804447D01*
X72515249Y81821126D01*
X72561360Y81877313D01*
X72610497Y81942380D01*
X72627420Y81957808D01*
X72643094Y81976906D01*
X72695985Y82020313D01*
X72750649Y82070145D01*
X72775320Y82085421D01*
X72798874Y82104751D01*
X72854928Y82134713D01*
X72911901Y82169989D01*
X72944692Y82182693D01*
X72976601Y82199748D01*
X73032444Y82216688D01*
X73088748Y82238500D01*
X73129400Y82246100D01*
X73169447Y82258247D01*
X73222165Y82263440D01*
X73275173Y82273348D01*
X73322768Y82273348D01*
X73370000Y82278000D01*
X73417232Y82273348D01*
G37*
G36*
X6023850Y87695344D02*
G01*
X6366257Y87619975D01*
X6698507Y87508027D01*
X7016707Y87360812D01*
X7317124Y87180057D01*
X7596237Y86967881D01*
X7850773Y86726771D01*
X8077749Y86459554D01*
X8274504Y86169363D01*
X8438729Y85859601D01*
X8568501Y85533898D01*
X8662297Y85196074D01*
X8719019Y84850089D01*
X8738000Y84500000D01*
X8719019Y84149911D01*
X8662297Y83803926D01*
X8568501Y83466102D01*
X8438729Y83140399D01*
X8274504Y82830637D01*
X8077749Y82540446D01*
X7850773Y82273229D01*
X7596237Y82032119D01*
X7317124Y81819943D01*
X7016707Y81639188D01*
X6698507Y81491973D01*
X6366257Y81380025D01*
X6023850Y81304656D01*
X5675302Y81266749D01*
X5324698Y81266749D01*
X4976150Y81304656D01*
X4633743Y81380025D01*
X4301493Y81491973D01*
X3983293Y81639188D01*
X3682876Y81819943D01*
X3403763Y82032119D01*
X3149227Y82273229D01*
X2922251Y82540446D01*
X2725496Y82830637D01*
X2561271Y83140399D01*
X2431499Y83466102D01*
X2337703Y83803926D01*
X2280981Y84149911D01*
X2262000Y84500000D01*
X2280981Y84850089D01*
X2337703Y85196074D01*
X2431499Y85533898D01*
X2561271Y85859601D01*
X2725496Y86169363D01*
X2922251Y86459554D01*
X3149227Y86726771D01*
X3403763Y86967881D01*
X3682876Y87180057D01*
X3983293Y87360812D01*
X4301493Y87508027D01*
X4633743Y87619975D01*
X4976150Y87695344D01*
X5324698Y87733251D01*
X5675302Y87733251D01*
X6023850Y87695344D01*
G37*
G36*
X91023850Y87695344D02*
G01*
X91366257Y87619975D01*
X91698507Y87508027D01*
X92016707Y87360812D01*
X92317124Y87180057D01*
X92596237Y86967881D01*
X92850773Y86726771D01*
X93077749Y86459554D01*
X93274504Y86169363D01*
X93438729Y85859601D01*
X93568501Y85533898D01*
X93662297Y85196074D01*
X93719019Y84850089D01*
X93738000Y84500000D01*
X93719019Y84149911D01*
X93662297Y83803926D01*
X93568501Y83466102D01*
X93438729Y83140399D01*
X93274504Y82830637D01*
X93077749Y82540446D01*
X92850773Y82273229D01*
X92596237Y82032119D01*
X92317124Y81819943D01*
X92016707Y81639188D01*
X91698507Y81491973D01*
X91366257Y81380025D01*
X91023850Y81304656D01*
X90675302Y81266749D01*
X90324698Y81266749D01*
X89976150Y81304656D01*
X89633743Y81380025D01*
X89301493Y81491973D01*
X88983293Y81639188D01*
X88682876Y81819943D01*
X88403763Y82032119D01*
X88149227Y82273229D01*
X87922251Y82540446D01*
X87725496Y82830637D01*
X87561271Y83140399D01*
X87431499Y83466102D01*
X87337703Y83803926D01*
X87280981Y84149911D01*
X87262000Y84500000D01*
X87280981Y84850089D01*
X87337703Y85196074D01*
X87431499Y85533898D01*
X87561271Y85859601D01*
X87725496Y86169363D01*
X87922251Y86459554D01*
X88149227Y86726771D01*
X88403763Y86967881D01*
X88682876Y87180057D01*
X88983293Y87360812D01*
X89301493Y87508027D01*
X89633743Y87619975D01*
X89976150Y87695344D01*
X90324698Y87733251D01*
X90675302Y87733251D01*
X91023850Y87695344D01*
G37*
M02*
